<svg width="51" height="50" viewBox="0 0 51 50" fill="none" xmlns="http://www.w3.org/2000/svg">
<g clip-path="url(#clip0)">
<path d="M6.07031 5.83022V49.1418C6.07031 49.6018 6.44324 49.9748 6.90332 49.9748H38.5541C39.0139 49.9748 39.3868 49.6018 39.3868 49.1418V14.1596C39.3868 14.1411 39.3779 14.1253 39.3761 14.1071C39.372 14.034 39.3576 13.962 39.3336 13.893C39.3243 13.8663 39.3178 13.8405 39.3062 13.8145C39.2657 13.7239 39.2094 13.6412 39.1394 13.5705L30.8104 5.24149C30.7397 5.17116 30.6567 5.1149 30.5654 5.07475C30.5404 5.06412 30.515 5.0552 30.4889 5.04731C30.4193 5.02329 30.3469 5.00888 30.2731 5.00408C30.2591 5.00648 30.2426 4.99756 30.2251 4.99756H6.90332C6.44324 4.99756 6.07031 5.37015 6.07031 5.83022ZM36.5433 13.3266H31.0578V7.84104L36.5433 13.3266ZM7.73598 6.66323H29.3921V14.1596C29.3921 14.6193 29.765 14.9923 30.2247 14.9923H37.7211V48.3091H7.73598V6.66323Z" fill="#505769"/>
<path d="M41.0515 43.3114V44.9771H43.5502C44.0103 44.9771 44.3832 44.6045 44.3832 44.1444V0.832891C44.3832 0.372816 44.0103 -0.000115395 43.5502 -0.000115395H11.8994C11.4393 -0.000115395 11.0664 0.372816 11.0664 0.832891V3.33157H12.7324V1.66555H42.7172V43.3114H41.0515Z" fill="#505769"/>
<path d="M12.7344 16.6583H32.7241V18.3239H12.7344V16.6583Z" fill="#505769"/>
<path d="M12.7344 11.6606H19.3977V13.3266H12.7344V11.6606Z" fill="#505769"/>
<path d="M12.7344 21.6557H26.0611V23.3217H12.7344V21.6557Z" fill="#505769"/>
<path d="M27.7227 21.6557H32.72V23.3217H27.7227V21.6557Z" fill="#505769"/>
<path d="M12.7344 26.653H32.7241V28.319H12.7344V26.653Z" fill="#505769"/>
<path d="M12.7344 36.648H32.7241V38.314H12.7344V36.648Z" fill="#505769"/>
<path d="M20.2305 31.6507H32.7242V33.3163H20.2305V31.6507Z" fill="#505769"/>
<path d="M12.7344 31.6507H18.5647V33.3163H12.7344V31.6507Z" fill="#505769"/>
<path d="M12.7344 41.6457H16.0661V43.3114H12.7344V41.6457Z" fill="#505769"/>
<path d="M17.7305 41.6457H32.7229V43.3114H17.7305V41.6457Z" fill="#505769"/>
</g>
<defs>
<clipPath id="clip0">
<rect x="0.25" y="-0.00012207" width="50" height="50" fill="white"/>
</clipPath>
</defs>
</svg>
