<svg width="20" height="23" viewBox="0 0 20 23" fill="none" xmlns="http://www.w3.org/2000/svg">
<path fill-rule="evenodd" clip-rule="evenodd" d="M19.4271 15.3202L17.2124 14.5443V13.3022C17.2124 13.3018 17.2124 13.3015 17.2124 13.3011V13.3001C17.2124 13.2994 17.2124 13.2987 17.2124 13.2978C17.2122 13.2853 17.2115 13.2728 17.2105 13.2604C17.21 13.256 17.2094 13.2514 17.209 13.247C17.2079 13.2383 17.2065 13.2295 17.205 13.2209C17.2039 13.2158 17.2031 13.2109 17.2021 13.2058C17.2002 13.1971 17.1977 13.1887 17.1954 13.1801C17.1939 13.1746 17.1922 13.169 17.1906 13.1635C17.1873 13.1533 17.1836 13.1434 17.1796 13.1334C17.1775 13.1285 17.1751 13.1237 17.1729 13.1188C17.1699 13.1116 17.1664 13.1046 17.1627 13.0977C17.1604 13.093 17.1579 13.0885 17.1552 13.0838C17.151 13.0766 17.1466 13.0694 17.142 13.0621C17.1398 13.0586 17.1376 13.0547 17.135 13.0511C17.1282 13.0413 17.1211 13.0316 17.1136 13.0223C17.1129 13.0216 17.1125 13.0209 17.1119 13.0204C17.1035 13.0104 17.0946 13.0006 17.0854 12.9911C17.0829 12.9887 17.0803 12.9865 17.0778 12.9841C17.0711 12.9775 17.0641 12.9709 17.0568 12.965C17.0531 12.9617 17.0493 12.9586 17.0453 12.9557C17.0421 12.953 17.0388 12.9502 17.0354 12.9475L13.2232 10.1109C13.5512 9.71817 13.7696 9.11777 13.7696 8.498C13.7696 6.99631 12.671 6.14322 11.7016 5.39038C11.1779 4.98389 10.6815 4.59827 10.3535 4.13711V2.40155H11.0587C11.3014 2.40155 11.4982 2.20476 11.4982 1.9621C11.4982 1.7193 11.3014 1.52264 11.0587 1.52264H10.3535V0.914551C10.3535 0.671753 10.1566 0.475098 9.91408 0.475098C9.67128 0.475098 9.47462 0.671753 9.47462 0.914551V1.52264H8.76916C8.52664 1.52264 8.32971 1.7193 8.32971 1.9621C8.32971 2.20476 8.52664 2.40155 8.76916 2.40155H9.47462V4.13711C9.14654 4.59827 8.6501 4.98389 8.12646 5.39038C7.15719 6.14322 6.05856 6.99658 6.05856 8.498C6.05856 9.10293 6.28145 9.70526 6.61378 10.1041L2.79246 12.9476C2.78903 12.9502 2.78601 12.953 2.78258 12.9557C2.77859 12.9586 2.77475 12.9617 2.77104 12.965C2.76376 12.9712 2.75676 12.9775 2.74989 12.9841C2.74756 12.9865 2.74495 12.9888 2.74248 12.9913C2.73328 13.0006 2.72435 13.0104 2.71597 13.0204C2.71542 13.0212 2.71487 13.0218 2.71432 13.0223C2.70677 13.0318 2.69963 13.0414 2.6929 13.0511C2.69029 13.0547 2.68809 13.0586 2.68576 13.0621C2.68123 13.0694 2.67683 13.0766 2.67244 13.084C2.66997 13.0885 2.6675 13.093 2.66516 13.0977C2.66145 13.1047 2.65802 13.1118 2.65486 13.1188C2.6528 13.1237 2.65033 13.1285 2.64841 13.1334C2.64415 13.1436 2.64044 13.1539 2.63715 13.1642C2.63536 13.1692 2.63399 13.1746 2.63248 13.1797C2.63014 13.1885 2.62767 13.1971 2.62575 13.2058C2.62479 13.2109 2.62396 13.2158 2.623 13.2207C2.62135 13.2295 2.61998 13.2383 2.61888 13.2474C2.61847 13.2516 2.61792 13.2558 2.61751 13.2603C2.61641 13.2731 2.61545 13.286 2.61545 13.299V14.5445L0.400604 15.3202C0.224411 15.382 0.106445 15.5483 0.106445 15.735V22.5356C0.106445 22.7784 0.303238 22.9751 0.545898 22.9751H19.282C19.5246 22.9751 19.7214 22.7784 19.7214 22.5356V15.735C19.7214 15.5483 19.6033 15.382 19.4271 15.3202ZM8.66548 6.08472C9.10068 5.74689 9.54672 5.4004 9.91408 4.99103C10.2812 5.4004 10.7272 5.74661 11.1624 6.08472C12.0896 6.80473 12.8904 7.4267 12.8904 8.498C12.8904 9.14413 12.5648 9.58757 12.4137 9.67422H7.42938C7.25648 9.56409 6.93747 9.10843 6.93747 8.498C6.93747 7.4267 7.73823 6.80473 8.66548 6.08472ZM0.985351 16.0467L2.61531 15.4757V22.0962H0.985351V16.0467ZM3.49422 14.8561V13.7397H8.15626C8.39879 13.7397 8.59572 13.5428 8.59572 13.3003C8.59572 13.0575 8.39879 12.8608 8.15626 12.8608H4.3815L7.4828 10.5531H12.3451L15.4461 12.8608H11.6716C11.4291 12.8608 11.2322 13.0575 11.2322 13.3003C11.2322 13.5428 11.4291 13.7397 11.6716 13.7397H16.3335V22.0962H11.9803V17.5737C11.9803 16.4341 11.0534 15.5071 9.91408 15.5071C8.77452 15.5071 7.84755 16.4341 7.84755 17.5737V22.0962H3.49422V14.8561ZM8.72645 22.0962V17.5737C8.72645 16.9187 9.25915 16.386 9.91408 16.386C10.5687 16.386 11.1014 16.9187 11.1014 17.5737V22.0962H8.72645ZM18.8425 22.0962H17.2124V15.4757L18.8425 16.0467V22.0962Z" fill="#3C414F"/>
<path fill-rule="evenodd" clip-rule="evenodd" d="M9.91433 13.7397C10.1563 13.7397 10.3538 13.5422 10.3538 13.3002C10.3538 13.0582 10.1563 12.8607 9.91433 12.8607C9.67209 12.8607 9.47461 13.0582 9.47461 13.3002C9.47461 13.5422 9.67209 13.7397 9.91433 13.7397Z" fill="#3C414F"/>
</svg>
