<svg width="15" height="15" viewBox="0 0 15 15" fill="none" xmlns="http://www.w3.org/2000/svg">
<path d="M12.111 9.75911C12.0437 9.06482 11.8439 8.33968 11.5331 7.66229C11.2512 7.04535 10.8812 6.45523 10.4343 5.90975C10.3087 5.75567 10.1811 5.6081 10.1152 5.54005L9.96349 5.37419C9.92645 5.33172 9.89529 5.29761 9.86444 5.26739L9.81903 5.22135C9.76942 5.17143 9.71827 5.11966 9.6758 5.06789C9.67254 5.0637 9.66898 5.05967 9.66526 5.05564C9.64464 5.03301 9.62247 5.01038 9.59767 4.98511C9.56543 4.95241 9.52885 4.91598 9.49629 4.87506C9.49211 4.86994 9.48777 4.86498 9.48343 4.85987C9.25215 4.60565 9.05762 4.37453 8.88897 4.1538C8.69148 3.89384 8.55197 3.67884 8.43603 3.4547C8.30179 3.1994 8.20134 2.91527 8.13779 2.60804C8.07749 2.32979 8.0423 2.01047 8.03285 1.65783C8.02354 1.34471 8.04261 1.04383 8.0623 0.79287C8.07656 0.625769 8.09268 0.47789 8.10849 0.347217C8.12074 0.245375 8.08183 0.143999 8.00448 0.0765693C7.92697 0.00898501 7.82126 -0.0159716 7.72221 0.0102251C7.57433 0.0488226 7.42273 0.0999758 7.27268 0.16198C6.95754 0.290483 6.64752 0.469209 6.35083 0.693819C5.97245 0.981052 5.64089 1.33587 5.36559 1.74773C5.02767 2.25105 4.78849 2.84303 4.67425 3.45765C4.54388 4.13395 4.5583 4.89707 4.71455 5.60515C4.86289 6.29061 5.15013 6.99063 5.54633 7.6316C5.75575 7.96533 5.95649 8.24435 6.15521 8.47857C6.21442 8.5522 6.37749 8.74255 6.3792 8.74472L6.4443 8.81928C6.48988 8.8709 6.52243 8.90981 6.5556 8.94949C6.58629 8.98592 6.61156 9.01615 6.63977 9.04622L6.64458 9.05118C6.9546 9.42196 7.17316 9.69416 7.35359 9.93504C7.55293 10.2001 7.72825 10.4571 7.88931 10.7203C8.0609 11.0015 8.18351 11.2474 8.27497 11.493C8.37821 11.7725 8.4461 12.0754 8.47757 12.3946C8.50656 12.6755 8.50671 12.9904 8.47834 13.3556C8.44982 13.6869 8.3982 13.9889 8.35759 14.2101C8.32721 14.3614 8.29745 14.501 8.27032 14.6216C8.24738 14.7238 8.2773 14.8307 8.35031 14.9057C8.40936 14.9667 8.48966 14.9997 8.5729 14.9997C8.59259 14.9997 8.61243 14.9978 8.63211 14.9941C8.77767 14.9656 8.9178 14.9284 9.05653 14.8813C9.3805 14.7758 9.70013 14.6225 10.0055 14.4268C10.4017 14.1763 10.7592 13.8551 11.0681 13.473C11.4426 13.0098 11.7351 12.4538 11.9138 11.8655C12.1143 11.2111 12.1826 10.4822 12.111 9.75911Z" fill="#FF4545"/>
<path d="M6.03472 11.6577C5.9056 11.3752 5.73664 11.1055 5.53342 10.8577C5.48227 10.7949 5.42042 10.7228 5.39019 10.6915L5.31873 10.6134C5.30013 10.5924 5.28665 10.5779 5.27238 10.5635L5.25285 10.5438C5.23022 10.5211 5.20759 10.498 5.18837 10.4751C5.18496 10.4711 5.18139 10.4669 5.17767 10.463L5.15086 10.4351C5.1352 10.419 5.11985 10.4033 5.10668 10.3869C5.10327 10.3827 5.0997 10.3785 5.09598 10.3745C4.99383 10.2624 4.90594 10.1581 4.82859 10.0572C4.76318 9.97055 4.68738 9.86499 4.62041 9.73602C4.55918 9.61945 4.51361 9.49017 4.48431 9.34927C4.45703 9.22263 4.44107 9.07692 4.43673 8.91617C4.43285 8.78271 4.44029 8.65653 4.44634 8.57329C4.45424 8.46339 4.40309 8.35736 4.31194 8.2952C4.2208 8.23304 4.10361 8.22405 4.00394 8.27133C3.88923 8.32605 3.77654 8.39487 3.66865 8.47641C3.49597 8.6077 3.34468 8.76953 3.21943 8.95709C3.11186 9.11722 2.96971 9.38291 2.90383 9.73679C2.84415 10.0462 2.85051 10.395 2.92181 10.7177C2.98955 11.031 3.12069 11.3508 3.30221 11.6445C3.39785 11.7966 3.48931 11.9238 3.57735 12.0277C3.60324 12.0598 3.65935 12.1247 3.68431 12.1537L3.68384 12.1542L3.71143 12.1855C3.73329 12.2101 3.74864 12.2284 3.76367 12.2467C3.77669 12.2627 3.78785 12.2759 3.79824 12.2867L3.80305 12.2918C3.89869 12.4061 4.02192 12.5553 4.12717 12.6959C4.21863 12.8173 4.29846 12.9345 4.37147 13.0543C4.44944 13.1817 4.5054 13.2938 4.54709 13.406C4.59422 13.5338 4.62537 13.6725 4.63979 13.8191C4.65296 13.947 4.65296 14.0909 4.64025 14.2555C4.63188 14.3533 4.61809 14.4565 4.59856 14.5711C4.57949 14.6819 4.62212 14.7945 4.7097 14.865C4.76566 14.9098 4.83448 14.9332 4.90408 14.9332C4.9433 14.9332 4.98298 14.9258 5.02049 14.9106C5.12838 14.8667 5.23518 14.8109 5.33594 14.7462C5.51683 14.6323 5.68037 14.4854 5.8222 14.3102C5.99303 14.0991 6.12649 13.8452 6.20818 13.5767C6.29855 13.2817 6.33048 12.9399 6.29855 12.6147C6.26755 12.2977 6.1764 11.9668 6.03472 11.6577Z" fill="#FF4545"/>
</svg>
