<svg width="166" height="165" viewBox="0 0 166 165" fill="none" xmlns="http://www.w3.org/2000/svg">
<path d="M81.4789 4.39498C81.1587 4.07482 80.8385 4.04571 80.5475 4.33677C80.402 4.4823 80.1982 4.68604 79.7907 6.83985C79.2377 9.69221 77.2877 19.2389 75.1047 21.5091C74.901 21.7128 74.6973 21.8002 74.4353 21.8002C73.8241 21.8002 73.2129 21.2181 72.689 20.665C72.427 20.4031 72.1651 20.0829 71.9031 19.7919C71.6994 19.559 71.4956 19.3262 71.321 19.1224C70.9426 18.6859 70.7971 17.9873 70.6516 17.3761C70.5351 16.9104 70.4478 16.4738 70.2732 16.2992C70.1277 16.1537 69.9239 16.0955 69.6911 16.1246C69.4582 16.1537 69.2254 16.2701 69.0508 16.4738C68.556 16.9977 68.3813 17.347 68.4104 18.162V18.2202C68.4977 19.7337 68.6142 20.5195 67.741 21.4218C67.4499 21.742 66.3148 22.0912 65.0051 22.4696C63.8117 22.8189 62.4729 23.2263 62.1527 23.5465C61.8617 23.8376 61.7161 24.3615 61.7161 25.0309C61.7161 25.9041 61.9781 26.7772 62.3564 27.1847C64.0737 28.9893 67.7119 28.2907 69.0508 26.8646C69.9821 25.9041 70.5934 24.6234 70.5934 23.6629C70.5934 23.6047 70.5934 23.5465 70.5934 23.4301C70.5934 23.0517 70.6807 22.7607 70.8262 22.6151C70.9426 22.4987 71.0882 22.4405 71.2628 22.4405C71.9031 22.4405 72.8927 23.0517 72.98 23.139C73.0673 23.2263 73.1255 23.3719 73.1255 23.5465C73.1255 25.5548 66.3439 32.8312 66.2566 32.8894C65.8491 33.2969 65.2961 33.4424 64.5685 33.2387C63.5789 33.0058 57.6413 32.7148 53.7412 36.8187C51.2381 39.4382 49.8119 42.9309 49.8119 46.3945C49.8119 47.7333 50.0156 48.8684 50.4522 49.9162C49.3753 49.4505 48.182 49.1886 46.7849 49.1886C43.3504 49.1886 39.8578 50.6148 37.2383 53.147C33.1635 57.0471 33.4545 62.9847 33.6583 64.0034C33.8329 64.731 33.7165 65.284 33.309 65.6915C33.2508 65.7497 25.9744 72.5604 23.9952 72.5604C23.8205 72.5604 23.675 72.5022 23.5877 72.4149C23.5004 72.3276 22.8892 71.338 22.8892 70.6977C22.8892 70.4939 22.9474 70.3484 23.0638 70.2611C23.2384 70.0865 23.5004 70.0283 23.8788 70.0283C23.9952 70.0283 24.0534 70.0283 24.1116 70.0283C25.0721 70.0283 26.3527 69.417 27.3132 68.4856C28.7394 67.1177 29.4379 63.5086 27.6334 61.7622C27.2259 61.3839 26.3527 61.1219 25.4796 61.1219C24.8101 61.1219 24.2862 61.2674 23.9952 61.5585C23.675 61.8496 23.2675 63.2175 22.9183 64.4109C22.5108 65.7206 22.1906 66.8557 21.8705 67.1759C20.9682 68.0491 20.1823 67.9326 18.6688 67.8453H18.6106C17.7957 67.8162 17.4173 67.9909 16.9225 68.4856C16.7188 68.6603 16.6023 68.8931 16.5732 69.126C16.5441 69.3588 16.6023 69.5626 16.7479 69.7081C16.9225 69.8827 17.3591 69.97 17.8248 70.0865C18.436 70.232 19.1345 70.3775 19.5711 70.7559C19.7458 70.9305 19.9786 71.1343 20.2406 71.338C20.5316 71.6 20.8518 71.8619 21.1137 72.1239C21.6667 72.6478 22.2488 73.2881 22.2488 73.8702C22.2488 74.1321 22.1615 74.3359 21.9578 74.5396C19.6875 76.7226 10.17 78.6726 7.31764 79.2256C5.19292 79.6331 4.96008 79.8369 4.81455 79.9824C4.52349 80.2443 4.5526 80.5936 4.87276 80.9138C4.90187 80.9138 5.01829 80.9429 5.48398 80.9429C8.27812 80.9429 17.9412 79.9824 24.4609 76.9263C24.8392 76.7517 25.1303 76.6643 25.4214 76.6643C25.7997 76.6643 26.0908 76.839 26.3236 77.0136C26.411 77.0718 26.4692 77.1009 26.5565 77.1591C30.5731 79.5167 36.8599 80.9138 40.6436 80.9138C41.6332 80.9138 42.5355 80.7973 43.0594 80.6227C43.1176 79.1965 43.2049 77.7995 43.3504 76.4315C41.6041 76.1987 39.5376 75.5292 37.9659 74.0157C37.442 73.5209 36.7726 72.5895 36.4524 71.5708C36.1031 70.3775 36.3069 69.3588 37.0927 68.6021C39.0428 66.7393 42.2735 65.3713 46.1737 64.6728C46.9887 62.519 48.2111 60.1323 49.288 58.1531C45.2132 58.939 41.0511 60.7435 37.6166 62.9847C36.6561 63.5959 35.8412 63.7123 35.4337 63.334C35.2882 63.2175 35.2882 62.1988 35.2882 62.1697C35.2882 60.7727 35.5792 57.2218 38.5189 54.4276C41.4586 51.6044 44.9513 51.1969 46.7558 51.1969C48.9678 51.1969 51.0343 51.8081 52.0239 52.7686C52.1404 52.885 52.8971 53.7 52.9262 53.8164C52.9844 53.7291 53.9449 52.9141 54.3815 52.594C54.236 52.5649 53.3046 51.6626 53.3046 51.6917C52.3732 50.7021 51.762 48.6356 51.762 46.4236C51.762 44.5899 52.1695 41.0972 54.9927 38.1576C57.816 35.2179 61.3377 34.8977 62.7348 34.8977C62.7348 34.8977 63.7535 34.8977 63.899 35.0432C64.2774 35.4507 64.161 36.2657 63.5498 37.2262C61.3377 40.6606 59.7952 44.5026 59.0384 48.6065C61.0176 47.5296 63.0841 46.5982 65.2379 45.7832C65.9364 41.854 67.2753 38.6232 69.1381 36.6732C69.8948 35.8873 70.9135 35.6836 72.0777 36.0328C73.1255 36.353 74.0278 37.0224 74.5226 37.5463C76.0361 39.1471 76.7055 41.1845 76.9384 42.96C78.3064 42.8145 79.7034 42.698 81.1296 42.6398C81.3042 42.1159 81.4207 41.2136 81.4207 40.224C81.4207 36.4403 80.0236 30.1244 77.666 26.1078C77.6078 26.0205 77.5787 25.9623 77.5205 25.875C77.3459 25.613 77.1712 25.3511 77.1712 24.9436C77.1712 24.6816 77.2585 24.3615 77.4332 23.9831C80.4893 17.4634 81.4498 7.77124 81.4498 4.97709C81.508 4.54051 81.4789 4.39498 81.4789 4.39498ZM36.8599 75.2673C37.5002 75.8785 41.7496 77.8868 41.7787 77.9159C42.0407 78.1487 42.0407 78.3234 41.8078 78.5271C41.5168 78.8182 40.7018 78.9346 39.4212 78.9346C35.9867 78.9346 29.6708 77.8577 27.9827 76.2278C27.8371 76.0822 27.7498 75.9076 27.7498 75.733C27.7498 75.5583 27.8371 75.3837 27.9827 75.2382C28.0118 75.2091 32.9888 71.2216 34.1822 71.2216C34.2986 71.2216 34.3859 71.2507 34.4441 71.3089C34.5896 71.4544 34.7061 71.6291 34.8225 71.8619L34.8807 71.9783C35.5501 73.4918 35.8994 74.3359 36.8599 75.2673ZM79.5288 39.0307C79.5288 40.3114 79.3833 41.1263 79.1213 41.4174C78.9176 41.6211 78.7138 41.6211 78.5101 41.3883C78.481 41.3592 76.4727 37.0806 75.8906 36.4403C74.9883 35.4798 74.1442 35.1306 72.5725 34.4902L72.4561 34.432C72.2524 34.3156 72.0486 34.1992 71.9031 34.0536C71.8449 33.9954 71.8158 33.9081 71.8158 33.7917C71.8158 32.5984 75.7742 27.6213 75.8324 27.5631C75.9779 27.3885 76.1525 27.3302 76.3272 27.3302C76.5018 27.3302 76.6764 27.4176 76.822 27.5631C78.4519 29.2512 79.5288 35.5963 79.5288 39.0307Z" fill="#C5AA79"/>
<path d="M88.6099 24.0121C88.7846 24.3905 88.8719 24.6816 88.8719 24.9726C88.8719 25.351 88.6973 25.6421 88.5226 25.904C88.4644 25.9913 88.4353 26.0495 88.3771 26.1369C86.0195 30.1534 84.6225 36.4694 84.6225 40.2531C84.6225 41.2427 84.7098 42.145 84.9135 42.6689C86.3106 42.7271 87.7077 42.8144 89.1047 42.989C89.3376 41.2136 90.007 39.1762 91.5205 37.5754C92.0153 37.0515 92.9176 36.382 93.9654 36.0619C95.1587 35.7126 96.1774 35.9164 96.9051 36.7022C98.7678 38.6523 100.136 41.883 100.805 45.8123C102.959 46.6272 105.026 47.5586 107.005 48.6355C106.219 44.5316 104.705 40.6897 102.493 37.2552C101.882 36.2947 101.766 35.4798 102.144 35.0723C102.26 34.9268 103.279 34.9268 103.308 34.9268C104.705 34.9268 108.227 35.2178 111.05 38.1866C113.874 41.1263 114.281 44.619 114.281 46.4526C114.281 48.6646 113.67 50.7311 112.709 51.7207C112.709 51.7207 111.603 52.5357 111.487 52.5648C111.865 52.8268 112.768 53.6417 112.855 53.7872C112.855 53.729 113.845 52.8559 113.932 52.7976C114.921 51.8372 116.988 51.2259 119.2 51.2259C121.005 51.2259 124.497 51.6334 127.437 54.4567C130.377 57.2799 130.697 60.8308 130.668 62.1988C130.668 62.1988 130.668 63.2175 130.522 63.363C130.115 63.7414 129.3 63.625 128.339 63.0137C124.934 60.7726 121.005 59.3173 116.93 58.5606C118.007 60.5689 118.996 62.5771 119.811 64.7019C123.74 65.4004 126.942 66.7393 128.892 68.6311C129.678 69.3879 129.882 70.4066 129.532 71.5999C129.212 72.6477 128.543 73.55 128.019 74.0448C126.418 75.5583 124.381 76.2277 122.634 76.4605C122.78 77.8285 122.896 79.2256 122.926 80.6518C123.449 80.8264 124.352 80.9428 125.341 80.9428C129.125 80.9428 135.412 79.5458 139.428 77.1882C139.516 77.13 139.574 77.1009 139.661 77.0427C139.923 76.868 140.185 76.6934 140.564 76.6934C140.825 76.6934 141.146 76.7807 141.524 76.9553C148.044 80.0405 157.707 80.9719 160.501 80.9719C160.967 80.9719 161.112 80.9428 161.112 80.9428C161.432 80.6227 161.461 80.3025 161.17 80.0114C161.025 79.8659 160.821 79.6622 158.667 79.2547C155.815 78.7017 146.297 76.7516 144.027 74.5687C143.823 74.3649 143.736 74.1612 143.736 73.8992C143.736 73.288 144.318 72.6768 144.871 72.1529C145.133 71.891 145.453 71.629 145.744 71.3671C145.977 71.1633 146.21 70.9596 146.414 70.7849C146.85 70.4066 147.549 70.261 148.16 70.1155C148.626 69.9991 149.062 69.9118 149.237 69.7371C149.383 69.5916 149.441 69.3879 149.412 69.155C149.383 68.9222 149.266 68.6893 149.062 68.5147C148.538 68.0199 148.189 67.8453 147.374 67.8744H147.316C145.803 67.9617 145.017 68.0781 144.114 67.2049C143.794 66.8848 143.445 65.7788 143.067 64.4399C142.717 63.2466 142.31 61.9077 141.99 61.5876C141.699 61.2965 141.175 61.151 140.505 61.151C139.632 61.151 138.759 61.4129 138.352 61.7913C136.547 63.5376 137.275 67.1467 138.672 68.5147C139.632 69.4461 140.913 70.0573 141.873 70.0573C141.932 70.0573 141.99 70.0573 142.106 70.0573C142.485 70.0573 142.746 70.1446 142.921 70.2901C143.038 70.4066 143.096 70.5521 143.096 70.7267C143.096 71.3671 142.485 72.3567 142.397 72.444C142.31 72.5313 142.164 72.5895 141.99 72.5895C139.981 72.5895 132.734 65.7788 132.676 65.7206C132.268 65.3131 132.152 64.7601 132.327 64.0324C132.559 63.0137 132.851 57.0762 128.747 53.176C126.127 50.6729 122.664 49.2176 119.2 49.2176C117.832 49.2176 116.668 49.4505 115.62 49.8871C116.027 48.8684 116.231 47.7333 116.231 46.4235C116.231 42.9599 114.805 39.4964 112.302 36.8477C108.402 32.7438 102.464 33.0349 101.475 33.2677C100.747 33.4424 100.194 33.326 99.7865 32.9185C99.7283 32.8603 92.9176 25.5838 92.9176 23.5756C92.9176 23.4009 92.9758 23.2554 93.0631 23.1681C93.1504 23.0808 94.1109 22.4695 94.7803 22.4695C94.9841 22.4695 95.1296 22.5278 95.2169 22.6442C95.3916 22.8188 95.4498 23.0808 95.4498 23.4591C95.4498 23.5756 95.4498 23.6338 95.4498 23.692C95.4498 24.6525 96.061 25.9331 96.9924 26.8936C98.3312 28.3198 101.969 29.0474 103.687 27.2138C104.065 26.8063 104.327 25.9331 104.327 25.0599C104.327 24.3905 104.181 23.8666 103.89 23.5756C103.599 23.2554 102.231 22.8479 101.038 22.4986C99.7283 22.0912 98.5932 21.771 98.3021 21.4508C97.429 20.5486 97.5454 19.7627 97.6327 18.2492V18.191C97.6618 17.3761 97.4872 16.9977 96.9924 16.5029C96.8177 16.2991 96.5849 16.1827 96.352 16.1536C96.1192 16.1245 95.9155 16.1827 95.7699 16.3282C95.5953 16.5029 95.508 16.9395 95.3916 17.4052C95.246 18.0164 95.1005 18.7149 94.7221 19.1515C94.5475 19.3261 94.3438 19.559 94.14 19.8209C93.8781 20.112 93.6161 20.4321 93.3542 20.6941C92.8303 21.2471 92.1899 21.8292 91.6078 21.8292C91.3459 21.8292 91.1421 21.7128 90.9384 21.5382C88.7555 19.2679 86.8054 9.72126 86.2524 6.86891C85.8449 4.71509 85.6412 4.51135 85.4956 4.36582C85.2337 4.07476 84.8844 4.10387 84.5643 4.42403C84.5643 4.45314 84.5352 4.56956 84.5352 5.03525C84.5934 7.80029 85.5539 17.4925 88.6099 24.0121ZM131.162 71.8327C131.279 71.629 131.395 71.4253 131.541 71.2797C131.599 71.2215 131.686 71.1924 131.803 71.1924C132.996 71.1924 137.973 75.1508 138.002 75.209C138.177 75.3545 138.235 75.5292 138.235 75.7038C138.235 75.8784 138.148 76.0531 138.002 76.1986C136.285 77.8285 129.969 78.9054 126.564 78.9054C125.283 78.9054 124.468 78.7599 124.177 78.4979C123.973 78.2942 123.973 78.0905 124.206 77.8867C124.235 77.8576 128.514 75.8493 129.125 75.2381C130.085 74.3067 130.435 73.4627 131.075 71.9201L131.162 71.8327ZM89.8033 27.3011C89.9779 27.3011 90.1525 27.3884 90.2981 27.5339C90.3272 27.563 94.3146 32.5692 94.3146 33.7625C94.3146 33.879 94.2855 33.9663 94.2273 34.0245C94.0818 34.17 93.9072 34.2864 93.6743 34.4029L93.5579 34.4611C92.0153 35.0723 91.1712 35.4507 90.2399 36.4112C89.6286 37.0515 87.6203 41.3009 87.6203 41.3591C87.3875 41.6211 87.2129 41.6211 87.0091 41.3882C86.7181 41.0972 86.6017 40.2822 86.6017 39.0016C86.6017 35.5671 87.6786 29.2221 89.3085 27.5339C89.4249 27.3884 89.5995 27.3011 89.8033 27.3011Z" fill="#C5AA79"/>
<path d="M77.4916 140.988C77.3169 140.609 77.2296 140.318 77.2296 140.027C77.2296 139.649 77.4043 139.358 77.5789 139.096C77.6371 139.009 77.6662 138.95 77.7244 138.863C80.082 134.847 81.479 128.531 81.479 124.747C81.479 123.757 81.3917 122.913 81.188 122.389C79.7909 122.331 78.3939 122.186 76.9968 122.011C76.7639 123.786 76.0945 125.824 74.581 127.425C74.0862 127.949 73.1839 128.618 72.1361 128.938C70.9428 129.287 69.9241 129.084 69.1965 128.298C67.3337 126.348 65.9657 123.117 65.2963 119.188C63.1425 118.373 61.076 117.441 59.0968 116.364C59.8827 120.468 61.3961 124.31 63.6082 127.745C64.2194 128.705 64.3358 129.52 63.9574 129.928C63.841 130.073 62.8223 130.073 62.7932 130.073C61.3961 130.073 57.8744 129.782 55.0511 126.813C52.2279 123.874 51.8204 120.381 51.8204 118.547C51.8204 116.335 52.4316 114.269 53.3921 113.279C53.5085 113.163 54.3817 112.319 54.5272 112.319C54.1488 112.028 53.7414 111.737 53.363 111.446C53.2757 111.3 53.1592 111.184 53.0719 111.038C53.0428 111.184 52.1988 112.057 52.0823 112.173C51.0927 113.134 49.0262 113.745 46.8142 113.745C45.0097 113.745 41.517 113.337 38.5773 110.514C35.6376 107.691 35.3175 104.14 35.3466 102.772C35.3466 102.772 35.3466 101.753 35.4921 101.608C35.8996 101.23 36.7145 101.346 37.675 101.957C41.0804 104.198 45.2425 106.003 49.3464 106.789C48.2695 104.78 47.018 102.423 46.2321 100.269C42.3028 99.5705 39.1012 98.2316 37.1511 96.3398C36.3653 95.583 36.1615 94.5643 36.5108 93.371C36.831 92.3232 37.5004 91.4209 38.0243 90.9261C39.6251 89.4126 41.6625 88.7432 43.4088 88.5103C43.2633 87.1424 43.1469 85.7453 43.1178 84.3191C42.5939 84.1445 41.6916 84.0281 40.702 84.0281C36.9183 84.0281 30.6315 85.4251 26.6149 87.7827C26.5276 87.8409 26.4694 87.87 26.382 87.9282C26.1201 88.1029 25.8581 88.2775 25.4798 88.2775C25.2178 88.2775 24.8976 88.1902 24.5193 88.0155C17.9705 84.9886 8.30742 84.0281 5.51328 84.0281C5.04759 84.0281 4.90206 84.0572 4.90206 84.0572C4.5819 84.3773 4.55279 84.6975 4.84385 84.9886C4.98938 85.1341 5.19312 85.3378 7.34693 85.7453C10.1993 86.2983 19.7168 88.2484 21.9871 90.4313C22.1908 90.6351 22.2781 90.8388 22.2781 91.1007C22.2781 91.712 21.696 92.3232 21.143 92.8471C20.8811 93.109 20.5609 93.371 20.2698 93.6329C20.037 93.8367 19.8042 94.0404 19.6004 94.2151C19.1638 94.5934 18.4653 94.739 17.8541 94.8845C17.3884 95.0009 16.9518 95.0882 16.7772 95.2629C16.6316 95.4084 16.5734 95.6121 16.6025 95.845C16.6316 96.0778 16.7481 96.3107 16.9518 96.4853C17.4757 96.9801 17.825 97.1547 18.6399 97.1256H18.6981C20.2116 97.0383 20.9975 96.9219 21.8998 97.795C22.2199 98.1152 22.5692 99.2503 22.9476 100.56C23.2968 101.753 23.7043 103.092 24.0245 103.412C24.3155 103.703 24.8394 103.849 25.5089 103.849C26.382 103.849 27.2552 103.587 27.6627 103.209C29.4672 101.462 28.7396 97.8533 27.3425 96.4853C26.382 95.5539 25.1014 94.9427 24.1409 94.9427C24.0827 94.9427 24.0245 94.9427 23.9081 94.9427C23.5297 94.9427 23.2677 94.8554 23.0931 94.7098C22.9767 94.5934 22.9185 94.4479 22.9185 94.2733C22.9185 93.6329 23.5297 92.6433 23.617 92.556C23.7043 92.4687 23.8498 92.4105 24.0245 92.4105C26.0328 92.4105 33.2801 99.2212 33.3383 99.2794C33.7458 99.6869 33.8622 100.24 33.6876 100.968C33.4547 101.986 33.1637 107.924 37.2676 111.824C39.8871 114.327 43.3506 115.782 46.8142 115.782C48.2404 115.782 49.4337 115.52 50.5106 115.055C50.074 116.103 49.8412 117.267 49.8412 118.635C49.8412 122.098 51.2674 125.562 53.7705 128.21C57.6706 132.314 63.6082 132.023 64.5978 131.79C65.3254 131.616 65.8784 131.732 66.2859 132.14C66.3441 132.198 73.1548 139.474 73.1548 141.483C73.1548 141.657 73.0966 141.803 73.0093 141.89C72.922 141.977 71.9615 142.589 71.2921 142.589C71.0883 142.589 70.9428 142.53 70.8555 142.414C70.6809 142.239 70.6226 141.977 70.6226 141.599C70.6226 141.483 70.6226 141.424 70.6226 141.366C70.6226 140.406 70.0114 139.125 69.08 138.165C67.7412 136.738 64.103 136.011 62.3857 137.844C62.0074 138.252 61.7454 139.125 61.7454 139.998C61.7454 140.668 61.8909 141.192 62.182 141.483C62.4731 141.803 63.841 142.21 65.0344 142.56C66.3441 142.967 67.4792 143.287 67.7703 143.607C68.6435 144.51 68.527 145.295 68.4397 146.809V146.867C68.4106 147.682 68.5852 148.061 69.08 148.555C69.2547 148.759 69.4875 148.875 69.7204 148.905C69.9532 148.934 70.157 148.875 70.3025 148.73C70.4771 148.555 70.5644 148.119 70.6809 147.653C70.8264 147.042 70.9719 146.343 71.3503 145.907C71.5249 145.732 71.7287 145.499 71.9324 145.237C72.1943 144.946 72.4563 144.626 72.7183 144.364C73.2421 143.811 73.8825 143.229 74.4646 143.229C74.7265 143.229 74.9303 143.345 75.134 143.52C77.3169 145.79 79.267 155.337 79.82 158.189C80.2275 160.343 80.4312 160.547 80.5768 160.692C80.8387 160.983 81.188 160.954 81.5081 160.634C81.5081 160.605 81.5373 160.489 81.5373 160.023C81.5082 157.2 80.5477 147.508 77.4916 140.988ZM34.8518 93.1381C34.7354 93.3419 34.6189 93.5456 34.4734 93.6911C34.4152 93.7494 34.3279 93.7785 34.2115 93.7785C33.0181 93.7785 28.0411 89.8201 28.012 89.7619C27.8373 89.6164 27.7791 89.4417 27.7791 89.2671C27.7791 89.0925 27.8664 88.9178 28.012 88.7723C29.7292 87.1424 36.0451 86.0655 39.4505 86.0655C40.7311 86.0655 41.5461 86.211 41.8371 86.4729C42.0409 86.6767 42.0409 86.8804 41.808 87.0842C41.7789 87.1133 37.5004 89.1216 36.8892 89.7328C35.9287 90.6642 35.5794 91.5082 34.9391 93.0508L34.8518 93.1381ZM76.2982 137.699C76.1236 137.699 75.949 137.612 75.8035 137.466C75.7743 137.437 71.7869 132.431 71.7869 131.237C71.7869 131.121 71.816 131.034 71.8742 130.975C72.0197 130.83 72.1944 130.714 72.4272 130.597L72.5436 130.539C74.0862 129.928 74.9303 129.549 75.8617 128.589C76.4729 127.949 78.4812 123.699 78.4812 123.641C78.714 123.379 78.8886 123.379 79.0924 123.612C79.3834 123.903 79.4999 124.718 79.4999 125.998C79.4999 129.433 78.423 135.778 76.793 137.466C76.6475 137.612 76.4729 137.699 76.2982 137.699Z" fill="#C5AA79"/>
<path d="M161.142 84.0572C161.113 84.0572 160.996 84.0281 160.53 84.0281C157.736 84.0281 148.073 84.9886 141.554 88.0447C141.175 88.2193 140.884 88.3066 140.593 88.3066C140.215 88.3066 139.924 88.132 139.691 87.9573C139.603 87.8991 139.545 87.87 139.458 87.8118C135.441 85.4543 129.155 84.0572 125.371 84.0572C124.381 84.0572 123.479 84.1736 122.955 84.3482C122.897 85.7744 122.809 87.1715 122.664 88.5395C124.41 88.7723 126.477 89.4417 128.049 90.9552C128.572 91.45 129.242 92.3814 129.562 93.4001C129.911 94.5934 129.708 95.6121 128.922 96.3689C126.972 98.2316 123.741 99.5996 119.841 100.298C119.026 102.452 117.803 104.518 116.726 106.527C120.801 105.741 124.963 104.227 128.398 102.015C129.358 101.404 130.173 101.288 130.581 101.666C130.726 101.783 130.726 102.801 130.726 102.83C130.726 104.227 130.435 107.778 127.495 110.572C124.556 113.396 121.063 113.803 119.259 113.803C117.047 113.803 114.98 113.192 113.99 112.231C113.932 112.173 113.03 111.155 113.001 111.096C112.884 111.271 111.953 112.115 111.633 112.348C111.749 112.377 112.768 113.308 112.768 113.337C113.729 114.327 114.34 116.394 114.34 118.606C114.34 120.439 113.932 123.932 111.109 126.872C108.257 129.811 104.706 130.102 103.309 130.102C103.309 130.102 102.29 130.102 102.144 129.957C101.766 129.549 101.883 128.734 102.494 127.774C104.706 124.339 106.248 120.497 107.005 116.394C105.026 117.47 102.959 118.402 100.806 119.217C100.107 123.146 98.7682 126.377 96.9055 128.327C96.1487 129.113 95.13 129.316 93.9658 128.967C92.918 128.647 92.0157 127.978 91.5209 127.454C90.0074 125.853 89.338 123.816 89.1051 122.04C87.7372 122.186 86.3401 122.36 84.9139 122.418C84.7393 122.942 84.6229 123.786 84.6229 124.776C84.6229 128.56 86.0199 134.876 88.3775 138.892C88.4357 138.98 88.4648 139.038 88.523 139.125C88.6976 139.387 88.8723 139.649 88.8723 140.056C88.8723 140.318 88.785 140.639 88.6103 141.017C85.5542 147.537 84.5938 157.229 84.5938 160.023C84.5938 160.489 84.6229 160.634 84.6229 160.634C84.943 160.954 85.2632 160.983 85.5542 160.692C85.6998 160.547 85.9035 160.343 86.311 158.189C86.864 155.337 88.8141 145.79 90.997 143.52C91.2007 143.316 91.4045 143.229 91.6664 143.229C92.2777 143.229 92.8889 143.811 93.4128 144.364C93.6747 144.626 93.9367 144.946 94.1986 145.237C94.4024 145.47 94.6061 145.703 94.7807 145.907C95.1591 146.343 95.3046 147.042 95.4502 147.653C95.5666 148.119 95.6539 148.555 95.8285 148.73C95.9741 148.875 96.1778 148.934 96.4107 148.905C96.6435 148.875 96.8763 148.759 97.051 148.555C97.5458 148.031 97.7204 147.682 97.6913 146.867V146.809C97.604 145.295 97.4876 144.51 98.3607 143.607C98.6518 143.287 99.7869 142.938 101.097 142.56C102.29 142.21 103.629 141.803 103.949 141.483C104.24 141.192 104.386 140.668 104.386 139.998C104.386 139.125 104.124 138.252 103.745 137.844C102.028 136.04 98.3898 136.738 97.051 138.165C96.1196 139.125 95.5084 140.406 95.5084 141.366C95.5084 141.424 95.5084 141.483 95.5084 141.599C95.5084 141.977 95.4211 142.268 95.2755 142.414C95.1591 142.53 95.0136 142.589 94.8389 142.589C94.1986 142.589 93.209 141.977 93.1217 141.89C93.0344 141.803 92.9762 141.657 92.9762 141.483C92.9762 139.474 99.7578 132.198 99.8451 132.14C100.253 131.732 100.806 131.587 101.533 131.79C102.523 132.023 108.46 132.314 112.361 128.21C114.864 125.591 116.29 122.098 116.29 118.635C116.29 117.296 116.057 116.132 115.649 115.084C116.726 115.549 117.891 115.782 119.259 115.782C122.693 115.782 126.186 114.356 128.805 111.824C132.88 107.924 132.589 101.986 132.385 100.968C132.211 100.24 132.327 99.6869 132.735 99.2794C132.793 99.2212 140.069 92.4105 142.048 92.4105C142.223 92.4105 142.368 92.4687 142.456 92.556C142.543 92.6433 143.154 93.6329 143.154 94.2733C143.154 94.477 143.096 94.6225 142.98 94.7098C142.805 94.8845 142.543 94.9427 142.165 94.9427C142.048 94.9427 141.99 94.9427 141.932 94.9427C140.971 94.9427 139.691 95.5539 138.73 96.4853C137.304 97.8533 136.606 101.462 138.41 103.209C138.818 103.587 139.691 103.849 140.564 103.849C141.233 103.849 141.757 103.703 142.048 103.412C142.368 103.121 142.776 101.753 143.125 100.56C143.533 99.2503 143.853 98.1152 144.173 97.795C145.075 96.9219 145.861 97.0383 147.375 97.1256H147.433C148.248 97.1547 148.626 96.9801 149.121 96.4853C149.325 96.3107 149.441 96.0778 149.47 95.845C149.499 95.6121 149.441 95.4084 149.296 95.2629C149.121 95.0882 148.684 95.0009 148.219 94.8845C147.608 94.739 146.909 94.5934 146.472 94.2151C146.298 94.0404 146.065 93.8367 145.803 93.6329C145.512 93.371 145.192 93.109 144.93 92.8471C144.377 92.3232 143.795 91.6829 143.795 91.1007C143.795 90.8388 143.882 90.6351 144.086 90.4313C146.356 88.2484 155.874 86.2983 158.726 85.7453C160.851 85.3378 161.083 85.1341 161.229 84.9886C161.491 84.6975 161.462 84.3482 161.142 84.0572ZM90.2985 137.466C90.1529 137.641 89.9783 137.699 89.8037 137.699C89.629 137.699 89.4544 137.612 89.3089 137.466C87.679 135.749 86.602 129.433 86.602 125.998C86.602 124.718 86.7476 123.903 87.0095 123.612C87.2133 123.408 87.417 123.408 87.6207 123.641C87.6498 123.67 89.6581 127.949 90.2402 128.589C91.1425 129.549 91.9866 129.899 93.5583 130.539L93.6747 130.597C93.8785 130.714 94.0822 130.83 94.2277 130.975C94.2859 131.034 94.315 131.121 94.315 131.237C94.315 132.431 90.3276 137.408 90.2985 137.466ZM138.032 89.7619C138.003 89.791 133.026 93.7785 131.832 93.7785C131.716 93.7785 131.629 93.7494 131.57 93.6911C131.425 93.5456 131.308 93.371 131.192 93.1381L131.134 93.0217C130.522 91.4791 130.144 90.6351 129.184 89.7037C128.543 89.0925 124.294 87.0842 124.265 87.0551C124.003 86.8222 124.003 86.6476 124.236 86.4438C124.527 86.1528 125.342 86.0364 126.622 86.0364C130.057 86.0364 136.373 87.1133 138.061 88.7432C138.206 88.8887 138.294 89.0634 138.294 89.238C138.265 89.4126 138.177 89.5873 138.032 89.7619Z" fill="#C5AA79"/>
<path d="M78.7436 75.2381C78.7727 75.2381 78.7727 75.209 78.8309 75.1799C78.9765 75.0344 79.0638 74.8015 79.122 74.656C79.0638 74.656 78.9764 74.6851 78.9182 74.6851C78.569 74.6851 78.2488 74.5105 78.0742 74.2485C77.8122 74.365 77.1719 74.656 77.463 75.6456V75.6747V75.7038L78.7436 75.2381Z" fill="#C5AA79"/>
<path d="M86.8928 61.3839C87.0092 61.413 87.1256 61.413 87.2712 61.413C87.5622 61.413 87.8242 61.3547 88.0279 61.2674C88.7264 61.0637 89.3668 60.9473 89.8907 60.9764C89.425 59.7539 88.2899 59.6084 87.7951 59.6084C87.4167 59.6084 87.1256 59.6957 86.9801 59.783C86.9219 59.8121 86.8637 59.8704 86.8055 59.8995C86.4562 60.1323 85.9614 60.4525 85.4375 60.598C85.6995 60.6853 85.7868 60.7144 85.7868 60.7144C86.1651 60.86 86.5435 61.0928 86.8928 61.3839Z" fill="#C5AA79"/>
<path d="M78.3379 62.7809C78.4252 62.6354 78.4834 62.519 78.5707 62.4026C78.6289 62.3153 78.7162 62.2279 78.7745 62.1406C78.4543 62.1988 78.1341 62.1988 77.814 62.2279C77.4065 62.2279 76.9699 62.257 76.5624 62.4026C75.9512 62.6063 75.7475 63.334 75.6602 63.7996C75.9803 63.5377 76.3878 63.3631 76.8244 63.3048C77.4356 63.2175 77.9304 63.0429 78.3379 62.7809Z" fill="#C5AA79"/>
<path d="M90.8805 59.9867C90.8805 59.9867 90.7641 59.9285 90.6186 59.8411C90.5604 59.812 90.5022 59.812 90.4439 59.7829H90.4148L90.3857 59.7538C89.8909 58.5023 89.1633 57.6873 88.2319 57.2798H88.2028V57.2507C88.1446 57.2216 88.0573 57.1925 87.9991 57.1634H87.97C87.9409 57.1634 87.9117 57.1343 87.9117 57.1343C87.8244 57.1052 87.7662 57.0761 87.7371 57.0761L87.708 57.047L87.6498 57.0179L87.2714 56.7559C86.4565 56.2029 85.6706 55.9119 84.943 55.9119C84.4773 55.9119 84.0407 56.0283 83.5459 56.2611L83.4877 56.2902L83.2839 56.4067L82.9929 56.3193C82.76 56.2611 82.5272 56.232 82.2944 56.232C81.6831 56.232 80.81 56.4358 80.0532 57.3963L80.0241 57.4254L79.7039 57.5418C79.3838 57.7455 78.5397 58.3567 78.0449 59.3463C78.1031 59.3463 78.1322 59.3463 78.1905 59.3463C78.2196 59.3172 78.2196 59.2881 78.2487 59.259C78.2487 59.2299 79.6457 57.3963 82.4399 56.9306C82.4399 56.9306 82.7892 56.8432 83.3422 56.8432C84.3609 56.8432 86.34 57.1052 88.261 58.7642C88.3483 58.8515 88.4065 58.9097 88.4357 58.9389C90.2402 59.1135 90.8514 60.7725 90.9387 61.0636C90.997 61.0927 91.0261 61.0927 91.0843 61.1218C92.1321 61.5293 92.5687 62.4606 92.7433 63.2756C92.6851 61.8203 91.8119 60.5397 90.8805 59.9867Z" fill="#C5AA79"/>
<path d="M79.0937 73.4917C78.9773 73.4917 78.89 73.4626 78.8027 73.4335C78.7154 73.579 78.5989 73.8701 78.8027 74.1029C78.8609 74.1612 78.9482 74.2194 79.0937 74.2194C79.2102 74.2194 79.5012 74.1611 79.5885 73.7537C79.6176 73.579 79.6176 73.4335 79.6176 73.3462C79.4721 73.4335 79.2975 73.4917 79.0937 73.4917Z" fill="#C5AA79"/>
<path d="M93.2669 68.5438C93.8199 68.1364 94.1401 67.7289 94.1692 67.2632C94.2274 66.6811 94.0236 66.2154 94.0236 66.2154L93.9654 66.1572L94.0236 66.099C95.3916 64.3235 94.6349 62.2861 94.2274 61.5876L94.1692 61.5294C94.111 61.4712 94.0527 61.3838 93.9654 61.3256L93.9363 61.2965V61.2674C93.6162 60.045 92.5975 58.8225 91.4332 58.2404L91.1422 58.0658V58.0367L90.822 57.4837L90.7929 57.4546C90.2399 56.5232 89.5996 55.8829 88.8137 55.5045H88.7846V55.4754C88.7846 55.4754 88.7846 55.4754 88.7846 55.4463C88.6973 55.3881 88.5227 55.3008 88.2898 55.2425H88.2607C88.2316 55.2425 88.2025 55.2134 88.1734 55.2134C88.0861 55.1843 88.0279 55.1843 87.9988 55.1552C87.9406 55.1552 87.9406 55.1261 87.9406 55.1261H87.9114L87.242 54.806H87.3002C86.4562 54.3403 85.6121 54.1074 84.7971 54.1074C83.9822 54.1074 83.4292 54.3403 83.1672 54.4858L83.1381 54.5149L83.109 54.544L83.0799 54.5149L83.0508 54.4858L82.9635 54.5731V54.4858C82.7888 54.4276 82.4105 54.3403 81.8866 54.3403C81.2754 54.3403 80.3731 54.4858 79.5581 55.2716L79.529 55.3008H79.4999C79.2671 55.359 79.0924 55.4463 78.976 55.5045L78.8596 55.5627C78.1611 55.9702 77.3461 56.5523 76.8513 57.4255V57.4546H76.8222C76.7931 57.4837 76.764 57.5128 76.7349 57.571C76.5893 57.8038 76.5311 57.9785 76.502 58.124L76.4729 58.2113C76.4729 58.2695 76.4438 58.2986 76.4438 58.3277V58.3569L76.211 58.5897L76.0363 58.7934C74.8721 59.7539 74.7557 61.6167 74.7557 61.6749V61.7622L74.4937 61.7913C74.1154 62.4316 73.7661 64.0616 74.2027 65.8952C74.1445 65.3131 74.2609 64.7892 74.5228 64.3526C74.5228 64.0907 74.4064 63.3921 74.5519 62.9555C74.7557 62.3443 74.843 61.8786 75.3378 61.6749C75.4542 61.151 75.8908 59.6375 77.1132 59.3173C77.2879 58.4733 77.8409 57.3964 79.4708 56.9598C79.8783 56.2321 80.635 55.359 81.8284 55.359C82.2649 55.359 82.7597 55.5045 83.2836 55.7373C83.662 55.4463 84.3606 55.0097 85.2919 55.0097C86.2815 55.0097 87.2711 55.5045 88.1734 56.4941C88.8719 56.5232 90.9093 56.8725 91.3168 59.5211C91.8116 59.6084 92.481 59.9577 93.0049 60.598C93.4997 61.2092 93.9945 62.257 93.558 63.8578L93.5288 63.9451L93.3833 63.916C93.4415 64.4981 93.2378 65.0512 93.2087 65.1967L93.2378 65.2258C93.7326 65.8661 93.9945 67.2632 93.2669 68.5438Z" fill="#C5AA79"/>
<path d="M89.455 63.8287C89.6005 63.8578 89.746 63.8869 89.8916 63.8869C90.5319 63.9742 91.2887 64.0907 91.9581 64.5273C91.8999 63.7705 91.7834 63.363 91.6961 62.8973C91.6088 62.4899 90.7065 61.7622 89.3677 61.7622C89.0475 61.7622 88.7565 61.7913 88.4363 61.8786C88.0579 61.966 87.6795 61.9951 87.3594 61.9659C87.534 62.1697 87.7378 62.4025 87.8833 62.6354C88.5818 63.363 89.1639 63.7705 89.455 63.8287Z" fill="#C5AA79"/>
<path d="M88.668 64.2654C89.0463 65.2841 89.9195 65.5751 89.9195 65.5751C91.3166 66.099 92.0442 66.7103 92.1606 67.467C92.2189 67.4088 92.248 67.3797 92.3062 67.3215L92.3353 67.2633C92.5099 67.0013 92.6263 66.6229 92.4517 66.0699C92.0442 64.7893 90.618 64.5564 89.8031 64.5564C89.512 64.5273 89.0754 64.4691 88.668 64.2654Z" fill="#C5AA79"/>
<path d="M63.0843 75.908C63.0843 75.908 63.0547 75.908 63.0547 75.8784C63.0547 75.8784 63.0547 75.908 63.0843 75.908Z" fill="#C5AA79"/>
<path d="M59.1551 66.3318C59.1842 66.3318 59.1842 66.3318 59.1551 66.3318C59.1551 66.3318 58.9805 66.4773 58.6895 66.7393C58.9805 66.4773 59.1551 66.3318 59.1551 66.3318Z" fill="#C5AA79"/>
<path d="M57.2637 68.0781C57.1764 68.1654 57.06 68.2819 56.9727 68.3983C57.0891 68.2819 57.1764 68.1654 57.2637 68.0781Z" fill="#C5AA79"/>
<path d="M61.1642 68.1072C61.0478 68.3109 60.7276 68.6893 60.291 69.1259C60.6985 68.6893 61.0187 68.3109 61.1642 68.1072Z" fill="#C5AA79"/>
<path d="M78.9189 71.0177C78.9771 71.105 79.0062 71.0759 78.948 71.0177C79.0062 71.105 78.9771 71.105 78.9189 71.0177C78.5987 70.4647 78.4241 69.7661 78.2786 69.0385C78.2786 69.0094 78.3077 68.9803 78.3077 68.9512C78.3077 68.9803 78.3077 69.0094 78.2786 69.0385C78.2204 69.2422 78.1331 69.5042 78.0166 69.8826C77.7838 70.4938 78.2204 71.105 78.5696 71.4543C79.0062 71.8617 79.3264 72.1237 79.5592 72.2983C79.2973 71.8617 79.0935 71.4543 78.9189 71.0177Z" fill="#C5AA79"/>
<path d="M77.9576 68.4565C77.7539 67.0594 77.8121 65.7497 77.8121 65.7206C77.8121 65.6915 77.8121 65.6915 77.8121 65.6624C77.5793 66.2445 76.8516 66.6519 76.4732 67.2341C76.1822 67.6997 76.5315 68.8058 76.5315 68.8349C76.9098 69.2132 77.2882 69.5043 77.4337 69.6207C77.5792 69.155 77.8121 68.8058 77.9576 68.4565Z" fill="#C5AA79"/>
<path d="M87.0093 59.0846C87.3004 58.9682 87.5041 58.9682 87.737 58.9682C87.4459 58.6771 86.3981 57.7457 84.71 57.4256C84.71 57.4256 84.157 57.28 83.4002 57.28C82.5853 57.28 81.8285 57.4256 81.13 57.7166C81.1009 57.7166 79.9076 58.1823 78.918 59.2883C78.918 59.2883 78.9762 59.3465 79.0344 59.3465C79.0344 59.3465 79.9367 58.2405 81.1591 58.0077C81.3337 57.9786 81.5375 57.9495 81.683 57.9495C82.6726 57.9495 82.9345 58.5607 82.9636 58.7062V58.7353C82.9636 58.7935 82.9636 58.8226 82.9636 58.8808C82.9636 58.8808 82.9636 58.8808 82.9928 58.8808C82.9928 58.8808 82.9928 58.9099 82.9636 58.9099C82.9636 58.9391 82.9636 58.9391 82.9636 58.9099C82.9636 58.9099 82.9636 58.8808 82.9928 58.8808C83.051 58.7644 83.1674 58.6189 83.3129 58.5025C84.6809 57.4547 87.0093 59.0846 87.0093 59.0846Z" fill="#C5AA79"/>
<path d="M88.0579 71.9201C88.0579 71.9201 88.2907 73.4336 89.1639 73.6955C89.8042 73.8993 90.1826 73.1716 90.1826 72.4731C90.1826 71.8328 89.6878 71.2798 89.6296 71.1924C88.931 71.1633 88.3489 70.9014 88.0579 70.7559C88.0579 70.9887 88.0288 71.4253 88.0579 71.9201Z" fill="#C5AA79"/>
<path d="M92.2503 61.7918C92.2503 61.7622 92.2207 61.7622 92.2207 61.7622C92.2207 61.7622 92.2207 61.7622 92.2503 61.7918Z" fill="#C5AA79"/>
<path d="M75.5996 67.0595C75.9488 66.4191 76.56 65.9534 77.0548 65.7497C77.3459 65.6333 77.6078 65.3131 77.8116 64.9348C77.8116 65.0512 77.8116 65.0512 77.8116 64.9348C77.8407 64.44 77.9571 64.0034 78.1026 63.625C77.4914 63.9452 77.2004 63.7996 75.716 64.5273C74.6682 65.3713 75.4249 66.7684 75.5996 67.0595C75.5996 67.0886 75.6287 67.0886 75.6287 67.0886C75.6287 67.0886 75.6287 67.0886 75.5996 67.0595Z" fill="#C5AA79"/>
<path d="M87.3301 58.0659C87.3592 58.0659 87.4174 58.095 87.4756 58.095H87.5047C87.4465 58.1241 87.3883 58.095 87.3301 58.0659Z" fill="#C5AA79"/>
<path d="M89.8626 74.2486C89.8044 74.2777 89.7462 74.3068 89.688 74.3359C89.2514 74.4523 88.9021 74.3359 88.6402 74.074C88.1745 73.6374 88.1745 73.6374 88.6402 74.074C88.6402 74.074 87.9125 73.521 87.7379 72.6769C87.7379 72.6187 87.7088 72.5605 87.7088 72.5023C87.7088 72.415 87.6797 72.3567 87.6797 72.3276C87.6797 72.3858 87.6797 72.4441 87.7088 72.5023C87.7088 72.706 87.7379 73.0844 87.8543 73.4628C87.9416 73.6665 88.0581 73.9576 88.2036 74.2195L88.2327 74.2486L88.5529 74.7143C88.5238 74.6852 88.4946 74.6561 88.4946 74.627C88.3782 74.4815 88.2909 74.365 88.2036 74.1904C88.029 73.9575 87.9125 73.6956 87.8543 73.4337C87.9416 73.6956 88.029 73.9575 88.2036 74.1904C88.2909 74.3359 88.3782 74.4815 88.4946 74.627C88.5238 74.6561 88.5238 74.6852 88.5529 74.7143C88.9312 75.1509 89.6007 75.9076 90.2992 76.0823C91.0269 76.2569 91.4343 75.3546 90.8522 74.8307C90.5903 74.627 89.9499 74.1904 89.8626 74.2486Z" fill="#C5AA79"/>
<path d="M72.8061 83.3296C72.777 83.3296 72.7479 83.3296 72.7188 83.3587C72.7188 83.3296 72.7479 83.3296 72.8061 83.3296Z" fill="#C5AA79"/>
<path d="M82.265 59.7249C82.527 59.4921 82.6434 59.2301 82.5852 58.9682C82.527 58.7644 82.1486 58.4734 81.5956 58.4734C81.4501 58.4734 81.2754 58.5025 81.1008 58.5316C80.3732 58.7353 79.6455 59.463 79.5 59.6085C79.6164 59.6376 79.7329 59.6958 79.8784 59.7249C79.9366 59.754 80.0821 59.8414 80.2276 59.8996C80.2567 59.9287 80.315 59.9287 80.3732 59.9578C80.3732 59.9869 81.4792 60.2779 82.265 59.7249ZM80.1985 59.4048C80.1694 59.4339 80.1985 59.4048 80.1985 59.4048V59.4048Z" fill="#C5AA79"/>
<path d="M85.7307 60.016C85.7598 59.9869 85.818 59.9577 85.8471 59.9286C85.9927 59.8413 86.1382 59.7249 86.1964 59.6958C86.3419 59.6376 86.4584 59.5794 86.5748 59.5212C86.4293 59.4047 85.5852 58.7644 84.8575 58.6771C84.6829 58.648 84.5374 58.648 84.3628 58.6771C83.8097 58.7644 83.4605 59.0846 83.4314 59.2883C83.4023 59.5794 83.5478 59.8122 83.868 60.016C84.6829 60.4816 85.7307 60.016 85.7307 60.016ZM85.8471 59.463C85.8471 59.4338 85.8471 59.463 85.8471 59.463V59.463Z" fill="#C5AA79"/>
<path d="M79.5003 60.1904L79.4707 60.22L79.5003 60.1904Z" fill="#C5AA79"/>
<path d="M87.7676 59.8417C87.7676 59.8417 87.7677 59.8123 87.7383 59.783C87.7677 59.8123 87.7676 59.8123 87.7676 59.8417Z" fill="#C5AA79"/>
<path d="M79.1518 60.2778C79.1809 60.2778 79.21 60.2778 79.3555 60.1614C79.21 60.2778 79.1809 60.2778 79.1518 60.2778C79.1227 60.2778 79.0936 60.2487 79.0645 60.2196C79.0936 60.2778 79.1227 60.2778 79.1518 60.2778Z" fill="#C5AA79"/>
<path d="M79.3259 61.442C79.3551 61.4129 79.3551 61.4129 79.3842 61.3837C79.9081 60.9181 80.3737 60.6852 80.8394 60.5397C80.8685 60.5397 80.8685 60.5397 80.8394 60.5397C80.5775 60.5397 80.3446 60.4815 80.1118 60.4233C80.1118 60.4233 80.1118 60.4233 80.1118 60.3942C79.6752 60.2486 79.617 60.1322 78.7147 60.0158C78.5692 59.9867 78.3364 59.9576 78.0744 60.0158C78.0453 60.0158 78.0162 60.0158 77.9871 60.0449C78.0162 60.0449 78.0453 60.0449 78.0744 60.0158C78.0162 60.0158 77.958 60.0449 77.8707 60.0449C77.405 60.1904 76.9102 60.627 76.6191 61.733C76.9684 61.6748 77.2886 61.7039 77.5505 61.733C78.3364 61.7621 78.9767 61.5875 79.3842 61.4129C79.3842 61.4129 79.3551 61.442 79.3259 61.442Z" fill="#C5AA79"/>
<path d="M77.26 84.3191C77.26 84.3191 77.2309 84.3191 77.26 84.3191C77.2309 84.3191 77.2309 84.3191 77.26 84.3191C77.2891 84.1735 77.2891 84.028 77.2891 83.8825C77.2891 83.0966 76.6197 82.4563 75.8047 82.4563C74.9897 82.4563 74.3203 83.0966 74.3203 83.8825C74.3203 84.6683 74.9897 85.3086 75.8047 85.3086C76.4741 85.3086 77.0562 84.8721 77.26 84.3191C77.2309 84.3191 77.26 84.3191 77.26 84.3191ZM77.2018 84.29C77.2309 84.29 77.2309 84.29 77.2018 84.29C77.2309 84.3191 77.2309 84.3191 77.2018 84.29C77.2309 84.29 77.2309 84.29 77.2018 84.29Z" fill="#C5AA79"/>
<path d="M94.0821 96.8054C94.7515 96.8054 95.3627 96.8927 96.0031 97.0091C89.658 94.0113 82.2361 88.6849 78.918 86.1818C79.9367 87.4625 81.3629 89.2088 82.0323 89.9947C82.9055 91.0425 86.1653 94.4187 88.4356 95.9904C82.7309 93.2254 78.8016 87.2587 77.5501 85.1631L77.521 85.134C77.4045 85.2796 77.2881 85.396 77.1426 85.5124C77.7538 86.6475 83.1383 96.98 86.9221 100.676C88.4065 98.348 91.0551 96.8054 94.0821 96.8054Z" fill="#C5AA79"/>
<path d="M74.3498 106.818C74.6118 106.41 75.0774 105.625 75.2521 105.072C75.5431 104.257 75.5722 102.598 75.514 101.957C75.514 101.957 75.514 101.637 75.4849 100.88C75.4849 100.618 75.4267 99.8907 75.4558 99.0175C75.4849 97.9988 75.514 97.3876 75.514 97.3876C75.514 97.3876 75.3685 97.1548 74.961 97.3003C74.6409 97.4167 73.7386 97.7078 74.0297 100.647V100.677L74.4953 101.375C74.67 101.55 74.8446 102.103 74.6118 102.277C74.5244 102.365 74.2916 102.394 74.0006 101.957" fill="#C5AA79"/>
<path d="M100.603 110.485C101.942 109.088 102.699 107.254 102.699 105.362C102.699 101.171 99.1478 97.7949 94.782 97.7949C90.4161 97.7949 86.8652 101.2 86.8652 105.362C86.8652 108.127 88.4078 110.572 90.9691 111.94C91.5803 112.057 92.046 112.115 92.3953 112.115C92.7155 112.115 92.8901 112.057 93.0356 112.028C93.0938 111.998 93.1521 111.998 93.2103 111.998C93.4431 111.969 94.3163 111.154 94.5491 110.863C94.2872 110.863 93.676 110.834 93.2685 110.689C92.5699 111.184 91.8423 111.416 91.1729 111.416C90.4452 111.416 90.0086 111.125 89.9795 111.096C89.8049 110.922 89.7176 110.747 89.7176 110.601V107.691H91.6968V105.799H94.0252V102.277H92.5117L91.7841 102.626V100.967L92.5117 101.317H94.0252V99.0465L93.676 98.3479H95.3932L95.0439 99.0465V101.317H96.5283L97.2559 100.967V102.626L96.5574 102.277H95.073V105.799H97.4015V107.691H99.3807V110.747C99.5553 110.892 99.7008 111.038 99.8463 111.213C99.8755 111.125 100.196 110.892 100.603 110.485Z" fill="#C5AA79"/>
<path d="M73.6785 102.394C73.6203 102.335 73.533 102.277 73.4748 102.19C73.3875 102.015 72.6016 100.793 72.2815 100.473C72.2815 100.473 71.8158 99.9488 69.2545 99.7742C69.2545 99.7742 69.2254 99.7742 69.1963 99.7742C69.0507 99.7742 68.6724 99.8324 68.6433 100.269C68.585 100.851 68.7015 102.219 68.7015 102.219L69.3709 104.839H69.4L69.3709 104.897V104.926C69.2836 105.188 68.3522 108.186 69.8366 110.31L70.0985 109.757C70.1276 109.757 71.874 108.768 72.2233 108.477C72.8054 108.069 72.7181 108.186 72.8054 107.633L72.6307 102.888C72.5725 102.859 72.3106 101.957 72.2815 101.841C72.1359 101.812 71.2337 101.55 70.8844 101.084C70.6224 101.171 70.1276 101.229 69.7493 101.229C69.4873 101.229 69.0507 101.2 68.9634 101.084C68.9343 101.026 68.9343 100.997 68.9634 100.938C69.0216 100.851 69.138 100.822 69.3127 100.851C69.4291 100.88 69.8366 100.938 70.215 100.938C70.506 100.938 70.7389 100.909 70.8262 100.822L70.8553 100.793L70.8844 100.822C70.9426 100.88 71.0008 100.909 71.059 100.968C71.3792 101.229 71.612 101.404 71.9613 101.433C72.2233 101.462 72.4561 101.375 72.4561 101.375L72.5143 101.346V101.404C72.5143 101.404 72.5143 102.161 73.0964 102.597C73.0964 102.597 73.1546 102.656 73.242 102.685C73.3293 102.714 73.3875 102.714 73.4457 102.714C73.5621 102.714 73.6494 102.627 73.7368 102.51C73.7659 102.481 73.7076 102.423 73.6785 102.394ZM72.2815 105.741L72.2524 105.45L72.3688 105.741C72.5434 106.236 72.689 106.905 72.3397 107.342C71.9613 107.836 71.5247 108.098 71.0299 108.098C70.5351 108.098 70.0985 107.836 70.0694 107.807C69.3418 107.138 69.2836 106.439 69.3709 106.003L69.4 105.828L69.4582 105.974C69.5164 106.177 69.7202 106.847 70.0985 107.254C70.3314 107.516 70.6224 107.633 71.0008 107.633C71.3792 107.633 71.6994 107.487 71.8158 107.429C72.1942 107.225 72.3688 106.643 72.2815 105.741Z" fill="#C5AA79"/>
<path d="M72.4278 96.0779C72.4278 96.0779 71.8747 96.2234 71.6419 96.1652C71.6419 96.1652 71.2635 97.2421 70.9434 97.9115C70.9434 97.9115 71.5255 97.8824 72.5151 98.4646" fill="#C5AA79"/>
<path d="M73.7657 101.55C73.5037 101.113 72.6306 99.7159 72.6306 99.7159C72.6306 99.7159 71.2626 98.9301 68.9633 98.7263C68.352 98.901 68.4976 99.8032 68.4976 99.8032C68.4976 99.8032 68.7886 99.3957 69.72 99.5122C70.8551 99.6577 71.4081 99.6868 72.194 100.036C72.6888 100.269 72.9798 100.793 73.562 102.015C73.562 102.015 73.6784 102.248 73.7948 102.306L73.7657 101.55Z" fill="#C5AA79"/>
<path d="M72.7192 99.0466C72.108 98.5227 71.2057 98.1734 70.0997 97.9988H70.0706C70.0415 97.9988 70.0124 97.9697 69.9833 97.9406C69.896 97.8823 69.7505 97.7659 69.4303 97.7368C69.3721 97.7659 69.1392 97.8823 69.0519 98.0861C69.0228 98.2025 69.0519 98.348 69.1392 98.5227C69.2557 98.61 69.3721 98.6391 69.4885 98.6391C69.7214 98.6391 69.9251 98.5227 70.0415 98.4063C70.0706 98.3771 70.0997 98.3771 70.1288 98.3771C70.5654 98.3771 72.4282 99.2212 72.4573 99.2212C72.8065 99.425 73.4178 100.444 73.6797 101.142C73.6797 100.793 73.5342 99.716 72.7192 99.0466Z" fill="#C5AA79"/>
<path d="M72.5738 94.9718C71.3222 95.2046 71.0021 95.321 70.711 95.6994C70.3326 96.136 69.7505 97.0092 69.8087 97.5622C70.0416 97.7077 70.5946 97.795 70.711 97.795C70.7692 97.7077 70.9147 97.3293 71.0603 96.951C71.1476 96.7181 71.2058 96.5144 71.264 96.3398C71.3804 95.9905 71.3804 95.9614 71.4386 95.9614H71.4678C71.4678 95.9614 71.4678 95.9614 71.4969 95.9614C71.7006 95.9614 72.6029 95.7867 72.7484 95.6994L72.7775 95.6703V95.7285C72.8357 95.9905 73.5925 96.6308 73.9126 96.7181C73.9999 96.7472 74.0582 96.7472 74.1455 96.7472C74.3783 96.7472 74.6694 96.5726 74.6985 96.5435C74.6403 96.4853 73.7962 95.7867 73.8253 95.6703L73.6507 95.4666L73.476 95.2628C73.476 95.2628 73.1559 94.9136 72.7193 94.9136C72.6611 94.9427 72.632 94.9718 72.5738 94.9718Z" fill="#C5AA79"/>
<path d="M95.2759 108.855C96.5856 108.913 97.6334 109.35 98.4193 109.845V108.564H97.2841H96.411V107.749V106.672H92.5981V107.749V108.564H91.725H90.5898V109.728C91.9578 109.379 92.831 109.001 92.831 109.001C94.1989 108.68 95.2759 108.855 95.2759 108.855Z" fill="#C5AA79"/>
<path d="M98.4492 80.2735C98.4783 80.2735 98.5365 80.2735 98.5948 80.2444C98.5074 80.2735 98.4492 80.2735 98.4492 80.2735Z" fill="#C5AA79"/>
<path d="M76.5611 79.4875C80.1411 80.8555 84.7689 80.8264 86.0495 80.7973C79.9664 82.369 77.4343 82.5436 77.376 82.4854C77.1432 82.2235 76.4738 82.0488 76.5029 82.0779L76.5611 79.4875Z" fill="#C5AA79"/>
<path d="M77.2308 82.5443L77.2012 82.5146L77.2308 82.5443Z" fill="#C5AA79"/>
<path d="M93.2376 115.258C93.2667 115.346 93.2667 115.404 93.2085 115.462C93.1794 115.52 93.0921 115.579 92.9466 115.549C92.9175 115.549 91.142 115.287 89.7741 114.385C90.1233 114.734 90.7054 115.258 91.2876 115.666C92.2772 116.364 93.3541 116.714 94.4601 116.714C95.7116 116.714 96.5848 116.277 96.5848 116.277C99.0297 115.026 100.776 114.007 101.154 113.774C101.154 113.366 100.63 111.446 100.456 111.213C100.31 111.358 100.165 111.475 100.048 111.562L100.019 111.62C100.019 111.62 99.8737 111.591 99.8446 111.591C99.8446 111.591 98.5931 110.31 97.5162 109.874C96.3228 109.379 95.6243 109.35 94.9549 109.321H94.8385C94.7511 109.321 94.6638 109.321 94.6056 109.321C94.2563 109.321 93.7615 109.35 92.9175 109.466C92.7137 109.583 92.2189 109.757 91.6077 109.961C91.6368 110.048 90.2106 110.485 90.2398 110.31C90.1524 110.456 90.1233 110.601 90.1815 110.718C90.298 110.951 90.6763 111.125 91.1711 111.125C91.3167 111.125 91.4622 111.125 91.6368 111.096C92.7428 110.922 93.1794 110.252 93.1794 110.252L93.2085 110.223L93.2376 110.252C93.4123 110.369 93.878 110.601 94.4019 110.601C94.5765 110.601 94.7511 110.572 94.9258 110.514C95.0422 110.485 95.3041 110.252 95.3624 110.165L95.3915 110.136L95.4206 110.165C95.5079 110.281 95.3915 110.485 95.0713 110.718C94.8384 110.893 94.431 111.358 94.431 111.387C94.431 111.387 93.6451 112.348 92.6264 112.435C92.51 112.435 92.3645 112.464 92.2189 112.464C91.3167 112.464 90.4435 112.173 90.4435 112.173C89.3375 111.795 88.377 110.631 88.0859 110.281C88.2024 110.689 88.639 111.3 89.192 112.144C90.036 113.483 92.1025 113.745 92.5973 113.745C92.6264 113.745 93.0339 113.949 92.8011 113.861C92.8302 113.89 92.8302 113.949 92.8302 113.978C92.8302 114.065 92.5973 114.356 92.4227 114.327C90.6181 114.094 90.0651 113.628 89.4539 113.163C89.3957 113.134 89.3666 113.075 89.3084 113.046C88.93 112.755 88.5807 112.202 88.2315 111.358C88.2606 111.707 88.4061 112.231 88.7263 112.813C89.2793 113.803 90.0069 114.502 91.9861 115.084C92.0152 115.084 92.0734 115.113 92.1025 115.113C92.3063 115.171 92.5682 115.258 92.8011 115.258C92.8593 115.258 92.9175 115.258 92.9757 115.229C93.0048 115.229 93.0339 115.229 93.0339 115.229C93.0339 115.2 93.2376 115.258 93.2376 115.258Z" fill="#C5AA79"/>
<path d="M92.2202 78.6436L96.9644 81.6414C97.139 81.7288 98.6525 82.5728 99.7003 83.4751C100.69 84.3483 110.266 108.302 110.266 108.302C109.8 108.826 109.305 109.35 108.81 109.845C108.257 110.398 108.17 110.514 107.559 111.038C107.53 111.038 106.948 110.602 106.948 110.602C105.434 109.525 104.241 108.972 103.426 108.681C105.405 106.672 106.104 106.76 106.336 106.701C106.366 106.701 106.365 106.701 106.395 106.701H106.453L106.598 106.672L106.569 106.527L106.54 106.294L106.511 106.148L106.366 106.178H106.307C106.307 106.178 106.278 106.178 106.22 106.207C105.056 106.439 103.746 107.4 102.844 108.186C103.193 107.284 103.368 106.323 103.368 105.363C103.368 101.899 101.097 98.7847 97.7211 97.5913C93.9956 95.6413 90.6776 93.2255 88.4655 91.6247C87.5924 91.0135 86.9229 90.5187 86.4863 90.2567C86.2244 90.1112 85.1475 89.3544 83.3138 88.0447C88.7566 90.6642 94.8106 92.4979 97.7211 92.7598H97.7793H97.9249L97.954 92.6143L97.9831 92.4105L98.0122 92.265L97.8666 92.2359L97.8084 92.2068C96.4987 91.9157 88.6984 89.0634 82.6444 86.0946C84.3616 86.4439 86.5445 86.764 88.5819 86.764C90.241 86.764 91.5798 86.5312 92.5112 86.0946L93.0933 85.8035L93.8792 85.4252L93.0351 85.5125L92.3948 85.5707C91.5507 85.658 90.6193 85.7162 89.688 85.7162C84.1579 85.7162 79.0062 84.1445 78.1912 83.8826V83.8535C78.1912 83.737 78.1912 83.6497 78.1621 83.5333C78.1912 83.5624 87.4177 82.078 92.2202 78.6436Z" fill="#C5AA79"/>
<path d="M83.8079 117.849C83.4877 117.878 83.1675 117.878 82.8183 117.878C79.704 117.878 77.4919 116.655 76.8516 116.248C76.2986 116.452 75.7165 116.568 75.0762 116.626L75.1635 119.42C77.7539 119.973 80.4025 120.264 83.0802 120.264C87.9991 120.264 92.7433 119.333 97.2256 117.47C99.8451 116.364 102.523 114.764 104.822 113.104C104.386 112.581 102.115 110.019 102.115 110.019L101.417 110.543C101.417 110.543 102.406 113.657 102.406 113.687L101.126 114.618C100.398 115.025 98.5062 116.073 98.0114 116.335L97.9241 116.393C97.2838 116.772 96.0613 117.47 94.5479 117.47C93.9075 117.47 93.2672 117.354 92.6851 117.092C92.0157 116.801 91.4044 116.452 90.8514 116.073C90.2984 116.131 86.8349 117.674 83.8079 117.849Z" fill="#C5AA79"/>
<path d="M73.1859 78.6436H73.1562C73.1562 78.6732 73.1859 78.6732 73.1859 78.6436Z" fill="#C5AA79"/>
<path d="M71.3203 51.2841V51.3132L71.8151 51.7789L72.339 51.2841L71.8151 50.7893L71.3203 51.2841Z" fill="#C5AA79"/>
<path d="M72.3103 49.3924C72.3103 49.3341 72.2812 49.2759 72.223 49.2468C72.1939 49.2468 72.1939 49.2759 72.1648 49.2759C72.1356 49.2759 72.1065 49.305 72.0774 49.305C72.0483 49.305 72.0192 49.305 71.9901 49.3341C71.961 49.3341 71.9319 49.3341 71.9319 49.3341H71.9028C71.8155 49.3341 71.6991 49.3341 71.6118 49.305H71.5826C71.5535 49.305 71.5535 49.305 71.5244 49.2759C71.4953 49.2759 71.4953 49.2759 71.4662 49.2468C71.408 49.2759 71.3789 49.3341 71.3789 49.3924C71.3789 49.4797 71.4371 49.5379 71.5244 49.5379H72.1939C72.223 49.5379 72.3103 49.4506 72.3103 49.3924Z" fill="#C5AA79"/>
<path d="M71.3203 52.7102V52.7393L71.8151 53.205L72.3099 52.7393L72.339 52.7102L72.3099 52.7393L71.8151 52.3027L71.3203 52.7393V52.7102Z" fill="#C5AA79"/>
<path d="M71.5234 53.7581H72.1347V53.3215L71.8436 53.6126L71.5234 53.3215V53.7581Z" fill="#C5AA79"/>
<path d="M72.1642 54.02H71.5239L71.291 54.835H71.3783H72.3679H72.397L72.1642 54.02Z" fill="#C5AA79"/>
<path d="M71.5234 49.9163V50.6148L71.8145 50.3237L72.1056 50.6148V49.9163H71.5234Z" fill="#C5AA79"/>
<path d="M72.107 45.3467H70.8846C70.8846 45.3758 70.8555 45.3758 70.8555 45.4049L71.263 46.4527C71.2338 46.4818 71.2338 46.4818 71.263 46.4527L71.3794 46.7729L71.7286 47.7333C71.7577 47.7333 71.7577 47.7333 71.7869 47.7333C71.816 47.7333 71.8451 47.7333 71.8742 47.7333L72.7765 45.3467H72.4854H72.107Z" fill="#C5AA79"/>
<path d="M71.0005 45.0846H71.1169H72.3684L72.3393 45.1138L72.3684 45.0846H72.6013C72.6595 45.0846 72.7177 45.0555 72.7468 45.0555C72.9505 45.0264 73.0961 44.9682 73.1252 44.9391C73.0961 44.91 73.0088 44.8809 72.9214 44.8518L72.9505 44.8227L72.9214 44.8518C72.8341 44.8227 72.7177 44.8227 72.6013 44.7936C72.3975 44.7645 72.1356 44.7354 71.8154 44.7645C71.6699 44.7645 71.5244 44.7645 71.3788 44.7645C70.9131 44.7936 70.6221 44.8518 70.5057 44.91L70.4766 44.9391C70.5348 44.9973 70.7094 45.0555 71.0005 45.0846Z" fill="#C5AA79"/>
<path d="M72.0772 48.0825L72.1646 48.1408L72.0772 48.0825C72.0772 48.0825 72.0481 48.0534 72.019 48.0534C72.0481 48.0825 72.0481 48.0825 72.0772 48.0825L71.9899 48.0243C71.9026 47.9952 71.7862 47.9661 71.6989 48.0243L71.4951 48.1116L71.6989 48.0243C71.7862 47.9952 71.9026 47.9952 71.9899 48.0243C71.9317 47.9952 71.9026 47.9952 71.8444 47.9952C71.5825 47.9952 71.3496 48.199 71.3496 48.4609C71.3496 48.6356 71.4369 48.752 71.5534 48.8393C71.5825 48.8393 71.5825 48.8684 71.6116 48.8684C71.6407 48.8684 71.6698 48.8975 71.6989 48.8975C71.6698 48.8975 71.6407 48.8684 71.6116 48.8684C71.728 48.9266 71.9026 48.9266 72.019 48.8684C71.9899 48.8684 71.9608 48.8975 71.9317 48.8975C71.9608 48.8975 71.9899 48.8684 72.019 48.8684C72.0481 48.8684 72.0481 48.8393 72.0772 48.8393C72.2228 48.752 72.3101 48.6064 72.3101 48.4318C72.3101 48.3154 72.1937 48.1699 72.0772 48.0825Z" fill="#C5AA79"/>
<path d="M71.6426 115.637C71.6426 115.666 71.6426 115.666 71.6133 115.695C71.6426 115.695 71.6426 115.666 71.6426 115.637Z" fill="#C5AA79"/>
<path d="M73.2135 115.899L72.8351 109.321C72.6605 109.495 72.6605 109.495 70.4484 110.747L70.0701 111.416L68.935 112.028L66.3154 113.337L66.1699 116.51C66.1699 116.51 72.0201 119.129 73.3881 119.159L73.2135 115.899Z" fill="#C5AA79"/>
<path d="M72.4286 94.0405C72.4286 94.0405 72.0794 77.9451 72.0503 77.9451C72.0503 77.9451 68.5867 78.2361 63.8425 85.6581C63.8425 85.6581 63.7552 85.8036 63.6678 85.92C63.6387 85.9491 63.6096 85.9782 63.6096 86.0364C63.4932 86.2402 63.3477 86.4439 63.3477 86.473C63.2604 86.5603 62.9984 87.2589 62.7947 87.841C62.7365 88.0447 62.6491 88.2485 62.5909 88.4231C62.5909 88.4231 62.5909 88.4231 62.5909 88.4522C62.5036 88.7142 62.4163 88.947 62.329 89.1799C62.1252 89.762 61.9797 90.1986 61.9797 90.2277L61.8051 90.7225H61.8342L61.3394 92.2359L59.302 97.2421L57.3228 100.677C57.9922 100.473 59.0691 100.182 59.9132 100.094C60.3498 100.036 60.7282 100.007 61.0483 100.007C61.223 100.007 61.3976 100.007 61.514 100.036L61.7469 100.065L62.0379 100.298C62.0961 100.415 62.067 100.56 61.9797 100.677C61.8924 100.793 61.7469 100.88 61.6013 100.88C61.514 100.88 61.3685 100.851 61.223 100.706H61.1939C60.0878 100.706 57.1482 101.608 56.6243 101.87C56.3623 102.015 55.1981 103.413 53.5391 105.508C54.616 106.963 55.8384 108.36 57.1191 109.67C57.381 109.059 60.5826 102.918 68.4121 103.762C68.3247 103.413 67.6262 101.55 67.9755 98.6683C68.2665 96.1943 69.8091 94.0696 72.4286 94.0405ZM64.803 84.8722C64.7447 84.9013 64.7738 84.9013 64.803 84.8722V84.8722Z" fill="#C5AA79"/>
<path d="M73.8543 94.3897C74.32 95.4375 75.1641 96.3689 75.6007 96.8928C76.0664 97.4458 75.95 97.7659 75.9209 98.4936C75.9209 98.6391 76.0664 100.036 75.9209 100.036C76.0082 101.87 76.3283 103.762 75.6589 105.537C75.4552 106.061 75.1932 106.556 74.9022 107.022C74.7275 107.313 74.7275 107.196 74.7275 107.4C74.7566 107.778 74.7566 108.128 74.7857 108.506C74.873 110.805 74.9895 113.134 75.0768 115.433C75.0768 115.491 75.0768 115.579 75.0768 115.637C76.9396 115.491 78.4239 114.473 79.9083 113.454C79.3844 114.24 78.9187 115.113 78.1329 115.666C80.0248 116.859 85.3802 117.15 88.8147 115.491C88.349 115.055 86.69 112.755 87.2139 109.757C87.3303 109.088 85.9623 109.379 86.0205 105.333C86.0496 103.15 86.8937 101.87 86.8937 101.87C83.6339 100.473 76.5321 85.9199 76.5321 85.9199C75.5425 86.3565 74.2618 85.7162 73.8543 84.8139C73.3304 83.6788 74.0581 82.2235 75.2223 81.8742C75.6589 81.7578 75.4261 80.419 75.4261 80.0115C75.4261 79.0801 75.4261 78.1487 75.4261 77.1882C75.0186 77.3047 73.3013 77.5084 73.3304 77.945L73.8543 94.3897Z" fill="#C5AA79"/>
<path d="M91.6676 67.5834C91.6094 67.6998 91.522 67.8162 91.4056 67.9035C91.3183 68.9513 90.5033 70.4357 89.0772 70.4357C88.9607 70.4357 88.8443 70.4357 88.757 70.4066C88.3786 70.3484 88.1167 70.2029 87.942 69.9409C87.6801 69.5334 87.8256 69.0386 87.8256 69.0095L87.8838 68.8058L87.9712 68.9804C88.0585 69.1842 88.3204 69.7081 88.466 69.8245C88.6406 69.9409 88.8443 70.0282 89.0772 70.0282C89.9794 70.0282 90.8817 68.8931 91.0273 68.1655C91.3474 66.7102 89.5138 66.1863 89.4847 66.1863C89.31 66.1281 89.1645 66.0408 89.019 65.9534L89.0481 66.1281C89.0481 66.1281 89.1354 66.4773 89.3682 66.7975C89.5138 67.0012 89.6884 67.1759 89.863 67.3505C90.1541 67.6416 90.416 67.9035 90.416 68.2819C90.416 69.0969 89.9212 69.5916 89.1063 69.5916C88.9025 69.5916 88.6988 69.5625 88.466 69.5043H88.4368L88.466 69.3588H88.4951C88.5824 69.3879 88.6697 69.3879 88.757 69.3879C89.31 69.3879 89.7757 68.9804 89.9212 68.5729C89.9795 68.3983 90.0668 68.0782 89.7757 67.8162C88.9316 67.0595 88.9316 66.2154 88.9316 66.1863V65.9243C88.0294 65.2549 88.0876 64.178 88.0876 64.1489L88.0585 64.0907L87.7092 63.7414C87.5928 63.625 87.4764 63.4795 87.389 63.3339C87.2726 63.1593 87.2144 63.0138 87.1562 62.9264C86.836 62.5481 86.4868 62.2279 86.1084 61.966C85.992 61.9077 85.8464 61.8495 85.7591 61.7622C85.2643 61.5003 84.7695 61.3838 84.3621 61.2674C84.1874 61.2092 84.0128 61.1801 83.8673 61.1219C83.6926 61.0637 83.1978 60.7144 83.0232 60.2778C82.8777 60.4816 82.6157 60.6853 82.2664 60.889C82.0045 61.0055 81.7716 61.0928 81.5388 61.1801C80.8694 61.413 80.2582 61.6458 79.5596 62.5481C78.7156 63.625 78.832 65.6915 78.8611 65.9243C78.8611 65.9243 78.8611 65.9534 78.8611 66.0116V66.0408C78.8029 67.9035 79.0648 69.5334 79.6469 70.7559C79.676 70.8432 79.7343 70.9014 79.7634 70.9887C79.7925 71.0469 79.8216 71.076 79.8216 71.1051C80.4037 72.2112 81.6261 74.0448 83.0814 73.9575C84.7986 73.8411 85.5845 72.7351 85.6136 72.706L85.6427 72.6768C85.6427 72.6768 85.7591 72.5604 85.8755 72.5604C85.9338 72.5604 85.992 72.5895 86.0502 72.6477C86.1084 72.7351 86.0502 72.8224 86.0211 72.8806C85.8464 73.2007 84.886 74.3359 83.256 74.3359C83.2269 74.3359 83.1978 74.3359 83.1396 74.3359C81.6261 74.2777 80.5492 72.9679 79.9671 72.0656L79.938 72.1238H79.8798C79.8507 72.1238 79.4141 72.0074 78.8902 71.8037C78.8902 71.8037 78.4245 72.4731 78.7156 72.8806C78.7447 72.9097 78.8611 72.997 79.0939 72.997C79.2395 72.997 79.4141 72.9388 79.6178 72.8515C79.676 72.8224 79.7343 72.7933 79.7634 72.7933C79.8216 72.7933 79.8507 72.8224 79.8507 72.8224C79.8507 72.8515 79.8798 72.8515 79.8798 72.8806V72.9097C79.9089 72.9679 80.0544 73.3754 79.938 73.8702C79.9089 74.0157 79.8507 74.1321 79.7343 74.2194C79.7634 74.656 79.5305 74.918 79.3268 75.0635L79.2977 75.1217C78.8902 75.7038 77.7551 76.2568 77.0856 76.577C76.8528 76.6934 76.5908 76.8099 76.5617 76.8681C76.5326 76.9263 76.4744 77.2464 76.4453 78.236C77.0565 78.498 79.7634 79.5749 84.7986 79.5749C85.3225 79.5749 85.8756 79.5458 86.4286 79.5167C86.5741 79.5749 86.8069 79.5749 87.0689 79.4876C89.5138 78.8764 90.3869 77.4793 90.3869 77.4793C88.0294 77.5666 87.2435 75.7038 87.2435 75.7038C87.2144 75.6165 87.1562 75.5001 87.1271 75.4128C86.4286 73.9575 87.1853 72.5313 87.1853 72.5313C87.1853 72.4731 87.1853 72.3858 87.1853 72.3567C87.1853 72.0365 87.2144 71.5999 87.2726 71.1925C87.2726 70.9014 87.3017 70.6394 87.389 70.3484C87.4181 70.2611 87.4473 70.1447 87.5637 70.0864L87.6219 70.0282L87.6801 70.0573H87.7092L87.7674 70.0864C88.1167 70.2611 88.5533 70.4357 89.0772 70.4357C89.5138 70.4357 89.9794 70.2902 90.4451 70.0282C92.2206 69.126 91.7549 67.758 91.6676 67.5834ZM82.8777 63.9743C82.9068 63.9451 82.9359 63.9451 82.965 63.9451C83.0523 63.9451 83.1105 64.0034 83.1978 64.0325C83.2269 64.0616 83.2851 64.0907 83.3143 64.0907C83.3143 64.0907 83.3725 64.0616 83.4016 64.0325C83.4598 63.9743 83.518 63.916 83.5762 63.916C83.6053 63.916 83.6635 63.916 83.6926 64.0034C83.7217 64.0325 83.7217 64.1198 83.6635 64.2071C83.6053 64.3526 83.4016 64.4982 83.256 64.5273H83.2269C83.0232 64.5273 82.8777 64.178 82.8486 64.0907L82.8195 64.0325L82.8777 63.9743ZM84.1292 68.7185L84.3038 68.9513C84.3329 68.9804 84.5076 69.2133 84.4203 69.417C84.3912 69.5334 84.2747 69.5916 84.1292 69.6208C84.0419 69.6499 83.9255 69.6208 83.8673 69.5916C83.8382 69.6499 83.7799 69.7372 83.7217 69.7954C83.6053 69.9118 83.4598 69.97 83.3143 69.97C83.0232 69.97 82.8195 69.7954 82.7321 69.6499C82.6739 69.679 82.5866 69.7081 82.5284 69.7081C82.2373 69.6208 82.2082 69.417 82.2082 69.3588C82.2082 69.1842 82.3538 69.0095 82.4702 68.9804L82.6739 68.9513L82.5575 69.0968C82.5284 69.1551 82.4993 69.2133 82.4993 69.2424C82.4993 69.2424 82.5284 69.2715 82.5866 69.2715C82.703 69.2715 82.7612 69.1551 82.7612 69.1551L82.8486 69.0095L82.7321 68.4565L82.6157 65.1094H83.0232V69.3588C83.0523 69.4461 83.1396 69.5043 83.3143 69.5043H83.3434C83.5762 69.5043 83.6344 69.1842 83.6344 69.1551L83.6635 69.0095L83.7799 69.126C83.8382 69.1842 83.9837 69.2715 84.071 69.2715C84.1001 69.2715 84.1001 69.2715 84.1001 69.2715C84.1001 69.2715 84.1583 69.2133 84.1292 69.0386V68.7185ZM83.7508 68.4565L83.4016 69.2424L83.518 65.0803H83.9255L83.7508 68.4565ZM79.1812 64.178C79.2103 64.1489 79.6469 63.3048 80.753 63.3048C80.8694 63.3048 81.0149 63.3048 81.1313 63.3339C82.0336 63.4795 82.6157 64.2071 82.6157 64.2653L82.8777 64.6146L82.4993 64.3817C82.4993 64.3817 81.6261 63.8869 80.9858 63.8287C80.1126 63.7705 79.2977 64.2944 79.2686 64.2944L79.0066 64.469L79.1812 64.178ZM81.859 65.546C81.8008 65.4877 81.7134 65.4004 81.5679 65.3131C81.5388 65.4295 81.5097 65.5168 81.4224 65.6042C81.3933 65.6333 81.3933 65.6624 81.3642 65.6624C81.2477 65.8079 81.1604 65.8952 80.8694 65.8952H80.6656H80.6365C80.4619 65.8079 80.2582 65.6915 80.1999 65.5169C80.1708 65.4586 80.1708 65.3713 80.1708 65.284C80.1708 65.284 80.1417 65.284 80.1417 65.3131C79.8216 65.4877 79.4723 65.6624 79.2395 65.6624H79.123L79.1521 65.546C79.1813 65.4877 79.2395 65.3131 79.2977 65.2549C79.385 65.1385 79.9671 64.469 80.8694 64.469C81.044 64.469 81.1895 64.4982 81.3642 64.5273C82.2664 64.8183 82.2956 65.6624 82.2956 65.6915V66.099L82.15 65.8952C82.15 65.8661 81.9754 65.6624 81.859 65.546ZM84.5658 71.3962C84.4785 71.4253 84.3621 71.4544 84.2165 71.4544C84.1001 71.4544 83.9546 71.4544 83.8091 71.4253C83.7217 71.4253 83.6344 71.3962 83.5762 71.4253L83.5471 71.4544C84.2165 71.4544 84.4203 71.7164 84.4203 71.8619C84.4203 71.9201 84.3912 72.0365 84.3329 72.0947C84.2747 72.1529 84.2165 72.182 84.1292 72.182C84.1292 72.182 84.1001 72.182 84.071 72.182C84.0419 72.182 84.0128 72.182 83.9837 72.182C83.809 72.182 83.5762 72.1529 83.518 72.1238C83.3434 72.1238 83.256 72.1529 83.1396 72.1529C83.0523 72.1529 82.9941 72.182 82.9068 72.182C82.8486 72.182 82.8195 72.182 82.7612 72.182C82.6739 72.1529 82.5575 72.0365 82.5284 71.9492C82.4993 71.6873 82.6448 71.5999 82.9068 71.5126C82.965 71.4835 83.0232 71.4835 83.0814 71.4835L83.0523 71.4544C82.9359 71.4835 82.7903 71.5126 82.703 71.5126C82.3247 71.5126 82.1209 71.2798 82.0336 71.1634L81.9172 70.9887H82.1209C82.15 70.9887 82.1791 70.9887 82.2082 70.9887C82.3538 70.9887 82.4702 70.9596 82.5575 70.9305C82.5866 70.9305 82.7321 70.8432 82.7904 70.6977V70.6686L82.8195 70.6394C82.8486 70.6103 82.9068 70.5812 82.965 70.5812C83.0232 70.5812 83.0814 70.6103 83.1396 70.6686C83.1396 70.6686 83.1687 70.6977 83.3143 70.6977H83.3434C83.4889 70.6977 83.518 70.6686 83.5471 70.6103L83.5762 70.5812C83.5762 70.5812 83.5762 70.5812 83.6053 70.5521H83.6344C83.6635 70.523 83.6926 70.523 83.7217 70.523H83.7508H83.7799C83.8673 70.5521 83.9546 70.6103 84.0419 70.6686C84.1583 70.7559 84.2456 70.8432 84.3912 70.8432C84.4494 70.8432 84.6531 70.8432 84.7986 70.8141L84.9151 70.9887C84.8569 71.1634 84.7113 71.338 84.5658 71.3962ZM87.389 65.6915C87.1853 65.6915 86.8942 65.5169 86.6323 65.3713C86.6032 65.3422 86.545 65.3131 86.5159 65.3131C86.5159 65.4004 86.5159 65.4586 86.4868 65.546C86.4286 65.7206 86.2248 65.837 86.0502 65.9243H86.0211H85.8173C85.5263 65.9243 85.439 65.8079 85.3225 65.6915C85.2934 65.6624 85.2934 65.6333 85.2643 65.6333C85.2061 65.546 85.1479 65.4586 85.1188 65.3422C85.0024 65.4004 84.9151 65.4877 84.8277 65.5751C84.7404 65.6624 84.5658 65.8952 84.5658 65.8952L84.4203 66.099V65.6915C84.4203 65.6915 84.4203 64.8474 85.3516 64.5273C85.5263 64.469 85.6718 64.469 85.8464 64.469C86.7778 64.469 87.3017 65.1094 87.3599 65.1967C87.4181 65.284 87.5055 65.5169 87.5055 65.5751L87.5346 65.6915H87.389ZM87.4182 63.9451C87.4182 63.9451 86.3121 63.5959 85.7009 63.5959C85.6427 63.5959 85.5554 63.5959 85.5263 63.5959C84.886 63.7123 84.1583 64.3526 84.1583 64.3526L83.8381 64.6437L84.0419 64.2362C84.071 64.178 84.624 63.072 85.73 63.072C86.836 63.072 87.4764 63.7414 87.5055 63.7705L87.7383 64.0034L87.4182 63.9451Z" fill="#C5AA79"/>
<path d="M87.9985 68.573C87.9985 68.573 88.0276 68.573 88.0858 68.573C88.2022 68.573 88.3478 68.5439 88.4642 68.3983C88.6388 68.1655 88.7843 67.6416 88.4642 66.3609V66.3318V66.3027C88.4933 66.2445 88.5224 66.1863 88.5806 66.1863C88.6679 66.1863 88.7552 66.2736 88.8426 66.5064C89.0754 67.0886 89.1918 67.9908 88.959 68.4856C88.8717 68.6603 88.7843 68.7767 88.6388 68.8058C88.5515 68.864 88.4642 68.8931 88.3769 68.8931C88.1149 68.8931 87.9112 68.6603 87.9112 68.6603L87.7656 68.4856L87.9985 68.573Z" fill="#C5AA79"/>
<path d="M64.9772 115.899L65.4137 107.312L67.2474 104.693C67.2474 104.693 61.9502 104.024 57.9336 110.601C57.9336 110.631 60.524 113.599 64.9772 115.899Z" fill="#C5AA79"/>
<path d="M66.2578 112.464L69.2557 110.922C69.2557 110.922 67.5967 109.379 68.6154 104.926L68.1497 104.839L66.4616 107.487L66.2578 112.464Z" fill="#C5AA79"/>
<path d="M102.959 109.088C102.959 109.088 104.997 109.787 106.656 111.97L105.812 112.639C105.812 112.639 104.822 110.834 102.436 109.554L102.959 109.088Z" fill="#C5AA79"/>
<path d="M119.52 84.6393C119.52 79.8077 118.559 75.1508 116.667 70.7268C116.289 69.8245 115.852 68.9222 115.387 68.0491C114.688 66.7102 113.64 65.5751 112.331 64.8474C111.254 64.2362 109.798 63.7414 107.965 63.625C107.266 63.625 106.684 63.7414 106.335 63.9161C104.21 64.6728 102.697 66.6229 101.853 68.02C101.241 69.0387 100.834 70.2029 100.747 71.3962C100.688 72.2403 100.776 73.1134 101.183 74.2486C101.212 74.365 101.329 74.7143 101.358 74.918C101.387 75.1508 101.707 77.3047 99.9317 79.051C99.5824 79.4294 99.1458 79.6331 97.6905 79.9824C97.3122 80.0697 97.3704 80.0406 96.9629 80.0697L99.8735 81.8451C101.649 82.7765 103.192 86.1819 103.192 86.1819C103.192 86.1819 103.948 88.0446 104.792 88.0446H104.821C104.88 87.8991 104.851 87.2879 104.763 86.9677C104.647 86.502 104.298 85.5707 104.181 85.2214C104.123 84.9886 104.036 84.5811 104.268 84.4647L104.356 84.4355C104.589 84.4355 104.763 84.6684 105.258 85.658C105.636 86.3565 106.16 87.4334 106.597 87.6081C106.684 87.579 106.713 87.5499 106.742 87.4625C106.975 86.6476 106.335 85.4542 105.665 84.6684L105.462 84.4355L105.753 84.3482C105.782 84.3482 105.84 84.3191 105.869 84.3191C106.131 84.3191 106.422 84.5811 106.451 84.5811L106.51 84.6393C106.917 85.0177 107.092 85.1632 107.557 85.8326C108.78 87.5498 109.595 89.9656 109.624 92.0321C109.653 93.1672 109.711 93.6038 109.769 94.1277C109.828 94.5643 109.886 94.9136 109.915 95.5539H109.886C109.915 95.7868 110.788 101.608 113.815 103.762L114.31 103.063C114.31 103.063 114.281 103.063 114.281 103.034C115.183 101.579 115.969 100.065 116.638 98.5227C118.559 94.1277 119.52 89.4417 119.52 84.6393ZM112.389 98.2025C112.651 94.3606 112.942 90.6059 112.505 86.764C112.04 82.7474 111.254 78.7891 110.293 74.8598C112.476 77.945 113.553 81.9325 114.077 85.6289C114.659 89.8783 114.164 94.2733 112.389 98.2025ZM115.62 84.1445C115.154 80.1279 114.368 76.1695 113.408 72.2403C115.591 75.3255 116.667 79.313 117.191 83.0094C117.773 87.2588 117.308 91.6537 115.503 95.583C115.736 91.7702 116.056 88.0155 115.62 84.1445Z" fill="#C5AA79"/>
<path d="M66.3458 78.5562C66.2002 78.5271 66.0547 78.5271 65.9092 78.4107L65.7054 78.2651L65.8219 78.0614C65.851 78.0032 65.851 77.945 65.8219 77.8577C65.7345 77.5084 65.3271 76.9845 65.0942 76.8681C64.6867 76.6352 64.2793 75.2964 64.1628 74.8889L64.1337 74.8016V74.7725L63.93 74.8889L64.1337 74.4232C66.0547 69.9409 64.3375 65.7206 61.718 64.0325C61.3687 63.8287 60.9903 63.625 60.5537 63.4213C60.4955 63.3921 59.3895 62.9556 57.9051 62.9556C57.7887 62.9556 57.6723 62.9556 57.5559 62.9556C54.849 63.1302 52.4333 64.731 51.0944 67.0886C50.425 68.2528 49.8429 69.4461 49.319 70.6686C47.4271 75.0926 46.4375 79.7786 46.4375 84.6102C46.4375 89.4417 47.398 94.1568 49.319 98.5518V98.5809C49.6391 99.3376 50.1048 100.036 50.6287 100.676C51.4437 101.637 52.2586 102.452 52.7534 102.83C52.7534 102.859 52.7243 102.859 52.7243 102.889L53.5102 103.209C54.9655 99.5123 55.2565 96.8345 55.2856 95.4084C55.4894 95.1464 55.5185 94.6807 55.5185 94.477V94.4479C55.8095 88.5685 56.5081 87.2006 57.8178 85.0759C58.1962 84.4646 58.5163 84.1154 58.7201 83.8825C58.7201 83.8825 58.7201 83.8534 58.7492 83.8534L59.0402 83.5624L58.8947 83.9407C58.691 84.4064 58.0798 85.9781 58.2835 86.6185C58.3417 86.764 58.3999 86.8222 58.5163 86.8804C58.8656 86.7931 59.6806 85.6871 60.6702 83.9699L60.8157 84.0281C60.6702 84.4064 60.4082 85.1632 60.1172 85.9199C60.1172 85.9199 59.6515 87.0842 60.1463 87.2879C60.2045 87.317 60.2627 87.317 60.3209 87.317C60.9321 87.317 61.6598 86.1237 61.9508 85.6289L62.2128 85.1632C62.2128 85.1632 66.8406 78.6435 66.6368 78.6144L66.3458 78.5562ZM50.0466 94.9427C48.2712 91.0134 47.7764 86.6185 48.3585 82.369C48.8824 78.6726 49.9593 74.6851 52.1422 71.5999C51.1526 75.5292 50.3668 79.4876 49.9302 83.5042C49.4936 87.3461 49.8138 91.1007 50.0466 94.9427ZM53.0445 86.0946C52.6079 89.9365 52.9281 93.6911 53.1609 97.5331C51.3855 93.6038 50.8907 89.2089 51.4728 84.9594C51.9967 81.263 53.0736 77.2755 55.2565 74.1903C54.2669 78.1196 53.4811 82.078 53.0445 86.0946Z" fill="#C5AA79"/>
<path d="M84.361 78.5853C92.2697 78.5853 98.681 72.174 98.681 64.2653C98.681 56.3566 92.2697 49.9453 84.361 49.9453C76.4523 49.9453 70.041 56.3566 70.041 64.2653C70.041 72.174 76.4523 78.5853 84.361 78.5853Z" stroke="#C5AA79" stroke-miterlimit="10"/>
<path d="M73.0971 76.315L71.9328 76.6061L71.8164 73.9866L73.0388 75.3545L73.0971 76.315Z" fill="#C5AA79"/>
<path d="M83.0217 42.5817C105.026 42.5817 122.955 60.4817 122.955 82.5147C122.955 104.548 105.055 122.448 83.0217 122.448C60.9887 122.448 43.0887 104.548 43.0887 82.5147C43.0887 60.4817 60.9887 42.5817 83.0217 42.5817ZM83.0217 40.8936C60.0573 40.8936 41.4297 59.5212 41.4297 82.4855C41.4297 105.45 60.0573 124.078 83.0217 124.078C105.986 124.078 124.614 105.45 124.614 82.4855C124.614 59.5212 105.986 40.8936 83.0217 40.8936Z" fill="#C5AA79"/>
</svg>
