<svg width="162" height="161" viewBox="0 0 162 161" fill="none" xmlns="http://www.w3.org/2000/svg">
<path d="M111.397 45.4654C111.66 45.4654 111.924 45.4654 112.187 45.4654C113.59 45.553 114.818 45.6405 115.871 45.6405C119.117 45.6405 119.731 45.0276 120.17 44.6774C120.959 43.8894 120.784 43.1014 120.257 42.6636C119.907 42.3133 119.556 42.1382 119.117 42.1382C118.503 42.1382 117.889 42.4885 117.012 43.364C116.661 43.7143 116.134 43.8894 115.608 43.8894C114.906 43.8894 114.292 43.6267 113.766 43.1889C113.327 42.8387 113.152 42.3133 113.152 41.788C113.152 41.0875 113.59 40.212 114.292 39.5115C114.818 38.9862 115.696 38.7235 116.661 38.7235C118.503 38.7235 120.433 39.5991 122.012 41C124.03 42.9263 124.468 44.765 124.381 45.9908C124.293 47.3917 123.679 48.5299 123.152 49.0553C122.451 49.6682 120.872 50.8064 119.292 50.894C118.327 50.9816 116.222 51.1567 114.994 51.5069C115.082 51.5945 115.082 51.5945 115.169 51.682C116.31 51.4193 118.415 51.1567 119.292 51.1567C120.959 51.0691 122.626 49.9309 123.328 49.2304C123.942 48.7051 124.556 47.4792 124.644 45.9908C124.731 44.765 124.293 42.8387 122.187 40.8249C120.608 39.3364 118.591 38.4608 116.661 38.4608C115.608 38.4608 114.643 38.7235 114.117 39.3364C113.327 40.1244 112.888 40.9124 112.888 41.788C112.888 42.4009 113.152 42.9263 113.59 43.364C114.117 43.8894 114.818 44.1521 115.608 44.1521C116.222 44.1521 116.748 43.9769 117.187 43.6267C118.064 42.8387 118.678 42.4885 119.117 42.4885C119.468 42.4885 119.731 42.6636 120.082 42.9263C120.345 43.1889 120.872 43.8018 119.994 44.5898C119.556 44.9401 119.029 45.553 115.871 45.553C114.818 45.553 113.59 45.4654 112.187 45.3779C111.924 45.3779 111.66 45.3779 111.397 45.3779C110.432 45.3779 109.994 45.553 109.029 45.8157C109.116 45.9032 109.204 45.9032 109.292 45.9908C110.432 45.553 110.871 45.4654 111.397 45.4654Z" fill="#C5AA79" stroke="#C5AA79" stroke-width="0.5" stroke-miterlimit="10"/>
<path d="M125.96 86.5299C127.451 86.7051 129.206 87.318 130.521 88.6313C130.96 89.0691 131.574 89.8571 131.837 90.7327C132.013 91.4332 132.101 92.3963 131.311 93.0968C129.644 94.6728 126.837 95.811 123.416 96.4239C123.416 96.5115 123.328 96.5991 123.328 96.6866C126.837 96.0737 129.732 94.8479 131.486 93.2719C132.188 92.659 132.364 91.6958 132.101 90.6451C131.837 89.7696 131.223 88.894 130.697 88.4562C129.293 87.1428 127.539 86.5299 125.96 86.3548C125.96 86.3548 125.96 86.4424 125.96 86.5299Z" fill="#C5AA79" stroke="#C5AA79" stroke-width="0.5" stroke-miterlimit="10"/>
<path d="M133.504 90.2949C133.592 90.47 133.68 90.6451 133.855 90.7327C133.943 90.8203 134.03 90.8203 134.118 90.8203C135.171 90.8203 139.645 87.3179 139.733 87.3179C139.908 87.1428 139.996 87.0553 139.996 86.8802C139.996 86.705 139.908 86.5299 139.733 86.4424C138.241 85.0414 132.539 84.0783 129.469 84.0783C128.328 84.0783 127.626 84.1659 127.363 84.4285C127.188 84.6036 127.188 84.7788 127.363 84.9539C127.363 84.9539 131.223 86.7926 131.837 87.3179C132.715 88.106 133.065 88.894 133.592 90.2073L133.504 90.2949ZM127.363 84.7788C127.276 84.6912 127.276 84.6912 127.363 84.6037C127.451 84.5161 127.89 84.341 129.293 84.341C132.364 84.341 137.89 85.3041 139.382 86.705C139.469 86.7926 139.557 86.8802 139.557 86.9677C139.557 87.0553 139.469 87.1428 139.382 87.2304C139.206 87.4055 134.908 90.7327 133.943 90.7327H133.855C133.767 90.6451 133.68 90.47 133.504 90.2949L133.416 90.2073C132.89 88.894 132.539 88.0184 131.662 87.2304C131.223 86.5299 127.539 84.8663 127.363 84.7788Z" fill="#C5AA79" stroke="#C5AA79" stroke-width="0.5" stroke-miterlimit="10"/>
<path d="M116.661 53.871C116.748 53.9585 116.748 53.9585 116.836 54.0461C118.591 52.5576 120.345 51.7696 122.801 51.7696C125.872 51.7696 129.03 53.0829 131.399 55.2719C135.083 58.6866 134.82 63.9401 134.644 64.8157C134.469 65.4286 134.557 65.9539 134.995 66.3041C135.083 66.3917 141.575 72.3456 143.417 72.3456C143.592 72.3456 143.68 72.3456 143.768 72.2581C143.856 72.1705 144.382 71.2949 144.382 70.7696C144.382 70.5945 144.294 70.5069 144.207 70.3318C144.031 70.1567 143.856 70.1567 143.505 70.1567C143.417 70.1567 143.329 70.1567 143.329 70.1567C142.452 70.1567 141.312 69.6313 140.434 68.7558C139.206 67.5299 138.504 64.3779 140.171 62.8018C140.522 62.4516 141.312 62.1889 142.101 62.1889C142.715 62.1889 143.154 62.364 143.417 62.5392C143.68 62.8018 144.031 64.0276 144.382 65.0783C144.733 66.2166 145.084 67.2673 145.347 67.5299C146.137 68.318 146.838 68.2304 148.242 68.1428H148.33C149.031 68.1428 149.382 68.318 149.821 68.7558C149.996 68.9309 150.084 69.106 150.172 69.3687C150.172 69.5438 150.172 69.7189 149.996 69.894C149.821 70.0691 149.47 70.1567 149.031 70.2442C148.505 70.3318 147.891 70.5069 147.452 70.8571C147.277 71.0322 147.101 71.2074 146.838 71.3825C146.575 71.6452 146.312 71.8203 146.049 72.0829C145.522 72.5207 144.996 73.1336 144.996 73.659C144.996 73.9217 145.084 74.0968 145.259 74.2719C147.277 76.1981 155.874 77.9493 158.418 78.3871C160.348 78.7373 160.524 78.9124 160.699 79.0875C160.962 79.3502 160.962 79.6129 160.611 79.8756C160.611 79.8756 160.436 79.8756 160.085 79.8756C157.541 79.8756 148.856 79 143.066 76.2857C142.715 76.1106 142.452 76.023 142.189 76.023C141.838 76.023 141.575 76.1982 141.399 76.2857C141.312 76.2857 141.224 76.3733 141.224 76.3733C137.627 78.4746 131.925 79.7005 128.591 79.7005C127.714 79.7005 127.012 79.6129 126.574 79.4378C126.574 79.5253 126.574 79.6129 126.574 79.7005C127.188 79.8756 127.977 79.9631 128.591 79.9631C132.013 79.9631 137.715 78.7373 141.399 76.6359C141.487 76.6359 141.575 76.5484 141.575 76.5484C141.838 76.3733 142.013 76.2857 142.277 76.2857C142.452 76.2857 142.715 76.3733 143.066 76.4608C148.944 79.1751 157.716 80.0507 160.26 80.0507C160.874 80.0507 160.962 79.9631 160.962 79.9631C161.313 79.6129 161.401 79.1751 161.05 78.8249C160.874 78.6498 160.699 78.4746 158.681 78.1244C156.137 77.5991 147.628 75.9355 145.61 74.0092C145.435 73.9217 145.435 73.7465 145.435 73.5714C145.435 73.1336 145.961 72.6083 146.4 72.1705C146.663 71.9078 146.926 71.7327 147.189 71.47C147.452 71.2949 147.628 71.1198 147.803 70.9447C148.154 70.682 148.768 70.5069 149.295 70.4193C149.733 70.3318 150.172 70.2442 150.347 70.0691C150.523 69.894 150.611 69.6313 150.611 69.3687C150.611 69.106 150.435 68.8433 150.26 68.6682C149.821 68.318 149.47 67.9677 148.505 68.0553H148.417C147.979 68.0553 147.628 68.1428 147.365 68.1428C146.575 68.1428 146.224 67.9677 145.786 67.6175C145.522 67.3548 145.172 66.3041 144.908 65.2534C144.557 64.0276 144.207 62.9769 143.856 62.6267C143.505 62.364 142.978 62.1889 142.364 62.1889C141.487 62.1889 140.698 62.4516 140.259 62.8018C138.504 64.4654 139.206 67.7926 140.522 69.0184C141.487 69.9816 142.803 70.5069 143.768 70.4193C144.031 70.4193 144.207 70.5069 144.382 70.5945C144.645 70.8571 144.031 72.0829 143.856 72.1705C143.768 72.1705 143.768 72.2581 143.68 72.2581C142.189 72.2581 136.487 67.2673 135.434 66.2166C135.083 65.9539 134.995 65.5161 135.171 64.9032C135.346 64.0276 135.609 58.5991 131.925 55.0968C129.556 52.8203 126.31 51.5069 123.152 51.5069C120.17 51.5069 118.415 52.2949 116.661 53.871Z" fill="#C5AA79" stroke="#C5AA79" stroke-width="0.5" stroke-miterlimit="10"/>
<path d="M43.2342 51.1567C44.1115 51.2442 45.3396 51.5069 46.4801 51.8571C46.5678 51.7696 46.5678 51.682 46.6555 51.5945C45.4274 51.2442 44.1992 51.0691 43.2342 50.9816C41.6551 50.894 39.9884 49.7558 39.3743 49.1428C38.7602 48.6175 38.1461 47.3917 38.1461 46.0783C38.0584 44.8525 38.497 43.0138 40.5147 41.0875C42.0061 39.6866 44.0237 38.811 45.866 38.811C46.9187 38.811 47.7082 39.0737 48.2346 39.5991C49.0241 40.2995 49.375 41.0875 49.375 41.8756C49.375 42.4009 49.1996 42.9263 48.7609 43.2765C48.2346 43.7143 47.6205 43.9769 46.9187 43.9769C46.3923 43.9769 45.866 43.8018 45.5151 43.4516C44.6378 42.576 43.936 42.2258 43.4097 42.2258C43.0588 42.2258 42.7079 42.4009 42.2692 42.7511C41.7429 43.1889 41.5674 43.9769 42.357 44.765C42.7956 45.2028 43.4097 45.7281 46.6555 45.7281C47.7082 45.7281 48.9364 45.6405 50.34 45.553C50.6032 45.553 50.8664 45.553 51.1295 45.553C51.6559 45.553 52.1822 45.6405 53.3227 45.9032C53.4104 45.8157 53.4981 45.8157 53.5859 45.7281C52.7086 45.4654 52.1822 45.2903 51.1295 45.2903C50.8664 45.2903 50.6032 45.2903 50.34 45.2903C48.9364 45.3779 47.7082 45.4654 46.6555 45.4654C43.4974 45.4654 42.971 44.9401 42.5324 44.5023C41.6552 43.7143 42.1815 43.1014 42.4447 42.8387C42.7956 42.4885 43.0588 42.4009 43.4097 42.4009C43.936 42.4009 44.5501 42.7511 45.3396 43.5392C45.6905 43.8894 46.3046 44.0645 46.9187 44.0645C47.6205 44.0645 48.41 43.8018 48.9364 43.2765C49.375 42.8387 49.6382 42.3134 49.6382 41.7005C49.6382 40.9124 49.1996 40.0369 48.41 39.2488C47.796 38.7235 46.9187 38.3733 45.866 38.3733C44.0237 38.3733 41.9183 39.2488 40.3393 40.7373C38.2338 42.7511 37.7952 44.6774 37.8829 45.9032C37.9707 47.3917 38.6725 48.6175 39.1988 49.1428C39.9006 49.9309 41.5674 51.0691 43.2342 51.1567Z" fill="#C5AA79" stroke="#C5AA79" stroke-width="0.5" stroke-miterlimit="10"/>
<path d="M130.521 73.3963C129.118 74.7097 127.451 75.235 125.872 75.4977C125.872 75.5852 125.872 75.6728 125.872 75.7604C127.451 75.5852 129.205 74.9723 130.609 73.659C131.048 73.2212 131.662 72.4332 132.013 71.47C132.364 70.4193 132.1 69.5438 131.399 68.8433C129.644 67.1797 126.661 65.9539 123.065 65.341C123.065 65.4286 123.152 65.5161 123.152 65.6037C126.661 66.2166 129.556 67.3548 131.223 69.0184C132.013 69.8064 131.925 70.7696 131.75 71.3825C131.574 72.2581 130.96 72.9585 130.521 73.3963Z" fill="#C5AA79" stroke="#C5AA79" stroke-width="0.5" stroke-miterlimit="10"/>
<path d="M122.714 53.4332C120.696 53.4332 118.854 53.9585 117.977 54.8341C117.801 54.9216 117.713 55.0968 117.713 55.2719C117.713 55.3594 117.713 55.447 117.801 55.5345C117.889 55.6221 118.24 55.6221 119.468 55.7097C120.696 55.7972 122.626 55.8848 122.977 56.235C123.24 56.4977 123.24 56.8479 123.065 57.023C122.801 57.2857 122.363 57.3733 121.573 57.2857C121.573 57.2857 121.486 57.2857 121.398 57.2857C121.047 57.2857 120.521 57.3733 119.292 57.4608C119.38 57.5484 119.38 57.6359 119.468 57.6359C120.608 57.5484 121.047 57.5484 121.398 57.5484C121.486 57.5484 121.486 57.5484 121.486 57.5484C121.661 57.5484 121.924 57.5484 122.012 57.5484C122.538 57.5484 122.889 57.4608 123.152 57.1981C123.328 57.023 123.416 56.8479 123.328 56.6728C123.328 56.4101 123.24 56.235 123.065 56.0599C122.714 55.7097 121.31 55.6221 119.38 55.5345C118.678 55.5345 117.977 55.447 117.889 55.3594V55.2719C117.889 55.1843 117.977 55.0968 118.064 55.0092C118.942 54.2212 120.696 53.6958 122.626 53.6958C124.205 53.6958 127.275 54.0461 129.907 56.4977C133.153 59.5622 132.802 63.6774 132.715 64.0276C132.627 64.1152 132.539 64.1152 132.364 64.1152C132.1 64.1152 131.75 64.0276 131.135 63.6774C127.89 61.576 124.205 60.1751 120.257 59.5622C120.345 59.6498 120.345 59.7373 120.433 59.8249C124.293 60.5253 127.89 61.8387 131.048 63.8525C131.925 64.3779 132.627 64.4654 132.978 64.2028C133.065 64.1152 133.065 63.1521 133.065 63.1521C133.065 61.9263 132.802 58.7742 130.17 56.3226C127.539 53.871 124.381 53.4332 122.714 53.4332Z" fill="#C5AA79" stroke="#C5AA79" stroke-width="0.5" stroke-miterlimit="10"/>
<path d="M129.381 77.9493C132.451 77.9493 138.153 76.9861 139.645 75.5852C139.82 75.4101 139.908 75.3226 139.908 75.1474C139.908 74.9723 139.82 74.7972 139.645 74.7096C139.645 74.7096 135.171 71.2073 134.03 71.2073C133.943 71.2073 133.855 71.2073 133.767 71.2949C133.592 71.3825 133.504 71.5576 133.416 71.7327L133.329 71.8202C132.802 73.2212 132.451 73.9216 131.574 74.7096C131.048 75.235 127.188 76.9862 127.1 77.0737C126.837 77.2488 126.837 77.4239 127.1 77.5991C127.451 77.8617 128.24 77.9493 129.381 77.9493ZM127.363 77.2488C127.451 77.1613 131.223 75.4977 131.837 74.8848C132.714 74.0092 133.065 73.2212 133.592 71.9078L133.679 71.8202C133.767 71.6451 133.855 71.47 134.03 71.3825C134.03 71.3825 134.03 71.3825 134.118 71.3825C134.995 71.3825 139.382 74.7097 139.557 74.8848C139.645 74.9723 139.732 75.0599 139.732 75.1474C139.732 75.235 139.645 75.3226 139.557 75.4101C138.066 76.811 132.451 77.7742 129.469 77.7742C127.977 77.7742 127.626 77.5991 127.539 77.5115C127.275 77.3364 127.275 77.3364 127.363 77.2488Z" fill="#C5AA79" stroke="#C5AA79" stroke-width="0.5" stroke-miterlimit="10"/>
<path d="M117.976 107.194C118.854 108.069 120.696 108.594 122.714 108.594C124.38 108.594 127.451 108.244 130.083 105.705C132.714 103.253 132.977 100.101 132.977 98.8756C132.977 98.8756 132.978 98 132.89 97.8249C132.539 97.4746 131.749 97.5622 130.96 98.1751C127.802 100.189 124.293 101.502 120.608 102.203C120.52 102.29 120.52 102.378 120.433 102.465C124.293 101.765 127.889 100.452 131.048 98.3502C131.662 98 132.1 97.9124 132.276 97.9124C132.451 97.9124 132.627 98 132.627 98C132.802 98.3502 133.153 102.465 129.819 105.53C127.275 107.982 124.205 108.332 122.538 108.332C120.608 108.332 118.854 107.806 117.976 107.018C117.889 106.931 117.801 106.843 117.801 106.756C117.801 106.668 117.801 106.668 117.801 106.668C117.889 106.581 118.678 106.581 119.292 106.493C121.135 106.406 122.626 106.23 122.977 105.968C123.152 105.793 123.24 105.618 123.24 105.355C123.24 105.18 123.152 104.917 123.064 104.829C122.801 104.567 122.45 104.479 121.924 104.479C121.749 104.479 121.573 104.479 121.398 104.479H121.31C120.959 104.479 120.082 104.392 119.117 104.392C119.029 104.479 119.029 104.567 118.941 104.567C120.082 104.654 120.959 104.654 121.31 104.654C121.398 104.654 121.485 104.654 121.485 104.654C122.187 104.567 122.714 104.654 122.977 104.917C123.152 105.092 123.152 105.442 122.889 105.705C122.626 105.968 120.696 106.143 119.38 106.23C118.152 106.318 117.801 106.318 117.713 106.406C117.625 106.493 117.625 106.581 117.625 106.668C117.801 106.843 117.889 107.018 117.976 107.194Z" fill="#C5AA79" stroke="#C5AA79" stroke-width="0.5" stroke-miterlimit="10"/>
<path d="M36.3038 75.4977C34.7247 75.3225 32.9702 74.7096 31.5666 73.3963C31.1279 72.9585 30.5139 72.1705 30.2507 71.2949C30.0752 70.5944 29.9875 69.6313 30.777 68.9308C32.5315 67.3548 35.4265 66.129 39.0233 65.5161C39.0233 65.4285 39.111 65.341 39.111 65.2534C35.4265 65.8663 32.4438 67.0921 30.6016 68.7557C29.8998 69.4562 29.7243 70.3318 29.9875 71.3825C30.2507 72.258 30.8648 73.1336 31.3911 73.5714C32.8825 74.9723 34.7247 75.4977 36.3038 75.7603C36.3038 75.6728 36.3038 75.5852 36.3038 75.4977Z" fill="#C5AA79" stroke="#C5AA79" stroke-width="0.5" stroke-miterlimit="10"/>
<path d="M51.6559 116.562C51.3927 116.562 51.1296 116.562 50.8664 116.562C49.4628 116.475 48.2346 116.387 47.1819 116.387C43.936 116.387 43.322 117 42.8833 117.35C42.0938 118.138 42.2692 118.926 42.7956 119.364C43.1465 119.714 43.4974 119.889 43.936 119.889C44.5501 119.889 45.1642 119.539 46.0415 118.664C46.3924 118.313 46.9187 118.138 47.4451 118.138C48.1469 118.138 48.761 118.401 49.2873 118.839C49.7259 119.189 49.9014 119.714 49.9014 120.24C49.9014 120.94 49.4628 121.816 48.761 122.516C48.2346 123.041 47.3573 123.304 46.3924 123.304C44.5501 123.304 42.6201 122.429 41.0411 121.028C39.0234 119.101 38.5848 117.263 38.6725 116.037C38.7602 114.636 39.3743 113.498 39.9007 112.972C40.6025 112.359 42.1815 111.221 43.7606 111.134C44.6378 111.046 46.2169 110.871 47.2696 110.608C47.1819 110.521 47.1819 110.521 47.0942 110.433C46.0415 110.696 44.5501 110.871 43.7606 110.959C42.0938 111.046 40.427 112.184 39.7252 112.885C39.1111 113.41 38.497 114.636 38.4093 116.124C38.3216 117.35 38.7602 119.276 40.8656 121.29C42.4447 122.779 44.4624 123.654 46.3924 123.654C47.4451 123.654 48.41 123.392 48.9364 122.779C49.7259 121.991 50.1646 121.203 50.1646 120.327C50.1646 119.714 49.9014 119.189 49.4628 118.751C48.9364 118.226 48.2346 117.963 47.4451 117.963C46.831 117.963 46.3046 118.138 45.866 118.488C44.9887 119.276 44.3747 119.627 43.936 119.627C43.5851 119.627 43.322 119.452 42.9711 119.189C42.7079 118.926 42.1815 118.313 43.0588 117.525C43.4974 117.175 44.0238 116.562 47.1819 116.562C48.2346 116.562 49.4628 116.65 50.8664 116.737C51.1296 116.737 51.3927 116.737 51.6559 116.737C52.5332 116.737 53.4104 116.65 54.2 116.387C54.1122 116.3 54.0245 116.3 53.9368 116.212C52.9718 116.475 52.1823 116.562 51.6559 116.562Z" fill="#C5AA79" stroke="#C5AA79" stroke-width="0.5" stroke-miterlimit="10"/>
<path d="M39.2865 108.594C41.3041 108.594 43.1464 108.069 44.0236 107.194C44.1991 107.106 44.2868 106.931 44.2868 106.756C44.2868 106.668 44.2868 106.581 44.1991 106.493C44.1114 106.406 43.7605 106.406 42.5323 106.318C41.3042 106.23 39.3742 106.143 39.0233 105.793C38.7601 105.53 38.7601 105.18 38.9355 105.005C39.1987 104.742 39.6374 104.654 40.4269 104.742C40.4269 104.742 40.5146 104.742 40.6023 104.742C40.9532 104.742 41.9182 104.654 43.1464 104.654C43.0587 104.567 43.0587 104.479 42.9709 104.479C41.8305 104.567 40.9532 104.567 40.6023 104.567C40.5146 104.567 40.5146 104.567 40.5146 104.567C40.2514 104.567 40.076 104.567 39.9883 104.567C39.4619 104.567 39.111 104.654 38.8478 104.917C38.6724 105.092 38.5847 105.267 38.6724 105.442C38.6724 105.705 38.7601 105.88 38.9355 106.055C39.2865 106.406 40.6901 106.493 42.62 106.581C43.3218 106.581 44.0236 106.668 44.1114 106.756V106.843C44.1114 106.931 44.0236 107.018 43.9359 107.106C43.0587 107.894 41.3041 108.419 39.3742 108.419C37.7951 108.419 34.7247 108.069 32.0929 105.617C28.8471 102.553 29.198 98.4378 29.2857 98.0876C29.3734 98 29.4612 98 29.6366 98C29.8998 98 30.2507 98.0876 30.8648 98.4378C34.1106 100.539 37.7951 101.94 41.6551 102.553C41.5673 102.465 41.5673 102.378 41.4796 102.29C37.7074 101.59 34.1106 100.276 30.9525 98.2627C30.0752 97.7373 29.3734 97.6498 29.0225 97.9124C28.9348 98 28.9348 98.9631 28.9348 98.9631C28.9348 100.189 29.198 103.341 31.8298 105.793C34.5493 108.157 37.7074 108.594 39.2865 108.594Z" fill="#C5AA79" stroke="#C5AA79" stroke-width="0.5" stroke-miterlimit="10"/>
<path d="M45.7782 108.244C45.6905 108.157 45.6905 108.157 45.6028 108.069C43.8482 109.558 41.6551 110.258 39.2865 110.258C36.2161 110.258 33.058 109.032 30.6894 106.756C27.0049 103.341 27.2681 98.0876 27.4435 97.212C27.619 96.5991 27.5313 96.0737 27.0926 95.7235C27.0049 95.6359 20.5132 89.682 18.671 89.682C18.4955 89.682 18.4078 89.682 18.32 89.7696C18.2323 89.8571 17.706 90.7327 17.706 91.2581C17.706 91.4332 17.7937 91.5207 17.8814 91.6083C18.0569 91.7834 18.2323 91.7834 18.5832 91.7834C18.671 91.7834 18.7587 91.7834 18.7587 91.7834C19.6359 91.7834 20.7764 92.3087 21.6536 93.1843C22.8818 94.4101 23.5836 97.5622 21.9168 99.1382C21.5659 99.4885 20.7764 99.7511 19.9868 99.7511C19.3728 99.7511 18.9341 99.576 18.671 99.4009C18.4078 99.1382 18.0569 97.9124 17.706 96.8617C17.3551 95.7235 17.0042 94.6728 16.741 94.4101C15.9515 93.6221 15.2497 93.7097 13.846 93.7972H13.7583C13.0565 93.7972 12.7056 93.6221 12.267 93.1843C12.0915 93.0092 12.0038 92.8341 11.9161 92.5714C11.9161 92.3963 11.9161 92.2212 12.0915 92.0461C12.267 91.871 12.6179 91.7834 13.0565 91.6958C13.5829 91.6083 14.1969 91.4332 14.6356 91.0829C14.811 90.9078 14.9865 90.7327 15.2497 90.5576C15.5128 90.2949 15.776 90.1198 16.0392 89.8571C16.5655 89.4194 17.0919 88.8064 17.0919 88.2811C17.0919 88.0184 17.0042 87.8433 16.8287 87.6682C14.811 85.7419 6.2139 83.9908 3.66985 83.553C1.73989 83.2028 1.56444 83.0277 1.38899 82.8525C1.12581 82.5899 1.12581 82.3272 1.47671 82.0645C1.47671 82.0645 1.65216 82.0645 2.00306 82.0645C4.54711 82.0645 13.232 82.9401 19.0219 85.6544C19.3728 85.8295 19.6359 85.9171 19.8991 85.9171C20.25 85.9171 20.5132 85.7419 20.6886 85.6544C20.7764 85.6544 20.8641 85.5668 20.8641 85.5668C24.4609 83.4654 30.163 82.2396 33.4966 82.2396C34.4616 82.2396 35.2511 82.3272 35.6897 82.5899C35.6897 82.5023 35.6897 82.4147 35.6897 82.3272C35.0757 82.0645 34.1984 82.0645 33.4966 82.0645C30.0753 82.0645 24.3731 83.2903 20.6886 85.3917C20.6009 85.3917 20.5132 85.4793 20.5132 85.4793C20.25 85.6544 20.0746 85.7419 19.8114 85.7419C19.6359 85.7419 19.3728 85.6544 19.0219 85.5668C13.1442 82.8525 4.37166 81.977 1.82762 81.977C1.21354 81.977 1.12581 82.0645 1.12581 82.0645C0.774904 82.4147 0.687179 82.8525 1.03808 83.2028C1.21353 83.3779 1.38899 83.553 3.40668 83.9032C5.95072 84.4286 14.4601 86.0922 16.4778 88.0184C16.6533 88.106 16.6533 88.2811 16.6533 88.4562C16.6533 88.894 16.1269 89.4194 15.6883 89.8571C15.4251 90.1198 15.1619 90.2949 14.8987 90.5576C14.6356 90.7327 14.4601 90.9078 14.2847 91.0829C13.9338 91.3456 13.3197 91.5207 12.7933 91.6083C12.3547 91.6959 11.9161 91.7834 11.7406 91.9585C11.5652 92.1336 11.4774 92.3963 11.4774 92.659C11.4774 92.9217 11.6529 93.1843 11.8283 93.3594C12.267 93.7097 12.6179 94.0599 13.5829 93.9723H13.6706C14.1092 93.9723 14.4601 93.8848 14.7233 93.8848C15.5128 93.8848 15.8637 94.0599 16.3024 94.4101C16.5655 94.6728 16.9164 95.7235 17.1796 96.7742C17.5305 98 17.8814 99.0507 18.2323 99.4009C18.5832 99.6636 19.1096 99.8387 19.7237 99.8387C20.6009 99.8387 21.3904 99.576 21.8291 99.2258C23.5836 97.5622 22.8818 94.235 21.5659 93.0092C20.6009 92.0461 19.285 91.5207 18.32 91.6083C18.0569 91.6083 17.8814 91.5207 17.706 91.4332C17.4428 91.1705 18.0569 89.9447 18.2323 89.8571C18.3201 89.8571 18.3201 89.7696 18.4078 89.7696C19.8991 89.7696 25.6013 94.7604 26.654 95.8111C27.0049 96.0737 27.0926 96.5115 26.9172 97.1244C26.7417 98 26.4785 103.429 30.163 106.931C32.5316 109.207 35.7775 110.521 38.9356 110.521C41.7428 110.521 44.0237 109.733 45.7782 108.244Z" fill="#C5AA79" stroke="#C5AA79" stroke-width="0.5" stroke-miterlimit="10"/>
<path d="M119.292 110.346C118.503 110.258 115.959 110.083 114.994 109.82C114.906 109.908 114.906 109.908 114.818 109.995C115.871 110.258 118.415 110.433 119.292 110.521C120.871 110.608 122.538 111.747 123.152 112.359C123.766 112.885 124.38 114.111 124.38 115.424C124.468 116.65 124.03 118.488 122.012 120.415C120.52 121.816 118.503 122.691 116.661 122.691C115.608 122.691 114.818 122.429 114.292 121.903C113.502 121.203 113.152 120.415 113.152 119.627C113.152 119.101 113.327 118.576 113.766 118.226C114.292 117.788 114.906 117.525 115.608 117.525C116.134 117.525 116.661 117.7 117.011 118.051C117.889 118.926 118.591 119.276 119.117 119.276C119.468 119.276 119.819 119.101 120.257 118.751C120.784 118.313 120.959 117.525 120.17 116.737C119.731 116.3 119.117 115.774 115.871 115.774C114.818 115.774 113.59 115.862 112.187 115.949C111.923 115.949 111.66 115.949 111.397 115.949C110.958 115.949 109.642 115.949 108.677 115.687C108.59 115.774 108.502 115.774 108.414 115.862C109.204 116.037 110.52 116.124 111.397 116.124C111.66 116.124 111.923 116.124 112.187 116.124C113.59 116.037 114.818 115.949 115.871 115.949C119.029 115.949 119.556 116.475 119.994 116.912C120.871 117.7 120.345 118.313 120.082 118.576C119.731 118.926 119.468 119.014 119.117 119.014C118.591 119.014 117.976 118.664 117.187 117.876C116.836 117.525 116.222 117.35 115.608 117.35C114.906 117.35 114.116 117.613 113.59 118.138C113.152 118.576 112.888 119.101 112.888 119.714C112.888 120.502 113.327 121.378 114.116 122.166C114.731 122.691 115.608 123.041 116.661 123.041C118.503 123.041 120.608 122.166 122.187 120.677C124.293 118.664 124.731 116.737 124.644 115.511C124.556 114.023 123.854 112.797 123.328 112.272C122.714 111.571 121.047 110.433 119.292 110.346Z" fill="#C5AA79" stroke="#C5AA79" stroke-width="0.5" stroke-miterlimit="10"/>
<path d="M159.91 82.0645C157.365 82.0645 148.593 82.9401 142.715 85.6543C142.452 85.8295 142.189 85.8295 141.926 85.8295C141.663 85.8295 141.487 85.7419 141.224 85.5668C141.136 85.4792 141.048 85.4792 141.048 85.4792C137.452 83.3778 131.662 82.152 128.241 82.152C127.626 82.152 126.837 82.2396 126.223 82.4147C126.223 82.5023 126.223 82.5898 126.223 82.6774C126.661 82.5023 127.363 82.4147 128.241 82.4147C131.662 82.4147 137.276 83.6405 140.873 85.7419C140.961 85.7419 141.048 85.8295 141.048 85.8295C141.312 86.0046 141.487 86.0921 141.838 86.0921C142.101 86.0921 142.364 86.0046 142.715 85.8295C148.593 83.1152 157.278 82.2396 159.734 82.2396C160.173 82.2396 160.26 82.2396 160.26 82.2396C160.524 82.5023 160.524 82.7649 160.348 83.0276C160.26 83.1152 159.997 83.2903 158.067 83.7281C155.523 84.2534 146.926 85.917 144.908 87.8433C144.733 88.0184 144.645 88.1935 144.645 88.4562C144.645 88.9815 145.172 89.5069 145.698 90.0322C145.961 90.2949 146.224 90.47 146.487 90.7327C146.751 90.9078 146.926 91.0829 147.102 91.258C147.54 91.6083 148.154 91.6958 148.681 91.8709C149.119 91.9585 149.47 92.0461 149.646 92.2212C149.821 92.3087 149.821 92.5714 149.821 92.7465C149.821 92.9216 149.646 93.1843 149.47 93.3594C149.032 93.7972 148.681 93.9723 147.979 93.9723H147.891C146.487 93.8848 145.873 93.7972 144.996 94.5852C144.733 94.8479 144.382 95.8986 144.031 97.0368C143.68 98.0875 143.329 99.3133 143.066 99.576C142.803 99.8387 142.364 99.9262 141.75 99.9262C140.961 99.9262 140.171 99.6636 139.82 99.3133C138.154 97.7373 138.855 94.5852 140.083 93.3594C140.961 92.5714 142.101 91.9585 142.978 91.9585C143.066 91.9585 143.066 91.9585 143.154 91.9585C143.505 91.9585 143.768 91.8709 143.856 91.7834C143.943 91.6958 144.031 91.5207 144.031 91.4331C144.031 90.8202 143.505 90.0322 143.417 89.9447C143.329 89.8571 143.242 89.8571 143.066 89.8571C141.312 89.8571 134.732 95.8986 134.644 95.8986C134.294 96.2488 134.118 96.7742 134.294 97.3871C134.469 98.2626 134.732 103.516 131.048 106.931C128.679 109.12 127.626 110.433 124.556 110.433C122.187 110.433 117.977 109.733 116.222 108.332C116.134 108.419 116.134 108.419 116.047 108.507C117.801 109.908 122.1 110.696 124.556 110.696C127.714 110.696 128.855 109.382 131.223 107.106C134.995 103.604 134.732 98.2626 134.469 97.2995C134.294 96.7742 134.381 96.3364 134.732 95.9861C135.785 95.023 141.487 89.9447 142.978 89.9447C143.066 89.9447 143.154 89.9447 143.154 90.0322C143.242 90.1198 143.943 91.3456 143.68 91.6083C143.593 91.6958 143.417 91.7834 143.066 91.7834C142.101 91.6958 140.785 92.3087 139.82 93.1843C138.417 94.4977 137.803 97.8249 139.557 99.4009C139.996 99.7511 140.785 100.014 141.663 100.014C142.364 100.014 142.891 99.8387 143.154 99.576C143.505 99.3133 143.856 98.1751 144.207 96.9493C144.47 95.9861 144.821 94.8479 145.084 94.5852C145.522 94.1474 145.961 94.0599 146.663 94.0599C146.926 94.0599 147.365 94.0599 147.716 94.1474H147.803C148.681 94.235 149.119 93.8848 149.558 93.5345C149.733 93.3594 149.909 93.0967 149.909 92.8341C149.909 92.5714 149.821 92.3087 149.646 92.1336C149.47 91.9585 149.032 91.8709 148.593 91.7834C148.067 91.6958 147.452 91.5207 147.102 91.258C146.926 91.0829 146.751 90.9078 146.487 90.7327C146.224 90.47 145.961 90.2949 145.698 90.0322C145.259 89.5944 144.733 89.0691 144.733 88.6313C144.733 88.4562 144.821 88.3686 144.908 88.1935C146.926 86.3548 155.436 84.6037 157.98 84.0783C159.997 83.7281 160.173 83.553 160.348 83.3778C160.699 83.0276 160.699 82.5898 160.26 82.2396C160.611 82.152 160.524 82.0645 159.91 82.0645Z" fill="#C5AA79" stroke="#C5AA79" stroke-width="0.5" stroke-miterlimit="10"/>
<path d="M32.707 84.0783C29.6366 84.0783 23.9345 85.0414 22.4431 86.4424C22.2677 86.6175 22.1799 86.705 22.1799 86.8802C22.1799 87.0553 22.2677 87.2304 22.4431 87.3179C22.4431 87.3179 26.9171 90.8203 28.0576 90.8203C28.1453 90.8203 28.233 90.8203 28.3207 90.7327C28.4962 90.6451 28.5839 90.47 28.6716 90.2949L28.7594 90.2073C29.2857 88.8064 29.6366 88.106 30.5139 87.3179C31.0402 86.7926 34.9002 85.0414 34.9879 84.9539C35.2511 84.7788 35.2511 84.6036 34.9879 84.4285C34.5493 84.1659 33.8475 84.0783 32.707 84.0783ZM34.637 84.7788C34.5493 84.8663 30.7771 86.5299 30.163 87.1428C29.2857 88.0184 28.9348 88.8064 28.4085 90.1198L28.3207 90.2073C28.233 90.3825 28.1453 90.5576 27.9698 90.6451C27.9698 90.6451 27.9698 90.6451 27.8821 90.6451C27.0049 90.6451 22.6186 87.3179 22.4431 87.1428C22.3554 87.0553 22.2677 86.9677 22.2677 86.8802C22.2677 86.7926 22.3554 86.705 22.4431 86.6175C23.9345 85.2166 29.5489 84.2534 32.5316 84.2534C34.0229 84.2534 34.3738 84.4285 34.4615 84.5161C34.7247 84.6912 34.7247 84.6912 34.637 84.7788Z" fill="#C5AA79" stroke="#C5AA79" stroke-width="0.5" stroke-miterlimit="10"/>
<path d="M42.4446 55.7097C43.6727 55.6221 44.0236 55.6221 44.1114 55.5345C44.1991 55.447 44.1991 55.3594 44.1991 55.2719C44.1991 55.0968 44.1114 55.0092 43.9359 54.8341C43.0587 53.9585 41.2164 53.4332 39.1987 53.4332C37.5319 53.4332 34.4615 53.7834 31.8298 56.3226C29.198 58.7742 28.9348 61.9263 28.9348 63.1521C28.9348 63.1521 28.9348 64.0276 29.0225 64.2027C29.3734 64.553 30.163 64.4654 30.9525 63.8525C34.1984 61.7511 37.3565 60.4378 41.2164 59.7373C41.3041 59.6498 41.3041 59.5622 41.3919 59.4746C37.3565 60.0875 34.1984 61.4885 30.8648 63.6774C30.2507 64.0276 29.8121 64.1152 29.6366 64.1152C29.4612 64.1152 29.2857 64.0276 29.2857 64.0276C29.1103 63.6774 28.7594 59.5622 32.0929 56.4977C34.637 54.0461 37.7074 53.6958 39.3742 53.6958C41.3041 53.6958 43.0587 54.2212 43.9359 55.0092C44.0236 55.0968 44.1114 55.1843 44.1114 55.2719C44.1114 55.3594 44.1114 55.3594 44.1114 55.3594C44.0236 55.447 43.2341 55.447 42.62 55.5345C40.7778 55.6221 39.2864 55.7972 38.9355 56.0599C38.7601 56.235 38.6724 56.4101 38.6724 56.6728C38.6724 56.8479 38.7601 57.1106 38.8478 57.1981C39.111 57.4608 39.4619 57.5484 39.9883 57.5484C40.1637 57.5484 40.3392 57.5484 40.5146 57.5484H40.6023C40.9532 57.5484 41.4796 57.6359 42.7078 57.7235C42.7955 57.6359 42.7955 57.5484 42.8832 57.5484C41.655 57.4608 41.041 57.3733 40.6901 57.3733C40.6023 57.3733 40.5146 57.3733 40.5146 57.3733C39.8128 57.4608 39.2865 57.3733 39.0233 57.1106C38.8478 56.9355 38.8478 56.5852 39.111 56.3226C39.2865 55.9723 41.2164 55.7972 42.4446 55.7097Z" fill="#C5AA79" stroke="#C5AA79" stroke-width="0.5" stroke-miterlimit="10"/>
<path d="M2.17857 79.9631C4.72262 79.9631 13.4952 79.0876 19.3728 76.3733C19.636 76.1982 19.8992 76.1982 20.1624 76.1982C20.4255 76.1982 20.601 76.2857 20.8642 76.4608C20.9519 76.4608 21.0396 76.5484 21.0396 76.5484C24.7241 78.6498 30.4263 79.8756 33.8476 79.8756C34.5494 79.8756 35.4266 79.788 36.0407 79.6129C36.0407 79.5253 36.0407 79.4378 36.0407 79.3502C35.6021 79.5253 34.8126 79.7005 33.8476 79.7005C30.4263 79.7005 24.8118 78.4746 21.2151 76.3733C21.1273 76.3733 21.0396 76.2857 21.0396 76.2857C20.7764 76.1106 20.601 76.023 20.2501 76.023C19.9869 76.023 19.7237 76.1106 19.3728 76.2857C13.4952 79 4.81035 79.8756 2.35402 79.8756C1.9154 79.8756 1.82767 79.8756 1.82767 79.8756C1.56449 79.6129 1.47677 79.3502 1.73994 79.0876C1.82767 79 2.09085 78.8249 4.02082 78.3871C6.56486 77.8617 15.162 76.1981 17.1797 74.2719C17.3551 74.0968 17.4429 73.9217 17.4429 73.659C17.4429 73.1336 16.9165 72.6083 16.3902 72.0829C16.127 71.8203 15.8638 71.6452 15.6006 71.3825C15.3374 71.2074 15.162 71.0322 14.9865 70.8571C14.5479 70.5069 13.9338 70.4193 13.4075 70.2442C12.9688 70.1567 12.6179 70.0691 12.4425 69.894C12.267 69.8064 12.267 69.5438 12.267 69.3687C12.267 69.1935 12.4425 68.9309 12.6179 68.7558C13.0566 68.318 13.4075 68.1428 14.1093 68.1428H14.197C15.6006 68.2304 16.2147 68.318 17.092 67.5299C17.3551 67.2673 17.706 66.2166 18.0569 65.0783C18.4078 64.0276 18.7587 62.8018 19.0219 62.5392C19.2851 62.2765 19.7237 62.1889 20.3378 62.1889C21.1273 62.1889 21.9169 62.4516 22.2678 62.8018C23.9346 64.2903 23.2328 67.5299 22.0046 68.7558C21.1273 69.5438 19.9869 70.1567 19.1096 70.1567C19.0219 70.1567 19.0219 70.1567 18.9342 70.1567C18.5833 70.1567 18.3201 70.2442 18.2324 70.3318C18.1447 70.4193 18.0569 70.5945 18.0569 70.7696C18.0569 71.3825 18.5833 72.1705 18.671 72.2581C18.7587 72.3456 18.8465 72.3456 19.0219 72.3456C20.8642 72.3456 27.3559 66.3041 27.4436 66.3041C27.7945 65.9539 27.97 65.4286 27.7945 64.8157C27.6191 63.9401 27.3559 58.6866 31.0404 55.2719C33.4089 53.0829 36.4794 51.7696 39.6375 51.7696C42.0938 51.7696 43.8483 52.5576 45.6028 54.1336C45.6906 54.0461 45.6906 54.0461 45.7783 53.9585C43.936 52.3825 42.1815 51.5069 39.6375 51.5069C36.4794 51.5069 33.3212 52.8203 30.8649 55.0968C27.0927 58.5991 27.3559 63.9401 27.6191 64.9032C27.7945 65.4286 27.7068 65.8664 27.3559 66.2166C26.3032 67.1797 20.601 72.2581 19.1096 72.2581C19.0219 72.2581 18.9342 72.2581 18.9342 72.1705C18.8465 72.0829 18.1447 70.8571 18.4078 70.5945C18.4956 70.5069 18.671 70.4193 19.0219 70.4193C19.9869 70.5069 21.3028 69.894 22.2678 69.0184C23.6714 67.7051 24.2855 64.3779 22.531 62.8018C22.0923 62.4516 21.3028 62.1889 20.4255 62.1889C19.7237 62.1889 19.1974 62.364 18.9342 62.6267C18.5833 62.8894 18.2324 64.0276 17.8815 65.2534C17.6183 66.2166 17.2674 67.3548 17.0042 67.6175C16.5656 68.0553 16.127 68.1428 15.4252 68.1428C15.162 68.1428 14.7234 68.1428 14.3725 68.0553H14.2847C13.4075 67.9677 12.9688 68.318 12.5302 68.6682C12.3548 68.8433 12.1793 69.106 12.1793 69.3687C12.1793 69.6313 12.267 69.894 12.4425 70.0691C12.6179 70.2442 13.0566 70.3318 13.4952 70.4193C14.0216 70.5069 14.6356 70.682 14.9865 70.9447C15.162 71.1198 15.3374 71.2949 15.6006 71.47C15.8638 71.7327 16.127 71.9078 16.3902 72.1705C16.8288 72.6083 17.3551 73.1336 17.3551 73.5714C17.3551 73.7465 17.2674 73.8341 17.1797 74.0092C15.162 75.8479 6.65259 77.5991 4.10854 78.1244C2.09085 78.4746 1.91539 78.6498 1.73994 78.8249C1.38904 79.1751 1.38904 79.6129 1.82767 79.9631C1.47677 79.8756 1.47677 79.9631 2.17857 79.9631Z" fill="#C5AA79" stroke="#C5AA79" stroke-width="0.5" stroke-miterlimit="10"/>
<path d="M28.4964 71.7327C28.4086 71.5576 28.3209 71.3825 28.1454 71.2949C28.0577 71.2073 27.97 71.2073 27.8823 71.2073C26.8296 71.2073 22.3555 74.7096 22.2678 74.7096C22.0924 74.8848 22.0046 74.9723 22.0046 75.1474C22.0046 75.3226 22.0924 75.4977 22.2678 75.5852C23.7592 76.9861 29.4613 77.9493 32.5317 77.9493C33.6722 77.9493 34.374 77.8617 34.6372 77.5991C34.8126 77.4239 34.8126 77.2488 34.6372 77.0737C34.6372 77.0737 30.7772 75.235 30.1631 74.7096C29.2859 73.9216 28.935 73.1336 28.4086 71.8202L28.4964 71.7327ZM34.6372 77.2488C34.7249 77.3364 34.7249 77.3364 34.6372 77.4239C34.5494 77.5115 34.1108 77.6866 32.7072 77.6866C29.6368 77.6866 24.1101 76.7235 22.6187 75.3226C22.531 75.235 22.4433 75.1474 22.4433 75.0599C22.4433 74.9723 22.531 74.8848 22.6187 74.7972C22.7942 74.6221 27.0927 71.2949 28.0577 71.2949H28.1454C28.2332 71.3825 28.3209 71.5576 28.4964 71.7327L28.5841 71.8202C29.1104 73.1336 29.4613 74.0092 30.3386 74.7972C30.7772 75.4101 34.5494 77.1613 34.6372 77.2488Z" fill="#C5AA79" stroke="#C5AA79" stroke-width="0.5" stroke-miterlimit="10"/>
<path d="M29.9875 90.5576C29.6366 91.6083 29.8998 92.4838 30.6016 93.1843C32.3561 94.8479 35.3388 96.0737 38.9355 96.6866C38.9355 96.599 38.8478 96.5115 38.8478 96.4239C35.3388 95.811 32.4438 94.6728 30.777 93.0092C29.9875 92.2212 30.0752 91.258 30.2507 90.6451C30.5139 89.7696 31.128 88.9815 31.5666 88.5437C32.9702 87.2304 34.7247 86.705 36.3038 86.4424C36.3038 86.3548 36.3038 86.2672 36.3038 86.1797C34.7247 86.3548 32.8825 86.9677 31.3911 88.3686C30.8648 88.894 30.2507 89.682 29.9875 90.5576Z" fill="#C5AA79" stroke="#C5AA79" stroke-width="0.5" stroke-miterlimit="10"/>
<path d="M76.3067 125.406C76.0435 126.982 75.5172 128.908 74.2013 130.309C73.7627 130.747 72.9731 131.359 72.0081 131.71C70.9554 132.06 70.0782 131.797 69.3764 131.097C67.7096 129.346 66.4814 126.456 65.9551 122.954C66.0428 122.954 66.1305 123.041 66.2182 123.041C66.8323 126.456 67.9728 129.258 69.5518 130.922C70.3414 131.71 71.3063 131.622 71.9204 131.447C72.7977 131.184 73.5872 130.571 74.0258 130.134C75.3417 128.733 75.8681 126.894 76.1313 125.318C76.1313 125.406 76.219 125.406 76.3067 125.406ZM77.798 127.069C77.8858 126.982 77.8858 126.982 77.9735 127.069C78.0612 127.157 78.2367 127.594 78.2367 128.995C78.2367 132.06 77.2717 137.576 75.8681 139.065C75.7804 139.152 75.6926 139.24 75.6049 139.24C75.5172 139.24 75.4294 139.152 75.3417 139.065C75.1663 138.889 71.8327 134.599 71.8327 133.636V133.548C71.9204 133.461 72.0959 133.373 72.2713 133.198L72.359 133.111C73.6749 132.585 74.5522 132.235 75.3417 131.359C75.9558 130.922 77.7103 127.244 77.798 127.069ZM72.2713 133.198C72.0959 133.286 71.9204 133.373 71.8327 133.548C71.745 133.636 71.745 133.723 71.745 133.811C71.745 134.862 75.254 139.327 75.254 139.415C75.4295 139.59 75.5172 139.677 75.6926 139.677C75.8681 139.677 76.0435 139.59 76.1313 139.415C77.5349 137.926 78.4999 132.235 78.4999 129.171C78.4999 128.032 78.4121 127.332 78.1489 127.069C77.9735 126.894 77.798 126.894 77.6226 127.069C77.6226 127.069 75.7804 130.922 75.254 131.535C74.4645 132.41 73.6749 132.76 72.359 133.286L72.2713 133.198ZM77.798 34.5207C77.7103 34.4332 76.0435 30.6682 75.4294 30.0553C74.5522 29.1797 73.7627 28.8295 72.4468 28.3041L72.359 28.2166C72.1836 28.129 72.0081 28.0415 71.9204 27.8663C71.9204 27.8663 71.9204 27.8663 71.9204 27.7788C71.9204 26.9032 75.254 22.5253 75.4294 22.3502C75.5172 22.2627 75.6049 22.1751 75.6926 22.1751C75.7804 22.1751 75.8681 22.2627 75.9558 22.3502C77.3594 23.8387 78.3244 29.4424 78.3244 32.4193C78.3244 33.9078 78.1489 34.258 78.0612 34.3456C77.8858 34.6083 77.8858 34.6083 77.798 34.5207ZM78.4999 32.5069C78.4999 29.4424 77.5349 23.7511 76.1313 22.2627C75.9558 22.0875 75.8681 22 75.6926 22C75.5172 22 75.3417 22.0875 75.254 22.2627C75.254 22.2627 71.745 26.7281 71.745 27.8663C71.745 27.9539 71.745 28.0415 71.8327 28.129C71.9204 28.3041 72.0959 28.3917 72.2713 28.4792L72.359 28.5668C73.7627 29.0922 74.4645 29.4424 75.254 30.318C75.7804 30.8433 77.5349 34.6958 77.6226 34.7834C77.798 35.0461 77.9735 35.0461 78.1489 34.7834C78.4121 34.4332 78.4999 33.7327 78.4999 32.5069ZM74.1136 31.1935C75.5172 32.682 76.0435 34.5207 76.3067 36.0968C76.219 36.0968 76.1313 36.0968 76.0435 36.0968C75.8681 34.5207 75.254 32.682 73.9381 31.2811C73.4995 30.8433 72.7099 30.2304 71.8327 29.9677C71.1309 29.7926 70.1659 29.7051 69.4641 30.4931C67.885 32.1567 66.6569 35.0461 66.0428 38.5484C65.9551 38.5484 65.8673 38.6359 65.7796 38.6359C66.3937 35.0461 67.6219 32.0691 69.2886 30.318C69.9027 29.6175 70.8677 29.4424 71.9204 29.7051C72.8854 30.1428 73.6749 30.7557 74.1136 31.1935ZM86.7461 36.2719C86.9215 34.6958 87.6233 32.682 88.9392 31.1935C89.3778 30.7557 90.1674 30.1428 91.1324 29.7926C92.1851 29.4424 93.0623 29.7051 93.7641 30.4055C95.4309 32.2442 96.6591 35.2212 97.2732 38.8986C97.1854 38.8986 97.0977 38.811 97.01 38.811C96.3959 35.3087 95.2555 32.3318 93.5887 30.5806C92.7991 29.7926 91.8342 29.8802 91.2201 30.0553C90.3428 30.318 89.5533 30.9309 89.1147 31.3686C87.7988 32.7696 87.1847 34.6958 87.0092 36.2719C87.0092 36.2719 86.8338 36.2719 86.7461 36.2719ZM85.3425 34.5207C85.2547 34.6083 85.2547 34.6083 85.167 34.5207C85.0793 34.4332 84.9038 33.9954 84.9038 32.5945C84.9038 29.5299 85.8688 24.0138 87.2724 22.5253C87.3602 22.4378 87.4479 22.3502 87.5356 22.3502C87.6233 22.3502 87.711 22.4378 87.7988 22.5253C87.9742 22.7004 91.3078 26.9908 91.3078 27.9539V28.0415C91.2201 28.129 91.0446 28.2166 90.8692 28.3917L90.7815 28.4792C89.4656 29.0046 88.5883 29.3548 87.7988 30.2304C87.1847 30.6682 85.4302 34.4332 85.3425 34.5207ZM90.8692 28.3917C91.0446 28.3041 91.2201 28.2166 91.3078 28.0415C91.3955 27.9539 91.3955 27.8663 91.3955 27.7788C91.3955 26.7281 87.8865 22.2627 87.8865 22.1751C87.7111 22 87.6233 21.9124 87.4479 21.9124C87.2724 21.9124 87.097 22 87.0092 22.1751C85.6056 23.6636 84.6407 29.3548 84.6407 32.4193C84.6407 33.5576 84.7284 34.258 84.9916 34.5207C85.167 34.6958 85.3425 34.6958 85.5179 34.5207C85.5179 34.5207 87.3601 30.6682 87.8865 30.0553C88.676 29.1797 89.4656 28.8295 90.7815 28.3041L90.8692 28.3917ZM80.4298 160.253C80.0789 160.604 79.6403 160.691 79.2894 160.341C79.1139 160.166 78.9385 159.991 78.5876 157.977C78.1489 155.438 76.3944 146.945 74.4645 144.931C74.3767 144.756 74.2013 144.756 74.0258 144.756C73.5872 144.756 73.0609 145.281 72.6222 145.719C72.359 145.982 72.1836 146.244 71.9204 146.507C71.745 146.77 71.5695 146.945 71.3941 147.12C71.1309 147.47 70.9554 148.083 70.8677 148.608C70.78 149.046 70.6923 149.484 70.5168 149.659C70.3414 149.834 70.0782 149.922 69.815 149.922C69.5518 149.922 69.2886 149.747 69.1132 149.571C68.7623 149.134 68.4114 148.783 68.4991 147.82V147.733C68.4991 147.295 68.5868 146.945 68.5868 146.682C68.5868 145.894 68.4114 145.544 68.0605 145.106C67.7973 144.843 66.7446 144.493 65.6919 144.23C64.4637 143.88 63.411 143.53 63.0601 143.18C62.7969 142.829 62.6215 142.304 62.6215 141.691C62.6215 140.816 62.8847 140.028 63.2356 139.59C64.9024 137.839 68.2359 138.539 69.4641 139.853C70.4291 140.816 70.9554 142.129 70.8677 143.092C70.8677 143.355 70.9554 143.53 71.0432 143.705C71.3063 143.968 72.5345 143.355 72.6222 143.18C72.6222 143.092 72.7099 143.092 72.7099 143.005C72.7099 141.516 67.7096 135.825 66.6569 134.774C66.3937 134.424 65.9551 134.336 65.341 134.512C64.4637 134.687 59.0247 134.949 55.5157 131.272C53.2348 128.908 51.9189 125.668 51.9189 122.516C51.9189 120.064 52.7085 118.401 54.1121 116.65C54.1998 116.737 54.1998 116.737 54.2875 116.825C52.8839 118.576 52.1821 120.152 52.1821 122.516C52.1821 125.581 53.4103 128.733 55.6912 131.097C59.1125 134.774 64.376 134.512 65.2533 134.336C65.8673 134.161 66.3937 134.249 66.7446 134.687C66.8323 134.774 72.7977 141.253 72.7977 143.092C72.7977 143.267 72.7977 143.355 72.7099 143.442C72.6222 143.53 71.745 144.055 71.2186 144.055C71.0432 144.055 70.9554 143.968 70.8677 143.88C70.6923 143.705 70.6923 143.53 70.6923 143.18C70.6923 143.092 70.6923 143.005 70.6923 143.005C70.6923 142.129 70.1659 140.991 69.2886 140.115C68.0605 138.889 64.9024 138.189 63.3233 139.853C62.9724 140.203 62.7092 140.991 62.7092 141.779C62.7092 142.392 62.8847 142.829 63.0601 143.092C63.3233 143.355 64.5515 143.705 65.6042 144.055C66.7446 144.406 67.7973 144.756 68.0605 145.018C68.85 145.806 68.7623 146.507 68.6746 147.908V147.995C68.6746 148.696 68.85 149.046 69.2886 149.484C69.4641 149.659 69.6395 149.747 69.9027 149.834C70.0782 149.834 70.2536 149.834 70.4291 149.659C70.6045 149.484 70.6923 149.134 70.78 148.696C70.8677 148.171 71.0432 147.558 71.3941 147.12C71.5695 146.945 71.745 146.77 71.9204 146.507C72.1836 146.244 72.359 145.982 72.6222 145.719C73.0609 145.194 73.6749 144.668 74.2013 144.668C74.4645 144.668 74.6399 144.756 74.8154 144.931C76.7453 146.945 78.4999 155.525 78.9385 158.064C79.2894 159.991 79.4648 160.166 79.6403 160.341C79.9035 160.604 80.1666 160.604 80.4298 160.253C80.4298 160.253 80.4298 160.078 80.4298 159.728C80.4298 157.189 79.5526 148.521 76.8331 142.742C76.6576 142.392 76.5699 142.129 76.5699 141.866C76.5699 141.516 76.7453 141.253 76.8331 141.078C76.8331 140.991 76.9208 140.903 76.9208 140.903C79.0262 137.313 80.2544 131.622 80.2544 128.295C80.2544 127.419 80.1666 126.456 79.9912 126.018C80.0789 126.018 80.1666 126.018 80.2544 126.018C80.4298 126.631 80.5175 127.682 80.5175 128.295C80.5175 131.71 79.2894 137.401 77.184 141.078C77.184 141.166 77.0962 141.253 77.0962 141.253C76.9208 141.516 76.8331 141.691 76.8331 141.954C76.8331 142.129 76.9208 142.392 77.0085 142.742C79.728 148.608 80.6053 157.364 80.6053 159.903C80.5175 160.166 80.4298 160.166 80.4298 160.253ZM54.2875 45.1152C52.7962 43.2765 52.0067 41.6129 52.0067 39.1613C52.0067 36.0092 53.3226 32.8571 55.6034 30.4055C59.1125 26.6405 64.4637 26.9032 65.4287 27.1659C65.9551 27.341 66.3937 27.2534 66.7446 26.9032C67.7096 25.8525 72.7977 20.1613 72.7977 18.6728C72.7977 18.5852 72.7977 18.4977 72.7099 18.4977C72.6222 18.4101 71.3941 17.7097 71.1309 17.9723C71.0432 18.0599 70.9554 18.235 70.9554 18.5852C71.0432 19.5484 70.4291 20.8617 69.5518 21.8249C68.2359 23.2258 64.9024 23.8387 63.3233 22.0875C62.9724 21.6498 62.7092 20.8617 62.7092 19.9862C62.7092 19.2857 62.8847 18.7604 63.1478 18.4977C63.411 18.1475 64.5515 17.7972 65.7796 17.447C66.7446 17.1843 67.885 16.8341 68.1482 16.5714C68.5868 16.1336 68.6746 15.6958 68.6746 14.9954C68.6746 14.7327 68.6746 14.2949 68.5868 13.9447V13.8571C68.4991 12.9816 68.85 12.5438 69.2009 12.106C69.3764 11.9309 69.6395 11.7557 69.9027 11.7557C70.1659 11.7557 70.4291 11.8433 70.6045 12.0184C70.78 12.1935 70.8677 12.6313 70.9554 13.0691C71.0432 13.5945 71.2186 14.2074 71.4818 14.5576C71.6572 14.7327 71.8327 14.9078 72.0081 15.1705C72.2713 15.4332 72.4468 15.6958 72.7099 15.9585C73.1486 16.3963 73.6749 16.9216 74.1136 16.9216C74.289 16.9216 74.3767 16.8341 74.5522 16.7465C76.3944 14.7327 78.1489 6.23962 78.6753 3.70045C79.0262 1.68662 79.2017 1.51151 79.3771 1.33639C79.728 0.986162 80.1666 0.986162 80.5175 1.42395C80.5175 1.42395 80.6053 1.51151 80.6053 2.12441C80.6053 4.66358 79.728 13.4193 77.0085 19.2857C76.8331 19.5484 76.8331 19.811 76.8331 20.0737C76.8331 20.3364 76.9208 20.5115 77.0962 20.7742C77.184 20.8617 77.184 20.9493 77.184 20.9493C79.2894 24.6267 80.5175 30.318 80.5175 33.7327C80.5175 34.4332 80.4298 35.4839 80.2544 36.0092C80.1666 36.0092 80.0789 36.0092 79.9912 36.0092C80.1666 35.5714 80.3421 34.6958 80.3421 33.7327C80.3421 30.318 79.1139 24.7143 77.0085 21.1244C77.0085 21.0369 76.9208 20.9493 76.9208 20.9493C76.7453 20.6866 76.6576 20.5115 76.6576 20.1613C76.6576 19.8986 76.7453 19.6359 76.9208 19.2857C79.6403 13.4193 80.5175 4.75114 80.5175 2.29953C80.5175 1.86174 80.5175 1.77418 80.5175 1.77418C80.2544 1.51151 79.9912 1.42395 79.728 1.68662C79.6403 1.77418 79.4648 2.03685 79.0262 3.96312C78.4998 6.50229 76.8331 15.0829 74.9031 17.0968C74.7276 17.2719 74.5522 17.3594 74.289 17.3594C73.7627 17.3594 73.2363 16.8341 72.7099 16.3087C72.4468 16.0461 72.2713 15.7834 72.0081 15.5207C71.8327 15.2581 71.6572 15.0829 71.4818 14.9078C71.1309 14.47 71.0432 13.8571 70.8677 13.3318C70.78 12.894 70.6923 12.5438 70.5168 12.3687C70.4291 12.1935 70.1659 12.1935 69.9904 12.1935C69.815 12.1935 69.5518 12.3686 69.3764 12.5438C68.9377 12.9816 68.7623 13.3318 68.7623 14.0322V14.1198C68.85 15.5207 68.9377 16.1336 68.1482 17.0092C67.885 17.2719 66.8323 17.6221 65.6919 17.9723C64.6392 18.3226 63.411 18.6728 63.1478 18.9355C62.8847 19.1981 62.7969 19.6359 62.7969 20.2488C62.7969 21.0369 63.0601 21.8249 63.411 22.1751C64.9901 23.8387 68.1482 23.1382 69.3764 21.9124C70.1659 21.0369 70.78 19.8986 70.78 19.023C70.78 18.9355 70.78 18.9355 70.78 18.8479C70.78 18.4977 70.8677 18.235 70.9554 18.1475C71.0432 18.0599 71.2186 17.9723 71.3063 17.9723C71.9204 17.9723 72.71 18.4977 72.7977 18.5852C72.8854 18.6728 72.8854 18.7604 72.8854 18.9355C72.8854 20.7742 66.8323 27.2534 66.8323 27.341C66.4814 27.6912 65.9551 27.8663 65.341 27.6912C64.4637 27.5161 59.2002 27.2534 55.7789 30.9309C53.5857 33.2949 52.2698 36.3594 52.2698 39.5115C52.2698 41.8756 53.0594 43.5392 54.463 45.2903C54.3753 45.0276 54.3753 45.1152 54.2875 45.1152ZM82.7107 1.33639C83.0616 0.986162 83.5002 0.898606 83.8511 1.24884C84.0266 1.42395 84.202 1.59907 84.5529 3.61289C85.0793 6.15206 86.7461 14.6451 88.676 16.659C88.7638 16.8341 88.9392 16.8341 89.1147 16.8341C89.5533 16.8341 90.0796 16.3087 90.5183 15.871C90.7815 15.6083 90.9569 15.3456 91.2201 15.0829C91.3955 14.8203 91.571 14.6451 91.7464 14.47C92.0096 14.1198 92.1851 13.5069 92.2728 12.9816C92.3605 12.5438 92.4482 12.106 92.6237 11.9309C92.7991 11.7557 93.0623 11.6682 93.3255 11.6682C93.5887 11.6682 93.8519 11.8433 94.0273 12.0184C94.3782 12.4562 94.7291 12.8064 94.6414 13.7696V13.8571C94.6414 14.2949 94.5537 14.6451 94.5537 14.9078C94.5537 15.6958 94.7291 16.0461 95.08 16.4839C95.3432 16.7465 96.3959 17.0968 97.4486 17.3594C98.6768 17.7097 99.7295 18.0599 100.08 18.4101C100.344 18.7604 100.519 19.2857 100.519 19.8986C100.519 20.7742 100.256 21.5622 99.9049 22C98.2381 23.7511 94.9046 23.0507 93.6764 21.7373C92.7114 20.7742 92.1851 19.4608 92.2728 18.4977C92.2728 18.235 92.1851 18.0599 92.0973 17.8848C91.8342 17.6221 90.606 18.235 90.5183 18.4101C90.5183 18.4977 90.4305 18.4977 90.4305 18.5852C90.4305 20.0737 95.4309 25.765 96.4836 26.8157C96.7468 27.1659 97.1854 27.2534 97.7995 27.0783C98.6768 26.9032 104.116 26.6405 107.625 30.318C109.906 32.682 111.222 35.9216 111.222 39.0737C111.222 41.6129 110.344 43.8894 108.765 45.7281C108.678 45.6405 108.678 45.6405 108.59 45.553C110.169 43.8018 110.958 41.5253 110.958 39.0737C110.958 36.0092 109.642 32.8571 107.449 30.4931C104.028 26.8157 98.7645 27.0783 97.8872 27.2534C97.2732 27.4286 96.7468 27.341 96.3959 26.9032C96.3082 26.8157 90.3428 20.3364 90.3428 18.4977C90.3428 18.3226 90.3428 18.235 90.4305 18.1475C90.5183 18.0599 91.3955 17.5345 91.9219 17.5345C92.0973 17.5345 92.1851 17.6221 92.3605 17.7097C92.536 17.8848 92.536 18.0599 92.536 18.4101C92.536 18.4977 92.536 18.5852 92.536 18.5852C92.536 19.4608 93.0623 20.5991 93.9396 21.4746C95.1677 22.7004 98.3259 23.4009 99.9049 21.7373C100.256 21.3871 100.519 20.5991 100.519 19.811C100.519 19.1981 100.344 18.7604 100.168 18.4977C99.9049 18.235 98.6768 17.8848 97.6241 17.5345C96.4836 17.1843 95.4309 16.8341 95.1677 16.5714C94.3782 15.7834 94.4659 15.0829 94.5537 13.682V13.5945C94.5537 12.894 94.3782 12.5438 93.9396 12.106C93.7641 11.9309 93.5887 11.8433 93.3255 11.7557C93.15 11.7557 92.9746 11.7557 92.7992 11.9309C92.6237 12.106 92.536 12.4562 92.4482 12.894C92.3605 13.4193 92.1851 14.0322 91.8342 14.47C91.6587 14.6451 91.4833 14.8203 91.3078 15.0829C91.0446 15.3456 90.8692 15.6083 90.606 15.871C90.1674 16.3963 89.5533 16.9216 89.0269 16.9216C88.7638 16.9216 88.5883 16.8341 88.4129 16.659C86.4829 14.6451 84.7284 6.0645 84.2897 3.52533C83.9388 1.59906 83.7634 1.42395 83.5879 1.24884C83.3248 0.986163 83.0616 0.986162 82.7984 1.33639C82.7984 1.33639 82.7984 1.51151 82.7984 1.86174C82.7984 4.40091 83.6757 13.0691 86.3952 18.8479C86.5706 19.1981 86.6583 19.4608 86.6583 19.7235C86.6583 20.0737 86.4829 20.3364 86.3952 20.5115C86.3952 20.5991 86.3074 20.6866 86.3074 20.6866C84.202 24.2765 82.9739 29.9677 82.9739 33.2949C82.9739 34.3456 83.0616 35.2212 83.3248 35.659C83.237 35.659 83.1493 35.659 83.0616 35.659C82.7984 35.0461 82.7984 34.0829 82.7984 33.3825C82.7984 29.9677 84.0266 24.2765 86.132 20.5991C86.132 20.5115 86.2197 20.4239 86.2197 20.4239C86.3952 20.1613 86.4829 19.9862 86.4829 19.7235C86.4829 19.5484 86.3952 19.2857 86.3074 18.9355C83.5879 13.0691 82.7107 4.31335 82.7107 1.77418C82.623 1.42395 82.7107 1.42395 82.7107 1.33639ZM107.8 43.8894C107.713 44.0645 107.537 44.1521 107.362 44.1521C107.274 44.1521 107.186 44.1521 107.098 44.0645C107.011 43.9769 107.011 43.6267 106.923 42.4009C106.835 41.1751 106.748 39.2488 106.397 38.8986C106.133 38.6359 105.783 38.6359 105.607 38.811C105.344 39.0737 105.256 39.5115 105.344 40.2995C105.344 40.2995 105.344 40.3871 105.344 40.4746C105.344 40.9124 105.256 41.9631 105.168 43.1889C105.081 43.1014 104.993 43.1014 104.993 43.0138C105.081 41.788 105.168 40.8249 105.168 40.3871C105.168 40.2995 105.168 40.2995 105.168 40.2995C105.168 40.0369 105.168 39.8617 105.168 39.7742C105.168 39.2488 105.256 38.8986 105.519 38.6359C105.695 38.4608 105.87 38.3733 106.046 38.4608C106.309 38.4608 106.484 38.5484 106.66 38.7235C107.011 39.0737 107.098 40.4746 107.186 42.4009C107.186 43.1014 107.274 43.8018 107.362 43.8894H107.449C107.537 43.8894 107.625 43.8018 107.713 43.7143C108.502 42.8387 109.028 41.0875 109.028 39.1613C109.028 37.5852 108.678 34.5207 106.221 31.894C103.151 28.6544 99.0277 29.0046 98.6768 29.0922C98.589 29.1797 98.589 29.2673 98.589 29.4424C98.589 29.7051 98.6768 30.0553 99.0277 30.6682C101.133 33.9954 102.537 37.7604 103.239 41.7004C103.151 41.6129 103.063 41.6129 102.975 41.5253C102.361 37.6728 100.958 33.9954 98.8522 30.7557C98.3259 29.8802 98.2381 29.1797 98.5013 28.8295C98.5891 28.7419 99.554 28.7419 99.554 28.7419C100.782 28.7419 103.94 29.0046 106.397 31.6313C108.853 34.2581 109.292 37.4101 109.292 38.9862C109.204 41.1751 108.59 43.0138 107.8 43.8894ZM105.607 122.779C105.783 122.954 106.133 122.954 106.397 122.691C106.66 122.429 106.835 120.502 106.923 119.189C107.011 117.963 107.011 117.613 107.098 117.525C107.186 117.438 107.274 117.438 107.362 117.438C107.537 117.438 107.625 117.525 107.8 117.7C108.678 118.576 109.204 120.415 109.204 122.429C109.204 124.092 108.853 127.157 106.309 129.783C103.853 132.41 100.694 132.673 99.4663 132.673C99.4663 132.673 98.589 132.673 98.4136 132.585C98.0627 132.235 98.1504 131.447 98.7645 130.659C100.782 127.507 102.186 123.917 102.8 120.064C102.888 119.977 102.975 119.977 103.063 119.889C102.449 123.829 101.045 127.507 98.94 130.747C98.5891 131.359 98.5013 131.797 98.5013 131.972C98.5013 132.147 98.589 132.323 98.589 132.323C98.9399 132.498 103.063 132.848 106.133 129.521C108.59 126.982 108.941 123.917 108.941 122.253C108.941 120.327 108.414 118.576 107.625 117.7C107.537 117.613 107.449 117.525 107.362 117.525C107.274 117.525 107.274 117.525 107.274 117.525C107.186 117.613 107.186 118.401 107.098 119.014C107.011 120.853 106.835 122.341 106.572 122.691C106.397 122.866 106.221 122.954 105.958 122.954C105.783 122.954 105.519 122.866 105.432 122.779C105.168 122.516 105.081 122.166 105.081 121.641C105.081 121.465 105.081 121.29 105.081 121.115V121.028C105.081 120.677 104.993 119.714 104.993 118.576C105.081 118.488 105.168 118.488 105.168 118.401C105.256 119.627 105.344 120.59 105.344 121.028C105.344 121.115 105.344 121.203 105.344 121.203C105.256 122.078 105.344 122.516 105.607 122.779ZM55.3403 117.7C55.428 117.525 55.6034 117.438 55.7789 117.438C55.8666 117.438 55.9543 117.438 56.0421 117.525C56.1298 117.613 56.1298 117.963 56.2175 119.189C56.3052 120.415 56.393 122.341 56.7439 122.691C57.007 122.954 57.3579 122.954 57.5334 122.779C57.7966 122.516 57.8843 122.078 57.7966 121.29C57.7966 121.29 57.7966 121.203 57.7966 121.115C57.7966 120.765 57.8843 119.889 57.8843 118.751C57.972 118.839 58.0597 118.839 58.0597 118.926C57.972 119.977 57.972 120.765 57.972 121.115C57.972 121.203 57.972 121.203 57.972 121.203C57.972 121.378 57.972 121.641 57.972 121.728C57.972 122.253 57.8843 122.604 57.6211 122.866C57.4457 123.041 57.2702 123.129 57.0948 123.041C56.8316 123.041 56.6561 122.954 56.4807 122.779C56.1298 122.429 56.0421 121.028 55.9543 119.101C55.9543 118.401 55.8666 117.7 55.7789 117.613H55.6912C55.6034 117.613 55.5157 117.7 55.428 117.788C54.6384 118.664 54.1121 120.415 54.1121 122.341C54.1121 123.917 54.463 126.982 56.9193 129.608C59.9897 132.848 64.1128 132.498 64.4637 132.41C64.5515 132.323 64.5515 132.235 64.5515 132.06C64.5515 131.797 64.4637 131.447 64.1128 130.834C62.0951 127.682 60.6915 124.005 59.9897 120.24C60.0774 120.327 60.1652 120.327 60.2529 120.415C60.9547 124.18 62.2706 127.682 64.2883 130.747C64.8146 131.622 64.9024 132.323 64.6392 132.673C64.5515 132.76 63.5865 132.76 63.5865 132.76C62.3583 132.76 59.2002 132.498 56.7439 129.871C54.2875 127.244 53.8489 124.092 53.8489 122.516C53.9366 120.415 54.5507 118.576 55.3403 117.7ZM57.5334 38.811C57.3579 38.6359 57.007 38.6359 56.7439 38.8986C56.4807 39.1613 56.3052 41.0875 56.2175 42.4009C56.1298 43.6267 56.1298 43.9769 56.0421 44.0645C55.9543 44.1521 55.8666 44.1521 55.7789 44.1521C55.6034 44.1521 55.5157 44.0645 55.3403 43.8894C54.463 43.0138 53.9366 41.1751 53.9366 39.1613C53.9366 37.4977 54.2875 34.4332 56.8316 31.8064C59.2879 29.1797 62.446 28.917 63.6742 28.917C63.6742 28.917 64.5515 28.917 64.7269 29.0046C65.0778 29.3548 64.9901 30.1428 64.376 30.9309C62.3583 34.0829 60.9547 37.6728 60.3406 41.4378C60.2529 41.5253 60.1652 41.5253 60.0774 41.6129C60.6915 37.7604 62.0951 34.0829 64.2006 30.8433C64.5515 30.2304 64.6392 29.7926 64.6392 29.6175C64.6392 29.4424 64.5515 29.2673 64.5515 29.2673C64.2006 29.0922 60.0774 28.7419 57.007 32.0691C54.5507 34.6083 54.1998 37.6728 54.1998 39.3364C54.1998 41.2627 54.7262 43.0138 55.5157 43.8894C55.6034 43.9769 55.6912 44.0645 55.7789 44.0645C55.8666 44.0645 55.8666 44.0645 55.8666 44.0645C55.9543 43.9769 55.9543 43.1889 56.0421 42.576C56.1298 40.7373 56.3052 39.2488 56.5684 38.8986C56.7439 38.7235 56.9193 38.6359 57.1825 38.6359C57.3579 38.6359 57.6211 38.7235 57.7088 38.811C57.972 39.0737 58.0597 39.424 58.0597 39.9493C58.0597 40.1244 58.0597 40.2995 58.0597 40.4746V40.5622C58.0597 40.9124 58.1475 41.2627 58.1475 42.4009C58.0597 42.4885 57.972 42.4885 57.972 42.576C57.8843 41.4378 57.8843 41 57.8843 40.5622C57.8843 40.4746 57.8843 40.3871 57.8843 40.3871C57.8843 39.5115 57.7966 39.0737 57.5334 38.811ZM89.0269 130.396C87.7111 128.995 87.0093 126.982 86.8338 125.406C86.9215 125.406 87.0093 125.406 87.097 125.406C87.2724 126.894 87.9742 128.908 89.2024 130.309C89.641 130.747 90.4305 131.359 91.3078 131.622C92.0096 131.797 92.9746 131.885 93.6764 131.097C95.2555 129.433 96.4836 126.281 97.0977 122.866C97.1854 122.866 97.2732 122.779 97.3609 122.779C96.7468 126.369 95.5186 129.521 93.8519 131.272C93.1501 131.972 92.2728 132.147 91.2201 131.885C90.2551 131.447 89.4656 130.834 89.0269 130.396ZM108.765 115.862C110.257 117.7 111.134 119.977 111.134 122.429C111.134 125.581 109.818 128.733 107.537 131.184C104.028 134.949 98.6768 134.687 97.7118 134.424C97.1854 134.249 96.7468 134.336 96.3959 134.687C95.4309 135.737 90.3428 141.429 90.3428 142.917C90.3428 143.005 90.3428 143.092 90.4305 143.092C90.5183 143.18 91.7464 143.88 92.0096 143.618C92.0973 143.53 92.1851 143.355 92.1851 143.005C92.0973 142.041 92.7114 140.728 93.5887 139.765C94.9046 138.364 98.2381 137.751 99.8172 139.502C100.168 139.94 100.431 140.728 100.431 141.604C100.431 142.304 100.256 142.829 99.9927 143.092C99.7295 143.442 98.589 143.793 97.3609 144.143C96.3959 144.406 95.2555 144.756 94.9923 145.018C94.5537 145.456 94.4659 145.894 94.4659 146.594C94.4659 146.857 94.4659 147.295 94.5537 147.645V147.733C94.6414 148.608 94.2905 149.046 93.9396 149.484C93.7641 149.659 93.501 149.834 93.2378 149.834C92.9746 149.834 92.7114 149.747 92.536 149.571C92.3605 149.396 92.2728 148.959 92.1851 148.521C92.0973 147.995 91.9219 147.382 91.6587 147.032C91.4833 146.857 91.3078 146.682 91.1324 146.419C90.8692 146.157 90.6937 145.894 90.4305 145.631C89.9919 145.194 89.4656 144.668 89.0269 144.668C88.8515 144.668 88.7638 144.756 88.5883 144.843C86.7461 146.857 84.9916 155.35 84.4652 157.889C84.1143 159.903 83.9388 160.078 83.7634 160.253C83.4125 160.604 82.9739 160.604 82.623 160.166C82.623 160.166 82.5352 160.078 82.5352 159.465C82.5352 156.926 83.4125 148.171 86.132 142.304C86.3074 142.041 86.3074 141.779 86.3074 141.516C86.3074 141.253 86.2197 141.078 86.0443 140.816C86.0443 140.728 85.9565 140.641 85.9565 140.641C83.8511 137.051 82.623 131.272 82.623 127.857C82.623 127.157 82.7107 126.106 82.9739 125.493C83.0616 125.493 83.1493 125.493 83.237 125.493C83.0616 125.931 82.8861 126.982 82.8861 127.857C82.8861 131.272 84.1143 136.876 86.2197 140.465C86.2197 140.553 86.3074 140.641 86.3074 140.641C86.4829 140.903 86.5706 141.078 86.5706 141.429C86.5706 141.691 86.4829 141.954 86.3074 142.304C83.5879 148.171 82.7107 156.839 82.7107 159.29C82.7107 159.728 82.7107 159.816 82.7107 159.816C82.9739 160.078 83.237 160.078 83.5002 159.903C83.5879 159.816 83.7634 159.553 84.202 157.627C84.7284 155.088 86.3952 146.507 88.3251 144.493C88.5006 144.318 88.676 144.23 88.9392 144.23C89.4656 144.23 89.9919 144.756 90.5183 145.281C90.7815 145.544 90.9569 145.806 91.2201 146.069C91.3955 146.332 91.571 146.507 91.7464 146.682C92.0973 147.12 92.1851 147.733 92.3605 148.258C92.4482 148.696 92.536 149.046 92.7114 149.221C92.7991 149.396 93.0623 149.396 93.2378 149.396C93.4132 149.396 93.6764 149.221 93.8519 149.046C94.2905 148.608 94.4659 148.258 94.4659 147.558V147.47C94.3782 146.069 94.2905 145.456 95.08 144.581C95.3432 144.318 96.3959 143.968 97.5363 143.618C98.589 143.267 99.8172 142.917 100.08 142.654C100.344 142.392 100.431 141.954 100.431 141.341C100.431 140.553 100.168 139.765 99.8172 139.415C98.3259 137.751 95.08 138.452 93.8519 139.677C93.0623 140.553 92.4482 141.691 92.4482 142.567C92.4482 142.654 92.4482 142.654 92.4482 142.742C92.4482 143.092 92.3605 143.355 92.2728 143.442C92.1851 143.53 92.0096 143.618 91.8342 143.618C91.2201 143.618 90.4306 143.092 90.3428 143.005C90.2551 142.917 90.2551 142.829 90.2551 142.654C90.2551 140.903 96.3082 134.336 96.3082 134.249C96.6591 133.899 97.1854 133.723 97.7995 133.899C98.6768 134.074 103.94 134.336 107.362 130.659C109.555 128.295 110.871 125.23 110.871 122.078C110.871 119.627 110.081 117.438 108.59 115.687C108.678 115.949 108.678 115.862 108.765 115.862ZM85.3425 127.069C85.4302 127.157 87.097 130.922 87.7111 131.535C88.5883 132.41 89.3778 132.76 90.6937 133.286L90.7815 133.373C90.9569 133.461 91.1324 133.548 91.2201 133.723C91.2201 133.723 91.2201 133.723 91.2201 133.811C91.2201 134.687 87.8865 139.064 87.7111 139.24C87.6233 139.327 87.5356 139.415 87.4479 139.415C87.3601 139.415 87.2724 139.327 87.1847 139.24C85.7811 137.751 84.8161 132.147 84.8161 129.171C84.8161 127.682 84.9916 127.332 85.0793 127.244C85.2547 126.982 85.2547 126.982 85.3425 127.069ZM84.6407 129.083C84.6407 132.147 85.6056 137.839 87.0092 139.327C87.1847 139.502 87.2724 139.59 87.4479 139.59C87.6233 139.59 87.7988 139.502 87.8865 139.327C87.8865 139.327 91.3955 134.862 91.3955 133.723C91.3955 133.636 91.3955 133.548 91.3078 133.461C91.2201 133.286 91.0446 133.198 90.8692 133.111L90.7815 133.023C89.3778 132.498 88.676 132.147 87.8865 131.272C87.3601 130.747 85.6056 126.894 85.5179 126.806C85.3425 126.544 85.167 126.544 84.9916 126.806C84.7284 127.157 84.6407 127.857 84.6407 129.083Z" fill="#C5AA79"/>
<path d="M80.4298 160.253C80.0789 160.604 79.6403 160.691 79.2894 160.341C79.1139 160.166 78.9385 159.991 78.5876 157.977C78.1489 155.438 76.3944 146.945 74.4645 144.931C74.3767 144.756 74.2013 144.756 74.0258 144.756C73.5872 144.756 73.0609 145.281 72.6222 145.719C72.359 145.982 72.1836 146.244 71.9204 146.507C71.745 146.77 71.5695 146.945 71.3941 147.12C71.1309 147.47 70.9554 148.083 70.8677 148.608C70.78 149.046 70.6923 149.484 70.5168 149.659C70.3414 149.834 70.0782 149.922 69.815 149.922C69.5518 149.922 69.2886 149.747 69.1132 149.571C68.7623 149.134 68.4114 148.783 68.4991 147.82V147.733C68.4991 147.295 68.5868 146.945 68.5868 146.682C68.5868 145.894 68.4114 145.544 68.0605 145.106C67.7973 144.843 66.7446 144.493 65.6919 144.23C64.4637 143.88 63.411 143.53 63.0601 143.18C62.7969 142.829 62.6215 142.304 62.6215 141.691C62.6215 140.816 62.8847 140.028 63.2356 139.59C64.9024 137.839 68.2359 138.539 69.4641 139.853C70.4291 140.816 70.9554 142.129 70.8677 143.092C70.8677 143.355 70.9554 143.53 71.0432 143.705C71.3063 143.968 72.5345 143.355 72.6222 143.18C72.6222 143.092 72.7099 143.092 72.7099 143.005C72.7099 141.516 67.7096 135.825 66.6569 134.774C66.3937 134.424 65.9551 134.336 65.341 134.512C64.4637 134.687 59.0247 134.949 55.5157 131.272C53.2348 128.908 51.9189 125.668 51.9189 122.516C51.9189 120.065 52.7085 118.401 54.1121 116.65C54.1998 116.737 54.1998 116.737 54.2875 116.825C52.8839 118.576 52.1821 120.152 52.1821 122.516C52.1821 125.581 53.4103 128.733 55.6912 131.097C59.1125 134.774 64.376 134.512 65.2533 134.336C65.8673 134.161 66.3937 134.249 66.7446 134.687C66.8323 134.774 72.7977 141.253 72.7977 143.092C72.7977 143.267 72.7977 143.355 72.7099 143.442C72.6222 143.53 71.745 144.055 71.2186 144.055C71.0432 144.055 70.9554 143.968 70.8677 143.88C70.6923 143.705 70.6923 143.53 70.6923 143.18C70.6923 143.092 70.6923 143.005 70.6923 143.005C70.6923 142.129 70.1659 140.991 69.2886 140.115C68.0605 138.889 64.9024 138.189 63.3233 139.853C62.9724 140.203 62.7092 140.991 62.7092 141.779C62.7092 142.392 62.8847 142.829 63.0601 143.092C63.3233 143.355 64.5515 143.705 65.6042 144.055C66.7446 144.406 67.7973 144.756 68.0605 145.018C68.85 145.806 68.7623 146.507 68.6746 147.908V147.995C68.6746 148.696 68.85 149.046 69.2886 149.484C69.4641 149.659 69.6395 149.747 69.9027 149.834C70.0782 149.834 70.2536 149.834 70.4291 149.659C70.6045 149.484 70.6923 149.134 70.78 148.696C70.8677 148.17 71.0432 147.558 71.3941 147.12C71.5695 146.945 71.745 146.77 71.9204 146.507C72.1836 146.244 72.359 145.982 72.6222 145.719C73.0609 145.194 73.6749 144.668 74.2013 144.668C74.4645 144.668 74.6399 144.756 74.8154 144.931C76.7453 146.945 78.4999 155.525 78.9385 158.065C79.2894 159.991 79.4648 160.166 79.6403 160.341C79.9035 160.604 80.1666 160.604 80.4298 160.253ZM80.4298 160.253C80.4298 160.253 80.4298 160.078 80.4298 159.728C80.4298 157.189 79.5526 148.521 76.8331 142.742C76.6576 142.392 76.5699 142.129 76.5699 141.866C76.5699 141.516 76.7453 141.253 76.8331 141.078C76.8331 140.991 76.9208 140.903 76.9208 140.903C79.0262 137.313 80.2544 131.622 80.2544 128.295C80.2544 127.419 80.1666 126.456 79.9912 126.018C80.0789 126.018 80.1666 126.018 80.2544 126.018C80.4298 126.631 80.5175 127.682 80.5175 128.295C80.5175 131.71 79.2894 137.401 77.184 141.078C77.184 141.166 77.0962 141.253 77.0962 141.253C76.9208 141.516 76.8331 141.691 76.8331 141.954C76.8331 142.129 76.9208 142.392 77.0085 142.742C79.728 148.608 80.6053 157.364 80.6053 159.903C80.5175 160.166 80.4298 160.166 80.4298 160.253ZM76.3067 125.406C76.0435 126.982 75.5172 128.908 74.2013 130.309C73.7627 130.747 72.9731 131.359 72.0081 131.71C70.9554 132.06 70.0782 131.797 69.3764 131.097C67.7096 129.346 66.4814 126.456 65.9551 122.954C66.0428 122.954 66.1305 123.041 66.2182 123.041C66.8323 126.456 67.9728 129.258 69.5518 130.922C70.3414 131.71 71.3063 131.622 71.9204 131.447C72.7977 131.184 73.5872 130.571 74.0258 130.134C75.3417 128.733 75.8681 126.894 76.1313 125.318C76.1313 125.406 76.219 125.406 76.3067 125.406ZM77.798 127.069C77.8858 126.982 77.8858 126.982 77.9735 127.069C78.0612 127.157 78.2367 127.594 78.2367 128.995C78.2367 132.06 77.2717 137.576 75.8681 139.065C75.7804 139.152 75.6926 139.24 75.6049 139.24C75.5172 139.24 75.4294 139.152 75.3417 139.065C75.1663 138.889 71.8327 134.599 71.8327 133.636V133.548C71.9204 133.461 72.0959 133.373 72.2713 133.198L72.359 133.111C73.6749 132.585 74.5522 132.235 75.3417 131.359C75.9558 130.922 77.7103 127.244 77.798 127.069ZM72.2713 133.198C72.0959 133.286 71.9204 133.373 71.8327 133.548C71.745 133.636 71.745 133.723 71.745 133.811C71.745 134.862 75.254 139.327 75.254 139.415C75.4295 139.59 75.5172 139.677 75.6926 139.677C75.8681 139.677 76.0435 139.59 76.1313 139.415C77.5349 137.926 78.4999 132.235 78.4999 129.17C78.4999 128.032 78.4121 127.332 78.1489 127.069C77.9735 126.894 77.798 126.894 77.6226 127.069C77.6226 127.069 75.7804 130.922 75.254 131.535C74.4645 132.41 73.6749 132.76 72.359 133.286L72.2713 133.198ZM77.798 34.5207C77.7103 34.4332 76.0435 30.6682 75.4294 30.0553C74.5522 29.1797 73.7627 28.8295 72.4468 28.3041L72.359 28.2166C72.1836 28.129 72.0081 28.0415 71.9204 27.8663C71.9204 27.8663 71.9204 27.8663 71.9204 27.7788C71.9204 26.9032 75.254 22.5253 75.4294 22.3502C75.5172 22.2627 75.6049 22.1751 75.6926 22.1751C75.7804 22.1751 75.8681 22.2627 75.9558 22.3502C77.3594 23.8387 78.3244 29.4424 78.3244 32.4193C78.3244 33.9078 78.1489 34.258 78.0612 34.3456C77.8858 34.6083 77.8858 34.6083 77.798 34.5207ZM78.4999 32.5069C78.4999 29.4424 77.5349 23.7511 76.1313 22.2627C75.9558 22.0875 75.8681 22 75.6926 22C75.5172 22 75.3417 22.0875 75.254 22.2627C75.254 22.2627 71.745 26.7281 71.745 27.8663C71.745 27.9539 71.745 28.0415 71.8327 28.129C71.9204 28.3041 72.0959 28.3917 72.2713 28.4792L72.359 28.5668C73.7627 29.0922 74.4645 29.4424 75.254 30.318C75.7804 30.8433 77.5349 34.6958 77.6226 34.7834C77.798 35.0461 77.9735 35.0461 78.1489 34.7834C78.4121 34.4332 78.4999 33.7327 78.4999 32.5069ZM74.1136 31.1935C75.5172 32.682 76.0435 34.5207 76.3067 36.0968C76.219 36.0968 76.1313 36.0968 76.0435 36.0968C75.8681 34.5207 75.254 32.682 73.9381 31.2811C73.4995 30.8433 72.7099 30.2304 71.8327 29.9677C71.1309 29.7926 70.1659 29.7051 69.4641 30.4931C67.885 32.1567 66.6569 35.0461 66.0428 38.5484C65.9551 38.5484 65.8673 38.6359 65.7796 38.6359C66.3937 35.0461 67.6219 32.0691 69.2886 30.318C69.9027 29.6175 70.8677 29.4424 71.9204 29.7051C72.8854 30.1428 73.6749 30.7557 74.1136 31.1935ZM86.7461 36.2719C86.9215 34.6958 87.6233 32.682 88.9392 31.1935C89.3778 30.7557 90.1674 30.1428 91.1324 29.7926C92.1851 29.4424 93.0623 29.7051 93.7641 30.4055C95.4309 32.2442 96.6591 35.2212 97.2732 38.8986C97.1854 38.8986 97.0977 38.811 97.01 38.811C96.3959 35.3087 95.2555 32.3318 93.5887 30.5806C92.7991 29.7926 91.8342 29.8802 91.2201 30.0553C90.3428 30.318 89.5533 30.9309 89.1147 31.3686C87.7988 32.7696 87.1847 34.6958 87.0092 36.2719C87.0092 36.2719 86.8338 36.2719 86.7461 36.2719ZM85.3425 34.5207C85.2547 34.6083 85.2547 34.6083 85.167 34.5207C85.0793 34.4332 84.9038 33.9954 84.9038 32.5945C84.9038 29.5299 85.8688 24.0138 87.2724 22.5253C87.3602 22.4378 87.4479 22.3502 87.5356 22.3502C87.6233 22.3502 87.711 22.4378 87.7988 22.5253C87.9742 22.7004 91.3078 26.9908 91.3078 27.9539V28.0415C91.2201 28.129 91.0446 28.2166 90.8692 28.3917L90.7815 28.4792C89.4656 29.0046 88.5883 29.3548 87.7988 30.2304C87.1847 30.6682 85.4302 34.4332 85.3425 34.5207ZM90.8692 28.3917C91.0446 28.3041 91.2201 28.2166 91.3078 28.0415C91.3955 27.9539 91.3955 27.8663 91.3955 27.7788C91.3955 26.7281 87.8865 22.2627 87.8865 22.1751C87.7111 22 87.6233 21.9124 87.4479 21.9124C87.2724 21.9124 87.097 22 87.0092 22.1751C85.6056 23.6636 84.6407 29.3548 84.6407 32.4193C84.6407 33.5576 84.7284 34.2581 84.9916 34.5207C85.167 34.6958 85.3425 34.6958 85.5179 34.5207C85.5179 34.5207 87.3601 30.6682 87.8865 30.0553C88.676 29.1797 89.4656 28.8295 90.7815 28.3041L90.8692 28.3917ZM54.2875 45.1152C52.7962 43.2765 52.0067 41.6129 52.0067 39.1613C52.0067 36.0092 53.3226 32.8571 55.6034 30.4055C59.1125 26.6405 64.4637 26.9032 65.4287 27.1659C65.9551 27.341 66.3937 27.2534 66.7446 26.9032C67.7096 25.8525 72.7977 20.1613 72.7977 18.6728C72.7977 18.5852 72.7977 18.4977 72.7099 18.4977C72.6222 18.4101 71.3941 17.7097 71.1309 17.9723C71.0432 18.0599 70.9554 18.235 70.9554 18.5852C71.0432 19.5484 70.4291 20.8617 69.5518 21.8249C68.2359 23.2258 64.9024 23.8387 63.3233 22.0875C62.9724 21.6498 62.7092 20.8617 62.7092 19.9862C62.7092 19.2857 62.8847 18.7604 63.1478 18.4977C63.411 18.1475 64.5515 17.7972 65.7796 17.447C66.7446 17.1843 67.885 16.8341 68.1482 16.5714C68.5868 16.1336 68.6746 15.6958 68.6746 14.9954C68.6746 14.7327 68.6746 14.2949 68.5868 13.9447V13.8571C68.4991 12.9816 68.85 12.5438 69.2009 12.106C69.3764 11.9309 69.6395 11.7557 69.9027 11.7557C70.1659 11.7557 70.4291 11.8433 70.6045 12.0184C70.78 12.1935 70.8677 12.6313 70.9554 13.0691C71.0432 13.5945 71.2186 14.2074 71.4818 14.5576C71.6572 14.7327 71.8327 14.9078 72.0081 15.1705C72.2713 15.4332 72.4468 15.6958 72.7099 15.9585C73.1486 16.3963 73.6749 16.9216 74.1136 16.9216C74.289 16.9216 74.3767 16.8341 74.5522 16.7465C76.3944 14.7327 78.1489 6.23962 78.6753 3.70045C79.0262 1.68662 79.2017 1.51151 79.3771 1.33639C79.728 0.986162 80.1666 0.986162 80.5175 1.42395C80.5175 1.42395 80.6053 1.51151 80.6053 2.12441C80.6053 4.66358 79.728 13.4193 77.0085 19.2857C76.8331 19.5484 76.8331 19.811 76.8331 20.0737C76.8331 20.3364 76.9208 20.5115 77.0962 20.7742C77.184 20.8617 77.184 20.9493 77.184 20.9493C79.2894 24.6267 80.5175 30.318 80.5175 33.7327C80.5175 34.4332 80.4298 35.4839 80.2544 36.0092C80.1666 36.0092 80.0789 36.0092 79.9912 36.0092C80.1666 35.5714 80.3421 34.6958 80.3421 33.7327C80.3421 30.318 79.1139 24.7143 77.0085 21.1244C77.0085 21.0369 76.9208 20.9493 76.9208 20.9493C76.7453 20.6866 76.6576 20.5115 76.6576 20.1613C76.6576 19.8986 76.7453 19.6359 76.9208 19.2857C79.6403 13.4193 80.5175 4.75114 80.5175 2.29953C80.5175 1.86174 80.5175 1.77418 80.5175 1.77418C80.2544 1.51151 79.9912 1.42395 79.728 1.68662C79.6403 1.77418 79.4648 2.03685 79.0262 3.96312C78.4998 6.50229 76.8331 15.0829 74.9031 17.0968C74.7276 17.2719 74.5522 17.3594 74.289 17.3594C73.7627 17.3594 73.2363 16.8341 72.7099 16.3087C72.4468 16.0461 72.2713 15.7834 72.0081 15.5207C71.8327 15.2581 71.6572 15.0829 71.4818 14.9078C71.1309 14.47 71.0432 13.8571 70.8677 13.3318C70.78 12.894 70.6923 12.5438 70.5168 12.3687C70.4291 12.1935 70.1659 12.1935 69.9904 12.1935C69.815 12.1935 69.5518 12.3686 69.3764 12.5438C68.9377 12.9816 68.7623 13.3318 68.7623 14.0322V14.1198C68.85 15.5207 68.9377 16.1336 68.1482 17.0092C67.885 17.2719 66.8323 17.6221 65.6919 17.9723C64.6392 18.3226 63.411 18.6728 63.1478 18.9355C62.8847 19.1981 62.7969 19.6359 62.7969 20.2488C62.7969 21.0369 63.0601 21.8249 63.411 22.1751C64.9901 23.8387 68.1482 23.1382 69.3764 21.9124C70.1659 21.0369 70.78 19.8986 70.78 19.023C70.78 18.9355 70.78 18.9355 70.78 18.8479C70.78 18.4977 70.8677 18.235 70.9554 18.1475C71.0432 18.0599 71.2186 17.9723 71.3063 17.9723C71.9204 17.9723 72.71 18.4977 72.7977 18.5852C72.8854 18.6728 72.8854 18.7604 72.8854 18.9355C72.8854 20.7742 66.8323 27.2534 66.8323 27.341C66.4814 27.6912 65.9551 27.8663 65.341 27.6912C64.4637 27.5161 59.2002 27.2534 55.7789 30.9309C53.5857 33.2949 52.2698 36.3594 52.2698 39.5115C52.2698 41.8756 53.0594 43.5392 54.463 45.2903C54.3753 45.0276 54.3753 45.1152 54.2875 45.1152ZM82.7107 1.33639C83.0616 0.986162 83.5002 0.898606 83.8511 1.24884C84.0266 1.42395 84.202 1.59907 84.5529 3.61289C85.0793 6.15206 86.7461 14.6451 88.676 16.659C88.7638 16.8341 88.9392 16.8341 89.1147 16.8341C89.5533 16.8341 90.0796 16.3087 90.5183 15.871C90.7815 15.6083 90.9569 15.3456 91.2201 15.0829C91.3955 14.8203 91.571 14.6451 91.7464 14.47C92.0096 14.1198 92.1851 13.5069 92.2728 12.9816C92.3605 12.5438 92.4482 12.106 92.6237 11.9309C92.7991 11.7557 93.0623 11.6682 93.3255 11.6682C93.5887 11.6682 93.8519 11.8433 94.0273 12.0184C94.3782 12.4562 94.7291 12.8064 94.6414 13.7696V13.8571C94.6414 14.2949 94.5537 14.6451 94.5537 14.9078C94.5537 15.6958 94.7291 16.0461 95.08 16.4839C95.3432 16.7465 96.3959 17.0968 97.4486 17.3594C98.6768 17.7097 99.7295 18.0599 100.08 18.4101C100.344 18.7604 100.519 19.2857 100.519 19.8986C100.519 20.7742 100.256 21.5622 99.9049 22C98.2381 23.7511 94.9046 23.0507 93.6764 21.7373C92.7114 20.7742 92.1851 19.4608 92.2728 18.4977C92.2728 18.235 92.1851 18.0599 92.0973 17.8848C91.8342 17.6221 90.606 18.235 90.5183 18.4101C90.5183 18.4977 90.4305 18.4977 90.4305 18.5852C90.4305 20.0737 95.4309 25.765 96.4836 26.8157C96.7468 27.1659 97.1854 27.2534 97.7995 27.0783C98.6768 26.9032 104.116 26.6405 107.625 30.318C109.906 32.682 111.222 35.9216 111.222 39.0737C111.222 41.6129 110.344 43.8894 108.765 45.7281C108.678 45.6405 108.678 45.6405 108.59 45.553C110.169 43.8018 110.958 41.5253 110.958 39.0737C110.958 36.0092 109.642 32.8571 107.449 30.4931C104.028 26.8157 98.7645 27.0783 97.8872 27.2534C97.2732 27.4286 96.7468 27.341 96.3959 26.9032C96.3082 26.8157 90.3428 20.3364 90.3428 18.4977C90.3428 18.3226 90.3428 18.235 90.4305 18.1475C90.5183 18.0599 91.3955 17.5345 91.9219 17.5345C92.0973 17.5345 92.1851 17.6221 92.3605 17.7097C92.536 17.8848 92.536 18.0599 92.536 18.4101C92.536 18.4977 92.536 18.5852 92.536 18.5852C92.536 19.4608 93.0623 20.5991 93.9396 21.4746C95.1677 22.7004 98.3259 23.4009 99.9049 21.7373C100.256 21.3871 100.519 20.5991 100.519 19.811C100.519 19.1981 100.344 18.7604 100.168 18.4977C99.9049 18.235 98.6768 17.8848 97.6241 17.5345C96.4836 17.1843 95.4309 16.8341 95.1677 16.5714C94.3782 15.7834 94.4659 15.0829 94.5537 13.682V13.5945C94.5537 12.894 94.3782 12.5438 93.9396 12.106C93.7641 11.9309 93.5887 11.8433 93.3255 11.7557C93.15 11.7557 92.9746 11.7557 92.7992 11.9309C92.6237 12.106 92.536 12.4562 92.4482 12.894C92.3605 13.4193 92.1851 14.0322 91.8342 14.47C91.6587 14.6451 91.4833 14.8203 91.3078 15.0829C91.0446 15.3456 90.8692 15.6083 90.606 15.871C90.1674 16.3963 89.5533 16.9216 89.0269 16.9216C88.7638 16.9216 88.5883 16.8341 88.4129 16.659C86.4829 14.6451 84.7284 6.0645 84.2897 3.52533C83.9388 1.59906 83.7634 1.42395 83.5879 1.24884C83.3248 0.986163 83.0616 0.986162 82.7984 1.33639C82.7984 1.33639 82.7984 1.51151 82.7984 1.86174C82.7984 4.40091 83.6757 13.0691 86.3952 18.8479C86.5706 19.1981 86.6583 19.4608 86.6583 19.7235C86.6583 20.0737 86.4829 20.3364 86.3952 20.5115C86.3952 20.5991 86.3074 20.6866 86.3074 20.6866C84.202 24.2765 82.9739 29.9677 82.9739 33.2949C82.9739 34.3456 83.0616 35.2212 83.3248 35.659C83.237 35.659 83.1493 35.659 83.0616 35.659C82.7984 35.0461 82.7984 34.0829 82.7984 33.3825C82.7984 29.9677 84.0266 24.2765 86.132 20.5991C86.132 20.5115 86.2197 20.4239 86.2197 20.4239C86.3952 20.1613 86.4829 19.9862 86.4829 19.7235C86.4829 19.5484 86.3952 19.2857 86.3074 18.9355C83.5879 13.0691 82.7107 4.31335 82.7107 1.77418C82.623 1.42395 82.7107 1.42395 82.7107 1.33639ZM107.8 43.8894C107.713 44.0645 107.537 44.1521 107.362 44.1521C107.274 44.1521 107.186 44.1521 107.098 44.0645C107.011 43.9769 107.011 43.6267 106.923 42.4009C106.835 41.1751 106.748 39.2488 106.397 38.8986C106.133 38.6359 105.783 38.6359 105.607 38.811C105.344 39.0737 105.256 39.5115 105.344 40.2995C105.344 40.2995 105.344 40.3871 105.344 40.4746C105.344 40.9124 105.256 41.9631 105.168 43.1889C105.081 43.1014 104.993 43.1014 104.993 43.0138C105.081 41.788 105.168 40.8249 105.168 40.3871C105.168 40.2995 105.168 40.2995 105.168 40.2995C105.168 40.0369 105.168 39.8617 105.168 39.7742C105.168 39.2488 105.256 38.8986 105.519 38.6359C105.695 38.4608 105.87 38.3733 106.046 38.4608C106.309 38.4608 106.484 38.5484 106.66 38.7235C107.011 39.0737 107.098 40.4746 107.186 42.4009C107.186 43.1014 107.274 43.8018 107.362 43.8894H107.449C107.537 43.8894 107.625 43.8018 107.713 43.7143C108.502 42.8387 109.028 41.0875 109.028 39.1613C109.028 37.5852 108.678 34.5207 106.221 31.894C103.151 28.6544 99.0277 29.0046 98.6768 29.0922C98.589 29.1797 98.589 29.2673 98.589 29.4424C98.589 29.7051 98.6768 30.0553 99.0277 30.6682C101.133 33.9954 102.537 37.7604 103.239 41.7004C103.151 41.6129 103.063 41.6129 102.975 41.5253C102.361 37.6728 100.958 33.9954 98.8522 30.7557C98.3259 29.8802 98.2381 29.1797 98.5013 28.8295C98.5891 28.7419 99.554 28.7419 99.554 28.7419C100.782 28.7419 103.94 29.0046 106.397 31.6313C108.853 34.2581 109.292 37.4101 109.292 38.9862C109.204 41.1751 108.59 43.0138 107.8 43.8894ZM105.607 122.779C105.783 122.954 106.133 122.954 106.397 122.691C106.66 122.429 106.835 120.502 106.923 119.189C107.011 117.963 107.011 117.613 107.098 117.525C107.186 117.438 107.274 117.438 107.362 117.438C107.537 117.438 107.625 117.525 107.8 117.7C108.678 118.576 109.204 120.415 109.204 122.429C109.204 124.092 108.853 127.157 106.309 129.783C103.853 132.41 100.694 132.673 99.4663 132.673C99.4663 132.673 98.589 132.673 98.4136 132.585C98.0627 132.235 98.1504 131.447 98.7645 130.659C100.782 127.507 102.186 123.917 102.8 120.064C102.888 119.977 102.975 119.977 103.063 119.889C102.449 123.829 101.045 127.507 98.94 130.747C98.5891 131.359 98.5013 131.797 98.5013 131.972C98.5013 132.147 98.589 132.323 98.589 132.323C98.9399 132.498 103.063 132.848 106.133 129.521C108.59 126.982 108.941 123.917 108.941 122.253C108.941 120.327 108.414 118.576 107.625 117.7C107.537 117.613 107.449 117.525 107.362 117.525C107.274 117.525 107.274 117.525 107.274 117.525C107.186 117.613 107.186 118.401 107.098 119.014C107.011 120.853 106.835 122.341 106.572 122.691C106.397 122.866 106.221 122.954 105.958 122.954C105.783 122.954 105.519 122.866 105.432 122.779C105.168 122.516 105.081 122.166 105.081 121.641C105.081 121.465 105.081 121.29 105.081 121.115V121.028C105.081 120.677 104.993 119.714 104.993 118.576C105.081 118.488 105.168 118.488 105.168 118.401C105.256 119.627 105.344 120.59 105.344 121.028C105.344 121.115 105.344 121.203 105.344 121.203C105.256 122.078 105.344 122.516 105.607 122.779ZM55.3403 117.7C55.428 117.525 55.6034 117.438 55.7789 117.438C55.8666 117.438 55.9543 117.438 56.0421 117.525C56.1298 117.613 56.1298 117.963 56.2175 119.189C56.3052 120.415 56.393 122.341 56.7439 122.691C57.007 122.954 57.3579 122.954 57.5334 122.779C57.7966 122.516 57.8843 122.078 57.7966 121.29C57.7966 121.29 57.7966 121.203 57.7966 121.115C57.7966 120.765 57.8843 119.889 57.8843 118.751C57.972 118.839 58.0597 118.839 58.0597 118.926C57.972 119.977 57.972 120.765 57.972 121.115C57.972 121.203 57.972 121.203 57.972 121.203C57.972 121.378 57.972 121.641 57.972 121.728C57.972 122.253 57.8843 122.604 57.6211 122.866C57.4457 123.041 57.2702 123.129 57.0948 123.041C56.8316 123.041 56.6561 122.954 56.4807 122.779C56.1298 122.429 56.0421 121.028 55.9543 119.101C55.9543 118.401 55.8666 117.7 55.7789 117.613H55.6912C55.6034 117.613 55.5157 117.7 55.428 117.788C54.6384 118.664 54.1121 120.415 54.1121 122.341C54.1121 123.917 54.463 126.982 56.9193 129.608C59.9897 132.848 64.1128 132.498 64.4637 132.41C64.5515 132.323 64.5515 132.235 64.5515 132.06C64.5515 131.797 64.4637 131.447 64.1128 130.834C62.0951 127.682 60.6915 124.005 59.9897 120.24C60.0774 120.327 60.1652 120.327 60.2529 120.415C60.9547 124.18 62.2706 127.682 64.2883 130.747C64.8146 131.622 64.9024 132.323 64.6392 132.673C64.5515 132.76 63.5865 132.76 63.5865 132.76C62.3583 132.76 59.2002 132.498 56.7439 129.871C54.2875 127.244 53.8489 124.092 53.8489 122.516C53.9366 120.415 54.5507 118.576 55.3403 117.7ZM57.5334 38.811C57.3579 38.6359 57.007 38.6359 56.7439 38.8986C56.4807 39.1613 56.3052 41.0875 56.2175 42.4009C56.1298 43.6267 56.1298 43.9769 56.0421 44.0645C55.9543 44.1521 55.8666 44.1521 55.7789 44.1521C55.6034 44.1521 55.5157 44.0645 55.3403 43.8894C54.463 43.0138 53.9366 41.1751 53.9366 39.1613C53.9366 37.4977 54.2875 34.4332 56.8316 31.8064C59.2879 29.1797 62.446 28.917 63.6742 28.917C63.6742 28.917 64.5515 28.917 64.7269 29.0046C65.0778 29.3548 64.9901 30.1428 64.376 30.9309C62.3583 34.0829 60.9547 37.6728 60.3406 41.4378C60.2529 41.5253 60.1652 41.5253 60.0774 41.6129C60.6915 37.7604 62.0951 34.0829 64.2006 30.8433C64.5515 30.2304 64.6392 29.7926 64.6392 29.6175C64.6392 29.4424 64.5515 29.2673 64.5515 29.2673C64.2006 29.0922 60.0774 28.7419 57.007 32.0691C54.5507 34.6083 54.1998 37.6728 54.1998 39.3364C54.1998 41.2627 54.7262 43.0138 55.5157 43.8894C55.6034 43.9769 55.6912 44.0645 55.7789 44.0645C55.8666 44.0645 55.8666 44.0645 55.8666 44.0645C55.9543 43.9769 55.9543 43.1889 56.0421 42.576C56.1298 40.7373 56.3052 39.2488 56.5684 38.8986C56.7439 38.7235 56.9193 38.6359 57.1825 38.6359C57.3579 38.6359 57.6211 38.7235 57.7088 38.811C57.972 39.0737 58.0597 39.4239 58.0597 39.9493C58.0597 40.1244 58.0597 40.2995 58.0597 40.4746V40.5622C58.0597 40.9124 58.1475 41.2627 58.1475 42.4009C58.0597 42.4885 57.972 42.4885 57.972 42.576C57.8843 41.4378 57.8843 41 57.8843 40.5622C57.8843 40.4746 57.8843 40.3871 57.8843 40.3871C57.8843 39.5115 57.7966 39.0737 57.5334 38.811ZM89.0269 130.396C87.7111 128.995 87.0092 126.982 86.8338 125.406C86.9215 125.406 87.0093 125.406 87.097 125.406C87.2724 126.894 87.9742 128.908 89.2024 130.309C89.641 130.747 90.4305 131.359 91.3078 131.622C92.0096 131.797 92.9746 131.885 93.6764 131.097C95.2555 129.433 96.4836 126.281 97.0977 122.866C97.1854 122.866 97.2732 122.779 97.3609 122.779C96.7468 126.369 95.5186 129.521 93.8519 131.272C93.1501 131.972 92.2728 132.147 91.2201 131.885C90.2551 131.447 89.4656 130.834 89.0269 130.396ZM108.765 115.862C110.257 117.7 111.134 119.977 111.134 122.429C111.134 125.581 109.818 128.733 107.537 131.184C104.028 134.949 98.6768 134.687 97.7118 134.424C97.1854 134.249 96.7468 134.336 96.3959 134.687C95.4309 135.737 90.3428 141.429 90.3428 142.917C90.3428 143.005 90.3428 143.092 90.4305 143.092C90.5183 143.18 91.7464 143.88 92.0096 143.618C92.0973 143.53 92.1851 143.355 92.1851 143.005C92.0973 142.041 92.7114 140.728 93.5887 139.765C94.9046 138.364 98.2381 137.751 99.8172 139.502C100.168 139.94 100.431 140.728 100.431 141.604C100.431 142.304 100.256 142.829 99.9927 143.092C99.7295 143.442 98.589 143.793 97.3609 144.143C96.3959 144.406 95.2555 144.756 94.9923 145.018C94.5537 145.456 94.4659 145.894 94.4659 146.594C94.4659 146.857 94.4659 147.295 94.5537 147.645V147.733C94.6414 148.608 94.2905 149.046 93.9396 149.484C93.7641 149.659 93.501 149.834 93.2378 149.834C92.9746 149.834 92.7114 149.747 92.536 149.571C92.3605 149.396 92.2728 148.959 92.1851 148.521C92.0973 147.995 91.9219 147.382 91.6587 147.032C91.4833 146.857 91.3078 146.682 91.1324 146.419C90.8692 146.157 90.6937 145.894 90.4305 145.631C89.9919 145.194 89.4656 144.668 89.0269 144.668C88.8515 144.668 88.7638 144.756 88.5883 144.843C86.7461 146.857 84.9916 155.35 84.4652 157.889C84.1143 159.903 83.9388 160.078 83.7634 160.253C83.4125 160.604 82.9739 160.604 82.623 160.166C82.623 160.166 82.5352 160.078 82.5352 159.465C82.5352 156.926 83.4125 148.17 86.132 142.304C86.3074 142.041 86.3074 141.779 86.3074 141.516C86.3074 141.253 86.2197 141.078 86.0443 140.816C86.0443 140.728 85.9565 140.641 85.9565 140.641C83.8511 137.051 82.623 131.272 82.623 127.857C82.623 127.157 82.7107 126.106 82.9739 125.493C83.0616 125.493 83.1493 125.493 83.237 125.493C83.0616 125.931 82.8861 126.982 82.8861 127.857C82.8861 131.272 84.1143 136.876 86.2197 140.465C86.2197 140.553 86.3074 140.641 86.3074 140.641C86.4829 140.903 86.5706 141.078 86.5706 141.429C86.5706 141.691 86.4829 141.954 86.3074 142.304C83.5879 148.17 82.7107 156.839 82.7107 159.29C82.7107 159.728 82.7107 159.816 82.7107 159.816C82.9739 160.078 83.237 160.078 83.5002 159.903C83.5879 159.816 83.7634 159.553 84.202 157.627C84.7284 155.088 86.3952 146.507 88.3251 144.493C88.5006 144.318 88.676 144.23 88.9392 144.23C89.4656 144.23 89.9919 144.756 90.5183 145.281C90.7815 145.544 90.9569 145.806 91.2201 146.069C91.3955 146.332 91.571 146.507 91.7464 146.682C92.0973 147.12 92.1851 147.733 92.3605 148.258C92.4482 148.696 92.536 149.046 92.7114 149.221C92.7991 149.396 93.0623 149.396 93.2378 149.396C93.4132 149.396 93.6764 149.221 93.8519 149.046C94.2905 148.608 94.4659 148.258 94.4659 147.558V147.47C94.3782 146.069 94.2905 145.456 95.08 144.581C95.3432 144.318 96.3959 143.968 97.5363 143.618C98.589 143.267 99.8172 142.917 100.08 142.654C100.344 142.392 100.431 141.954 100.431 141.341C100.431 140.553 100.168 139.765 99.8172 139.415C98.3259 137.751 95.08 138.452 93.8519 139.677C93.0623 140.553 92.4482 141.691 92.4482 142.567C92.4482 142.654 92.4482 142.654 92.4482 142.742C92.4482 143.092 92.3605 143.355 92.2728 143.442C92.1851 143.53 92.0096 143.618 91.8342 143.618C91.2201 143.618 90.4306 143.092 90.3428 143.005C90.2551 142.917 90.2551 142.829 90.2551 142.654C90.2551 140.903 96.3082 134.336 96.3082 134.249C96.6591 133.899 97.1854 133.723 97.7995 133.899C98.6768 134.074 103.94 134.336 107.362 130.659C109.555 128.295 110.871 125.23 110.871 122.078C110.871 119.627 110.081 117.438 108.59 115.687C108.678 115.949 108.678 115.862 108.765 115.862ZM85.3425 127.069C85.4302 127.157 87.097 130.922 87.7111 131.535C88.5883 132.41 89.3778 132.76 90.6937 133.286L90.7815 133.373C90.9569 133.461 91.1324 133.548 91.2201 133.723C91.2201 133.723 91.2201 133.723 91.2201 133.811C91.2201 134.687 87.8865 139.065 87.7111 139.24C87.6233 139.327 87.5356 139.415 87.4479 139.415C87.3601 139.415 87.2724 139.327 87.1847 139.24C85.7811 137.751 84.8161 132.147 84.8161 129.17C84.8161 127.682 84.9916 127.332 85.0793 127.244C85.2547 126.982 85.2547 126.982 85.3425 127.069ZM84.6407 129.083C84.6407 132.147 85.6056 137.839 87.0092 139.327C87.1847 139.502 87.2724 139.59 87.4479 139.59C87.6233 139.59 87.7988 139.502 87.8865 139.327C87.8865 139.327 91.3955 134.862 91.3955 133.723C91.3955 133.636 91.3955 133.548 91.3078 133.461C91.2201 133.286 91.0446 133.198 90.8692 133.111L90.7815 133.023C89.3778 132.498 88.676 132.147 87.8865 131.272C87.3601 130.747 85.6056 126.894 85.5179 126.806C85.3425 126.544 85.167 126.544 84.9916 126.806C84.7284 127.157 84.6407 127.857 84.6407 129.083Z" stroke="#C5AA79" stroke-width="0.5" stroke-miterlimit="10"/>
</svg>
