<svg width="200" height="339" viewBox="0 0 200 339" fill="none" xmlns="http://www.w3.org/2000/svg">
<path d="M75.6036 240.422C72.9005 240.422 71.1332 239.074 70.0935 237.103V244.156H73.0045V244.986H63.5439V244.156H66.4548V237.103C65.4152 239.074 63.6478 240.422 60.9448 240.422C56.9942 240.422 54.707 238.037 54.707 234.821C54.707 230.465 59.8012 227.25 61.4646 225.487C63.0241 223.931 66.4548 220.197 66.4548 216.048V214.803H63.5439V213.974H73.0045V214.803H70.0935V216.048C70.0935 220.197 73.5243 223.931 75.0838 225.487C76.8511 227.25 81.8413 230.465 81.8413 234.821C81.8413 237.933 79.5542 240.422 75.6036 240.422ZM66.3509 219.367C65.8311 221.13 64.6875 223.62 62.2963 226.835C60.5289 229.22 58.4497 230.776 58.4497 233.992C58.4497 236.585 59.8012 238.037 62.2963 238.037C64.8954 238.037 66.3509 236.377 66.3509 233.992V219.367ZM74.0441 226.835C71.653 223.62 70.6134 221.13 69.9896 219.367V233.992C69.9896 236.481 71.4451 238.037 74.0441 238.037C76.5392 238.037 77.8908 236.585 77.8908 233.992C77.8908 230.673 75.8115 229.22 74.0441 226.835Z" fill="#C5AA79"/>
<path d="M92.8642 244.26C91.2008 245.089 89.6413 245.401 89.2255 245.401C89.1215 245.401 88.7057 245.401 88.7057 245.193C88.7057 244.986 89.2255 244.052 89.2255 243.43C89.2255 241.978 89.0176 241.667 86.0026 235.755C84.4432 232.747 84.0273 230.257 84.0273 227.561C84.0273 217.189 90.473 213.455 93.1761 213.455C93.5919 213.455 93.5919 213.662 93.5919 213.87C93.5919 213.973 93.488 215.218 93.488 215.426C93.488 217.189 94.9434 219.471 95.2553 219.989C98.5821 225.175 98.894 225.798 99.4138 227.665C99.8297 229.117 100.038 230.672 100.038 231.917C99.9337 236.481 97.7504 241.978 92.8642 244.26ZM93.5919 221.649C93.28 220.3 92.7602 218.537 92.7602 217.085C92.7602 215.944 92.8642 215.218 93.0721 214.077C90.1612 214.077 87.3542 217.396 87.3542 223.619C87.3542 224.449 87.3542 227.25 88.1859 230.569L89.9532 237.103C90.0572 237.518 90.3691 239.177 90.3691 240.526C90.3691 242.185 90.1612 243.119 89.5374 244.571C92.6563 244.571 96.087 240.63 96.087 234.303C96.087 230.984 95.5672 229.013 93.5919 221.649Z" fill="#C5AA79"/>
<path d="M113.027 244.882V244.052H115.938V230.154L108.245 227.25V244.052H111.156V244.882H101.695V244.052H104.606V214.803H101.695V213.974H111.156V214.803H108.245V226.524L115.938 229.428V214.907H113.027V214.077H122.488V214.907H119.577V244.156H122.488V244.986H113.027V244.882Z" fill="#C5AA79"/>
<path d="M143.591 253.387H143.175C142.655 249.342 143.175 244.986 136.833 244.986H131.323C124.981 244.986 125.501 249.342 124.981 253.387H124.565L123.422 244.156H127.476C126.853 243.326 125.605 241.77 125.605 239.696C125.605 236.792 127.269 233.991 130.179 230.672C135.482 224.657 136.729 223.516 136.729 221.13C136.729 219.782 135.897 218.33 134.026 218.226C134.65 218.745 134.962 219.367 134.962 220.093C134.962 221.338 134.13 222.271 132.779 222.271C131.427 222.271 130.491 221.338 130.491 220.093C130.491 218.537 131.635 217.5 133.506 217.5C135.69 217.5 137.457 219.056 137.457 221.441C137.457 224.449 134.754 227.664 133.09 230.465C130.907 234.199 129.868 236.688 129.868 239.489C129.868 241.874 131.115 243.326 132.883 244.26H137.561V215.011H134.65V214.181H144.11V215.011H141.2V244.26H144.838L143.591 253.387Z" fill="#C5AA79"/>
<path d="M18.0102 291.764V290.934H20.9211V273.301C20.9211 275.998 16.0349 279.006 12.6041 279.11V280.873C13.7477 280.977 14.5794 282.014 14.5794 283.051C14.5794 284.192 13.6437 285.126 12.6041 285.229V286.163C12.6041 289.274 13.4358 290.726 15.723 290.726H16.2428V291.556H7.92578V290.934H8.34163C10.9407 290.934 11.6684 289.171 11.6684 286.37V285.437C10.6288 285.229 9.90107 284.4 9.90107 283.259C9.90107 282.118 10.6288 281.288 11.6684 281.08V279.317C9.79711 279.213 8.54956 278.073 8.54956 275.894C8.54956 273.198 11.0447 271.642 13.8517 270.19C16.6587 268.738 19.6736 267.597 19.6736 265.004C19.6736 263.655 19.3617 261.996 16.9705 261.789C17.5943 262.307 17.9062 262.929 17.9062 263.655C17.9062 264.9 17.0745 265.834 15.723 265.834C14.3715 265.834 13.4358 264.9 13.4358 263.655C13.4358 262.1 14.5794 260.959 16.4507 260.959C19.4657 260.959 20.8172 263.241 20.8172 265.73V260.855H27.3668V261.685H24.4559V290.934H27.3668V291.764H18.0102ZM20.9211 265.626C20.9211 268.219 19.3617 270.19 14.7873 272.679C13.4358 273.405 11.7724 274.65 11.7724 276.517C11.7724 277.347 12.2922 277.969 13.2279 277.969C16.8666 277.969 20.8172 274.961 20.8172 271.331V265.626H20.9211Z" fill="#C5AA79"/>
<path d="M34.6395 290.934H38.2782V291.764H28.0898V290.934H31.0008V270.605C31.0008 263.656 35.0553 260.337 40.4614 260.337C44.9318 260.337 48.2586 262.411 48.2586 266.352C48.2586 269.671 45.9715 272.576 41.1892 272.576C39.7337 272.576 38.798 272.057 38.1742 271.538L34.7435 277.243V290.934H34.6395ZM37.8623 270.605C38.1742 270.916 38.902 271.123 39.6297 271.123C42.1248 271.123 44.7239 269.256 44.7239 266.352C44.7239 263.448 42.4367 261.166 39.9416 261.166C36.8227 261.166 34.7435 263.344 34.7435 266.663V275.895L37.8623 270.605Z" fill="#C5AA79"/>
<path d="M50.6523 261.685H48.1571V260.855H57.6178V261.685H54.7068L58.4495 271.123L60.2168 265.626C61.3604 261.892 63.4397 260.337 65.9348 260.337C66.4546 260.337 67.0784 260.544 67.5982 260.855V268.219H67.0784C66.7665 265.626 65.6229 264.07 63.8555 264.07C62.2961 264.07 60.9446 265.419 60.3208 267.286L58.7614 272.264L66.1427 290.934H68.3259V291.764H58.8653V290.934H62.0882L56.89 277.865L55.9544 281.081C56.6821 281.495 57.2019 282.221 57.2019 283.051C57.2019 284.4 56.0583 285.333 54.8108 285.333H54.7068L54.291 286.578C53.9791 287.615 53.8751 288.445 53.8751 289.378C53.8751 290.208 54.4989 291.038 55.9544 291.038H56.5781V291.867H47.9492V290.934C50.4443 290.934 52.3157 289.482 53.3553 286.267C53.3553 286.267 53.7711 285.022 53.7711 285.126C52.9394 284.711 52.4196 283.985 52.4196 283.051C52.4196 281.807 53.3553 280.769 54.7068 280.769C54.8108 280.769 55.0187 280.769 55.1227 280.769L56.3702 276.621L50.6523 261.685Z" fill="#C5AA79"/>
<path d="M78.6196 291.764V290.934H81.5305V273.301C81.5305 275.998 76.6443 279.006 73.2135 279.11V280.873C74.3571 280.977 75.1888 282.014 75.1888 283.051C75.1888 284.192 74.2531 285.126 73.2135 285.229V286.163C73.2135 289.274 74.0452 290.726 76.3324 290.726H76.8522V291.556H68.5352V290.934H68.951C71.4461 290.934 72.2778 289.171 72.2778 286.37V285.437C71.2382 285.229 70.5105 284.4 70.5105 283.259C70.5105 282.118 71.2382 281.288 72.2778 281.08V279.317C70.4065 279.213 69.1589 278.073 69.1589 275.894C69.1589 273.198 71.6541 271.642 74.4611 270.19C77.2681 268.738 80.283 267.597 80.283 265.004C80.283 263.655 79.9711 261.996 77.5799 261.789C78.2037 262.307 78.5156 262.929 78.5156 263.655C78.5156 264.9 77.6839 265.834 76.3324 265.834C74.9809 265.834 74.0452 264.9 74.0452 263.655C74.0452 262.1 75.1888 260.959 77.0601 260.959C80.0751 260.959 81.4266 263.241 81.4266 265.73V260.855H87.9762V261.685H85.0653V290.934H87.9762V291.764H78.6196ZM81.4266 265.626C81.4266 268.219 79.8671 270.19 75.2927 272.679C73.9412 273.405 72.2778 274.65 72.2778 276.517C72.2778 277.347 72.7976 277.969 73.7333 277.969C77.372 277.969 81.3226 274.961 81.3226 271.331V265.626H81.4266Z" fill="#C5AA79"/>
<path d="M100.867 291.764V290.934H103.778V277.035L96.0848 274.131V290.934H98.9958V291.764H89.5352V290.934H92.4461V261.685H89.5352V260.855H98.9958V261.685H96.0848V273.301L103.778 276.206V261.685H100.867V260.855H110.328V261.685H107.417V290.934H110.328V291.764H100.867Z" fill="#C5AA79"/>
<path d="M128.836 270.086H128.42C127.9 266.041 128.42 261.685 122.078 261.685H118.647V290.934H121.558V291.764H112.098V290.934H115.009V261.685H112.098V260.855H129.979L128.836 270.086Z" fill="#C5AA79"/>
<path d="M147.962 282.429C147.338 288.548 144.843 292.282 139.957 292.282C134.135 292.282 131.328 285.229 131.328 276.828C131.328 267.493 135.071 260.337 140.581 260.337C144.531 260.337 147.13 263.448 147.754 267.908H149.522V268.738H142.14V267.908H144.22C144.22 265.211 143.7 261.166 140.581 261.166C136.422 261.166 135.695 267.908 135.487 274.65C136.422 273.198 138.19 272.472 139.749 272.472C142.972 272.472 144.843 275.065 144.843 277.45H138.294V276.621H139.749C141.516 276.621 141.932 276.102 141.932 275.065C141.932 274.235 141.413 273.302 139.749 273.302C138.502 273.302 135.487 274.131 135.487 277.45C135.487 283.57 135.695 291.453 139.853 291.453C143.284 291.453 144.116 288.341 144.116 282.429H141.828V281.599H149.833V282.429H147.962Z" fill="#C5AA79"/>
<path d="M160.442 263.967C161.065 264.485 161.377 265.108 161.377 265.834C161.377 267.078 160.546 268.012 159.298 268.012C157.947 268.012 157.011 267.078 157.011 265.834C157.011 264.278 158.154 263.241 160.026 263.241C162.209 263.241 163.976 264.796 163.976 267.182C163.976 269.049 162.937 270.501 161.793 272.679C157.115 281.703 157.219 282.118 156.907 283.259C156.803 283.673 156.283 285.022 156.283 286.266C156.283 288.445 157.427 290.623 159.194 291.038V291.867H149.941V290.934H153.996C153.372 290.104 152.125 288.548 152.125 286.474C152.125 283.881 154.308 280.147 156.699 277.554C160.13 273.924 163.249 269.982 163.249 266.871C163.249 265.522 162.417 264.174 160.442 263.967ZM161.065 261.685V260.855H170.526V261.685H167.615V290.934H170.526V291.764H161.065V290.934H163.976V261.685H161.065Z" fill="#C5AA79"/>
<path d="M181.959 291.764V290.934H184.87V273.301C184.87 275.998 179.984 279.006 176.553 279.11V280.873C177.697 280.977 178.529 282.014 178.529 283.051C178.529 284.192 177.697 285.126 176.553 285.229V286.163C176.553 289.274 177.385 290.726 179.672 290.726H180.192V291.556H171.875V290.934H172.291C174.89 290.934 175.618 289.171 175.618 286.37V285.437C174.578 285.229 173.85 284.4 173.85 283.259C173.85 282.118 174.578 281.288 175.618 281.08V279.317C173.746 279.213 172.499 278.073 172.499 275.894C172.499 273.198 174.994 271.642 177.801 270.19C180.608 268.738 183.623 267.597 183.623 265.004C183.623 263.655 183.311 261.996 180.92 261.789C181.544 262.307 181.855 262.929 181.855 263.655C181.855 264.9 181.024 265.834 179.672 265.834C178.321 265.834 177.385 264.9 177.385 263.655C177.385 262.1 178.529 260.959 180.4 260.959C183.415 260.959 184.766 263.241 184.766 265.73V260.855H191.316V261.685H188.405V290.934H191.316V291.764H181.959ZM184.87 265.626C184.87 268.219 183.311 270.19 178.841 272.679C177.489 273.405 175.826 274.65 175.826 276.517C175.826 277.347 176.345 277.969 177.281 277.969C180.92 277.969 184.87 274.961 184.87 271.331V265.626Z" fill="#C5AA79"/>
<path d="M30.6926 310.122C31.3163 310.641 31.6282 311.263 31.6282 311.989C31.6282 313.234 30.7965 314.167 29.445 314.167C28.0935 314.167 27.1578 313.234 27.1578 311.989C27.1578 310.433 28.3014 309.396 30.1727 309.396C32.356 309.396 34.0194 310.952 34.0194 313.338C34.0194 315.205 32.9797 316.657 31.8361 318.835C27.1578 327.858 27.2618 328.273 26.9499 329.414C26.8459 329.829 26.3261 331.177 26.3261 332.422C26.3261 334.6 27.4697 336.778 29.2371 337.193V338.023H19.9844V337.193H24.1429C23.5191 336.363 22.2716 334.808 22.2716 332.733C22.2716 330.14 24.2469 326.614 26.8459 323.813C29.9648 320.391 33.3956 316.242 33.3956 313.13C33.3956 311.678 32.5639 310.33 30.6926 310.122ZM31.2124 307.84V307.011H40.673V307.84H37.762V328.273H37.866L45.4553 312.923V307.737H42.5443V306.907H52.0049V307.737H49.094V336.986H52.0049V337.816H42.5443V336.986H45.4553V314.686L37.866 330.244V336.986H40.777V337.816H31.3163V336.986H34.2273V307.737H31.2124V307.84Z" fill="#C5AA79"/>
<path d="M64.6913 337.919V337.09H67.6023V318.524L59.909 325.162V336.986H62.82V337.816H53.3594V336.986H56.2703V307.737H53.3594V306.907H62.82V307.737H59.909V324.124L67.6023 317.486V307.84H64.6913V307.011H74.1519V307.84H71.241V337.09H74.1519V337.919H64.6913Z" fill="#C5AA79"/>
<path d="M77.478 307.84H74.9829V307.011H84.4435V307.84H81.5325L85.2752 317.279L87.0426 311.782C88.1861 308.048 90.2654 306.492 92.7605 306.492C93.2803 306.492 93.9041 306.7 94.5279 307.011V314.375H94.0081C93.6962 311.782 92.5526 310.226 90.7852 310.226C89.2258 310.226 87.8743 311.574 87.2505 313.441L85.691 318.42L93.0724 337.09H95.2556V337.919H85.795V337.09H89.0178L83.8197 324.021L82.884 327.236C83.6118 327.651 84.1316 328.377 84.1316 329.207C84.1316 330.451 82.988 331.489 81.7405 331.489H81.6365L81.2206 332.733C80.9087 333.77 80.8048 334.6 80.8048 335.534C80.8048 336.363 81.4286 337.193 82.884 337.193H83.5078V338.023H74.8789V337.193C77.478 337.193 79.2453 335.741 80.285 332.526C80.285 332.526 80.7008 331.281 80.7008 331.385C79.9731 330.97 79.4533 330.244 79.4533 329.31C79.4533 328.066 80.3889 327.029 81.7405 327.029C81.8444 327.029 82.0523 327.029 82.1563 327.029L83.4039 322.88L77.478 307.84Z" fill="#C5AA79"/>
<path d="M105.444 337.919V337.09H108.355V319.457C108.355 322.154 103.468 325.162 100.038 325.266V327.029C101.181 327.133 102.013 328.17 102.013 329.207C102.013 330.348 101.181 331.281 100.038 331.385V332.319C100.038 335.43 100.869 336.882 103.157 336.882H103.676V337.712H95.3594V336.882H95.8792C98.4783 336.882 99.206 335.119 99.206 332.319V331.385C98.1664 331.178 97.4386 330.348 97.4386 329.207C97.4386 328.066 98.1664 327.236 99.206 327.029V325.266C97.3347 325.162 96.0871 324.021 96.0871 321.843C96.0871 319.146 98.5822 317.59 101.389 316.138C104.196 314.686 107.211 313.545 107.211 310.952C107.211 309.604 106.899 307.944 104.508 307.737C105.132 308.256 105.444 308.878 105.444 309.604C105.444 310.849 104.612 311.782 103.261 311.782C101.909 311.782 100.973 310.849 100.973 309.604C100.973 308.048 102.117 307.011 103.988 307.011C107.003 307.011 108.355 309.293 108.355 311.782V307.011H114.904V307.841H111.993V337.09H114.904V337.919H105.444ZM108.251 311.782C108.251 314.375 106.691 316.346 102.221 318.835C100.973 319.561 99.206 320.806 99.206 322.673C99.206 323.502 99.7258 324.125 100.661 324.125C104.3 324.125 108.251 321.117 108.251 317.487V311.782Z" fill="#C5AA79"/>
<path d="M127.484 337.919V337.09H130.395V318.524L122.702 325.162V336.986H125.613V337.816H116.152V336.986H119.063V307.737H116.152V306.907H125.613V307.737H122.702V324.124L130.395 317.486V307.84H127.484V307.011H136.945V307.84H134.034V337.09H136.945V337.919H127.484Z" fill="#C5AA79"/>
<path d="M148.378 310.123C149.001 310.641 149.313 311.263 149.313 311.989C149.313 313.234 148.378 314.168 147.13 314.168C145.779 314.168 144.843 313.234 144.843 311.989C144.843 310.434 145.987 309.396 147.858 309.396C150.041 309.396 151.808 310.952 151.808 313.338C151.808 315.205 150.769 316.657 149.625 318.835C144.947 327.859 145.051 328.274 144.739 329.414C144.635 329.829 144.115 331.178 144.115 332.422C144.115 334.6 145.259 336.779 147.026 337.193V338.023H137.773V337.193H141.828C141.204 336.364 139.957 334.808 139.957 332.733C139.957 330.14 142.14 326.407 144.531 323.814C147.962 320.183 151.081 316.242 151.081 313.13C151.185 311.678 150.249 310.33 148.378 310.123ZM149.001 307.841V307.011H158.462V307.841H155.551V337.09H158.462V337.92H149.001V337.09H151.912V307.841H149.001Z" fill="#C5AA79"/>
<path d="M169.901 337.919V337.09H172.812V319.457C172.812 322.154 167.926 325.162 164.495 325.266V327.029C165.638 327.133 166.47 328.17 166.47 329.207C166.47 330.348 165.638 331.281 164.495 331.385V332.319C164.495 335.43 165.326 336.882 167.614 336.882H168.133V337.712H159.816V336.882H160.232C162.727 336.882 163.559 335.119 163.559 332.319V331.385C162.519 331.178 161.792 330.348 161.792 329.207C161.792 328.066 162.519 327.236 163.559 327.029V325.266C161.688 325.162 160.44 324.021 160.44 321.843C160.44 319.146 162.935 317.59 165.742 316.138C168.549 314.686 171.564 313.545 171.564 310.952C171.564 309.604 171.252 307.944 168.861 307.737C169.485 308.256 169.797 308.878 169.797 309.604C169.797 310.849 168.965 311.782 167.614 311.782C166.262 311.782 165.326 310.849 165.326 309.604C165.326 308.048 166.47 307.011 168.341 307.011C171.356 307.011 172.708 309.293 172.708 311.782V307.011H179.257V307.841H176.347V337.09H179.257V337.919H169.901ZM172.812 311.782C172.812 314.375 171.252 316.346 166.678 318.835C165.43 319.561 163.663 320.806 163.663 322.673C163.663 323.502 164.183 324.125 165.119 324.125C168.757 324.125 172.708 321.117 172.708 317.487V311.782H172.812Z" fill="#C5AA79"/>
<path d="M98.1469 5.32716C97.7589 4.93908 97.3708 4.9038 97.018 5.2566C96.8416 5.433 96.5946 5.67995 96.1007 8.29064C95.4304 11.748 93.0667 23.3197 90.4207 26.0716C90.1738 26.3185 89.9268 26.4244 89.6093 26.4244C88.8684 26.4244 88.1275 25.7188 87.4925 25.0484C87.175 24.7309 86.8575 24.3429 86.54 23.9901C86.293 23.7078 86.0461 23.4256 85.8344 23.1786C85.3757 22.6494 85.1993 21.8027 85.0229 21.0619C84.8818 20.4974 84.776 19.9682 84.5643 19.7565C84.3879 19.5801 84.141 19.5096 83.8587 19.5448C83.5765 19.5801 83.2942 19.7212 83.0826 19.9682C82.4828 20.6032 82.2711 21.0266 82.3064 22.0144V22.085C82.4123 23.9195 82.5534 24.872 81.495 25.9657C81.1422 26.3538 79.7663 26.7771 78.1787 27.2358C76.7322 27.6591 75.1094 28.1531 74.7213 28.5411C74.3685 28.8939 74.1921 29.529 74.1921 30.3404C74.1921 31.3988 74.5096 32.4572 74.9683 32.9511C77.0498 35.1384 81.4597 34.2917 83.0826 32.563C84.2115 31.3988 84.9524 29.8465 84.9524 28.6822C84.9524 28.6117 84.9524 28.5411 84.9524 28.4C84.9524 27.9414 85.0582 27.5886 85.2346 27.4122C85.3757 27.2711 85.5521 27.2005 85.7638 27.2005C86.54 27.2005 87.7395 27.9414 87.8453 28.0472C87.9511 28.1531 88.0217 28.3294 88.0217 28.5411C88.0217 30.9754 79.8016 39.7953 79.6957 39.8659C79.2018 40.3598 78.5315 40.5362 77.6495 40.2892C76.45 40.007 69.253 39.6542 64.5255 44.6286C61.4915 47.8038 59.7628 52.0373 59.7628 56.2356C59.7628 57.8585 60.0097 59.2344 60.5389 60.5044C59.2336 59.94 57.7871 59.6224 56.0937 59.6224C51.9307 59.6224 47.6971 61.3512 44.522 64.4205C39.5828 69.1479 39.9356 76.345 40.1826 77.5798C40.3943 78.4617 40.2532 79.1321 39.7592 79.626C39.6887 79.6965 30.8688 87.952 28.4698 87.952C28.2581 87.952 28.0817 87.8814 27.9759 87.7756C27.87 87.6697 27.1291 86.4702 27.1291 85.6941C27.1291 85.4471 27.1997 85.2707 27.3408 85.1649C27.5525 84.9532 27.87 84.8826 28.3287 84.8826C28.4698 84.8826 28.5403 84.8826 28.6109 84.8826C29.7751 84.8826 31.3274 84.1418 32.4916 83.0128C34.2203 81.3547 35.0671 76.98 32.8797 74.8632C32.3858 74.4046 31.3274 74.0871 30.269 74.0871C29.4576 74.0871 28.8226 74.2635 28.4698 74.6163C28.0817 74.9691 27.5878 76.6272 27.1644 78.0737C26.6705 79.6613 26.2824 81.0372 25.8944 81.4252C24.8007 82.4836 23.8481 82.3425 22.0136 82.2367H21.943C20.9552 82.2014 20.4966 82.4131 19.8968 83.0128C19.6499 83.2245 19.5088 83.5067 19.4735 83.789C19.4382 84.0712 19.5088 84.3182 19.6852 84.4946C19.8968 84.7062 20.426 84.8121 20.9905 84.9532C21.7314 85.1296 22.5781 85.306 23.1073 85.7646C23.319 85.9763 23.6012 86.2233 23.9187 86.4702C24.2715 86.7877 24.6596 87.1052 24.9771 87.4228C25.6474 88.0578 26.353 88.8339 26.353 89.5395C26.353 89.8571 26.2472 90.104 26.0002 90.351C23.2484 92.9969 11.712 95.3607 8.25457 96.031C5.67916 96.5249 5.39692 96.7718 5.22053 96.9482C4.86773 97.2658 4.90301 97.6891 5.29108 98.0772C5.32636 98.0772 5.46748 98.1125 6.03196 98.1125C9.4188 98.1125 21.1316 96.9482 29.0342 93.2439C29.4929 93.0322 29.8457 92.9264 30.1985 92.9264C30.6571 92.9264 31.0099 93.1381 31.2921 93.3497C31.398 93.4203 31.4685 93.4556 31.5744 93.5261C36.443 96.3838 44.0633 98.0772 48.6497 98.0772C49.8492 98.0772 50.9429 97.9361 51.5779 97.7244C51.6485 95.9957 51.7543 94.3023 51.9307 92.6441C49.8139 92.3619 47.3091 91.5505 45.404 89.7159C44.7689 89.1162 43.9575 87.9872 43.5694 86.7524C43.1461 85.306 43.393 84.0712 44.3456 83.1539C46.7093 80.896 50.6253 79.2379 55.3528 78.3912C56.3406 75.7805 57.8224 72.8876 59.1277 70.4886C54.1886 71.4411 49.1436 73.6284 44.9806 76.345C43.8164 77.0858 42.8286 77.227 42.3346 76.7683C42.1582 76.6272 42.1582 75.3924 42.1582 75.3571C42.1582 73.6637 42.511 69.3596 46.0743 65.9728C49.6375 62.5507 53.8711 62.0567 56.0584 62.0567C58.7397 62.0567 61.2445 62.7976 62.444 63.9618C62.5851 64.103 63.5024 65.0908 63.5377 65.2319C63.6082 65.1261 64.7725 64.1382 65.3017 63.7502C65.1253 63.7149 63.9963 62.6212 63.9963 62.6565C62.8674 61.457 62.1265 58.9521 62.1265 56.2709C62.1265 54.0483 62.6204 49.8147 66.0425 46.2515C69.4646 42.6882 73.7335 42.3002 75.4269 42.3002C75.4269 42.3002 76.6617 42.3002 76.8381 42.4766C77.2967 42.9705 77.1556 43.9583 76.4147 45.1225C73.7335 49.2855 71.8637 53.9424 70.9464 58.9169C73.3454 57.6115 75.8503 56.4826 78.4609 55.4947C79.3076 50.732 80.9305 46.816 83.1884 44.4522C84.1057 43.4997 85.3405 43.2527 86.7516 43.6761C88.0217 44.0641 89.1154 44.8756 89.7151 45.5106C91.5497 47.451 92.3611 49.9206 92.6433 52.0726C94.3015 51.8962 95.9949 51.7551 97.7236 51.6845C97.9353 51.0495 98.0764 49.9558 98.0764 48.7563C98.0764 44.17 96.383 36.5143 93.5253 31.6457C93.4548 31.5399 93.4195 31.4693 93.3489 31.3635C93.1373 31.046 92.9256 30.7285 92.9256 30.2345C92.9256 29.917 93.0314 29.529 93.2431 29.0703C96.9474 21.1677 98.1117 9.41959 98.1117 6.03275C98.1822 5.50355 98.1469 5.32716 98.1469 5.32716ZM44.0633 91.233C44.8395 91.9738 49.9903 94.4081 50.0256 94.4434C50.3431 94.7256 50.3431 94.9373 50.0609 95.1843C49.7081 95.5371 48.7202 95.6782 47.1679 95.6782C43.005 95.6782 35.3493 94.3728 33.3031 92.3972C33.1267 92.2208 33.0208 92.0091 33.0208 91.7974C33.0208 91.5858 33.1267 91.3741 33.3031 91.1977C33.3384 91.1624 39.3712 86.3291 40.8176 86.3291C40.9587 86.3291 41.0646 86.3644 41.1351 86.4349C41.3115 86.6113 41.4527 86.823 41.5938 87.1052L41.6643 87.2464C42.4758 89.0809 42.8991 90.104 44.0633 91.233ZM95.7832 47.3099C95.7832 48.8622 95.6068 49.85 95.2893 50.2028C95.0424 50.4498 94.7954 50.4497 94.5484 50.1675C94.5132 50.1322 92.0789 44.9461 91.3733 44.17C90.2796 43.0058 89.2565 42.5824 87.3514 41.8063L87.2103 41.7357C86.9633 41.5946 86.7164 41.4535 86.54 41.2771C86.4694 41.2065 86.4341 41.1007 86.4341 40.9595C86.4341 39.5131 91.2321 33.4803 91.3027 33.4097C91.4791 33.198 91.6908 33.1275 91.9025 33.1275C92.1141 33.1275 92.3258 33.2333 92.5022 33.4097C94.4779 35.4559 95.7832 43.1469 95.7832 47.3099Z" fill="#C5AA79"/>
<path d="M106.791 29.1056C107.002 29.5642 107.108 29.917 107.108 30.2698C107.108 30.7285 106.897 31.0813 106.685 31.3988C106.614 31.5046 106.579 31.5752 106.508 31.681C103.651 36.5496 101.957 44.2053 101.957 48.7916C101.957 49.9911 102.063 51.0848 102.31 51.7198C104.004 51.7904 105.697 51.8962 107.39 52.1079C107.673 49.9558 108.484 47.4863 110.319 45.5459C110.918 44.9109 112.012 44.0994 113.282 43.7113C114.729 43.288 115.963 43.535 116.845 44.4875C119.103 46.8512 120.761 50.7673 121.573 55.53C124.184 56.5178 126.688 57.6468 129.087 58.9521C128.135 53.9777 126.3 49.3208 123.619 45.1578C122.878 43.9936 122.737 43.0058 123.196 42.5118C123.337 42.3354 124.572 42.3354 124.607 42.3354C126.3 42.3354 130.569 42.6882 133.991 46.2868C137.413 49.85 137.907 54.0835 137.907 56.3062C137.907 58.9874 137.166 61.4923 136.002 62.6918C136.002 62.6918 134.662 63.6796 134.52 63.7149C134.979 64.0324 136.073 65.0202 136.179 65.1966C136.179 65.1261 137.378 64.0677 137.484 63.9971C138.683 62.8329 141.188 62.092 143.87 62.092C146.057 62.092 150.29 62.5859 153.854 66.0081C157.417 69.4302 157.805 73.7343 157.77 75.3924C157.77 75.3924 157.77 76.6272 157.593 76.8036C157.099 77.2622 156.112 77.1211 154.947 76.3802C150.82 73.6637 146.057 71.8997 141.118 70.9825C142.423 73.4168 143.623 75.8511 144.61 78.4265C149.373 79.2732 153.254 80.896 155.618 83.1892C156.57 84.1065 156.817 85.3413 156.394 86.7877C156.006 88.0578 155.194 89.1515 154.559 89.7512C152.619 91.5857 150.149 92.3972 148.033 92.6794C148.209 94.3376 148.35 96.031 148.385 97.7597C149.02 97.9714 150.114 98.1125 151.314 98.1125C155.9 98.1125 163.52 96.4191 168.389 93.5614C168.495 93.4909 168.565 93.4556 168.671 93.385C168.989 93.1733 169.306 92.9617 169.765 92.9617C170.082 92.9617 170.47 93.0675 170.929 93.2792C178.832 97.0188 190.544 98.1478 193.931 98.1478C194.496 98.1478 194.672 98.1125 194.672 98.1125C195.06 97.7244 195.096 97.3363 194.743 96.9835C194.566 96.8071 194.319 96.5602 191.709 96.0663C188.251 95.396 176.715 93.0322 173.963 90.3863C173.716 90.1393 173.61 89.8923 173.61 89.5748C173.61 88.8339 174.316 88.0931 174.986 87.458C175.304 87.1405 175.692 86.823 176.045 86.5055C176.327 86.2585 176.609 86.0116 176.856 85.7999C177.385 85.3413 178.232 85.1649 178.973 84.9885C179.537 84.8474 180.066 84.7415 180.278 84.5298C180.454 84.3534 180.525 84.1065 180.49 83.8242C180.454 83.542 180.313 83.2598 180.066 83.0481C179.431 82.4483 179.008 82.2367 178.02 82.2719H177.95C176.115 82.3778 175.163 82.5189 174.069 81.4605C173.681 81.0724 173.257 79.7318 172.799 78.1089C172.375 76.6625 171.882 75.0396 171.493 74.6516C171.141 74.2988 170.506 74.1224 169.694 74.1224C168.636 74.1224 167.577 74.4399 167.084 74.8985C164.896 77.0153 165.778 81.3899 167.472 83.0481C168.636 84.177 170.188 84.9179 171.352 84.9179C171.423 84.9179 171.493 84.9179 171.635 84.9179C172.093 84.9179 172.411 85.0238 172.622 85.2001C172.764 85.3413 172.834 85.5177 172.834 85.7293C172.834 86.5055 172.093 87.705 171.987 87.8108C171.882 87.9167 171.705 87.9872 171.493 87.9872C169.059 87.9872 160.275 79.7318 160.204 79.6613C159.71 79.1673 159.569 78.497 159.781 77.615C160.063 76.3802 160.416 69.1832 155.441 64.4557C152.266 61.4217 148.068 59.6577 143.87 59.6577C142.211 59.6577 140.8 59.94 139.53 60.4692C140.024 59.2344 140.271 57.8585 140.271 56.2709C140.271 52.0726 138.542 47.8743 135.508 44.6639C130.781 39.6895 123.584 40.0423 122.384 40.3245C121.502 40.5362 120.832 40.3951 120.338 39.9012C120.268 39.8306 112.012 31.0107 112.012 28.5764C112.012 28.3647 112.083 28.1883 112.188 28.0825C112.294 27.9767 113.459 27.2358 114.27 27.2358C114.517 27.2358 114.693 27.3063 114.799 27.4475C115.011 27.6591 115.081 27.9767 115.081 28.4353C115.081 28.5764 115.081 28.647 115.081 28.7175C115.081 29.8818 115.822 31.4341 116.951 32.5983C118.574 34.327 122.984 35.209 125.066 32.9864C125.524 32.4924 125.842 31.4341 125.842 30.3757C125.842 29.5642 125.665 28.9292 125.312 28.5764C124.96 28.1883 123.302 27.6944 121.855 27.2711C120.268 26.7771 118.892 26.3891 118.539 26.001C117.48 24.9073 117.622 23.9548 117.727 22.1202V22.0497C117.763 21.0619 117.551 20.6032 116.951 20.0035C116.74 19.7565 116.457 19.6154 116.175 19.5801C115.893 19.5448 115.646 19.6154 115.469 19.7918C115.258 20.0035 115.152 20.5327 115.011 21.0971C114.834 21.838 114.658 22.6847 114.199 23.2139C113.988 23.4256 113.741 23.7078 113.494 24.0253C113.176 24.3781 112.859 24.7662 112.541 25.0837C111.906 25.754 111.13 26.4596 110.424 26.4596C110.107 26.4596 109.86 26.3185 109.613 26.1068C106.967 23.355 104.603 11.7833 103.933 8.32592C103.439 5.71523 103.192 5.46827 103.016 5.29188C102.698 4.93908 102.275 4.97436 101.887 5.36243C101.887 5.39771 101.852 5.53883 101.852 6.10331C101.922 9.45487 103.086 21.203 106.791 29.1056ZM158.369 87.07C158.511 86.823 158.652 86.576 158.828 86.3997C158.899 86.3291 159.004 86.2938 159.146 86.2938C160.592 86.2938 166.625 91.0918 166.66 91.1624C166.872 91.3388 166.942 91.5505 166.942 91.7622C166.942 91.9738 166.837 92.1855 166.66 92.3619C164.579 94.3376 156.923 95.6429 152.795 95.6429C151.243 95.6429 150.255 95.4665 149.902 95.149C149.655 94.902 149.655 94.6551 149.938 94.4081C149.973 94.3728 155.159 91.9385 155.9 91.1977C157.064 90.0687 157.487 89.0456 158.264 87.1758L158.369 87.07ZM108.237 33.0922C108.449 33.0922 108.661 33.198 108.837 33.3744C108.872 33.4097 113.705 39.4778 113.705 40.9243C113.705 41.0654 113.67 41.1712 113.6 41.2418C113.423 41.4182 113.212 41.5593 112.929 41.7004L112.788 41.771C110.918 42.5118 109.895 42.9705 108.766 44.1347C108.025 44.9109 105.591 50.0617 105.591 50.1322C105.309 50.4498 105.097 50.4497 104.85 50.1675C104.498 49.8147 104.356 48.8269 104.356 47.2746C104.356 43.1116 105.662 35.4206 107.637 33.3744C107.779 33.198 107.99 33.0922 108.237 33.0922Z" fill="#C5AA79"/>
<path d="M93.3135 170.894C93.1019 170.436 92.996 170.083 92.996 169.73C92.996 169.271 93.2077 168.919 93.4194 168.601C93.4899 168.495 93.5252 168.425 93.5958 168.319C96.4534 163.45 98.1468 155.795 98.1468 151.208C98.1468 150.009 98.041 148.986 97.794 148.351C96.1006 148.28 94.4072 148.104 92.7138 147.892C92.4315 150.044 91.6201 152.514 89.7856 154.454C89.1858 155.089 88.0922 155.9 86.8221 156.289C85.3756 156.712 84.1408 156.465 83.2589 155.512C81.001 153.149 79.3428 149.233 78.5314 144.47C75.9207 143.482 73.4158 142.353 71.0168 141.048C71.9694 146.022 73.8039 150.679 76.4852 154.842C77.226 156.006 77.3672 156.994 76.9085 157.488C76.7674 157.664 75.5326 157.664 75.4973 157.664C73.8039 157.664 69.5351 157.312 66.113 153.713C62.6908 150.15 62.1969 145.916 62.1969 143.694C62.1969 141.012 62.9378 138.508 64.102 137.308C64.2432 137.167 65.3015 136.144 65.4779 136.144C65.0193 135.791 64.5254 135.438 64.0668 135.085C63.9609 134.909 63.8198 134.768 63.714 134.592C63.6787 134.768 62.6556 135.826 62.5145 135.967C61.3149 137.132 58.8101 137.873 56.1288 137.873C53.9415 137.873 49.708 137.379 46.1447 133.957C42.5815 130.534 42.1934 126.23 42.2287 124.572C42.2287 124.572 42.2287 123.337 42.4051 123.161C42.899 122.702 43.8868 122.843 45.0511 123.584C49.1788 126.301 54.2238 128.488 59.1982 129.441C57.8928 127.006 56.3758 124.149 55.4233 121.538C50.6605 120.691 46.7798 119.069 44.416 116.775C43.4635 115.858 43.2165 114.623 43.6399 113.177C44.0279 111.907 44.8394 110.813 45.4744 110.213C47.4148 108.379 49.8844 107.567 52.0011 107.285C51.8247 105.627 51.6836 103.934 51.6483 102.205C51.0133 101.993 49.9196 101.852 48.7201 101.852C44.1338 101.852 36.5134 103.546 31.6448 106.403C31.539 106.474 31.4684 106.509 31.3626 106.58C31.0451 106.791 30.7275 107.003 30.2689 107.003C29.9514 107.003 29.5633 106.897 29.1047 106.685C21.1668 103.016 9.45395 101.852 6.06711 101.852C5.50264 101.852 5.32624 101.887 5.32624 101.887C4.93817 102.275 4.90289 102.664 5.25568 103.016C5.43208 103.193 5.67904 103.44 8.28973 103.934C11.7471 104.604 23.2836 106.968 26.0354 109.614C26.2823 109.861 26.3882 110.108 26.3882 110.425C26.3882 111.166 25.6826 111.907 25.0123 112.542C24.6947 112.859 24.3067 113.177 23.9539 113.494C23.6716 113.741 23.3894 113.988 23.1424 114.2C22.6132 114.659 21.7665 114.835 21.0257 115.011C20.4612 115.153 19.932 115.258 19.7203 115.47C19.5439 115.646 19.4734 115.893 19.5086 116.176C19.5439 116.458 19.685 116.74 19.932 116.952C20.567 117.552 20.9904 117.763 21.9782 117.728H22.0488C23.8833 117.622 24.8359 117.481 25.9295 118.539C26.3176 118.927 26.7409 120.303 27.1996 121.891C27.6229 123.337 28.1169 124.96 28.5049 125.348C28.8577 125.701 29.4928 125.878 30.3042 125.878C31.3626 125.878 32.421 125.56 32.9149 125.101C35.1022 122.985 34.2202 118.61 32.5268 116.952C31.3626 115.823 29.8103 115.082 28.646 115.082C28.5755 115.082 28.5049 115.082 28.3638 115.082C27.9052 115.082 27.5877 114.976 27.376 114.8C27.2349 114.659 27.1643 114.482 27.1643 114.271C27.1643 113.494 27.9052 112.295 28.011 112.189C28.1169 112.083 28.2933 112.013 28.5049 112.013C30.9392 112.013 39.7238 120.268 39.7944 120.339C40.2883 120.833 40.4294 121.503 40.2178 122.385C39.9355 123.62 39.5827 130.817 44.5571 135.544C47.7323 138.578 51.9306 140.342 56.1288 140.342C57.8576 140.342 59.304 140.025 60.6094 139.46C60.0802 140.73 59.7979 142.141 59.7979 143.8C59.7979 147.998 61.5266 152.196 64.5607 155.407C69.2881 160.381 76.4852 160.028 77.6847 159.746C78.5667 159.534 79.237 159.675 79.7309 160.169C79.8015 160.24 88.0569 169.06 88.0569 171.494C88.0569 171.706 87.9863 171.882 87.8805 171.988C87.7746 172.094 86.6104 172.835 85.799 172.835C85.552 172.835 85.3756 172.764 85.2698 172.623C85.0581 172.411 84.9875 172.094 84.9875 171.635C84.9875 171.494 84.9875 171.423 84.9875 171.353C84.9875 170.189 84.2467 168.636 83.1177 167.472C81.4949 165.743 77.0849 164.861 75.0034 167.084C74.5448 167.578 74.2273 168.636 74.2273 169.695C74.2273 170.506 74.4037 171.141 74.7565 171.494C75.1093 171.882 76.7674 172.376 78.2139 172.799C79.8015 173.293 81.1774 173.681 81.5302 174.069C82.5885 175.163 82.4474 176.116 82.3416 177.95V178.021C82.3063 179.009 82.518 179.467 83.1177 180.067C83.3294 180.314 83.6116 180.455 83.8939 180.49C84.1761 180.526 84.4231 180.455 84.5995 180.279C84.8112 180.067 84.917 179.538 85.0581 178.973C85.2345 178.232 85.4109 177.386 85.8695 176.856C86.0812 176.645 86.3282 176.363 86.5751 176.045C86.8926 175.692 87.2102 175.304 87.5277 174.987C88.1627 174.316 88.9389 173.611 89.6445 173.611C89.962 173.611 90.2089 173.752 90.4559 173.964C93.1019 176.715 95.4656 188.287 96.1359 191.744C96.6298 194.355 96.8768 194.602 97.0532 194.779C97.3707 195.131 97.794 195.096 98.1821 194.708C98.1821 194.673 98.2174 194.532 98.2174 193.967C98.1821 190.545 97.0179 178.797 93.3135 170.894ZM41.6289 112.895C41.4878 113.142 41.3467 113.389 41.1703 113.565C41.0997 113.635 40.9939 113.671 40.8528 113.671C39.4063 113.671 33.3735 108.873 33.3382 108.802C33.1266 108.626 33.056 108.414 33.056 108.202C33.056 107.991 33.1618 107.779 33.3382 107.603C35.4197 105.627 43.0754 104.322 47.2031 104.322C48.7554 104.322 49.7432 104.498 50.096 104.816C50.343 105.063 50.343 105.31 50.0608 105.556C50.0255 105.592 44.8394 108.026 44.0985 108.767C42.9343 109.896 42.5109 110.919 41.7348 112.789L41.6289 112.895ZM91.8671 166.908C91.6554 166.908 91.4437 166.802 91.2673 166.625C91.232 166.59 86.3987 160.522 86.3987 159.076C86.3987 158.934 86.434 158.829 86.5046 158.758C86.681 158.582 86.8926 158.441 87.1749 158.299L87.316 158.229C89.1858 157.488 90.2089 157.029 91.3379 155.865C92.0787 155.089 94.513 149.938 94.513 149.868C94.7953 149.55 95.007 149.55 95.2539 149.832C95.6067 150.185 95.7478 151.173 95.7478 152.725C95.7478 156.888 94.4425 164.579 92.4668 166.625C92.2904 166.802 92.0787 166.908 91.8671 166.908Z" fill="#C5AA79"/>
<path d="M194.707 101.887C194.672 101.887 194.531 101.852 193.966 101.852C190.579 101.852 178.867 103.016 170.964 106.721C170.505 106.932 170.153 107.038 169.8 107.038C169.341 107.038 168.988 106.827 168.706 106.615C168.6 106.544 168.53 106.509 168.424 106.438C163.555 103.581 155.935 101.887 151.349 101.887C150.149 101.887 149.055 102.029 148.42 102.24C148.35 103.969 148.244 105.662 148.068 107.32C150.184 107.603 152.689 108.414 154.594 110.249C155.229 110.848 156.041 111.977 156.429 113.212C156.852 114.659 156.605 115.893 155.653 116.811C153.289 119.069 149.373 120.727 144.645 121.573C143.658 124.184 142.176 126.689 140.871 129.123C145.81 128.171 150.855 126.336 155.018 123.655C156.182 122.914 157.17 122.773 157.664 123.232C157.84 123.373 157.84 124.607 157.84 124.643C157.84 126.336 157.487 130.64 153.924 134.027C150.361 137.449 146.127 137.943 143.94 137.943C141.259 137.943 138.754 137.202 137.554 136.038C137.484 135.967 136.39 134.733 136.355 134.662C136.214 134.874 135.085 135.897 134.697 136.179C134.838 136.214 136.073 137.343 136.073 137.379C137.237 138.578 137.978 141.083 137.978 143.764C137.978 145.987 137.484 150.22 134.062 153.784C130.604 157.347 126.3 157.7 124.607 157.7C124.607 157.7 123.372 157.7 123.195 157.523C122.737 157.029 122.878 156.042 123.619 154.877C126.3 150.714 128.17 146.057 129.087 141.083C126.688 142.388 124.183 143.517 121.573 144.505C120.726 149.268 119.103 153.184 116.845 155.548C115.928 156.5 114.693 156.747 113.282 156.324C112.012 155.936 110.918 155.124 110.318 154.489C108.484 152.549 107.672 150.079 107.39 147.927C105.732 148.104 104.039 148.315 102.31 148.386C102.098 149.021 101.957 150.044 101.957 151.244C101.957 155.83 103.651 163.486 106.508 168.354C106.579 168.46 106.614 168.531 106.685 168.636C106.896 168.954 107.108 169.271 107.108 169.765C107.108 170.083 107.002 170.471 106.79 170.93C103.086 178.832 101.922 190.58 101.922 193.967C101.922 194.532 101.957 194.708 101.957 194.708C102.345 195.096 102.733 195.131 103.086 194.779C103.263 194.602 103.509 194.355 104.003 191.744C104.674 188.287 107.037 176.715 109.683 173.964C109.93 173.717 110.177 173.611 110.495 173.611C111.236 173.611 111.977 174.316 112.612 174.987C112.929 175.304 113.247 175.692 113.564 176.045C113.811 176.327 114.058 176.61 114.27 176.856C114.728 177.386 114.905 178.232 115.081 178.973C115.222 179.538 115.328 180.067 115.54 180.279C115.716 180.455 115.963 180.526 116.245 180.49C116.528 180.455 116.81 180.314 117.022 180.067C117.621 179.432 117.833 179.009 117.798 178.021V177.95C117.692 176.116 117.551 175.163 118.609 174.069C118.962 173.681 120.338 173.258 121.925 172.799C123.372 172.376 124.995 171.882 125.383 171.494C125.736 171.141 125.912 170.506 125.912 169.695C125.912 168.636 125.594 167.578 125.136 167.084C123.054 164.897 118.644 165.743 117.022 167.472C115.893 168.636 115.152 170.189 115.152 171.353C115.152 171.423 115.152 171.494 115.152 171.635C115.152 172.094 115.046 172.447 114.869 172.623C114.728 172.764 114.552 172.835 114.34 172.835C113.564 172.835 112.365 172.094 112.259 171.988C112.153 171.882 112.082 171.706 112.082 171.494C112.082 169.06 120.303 160.24 120.408 160.169C120.902 159.675 121.573 159.499 122.455 159.746C123.654 160.028 130.851 160.381 135.579 155.407C138.613 152.231 140.341 147.998 140.341 143.8C140.341 142.177 140.059 140.765 139.565 139.495C140.871 140.06 142.282 140.342 143.94 140.342C148.103 140.342 152.336 138.613 155.512 135.544C160.451 130.817 160.098 123.62 159.851 122.385C159.639 121.503 159.78 120.833 160.274 120.339C160.345 120.268 169.165 112.013 171.564 112.013C171.775 112.013 171.952 112.083 172.058 112.189C172.164 112.295 172.904 113.494 172.904 114.271C172.904 114.517 172.834 114.694 172.693 114.8C172.481 115.011 172.164 115.082 171.705 115.082C171.564 115.082 171.493 115.082 171.423 115.082C170.258 115.082 168.706 115.823 167.542 116.952C165.813 118.61 164.966 122.985 167.154 125.101C167.648 125.56 168.706 125.878 169.765 125.878C170.576 125.878 171.211 125.701 171.564 125.348C171.952 124.996 172.446 123.337 172.869 121.891C173.363 120.303 173.751 118.927 174.139 118.539C175.233 117.481 176.185 117.622 178.02 117.728H178.09C179.078 117.763 179.537 117.552 180.137 116.952C180.384 116.74 180.525 116.458 180.56 116.176C180.595 115.893 180.525 115.646 180.348 115.47C180.137 115.258 179.608 115.153 179.043 115.011C178.302 114.835 177.455 114.659 176.926 114.2C176.715 113.988 176.432 113.741 176.115 113.494C175.762 113.177 175.374 112.859 175.056 112.542C174.386 111.907 173.681 111.131 173.681 110.425C173.681 110.108 173.786 109.861 174.033 109.614C176.785 106.968 188.322 104.604 191.779 103.934C194.354 103.44 194.637 103.193 194.813 103.016C195.131 102.664 195.095 102.24 194.707 101.887ZM108.837 166.625C108.66 166.837 108.449 166.908 108.237 166.908C108.025 166.908 107.814 166.802 107.637 166.625C105.662 164.544 104.356 156.888 104.356 152.725C104.356 151.173 104.533 150.185 104.85 149.832C105.097 149.585 105.344 149.585 105.591 149.868C105.626 149.903 108.061 155.089 108.766 155.865C109.86 157.029 110.883 157.453 112.788 158.229L112.929 158.299C113.176 158.441 113.423 158.582 113.599 158.758C113.67 158.829 113.705 158.934 113.705 159.076C113.705 160.522 108.872 166.555 108.837 166.625ZM166.695 108.802C166.66 108.837 160.627 113.671 159.181 113.671C159.04 113.671 158.934 113.635 158.863 113.565C158.687 113.389 158.546 113.177 158.404 112.895L158.334 112.754C157.593 110.884 157.134 109.861 155.97 108.732C155.194 107.991 150.043 105.556 150.008 105.521C149.69 105.239 149.69 105.027 149.973 104.78C150.325 104.428 151.313 104.286 152.866 104.286C157.029 104.286 164.684 105.592 166.73 107.567C166.907 107.744 167.013 107.955 167.013 108.167C166.977 108.379 166.872 108.591 166.695 108.802Z" fill="#C5AA79"/>
<path d="M94.8298 91.1978C94.8651 91.1978 94.8651 91.1625 94.9357 91.1272C95.1121 90.9508 95.2179 90.6686 95.2885 90.4922C95.2179 90.4922 95.1121 90.5275 95.0415 90.5275C94.6182 90.5275 94.2301 90.3158 94.0184 89.9983C93.7009 90.1394 92.9247 90.4922 93.2775 91.6917V91.727V91.7623L94.8298 91.1978Z" fill="#C5AA79"/>
<path d="M104.709 74.4046C104.85 74.4399 104.992 74.4399 105.168 74.4399C105.521 74.4399 105.838 74.3694 106.085 74.2635C106.932 74.0166 107.708 73.8754 108.343 73.9107C107.779 72.429 106.403 72.2526 105.803 72.2526C105.344 72.2526 104.992 72.3584 104.815 72.4642C104.745 72.4995 104.674 72.5701 104.603 72.6054C104.18 72.8876 103.58 73.2757 102.945 73.4521C103.263 73.5579 103.369 73.5932 103.369 73.5932C103.827 73.7696 104.286 74.0518 104.709 74.4046Z" fill="#C5AA79"/>
<path d="M94.3395 76.0982C94.4453 75.9218 94.5159 75.7806 94.6217 75.6395C94.6923 75.5337 94.7981 75.4279 94.8687 75.322C94.4806 75.3926 94.0925 75.3926 93.7045 75.4279C93.2105 75.4279 92.6813 75.4631 92.1874 75.6395C91.4465 75.8865 91.1996 76.7685 91.0938 77.3329C91.4818 77.0154 91.9757 76.8037 92.5049 76.7332C93.2458 76.6273 93.8456 76.4157 94.3395 76.0982Z" fill="#C5AA79"/>
<path d="M109.543 72.7112C109.543 72.7112 109.402 72.6406 109.225 72.5348C109.155 72.4995 109.084 72.4995 109.013 72.4642H108.978L108.943 72.4289C108.343 70.9119 107.461 69.9241 106.332 69.4302H106.297V69.3949C106.226 69.3596 106.121 69.3243 106.05 69.2891H106.015C105.979 69.2891 105.944 69.2538 105.944 69.2538C105.838 69.2185 105.768 69.1832 105.732 69.1832L105.697 69.1479L105.627 69.1127L105.168 68.7951C104.18 68.1248 103.228 67.772 102.346 67.772C101.781 67.772 101.252 67.9132 100.652 68.1954L100.582 68.2307L100.335 68.3718L99.9819 68.2659C99.6997 68.1954 99.4174 68.1601 99.1352 68.1601C98.3943 68.1601 97.3359 68.4071 96.4187 69.5713L96.3834 69.6066L95.9953 69.7477C95.6072 69.9946 94.5841 70.7355 93.9844 71.935C94.0549 71.935 94.0902 71.935 94.1608 71.935C94.1961 71.8997 94.1961 71.8645 94.2313 71.8292C94.2313 71.7939 95.9248 69.5713 99.3116 69.0068C99.3116 69.0068 99.735 68.901 100.405 68.901C101.64 68.901 104.039 69.2185 106.368 71.2294C106.473 71.3353 106.544 71.4058 106.579 71.4411C108.767 71.6528 109.507 73.6637 109.613 74.0165C109.684 74.0518 109.719 74.0518 109.79 74.0871C111.06 74.581 111.589 75.7099 111.801 76.6978C111.73 74.9338 110.672 73.3815 109.543 72.7112Z" fill="#C5AA79"/>
<path d="M95.2557 89.081C95.1145 89.081 95.0087 89.0457 94.9029 89.0104C94.797 89.1868 94.6559 89.5396 94.9029 89.8218C94.9734 89.8924 95.0793 89.963 95.2557 89.963C95.3968 89.963 95.7496 89.8924 95.8554 89.3985C95.8907 89.1868 95.8907 89.0104 95.8907 88.9046C95.7143 89.0104 95.5026 89.081 95.2557 89.081Z" fill="#C5AA79"/>
<path d="M112.436 83.0835C113.106 82.5896 113.494 82.0956 113.529 81.5312C113.6 80.8256 113.353 80.2611 113.353 80.2611L113.283 80.1905L113.353 80.12C115.011 77.9679 114.094 75.4984 113.6 74.6516L113.529 74.5811C113.459 74.5105 113.388 74.4047 113.283 74.3341L113.247 74.2988V74.2636C112.859 72.7818 111.624 71.3001 110.213 70.5945L109.86 70.3828V70.3475L109.472 69.6772L109.437 69.6419C108.767 68.513 107.991 67.7368 107.038 67.2782H107.003V67.2429C107.003 67.2429 107.003 67.2429 107.003 67.2076C106.897 67.1371 106.685 67.0312 106.403 66.9607H106.368C106.332 66.9607 106.297 66.9254 106.262 66.9254C106.156 66.8901 106.086 66.8901 106.05 66.8548C105.98 66.8548 105.98 66.8196 105.98 66.8196H105.944L105.133 66.4315H105.204C104.18 65.867 103.157 65.5848 102.169 65.5848C101.182 65.5848 100.511 65.867 100.194 66.0434L100.159 66.0787L100.123 66.114L100.088 66.0787L100.053 66.0434L99.9469 66.1493V66.0434C99.7352 65.9729 99.2765 65.867 98.6415 65.867C97.9006 65.867 96.807 66.0434 95.8191 66.996L95.7839 67.0312H95.7486C95.4663 67.1018 95.2547 67.2076 95.1136 67.2782L94.9724 67.3488C94.1257 67.8427 93.1379 68.5483 92.5381 69.6067V69.6419H92.5029C92.4676 69.6772 92.4323 69.7125 92.397 69.7831C92.2206 70.0653 92.1501 70.277 92.1148 70.4534L92.0795 70.5592C92.0795 70.6298 92.0442 70.665 92.0442 70.7003V70.7356L91.762 71.0178L91.5503 71.2648C90.1391 72.429 89.998 74.6869 89.998 74.7575V74.8633L89.6805 74.8986C89.2219 75.6747 88.7985 77.6504 89.3277 79.873C89.2571 79.1674 89.3983 78.5324 89.7158 78.0032C89.7158 77.6857 89.5747 76.839 89.7511 76.3098C89.998 75.5689 90.1039 75.0044 90.7036 74.7575C90.8447 74.1224 91.3739 72.2879 92.8557 71.8998C93.0673 70.8767 93.7376 69.5714 95.7133 69.0422C96.2072 68.1602 97.1245 67.1018 98.5709 67.1018C99.1001 67.1018 99.6999 67.2782 100.335 67.5604C100.794 67.2076 101.64 66.6784 102.769 66.6784C103.969 66.6784 105.168 67.2782 106.262 68.4777C107.109 68.513 109.578 68.9363 110.072 72.1468C110.672 72.2526 111.483 72.676 112.118 73.4521C112.718 74.193 113.318 75.4631 112.789 77.4034L112.753 77.5093L112.577 77.474C112.648 78.1796 112.401 78.8499 112.365 79.0263L112.401 79.0616C113 79.8377 113.318 81.5312 112.436 83.0835Z" fill="#C5AA79"/>
<path d="M107.814 77.3681C107.99 77.4034 108.166 77.4387 108.343 77.4387C109.119 77.5445 110.036 77.6856 110.848 78.2148C110.777 77.2976 110.636 76.8037 110.53 76.2392C110.424 75.7453 109.331 74.8633 107.708 74.8633C107.32 74.8633 106.967 74.8986 106.579 75.0044C106.12 75.1102 105.662 75.1455 105.273 75.1102C105.485 75.3572 105.732 75.6394 105.908 75.9217C106.755 76.8037 107.461 77.2976 107.814 77.3681Z" fill="#C5AA79"/>
<path d="M106.863 77.8973C107.322 79.1321 108.38 79.4849 108.38 79.4849C110.074 80.12 110.956 80.8608 111.097 81.7781C111.167 81.7075 111.203 81.6723 111.273 81.6017L111.309 81.5311C111.52 81.2136 111.661 80.755 111.45 80.0847C110.956 78.5324 109.227 78.2501 108.239 78.2501C107.886 78.2149 107.357 78.1443 106.863 77.8973Z" fill="#C5AA79"/>
<path d="M75.8539 92.0113C75.8539 92.0113 75.8164 92.0113 75.8164 91.9739C75.8164 91.9739 75.8164 92.0113 75.8539 92.0113Z" fill="#C5AA79"/>
<path d="M71.0879 80.4022C71.1232 80.4022 71.1232 80.4022 71.0879 80.4022C71.0879 80.4022 70.8762 80.5786 70.5234 80.8961C70.8762 80.5786 71.0879 80.4022 71.0879 80.4022Z" fill="#C5AA79"/>
<path d="M68.7942 82.519C68.6884 82.6248 68.5472 82.7659 68.4414 82.907C68.5825 82.7659 68.6884 82.6248 68.7942 82.519Z" fill="#C5AA79"/>
<path d="M73.5232 82.5542C73.3821 82.8012 72.994 83.2598 72.4648 83.789C72.9588 83.2598 73.3468 82.8012 73.5232 82.5542Z" fill="#C5AA79"/>
<path d="M95.0441 86.0822C95.1146 86.188 95.1499 86.1528 95.0794 86.0822C95.1499 86.188 95.1146 86.188 95.0441 86.0822C94.656 85.4119 94.4444 84.5652 94.268 83.6832C94.268 83.6479 94.3032 83.6126 94.3032 83.5773C94.3032 83.6126 94.3032 83.6479 94.268 83.6832C94.1974 83.9301 94.0916 84.2477 93.9504 84.7063C93.6682 85.4472 94.1974 86.188 94.6207 86.6114C95.1499 87.1053 95.538 87.4228 95.8202 87.6345C95.5027 87.1053 95.2558 86.6114 95.0441 86.0822Z" fill="#C5AA79"/>
<path d="M93.8811 82.9777C93.6341 81.2843 93.7047 79.6967 93.7047 79.6614C93.7047 79.6261 93.7047 79.6261 93.7047 79.5909C93.4224 80.2964 92.5404 80.7904 92.0818 81.4959C91.729 82.0604 92.1524 83.401 92.1524 83.4363C92.611 83.895 93.0696 84.2478 93.246 84.3889C93.4224 83.8244 93.7047 83.401 93.8811 82.9777Z" fill="#C5AA79"/>
<path d="M104.851 71.6175C105.203 71.4764 105.45 71.4764 105.733 71.4764C105.38 71.1236 104.11 69.9946 102.064 69.6065C102.064 69.6065 101.393 69.4301 100.476 69.4301C99.4882 69.4301 98.5709 69.6065 97.7242 69.9593C97.6889 69.9593 96.2425 70.5238 95.043 71.8644C95.043 71.8644 95.1135 71.935 95.1841 71.935C95.1841 71.935 96.2778 70.5944 97.7595 70.3121C97.9712 70.2769 98.2181 70.2416 98.3945 70.2416C99.594 70.2416 99.9115 70.9824 99.9468 71.1588V71.1941C99.9468 71.2647 99.9468 71.3 99.9468 71.3705C99.9468 71.3705 99.9468 71.3705 99.9821 71.3705C99.9821 71.3705 99.9821 71.4058 99.9468 71.4058C99.9468 71.4411 99.9468 71.4411 99.9468 71.4058C99.9468 71.4058 99.9468 71.3705 99.9821 71.3705C100.053 71.2294 100.194 71.053 100.37 70.9119C102.028 69.6418 104.851 71.6175 104.851 71.6175Z" fill="#C5AA79"/>
<path d="M106.121 87.1758C106.121 87.1758 106.403 89.0104 107.462 89.3279C108.238 89.5748 108.697 88.6929 108.697 87.8461C108.697 87.07 108.097 86.3997 108.026 86.2938C107.18 86.2586 106.474 85.941 106.121 85.7646C106.121 86.0469 106.086 86.5761 106.121 87.1758Z" fill="#C5AA79"/>
<path d="M111.202 74.9007C111.202 74.8633 111.164 74.8633 111.164 74.8633C111.164 74.8633 111.164 74.8633 111.202 74.9007Z" fill="#C5AA79"/>
<path d="M91.0223 81.2842C91.4457 80.508 92.1865 79.9436 92.7863 79.6966C93.1391 79.5555 93.4566 79.1674 93.7036 78.7088C93.7036 78.8499 93.7036 78.8499 93.7036 78.7088C93.7388 78.109 93.88 77.5798 94.0564 77.1212C93.3155 77.5093 92.9627 77.3329 91.1634 78.2149C89.8933 79.238 90.8106 80.9314 91.0223 81.2842C91.0223 81.3195 91.0576 81.3195 91.0576 81.3195C91.0576 81.3195 91.0576 81.3195 91.0223 81.2842Z" fill="#C5AA79"/>
<path d="M105.238 70.3828C105.274 70.3828 105.344 70.4181 105.415 70.4181H105.45C105.379 70.4534 105.309 70.4181 105.238 70.3828Z" fill="#C5AA79"/>
<path d="M108.306 89.9983C108.236 90.0335 108.165 90.0688 108.094 90.1041C107.565 90.2452 107.142 90.1041 106.824 89.7866C106.26 89.2574 106.26 89.2574 106.824 89.7866C106.824 89.7866 105.942 89.1163 105.731 88.0932C105.731 88.0226 105.695 87.952 105.695 87.8815C105.695 87.7756 105.66 87.7051 105.66 87.6698C105.66 87.7404 105.66 87.8109 105.695 87.8815C105.695 88.1284 105.731 88.5871 105.872 89.0457C105.978 89.2927 106.119 89.6455 106.295 89.963L106.33 89.9983L106.719 90.5627C106.683 90.5274 106.648 90.4922 106.648 90.4569C106.507 90.2805 106.401 90.1394 106.295 89.9277C106.084 89.6455 105.942 89.3279 105.872 89.0104C105.978 89.3279 106.084 89.6455 106.295 89.9277C106.401 90.1041 106.507 90.2805 106.648 90.4569C106.683 90.4922 106.683 90.5274 106.719 90.5627C107.177 91.0919 107.989 92.0092 108.835 92.2209C109.717 92.4325 110.211 91.3389 109.506 90.7038C109.188 90.4569 108.412 89.9277 108.306 89.9983Z" fill="#C5AA79"/>
<path d="M87.6377 101.006C87.6009 101.006 87.5641 101.006 87.5273 101.042C87.5273 101.006 87.5641 101.006 87.6377 101.006Z" fill="#C5AA79"/>
<path d="M99.0977 72.3938C99.4152 72.1115 99.5563 71.794 99.4857 71.4765C99.4152 71.2296 98.9565 70.8768 98.2862 70.8768C98.1098 70.8768 97.8981 70.9121 97.6865 70.9473C96.8045 71.1943 95.9225 72.0763 95.7461 72.2527C95.8872 72.2879 96.0283 72.3585 96.2047 72.3938C96.2753 72.4291 96.4517 72.5349 96.6281 72.6055C96.6634 72.6407 96.7339 72.6407 96.8045 72.676C96.8045 72.7113 98.1451 73.0641 99.0977 72.3938ZM96.5928 72.0057C96.5575 72.041 96.5928 72.0057 96.5928 72.0057V72.0057Z" fill="#C5AA79"/>
<path d="M103.299 72.7464C103.335 72.7111 103.405 72.6759 103.44 72.6406C103.617 72.5347 103.793 72.3936 103.864 72.3584C104.04 72.2878 104.181 72.2172 104.322 72.1467C104.146 72.0056 103.123 71.2294 102.241 71.1236C102.029 71.0883 101.853 71.0883 101.641 71.1236C100.971 71.2294 100.548 71.6175 100.512 71.8644C100.477 72.2172 100.653 72.4995 101.041 72.7464C102.029 73.3109 103.299 72.7464 103.299 72.7464ZM103.44 72.0761C103.44 72.0408 103.44 72.0761 103.44 72.0761V72.0761Z" fill="#C5AA79"/>
<path d="M95.7523 72.9582L95.7148 72.9956L95.7523 72.9582Z" fill="#C5AA79"/>
<path d="M105.771 72.5386C105.771 72.5386 105.772 72.5015 105.734 72.4644C105.772 72.5015 105.771 72.5015 105.771 72.5386Z" fill="#C5AA79"/>
<path d="M95.3246 73.064C95.3599 73.064 95.3951 73.064 95.5715 72.9229C95.3951 73.064 95.3599 73.064 95.3246 73.064C95.2893 73.064 95.254 73.0287 95.2188 72.9934C95.254 73.064 95.2893 73.064 95.3246 73.064Z" fill="#C5AA79"/>
<path d="M95.5349 74.4752C95.5702 74.44 95.5702 74.44 95.6054 74.4047C96.2405 73.8402 96.8049 73.558 97.3694 73.3816C97.4047 73.3816 97.4047 73.3816 97.3694 73.3816C97.0519 73.3816 96.7697 73.311 96.4874 73.2405C96.4874 73.2405 96.4874 73.2405 96.4874 73.2052C95.9582 73.0288 95.8877 72.8877 94.794 72.7465C94.6176 72.7113 94.3354 72.676 94.0179 72.7465C93.9826 72.7465 93.9473 72.7465 93.912 72.7818C93.9473 72.7818 93.9826 72.7818 94.0179 72.7465C93.9473 72.7465 93.8768 72.7818 93.7709 72.7818C93.2064 72.9582 92.6067 73.4874 92.2539 74.828C92.6773 74.7575 93.0653 74.7927 93.3829 74.828C94.3354 74.8633 95.1115 74.6516 95.6054 74.44C95.6054 74.44 95.5702 74.4752 95.5349 74.4752Z" fill="#C5AA79"/>
<path d="M93.032 102.205C93.032 102.205 92.9967 102.205 93.032 102.205C92.9967 102.205 92.9967 102.205 93.032 102.205C93.0673 102.029 93.0673 101.852 93.0673 101.676C93.0673 100.723 92.2558 99.9471 91.268 99.9471C90.2802 99.9471 89.4688 100.723 89.4688 101.676C89.4688 102.628 90.2802 103.405 91.268 103.405C92.0794 103.405 92.785 102.875 93.032 102.205C92.9967 102.205 93.032 102.205 93.032 102.205ZM92.9614 102.17C92.9967 102.17 92.9967 102.17 92.9614 102.17C92.9967 102.205 92.9967 102.205 92.9614 102.17C92.9967 102.17 92.9967 102.17 92.9614 102.17Z" fill="#C5AA79"/>
<path d="M113.423 117.34C114.235 117.34 114.976 117.446 115.752 117.587C108.061 113.953 99.0646 107.497 95.0427 104.463C96.2775 106.015 98.0062 108.132 98.8176 109.084C99.876 110.355 103.827 114.447 106.579 116.352C99.6643 113.001 94.9016 105.768 93.3845 103.228L93.3493 103.193C93.2081 103.369 93.067 103.51 92.8906 103.651C93.6315 105.027 100.158 117.552 104.745 122.032C106.544 119.21 109.754 117.34 113.423 117.34Z" fill="#C5AA79"/>
<path d="M89.504 129.476C89.8215 128.982 90.386 128.03 90.5977 127.359C90.9505 126.372 90.9858 124.361 90.9152 123.584C90.9152 123.584 90.9152 123.196 90.8799 122.279C90.8799 121.962 90.8094 121.08 90.8446 120.021C90.8799 118.786 90.9152 118.046 90.9152 118.046C90.9152 118.046 90.7388 117.763 90.2449 117.94C89.8568 118.081 88.7632 118.434 89.116 121.997V122.032L89.6804 122.879C89.8921 123.091 90.1038 123.761 89.8216 123.973C89.7157 124.078 89.4335 124.114 89.0807 123.584" fill="#C5AA79"/>
<path d="M121.328 133.921C122.951 132.228 123.868 130.005 123.868 127.712C123.868 122.632 119.564 118.539 114.272 118.539C108.98 118.539 104.676 122.667 104.676 127.712C104.676 131.064 106.546 134.027 109.65 135.685C110.391 135.826 110.956 135.897 111.379 135.897C111.767 135.897 111.979 135.826 112.155 135.791C112.226 135.756 112.296 135.756 112.367 135.756C112.649 135.721 113.707 134.733 113.99 134.38C113.672 134.38 112.931 134.345 112.437 134.168C111.591 134.768 110.709 135.05 109.897 135.05C109.015 135.05 108.486 134.697 108.451 134.662C108.239 134.451 108.133 134.239 108.133 134.062V130.534H110.532V128.241H113.355V123.972H111.52L110.638 124.396V122.385L111.52 122.808H113.355V120.056L112.931 119.21H115.013L114.589 120.056V122.808H116.389L117.271 122.385V124.396L116.424 123.972H114.625V128.241H117.447V130.534H119.846V134.239C120.058 134.415 120.234 134.592 120.41 134.803C120.446 134.697 120.834 134.415 121.328 133.921Z" fill="#C5AA79"/>
<path d="M88.6934 124.113C88.6229 124.043 88.517 123.972 88.4465 123.867C88.3406 123.655 87.3881 122.173 87 121.785C87 121.785 86.4355 121.15 83.3309 120.938C83.3309 120.938 83.2957 120.938 83.2604 120.938C83.084 120.938 82.6253 121.009 82.5901 121.538C82.5195 122.244 82.6606 123.902 82.6606 123.902L83.4721 127.077H83.5073L83.4721 127.148V127.183C83.3662 127.5 82.2373 131.134 84.0365 133.71L84.354 133.039C84.3893 133.039 86.5061 131.84 86.9295 131.487C87.635 130.993 87.5292 131.134 87.635 130.464L87.4234 124.713C87.3528 124.678 87.0353 123.584 87 123.443C86.8236 123.408 85.73 123.09 85.3066 122.526C84.9891 122.632 84.3893 122.702 83.9307 122.702C83.6132 122.702 83.084 122.667 82.9781 122.526C82.9429 122.455 82.9429 122.42 82.9781 122.349C83.0487 122.244 83.1898 122.208 83.4015 122.244C83.5426 122.279 84.0365 122.349 84.4952 122.349C84.848 122.349 85.1302 122.314 85.236 122.208L85.2713 122.173L85.3066 122.208C85.3772 122.279 85.4477 122.314 85.5183 122.385C85.9063 122.702 86.1886 122.914 86.6119 122.949C86.9295 122.985 87.2117 122.879 87.2117 122.879L87.2823 122.843V122.914C87.2823 122.914 87.2823 123.831 87.9878 124.36C87.9878 124.36 88.0584 124.431 88.1642 124.466C88.2701 124.502 88.3406 124.502 88.4112 124.502C88.5523 124.502 88.6582 124.396 88.764 124.255C88.7993 124.219 88.7287 124.149 88.6934 124.113ZM87 128.171L86.9647 127.818L87.1059 128.171C87.3175 128.77 87.4939 129.582 87.0706 130.111C86.6119 130.711 86.0827 131.028 85.483 131.028C84.8832 131.028 84.354 130.711 84.3188 130.675C83.4368 129.864 83.3662 129.017 83.4721 128.488L83.5073 128.276L83.5779 128.453C83.6485 128.7 83.8954 129.511 84.354 130.005C84.6363 130.323 84.9891 130.464 85.4477 130.464C85.9063 130.464 86.2944 130.287 86.4355 130.217C86.8942 129.97 87.1059 129.264 87 128.171Z" fill="#C5AA79"/>
<path d="M87.1743 116.458C87.1743 116.458 86.504 116.634 86.2217 116.564C86.2217 116.564 85.7631 117.869 85.375 118.68C85.375 118.68 86.0806 118.645 87.2801 119.351" fill="#C5AA79"/>
<path d="M88.7985 123.09C88.481 122.561 87.4226 120.868 87.4226 120.868C87.4226 120.868 85.7644 119.915 82.9774 119.668C82.2365 119.88 82.4129 120.974 82.4129 120.974C82.4129 120.974 82.7657 120.48 83.8946 120.621C85.2705 120.797 85.9408 120.833 86.8934 121.256C87.4931 121.538 87.8459 122.173 88.5515 123.655C88.5515 123.655 88.6927 123.937 88.8338 124.008L88.7985 123.09Z" fill="#C5AA79"/>
<path d="M87.5287 120.057C86.7879 119.421 85.6942 118.998 84.3536 118.786H84.3183C84.283 118.786 84.2478 118.751 84.2125 118.716C84.1066 118.645 83.9302 118.504 83.5422 118.469C83.4716 118.504 83.1894 118.645 83.0835 118.892C83.0483 119.033 83.0835 119.21 83.1894 119.421C83.3305 119.527 83.4716 119.563 83.6127 119.563C83.895 119.563 84.1419 119.421 84.283 119.28C84.3183 119.245 84.3536 119.245 84.3889 119.245C84.9181 119.245 87.176 120.268 87.2112 120.268C87.6346 120.515 88.3754 121.75 88.693 122.597C88.693 122.173 88.5166 120.868 87.5287 120.057Z" fill="#C5AA79"/>
<path d="M87.3526 115.117C85.8355 115.399 85.4475 115.541 85.0947 115.999C84.636 116.528 83.9304 117.587 84.001 118.257C84.2832 118.434 84.9535 118.539 85.0947 118.539C85.1652 118.433 85.3416 117.975 85.518 117.516C85.6239 117.234 85.6944 116.987 85.765 116.775C85.9061 116.352 85.9061 116.317 85.9767 116.317H86.0119C86.0119 116.317 86.0119 116.317 86.0472 116.317C86.2942 116.317 87.3878 116.105 87.5642 115.999L87.5995 115.964V116.035C87.6701 116.352 88.5873 117.128 88.9754 117.234C89.0813 117.269 89.1518 117.269 89.2577 117.269C89.5399 117.269 89.8927 117.058 89.928 117.022C89.8574 116.952 88.8343 116.105 88.8696 115.964L88.6579 115.717L88.4462 115.47C88.4462 115.47 88.0582 115.047 87.529 115.047C87.4584 115.082 87.4231 115.117 87.3526 115.117Z" fill="#C5AA79"/>
<path d="M114.868 131.946C116.455 132.016 117.725 132.545 118.678 133.145V131.593H117.302H116.243V130.605V129.3H111.622V130.605V131.593H110.563H109.188V133.004C110.846 132.581 111.904 132.122 111.904 132.122C113.562 131.734 114.868 131.946 114.868 131.946Z" fill="#C5AA79"/>
<path d="M118.715 97.3027C118.752 97.3027 118.825 97.3027 118.899 97.2659C118.788 97.3027 118.715 97.3027 118.715 97.3027Z" fill="#C5AA79"/>
<path d="M92.1849 96.3486C96.5243 98.0068 102.134 97.9715 103.686 97.9362C96.3126 99.8413 93.2433 100.053 93.1728 99.9824C92.8905 99.6649 92.0791 99.4532 92.1144 99.4885L92.1849 96.3486Z" fill="#C5AA79"/>
<path d="M92.9984 100.055L92.9609 100.018L92.9984 100.055Z" fill="#C5AA79"/>
<path d="M112.401 139.707C112.436 139.813 112.436 139.883 112.365 139.954C112.33 140.025 112.224 140.095 112.048 140.06C112.013 140.06 109.861 139.742 108.202 138.649C108.626 139.072 109.331 139.707 110.037 140.201C111.237 141.048 112.542 141.471 113.882 141.471C115.399 141.471 116.458 140.942 116.458 140.942C119.421 139.425 121.538 138.19 121.997 137.908C121.997 137.414 121.362 135.085 121.15 134.803C120.974 134.98 120.797 135.121 120.656 135.227L120.621 135.297C120.621 135.297 120.444 135.262 120.409 135.262C120.409 135.262 118.892 133.71 117.587 133.18C116.14 132.581 115.294 132.545 114.482 132.51H114.341C114.235 132.51 114.129 132.51 114.059 132.51C113.636 132.51 113.036 132.545 112.013 132.686C111.766 132.828 111.166 133.039 110.425 133.286C110.46 133.392 108.732 133.921 108.767 133.71C108.661 133.886 108.626 134.062 108.696 134.203C108.838 134.486 109.296 134.697 109.896 134.697C110.072 134.697 110.249 134.697 110.46 134.662C111.801 134.45 112.33 133.639 112.33 133.639L112.365 133.604L112.401 133.639C112.612 133.78 113.177 134.062 113.812 134.062C114.024 134.062 114.235 134.027 114.447 133.957C114.588 133.921 114.906 133.639 114.976 133.533L115.011 133.498L115.047 133.533C115.153 133.674 115.011 133.921 114.623 134.203C114.341 134.415 113.847 134.98 113.847 135.015C113.847 135.015 112.895 136.179 111.66 136.285C111.519 136.285 111.342 136.32 111.166 136.32C110.072 136.32 109.014 135.967 109.014 135.967C107.673 135.509 106.509 134.098 106.156 133.674C106.297 134.168 106.827 134.909 107.497 135.932C108.52 137.555 111.025 137.873 111.625 137.873C111.66 137.873 112.154 138.12 111.872 138.014C111.907 138.049 111.907 138.12 111.907 138.155C111.907 138.261 111.625 138.613 111.413 138.578C109.226 138.296 108.555 137.731 107.814 137.167C107.744 137.132 107.709 137.061 107.638 137.026C107.179 136.673 106.756 136.003 106.333 134.98C106.368 135.403 106.544 136.038 106.932 136.744C107.603 137.943 108.485 138.79 110.884 139.495C110.919 139.495 110.99 139.531 111.025 139.531C111.272 139.601 111.589 139.707 111.872 139.707C111.942 139.707 112.013 139.707 112.083 139.672C112.119 139.672 112.154 139.672 112.154 139.672C112.154 139.637 112.401 139.707 112.401 139.707Z" fill="#C5AA79"/>
<path d="M111.165 95.3254L116.916 98.9592C117.127 99.0651 118.962 100.088 120.232 101.182C121.431 102.24 133.038 131.275 133.038 131.275C132.474 131.91 131.874 132.545 131.274 133.145C130.604 133.816 130.498 133.957 129.757 134.592C129.722 134.592 129.017 134.062 129.017 134.062C127.182 132.757 125.736 132.087 124.748 131.734C127.147 129.3 127.993 129.406 128.276 129.335C128.311 129.335 128.311 129.335 128.346 129.335H128.417L128.593 129.3L128.558 129.123L128.523 128.841L128.487 128.665L128.311 128.7H128.24C128.24 128.7 128.205 128.7 128.135 128.735C126.723 129.017 125.136 130.182 124.042 131.134C124.465 130.041 124.677 128.876 124.677 127.712C124.677 123.514 121.925 119.739 117.833 118.292C113.317 115.929 109.295 113.001 106.614 111.06C105.556 110.319 104.744 109.72 104.215 109.402C103.897 109.226 102.592 108.308 100.369 106.721C106.967 109.896 114.305 112.119 117.833 112.436H117.903H118.08L118.115 112.26L118.15 112.013L118.186 111.836L118.009 111.801L117.939 111.766C116.351 111.413 106.896 107.956 99.5581 104.357C101.64 104.78 104.286 105.168 106.755 105.168C108.766 105.168 110.389 104.886 111.518 104.357L112.223 104.004L113.176 103.546L112.153 103.651L111.377 103.722C110.354 103.828 109.225 103.898 108.096 103.898C101.393 103.898 95.1481 101.993 94.1603 101.676V101.64C94.1603 101.499 94.1603 101.394 94.125 101.252C94.1603 101.288 105.344 99.4884 111.165 95.3254Z" fill="#C5AA79"/>
<path d="M100.971 142.847C100.583 142.882 100.194 142.882 99.7711 142.882C95.9962 142.882 93.3149 141.401 92.5388 140.907C91.8685 141.154 91.1629 141.295 90.3867 141.365L90.4926 144.752C93.6324 145.422 96.8429 145.775 100.089 145.775C106.051 145.775 111.801 144.646 117.234 142.388C120.41 141.048 123.655 139.107 126.442 137.096C125.913 136.461 123.161 133.357 123.161 133.357L122.315 133.992C122.315 133.992 123.514 137.767 123.514 137.802L121.962 138.931C121.08 139.425 118.787 140.695 118.187 141.012L118.081 141.083C117.305 141.542 115.823 142.388 113.989 142.388C113.213 142.388 112.436 142.247 111.731 141.93C110.919 141.577 110.179 141.154 109.508 140.695C108.838 140.766 104.64 142.635 100.971 142.847Z" fill="#C5AA79"/>
<path d="M88.096 95.3254H88.0586C88.0586 95.3629 88.096 95.3629 88.096 95.3254Z" fill="#C5AA79"/>
<path d="M85.8359 62.1626V62.1979L86.4357 62.7624L87.0707 62.1626L86.4357 61.5629L85.8359 62.1626Z" fill="#C5AA79"/>
<path d="M87.0352 59.8695C87.0352 59.799 86.9999 59.7284 86.9293 59.6931C86.8941 59.6931 86.8941 59.7284 86.8588 59.7284C86.8235 59.7284 86.7882 59.7637 86.7529 59.7637C86.7177 59.7637 86.6824 59.7637 86.6471 59.799C86.6118 59.799 86.5765 59.799 86.5765 59.799H86.5413C86.4354 59.799 86.2943 59.799 86.1885 59.7637H86.1532C86.1179 59.7637 86.1179 59.7637 86.0826 59.7284C86.0474 59.7284 86.0474 59.7284 86.0121 59.6931C85.9415 59.7284 85.9062 59.799 85.9062 59.8695C85.9062 59.9754 85.9768 60.0459 86.0826 60.0459H86.8941C86.9293 60.0459 87.0352 59.9401 87.0352 59.8695Z" fill="#C5AA79"/>
<path d="M85.8359 63.8912V63.9265L86.4357 64.491L87.0354 63.9265L87.0707 63.8912L87.0354 63.9265L86.4357 63.3973L85.8359 63.9265V63.8912Z" fill="#C5AA79"/>
<path d="M86.082 65.1613H86.8229V64.6321L86.4701 64.9849L86.082 64.6321V65.1613Z" fill="#C5AA79"/>
<path d="M86.8592 65.4789H86.083L85.8008 66.4667H85.9066H87.1061H87.1414L86.8592 65.4789Z" fill="#C5AA79"/>
<path d="M86.082 60.5044V61.3511L86.4348 60.9983L86.7876 61.3511V60.5044H86.082Z" fill="#C5AA79"/>
<path d="M86.7905 54.9656H85.3087C85.3087 55.0009 85.2734 55.0009 85.2734 55.0361L85.7674 56.3062C85.7321 56.3415 85.7321 56.3415 85.7674 56.3062L85.9085 56.6943L86.3318 57.8585C86.3671 57.8585 86.3671 57.8585 86.4024 57.8585C86.4377 57.8585 86.4729 57.8585 86.5082 57.8585L87.6019 54.9656H87.2491H86.7905Z" fill="#C5AA79"/>
<path d="M85.4475 54.648H85.5887H87.1057L87.0704 54.6833L87.1057 54.648H87.3879C87.4585 54.648 87.529 54.6128 87.5643 54.6128C87.8113 54.5775 87.9877 54.5069 88.0229 54.4716C87.9877 54.4364 87.8818 54.4011 87.776 54.3658L87.8113 54.3305L87.776 54.3658C87.6701 54.3305 87.529 54.3305 87.3879 54.2953C87.1409 54.26 86.8234 54.2247 86.4354 54.26C86.259 54.26 86.0826 54.26 85.9062 54.26C85.3417 54.2953 84.9889 54.3658 84.8478 54.4364L84.8125 54.4716C84.8831 54.5422 85.0947 54.6128 85.4475 54.648Z" fill="#C5AA79"/>
<path d="M86.7492 58.2819L86.855 58.3524L86.7492 58.2819C86.7492 58.2819 86.7139 58.2466 86.6786 58.2466C86.7139 58.2819 86.7139 58.2819 86.7492 58.2819L86.6433 58.2113C86.5375 58.1761 86.3964 58.1408 86.2905 58.2113L86.0436 58.3172L86.2905 58.2113C86.3964 58.1761 86.5375 58.1761 86.6433 58.2113C86.5728 58.1761 86.5375 58.176 86.4669 58.176C86.1494 58.176 85.8672 58.423 85.8672 58.7405C85.8672 58.9522 85.973 59.0933 86.1141 59.1992C86.1494 59.1992 86.1494 59.2344 86.1847 59.2344C86.22 59.2344 86.2553 59.2697 86.2905 59.2697C86.2553 59.2697 86.22 59.2344 86.1847 59.2344C86.3258 59.305 86.5375 59.305 86.6786 59.2344C86.6433 59.2344 86.6081 59.2697 86.5728 59.2697C86.6081 59.2697 86.6433 59.2344 86.6786 59.2344C86.7139 59.2344 86.7139 59.1992 86.7492 59.1992C86.9256 59.0933 87.0314 58.9169 87.0314 58.7052C87.0314 58.5641 86.8903 58.3877 86.7492 58.2819Z" fill="#C5AA79"/>
<path d="M86.2246 140.166C86.2246 140.203 86.2246 140.203 86.1875 140.24C86.2246 140.24 86.2246 140.203 86.2246 140.166Z" fill="#C5AA79"/>
<path d="M88.1314 140.483L87.6727 132.51C87.4611 132.722 87.4611 132.722 84.7798 134.239L84.3212 135.05L82.9453 135.791L79.7701 137.379L79.5938 141.224C79.5938 141.224 86.6849 144.399 88.343 144.435L88.1314 140.483Z" fill="#C5AA79"/>
<path d="M87.1777 113.988C87.1777 113.988 86.7544 94.4788 86.7191 94.4788C86.7191 94.4788 82.5208 94.8316 76.7702 103.828C76.7702 103.828 76.6644 104.004 76.5586 104.145C76.5233 104.181 76.488 104.216 76.488 104.286C76.3469 104.533 76.1705 104.78 76.1705 104.816C76.0646 104.922 75.7471 105.768 75.5002 106.474C75.4296 106.721 75.3238 106.968 75.2532 107.179C75.2532 107.179 75.2532 107.179 75.2532 107.215C75.1474 107.532 75.0415 107.814 74.9357 108.097C74.6887 108.802 74.5123 109.331 74.5123 109.367L74.3007 109.966H74.3359L73.7362 111.801L71.2666 117.869L68.8676 122.032C69.679 121.785 70.9844 121.432 72.0075 121.326C72.5367 121.256 72.9953 121.221 73.3834 121.221C73.5951 121.221 73.8067 121.221 73.9479 121.256L74.2301 121.291L74.5829 121.573C74.6535 121.715 74.6182 121.891 74.5123 122.032C74.4065 122.173 74.2301 122.279 74.0537 122.279C73.9479 122.279 73.7715 122.244 73.5951 122.067H73.5598C72.2192 122.067 68.6559 123.161 68.0209 123.479C67.7034 123.655 66.2922 125.348 64.2812 127.889C65.5866 129.652 67.0683 131.346 68.6206 132.933C68.9382 132.193 72.8189 124.749 82.3091 125.772C82.2033 125.348 81.3566 123.09 81.7799 119.598C82.1327 116.599 84.0025 114.024 87.1777 113.988ZM77.9345 102.875C77.8639 102.911 77.8992 102.911 77.9345 102.875V102.875Z" fill="#C5AA79"/>
<path d="M88.905 114.412C89.4695 115.682 90.4926 116.811 91.0218 117.446C91.5863 118.116 91.4451 118.504 91.4099 119.386C91.4099 119.563 91.5863 121.256 91.4099 121.256C91.5157 123.479 91.9038 125.772 91.0923 127.924C90.8454 128.559 90.5279 129.159 90.1751 129.723C89.9634 130.076 89.9634 129.935 89.9634 130.182C89.9987 130.64 89.9987 131.064 90.034 131.522C90.1398 134.309 90.2809 137.132 90.3868 139.919C90.3868 139.989 90.3868 140.095 90.3868 140.166C92.6446 139.989 94.4439 138.755 96.2432 137.52C95.6081 138.472 95.0437 139.531 94.0911 140.201C96.3843 141.648 102.876 142 107.039 139.989C106.474 139.46 104.463 136.673 105.098 133.039C105.239 132.228 103.581 132.581 103.652 127.677C103.687 125.031 104.71 123.479 104.71 123.479C100.759 121.785 92.1507 104.145 92.1507 104.145C90.9512 104.675 89.3989 103.898 88.905 102.805C88.27 101.429 89.152 99.6649 90.5632 99.2415C91.0923 99.1004 90.8101 97.4776 90.8101 96.9836C90.8101 95.8547 90.8101 94.7258 90.8101 93.5615C90.3162 93.7026 88.2347 93.9496 88.27 94.4788L88.905 114.412Z" fill="#C5AA79"/>
<path d="M110.498 81.9192C110.428 82.0603 110.322 82.2014 110.181 82.3073C110.075 83.5773 109.087 85.3766 107.358 85.3766C107.217 85.3766 107.076 85.3766 106.97 85.3413C106.512 85.2708 106.194 85.0944 105.982 84.7769C105.665 84.2829 105.841 83.6832 105.841 83.6479L105.912 83.4009L106.018 83.6126C106.123 83.8596 106.441 84.4946 106.617 84.6357C106.829 84.7769 107.076 84.8827 107.358 84.8827C108.452 84.8827 109.546 83.5068 109.722 82.6248C110.11 80.8608 107.887 80.2258 107.852 80.2258C107.641 80.1552 107.464 80.0494 107.288 79.9435L107.323 80.1552C107.323 80.1552 107.429 80.5786 107.711 80.9667C107.887 81.2136 108.099 81.4253 108.311 81.637C108.664 81.9898 108.981 82.3073 108.981 82.7659C108.981 83.7537 108.381 84.3535 107.394 84.3535C107.147 84.3535 106.9 84.3182 106.617 84.2477H106.582L106.617 84.0713H106.653C106.759 84.1065 106.864 84.1065 106.97 84.1065C107.641 84.1065 108.205 83.6126 108.381 83.1187C108.452 82.907 108.558 82.519 108.205 82.2014C107.182 81.2842 107.182 80.2611 107.182 80.2258V79.9083C106.088 79.0968 106.159 77.7915 106.159 77.7562L106.123 77.6857L105.7 77.2623C105.559 77.1212 105.418 76.9448 105.312 76.7684C105.171 76.5567 105.1 76.3803 105.03 76.2745C104.642 75.8158 104.218 75.4278 103.76 75.1102C103.619 75.0397 103.442 74.9691 103.336 74.8633C102.737 74.5458 102.137 74.4046 101.643 74.2635C101.431 74.193 101.22 74.1577 101.043 74.0871C100.832 74.0166 100.232 73.5932 100.02 73.064C99.8437 73.311 99.5262 73.5579 99.1028 73.8049C98.7853 73.946 98.5031 74.0519 98.2208 74.1577C97.4094 74.4399 96.6685 74.7222 95.8218 75.8158C94.7987 77.1212 94.9398 79.626 94.9751 79.9083C94.9751 79.9083 94.9751 79.9435 94.9751 80.0141V80.0494C94.9045 82.3073 95.222 84.2829 95.9276 85.7647C95.9629 85.8705 96.0335 85.9411 96.0688 86.0469C96.104 86.1175 96.1393 86.1528 96.1393 86.188C96.8449 87.5287 98.3267 89.7513 100.091 89.6454C102.172 89.5043 103.125 88.1637 103.16 88.1284L103.195 88.0931C103.195 88.0931 103.336 87.952 103.477 87.952C103.548 87.952 103.619 87.9873 103.689 88.0579C103.76 88.1637 103.689 88.2695 103.654 88.3401C103.442 88.7282 102.278 90.1041 100.302 90.1041C100.267 90.1041 100.232 90.1041 100.161 90.1041C98.3267 90.0335 97.0213 88.4459 96.3157 87.3523L96.2804 87.4228H96.2099C96.1746 87.4228 95.6454 87.2817 95.0104 87.0347C95.0104 87.0347 94.4459 87.8462 94.7987 88.3401C94.834 88.3754 94.9751 88.4812 95.2573 88.4812C95.4337 88.4812 95.6454 88.4107 95.8924 88.3048C95.9629 88.2695 96.0335 88.2343 96.0688 88.2343C96.1393 88.2343 96.1746 88.2695 96.1746 88.2695C96.1746 88.3048 96.2099 88.3048 96.2099 88.3401V88.3754C96.2452 88.4459 96.4216 88.9398 96.2804 89.5396C96.2452 89.716 96.1746 89.8571 96.0335 89.963C96.0688 90.4921 95.7865 90.8097 95.5396 90.9861L95.5043 91.0566C95.0104 91.7622 93.6345 92.4325 92.823 92.8206C92.5408 92.9617 92.2233 93.1028 92.188 93.1734C92.1527 93.244 92.0822 93.632 92.0469 94.8315C92.7877 95.1491 96.0688 96.4544 102.172 96.4544C102.807 96.4544 103.477 96.4191 104.148 96.3838C104.324 96.4544 104.606 96.4544 104.924 96.3486C107.887 95.6077 108.946 93.9143 108.946 93.9143C106.088 94.0201 105.136 91.7622 105.136 91.7622C105.1 91.6564 105.03 91.5153 104.995 91.4094C104.148 89.6454 105.065 87.9167 105.065 87.9167C105.065 87.8462 105.065 87.7403 105.065 87.7051C105.065 87.317 105.1 86.7878 105.171 86.2939C105.171 85.9411 105.206 85.6236 105.312 85.2708C105.347 85.1649 105.383 85.0238 105.524 84.9533L105.594 84.8827L105.665 84.918H105.7L105.771 84.9533C106.194 85.1649 106.723 85.3766 107.358 85.3766C107.887 85.3766 108.452 85.2002 109.016 84.8827C111.168 83.789 110.604 82.1309 110.498 81.9192ZM99.8437 77.5445C99.879 77.5093 99.9142 77.5093 99.9495 77.5093C100.055 77.5093 100.126 77.5798 100.232 77.6151C100.267 77.6504 100.338 77.6857 100.373 77.6857C100.373 77.6857 100.443 77.6504 100.479 77.6151C100.549 77.5445 100.62 77.474 100.69 77.474C100.726 77.474 100.796 77.474 100.832 77.5798C100.867 77.6151 100.867 77.7209 100.796 77.8268C100.726 78.0032 100.479 78.1796 100.302 78.2148H100.267C100.02 78.2148 99.8437 77.7915 99.8084 77.6857L99.7731 77.6151L99.8437 77.5445ZM101.361 83.2951L101.572 83.5773C101.608 83.6126 101.819 83.8949 101.714 84.1418C101.678 84.2829 101.537 84.3535 101.361 84.3888C101.255 84.4241 101.114 84.3888 101.043 84.3535C101.008 84.4241 100.937 84.5299 100.867 84.6005C100.726 84.7416 100.549 84.8121 100.373 84.8121C100.02 84.8121 99.7731 84.6005 99.6673 84.4241C99.5967 84.4593 99.4909 84.4946 99.4203 84.4946C99.0675 84.3888 99.0323 84.1418 99.0323 84.0713C99.0323 83.8596 99.2087 83.6479 99.3498 83.6126L99.5967 83.5773L99.4556 83.7537C99.4203 83.8243 99.3851 83.8949 99.3851 83.9301C99.3851 83.9301 99.4203 83.9654 99.4909 83.9654C99.632 83.9654 99.7026 83.8243 99.7026 83.8243L99.8084 83.6479L99.6673 82.9776L99.5262 78.9204H100.02V84.0713C100.055 84.1771 100.161 84.2477 100.373 84.2477H100.408C100.69 84.2477 100.761 83.8596 100.761 83.8243L100.796 83.6479L100.937 83.789C101.008 83.8596 101.184 83.9654 101.29 83.9654C101.325 83.9654 101.325 83.9654 101.325 83.9654C101.325 83.9654 101.396 83.8949 101.361 83.6832V83.2951ZM100.902 82.9776L100.479 83.9301L100.62 78.8852H101.114L100.902 82.9776ZM95.3632 77.7915C95.3984 77.7562 95.9276 76.7331 97.2683 76.7331C97.4094 76.7331 97.5858 76.7331 97.7269 76.7684C98.8206 76.9448 99.5262 77.8268 99.5262 77.8973L99.8437 78.3207L99.3851 78.0384C99.3851 78.0384 98.3267 77.4387 97.5505 77.3681C96.4921 77.2976 95.5043 77.9326 95.469 77.9326L95.1515 78.1443L95.3632 77.7915ZM98.6089 79.4496C98.5383 79.3791 98.4325 79.2732 98.2561 79.1674C98.2208 79.3085 98.1855 79.4144 98.0797 79.5202C98.0444 79.5555 98.0444 79.5908 98.0091 79.5908C97.868 79.7672 97.7622 79.873 97.4094 79.873H97.1624H97.1271C96.9155 79.7671 96.6685 79.626 96.598 79.4144C96.5627 79.3438 96.5627 79.238 96.5627 79.1321C96.5627 79.1321 96.5274 79.1321 96.5274 79.1674C96.1393 79.3791 95.716 79.5908 95.4337 79.5908H95.2926L95.3279 79.4496C95.3632 79.3791 95.4337 79.1674 95.5043 79.0968C95.6101 78.9557 96.3157 78.1443 97.4094 78.1443C97.6211 78.1443 97.7975 78.1796 98.0091 78.2148C99.1028 78.5676 99.1381 79.5907 99.1381 79.626V80.1199L98.9617 79.873C98.9617 79.8377 98.75 79.5907 98.6089 79.4496ZM101.89 86.5408C101.784 86.5761 101.643 86.6114 101.467 86.6114C101.325 86.6114 101.149 86.6114 100.973 86.5761C100.867 86.5761 100.761 86.5408 100.69 86.5761L100.655 86.6114C101.467 86.6114 101.714 86.9289 101.714 87.1053C101.714 87.1759 101.678 87.317 101.608 87.3875C101.537 87.4581 101.467 87.4934 101.361 87.4934C101.361 87.4934 101.325 87.4934 101.29 87.4934C101.255 87.4934 101.22 87.4934 101.184 87.4934C100.973 87.4934 100.69 87.4581 100.62 87.4228C100.408 87.4228 100.302 87.4581 100.161 87.4581C100.055 87.4581 99.9848 87.4934 99.879 87.4934C99.8084 87.4934 99.7731 87.4934 99.7026 87.4934C99.5967 87.4581 99.4556 87.317 99.4203 87.2111C99.385 86.8936 99.5615 86.7878 99.879 86.682C99.9495 86.6467 100.02 86.6467 100.091 86.6467L100.055 86.6114C99.9142 86.6467 99.7378 86.682 99.632 86.682C99.1734 86.682 98.9264 86.3997 98.8206 86.2586L98.6795 86.0469H98.9264C98.9617 86.0469 98.997 86.0469 99.0323 86.0469C99.2087 86.0469 99.3498 86.0116 99.4556 85.9764C99.4909 85.9764 99.6673 85.8705 99.7379 85.6941V85.6588L99.7731 85.6236C99.8084 85.5883 99.879 85.553 99.9495 85.553C100.02 85.553 100.091 85.5883 100.161 85.6588C100.161 85.6588 100.196 85.6941 100.373 85.6941H100.408C100.585 85.6941 100.62 85.6588 100.655 85.5883L100.69 85.553C100.69 85.553 100.69 85.553 100.726 85.5177H100.761C100.796 85.4824 100.832 85.4824 100.867 85.4824H100.902H100.937C101.043 85.5177 101.149 85.5883 101.255 85.6588C101.396 85.7647 101.502 85.8705 101.678 85.8705C101.749 85.8705 101.996 85.8705 102.172 85.8352L102.313 86.0469C102.243 86.2586 102.066 86.4703 101.89 86.5408ZM105.312 79.626C105.065 79.626 104.712 79.4144 104.395 79.238C104.359 79.2027 104.289 79.1674 104.254 79.1674C104.254 79.2732 104.254 79.3438 104.218 79.4496C104.148 79.6613 103.901 79.8024 103.689 79.9083H103.654H103.407C103.054 79.9083 102.948 79.7671 102.807 79.626C102.772 79.5907 102.772 79.5555 102.737 79.5555C102.666 79.4496 102.596 79.3438 102.56 79.2027C102.419 79.2732 102.313 79.3791 102.207 79.4849C102.102 79.5908 101.89 79.873 101.89 79.873L101.714 80.1199V79.626C101.714 79.626 101.714 78.6029 102.842 78.2148C103.054 78.1443 103.231 78.1443 103.442 78.1443C104.571 78.1443 105.206 78.9204 105.277 79.0263C105.347 79.1321 105.453 79.4144 105.453 79.4849L105.488 79.626H105.312ZM105.347 77.5093C105.347 77.5093 104.007 77.0859 103.266 77.0859C103.195 77.0859 103.089 77.0859 103.054 77.0859C102.278 77.227 101.396 78.0032 101.396 78.0032L101.008 78.356L101.255 77.862C101.29 77.7915 101.96 76.4509 103.301 76.4509C104.642 76.4509 105.418 77.2623 105.453 77.2976L105.735 77.5798L105.347 77.5093Z" fill="#C5AA79"/>
<path d="M106.052 83.1187C106.052 83.1187 106.087 83.1187 106.158 83.1187C106.299 83.1187 106.475 83.0834 106.616 82.907C106.828 82.6248 107.004 81.9898 106.616 80.4374V80.4022V80.3669C106.652 80.2963 106.687 80.2258 106.757 80.2258C106.863 80.2258 106.969 80.3316 107.075 80.6138C107.357 81.3194 107.498 82.4131 107.216 83.0129C107.11 83.2246 107.004 83.3657 106.828 83.4009C106.722 83.4715 106.616 83.5068 106.51 83.5068C106.193 83.5068 105.946 83.2246 105.946 83.2246L105.77 83.0129L106.052 83.1187Z" fill="#C5AA79"/>
<path d="M78.1431 140.483L78.6723 130.076L80.8949 126.901C80.8949 126.901 74.474 126.089 69.6055 134.062C69.6055 134.098 72.7453 137.696 78.1431 140.483Z" fill="#C5AA79"/>
<path d="M79.6953 136.32L83.3291 134.451C83.3291 134.451 81.3182 132.581 82.553 127.183L81.9885 127.077L79.9423 130.288L79.6953 136.32Z" fill="#C5AA79"/>
<path d="M124.186 132.228C124.186 132.228 126.655 133.075 128.666 135.721L127.643 136.532C127.643 136.532 126.444 134.345 123.551 132.792L124.186 132.228Z" fill="#C5AA79"/>
<path d="M144.256 102.593C144.256 96.7367 143.092 91.0919 140.798 85.7294C140.34 84.6358 139.811 83.5421 139.246 82.4837C138.399 80.8609 137.129 79.4849 135.542 78.603C134.236 77.8621 132.472 77.2623 130.25 77.1212C129.403 77.1212 128.697 77.2623 128.274 77.474C125.699 78.3913 123.864 80.755 122.841 82.4484C122.1 83.6832 121.606 85.0944 121.5 86.5409C121.43 87.564 121.536 88.6224 122.03 89.9983C122.065 90.1394 122.206 90.5627 122.241 90.8097C122.277 91.0919 122.665 93.7026 120.513 95.8194C120.089 96.278 119.56 96.525 117.796 96.9483C117.337 97.0542 117.408 97.0189 116.914 97.0542L120.442 99.2062C122.594 100.335 124.464 104.463 124.464 104.463C124.464 104.463 125.381 106.721 126.404 106.721H126.44C126.51 106.544 126.475 105.804 126.369 105.415C126.228 104.851 125.805 103.722 125.663 103.299C125.593 103.016 125.487 102.523 125.769 102.381L125.875 102.346C126.157 102.346 126.369 102.628 126.969 103.828C127.427 104.675 128.062 105.98 128.592 106.192C128.697 106.156 128.733 106.121 128.768 106.015C129.05 105.027 128.274 103.581 127.463 102.628L127.216 102.346L127.569 102.24C127.604 102.24 127.674 102.205 127.71 102.205C128.027 102.205 128.38 102.523 128.415 102.523L128.486 102.593C128.98 103.052 129.191 103.228 129.756 104.04C131.238 106.121 132.225 109.049 132.261 111.554C132.296 112.93 132.367 113.459 132.437 114.094C132.508 114.623 132.578 115.047 132.614 115.823H132.578C132.614 116.105 133.672 123.161 137.341 125.772L137.941 124.925C137.941 124.925 137.905 124.925 137.905 124.89C138.999 123.126 139.952 121.291 140.763 119.421C143.092 114.094 144.256 108.414 144.256 102.593ZM135.612 119.033C135.93 114.376 136.283 109.825 135.753 105.168C135.189 100.3 134.236 95.5019 133.072 90.7391C135.718 94.4788 137.023 99.3121 137.658 103.793C138.364 108.943 137.764 114.271 135.612 119.033ZM139.528 101.993C138.964 97.1247 138.011 92.3267 136.847 87.564C139.493 91.3036 140.798 96.1369 141.433 100.617C142.139 105.768 141.575 111.095 139.387 115.858C139.669 111.237 140.058 106.686 139.528 101.993Z" fill="#C5AA79"/>
<path d="M79.8031 95.2196C79.6267 95.1843 79.4503 95.1843 79.2739 95.0432L79.0269 94.8668L79.1681 94.6198C79.2033 94.5492 79.2033 94.4787 79.1681 94.3728C79.0622 93.9495 78.5683 93.3145 78.2861 93.1733C77.7922 92.8911 77.2982 91.2682 77.1571 90.7743L77.1219 90.6685V90.6332L76.8749 90.7743L77.1219 90.2098C79.4503 84.7768 77.3688 79.6613 74.1936 77.615C73.7703 77.3681 73.3117 77.1211 72.7825 76.8742C72.7119 76.8389 71.3713 76.3097 69.572 76.3097C69.4309 76.3097 69.2898 76.3097 69.1487 76.3097C65.8677 76.5214 62.9395 78.4617 61.3166 81.3194C60.5052 82.7306 59.7996 84.177 59.1646 85.6588C56.8714 91.0213 55.6719 96.7013 55.6719 102.558C55.6719 108.414 56.8361 114.129 59.1646 119.457V119.492C59.5526 120.409 60.1171 121.256 60.7521 122.032C61.74 123.196 62.7278 124.184 63.3275 124.643C63.3275 124.678 63.2923 124.678 63.2923 124.713L64.2448 125.101C66.0088 120.621 66.3616 117.375 66.3969 115.646C66.6438 115.329 66.6791 114.764 66.6791 114.517V114.482C67.0319 107.356 67.8786 105.698 69.4662 103.122C69.9248 102.381 70.3129 101.958 70.5599 101.676C70.5599 101.676 70.5599 101.64 70.5951 101.64L70.9479 101.288L70.7715 101.746C70.5246 102.311 69.7837 104.216 70.0307 104.992C70.1012 105.168 70.1718 105.239 70.3129 105.31C70.7363 105.204 71.7241 103.863 72.9236 101.782L73.1 101.852C72.9236 102.311 72.6061 103.228 72.2533 104.145C72.2533 104.145 71.6888 105.556 72.2885 105.803C72.3591 105.839 72.4297 105.839 72.5002 105.839C73.2411 105.839 74.1231 104.392 74.4759 103.792L74.7934 103.228C74.7934 103.228 80.4029 95.3254 80.1559 95.2901L79.8031 95.2196ZM60.0465 115.082C57.8945 110.319 57.2947 104.992 58.0003 99.8412C58.6354 95.3607 59.9407 90.5274 62.5867 86.7877C61.3872 91.5505 60.4346 96.3485 59.9054 101.217C59.3762 105.874 59.7643 110.425 60.0465 115.082ZM63.6803 104.357C63.1511 109.014 63.5392 113.565 63.8215 118.222C61.6694 113.459 61.0697 108.132 61.7752 102.981C62.4103 98.5006 63.7156 93.6672 66.3616 89.9276C65.1621 94.6904 64.2095 99.4884 63.6803 104.357Z" fill="#C5AA79"/>
<path d="M101.639 95.255C111.225 95.255 118.996 87.4837 118.996 77.8974C118.996 68.3111 111.225 60.5399 101.639 60.5399C92.0525 60.5399 84.2812 68.3111 84.2812 77.8974C84.2812 87.4837 92.0525 95.255 101.639 95.255Z" stroke="#C5AA79" stroke-miterlimit="10"/>
<path d="M87.9859 92.503L86.5747 92.8558L86.4336 89.6807L87.9153 91.3388L87.9859 92.503Z" fill="#C5AA79"/>
<path d="M100.02 51.614C126.691 51.614 148.424 73.311 148.424 100.018C148.424 126.724 126.727 148.421 100.02 148.421C73.3134 148.421 51.6164 126.724 51.6164 100.018C51.6164 73.311 73.3134 51.614 100.02 51.614ZM100.02 49.5678C72.1844 49.5678 49.6055 72.1467 49.6055 99.9823C49.6055 127.818 72.1844 150.397 100.02 150.397C127.856 150.397 150.435 127.818 150.435 99.9823C150.435 72.1467 127.856 49.5678 100.02 49.5678Z" fill="#C5AA79"/>
</svg>
