<svg width="25" height="26" viewBox="0 0 25 26" fill="none" xmlns="http://www.w3.org/2000/svg">
<path d="M11.2159 10.8191C11.2209 10.8142 11.2307 10.8092 11.2406 10.7993C11.2851 10.7549 11.3147 10.6907 11.3295 10.6462C11.3098 10.6512 11.2851 10.6512 11.2653 10.6512C11.1567 10.6512 11.0678 10.6018 11.0134 10.5178C10.9394 10.5524 10.7418 10.6413 10.8307 10.9327V10.9426C10.8307 10.9475 10.8307 10.9525 10.8307 10.9525L11.2159 10.8191ZM13.6606 6.65491C13.6952 6.66479 13.7298 6.66973 13.7693 6.66973C13.8532 6.66973 13.9322 6.64997 13.9964 6.63021C14.2088 6.56599 14.3965 6.53636 14.5545 6.5413C14.4113 6.17082 14.0705 6.1313 13.9273 6.1313C13.8137 6.1313 13.7248 6.156 13.6853 6.1807C13.6705 6.19057 13.6507 6.20045 13.6359 6.21527C13.5273 6.28937 13.384 6.38322 13.2211 6.42274C13.2951 6.44744 13.3248 6.45732 13.3297 6.45732C13.4482 6.49684 13.5569 6.56599 13.6606 6.65491ZM11.0974 7.07479C11.1221 7.03527 11.1418 6.99575 11.1715 6.96117C11.1912 6.93154 11.211 6.90684 11.2357 6.88214C11.1418 6.9019 11.0431 6.9019 10.9492 6.90684C10.8208 6.91178 10.6924 6.91178 10.5689 6.95623C10.3862 7.02045 10.322 7.2378 10.3023 7.37611C10.401 7.29708 10.5196 7.24768 10.6529 7.23286C10.8258 7.20322 10.9739 7.15382 11.0974 7.07479ZM14.8607 6.23009C14.8558 6.23009 14.8311 6.21033 14.7866 6.19058C14.7718 6.18564 14.7521 6.1807 14.7373 6.17576L14.7224 6.17082L14.7175 6.16094C14.5693 5.79046 14.352 5.53853 14.0755 5.41504L14.0656 5.4101L14.0606 5.40516C14.0458 5.40022 14.0162 5.39034 13.9964 5.38046L13.9866 5.37552C13.9816 5.37552 13.9718 5.37058 13.9668 5.37058C13.9421 5.36564 13.9224 5.35576 13.9174 5.35576L13.9075 5.35082L13.8878 5.336L13.7742 5.25696H13.7791C13.5371 5.08901 13.3001 5.0001 13.0778 5.0001C12.9346 5.0001 12.8013 5.03468 12.658 5.10383L12.6432 5.11371L12.579 5.14335L12.4901 5.11865C12.416 5.10383 12.3469 5.09395 12.2778 5.09395C12.095 5.09395 11.8283 5.15323 11.6011 5.44467L11.5962 5.44962L11.5024 5.47925C11.4085 5.53853 11.1517 5.72624 10.9986 6.02262C11.0134 6.02262 11.0283 6.02262 11.0381 6.02262C11.0431 6.01274 11.048 6.0078 11.0529 5.99793C11.0579 5.99299 11.4678 5.4348 12.3074 5.29648C12.3074 5.29648 12.4062 5.27672 12.579 5.27672C12.8852 5.27672 13.4828 5.35082 14.0557 5.85961C14.0804 5.88431 14.0952 5.89913 14.1051 5.91395C14.6484 5.96829 14.8311 6.46226 14.8607 6.55612C14.8755 6.56106 14.8904 6.566 14.9002 6.57093C15.2163 6.69443 15.3497 6.97105 15.3991 7.22298C15.4089 6.78828 15.1422 6.40298 14.8607 6.23009ZM11.3246 10.2955C11.2949 10.2955 11.2653 10.2906 11.2357 10.2807C11.211 10.3251 11.1715 10.414 11.2357 10.4832C11.2505 10.498 11.2851 10.5128 11.3246 10.5128C11.3591 10.5128 11.4431 10.498 11.4727 10.3745C11.4826 10.3202 11.4876 10.2757 11.4826 10.251C11.4382 10.2757 11.3838 10.2955 11.3246 10.2955ZM15.5768 8.80864C15.7448 8.69008 15.8337 8.56165 15.8485 8.42828C15.8682 8.25538 15.809 8.11213 15.804 8.11213L15.7892 8.09237L15.804 8.07261C16.2139 7.53418 15.9868 6.93154 15.8633 6.71913L15.8485 6.69937C15.8287 6.67961 15.809 6.65985 15.7892 6.64009L15.7793 6.63515L15.7744 6.62527C15.6756 6.25479 15.3694 5.88925 15.0188 5.7213L14.9299 5.6719L14.9249 5.66696L14.8311 5.49901H14.8262L14.8212 5.48913C14.6582 5.21251 14.4607 5.01492 14.2286 4.90624L14.2236 4.9013L14.2187 4.89636L14.2138 4.89142C14.1841 4.87167 14.1347 4.84697 14.0656 4.82721L14.0557 4.82227C14.0458 4.81733 14.036 4.81733 14.0261 4.81239C14.0014 4.80745 13.9816 4.80251 13.9718 4.79757C13.9569 4.79263 13.952 4.79263 13.952 4.79263H13.9471L13.7495 4.69877H13.7643C13.5075 4.55552 13.2556 4.48637 13.0136 4.48637C12.7716 4.48637 12.6037 4.56046 12.5247 4.60492L12.5148 4.60986L12.5099 4.61974L12.5049 4.6148L12.5 4.60986L12.4852 4.60492L12.4654 4.62962V4.59998C12.416 4.58516 12.2975 4.55552 12.1444 4.55552C11.9617 4.55552 11.69 4.60492 11.4431 4.83215L11.4382 4.83709H11.4332C11.369 4.85685 11.3098 4.87661 11.2752 4.89636L11.2357 4.91612C11.0233 5.03962 10.7764 5.21251 10.6332 5.47925L10.6282 5.48419L10.6233 5.48913C10.6134 5.49407 10.6035 5.50889 10.5936 5.52371C10.5541 5.59287 10.5344 5.6472 10.5196 5.68672L10.5146 5.71142C10.5097 5.72624 10.5097 5.74106 10.5097 5.746V5.75588L10.4405 5.82503L10.3862 5.88431C10.0356 6.17576 10.0059 6.72901 10.001 6.75371V6.7784L9.92197 6.78334C9.81332 6.97105 9.70466 7.46503 9.83307 8.01334C9.81825 7.83551 9.85283 7.68238 9.93185 7.549C9.93185 7.47491 9.89727 7.25756 9.93678 7.13406C9.99605 6.94635 10.0257 6.80804 10.1738 6.74383C10.2084 6.58081 10.3418 6.1313 10.7072 6.03744C10.7566 5.78058 10.9245 5.45949 11.4135 5.33106C11.5369 5.10877 11.7592 4.84697 12.1197 4.84697C12.2531 4.84697 12.4012 4.88649 12.5593 4.96552C12.6679 4.88155 12.8852 4.74817 13.1618 4.74817C13.4581 4.74817 13.7544 4.89636 14.031 5.19275C14.2384 5.20263 14.8509 5.3113 14.9793 6.1066C15.1225 6.1313 15.3299 6.23997 15.488 6.43262C15.6361 6.61539 15.7843 6.93154 15.6559 7.41563L15.6509 7.44033L15.6065 7.43045C15.6262 7.60828 15.562 7.77129 15.5571 7.81575C15.5571 7.82069 15.562 7.82069 15.562 7.82563C15.7201 7.99852 15.7942 8.4184 15.5768 8.80864ZM14.4311 7.39093C14.4706 7.40081 14.515 7.40575 14.5644 7.41069C14.757 7.44033 14.9891 7.47491 15.1817 7.60334C15.162 7.37611 15.1324 7.24768 15.0978 7.10937C15.0682 6.99081 14.8015 6.76852 14.3965 6.76852C14.3026 6.76852 14.2088 6.7784 14.115 6.8031C14.0014 6.83274 13.8927 6.84262 13.789 6.83274C13.8433 6.89696 13.8977 6.96117 13.9471 7.03527C14.1693 7.24768 14.3422 7.37611 14.4311 7.39093ZM14.1989 7.5243C14.3125 7.83057 14.5743 7.91454 14.5792 7.91948C15.004 8.07755 15.2213 8.25538 15.2558 8.48755C15.2706 8.47273 15.2855 8.45791 15.2953 8.43816L15.3052 8.42334C15.3546 8.3443 15.3941 8.22575 15.3398 8.06274C15.2114 7.67744 14.7916 7.60828 14.5496 7.60334C14.4557 7.60334 14.3224 7.57864 14.1989 7.5243ZM6.51422 11.0167C6.50929 11.0167 6.50435 11.0118 6.50435 11.0118C6.50435 11.0118 6.50435 11.0167 6.51422 11.0167ZM5.33386 8.13683C5.33386 8.13683 5.27953 8.18129 5.19064 8.25538C5.2746 8.18623 5.32892 8.14177 5.33386 8.13683ZM4.67701 8.7543C4.70664 8.72466 4.73627 8.69008 4.76096 8.66044C4.73627 8.69008 4.70664 8.72466 4.67701 8.7543ZM5.93145 8.67526C5.89194 8.73948 5.7981 8.84815 5.6697 8.98153C5.7981 8.84815 5.89194 8.73454 5.93145 8.67526ZM11.2703 9.55453C11.2851 9.57923 11.29 9.57429 11.2801 9.5496C11.2949 9.57429 11.2851 9.57923 11.2703 9.55453C11.1764 9.39152 11.1171 9.17418 11.0826 8.96177C11.0875 8.95189 11.0875 8.94201 11.0875 8.93213C11.0875 8.94201 11.0826 8.95189 11.0826 8.96177C11.0678 9.02598 11.0431 9.10502 10.9986 9.21369C10.9295 9.39152 11.0628 9.58417 11.1616 9.68297C11.2949 9.80646 11.3937 9.8855 11.4579 9.93489C11.3838 9.80646 11.3246 9.67803 11.2703 9.55453ZM10.9789 8.77406C10.9196 8.34924 10.9394 7.959 10.9394 7.95406C10.9394 7.94912 10.9394 7.94418 10.9394 7.9343C10.8702 8.11213 10.648 8.23069 10.5393 8.40852C10.4554 8.54683 10.5591 8.88273 10.5591 8.88767C10.6727 9.00622 10.7863 9.0902 10.8307 9.11984C10.8653 8.98647 10.9394 8.88273 10.9789 8.77406ZM13.7051 5.96335C13.7989 5.92383 13.8532 5.92383 13.9224 5.92383C13.8384 5.83985 13.5223 5.55335 13.0136 5.45949C13.0087 5.45949 12.8507 5.41504 12.6235 5.41504C12.3815 5.41504 12.1493 5.45949 11.937 5.54841C11.932 5.54841 11.5715 5.68672 11.2703 6.02262C11.2703 6.02262 11.29 6.03744 11.2999 6.03744C11.2999 6.03744 11.5666 5.70648 11.9419 5.63732C11.9962 5.62744 12.0506 5.62251 12.1049 5.62251C12.4062 5.62251 12.4852 5.81021 12.4852 5.84973V5.85961C12.4852 5.87443 12.4852 5.88431 12.4852 5.89913H12.4901C12.4901 5.90407 12.4852 5.90901 12.4852 5.90901C12.4852 5.91395 12.4852 5.91395 12.4852 5.90901C12.4852 5.90407 12.4901 5.89913 12.4901 5.89913C12.5099 5.85961 12.5395 5.82009 12.5889 5.78552C13.0038 5.47925 13.7051 5.96335 13.7051 5.96335ZM14.0162 9.81634C14.0162 9.82128 14.0853 10.2659 14.3471 10.3548C14.5397 10.419 14.6533 10.2016 14.6533 9.98429C14.6533 9.79658 14.5051 9.62369 14.4854 9.59899C14.4854 9.59899 14.4854 9.59899 14.4854 9.60393C14.278 9.59405 14.1002 9.51502 14.0162 9.47056C14.0162 9.53972 14.0014 9.67309 14.0162 9.81634ZM15.241 11.6589C15.241 11.6589 15.246 11.6589 15.246 11.6539C15.246 11.6539 15.241 11.6539 15.241 11.6589ZM14.515 5.90901C14.52 5.90901 14.5249 5.90901 14.5348 5.90901C14.5298 5.90901 14.52 5.90901 14.515 5.90901ZM15.2509 6.67467C15.2509 6.67961 15.2509 6.67961 15.2509 6.68455C15.2509 6.68455 15.2509 6.67961 15.2509 6.67467ZM15.2657 6.76358C15.2657 6.76852 15.2706 6.76852 15.2756 6.77346C15.2706 6.76852 15.2657 6.76358 15.2657 6.76358ZM10.2776 8.35912C10.3813 8.16647 10.564 8.02322 10.7122 7.96394C10.806 7.92936 10.8801 7.83057 10.9394 7.71695C10.9344 7.75647 10.9344 7.75647 10.9394 7.71695C10.9542 7.56876 10.9789 7.43539 11.0283 7.32177C10.8406 7.42057 10.7517 7.37611 10.3072 7.59346C9.99111 7.85033 10.2232 8.27514 10.2776 8.35912C10.2825 8.36406 10.2825 8.369 10.2825 8.369C10.2825 8.369 10.2776 8.36406 10.2776 8.35912ZM13.8483 5.67684C13.8433 5.67684 13.8433 5.67684 13.8384 5.6719C13.8236 5.66696 13.8088 5.66202 13.7989 5.65708C13.8088 5.66696 13.8285 5.6719 13.8483 5.67684ZM14.5545 10.5227C14.5397 10.5326 14.52 10.5375 14.5002 10.5474C14.3669 10.5869 14.2681 10.5425 14.1891 10.4733C14.0508 10.3449 14.0508 10.3449 14.1891 10.4733C14.1891 10.4733 13.9668 10.3103 13.9224 10.0534C13.9174 10.0337 13.9174 10.0189 13.9125 9.99911C13.9075 9.97935 13.9075 9.95959 13.9026 9.94477C13.9026 9.95959 13.9075 9.97935 13.9125 9.99911C13.9125 10.0633 13.9224 10.1769 13.952 10.2906C13.9816 10.3548 14.0162 10.4387 14.0606 10.5128C14.0606 10.5178 14.0656 10.5178 14.0705 10.5227L14.1693 10.666C14.1644 10.6561 14.1545 10.6512 14.1495 10.6413C14.115 10.6018 14.0903 10.5573 14.0606 10.5128C14.0113 10.4486 13.9767 10.3696 13.952 10.2906C13.9718 10.3696 14.0063 10.4486 14.0606 10.5128C14.0853 10.5573 14.115 10.6018 14.1495 10.6413C14.1545 10.6462 14.1644 10.6561 14.1693 10.666C14.2829 10.7993 14.4854 11.0266 14.6928 11.0809C14.9151 11.1353 15.0336 10.8586 14.8607 10.7104C14.7718 10.6314 14.5842 10.5079 14.5545 10.5227ZM9.42809 13.2445C9.41821 13.2445 9.40834 13.2495 9.39846 13.2495C9.40834 13.2495 9.41821 13.2445 9.42809 13.2445ZM11.7098 6.23009C11.695 6.22515 11.6851 6.22021 11.6703 6.21527C11.6258 6.19552 11.5765 6.16588 11.5616 6.16094C11.5172 6.14612 11.4777 6.1313 11.4431 6.12142C11.4826 6.0819 11.7049 5.85961 11.9222 5.7954C11.9716 5.78058 12.0209 5.77564 12.0654 5.77564C12.2382 5.77564 12.3469 5.85961 12.3667 5.92383C12.3864 6.0078 12.3518 6.08684 12.2679 6.156C12.0358 6.32395 11.7098 6.23009 11.7098 6.23009ZM11.6505 6.06708L11.6555 6.0572C11.6505 6.06214 11.6505 6.06708 11.6505 6.06708ZM12.7469 6.24985C12.658 6.19058 12.6087 6.11648 12.6185 6.0325C12.6235 5.96829 12.7272 5.86949 12.8951 5.84479C12.9445 5.83985 12.9939 5.83985 13.0433 5.84479C13.2704 5.87443 13.5174 6.06708 13.5618 6.10166C13.5273 6.11648 13.4927 6.13624 13.4532 6.156C13.4384 6.16094 13.3939 6.19551 13.3544 6.22021C13.3445 6.22515 13.3297 6.23503 13.3149 6.23997C13.31 6.24491 13.0038 6.38322 12.7469 6.24985ZM13.3445 6.06708L13.3495 6.07696C13.3495 6.07696 13.3495 6.07202 13.3445 6.06708ZM11.4431 6.29431L11.4382 6.30419L11.4431 6.29431ZM13.9224 6.17576C13.9273 6.1807 13.9273 6.18564 13.9273 6.19058C13.9273 6.18564 13.9273 6.1807 13.9224 6.17576ZM11.3493 6.26961C11.3443 6.26961 11.3443 6.26961 11.3493 6.26961C11.3443 6.26961 11.3443 6.26961 11.3493 6.26961ZM13.8187 6.17082C13.8236 6.17082 13.8335 6.17082 13.8384 6.17082C13.8433 6.17082 13.8433 6.17082 13.8483 6.17082C13.8433 6.17082 13.8433 6.17082 13.8384 6.17082C13.8285 6.17082 13.8236 6.17082 13.8187 6.17082ZM11.3147 6.30913C11.3196 6.31901 11.3295 6.32395 11.3394 6.32395C11.3493 6.32395 11.3591 6.31901 11.3987 6.28937C11.3591 6.31901 11.3493 6.32395 11.3394 6.32395C11.3246 6.32395 11.3196 6.31901 11.3147 6.30913ZM11.3937 6.67467C11.3987 6.66973 11.4036 6.66479 11.4085 6.65985C11.5666 6.5166 11.7098 6.45238 11.8431 6.40298C11.853 6.39804 11.853 6.39804 11.8431 6.40298C11.7691 6.39804 11.695 6.38322 11.6209 6.36347V6.35853C11.4876 6.31407 11.4678 6.27949 11.206 6.23997C11.1616 6.23503 11.0875 6.22515 11.0085 6.23997C10.9986 6.23997 10.9937 6.24491 10.9838 6.24491C10.9937 6.24491 10.9986 6.23997 11.0085 6.23997C11.0085 6.23997 11.0085 6.23997 11.0085 6.24491C10.9887 6.24985 10.969 6.24985 10.9492 6.25973C10.8109 6.30419 10.6628 6.43756 10.5739 6.76358C10.6727 6.74383 10.7764 6.75371 10.8505 6.75865C11.0875 6.77346 11.2801 6.71419 11.4036 6.65985C11.4036 6.66479 11.3987 6.66973 11.3937 6.67467ZM10.7714 13.5508C10.7665 13.5508 10.7665 13.5458 10.7616 13.5458C10.7023 13.7187 10.5344 13.8422 10.3368 13.8422C10.0899 13.8422 9.89234 13.6496 9.89234 13.4174C9.89234 13.1803 10.0899 12.9926 10.3368 12.9926C10.5838 12.9926 10.7813 13.1852 10.7813 13.4174C10.7813 13.4619 10.7764 13.5063 10.7616 13.5458C10.7665 13.5458 10.7665 13.5458 10.7714 13.5508ZM10.7616 13.5409L10.7566 13.536C10.7566 13.5409 10.7616 13.5409 10.7616 13.5409ZM15.8287 17.2951C16.0263 17.2951 16.2189 17.3149 16.4016 17.3593C14.4953 16.4603 12.2679 14.8549 11.2703 14.109C11.5814 14.4943 12.0012 15.0129 12.2037 15.255C12.4654 15.5711 13.4433 16.5838 14.1298 17.0531C12.4111 16.2281 11.2357 14.4301 10.8603 13.7978C10.8554 13.7928 10.8505 13.7928 10.8505 13.7879C10.8159 13.8323 10.7764 13.8669 10.7369 13.9015C10.9245 14.2423 12.5395 17.3494 13.6804 18.4609C14.115 17.7594 14.9151 17.2951 15.8287 17.2951ZM9.89234 20.3034C9.97136 20.1799 10.1096 19.9428 10.164 19.7798C10.2479 19.5328 10.2578 19.0339 10.243 18.8462C10.243 18.8462 10.243 18.7523 10.2331 18.5251C10.2282 18.4461 10.2134 18.2287 10.2232 17.962C10.2331 17.6557 10.238 17.468 10.238 17.468C10.238 17.468 10.1936 17.3988 10.0751 17.4433C9.98123 17.4779 9.7096 17.5717 9.79356 18.4461C9.79356 18.451 9.79356 18.451 9.79356 18.4559L9.93185 18.6634C9.98123 18.7177 10.0306 18.8808 9.96642 18.9302C9.93678 18.9549 9.87258 18.9697 9.78368 18.8314L9.89234 20.3034ZM17.7795 21.405C18.1845 20.9851 18.4068 20.4368 18.4068 19.8638C18.4068 18.6091 17.34 17.5865 16.0312 17.5865C14.7224 17.5865 13.6557 18.6091 13.6557 19.8638C13.6557 20.6936 14.115 21.4297 14.8904 21.8397C15.0731 21.8742 15.2114 21.894 15.32 21.894C15.4188 21.894 15.4682 21.8792 15.5077 21.8693C15.5275 21.8644 15.5423 21.8594 15.5571 21.8545C15.6312 21.8397 15.888 21.6025 15.9571 21.5186C15.8781 21.5136 15.6904 21.5038 15.5768 21.4642C15.3645 21.6075 15.1521 21.6816 14.9496 21.6816C14.7274 21.6816 14.599 21.5927 14.594 21.5877L14.5891 21.5828C14.5397 21.5285 14.5101 21.4791 14.5101 21.4346V20.5553H15.1077V19.9823H15.809V18.9252H15.3546L15.1373 19.0289V18.53L15.3546 18.6338H15.809V17.9521L15.7003 17.7446H16.2189L16.1102 17.9521V18.6338H16.5597L16.777 18.53V19.0289L16.5646 18.9252H16.1152V19.9823H16.8165V20.5553H17.4141V21.4741C17.4635 21.5186 17.5128 21.568 17.5524 21.6124C17.5622 21.6025 17.661 21.5285 17.7795 21.405ZM8.04524 19.7551C8.04524 19.7551 8.0403 19.7551 8.04524 19.7551C8.0403 19.7551 8.04524 19.7551 8.04524 19.7551ZM9.71948 19.0042C9.69479 19.0438 9.66515 19.0635 9.63552 19.0635C9.6207 19.0635 9.60095 19.0586 9.57626 19.0536C9.55156 19.0438 9.53675 19.0289 9.53181 19.024C9.34907 18.8906 9.35401 18.6634 9.35401 18.6634V18.6486L9.3392 18.6535C9.3392 18.6535 9.26511 18.6832 9.19103 18.6733C9.08732 18.6683 9.01324 18.6091 8.91446 18.535C8.89964 18.5202 8.87989 18.5103 8.86014 18.4955L8.8552 18.4905L8.85026 18.4955C8.82063 18.5152 8.75642 18.53 8.66752 18.53C8.54899 18.53 8.42552 18.5103 8.39095 18.5053C8.34157 18.4955 8.29712 18.5053 8.2823 18.53C8.27242 18.5449 8.27242 18.5597 8.2823 18.5696C8.30699 18.6091 8.4354 18.614 8.51442 18.614C8.62801 18.614 8.77618 18.5992 8.8552 18.5696C8.96385 18.7079 9.23054 18.7869 9.27993 18.7968C9.28981 18.8314 9.37377 19.108 9.38858 19.1129L9.44291 20.5405C9.40834 20.7035 9.43797 20.6689 9.26511 20.7924C9.15646 20.8715 8.62801 21.1679 8.62307 21.1728H8.61814L8.53912 21.3407C8.09463 20.7035 8.37614 19.8045 8.40577 19.7255H8.41071V19.7205L8.41565 19.7057H8.40577L8.20328 18.9203C8.20328 18.9153 8.16871 18.5053 8.18353 18.3324C8.1934 18.204 8.30206 18.1892 8.35144 18.1892C8.36132 18.1892 8.36626 18.1892 8.3712 18.1892C9.14164 18.2435 9.27993 18.3967 9.27993 18.3967C9.37871 18.4905 9.61083 18.861 9.64046 18.9104C9.65528 18.9351 9.67997 18.9549 9.69972 18.9697C9.70466 18.9894 9.71948 18.9993 9.71948 19.0042ZM9.12189 20.4911C9.08732 20.5109 8.98854 20.5553 8.87495 20.5553C8.7663 20.5553 8.6774 20.5158 8.60332 20.4368C8.48973 20.3133 8.42552 20.1108 8.41071 20.0515L8.39589 20.0021L8.38601 20.0515C8.36132 20.1898 8.37614 20.3923 8.59838 20.5948C8.6132 20.6047 8.73667 20.6838 8.88977 20.6838C9.04287 20.6838 9.17622 20.6097 9.28981 20.4565C9.38858 20.3182 9.34907 20.1157 9.29475 19.9724L9.26511 19.8885L9.27499 19.9774C9.29968 20.254 9.2503 20.4269 9.12189 20.4911ZM9.74911 18.3818V18.3868V18.3818ZM9.31944 17.0778C9.31944 17.0778 9.15646 17.1173 9.08238 17.1074C9.08238 17.1074 8.96879 17.4285 8.87495 17.6359C8.87495 17.6359 9.04781 17.6261 9.34907 17.799L9.31944 17.0778ZM9.71948 18.7276C9.64046 18.5992 9.38364 18.1793 9.38364 18.1793C9.38364 18.1793 8.97373 17.9471 8.28724 17.878C8.1045 17.9274 8.14895 18.204 8.14895 18.204C8.14895 18.204 8.23785 18.0855 8.51442 18.1151C8.8552 18.1546 9.02311 18.1645 9.25524 18.2732C9.40834 18.3423 9.4923 18.4955 9.67009 18.8659C9.67009 18.8659 9.7096 18.9302 9.73923 18.9549L9.71948 18.7276ZM9.40834 17.9718C9.22066 17.8138 8.95397 17.7051 8.61814 17.6508H8.60826C8.59838 17.6508 8.59344 17.6409 8.57863 17.6359C8.55393 17.6162 8.50948 17.5816 8.41071 17.5767C8.39589 17.5816 8.32181 17.6162 8.30206 17.6804C8.28724 17.7199 8.29712 17.7594 8.32675 17.8088C8.35638 17.8335 8.39095 17.8434 8.4354 17.8434C8.50454 17.8434 8.56875 17.8088 8.60332 17.7743C8.60826 17.7693 8.61814 17.7644 8.63295 17.7644C8.76136 17.7644 9.32932 18.0212 9.32932 18.0212C9.43303 18.0805 9.61577 18.3868 9.69972 18.6041C9.68985 18.5004 9.6454 18.1744 9.40834 17.9718ZM9.35895 16.7468C8.97867 16.8209 8.88977 16.8555 8.79593 16.9641C8.68728 17.0926 8.50948 17.3593 8.5243 17.5273C8.59344 17.5767 8.76136 17.5915 8.80087 17.5964C8.81569 17.5668 8.86507 17.4581 8.90458 17.3445C8.92928 17.2803 8.94903 17.2111 8.96879 17.1568C9.00336 17.0481 9.00336 17.0432 9.01818 17.0432H9.02311V17.0481H9.02805C9.09226 17.0481 9.35895 16.9938 9.4034 16.9691L9.41821 16.9592L9.42315 16.974C9.44291 17.0531 9.66515 17.2408 9.75899 17.2704C9.78368 17.2753 9.80344 17.2803 9.82319 17.2803C9.89727 17.2803 9.97629 17.2259 9.99111 17.221C9.97136 17.2062 9.71948 16.9888 9.7343 16.9592L9.67997 16.8999L9.62564 16.8406C9.62564 16.8406 9.52687 16.7369 9.39846 16.7369C9.38858 16.7418 9.37377 16.7418 9.35895 16.7468ZM16.1794 20.9159C16.5745 20.9307 16.8906 21.0592 17.1276 21.2074V20.827H16.7868H16.53V20.58V20.254H15.3842V20.58V20.827H15.1274H14.7866V21.1728C15.1966 21.0691 15.4583 20.9554 15.4583 20.9554C15.8584 20.8715 16.1794 20.9159 16.1794 20.9159ZM17.1375 12.3307C17.1474 12.3307 17.1622 12.3307 17.177 12.3257C17.1523 12.3307 17.1375 12.3307 17.1375 12.3307ZM13.3692 12.2911C13.3643 12.2911 13.3643 12.2911 13.3692 12.2911C13.3643 12.2911 13.3643 12.2911 13.3692 12.2911ZM13.6162 23.1092C13.6162 23.1092 13.6162 23.1141 13.6162 23.119C13.6162 23.1141 13.6162 23.1092 13.6162 23.1092ZM10.5393 12.874C10.5393 12.8592 10.7319 12.9185 10.806 12.9926C10.8159 13.0025 11.5814 12.958 13.4087 12.4838C13.0284 12.4937 11.6357 12.5036 10.564 12.0936L10.5393 12.874ZM10.7566 13.0124V13.0025V13.0124ZM15.5077 22.8276C15.5028 22.8276 15.4929 22.8276 15.488 22.8325C15.4731 22.8375 15.4534 22.8375 15.4336 22.8375C15.3645 22.8375 15.2805 22.8128 15.2213 22.793C15.2064 22.7881 15.1966 22.7831 15.1867 22.7831C14.599 22.6152 14.3767 22.3978 14.2088 22.1015C14.11 21.9236 14.0755 21.7656 14.0606 21.6618C14.1644 21.9138 14.273 22.0866 14.3866 22.1706C14.4014 22.1805 14.4162 22.1953 14.4311 22.2052C14.6138 22.3484 14.7866 22.4818 15.325 22.5559C15.3744 22.5609 15.4484 22.4769 15.4484 22.4522C15.4484 22.4374 15.4435 22.4275 15.4386 22.4176C15.5077 22.4522 15.3842 22.388 15.3744 22.388C15.2213 22.388 14.6039 22.304 14.3471 21.9039C14.1891 21.647 14.0508 21.4692 14.0162 21.3457C14.1002 21.4544 14.3915 21.8001 14.7274 21.9138C14.7323 21.9138 14.9891 21.9977 15.2608 21.9977C15.3052 21.9977 15.3447 21.9977 15.3793 21.9928C15.6855 21.9582 15.9176 21.6766 15.9226 21.6766C15.9226 21.6766 16.046 21.5334 16.1152 21.4791C16.209 21.405 16.2436 21.3457 16.2139 21.3111L16.2041 21.3012L16.1942 21.3111C16.1744 21.3309 16.1004 21.405 16.0608 21.4148C16.0115 21.4297 15.9621 21.4395 15.9077 21.4395C15.7497 21.4395 15.6164 21.3753 15.562 21.3358L15.5522 21.3309L15.5472 21.3407C15.5472 21.3407 15.4139 21.5383 15.083 21.5976C15.0385 21.6075 14.9891 21.6075 14.9496 21.6075C14.8015 21.6075 14.6879 21.563 14.6533 21.4889C14.6335 21.4494 14.6385 21.4099 14.6681 21.3654L14.6731 21.3605C14.6731 21.4099 15.0928 21.2765 15.0879 21.2518C15.2706 21.1926 15.4237 21.1333 15.483 21.1036C15.7349 21.074 15.8831 21.0641 15.9868 21.0641C16.0115 21.0641 16.0362 21.0641 16.0608 21.0641H16.0954C16.2979 21.074 16.5103 21.0839 16.8659 21.2321C17.1918 21.3654 17.5573 21.7458 17.5622 21.7507H17.5672C17.5721 21.7507 17.6116 21.7606 17.6166 21.7557L17.6264 21.7409C17.6659 21.7112 17.7055 21.6766 17.7499 21.6322C17.8092 21.7013 17.9573 22.2793 17.9623 22.4028C17.8487 22.4719 17.3202 22.7831 16.5893 23.1536C16.5844 23.1536 16.3226 23.287 15.9473 23.287C15.6065 23.287 15.2855 23.1833 14.9891 22.9758C14.8163 22.8572 14.6434 22.6942 14.5348 22.5905C14.9447 22.8622 15.483 22.9412 15.488 22.9412C15.5373 22.9462 15.5571 22.9264 15.567 22.9116C15.5768 22.8968 15.5818 22.8721 15.5719 22.8474C15.5719 22.8424 15.5077 22.8276 15.5077 22.8276ZM11.0529 13.3186C11.0579 13.3532 11.0579 13.3828 11.0579 13.4174C11.0579 13.4223 11.0579 13.4273 11.0579 13.4322C11.2999 13.5113 12.8507 13.9805 14.5101 13.9805C14.7916 13.9805 15.0632 13.9657 15.32 13.941L15.5176 13.9213L15.7744 13.8966L15.5423 14.0052L15.3645 14.0892C15.083 14.2226 14.6829 14.2868 14.1841 14.2868C13.5717 14.2868 12.9198 14.188 12.4012 14.0892C14.2138 14.9833 16.5646 15.8428 16.9548 15.9268L16.9745 15.9317L17.014 15.9416L17.0091 15.9811L16.9992 16.0453L16.9943 16.0849L16.9548 16.0799H16.935C16.0608 16.0009 14.2434 15.4476 12.6087 14.6672C13.1569 15.0574 13.4828 15.2846 13.5569 15.334C13.6853 15.4131 13.8878 15.5613 14.1495 15.744C14.8113 16.2232 15.8139 16.9444 16.9301 17.5322C17.9425 17.8879 18.6241 18.8264 18.6241 19.8638C18.6241 20.1503 18.5697 20.4417 18.466 20.7134C18.7377 20.4812 19.1377 20.1898 19.4834 20.1206C19.4982 20.1157 19.5081 20.1157 19.5081 20.1157H19.5279L19.5723 20.1107L19.5772 20.1552L19.5871 20.2194L19.5921 20.2639L19.5476 20.2688L19.5279 20.2738C19.5229 20.2738 19.518 20.2738 19.513 20.2787C19.4439 20.2935 19.2266 20.2738 18.6389 20.8764C18.8858 20.9604 19.2513 21.1283 19.7007 21.4494C19.7007 21.4494 19.8785 21.5828 19.8834 21.5828C20.0612 21.4297 20.0909 21.3901 20.2588 21.2271C20.407 21.0789 20.5551 20.9258 20.6983 20.7677C20.6983 20.7677 17.824 13.5656 17.5227 13.3087C17.2066 13.037 16.7523 12.7851 16.7029 12.7555H16.6979L15.2657 11.8416C13.8236 12.8691 11.0529 13.3186 11.0529 13.3186ZM12.7321 23.618C12.6333 23.6229 12.5346 23.6278 12.4407 23.6278C11.5024 23.6278 10.8406 23.2623 10.648 23.1388C10.485 23.1981 10.3072 23.2327 10.1146 23.2475L10.1393 24.0872C10.9147 24.2552 11.7147 24.3441 12.5198 24.3441C13.9964 24.3441 15.4237 24.0625 16.772 23.4994C17.5622 23.1734 18.3623 22.6893 19.0488 22.1904C18.9204 22.0372 18.2388 21.2617 18.2388 21.2617L18.0314 21.4198C18.0314 21.4198 18.3277 22.3534 18.3277 22.3633L17.9425 22.6399C17.7301 22.7584 17.1573 23.0746 17.0091 23.1586L16.9795 23.1783C16.7819 23.2919 16.4214 23.4994 15.967 23.4994C15.7744 23.4994 15.5867 23.4599 15.4089 23.3809C15.2064 23.2919 15.0237 23.1931 14.8558 23.0746C14.6928 23.1042 13.6507 23.5686 12.7321 23.618ZM11.4431 18.2188V18.2238V18.2188ZM9.54662 11.8416C9.54168 11.8416 9.53675 11.8466 9.53181 11.8466C9.53675 11.8466 9.54168 11.8466 9.54662 11.8416ZM8.9836 3.62191L8.98854 3.62685L9.13671 3.76516L9.28981 3.61697L9.13671 3.46878L8.9836 3.62191ZM9.27993 3.0489C9.27993 3.02914 9.26511 3.01433 9.2503 3.00939C9.24536 3.01433 9.24042 3.01433 9.23054 3.01926H9.2256C9.21573 3.0242 9.20585 3.0242 9.19597 3.02914C9.18609 3.02914 9.17622 3.03408 9.17128 3.03408C9.16634 3.03408 9.15646 3.03408 9.15152 3.03408H9.14658C9.11695 3.03902 9.08732 3.03408 9.05769 3.0242C9.05275 3.0242 9.05275 3.0242 9.04781 3.01926C9.04287 3.01926 9.03793 3.01433 9.03299 3.01433C9.02805 3.01433 9.02311 3.00939 9.01818 3.00939C8.99842 3.01433 8.98854 3.03408 8.98854 3.0489C8.98854 3.0736 9.0083 3.09336 9.03793 3.09336H9.23548C9.26017 3.09336 9.27993 3.0736 9.27993 3.0489ZM8.9836 4.05167L8.98854 4.05661L9.13671 4.19986L9.28487 4.05661L9.28981 4.05167L9.28487 4.05661L9.13671 3.92324L8.98854 4.05661L8.9836 4.05167ZM9.05275 4.36287H9.23054V4.2295L9.14164 4.31348L9.05275 4.2295V4.36287ZM9.24042 4.44685H9.04287L8.97373 4.6889H8.99842H9.29968H9.30956L9.24042 4.44685ZM9.04781 3.20697V3.41938L9.13671 3.33541L9.2256 3.41938V3.20697H9.04781ZM9.2256 1.83867H8.86014C8.8552 1.84361 8.8552 1.84855 8.85026 1.85349L8.97373 2.17457C8.96879 2.17951 8.96879 2.17951 8.97373 2.17457L9.0083 2.27337L9.11695 2.55987C9.12189 2.55987 9.12683 2.55987 9.13177 2.55987C9.14164 2.55987 9.15152 2.55987 9.1614 2.55987L9.42809 1.84361H9.3392L9.2256 1.83867ZM8.88977 1.75469H8.9194H9.29475C9.29475 1.75963 9.28981 1.75963 9.28981 1.76457C9.28981 1.75963 9.29475 1.75963 9.29475 1.75469H9.36883C9.38364 1.75469 9.4034 1.74975 9.41821 1.74481C9.41821 1.74481 9.41821 1.74975 9.41328 1.74975C9.41328 1.74975 9.41328 1.74481 9.41821 1.74481C9.48242 1.73493 9.52193 1.72011 9.53675 1.71024C9.52687 1.7053 9.50711 1.69542 9.47254 1.68554C9.47748 1.6806 9.47748 1.67566 9.48242 1.67566C9.47748 1.6806 9.47748 1.68554 9.47254 1.68554C9.44785 1.6806 9.41328 1.67072 9.37377 1.66578C9.30956 1.6559 9.23054 1.65096 9.13177 1.65096C9.08238 1.65096 9.04287 1.65096 9.00336 1.6559C8.86507 1.66578 8.77618 1.68554 8.7416 1.70036C8.7416 1.7053 8.73667 1.7053 8.73667 1.71024C8.75148 1.72999 8.80581 1.74481 8.88977 1.75469ZM9.13177 2.55493C9.13671 2.55493 9.14658 2.55493 9.15152 2.55493C9.14164 2.55493 9.13671 2.55493 9.13177 2.55493C9.11201 2.55493 9.11201 2.55493 9.13177 2.55493ZM9.27993 2.77722C9.27993 2.82662 9.2503 2.87107 9.21079 2.89577C9.20585 2.90071 9.20091 2.90071 9.19597 2.90565C9.18609 2.91059 9.17622 2.91059 9.17128 2.91553C9.18116 2.91553 9.19103 2.91059 9.19597 2.90565C9.15646 2.92047 9.11201 2.92047 9.0725 2.90565C9.08238 2.91059 9.09226 2.91059 9.0972 2.91553C9.08732 2.91553 9.07744 2.91059 9.0725 2.90565C9.06756 2.90071 9.06262 2.90071 9.05275 2.89577C9.01324 2.87107 8.98854 2.82662 8.98854 2.77722C8.98854 2.69818 9.05275 2.63397 9.13671 2.63397C9.15152 2.63397 9.17128 2.63891 9.18609 2.63891C9.15646 2.62409 9.12683 2.62409 9.10213 2.63891L9.04287 2.6636L9.10213 2.63891C9.13177 2.62903 9.1614 2.62903 9.18609 2.63891L9.21573 2.65372C9.21079 2.64878 9.20585 2.64878 9.20091 2.64878C9.20585 2.64878 9.21079 2.65372 9.21573 2.65372L9.24536 2.66854L9.21573 2.65372C9.2503 2.68336 9.27993 2.72782 9.27993 2.77722ZM9.05275 2.90071C9.05275 2.90071 9.05275 2.89577 9.05275 2.90071V2.90071ZM4.40537 18.7523C4.40043 18.7523 4.40043 18.7523 4.40043 18.7523C4.40043 18.7523 4.40043 18.7523 4.40537 18.7523ZM9.07744 22.9758C9.08238 22.9709 9.08732 22.9659 9.08732 22.961C9.08238 22.9659 9.08238 22.9709 9.07744 22.9758ZM9.55156 23.0351L9.43303 21.0592C9.37871 21.1086 9.37871 21.1086 8.71197 21.4889C8.71197 21.4889 8.59838 21.6865 8.59344 21.6915L8.24773 21.8742L7.45753 22.2694L7.41308 23.2228C7.41308 23.2228 9.17128 24.0131 9.58613 24.0181L9.55156 23.0351ZM7.9761 17.878C7.86744 18.7424 8.08475 19.3006 8.10944 19.4093C5.76353 19.1574 4.79554 21.0048 4.72145 21.1876C4.33129 20.7974 3.96582 20.3775 3.63987 19.9379C4.13868 19.3056 4.49427 18.8857 4.57329 18.8412C4.72639 18.7573 5.61537 18.4856 5.94627 18.4856H5.9512C5.99072 18.53 6.03023 18.5399 6.05986 18.5399C6.10431 18.5399 6.14876 18.5152 6.17345 18.4757C6.19814 18.4411 6.20308 18.3967 6.18827 18.3571L6.10431 18.283L6.03516 18.2732C5.99565 18.2682 5.95121 18.2633 5.89688 18.2633C5.80304 18.2633 5.68945 18.2732 5.5561 18.288C5.29929 18.3176 4.97827 18.4016 4.77578 18.4658L5.36843 17.4285V17.4235V17.4186L5.9759 15.912L6.12406 15.4575C6.11912 15.4575 6.11418 15.4575 6.11418 15.4526L6.16851 15.3044C6.16851 15.3044 6.21296 15.1661 6.27222 14.9932C6.29692 14.924 6.32161 14.8499 6.34631 14.7758V14.7709C6.36606 14.7116 6.39076 14.6523 6.41051 14.5931C6.47471 14.4152 6.55373 14.2078 6.57843 14.1831C6.58337 14.1781 6.62288 14.1139 6.65745 14.0546C6.66239 14.0448 6.67227 14.0349 6.6772 14.025C6.7019 13.9805 6.72659 13.946 6.72659 13.941H6.73153C8.16377 11.7132 9.20091 11.6243 9.20091 11.6243C9.20585 11.6193 9.30956 16.4603 9.30956 16.4603C8.52924 16.48 8.06993 17.1123 7.9761 17.878ZM7.02292 13.7138C7.02292 13.7089 7.02292 13.7089 7.02292 13.7138C7.01798 13.7187 7.01304 13.7187 7.02292 13.7138ZM9.74417 16.5739C9.88246 16.89 10.1343 17.1716 10.2627 17.3247C10.406 17.4877 10.3665 17.5865 10.3566 17.8039C10.3566 17.8434 10.3961 18.2682 10.3516 18.2682C10.3714 18.8165 10.4702 19.3895 10.2776 19.9181C10.2183 20.0762 10.1393 20.2244 10.0504 20.3627C9.99605 20.4467 9.99605 20.417 9.99605 20.4763C10.001 20.585 10.0059 20.6986 10.0109 20.8073C10.0405 21.5038 10.0701 22.1953 10.0948 22.8918C10.0948 22.9116 10.0948 22.9313 10.0998 22.9511C10.6628 22.9116 11.1023 22.6004 11.5518 22.2941C11.3937 22.5312 11.2554 22.7881 11.0134 22.956C11.5814 23.3166 13.1865 23.4056 14.2286 22.9017C14.0903 22.7683 13.5915 22.0817 13.7446 21.1728C13.7791 20.9703 13.3643 21.0592 13.384 19.8489C13.3939 19.1969 13.6507 18.8116 13.6507 18.8116C12.6729 18.3967 10.5393 14.0151 10.5393 14.0151C10.243 14.1435 9.8627 13.9558 9.7343 13.6842C9.57625 13.3384 9.79356 12.9037 10.1492 12.8049C10.2825 12.7654 10.2084 12.3702 10.2084 12.2418C10.2084 11.9602 10.2084 11.6786 10.2084 11.3971C10.0849 11.4316 9.57132 11.4909 9.57626 11.6243L9.74417 16.5739ZM14.7521 9.28285C14.6138 9.36189 14.4755 9.40634 14.3372 9.40634C14.1792 9.40634 14.0458 9.35201 13.9471 9.29767L13.9273 9.28779C13.9273 9.28779 13.9224 9.28779 13.9224 9.28285L13.9075 9.27297L13.8878 9.29273C13.8582 9.30261 13.8483 9.34213 13.8384 9.36683C13.8137 9.4508 13.8038 9.53478 13.8088 9.62369C13.789 9.74225 13.7791 9.87068 13.7791 9.96947C13.7791 9.98429 13.7791 10.0041 13.7742 10.0238C13.7742 10.0287 13.547 10.4536 13.7594 10.8883C13.7742 10.9179 13.7841 10.9475 13.794 10.9772C13.794 10.9772 14.0261 11.5304 14.7373 11.5057C14.7373 11.5057 14.4755 11.9256 13.7396 12.1084C13.6557 12.1281 13.5915 12.1281 13.547 12.1133C13.384 12.1183 13.2161 12.1281 13.0581 12.1281C11.5419 12.1281 10.727 11.8071 10.5492 11.7231C10.5591 11.4267 10.5739 11.323 10.5838 11.3081C10.5936 11.2983 10.6677 11.2587 10.7418 11.2242C10.9443 11.1254 11.2851 10.9574 11.4036 10.7845L11.4135 10.7697C11.4727 10.7253 11.5369 10.6462 11.532 10.5178C11.5616 10.4881 11.5814 10.4486 11.5913 10.4091C11.6308 10.2659 11.5814 10.1424 11.5765 10.1226V10.1127H11.5715C11.5715 10.1078 11.5666 10.1028 11.5616 10.0979C11.5567 10.093 11.5468 10.088 11.532 10.088C11.5172 10.088 11.5073 10.093 11.4876 10.1028C11.4332 10.1325 11.3789 10.1473 11.3345 10.1473C11.2653 10.1473 11.2258 10.1127 11.2209 10.1078C11.1369 9.97935 11.2752 9.7867 11.2752 9.78176C11.4283 9.85092 11.5616 9.88056 11.5666 9.88056L11.5863 9.8855L11.5962 9.86574C11.7641 10.1275 12.095 10.5326 12.5494 10.5425C12.5593 10.5425 12.5691 10.5425 12.579 10.5425C13.063 10.5425 13.3544 10.1967 13.4038 10.1078C13.4186 10.0831 13.4285 10.0584 13.4137 10.0337C13.3989 10.0189 13.384 10.009 13.3643 10.009C13.3297 10.009 13.2951 10.0386 13.2902 10.0386L13.2853 10.0436C13.2754 10.0584 13.0334 10.3894 12.5247 10.4239C12.0802 10.4536 11.7197 9.90032 11.5419 9.56935C11.5419 9.55947 11.532 9.54959 11.5221 9.52984C11.5073 9.50514 11.4974 9.48044 11.4876 9.46068C11.3196 9.0902 11.2357 8.60117 11.2554 8.04298V8.0331C11.2554 8.01334 11.2554 8.0084 11.2554 8.00346C11.2505 7.9343 11.206 7.31684 11.4629 6.99081C11.6752 6.72407 11.8629 6.65491 12.0605 6.58081C12.1296 6.55612 12.2037 6.52648 12.2778 6.48696C12.3913 6.43262 12.4654 6.37335 12.5099 6.30913C12.5593 6.4425 12.7124 6.54624 12.7618 6.56599C12.8062 6.58081 12.8605 6.59563 12.9149 6.60551C13.0383 6.63515 13.1815 6.66973 13.3347 6.74876C13.3692 6.77346 13.4038 6.79322 13.4433 6.81298C13.5569 6.88708 13.6606 6.98093 13.7544 7.09949C13.7742 7.12913 13.794 7.16864 13.8285 7.22298C13.8532 7.26744 13.8878 7.30696 13.9224 7.34153L14.0261 7.44527L14.036 7.46009C14.036 7.46503 14.0162 7.78611 14.2928 7.98864V8.07261C14.2928 8.08249 14.2977 8.33442 14.5446 8.56165C14.6286 8.64068 14.6089 8.73948 14.5891 8.79382C14.5446 8.91237 14.4064 9.03586 14.2434 9.03586C14.2187 9.03586 14.194 9.03092 14.1693 9.02598H14.1644L14.1545 9.07044H14.1594C14.2286 9.08526 14.2878 9.09514 14.3471 9.09514C14.594 9.09514 14.7373 8.94695 14.7373 8.7049C14.7373 8.59129 14.6632 8.51719 14.5743 8.42828C14.5298 8.38382 14.4755 8.32948 14.4311 8.26526C14.3619 8.17141 14.3372 8.06767 14.3372 8.06274L14.3273 8.0084C14.3669 8.0331 14.4162 8.0578 14.4656 8.07755C14.4706 8.07755 15.0188 8.23563 14.9249 8.67526C14.8755 8.90249 14.6089 9.23839 14.3372 9.23839C14.273 9.23839 14.2138 9.21863 14.1545 9.17912C14.1051 9.14454 14.031 8.98647 14.0014 8.92719L13.9767 8.87285L13.9569 8.93213C13.9569 8.93707 13.9125 9.0902 13.9866 9.20875C14.036 9.28285 14.115 9.33225 14.2286 9.34707C14.2631 9.35201 14.2977 9.35695 14.3273 9.35695C14.762 9.35695 15.004 8.90743 15.0286 8.59129C15.0583 8.55671 15.083 8.52707 15.1027 8.49249C15.1274 8.57153 15.2657 8.98153 14.7521 9.28285ZM12.4407 7.44033L12.4506 7.46009C12.4605 7.48973 12.5049 7.59346 12.5691 7.59346C12.5741 7.59346 12.5741 7.59346 12.579 7.59346C12.6235 7.58358 12.6778 7.54406 12.7025 7.49961C12.7173 7.46997 12.7124 7.45021 12.7074 7.44033C12.6976 7.41563 12.6778 7.41563 12.6729 7.41563C12.6531 7.41563 12.6383 7.43045 12.6185 7.44527C12.6087 7.45021 12.5988 7.46503 12.5938 7.46503C12.5889 7.46503 12.5691 7.45515 12.5593 7.45021C12.5346 7.43539 12.5148 7.42057 12.4901 7.42057C12.4802 7.42057 12.4704 7.42057 12.4654 7.42551L12.4407 7.44033ZM12.8457 8.94201C12.8507 8.99635 12.8408 9.01116 12.8358 9.01116C12.8358 9.01116 12.8309 9.0161 12.826 9.0161C12.8013 9.0161 12.7618 8.98647 12.742 8.97165L12.7074 8.94201L12.6976 8.99141C12.6976 8.99141 12.6778 9.0902 12.6087 9.0902H12.6037C12.5444 9.0902 12.5247 9.07044 12.5148 9.05068V7.77623H12.3913L12.4259 8.779L12.4605 8.94201L12.4358 8.98153C12.4358 8.98153 12.416 9.0161 12.3815 9.0161C12.3617 9.0161 12.3568 9.01116 12.3568 9.01116C12.3518 9.00622 12.3617 8.98153 12.3716 8.96671L12.4062 8.91731L12.3469 8.92225C12.3123 8.92719 12.2679 8.98647 12.2629 9.03586C12.2629 9.06056 12.2679 9.11984 12.3568 9.14454C12.3716 9.14948 12.3963 9.1396 12.416 9.12972C12.4407 9.16924 12.5 9.22851 12.5889 9.22851C12.6333 9.22851 12.6778 9.20875 12.7124 9.17418C12.7321 9.15442 12.742 9.13466 12.7519 9.1149C12.7716 9.12478 12.8062 9.12972 12.8309 9.12478C12.8753 9.1149 12.905 9.09514 12.9198 9.0655C12.9396 9.00622 12.8902 8.93707 12.8852 8.92719L12.8309 8.85803L12.8457 8.94201ZM12.7716 7.76635L12.6482 7.76141L12.6136 9.0161L12.7173 8.779L12.7716 7.76635ZM11.3048 7.57864L11.3838 7.52924C11.3838 7.52924 11.6308 7.37611 11.8975 7.39093C12.095 7.40081 12.3518 7.55394 12.3518 7.55394L12.4654 7.6231L12.3864 7.51936C12.3815 7.50948 12.2086 7.2872 11.937 7.24274C11.8975 7.2378 11.8629 7.23286 11.8234 7.23286C11.4826 7.23286 11.3542 7.48479 11.3493 7.49467L11.3048 7.57864ZM12.1543 7.9096C12.1839 7.93924 12.2333 8.00346 12.2333 8.00346L12.2778 8.06274V7.94418C12.2778 7.93924 12.2728 7.68732 12.0012 7.5984C11.9518 7.58358 11.9024 7.57864 11.853 7.57864C11.5863 7.57864 11.4135 7.77623 11.3838 7.81575C11.3641 7.83551 11.3443 7.8849 11.3394 7.89972L11.3246 7.9343H11.3641C11.4283 7.9343 11.5369 7.87503 11.6308 7.83057C11.6357 7.83057 11.6357 7.82563 11.6407 7.82563C11.6407 7.85033 11.6407 7.87503 11.6505 7.89478C11.6653 7.94912 11.7296 7.98864 11.7789 8.0084H11.7839L11.8481 8.01334C11.937 8.01334 11.9666 7.9837 11.9962 7.94418C12.0012 7.93924 12.0061 7.92936 12.016 7.92442C12.0358 7.89972 12.0506 7.87009 12.0555 7.84045C12.1049 7.86515 12.1395 7.89478 12.1543 7.9096ZM13.0778 9.55947L13.0383 9.51008C12.9988 9.51008 12.9396 9.51502 12.9149 9.51502C12.8704 9.51502 12.8408 9.49032 12.8062 9.46068C12.7815 9.44092 12.7568 9.41622 12.7272 9.41128H12.7173L12.7074 9.41622C12.7074 9.41622 12.6926 9.42116 12.6827 9.4261L12.6778 9.43104L12.6729 9.43598L12.6679 9.44092C12.6531 9.45574 12.6482 9.46562 12.6037 9.46562H12.5988C12.5593 9.46562 12.5494 9.45574 12.5494 9.45574C12.5296 9.43104 12.5099 9.4261 12.4951 9.4261C12.4753 9.4261 12.4556 9.43598 12.4506 9.44092L12.4457 9.44586L12.4407 9.4508C12.416 9.49526 12.3765 9.51502 12.3667 9.51996C12.337 9.5249 12.3025 9.53478 12.258 9.53478C12.2481 9.53478 12.2432 9.53478 12.2284 9.53478H12.1642L12.1987 9.58417C12.2284 9.62369 12.2876 9.69285 12.4012 9.69285C12.4358 9.69285 12.4704 9.68791 12.5099 9.67309C12.5099 9.67309 12.5099 9.67309 12.5148 9.67803C12.5198 9.68297 12.5198 9.68297 12.5247 9.68791C12.5 9.69285 12.4852 9.69285 12.4704 9.70273C12.3913 9.73237 12.3469 9.75212 12.3568 9.8361C12.3617 9.8608 12.3963 9.90032 12.4259 9.90526C12.4407 9.9102 12.4506 9.9102 12.4654 9.9102C12.4901 9.9102 12.5099 9.90526 12.5296 9.90032C12.5593 9.89538 12.5938 9.89044 12.6432 9.8855C12.658 9.89044 12.7371 9.90032 12.7864 9.90032C12.7963 9.90032 12.8013 9.90032 12.8111 9.90032C12.8161 9.90032 12.821 9.90032 12.826 9.90032C12.8507 9.90032 12.8704 9.89538 12.8902 9.87562C12.9099 9.85586 12.9149 9.81634 12.9149 9.80152C12.9149 9.75706 12.8605 9.68297 12.6531 9.67803C12.658 9.67309 12.663 9.66815 12.663 9.66815C12.6778 9.66815 12.7025 9.66815 12.7321 9.67309C12.7716 9.67803 12.8111 9.67803 12.8507 9.67803C12.9 9.67803 12.9346 9.67309 12.9593 9.66321C13.0087 9.64839 13.0531 9.58911 13.0778 9.55947ZM13.8532 7.94418L13.8433 7.9096C13.8384 7.88984 13.8137 7.82069 13.794 7.79599C13.7791 7.77129 13.6211 7.57864 13.3445 7.57864C13.2951 7.57864 13.2458 7.58358 13.1964 7.5984C12.9247 7.68732 12.9198 7.94418 12.9198 7.94418V8.06274L12.9642 8.00346C12.9642 8.00346 13.0136 7.93924 13.0433 7.9096C13.0433 7.9096 13.0433 7.9096 13.0482 7.90466C13.0778 7.87503 13.1075 7.85033 13.1371 7.83551C13.142 7.87009 13.1569 7.89478 13.1766 7.92442C13.1816 7.92936 13.1914 7.93924 13.1964 7.94418C13.2309 7.9837 13.2556 8.01334 13.3495 8.01334L13.4137 8.0084H13.4186C13.468 7.9837 13.5273 7.94912 13.547 7.89478C13.552 7.87503 13.5569 7.85033 13.5569 7.82563C13.5668 7.83057 13.5816 7.84045 13.5964 7.84539C13.6804 7.88984 13.7643 7.93924 13.8236 7.93924L13.8532 7.94418ZM13.9224 7.45515L13.8532 7.38105C13.8433 7.37117 13.6507 7.17358 13.3149 7.17358C12.9791 7.17358 12.8111 7.50948 12.8013 7.5243L12.742 7.64286L12.8408 7.55394C12.8408 7.55394 13.0581 7.36129 13.2507 7.32671C13.2655 7.32177 13.2853 7.32177 13.305 7.32177C13.4878 7.32177 13.8137 7.42551 13.8187 7.42551L13.9224 7.45515ZM13.9372 8.8037L13.9767 8.85309C13.9767 8.85803 14.036 8.92719 14.1199 8.92719C14.1446 8.92719 14.1742 8.92225 14.1989 8.90743C14.2384 8.89261 14.273 8.85803 14.2928 8.80864C14.3619 8.6555 14.3273 8.38382 14.2533 8.21093C14.2236 8.14177 14.1989 8.11213 14.1693 8.11213C14.1495 8.11213 14.1347 8.12695 14.1298 8.14671V8.15165V8.15659C14.2286 8.53695 14.1841 8.69502 14.1347 8.76418C14.1002 8.80863 14.0508 8.81851 14.0211 8.81851C14.0063 8.81851 14.0014 8.81851 13.9964 8.81851L13.9372 8.8037ZM7.08218 23.0351L7.21059 20.4565L7.76373 19.6761C7.76373 19.6761 6.16851 19.4785 4.96839 21.4494C4.96839 21.4494 5.74378 22.3386 7.08218 23.0351ZM7.46741 22.0027L8.3712 21.5383C8.3712 21.5383 7.86744 21.074 8.18353 19.7403L8.04524 19.7156L7.53161 20.5109L7.46741 22.0027ZM18.3277 21.1432C19.0439 21.5235 19.3451 22.0669 19.3451 22.0669L19.6019 21.8644C19.1031 21.2024 18.4907 20.995 18.4907 20.995L18.3277 21.1432ZM22.6047 17.8138C22.4022 18.283 22.1652 18.7375 21.8985 19.1722C21.9034 19.1722 21.9034 19.1771 21.9034 19.1771L21.7552 19.3846C20.8416 18.7375 20.5848 16.9987 20.5749 16.9246H20.5798C20.565 16.7369 20.5502 16.6233 20.5354 16.4949C20.5156 16.3417 20.4959 16.2034 20.4909 15.8675C20.481 15.25 20.239 14.519 19.8736 14.0052C19.7303 13.8076 19.6859 13.7632 19.5624 13.6496L19.5476 13.6348C19.5427 13.6298 19.4587 13.5557 19.3748 13.5557C19.3599 13.5557 19.3501 13.5557 19.3352 13.5607L19.2463 13.5903L19.3106 13.6644C19.518 13.9015 19.7057 14.267 19.6365 14.5091C19.6316 14.5338 19.6168 14.5437 19.597 14.5535C19.4735 14.4943 19.3106 14.1781 19.197 13.9657C19.0439 13.6743 18.9994 13.6002 18.9253 13.6002L18.8957 13.6101C18.8216 13.6446 18.8512 13.7681 18.871 13.8422C18.9105 13.9509 19.0093 14.2226 19.0488 14.3658C19.0735 14.4597 19.0834 14.6425 19.0636 14.6869C19.0636 14.6869 19.0636 14.6869 19.0587 14.6869H19.0439C18.792 14.6869 18.5648 14.1238 18.5648 14.1238C18.5648 14.1238 18.1006 13.1013 17.5672 12.8197L16.693 12.2862C16.8165 12.2813 16.7918 12.2862 16.9103 12.2615C17.3499 12.1578 17.4733 12.0886 17.582 11.9799C18.1104 11.4514 18.0166 10.8092 18.0067 10.7351C17.9968 10.6709 17.9623 10.5622 17.9524 10.5326C17.8339 10.1918 17.8042 9.93489 17.819 9.67803C17.8437 9.31743 17.9623 8.97165 18.1499 8.66044C18.4018 8.24057 18.8512 7.65768 19.4933 7.42551C19.597 7.36623 19.7748 7.33659 19.9822 7.33659C20.5403 7.37611 20.97 7.52924 21.2959 7.70707C21.691 7.92442 22.0022 8.2702 22.2096 8.67032C22.3479 8.93213 22.4812 9.20381 22.5948 9.4755C23.1628 10.7993 23.4542 12.2022 23.4542 13.6545C23.464 15.087 23.1776 16.4949 22.6047 17.8138ZM21.8293 13.941C21.6762 12.8296 21.3503 11.6342 20.6934 10.7006C20.9848 11.8812 21.2218 13.0716 21.3601 14.2819C21.4935 15.4378 21.3996 16.564 21.3206 17.7199C21.859 16.5393 22.0071 15.2204 21.8293 13.941ZM22.259 16.9345C22.7973 15.7539 22.9405 14.435 22.7627 13.1556C22.6096 12.0442 22.2837 10.8487 21.6268 9.91514C21.9182 11.0957 22.1553 12.2862 22.2936 13.4964C22.4269 14.6523 22.3331 15.7835 22.259 16.9345ZM7.60569 11.8466C7.67483 11.8515 6.2821 13.8126 6.2821 13.8126L6.20308 13.9558C6.11912 14.109 5.89688 14.4646 5.70921 14.4646C5.68945 14.4646 5.67463 14.4597 5.65488 14.4548C5.50178 14.3905 5.645 14.0448 5.64994 14.0398C5.7339 13.8076 5.81786 13.5804 5.85737 13.4668L5.81786 13.447C5.51659 13.9608 5.26966 14.2967 5.16594 14.3214C5.13137 14.3016 5.11162 14.2819 5.0968 14.2374C5.0326 14.0497 5.22027 13.5755 5.27953 13.4372L5.32892 13.3236L5.24496 13.4125L5.24002 13.4174C5.18076 13.4816 5.08198 13.5952 4.96839 13.778C4.57329 14.4152 4.36586 14.8252 4.27203 16.5937V16.6035C4.26709 16.6628 4.26215 16.8011 4.19795 16.8802C4.19301 17.3099 4.10411 18.1151 3.66456 19.2265L3.4275 19.1327C3.43244 19.1277 3.43244 19.1228 3.43244 19.1129C3.28921 19.0092 3.04228 18.7573 2.79534 18.4708C2.63236 18.283 2.49407 18.0706 2.3953 17.8385C2.3953 17.8335 2.3953 17.8335 2.39036 17.8286C1.81746 16.4998 1.52608 15.087 1.52608 13.6348C1.52608 12.1825 1.81746 10.7697 2.39036 9.44092C2.5484 9.07044 2.7262 8.71478 2.92868 8.36406C3.32872 7.65768 4.05472 7.17852 4.86468 7.12419C4.89925 7.11925 4.93876 7.11925 4.96839 7.11925C5.41288 7.11925 5.74872 7.25756 5.76353 7.2625C5.89688 7.32177 6.01047 7.38105 6.10925 7.44527C6.89451 7.95406 7.41308 9.21863 6.8303 10.5672L6.77104 10.7055L6.8303 10.6709L6.82537 10.6759L6.83524 10.7055C6.86982 10.829 6.99822 11.234 7.11675 11.3032C7.1859 11.3427 7.30936 11.5008 7.33406 11.6045C7.339 11.6342 7.339 11.6539 7.33406 11.6687L7.29949 11.728L7.35875 11.7725C7.4032 11.8021 7.44765 11.812 7.48716 11.8169L7.60569 11.8466ZM2.55828 13.2989C2.69656 12.0886 2.93362 10.9031 3.22501 9.72249C2.56815 10.6512 2.2422 11.8466 2.0891 12.963C1.9113 14.2423 2.05946 15.5613 2.59285 16.7418C2.51877 15.586 2.42493 14.4548 2.55828 13.2989ZM4.15844 10.503C3.50158 11.4316 3.17562 12.6271 3.02252 13.7434C2.84473 15.0228 2.99289 16.3417 3.53121 17.5223C3.45713 16.3664 3.3633 15.2402 3.4917 14.0843C3.62999 12.874 3.86705 11.6885 4.15844 10.503ZM17.335 7.5243C17.335 5.08407 15.3497 3.0983 12.9099 3.0983C10.4702 3.0983 8.48479 5.08407 8.48479 7.5243C8.48479 9.96453 10.4702 11.9503 12.9099 11.9503C15.3497 11.9503 17.335 9.96453 17.335 7.5243ZM17.0881 7.5243C17.0881 9.83116 15.2114 11.7083 12.905 11.7083C10.5986 11.7083 8.72185 9.83116 8.72185 7.5243C8.72185 5.21745 10.5986 3.34035 12.905 3.34035C15.2114 3.34035 17.0881 5.21745 17.0881 7.5243ZM9.50217 10.8487L9.13177 10.4387L9.17128 11.2291L9.52193 11.1353L9.50217 10.8487ZM12.5 1.00385C5.887 1.00385 0.503753 6.38816 0.503753 13.0025C0.503753 19.6168 5.887 25.0011 12.5 25.0011C19.113 25.0011 24.4963 19.6168 24.4963 13.0025C24.4963 6.38816 19.113 1.00385 12.5 1.00385ZM12.5 0.5C19.4044 0.5 25 6.09672 25 13.0025C25 19.9082 19.3994 25.5 12.5 25.5C5.60055 25.5 0 19.9033 0 13.0025C0 6.10166 5.59561 0.5 12.5 0.5Z" fill="#C5AA79"/>
</svg>
