<svg width="60" height="60" viewBox="0 0 60 60" fill="none" xmlns="http://www.w3.org/2000/svg">
<path d="M27.2548 25.3272C27.2653 25.3166 27.2865 25.306 27.3077 25.2849C27.4029 25.1896 27.4664 25.052 27.4982 24.9568C27.4558 24.9674 27.4029 24.9673 27.3606 24.9673C27.1277 24.9673 26.9372 24.8615 26.8208 24.6816C26.6621 24.7557 26.2387 24.9462 26.4292 25.5706V25.5918C26.4292 25.6024 26.4292 25.613 26.4292 25.613L27.2548 25.3272ZM32.4938 16.405C32.5679 16.4262 32.642 16.4367 32.7266 16.4367C32.9066 16.4367 33.0759 16.3944 33.2135 16.3521C33.6686 16.2145 34.0708 16.151 34.4095 16.1616C34.1025 15.3678 33.3722 15.2831 33.0653 15.2831C32.8219 15.2831 32.6314 15.336 32.5467 15.3889C32.5149 15.4101 32.4726 15.4313 32.4409 15.463C32.208 15.6218 31.9011 15.8229 31.5518 15.9075C31.7106 15.9605 31.7741 15.9816 31.7847 15.9816C32.0387 16.0663 32.2715 16.2145 32.4938 16.405ZM27.0007 17.3046C27.0537 17.2199 27.096 17.1353 27.1595 17.0612C27.2018 16.9977 27.2442 16.9448 27.2971 16.8918C27.096 16.9342 26.8843 16.9342 26.6832 16.9448C26.408 16.9553 26.1329 16.9553 25.8683 17.0506C25.4767 17.1882 25.3391 17.6539 25.2967 17.9502C25.5084 17.7809 25.7624 17.6751 26.0482 17.6433C26.4186 17.5798 26.7361 17.474 27.0007 17.3046ZM35.0657 15.4948C35.0551 15.4948 35.0022 15.4524 34.9069 15.4101C34.8752 15.3995 34.8328 15.3889 34.8011 15.3784L34.7693 15.3678L34.7587 15.3466C34.4412 14.5528 33.9755 14.013 33.3828 13.7484L33.3617 13.7378L33.3511 13.7273C33.3193 13.7167 33.2558 13.6955 33.2135 13.6743L33.1923 13.6638C33.1817 13.6638 33.1606 13.6532 33.15 13.6532C33.0971 13.6426 33.0547 13.6214 33.0441 13.6214L33.023 13.6108L32.9806 13.5791L32.7372 13.4097H32.7478C32.2292 13.0499 31.7212 12.8594 31.2449 12.8594C30.9379 12.8594 30.6522 12.9335 30.3453 13.0816L30.3135 13.1028L30.1759 13.1663L29.9854 13.1134C29.8266 13.0816 29.6785 13.0605 29.5303 13.0605C29.1387 13.0605 28.5672 13.1875 28.0803 13.8119L28.0697 13.8225L27.8686 13.886C27.6675 14.013 27.1172 14.4152 26.7891 15.0502C26.8208 15.0502 26.8526 15.0502 26.8737 15.0502C26.8843 15.0291 26.8949 15.0185 26.9055 14.9973C26.9161 14.9867 27.7945 13.7908 29.5938 13.4944C29.5938 13.4944 29.8055 13.4521 30.1759 13.4521C30.8321 13.4521 32.1128 13.6108 33.3405 14.701C33.3934 14.7539 33.4252 14.7857 33.4463 14.8174C34.6106 14.9338 35.0022 15.9922 35.0657 16.1933C35.0974 16.2039 35.1292 16.2145 35.1503 16.2251C35.8277 16.4897 36.1135 17.0824 36.2193 17.6221C36.2405 16.6908 35.6689 15.8652 35.0657 15.4948ZM27.4876 24.2053C27.4241 24.2053 27.3606 24.1947 27.2971 24.1736C27.2442 24.2688 27.1595 24.4593 27.2971 24.6075C27.3288 24.6392 27.4029 24.671 27.4876 24.671C27.5617 24.671 27.7416 24.6392 27.8051 24.3747C27.8263 24.2582 27.8369 24.163 27.8263 24.1101C27.731 24.163 27.6146 24.2053 27.4876 24.2053ZM36.6003 21.0196C36.9602 20.7655 37.1507 20.4904 37.1824 20.2046C37.2248 19.8342 37.0978 19.5272 37.0872 19.5272L37.0554 19.4849L37.0872 19.4426C37.9656 18.2889 37.4788 16.9977 37.2142 16.5426L37.1824 16.5002C37.1401 16.4579 37.0978 16.4156 37.0554 16.3732L37.0343 16.3627L37.0237 16.3415C36.812 15.5477 36.1558 14.7645 35.4043 14.4046L35.2138 14.2988L35.2033 14.2882L35.0022 13.9284H34.9916L34.981 13.9072C34.6317 13.3145 34.2084 12.8911 33.7109 12.6583L33.7003 12.6477L33.6898 12.6371L33.6792 12.6265C33.6157 12.5842 33.5098 12.5313 33.3617 12.4889L33.3405 12.4784C33.3193 12.4678 33.2982 12.4678 33.277 12.4572C33.2241 12.4466 33.1817 12.436 33.1606 12.4254C33.1288 12.4149 33.1182 12.4149 33.1182 12.4149H33.1076L32.6843 12.2138H32.716C32.1657 11.9068 31.6259 11.7587 31.1073 11.7587C30.5887 11.7587 30.2288 11.9174 30.0595 12.0127L30.0383 12.0233L30.0277 12.0444L30.0172 12.0338L30.0066 12.0233L29.9748 12.0127L29.9325 12.0656V12.0021C29.8266 11.9703 29.5726 11.9068 29.2445 11.9068C28.8529 11.9068 28.2708 12.0127 27.7416 12.4995L27.731 12.5101H27.7204C27.5829 12.5525 27.4559 12.5948 27.3818 12.6371L27.2971 12.6795C26.842 12.9441 26.3128 13.3145 26.0059 13.886L25.9953 13.8966L25.9847 13.9072C25.9635 13.9178 25.9424 13.9495 25.9212 13.9813C25.8365 14.1295 25.7942 14.2459 25.7624 14.3305L25.7518 14.3835C25.7413 14.4152 25.7413 14.447 25.7413 14.4576V14.4787L25.5931 14.6269L25.4767 14.7539C24.7252 15.3783 24.6617 16.5637 24.6511 16.6167V16.6696L24.4818 16.6802C24.2489 17.0824 24.0161 18.1407 24.2913 19.3156C24.2595 18.9345 24.3336 18.6064 24.5029 18.3207C24.5029 18.1619 24.4289 17.6962 24.5135 17.4316C24.6405 17.0294 24.704 16.7331 25.0216 16.5955C25.0956 16.2462 25.3814 15.2831 26.1646 15.082C26.2705 14.5316 26.6303 13.8437 27.6781 13.5685C27.9427 13.0922 28.419 12.5313 29.1916 12.5313C29.4774 12.5313 29.7949 12.616 30.1336 12.7853C30.3664 12.6054 30.8321 12.3196 31.4248 12.3196C32.0598 12.3196 32.6949 12.6371 33.2876 13.2722C33.7321 13.2933 35.0445 13.5262 35.3197 15.2302C35.6266 15.2831 36.0711 15.5159 36.4098 15.9287C36.7273 16.3203 37.0448 16.9977 36.7697 18.0349L36.7591 18.0878L36.6638 18.0667C36.7062 18.4477 36.5686 18.7969 36.558 18.8922C36.558 18.9028 36.5686 18.9028 36.5686 18.9134C36.9073 19.2838 37.066 20.1834 36.6003 21.0196ZM34.1449 17.982C34.2295 18.0032 34.3248 18.0137 34.4306 18.0243C34.8434 18.0878 35.3408 18.1619 35.7536 18.4371C35.7113 17.9502 35.6478 17.6751 35.5737 17.3787C35.5102 17.1247 34.9387 16.6484 34.0708 16.6484C33.8697 16.6484 33.6686 16.6696 33.4675 16.7225C33.2241 16.786 32.9912 16.8072 32.769 16.786C32.8854 16.9236 33.0018 17.0612 33.1076 17.2199C33.5839 17.6751 33.9544 17.9502 34.1449 17.982ZM33.6474 18.2678C33.8909 18.924 34.4518 19.1039 34.4624 19.1145C35.3726 19.4531 35.8383 19.8342 35.9124 20.3316C35.9441 20.2999 35.9759 20.2681 35.997 20.2258L36.0182 20.194C36.1241 20.0247 36.2087 19.7707 36.0923 19.4214C35.8171 18.5959 34.9175 18.4477 34.3989 18.4371C34.1978 18.4371 33.912 18.3842 33.6474 18.2678ZM17.1789 25.7506C17.1683 25.7506 17.1577 25.74 17.1577 25.74C17.1577 25.74 17.1577 25.7506 17.1789 25.7506ZM14.6493 19.5802C14.6493 19.5802 14.5329 19.6754 14.3424 19.8342C14.5223 19.686 14.6388 19.5907 14.6493 19.5802ZM13.2417 20.9031C13.3052 20.8396 13.3687 20.7655 13.4216 20.702C13.3687 20.7655 13.3052 20.8396 13.2417 20.9031ZM15.93 20.7338C15.8453 20.8714 15.6442 21.1042 15.3691 21.39C15.6442 21.1042 15.8453 20.8608 15.93 20.7338ZM27.3712 22.6177C27.4029 22.6706 27.4135 22.6601 27.3923 22.6071C27.4241 22.6601 27.4029 22.6706 27.3712 22.6177C27.1701 22.2685 27.0431 21.8028 26.969 21.3477C26.9796 21.3265 26.9796 21.3053 26.9796 21.2842C26.9796 21.3053 26.969 21.3265 26.969 21.3477C26.9372 21.4853 26.8843 21.6546 26.7891 21.8874C26.6409 22.2685 26.9267 22.6812 27.1383 22.8929C27.4241 23.1575 27.6358 23.3268 27.7734 23.4327C27.6146 23.1575 27.4876 22.8823 27.3712 22.6177ZM26.7467 20.9455C26.6197 20.0353 26.6621 19.1991 26.6621 19.1885C26.6621 19.178 26.6621 19.1674 26.6621 19.1462C26.5139 19.5272 26.0376 19.7812 25.8048 20.1623C25.6248 20.4586 25.8471 21.1783 25.8471 21.1889C26.0905 21.4429 26.334 21.6228 26.4292 21.6863C26.5033 21.4006 26.6621 21.1783 26.7467 20.9455ZM32.589 14.9232C32.7901 14.8386 32.9065 14.8386 33.0547 14.8386C32.8748 14.6586 32.1974 14.0448 31.1073 13.8437C31.0967 13.8437 30.758 13.7484 30.2712 13.7484C29.7526 13.7484 29.2551 13.8437 28.8 14.0342C28.7894 14.0342 28.0168 14.3305 27.3712 15.0502C27.3712 15.0502 27.4135 15.082 27.4347 15.082C27.4347 15.082 28.0062 14.3729 28.8106 14.2247C28.927 14.2035 29.0434 14.193 29.1599 14.193C29.8055 14.193 29.9748 14.5951 29.9748 14.6798V14.701C29.9748 14.7327 29.9748 14.7539 29.9748 14.7857H29.9854C29.9854 14.7962 29.9748 14.8068 29.9748 14.8068C29.9748 14.8174 29.9748 14.8174 29.9748 14.8068C29.9748 14.7962 29.9854 14.7857 29.9854 14.7857C30.0277 14.701 30.0912 14.6163 30.1971 14.5422C31.0861 13.886 32.589 14.9232 32.589 14.9232ZM33.2558 23.1787C33.2558 23.1893 33.404 24.1418 33.9649 24.3323C34.3777 24.4699 34.6211 24.0042 34.6211 23.5385C34.6211 23.1363 34.3036 22.7659 34.2613 22.713C34.2613 22.713 34.2613 22.713 34.2613 22.7236C33.8168 22.7024 33.4357 22.5331 33.2558 22.4378C33.2558 22.586 33.2241 22.8717 33.2558 23.1787ZM35.8806 27.1265C35.8806 27.1265 35.8912 27.1265 35.8912 27.1159C35.8912 27.1159 35.8806 27.1159 35.8806 27.1265ZM34.3248 14.8068C34.3354 14.8068 34.346 14.8068 34.3671 14.8068C34.3565 14.8068 34.3354 14.8068 34.3248 14.8068ZM35.9018 16.4473C35.9018 16.4579 35.9018 16.4579 35.9018 16.4685C35.9018 16.4685 35.9018 16.4579 35.9018 16.4473ZM35.9335 16.6378C35.9335 16.6484 35.9441 16.6484 35.9547 16.659C35.9441 16.6484 35.9335 16.6378 35.9335 16.6378ZM25.2438 20.0564C25.4661 19.6437 25.8577 19.3367 26.1752 19.2097C26.3763 19.1356 26.535 18.924 26.6621 18.6805C26.6515 18.7652 26.6515 18.7652 26.6621 18.6805C26.6938 18.363 26.7467 18.0772 26.8526 17.8338C26.4504 18.0455 26.2599 17.9502 25.3073 18.4159C24.63 18.9663 25.1274 19.8765 25.2438 20.0564C25.2544 20.067 25.2544 20.0776 25.2544 20.0776C25.2544 20.0776 25.2438 20.067 25.2438 20.0564ZM32.896 14.3094C32.8854 14.3094 32.8854 14.3094 32.8748 14.2988C32.843 14.2882 32.8113 14.2776 32.7901 14.267C32.8113 14.2882 32.8536 14.2988 32.896 14.3094ZM34.4095 24.6922C34.3777 24.7133 34.3354 24.7239 34.293 24.7451C34.0073 24.8298 33.7956 24.7345 33.6263 24.5863C33.3299 24.3111 33.3299 24.3111 33.6263 24.5863C33.6263 24.5863 33.15 24.2371 33.0547 23.6867C33.0441 23.6444 33.0441 23.6126 33.0336 23.5703C33.023 23.5279 33.023 23.4856 33.0124 23.4539C33.0124 23.4856 33.023 23.5279 33.0336 23.5703C33.0336 23.7079 33.0547 23.9513 33.1182 24.1947C33.1817 24.3323 33.2558 24.5122 33.3511 24.671C33.3511 24.6816 33.3617 24.6816 33.3722 24.6922L33.5839 24.9991C33.5733 24.9779 33.5522 24.9674 33.5416 24.9462C33.4675 24.8615 33.4146 24.7663 33.3511 24.671C33.2452 24.5334 33.1711 24.3641 33.1182 24.1947C33.1606 24.3641 33.2347 24.5334 33.3511 24.671C33.404 24.7663 33.4675 24.8615 33.5416 24.9462C33.5522 24.9568 33.5733 24.9779 33.5839 24.9991C33.8273 25.2849 34.2613 25.7717 34.7058 25.8881C35.1821 26.0046 35.4361 25.4119 35.0657 25.0944C34.8752 24.925 34.473 24.6604 34.4095 24.6922ZM23.4234 30.5239C23.4022 30.5239 23.3811 30.5345 23.3599 30.5345C23.3811 30.5345 23.4022 30.5239 23.4234 30.5239ZM28.3131 15.4948C28.2814 15.4842 28.2602 15.4736 28.2285 15.463C28.1332 15.4207 28.0274 15.3572 27.9956 15.3466C27.9004 15.3148 27.8157 15.2831 27.7416 15.2619C27.8263 15.1773 28.3026 14.701 28.7682 14.5634C28.8741 14.5316 28.9799 14.5211 29.0752 14.5211C29.4456 14.5211 29.6785 14.701 29.7208 14.8386C29.7631 15.0185 29.689 15.1878 29.5091 15.336C29.0117 15.6959 28.3131 15.4948 28.3131 15.4948ZM28.1861 15.1455L28.1967 15.1243C28.1861 15.1349 28.1861 15.1455 28.1861 15.1455ZM30.5358 15.5371C30.3452 15.4101 30.2394 15.2513 30.2606 15.0714C30.2712 14.9338 30.4934 14.7221 30.8533 14.6692C30.9591 14.6586 31.065 14.6586 31.1708 14.6692C31.6577 14.7327 32.1868 15.1455 32.2821 15.2196C32.208 15.2513 32.1339 15.2937 32.0493 15.336C32.0175 15.3466 31.9222 15.4207 31.8376 15.4736C31.8164 15.4842 31.7847 15.5054 31.7529 15.5159C31.7423 15.5265 31.0861 15.8229 30.5358 15.5371ZM31.8164 15.1455L31.827 15.1667C31.827 15.1667 31.827 15.1561 31.8164 15.1455ZM27.7416 15.6324L27.731 15.6535L27.7416 15.6324ZM33.0547 15.3784C33.0653 15.3889 33.0653 15.3995 33.0653 15.4101C33.0653 15.3995 33.0653 15.3889 33.0547 15.3784ZM27.5405 15.5794C27.5299 15.5794 27.5299 15.5794 27.5405 15.5794C27.5299 15.5794 27.5299 15.5794 27.5405 15.5794ZM32.8325 15.3678C32.843 15.3678 32.8642 15.3678 32.8748 15.3678C32.8854 15.3678 32.8854 15.3678 32.896 15.3678C32.8854 15.3678 32.8854 15.3678 32.8748 15.3678C32.8536 15.3678 32.843 15.3678 32.8325 15.3678ZM27.4664 15.6641C27.477 15.6853 27.4982 15.6959 27.5194 15.6959C27.5405 15.6959 27.5617 15.6853 27.6464 15.6218C27.5617 15.6853 27.5405 15.6959 27.5194 15.6959C27.4876 15.6959 27.477 15.6853 27.4664 15.6641ZM27.6358 16.4473C27.6464 16.4367 27.6569 16.4262 27.6675 16.4156C28.0062 16.1086 28.3131 15.971 28.5989 15.8652C28.6201 15.8546 28.6201 15.8546 28.5989 15.8652C28.4402 15.8546 28.2814 15.8229 28.1226 15.7805V15.77C27.8369 15.6747 27.7945 15.6006 27.2336 15.5159C27.1383 15.5054 26.9796 15.4842 26.8102 15.5159C26.7891 15.5159 26.7785 15.5265 26.7573 15.5265C26.7785 15.5265 26.7891 15.5159 26.8102 15.5159C26.8102 15.5159 26.8102 15.5159 26.8102 15.5265C26.7679 15.5371 26.7256 15.5371 26.6832 15.5583C26.3869 15.6535 26.0694 15.9393 25.8789 16.6378C26.0905 16.5955 26.3128 16.6167 26.4715 16.6272C26.9796 16.659 27.3923 16.532 27.6569 16.4156C27.6569 16.4262 27.6464 16.4367 27.6358 16.4473ZM26.3022 31.1801C26.2916 31.1801 26.2916 31.1695 26.281 31.1695C26.154 31.5399 25.7942 31.8045 25.3708 31.8045C24.8416 31.8045 24.4183 31.3918 24.4183 30.8943C24.4183 30.3863 24.8416 29.9841 25.3708 29.9841C25.9 29.9841 26.3234 30.3969 26.3234 30.8943C26.3234 30.9896 26.3128 31.0848 26.281 31.1695C26.2916 31.1695 26.2916 31.1695 26.3022 31.1801ZM26.281 31.1589L26.2705 31.1483C26.2705 31.1589 26.281 31.1589 26.281 31.1589ZM37.1401 39.2027C37.5635 39.2027 37.9762 39.245 38.3678 39.3403C34.2825 37.414 29.5091 33.9742 27.3712 32.3761C28.038 33.2016 28.9376 34.3129 29.3715 34.8315C29.9325 35.5089 32.0281 37.6786 33.4992 38.6841C29.8161 36.9166 27.2971 33.064 26.4927 31.7093C26.4821 31.6987 26.4715 31.6987 26.4715 31.6881C26.3975 31.7834 26.3128 31.8575 26.2281 31.9315C26.6303 32.6618 30.0912 39.3191 32.5361 41.7005C33.4675 40.1976 35.1821 39.2027 37.1401 39.2027ZM24.4183 45.6483C24.5876 45.3837 24.884 44.8756 25.0004 44.5264C25.1803 43.9972 25.2015 42.9282 25.1697 42.526C25.1697 42.526 25.1697 42.3249 25.1486 41.8381C25.138 41.6687 25.1062 41.203 25.1274 40.6315C25.1486 39.9753 25.1591 39.5731 25.1591 39.5731C25.1591 39.5731 25.0639 39.4249 24.8099 39.5202C24.6088 39.5943 24.0267 39.7954 24.2066 41.6687C24.2066 41.6793 24.2066 41.6793 24.2066 41.6899L24.5029 42.1344C24.6088 42.2508 24.7146 42.6001 24.577 42.7059C24.5135 42.7589 24.3759 42.7906 24.1854 42.4943L24.4183 45.6483ZM41.3207 48.0085C42.1886 47.1088 42.6649 45.934 42.6649 44.7063C42.6649 42.018 40.3788 39.8271 37.574 39.8271C34.7693 39.8271 32.4832 42.018 32.4832 44.7063C32.4832 46.4844 33.4675 48.0614 35.1292 48.9398C35.5208 49.0139 35.8171 49.0563 36.05 49.0563C36.2616 49.0563 36.3675 49.0245 36.4522 49.0033C36.4945 48.9928 36.5262 48.9822 36.558 48.9716C36.7167 48.9398 37.2671 48.4318 37.4153 48.2519C37.2459 48.2413 36.8438 48.2201 36.6003 48.1355C36.1452 48.4424 35.6901 48.6012 35.2562 48.6012C34.7799 48.6012 34.5047 48.4107 34.4941 48.4001L34.4835 48.3895C34.3777 48.2731 34.3142 48.1672 34.3142 48.072V46.188H35.5949V44.9603H37.0978V42.6954H36.1241L35.6584 42.9176V41.8486L36.1241 42.0709H37.0978V40.6103L36.8649 40.1658H37.9762L37.7434 40.6103V42.0709H38.7065L39.1722 41.8486V42.9176L38.7171 42.6954H37.754V44.9603H39.2569V46.188H40.5375V48.1566C40.6434 48.2519 40.7492 48.3577 40.8339 48.453C40.855 48.4318 41.0667 48.2731 41.3207 48.0085ZM20.4599 44.4734C20.4599 44.4734 20.4493 44.4734 20.4599 44.4734C20.4493 44.4734 20.4599 44.4734 20.4599 44.4734ZM24.0478 42.8647C23.9949 42.9494 23.9314 42.9917 23.8679 42.9917C23.8362 42.9917 23.7938 42.9811 23.7409 42.9705C23.688 42.9494 23.6562 42.9176 23.6456 42.907C23.254 42.6213 23.2646 42.1344 23.2646 42.1344V42.1027L23.2329 42.1132C23.2329 42.1132 23.0741 42.1767 22.9154 42.1556C22.6931 42.145 22.5343 42.018 22.3227 41.8592C22.2909 41.8275 22.2486 41.8063 22.2062 41.7746L22.1957 41.764L22.1851 41.7746C22.1216 41.8169 21.984 41.8486 21.7935 41.8486C21.5395 41.8486 21.2749 41.8063 21.2008 41.7957C21.0949 41.7746 20.9997 41.7957 20.9679 41.8486C20.9468 41.8804 20.9468 41.9121 20.9679 41.9333C21.0208 42.018 21.296 42.0286 21.4654 42.0286C21.7088 42.0286 22.0263 41.9968 22.1957 41.9333C22.4285 42.2297 23 42.399 23.1059 42.4202C23.127 42.4943 23.307 43.087 23.3387 43.0975L23.4551 46.1563C23.3811 46.5056 23.4446 46.4315 23.0741 46.6961C22.8413 46.8654 21.7088 47.5004 21.6982 47.511H21.6876L21.5183 47.8709C20.5657 46.5056 21.169 44.5793 21.2325 44.4099H21.2431V44.3994L21.2537 44.3676H21.2325L20.7986 42.6848C20.7986 42.6742 20.7245 41.7957 20.7563 41.4253C20.7774 41.1501 21.0103 41.1184 21.1161 41.1184C21.1373 41.1184 21.1479 41.1184 21.1584 41.1184C22.8095 41.2348 23.1059 41.5629 23.1059 41.5629C23.3176 41.764 23.815 42.5578 23.8785 42.6636C23.9102 42.7165 23.9632 42.7589 24.0055 42.7906C24.0161 42.8329 24.0478 42.8541 24.0478 42.8647ZM22.7672 46.0504C22.6931 46.0928 22.4814 46.188 22.238 46.188C22.0051 46.188 21.8146 46.1034 21.6559 45.934C21.4125 45.6694 21.2749 45.2355 21.2431 45.1085L21.2114 45.0026L21.1902 45.1085C21.1373 45.4048 21.169 45.8388 21.6453 46.2727C21.677 46.2939 21.9416 46.4632 22.2697 46.4632C22.5978 46.4632 22.8836 46.3045 23.127 45.9764C23.3387 45.68 23.254 45.2461 23.1376 44.9391L23.0741 44.7592L23.0953 44.9497C23.1482 45.5424 23.0424 45.9129 22.7672 46.0504ZM24.1113 41.5311V41.5417V41.5311ZM23.1905 38.737C23.1905 38.737 22.8413 38.8217 22.6825 38.8005C22.6825 38.8005 22.4391 39.4884 22.238 39.933C22.238 39.933 22.6084 39.9118 23.254 40.2822L23.1905 38.737ZM24.0478 42.272C23.8785 41.9968 23.3281 41.0972 23.3281 41.0972C23.3281 41.0972 22.4497 40.5997 20.9785 40.4516C20.5869 40.5574 20.6822 41.1501 20.6822 41.1501C20.6822 41.1501 20.8727 40.8961 21.4654 40.9596C22.1957 41.0443 22.5555 41.0654 23.053 41.2983C23.3811 41.4465 23.561 41.7746 23.942 42.5683C23.942 42.5683 24.0267 42.7059 24.0902 42.7589L24.0478 42.272ZM23.3811 40.6527C22.9789 40.314 22.4073 40.0811 21.6876 39.9647H21.6665C21.6453 39.9647 21.6347 39.9435 21.603 39.933C21.55 39.8906 21.4548 39.8165 21.2431 39.806C21.2114 39.8165 21.0526 39.8906 21.0103 40.0282C20.9785 40.1129 20.9997 40.1976 21.0632 40.3034C21.1267 40.3563 21.2008 40.3775 21.296 40.3775C21.4442 40.3775 21.5818 40.3034 21.6559 40.2293C21.6665 40.2187 21.6876 40.2081 21.7194 40.2081C21.9946 40.2081 23.2117 40.7585 23.2117 40.7585C23.434 40.8855 23.8256 41.5417 24.0055 42.0074C23.9843 41.7851 23.8891 41.0866 23.3811 40.6527ZM23.2752 38.0279C22.4603 38.1866 22.2697 38.2607 22.0687 38.4936C21.8358 38.7687 21.4548 39.3403 21.4865 39.7001C21.6347 39.806 21.9946 39.8377 22.0792 39.8483C22.111 39.7848 22.2168 39.5519 22.3015 39.3085C22.3544 39.1709 22.3968 39.0227 22.4391 38.9063C22.5132 38.6735 22.5132 38.6629 22.5449 38.6629H22.5555V38.6735H22.5661C22.7037 38.6735 23.2752 38.5571 23.3705 38.5041L23.4022 38.483L23.4128 38.5147C23.4551 38.6841 23.9314 39.0863 24.1325 39.1498C24.1854 39.1603 24.2278 39.1709 24.2701 39.1709C24.4289 39.1709 24.5982 39.0545 24.63 39.0439C24.5876 39.0122 24.0478 38.5465 24.0796 38.483L23.9632 38.356L23.8467 38.229C23.8467 38.229 23.6351 38.0067 23.3599 38.0067C23.3387 38.0173 23.307 38.0173 23.2752 38.0279ZM37.8916 46.9607C38.7383 46.9924 39.4156 47.2676 39.9237 47.5851V46.7701H39.1934H38.643V46.241V45.5424H36.1876V46.241V46.7701H35.6372H34.9069V47.511C35.7854 47.2888 36.3463 47.0453 36.3463 47.0453C37.2036 46.8654 37.8916 46.9607 37.8916 46.9607ZM39.9448 28.5659C39.966 28.5659 39.9978 28.5659 40.0295 28.5553C39.9766 28.5659 39.9448 28.5659 39.9448 28.5659ZM31.8693 28.4812C31.8587 28.4812 31.8587 28.4812 31.8693 28.4812C31.8587 28.4812 31.8587 28.4812 31.8693 28.4812ZM32.3985 51.6599C32.3985 51.6599 32.3985 51.6705 32.3985 51.6811C32.3985 51.6705 32.3985 51.6599 32.3985 51.6599ZM25.8048 29.7301C25.8048 29.6983 26.2175 29.8254 26.3763 29.9841C26.3975 30.0053 28.038 29.91 31.954 28.894C31.139 28.9151 28.1544 28.9363 25.8577 28.0578L25.8048 29.7301ZM26.2705 30.0264V30.0053V30.0264ZM36.4522 51.0566C36.4416 51.0566 36.4204 51.0566 36.4098 51.0672C36.3781 51.0778 36.3357 51.0778 36.2934 51.0778C36.1452 51.0778 35.9653 51.0249 35.8383 50.9825C35.8065 50.972 35.7854 50.9614 35.7642 50.9614C34.5047 50.6015 34.0284 50.1358 33.6686 49.5008C33.4569 49.1198 33.3828 48.7811 33.3511 48.5588C33.5733 49.0986 33.8062 49.469 34.0496 49.649C34.0814 49.6701 34.1131 49.7019 34.1449 49.7231C34.5365 50.03 34.9069 50.3158 36.0606 50.4745C36.1664 50.4851 36.3251 50.3052 36.3251 50.2522C36.3251 50.2205 36.3146 50.1993 36.304 50.1782C36.4522 50.2522 36.1876 50.1147 36.1664 50.1147C35.8383 50.1147 34.5153 49.9347 33.9649 49.0774C33.6263 48.5271 33.3299 48.1461 33.2558 47.8815C33.4357 48.1143 34.0602 48.8552 34.7799 49.0986C34.7905 49.0986 35.3408 49.2785 35.923 49.2785C36.0182 49.2785 36.1029 49.2785 36.177 49.2679C36.8332 49.1939 37.3306 48.5906 37.3412 48.5906C37.3412 48.5906 37.6058 48.2836 37.754 48.1672C37.9551 48.0085 38.0292 47.8815 37.9656 47.8074L37.9445 47.7862L37.9233 47.8074C37.881 47.8497 37.7222 48.0085 37.6375 48.0296C37.5317 48.0614 37.4259 48.0826 37.3094 48.0826C36.9708 48.0826 36.685 47.945 36.5686 47.8603L36.5474 47.8497L36.5368 47.8709C36.5368 47.8709 36.2511 48.2942 35.5419 48.4212C35.4467 48.4424 35.3408 48.4424 35.2562 48.4424C34.9387 48.4424 34.6952 48.3471 34.6211 48.1884C34.5788 48.1037 34.5894 48.019 34.6529 47.9238L34.6635 47.9132C34.6635 48.0191 35.5631 47.7333 35.5525 47.6804C35.9441 47.5534 36.2722 47.4263 36.3992 47.3628C36.939 47.2993 37.2565 47.2782 37.4788 47.2782C37.5317 47.2782 37.5846 47.2782 37.6375 47.2782H37.7116C38.1456 47.2993 38.6007 47.3205 39.3627 47.638C40.0613 47.9238 40.8445 48.7388 40.855 48.7493H40.8656C40.8762 48.7493 40.9609 48.7705 40.9715 48.7599L40.9926 48.7282C41.0773 48.6647 41.162 48.5906 41.2572 48.4953C41.3842 48.6435 41.7018 49.8818 41.7123 50.1464C41.4689 50.2946 40.3364 50.9614 38.77 51.7552C38.7594 51.7552 38.1985 52.0409 37.3941 52.0409C36.6638 52.0409 35.9759 51.8187 35.3408 51.3741C34.9704 51.1201 34.6 50.7709 34.3671 50.5486C35.2456 51.1307 36.3992 51.3001 36.4098 51.3001C36.5157 51.3106 36.558 51.2683 36.5792 51.2365C36.6003 51.2048 36.6109 51.1519 36.5897 51.099C36.5897 51.0884 36.4522 51.0566 36.4522 51.0566ZM26.9055 30.6826C26.9161 30.7567 26.9161 30.8202 26.9161 30.8943C26.9161 30.9049 26.9161 30.9155 26.9161 30.9261C27.4347 31.0954 30.758 32.1009 34.3142 32.1009C34.9175 32.1009 35.4996 32.0691 36.05 32.0162L36.4733 31.9739L37.0237 31.921L36.5262 32.1538L36.1452 32.3337C35.5419 32.6195 34.6846 32.7571 33.6157 32.7571C32.3033 32.7571 30.9062 32.5454 29.7949 32.3337C33.6792 34.2494 38.7171 36.091 39.5532 36.2709L39.5956 36.2815L39.6802 36.3027L39.6697 36.3874L39.6485 36.525L39.6379 36.6096L39.5532 36.599H39.5109C37.6375 36.4297 33.7427 35.2443 30.2394 33.572C31.4142 34.4082 32.1128 34.895 32.2715 35.0009C32.5467 35.1702 32.9806 35.4877 33.5416 35.8793C34.9598 36.906 37.1084 38.4512 39.5003 39.7107C41.67 40.4727 43.1306 42.4837 43.1306 44.7063C43.1306 45.3202 43.0142 45.9446 42.7919 46.5267C43.374 46.0293 44.2313 45.4048 44.9722 45.2567C45.0039 45.2461 45.0251 45.2461 45.0251 45.2461H45.0674L45.1627 45.2355L45.1733 45.3307L45.1944 45.4683L45.205 45.5636L45.1098 45.5742L45.0674 45.5848C45.0569 45.5848 45.0463 45.5848 45.0357 45.5953C44.8875 45.6271 44.4218 45.5848 43.1623 46.876C43.6915 47.0559 44.4747 47.4158 45.4379 48.1037C45.4379 48.1037 45.8189 48.3895 45.8295 48.3895C46.2105 48.0614 46.274 47.9767 46.6339 47.6274C46.9514 47.3099 47.2689 46.9818 47.5758 46.6431C47.5758 46.6431 41.416 31.2118 40.7704 30.6615C40.093 30.0794 39.1193 29.5396 39.0135 29.4761H39.0029L35.9335 27.5181C32.843 29.7195 26.9055 30.6826 26.9055 30.6826ZM30.504 52.75C30.2923 52.7606 30.0807 52.7712 29.8796 52.7712C27.8686 52.7712 26.4504 51.988 26.0376 51.7234C25.6883 51.8504 25.3073 51.9245 24.8945 51.9563L24.9475 53.7555C26.6091 54.1154 28.3237 54.3059 30.0489 54.3059C33.2135 54.3059 36.2722 53.7026 39.1616 52.496C40.855 51.7975 42.5696 50.7603 44.0408 49.6913C43.7656 49.3632 42.305 47.7015 42.305 47.7015L41.8605 48.0402C41.8605 48.0402 42.4956 50.0406 42.4956 50.0617L41.67 50.6544C41.2149 50.9084 39.9872 51.5858 39.6697 51.7657L39.6062 51.8081C39.1828 52.0515 38.4102 52.496 37.4365 52.496C37.0237 52.496 36.6215 52.4114 36.2405 52.242C35.8065 52.0515 35.4149 51.8398 35.0551 51.5858C34.7058 51.6493 32.4726 52.6442 30.504 52.75ZM27.7416 41.1819V41.1924V41.1819ZM23.6774 27.5181C23.6668 27.5181 23.6562 27.5287 23.6456 27.5287C23.6562 27.5287 23.6668 27.5287 23.6774 27.5181ZM22.4708 9.90648L22.4814 9.91707L22.7989 10.2134L23.127 9.8959L22.7989 9.57838L22.4708 9.90648ZM23.1059 8.67875C23.1059 8.63642 23.0741 8.60466 23.0424 8.59408C23.0318 8.60466 23.0212 8.60466 23 8.61525H22.9894C22.9683 8.62583 22.9471 8.62583 22.9259 8.63642C22.9048 8.63642 22.8836 8.647 22.873 8.647C22.8624 8.647 22.8413 8.647 22.8307 8.647H22.8201C22.7566 8.65758 22.6931 8.647 22.6296 8.62583C22.619 8.62583 22.619 8.62583 22.6084 8.61525C22.5978 8.61525 22.5873 8.60467 22.5767 8.60467C22.5661 8.60467 22.5555 8.59408 22.5449 8.59408C22.5026 8.60466 22.4814 8.647 22.4814 8.67875C22.4814 8.73167 22.5238 8.77401 22.5873 8.77401H23.0106C23.0635 8.77401 23.1059 8.73167 23.1059 8.67875ZM22.4708 10.8273L22.4814 10.8379L22.7989 11.1448L23.1165 10.8379L23.127 10.8273L23.1165 10.8379L22.7989 10.5521L22.4814 10.8379L22.4708 10.8273ZM22.619 11.4941H23V11.2083L22.8095 11.3882L22.619 11.2083V11.4941ZM23.0212 11.674H22.5978L22.4497 12.1926H22.5026H23.1482H23.1694L23.0212 11.674ZM22.6084 9.01744V9.47254L22.7989 9.29262L22.9894 9.47254V9.01744H22.6084ZM22.9894 6.0857H22.2062C22.1957 6.09628 22.1957 6.10687 22.1851 6.11745L22.4497 6.8054C22.4391 6.81599 22.4391 6.81599 22.4497 6.8054L22.5238 7.01708L22.7566 7.63095C22.7672 7.63095 22.7778 7.63095 22.7884 7.63095C22.8095 7.63095 22.8307 7.63095 22.8519 7.63095L23.4234 6.09628H23.2329L22.9894 6.0857ZM22.2697 5.90577H22.3332H23.1376C23.1376 5.91636 23.127 5.91636 23.127 5.92694C23.127 5.91636 23.1376 5.91636 23.1376 5.90577H23.2964C23.3281 5.90577 23.3705 5.89519 23.4022 5.88461C23.4022 5.88461 23.4022 5.89519 23.3916 5.89519C23.3916 5.89519 23.3916 5.88461 23.4022 5.88461C23.5398 5.86344 23.6245 5.83169 23.6562 5.81052C23.6351 5.79994 23.5927 5.77877 23.5186 5.7576C23.5292 5.74702 23.5292 5.73643 23.5398 5.73643C23.5292 5.74702 23.5292 5.7576 23.5186 5.7576C23.4657 5.74702 23.3916 5.72585 23.307 5.71526C23.1694 5.6941 23 5.68351 22.7884 5.68351C22.6825 5.68351 22.5978 5.68351 22.5132 5.6941C22.2168 5.71526 22.0263 5.7576 21.9522 5.78935C21.9522 5.79994 21.9416 5.79994 21.9416 5.81052C21.9734 5.85286 22.0898 5.88461 22.2697 5.90577ZM22.7884 7.62036C22.7989 7.62036 22.8201 7.62036 22.8307 7.62036C22.8095 7.62036 22.7989 7.62036 22.7884 7.62036C22.746 7.62036 22.746 7.62036 22.7884 7.62036ZM23.1059 8.09664C23.1059 8.20248 23.0424 8.29773 22.9577 8.35065C22.9471 8.36124 22.9365 8.36124 22.9259 8.37182C22.9048 8.3824 22.8836 8.3824 22.873 8.39299C22.8942 8.39299 22.9154 8.3824 22.9259 8.37182C22.8413 8.40357 22.746 8.40357 22.6614 8.37182C22.6825 8.3824 22.7037 8.3824 22.7143 8.39299C22.6931 8.39299 22.6719 8.3824 22.6614 8.37182C22.6508 8.36124 22.6402 8.36124 22.619 8.35065C22.5343 8.29773 22.4814 8.20248 22.4814 8.09664C22.4814 7.9273 22.619 7.78971 22.7989 7.78971C22.8307 7.78971 22.873 7.80029 22.9048 7.80029C22.8413 7.76854 22.7778 7.76854 22.7249 7.80029L22.5978 7.85321L22.7249 7.80029C22.7884 7.77912 22.8519 7.77912 22.9048 7.80029L22.9683 7.83204C22.9577 7.82146 22.9471 7.82146 22.9365 7.82146C22.9471 7.82146 22.9577 7.83204 22.9683 7.83204L23.0318 7.86379L22.9683 7.83204C23.0424 7.89554 23.1059 7.9908 23.1059 8.09664ZM22.619 8.36124C22.619 8.36124 22.619 8.35065 22.619 8.36124V8.36124ZM12.6596 42.3249C12.649 42.3249 12.649 42.3249 12.649 42.3249C12.649 42.3249 12.649 42.3249 12.6596 42.3249ZM22.6719 51.3741C22.6825 51.3636 22.6931 51.353 22.6931 51.3424C22.6825 51.353 22.6825 51.3636 22.6719 51.3741ZM23.688 51.5011L23.434 47.2676C23.3175 47.3734 23.3176 47.3734 21.8887 48.1884C21.8887 48.1884 21.6453 48.6117 21.6347 48.6223L20.8938 49.0139L19.2004 49.8606L19.1052 51.9033C19.1052 51.9033 22.873 53.5968 23.7621 53.6073L23.688 51.5011ZM20.3117 40.4516C20.0789 42.3038 20.5446 43.4997 20.5975 43.7326C15.5701 43.1928 13.4957 47.1512 13.3369 47.5428C12.5008 46.7066 11.7176 45.807 11.0191 44.8651C12.088 43.5103 12.8501 42.6107 13.0194 42.5154C13.3475 42.3355 15.2526 41.7534 15.9617 41.7534H15.9723C16.057 41.8486 16.1417 41.8698 16.2052 41.8698C16.3004 41.8698 16.3957 41.8169 16.4486 41.7322C16.5015 41.6581 16.5121 41.5629 16.4804 41.4782L16.3004 41.3195L16.1523 41.2983C16.0676 41.2877 15.9723 41.2771 15.8559 41.2771C15.6548 41.2771 15.4114 41.2983 15.1256 41.33C14.5753 41.3935 13.8873 41.5735 13.4534 41.7111L14.7234 39.4884V39.4779V39.4673L16.0253 36.2392L16.3428 35.2655C16.3322 35.2655 16.3216 35.2655 16.3216 35.2549L16.438 34.9374C16.438 34.9374 16.5333 34.641 16.6603 34.2706C16.7132 34.1224 16.7661 33.9636 16.819 33.8049V33.7943C16.8614 33.6673 16.9143 33.5403 16.9566 33.4133C17.0942 33.0323 17.2636 32.5877 17.3165 32.5348C17.3271 32.5242 17.4117 32.3867 17.4858 32.2596C17.4964 32.2385 17.5176 32.2173 17.5282 32.1961C17.5811 32.1009 17.634 32.0268 17.634 32.0162H17.6446C20.7139 27.2429 22.9365 27.0524 22.9365 27.0524C22.9471 27.0418 23.1694 37.414 23.1694 37.414C21.4971 37.4563 20.5128 38.8111 20.3117 40.4516ZM18.269 31.5294C18.269 31.5188 18.269 31.5188 18.269 31.5294C18.2585 31.5399 18.2479 31.5399 18.269 31.5294ZM24.1008 37.6574C24.3971 38.3348 24.9369 38.9381 25.2121 39.2662C25.519 39.6154 25.4343 39.8271 25.4132 40.2928C25.4132 40.3775 25.4978 41.2877 25.4026 41.2877C25.4449 42.4625 25.6566 43.6902 25.2438 44.8227C25.1168 45.1614 24.9475 45.4789 24.757 45.7753C24.6405 45.9552 24.6405 45.8917 24.6405 46.0187C24.6511 46.2515 24.6617 46.495 24.6723 46.7278C24.7358 48.2201 24.7993 49.7019 24.8522 51.1942C24.8522 51.2365 24.8522 51.2789 24.8628 51.3212C26.0694 51.2365 27.0113 50.5698 27.9745 49.9136C27.6358 50.4216 27.3394 50.972 26.8208 51.3318C28.038 52.1044 31.4777 52.2949 33.7109 51.2154C33.4146 50.9296 32.3456 49.4585 32.6737 47.511C32.7478 47.0771 31.8587 47.2676 31.9011 44.6745C31.9222 43.2775 32.4726 42.4519 32.4726 42.4519C30.377 41.5629 25.8048 32.175 25.8048 32.175C25.1697 32.4502 24.3548 32.048 24.0796 31.4659C23.7409 30.725 24.2066 29.7936 24.9686 29.5819C25.2544 29.4973 25.0956 28.6505 25.0956 28.3754C25.0956 27.7721 25.0956 27.1688 25.0956 26.5655C24.831 26.6396 23.7303 26.7666 23.7409 27.0524L24.1008 37.6574ZM34.8328 22.0356C34.5365 22.205 34.2401 22.3002 33.9438 22.3002C33.6051 22.3002 33.3193 22.1838 33.1076 22.0674L33.0653 22.0462C33.0653 22.0462 33.0547 22.0462 33.0547 22.0356L33.023 22.0144L32.9806 22.0568C32.9171 22.0779 32.896 22.1626 32.8748 22.2155C32.8219 22.3955 32.8007 22.5754 32.8113 22.7659C32.769 23.0199 32.7478 23.2951 32.7478 23.5068C32.7478 23.5385 32.7478 23.5809 32.7372 23.6232C32.7372 23.6338 32.2503 24.544 32.7055 25.4754C32.7372 25.5389 32.7584 25.6024 32.7795 25.6659C32.7795 25.6659 33.277 26.8513 34.8011 26.7984C34.8011 26.7984 34.2401 27.698 32.6631 28.0896C32.4832 28.1319 32.3456 28.1319 32.2504 28.1002C31.9011 28.1108 31.5412 28.1319 31.2025 28.1319C27.9533 28.1319 26.207 27.444 25.8259 27.2641C25.8471 26.629 25.8788 26.4068 25.9 26.375C25.9212 26.3538 26.0799 26.2692 26.2387 26.1951C26.6726 25.9834 27.4029 25.6236 27.6569 25.2531L27.6781 25.2214C27.8051 25.1261 27.9427 24.9568 27.9321 24.6816C27.9956 24.6181 28.038 24.5334 28.0591 24.4487C28.1438 24.1418 28.038 23.8772 28.0274 23.8349V23.8137H28.0168C28.0168 23.8031 28.0062 23.7925 27.9956 23.782C27.985 23.7714 27.9639 23.7608 27.9321 23.7608C27.9004 23.7608 27.8792 23.7714 27.8369 23.7925C27.7204 23.856 27.604 23.8878 27.5088 23.8878C27.3606 23.8878 27.2759 23.8137 27.2653 23.8031C27.0854 23.5279 27.3818 23.1152 27.3818 23.1046C27.7099 23.2528 27.9956 23.3163 28.0062 23.3163L28.0485 23.3268L28.0697 23.2845C28.4296 23.8455 29.1387 24.7133 30.1124 24.7345C30.1336 24.7345 30.1547 24.7345 30.1759 24.7345C31.2131 24.7345 31.8376 23.9936 31.9434 23.8031C31.9752 23.7502 31.9963 23.6973 31.9646 23.6444C31.9328 23.6126 31.9011 23.5914 31.8587 23.5914C31.7847 23.5914 31.7106 23.6549 31.7 23.6549L31.6894 23.6655C31.6682 23.6973 31.1496 24.4064 30.0595 24.4805C29.1069 24.544 28.3343 23.3586 27.9533 22.6495C27.9533 22.6283 27.9321 22.6071 27.911 22.5648C27.8792 22.5119 27.858 22.459 27.8369 22.4166C27.477 21.6228 27.2971 20.575 27.3394 19.3791V19.3579C27.3394 19.3156 27.3394 19.305 27.3394 19.2944C27.3288 19.1462 27.2336 17.8232 27.7839 17.1247C28.2391 16.5532 28.6412 16.405 29.0646 16.2462C29.2128 16.1933 29.3715 16.1298 29.5303 16.0451C29.7737 15.9287 29.9325 15.8017 30.0277 15.6641C30.1336 15.9499 30.4617 16.1721 30.5675 16.2145C30.6628 16.2462 30.7792 16.278 30.8956 16.2991C31.1602 16.3627 31.4671 16.4367 31.7952 16.6061C31.8693 16.659 31.9434 16.7013 32.0281 16.7437C32.2715 16.9024 32.4938 17.1035 32.6949 17.3575C32.7372 17.421 32.7795 17.5057 32.8536 17.6221C32.9065 17.7174 32.9806 17.8021 33.0547 17.8761L33.277 18.0984L33.2982 18.1302C33.2982 18.1407 33.2558 18.8287 33.8485 19.2626V19.4426C33.8485 19.4637 33.8591 20.0035 34.3883 20.4904C34.5682 20.6597 34.5259 20.8714 34.4835 20.9878C34.3883 21.2418 34.0919 21.5064 33.7427 21.5064C33.6898 21.5064 33.6368 21.4958 33.5839 21.4853H33.5733L33.5522 21.5805H33.5628C33.7109 21.6123 33.8379 21.6334 33.9649 21.6334C34.4941 21.6334 34.8011 21.3159 34.8011 20.7973C34.8011 20.5539 34.6423 20.3951 34.4518 20.2046C34.3565 20.1093 34.2401 19.9929 34.1449 19.8553C33.9967 19.6542 33.9438 19.432 33.9438 19.4214L33.9226 19.305C34.0073 19.3579 34.1131 19.4108 34.219 19.4531C34.2295 19.4531 35.4043 19.7918 35.2033 20.7338C35.0974 21.2207 34.5259 21.9404 33.9438 21.9404C33.8062 21.9404 33.6792 21.898 33.5522 21.8134C33.4463 21.7393 33.2876 21.4006 33.2241 21.2736L33.1711 21.1572L33.1288 21.2842C33.1288 21.2947 33.0336 21.6228 33.1923 21.8769C33.2982 22.0356 33.4675 22.1415 33.7109 22.1732C33.785 22.1838 33.8591 22.1944 33.9226 22.1944C34.854 22.1944 35.3726 21.2312 35.4255 20.5539C35.489 20.4798 35.5419 20.4163 35.5843 20.3422C35.6372 20.5115 35.9335 21.39 34.8328 22.0356ZM29.8796 18.0878L29.9007 18.1302C29.9219 18.1937 30.0171 18.4159 30.1547 18.4159C30.1653 18.4159 30.1653 18.4159 30.1759 18.4159C30.2712 18.3948 30.3876 18.3101 30.4405 18.2148C30.4723 18.1513 30.4617 18.109 30.4511 18.0878C30.4299 18.0349 30.3876 18.0349 30.377 18.0349C30.3347 18.0349 30.3029 18.0667 30.2606 18.0984C30.2394 18.109 30.2182 18.1407 30.2077 18.1407C30.1971 18.1407 30.1547 18.1196 30.1336 18.109C30.0807 18.0772 30.0383 18.0455 29.9854 18.0455C29.9642 18.0455 29.9431 18.0455 29.9325 18.0561L29.8796 18.0878ZM30.7474 21.3053C30.758 21.4217 30.7369 21.4535 30.7263 21.4535C30.7263 21.4535 30.7157 21.4641 30.7051 21.4641C30.6522 21.4641 30.5675 21.4006 30.5252 21.3688L30.4511 21.3053L30.4299 21.4112C30.4299 21.4112 30.3876 21.6228 30.2394 21.6228H30.2288C30.1018 21.6228 30.0595 21.5805 30.0383 21.5382V18.8075H29.7737L29.8478 20.9561L29.9219 21.3053L29.869 21.39C29.869 21.39 29.8266 21.4641 29.7526 21.4641C29.7102 21.4641 29.6996 21.4535 29.6996 21.4535C29.689 21.4429 29.7102 21.39 29.7314 21.3582L29.8055 21.2524L29.6785 21.263C29.6044 21.2736 29.5091 21.4006 29.4985 21.5064C29.4985 21.5593 29.5091 21.6863 29.6996 21.7393C29.7314 21.7498 29.7843 21.7287 29.8266 21.7075C29.8796 21.7922 30.0066 21.9192 30.1971 21.9192C30.2923 21.9192 30.3876 21.8769 30.4617 21.8028C30.504 21.7604 30.5252 21.7181 30.5463 21.6758C30.5887 21.6969 30.6628 21.7075 30.7157 21.6969C30.8109 21.6758 30.8744 21.6334 30.9062 21.5699C30.9485 21.4429 30.8427 21.2947 30.8321 21.2736L30.7157 21.1254L30.7474 21.3053ZM30.5887 18.7864L30.3241 18.7758L30.25 21.4641L30.4723 20.9561L30.5887 18.7864ZM27.4453 18.3842L27.6146 18.2783C27.6146 18.2783 28.1438 17.9502 28.7153 17.982C29.1387 18.0032 29.689 18.3313 29.689 18.3313L29.9325 18.4794L29.7631 18.2572C29.7526 18.236 29.3821 17.7597 28.8 17.6645C28.7153 17.6539 28.6412 17.6433 28.5566 17.6433C27.8263 17.6433 27.5511 18.1831 27.5405 18.2042L27.4453 18.3842ZM29.2657 19.0933C29.3292 19.1568 29.435 19.2944 29.435 19.2944L29.5303 19.4214V19.1674C29.5303 19.1568 29.5197 18.617 28.9376 18.4265C28.8318 18.3948 28.7259 18.3842 28.6201 18.3842C28.0485 18.3842 27.6781 18.8075 27.6146 18.8922C27.5723 18.9345 27.5299 19.0404 27.5194 19.0721L27.4876 19.1462H27.5723C27.7099 19.1462 27.9427 19.0192 28.1438 18.924C28.1544 18.924 28.1544 18.9134 28.165 18.9134C28.165 18.9663 28.165 19.0192 28.1861 19.0615C28.2179 19.178 28.3555 19.2626 28.4613 19.305H28.4719L28.6095 19.3156C28.8 19.3156 28.8635 19.2521 28.927 19.1674C28.9376 19.1568 28.9482 19.1356 28.9693 19.125C29.0117 19.0721 29.0434 19.0086 29.054 18.9451C29.1599 18.998 29.2339 19.0615 29.2657 19.0933ZM31.2449 22.6283L31.1602 22.5225C31.0755 22.5225 30.9485 22.5331 30.8956 22.5331C30.8004 22.5331 30.7369 22.4801 30.6628 22.4166C30.6098 22.3743 30.5569 22.3214 30.4934 22.3108H30.4723L30.4511 22.3214C30.4511 22.3214 30.4193 22.332 30.3982 22.3425L30.3876 22.3531L30.377 22.3637L30.3664 22.3743C30.3347 22.406 30.3241 22.4272 30.2288 22.4272H30.2182C30.1336 22.4272 30.1124 22.406 30.1124 22.406C30.0701 22.3531 30.0277 22.3425 29.996 22.3425C29.9536 22.3425 29.9113 22.3637 29.9007 22.3743L29.8901 22.3849L29.8796 22.3955C29.8266 22.4907 29.742 22.5331 29.7208 22.5436C29.6573 22.5542 29.5832 22.5754 29.488 22.5754C29.4668 22.5754 29.4562 22.5754 29.4245 22.5754H29.2869L29.3609 22.6812C29.4245 22.7659 29.5515 22.9141 29.7949 22.9141C29.869 22.9141 29.9431 22.9035 30.0277 22.8717C30.0277 22.8717 30.0277 22.8717 30.0383 22.8823C30.0489 22.8929 30.0489 22.8929 30.0595 22.9035C30.0066 22.9141 29.9748 22.9141 29.9431 22.9352C29.7737 22.9987 29.6785 23.0411 29.6996 23.221C29.7102 23.2739 29.7843 23.3586 29.8478 23.3692C29.8796 23.3798 29.9007 23.3798 29.9325 23.3798C29.9854 23.3798 30.0277 23.3692 30.0701 23.3586C30.1336 23.348 30.2077 23.3374 30.3135 23.3268C30.3452 23.3374 30.5146 23.3586 30.6204 23.3586C30.6416 23.3586 30.6522 23.3586 30.6733 23.3586C30.6839 23.3586 30.6945 23.3586 30.7051 23.3586C30.758 23.3586 30.8004 23.348 30.8427 23.3057C30.885 23.2633 30.8956 23.1787 30.8956 23.1469C30.8956 23.0517 30.7792 22.8929 30.3347 22.8823C30.3453 22.8717 30.3558 22.8612 30.3558 22.8612C30.3876 22.8612 30.4405 22.8612 30.504 22.8717C30.5887 22.8823 30.6734 22.8823 30.758 22.8823C30.8639 22.8823 30.9379 22.8717 30.9909 22.8506C31.0967 22.8188 31.192 22.6918 31.2449 22.6283ZM32.9065 19.1674L32.8854 19.0933C32.8748 19.051 32.8219 18.9028 32.7795 18.8499C32.7478 18.7969 32.4091 18.3842 31.8164 18.3842C31.7106 18.3842 31.6047 18.3948 31.4989 18.4265C30.9168 18.617 30.9062 19.1674 30.9062 19.1674V19.4214L31.0014 19.2944C31.0014 19.2944 31.1073 19.1568 31.1708 19.0933C31.1708 19.0933 31.1708 19.0933 31.1814 19.0827C31.2449 19.0192 31.3084 18.9663 31.3719 18.9345C31.3825 19.0086 31.4142 19.0615 31.4566 19.125C31.4671 19.1356 31.4883 19.1568 31.4989 19.1674C31.573 19.2521 31.6259 19.3156 31.827 19.3156L31.9646 19.305H31.9752C32.081 19.2521 32.208 19.178 32.2504 19.0615C32.2609 19.0192 32.2715 18.9663 32.2715 18.9134C32.2927 18.924 32.3244 18.9451 32.3562 18.9557C32.5361 19.051 32.716 19.1568 32.843 19.1568L32.9065 19.1674ZM33.0547 18.1196L32.9065 17.9608C32.8854 17.9397 32.4726 17.5163 31.7529 17.5163C31.0332 17.5163 30.6734 18.236 30.6522 18.2678L30.5252 18.5218L30.7369 18.3313C30.7369 18.3313 31.2025 17.9185 31.6153 17.8444C31.6471 17.8338 31.6894 17.8338 31.7317 17.8338C32.1233 17.8338 32.8219 18.0561 32.8325 18.0561L33.0547 18.1196ZM33.0865 21.009L33.1711 21.1148C33.1711 21.1254 33.2982 21.2736 33.4781 21.2736C33.531 21.2736 33.5945 21.263 33.6474 21.2312C33.7321 21.1995 33.8062 21.1254 33.8485 21.0196C33.9967 20.6915 33.9226 20.1093 33.7638 19.7389C33.7003 19.5907 33.6474 19.5272 33.5839 19.5272C33.5416 19.5272 33.5098 19.559 33.4992 19.6013V19.6119V19.6225C33.7109 20.4374 33.6157 20.7761 33.5098 20.9243C33.4357 21.0196 33.3299 21.0407 33.2664 21.0407C33.2346 21.0407 33.2241 21.0407 33.2135 21.0407L33.0865 21.009ZM18.396 51.5011L18.6712 45.9764L19.8566 44.3041C19.8566 44.3041 16.438 43.8807 13.8661 48.1037C13.8661 48.1037 15.5278 50.0088 18.396 51.5011ZM19.2216 49.2891L21.1584 48.2942C21.1584 48.2942 20.0789 47.2993 20.7563 44.4417L20.4599 44.3888L19.3592 46.0928L19.2216 49.2891ZM42.4956 47.4475C44.0302 48.2625 44.6758 49.4267 44.6758 49.4267L45.2262 48.9928C44.1572 47.5745 42.8448 47.13 42.8448 47.13L42.4956 47.4475ZM51.6612 40.314C51.2273 41.3195 50.7192 42.2932 50.1477 43.2245C50.1583 43.2245 50.1583 43.2351 50.1583 43.2351L49.8408 43.6797C47.8827 42.2932 47.3324 38.5676 47.3112 38.4089H47.3218C47.2901 38.0067 47.2583 37.7633 47.2265 37.4881C47.1842 37.16 47.1419 36.8636 47.1313 36.1439C47.1101 34.8209 46.5915 33.2545 45.8083 32.1538C45.5014 31.7304 45.4061 31.6352 45.1415 31.3918L45.1098 31.36C45.0992 31.3494 44.9193 31.1907 44.7393 31.1907C44.7076 31.1907 44.6864 31.1907 44.6547 31.2013L44.4642 31.2648L44.6017 31.4235C45.0463 31.9315 45.4485 32.7148 45.3003 33.2334C45.2897 33.2863 45.2579 33.3074 45.2156 33.3286C44.951 33.2016 44.6017 32.5242 44.3583 32.0691C44.0302 31.4447 43.935 31.2859 43.7762 31.2859L43.7127 31.3071C43.5539 31.3812 43.6174 31.6458 43.6598 31.8045C43.7444 32.0374 43.9561 32.6195 44.0408 32.9264C44.0937 33.1275 44.1149 33.5191 44.0725 33.6144C44.0725 33.6144 44.0725 33.6144 44.062 33.6144H44.0302C43.4904 33.6144 43.0036 32.4078 43.0036 32.4078C43.0036 32.4078 42.0087 30.217 40.8656 29.6137L38.9923 28.4706C39.2569 28.46 39.204 28.4706 39.458 28.4177C40.3999 28.1954 40.6645 28.0473 40.8974 27.8144C42.0299 26.6819 41.8288 25.306 41.8076 25.1473C41.7864 25.0097 41.7123 24.7768 41.6912 24.7133C41.4372 23.983 41.3737 23.4327 41.4054 22.8823C41.4583 22.1097 41.7123 21.3688 42.1145 20.702C42.6543 19.8024 43.6174 18.5535 44.9933 18.0561C45.2156 17.9291 45.5966 17.8656 46.0412 17.8656C47.2371 17.9502 48.1579 18.2783 48.8565 18.6594C49.7032 19.125 50.37 19.8659 50.8145 20.7232C51.1108 21.2842 51.3966 21.8663 51.64 22.4484C52.8572 25.2849 53.4816 28.2907 53.4816 31.4024C53.5028 34.4717 52.8889 37.4881 51.6612 40.314ZM49.9995 32.0162C49.6714 29.6348 48.9729 27.0735 47.5652 25.0732C48.1897 27.6027 48.6977 30.1535 48.9941 32.7465C49.2798 35.2231 49.0787 37.6363 48.9094 40.1129C50.063 37.5833 50.3805 34.7574 49.9995 32.0162ZM50.9203 38.43C52.074 35.9005 52.3809 33.0746 51.9999 30.3334C51.6718 27.952 50.9732 25.3907 49.5656 23.3904C50.19 25.9199 50.6981 28.4706 50.9944 31.0637C51.2802 33.5403 51.0791 35.964 50.9203 38.43ZM19.5179 27.5287C19.6661 27.5392 16.6815 31.741 16.6815 31.741L16.5121 32.048C16.3322 32.3761 15.8559 33.1381 15.4537 33.1381C15.4114 33.1381 15.3796 33.1275 15.3373 33.1169C15.0092 32.9793 15.3161 32.2385 15.3267 32.2279C15.5066 31.7305 15.6866 31.2436 15.7712 31.0002L15.6866 30.9578C15.0409 32.0586 14.5118 32.7783 14.2895 32.8312C14.2154 32.7888 14.1731 32.7465 14.1413 32.6512C14.0037 32.2491 14.4059 31.233 14.5329 30.9367L14.6388 30.6932L14.4588 30.8837L14.4483 30.8943C14.3212 31.0319 14.1096 31.2753 13.8661 31.6669C13.0194 33.0323 12.5749 33.9107 12.3738 37.6998V37.7209C12.3632 37.8479 12.3526 38.1443 12.2151 38.3136C12.2045 39.2344 12.014 40.9596 11.072 43.341L10.564 43.1399C10.5746 43.1293 10.5746 43.1187 10.5746 43.0975C10.2676 42.8753 9.73842 42.3355 9.20923 41.7216C8.85996 41.3195 8.56361 40.8643 8.35193 40.3669C8.35193 40.3563 8.35193 40.3563 8.34135 40.3457C7.11362 37.4987 6.48917 34.4717 6.48917 31.36C6.48917 28.2484 7.11362 25.2214 8.34135 22.3743C8.68004 21.5805 9.06105 20.8185 9.49499 20.067C10.3523 18.5535 11.9081 17.5269 13.6439 17.4105C13.718 17.3999 13.8026 17.3999 13.8661 17.3999C14.8187 17.3999 15.5384 17.6962 15.5701 17.7068C15.8559 17.8338 16.0993 17.9608 16.311 18.0984C17.9939 19.1885 19.1052 21.898 17.8563 24.7874L17.7293 25.0838L17.8563 25.0097L17.8457 25.0203L17.8668 25.0838C17.9409 25.3484 18.2161 26.2162 18.4701 26.3644C18.6183 26.4491 18.8829 26.7878 18.9358 27.01C18.9464 27.0735 18.9464 27.1159 18.9358 27.1476L18.8617 27.2746L18.9887 27.3699C19.084 27.4334 19.1793 27.4546 19.2639 27.4651L19.5179 27.5287ZM8.7012 30.6403C8.99755 28.0473 9.50558 25.5071 10.13 22.9776C8.72237 24.9674 8.02383 27.5287 7.69573 29.9206C7.31471 32.6618 7.63223 35.4877 8.77529 38.0173C8.61653 35.5406 8.41544 33.1169 8.7012 30.6403ZM12.1304 24.6498C10.7227 26.6396 10.0242 29.2009 9.69609 31.5929C9.31507 34.3341 9.63259 37.16 10.7862 39.6895C10.6275 37.2129 10.4264 34.7998 10.7016 32.3231C10.9979 29.7301 11.5059 27.19 12.1304 24.6498ZM40.3682 18.2678C40.3682 13.0393 36.1135 8.78459 30.885 8.78459C25.6566 8.78459 21.4019 13.0393 21.4019 18.2678C21.4019 23.4962 25.6566 27.7509 30.885 27.7509C36.1135 27.7509 40.3682 23.4962 40.3682 18.2678ZM39.839 18.2678C39.839 23.2104 35.8171 27.2323 30.8744 27.2323C25.9318 27.2323 21.9099 23.2104 21.9099 18.2678C21.9099 13.3251 25.9318 9.3032 30.8744 9.3032C35.8171 9.3032 39.839 13.3251 39.839 18.2678ZM23.5821 25.3907L22.7884 24.5122L22.873 26.2057L23.6245 26.0046L23.5821 25.3907ZM30.0066 4.29702C15.8347 4.29702 4.29831 15.8335 4.29831 30.0053C4.29831 44.1771 15.8347 55.7135 30.0066 55.7135C44.1784 55.7135 55.7148 44.1771 55.7148 30.0053C55.7148 15.8335 44.1784 4.29702 30.0066 4.29702ZM30.0066 3.21747C44.8028 3.21747 56.7944 15.209 56.7944 30.0053C56.7944 44.8015 44.7923 56.7825 30.0066 56.7825C15.2209 56.7825 3.21875 44.791 3.21875 30.0053C3.21875 15.2196 15.2103 3.21747 30.0066 3.21747Z" fill="white"/>
</svg>
