<svg width="118" height="197" viewBox="0 0 118 197" fill="none" xmlns="http://www.w3.org/2000/svg">
<path d="M44.9198 140.134C43.3385 140.134 42.3046 139.351 41.6964 138.207V142.302H43.3993V142.784H37.8649V142.302H39.5678V138.207C38.9596 139.351 37.9257 140.134 36.3444 140.134C34.0333 140.134 32.6953 138.749 32.6953 136.881C32.6953 134.351 35.6754 132.484 36.6485 131.46C37.5608 130.557 39.5678 128.388 39.5678 125.979V125.256H37.8649V124.774H43.3993V125.256H41.6964V125.979C41.6964 128.388 43.7034 130.557 44.6157 131.46C45.6496 132.484 48.5689 134.351 48.5689 136.881C48.5689 138.688 47.2309 140.134 44.9198 140.134ZM39.507 127.906C39.2029 128.93 38.5339 130.376 37.135 132.243C36.1011 133.629 34.8848 134.532 34.8848 136.399C34.8848 137.905 35.6754 138.749 37.135 138.749C38.6555 138.749 39.507 137.785 39.507 136.399V127.906ZM44.0075 132.243C42.6087 130.376 42.0005 128.93 41.6356 127.906V136.399C41.6356 137.845 42.4871 138.749 44.0075 138.749C45.4672 138.749 46.2578 137.905 46.2578 136.399C46.2578 134.472 45.0414 133.629 44.0075 132.243Z" fill="#C5AA79"/>
<path d="M55.0153 142.362C54.0422 142.844 53.1299 143.025 52.8866 143.025C52.8258 143.025 52.5825 143.025 52.5825 142.904C52.5825 142.784 52.8866 142.242 52.8866 141.88C52.8866 141.037 52.765 140.856 51.0013 137.423C50.089 135.676 49.8457 134.231 49.8457 132.665C49.8457 126.641 53.6164 124.473 55.1977 124.473C55.441 124.473 55.441 124.593 55.441 124.714C55.441 124.774 55.3802 125.497 55.3802 125.617C55.3802 126.641 56.2316 127.966 56.4141 128.267C58.3603 131.279 58.5427 131.641 58.8468 132.725C59.0901 133.568 59.2117 134.472 59.2117 135.194C59.1509 137.845 57.8737 141.037 55.0153 142.362ZM55.441 129.231C55.2585 128.448 54.9544 127.424 54.9544 126.581C54.9544 125.918 55.0153 125.497 55.1369 124.834C53.434 124.834 51.7919 126.762 51.7919 130.376C51.7919 130.857 51.7919 132.484 52.2784 134.411L53.3123 138.206C53.3732 138.447 53.5556 139.411 53.5556 140.194C53.5556 141.158 53.434 141.7 53.0691 142.543C54.8936 142.543 56.9006 140.254 56.9006 136.58C56.9006 134.652 56.5965 133.508 55.441 129.231Z" fill="#C5AA79"/>
<path d="M66.8147 142.724V142.242H68.5177V134.171L64.0171 132.484V142.242H65.72V142.724H60.1855V142.242H61.8885V125.256H60.1855V124.774H65.72V125.256H64.0171V132.063L68.5177 133.749V125.316H66.8147V124.834H72.3492V125.316H70.6463V142.302H72.3492V142.784H66.8147V142.724Z" fill="#C5AA79"/>
<path d="M84.6952 147.663H84.452C84.1479 145.314 84.452 142.784 80.742 142.784H77.5187C73.8088 142.784 74.1129 145.314 73.8088 147.663H73.5655L72.8965 142.303H75.2684C74.9035 141.821 74.1737 140.917 74.1737 139.712C74.1737 138.026 75.1468 136.399 76.8497 134.472C79.9514 130.978 80.6812 130.316 80.6812 128.93C80.6812 128.147 80.1947 127.304 79.1 127.244C79.4649 127.545 79.6473 127.906 79.6473 128.328C79.6473 129.051 79.1608 129.593 78.3701 129.593C77.5795 129.593 77.0321 129.051 77.0321 128.328C77.0321 127.424 77.7011 126.822 78.7959 126.822C80.073 126.822 81.107 127.726 81.107 129.111C81.107 130.858 79.5257 132.725 78.5526 134.352C77.2754 136.52 76.6672 137.966 76.6672 139.592C76.6672 140.977 77.397 141.821 78.431 142.363H81.1678V125.377H79.4649V124.895H84.9993V125.377H83.2964V142.363H85.4251L84.6952 147.663Z" fill="#C5AA79"/>
<path d="M11.2275 169.95V169.468H12.9304V159.228C12.9304 160.795 10.072 162.541 8.06495 162.602V163.626C8.73395 163.686 9.22049 164.288 9.22049 164.891C9.22049 165.553 8.67313 166.095 8.06495 166.156V166.698C8.06495 168.505 8.55149 169.348 9.8895 169.348H10.1936V169.83H5.32812V169.468H5.5714C7.09185 169.468 7.51758 168.444 7.51758 166.818V166.276C6.9094 166.156 6.48367 165.674 6.48367 165.011C6.48367 164.348 6.9094 163.867 7.51758 163.746V162.722C6.42285 162.662 5.69303 161.999 5.69303 160.734C5.69303 159.168 7.15267 158.265 8.79477 157.421C10.4369 156.578 12.2006 155.916 12.2006 154.41C12.2006 153.627 12.0181 152.663 10.6193 152.542C10.9842 152.844 11.1667 153.205 11.1667 153.627C11.1667 154.349 10.6801 154.892 9.8895 154.892C9.09886 154.892 8.55149 154.349 8.55149 153.627C8.55149 152.723 9.22049 152.061 10.3152 152.061C12.079 152.061 12.8696 153.386 12.8696 154.831V152H16.7011V152.482H14.9982V169.468H16.7011V169.95H11.2275ZM12.9304 154.771C12.9304 156.277 12.0181 157.421 9.34213 158.867C8.55149 159.289 7.5784 160.012 7.5784 161.096C7.5784 161.578 7.88249 161.939 8.42986 161.939C10.5585 161.939 12.8696 160.192 12.8696 158.084V154.771H12.9304Z" fill="#C5AA79"/>
<path d="M20.9585 169.468H23.0871V169.95H17.127V169.468H18.8299V157.662C18.8299 153.626 21.2018 151.699 24.3643 151.699C26.9795 151.699 28.9257 152.904 28.9257 155.193C28.9257 157.12 27.5877 158.807 24.7901 158.807C23.9386 158.807 23.3912 158.505 23.0263 158.204L21.0193 161.517V169.468H20.9585ZM22.8439 157.662C23.0263 157.843 23.4521 157.963 23.8778 157.963C25.3374 157.963 26.8579 156.879 26.8579 155.193C26.8579 153.506 25.5199 152.181 24.0602 152.181C22.2357 152.181 21.0193 153.446 21.0193 155.373V160.734L22.8439 157.662Z" fill="#C5AA79"/>
<path d="M30.3235 152.482H28.8638V152H34.3983V152.482H32.6954L34.8848 157.963L35.9187 154.771C36.5877 152.602 37.8041 151.699 39.2637 151.699C39.5678 151.699 39.9327 151.819 40.2368 152V156.277H39.9327C39.7503 154.771 39.0813 153.867 38.0474 153.867C37.1351 153.867 36.3445 154.65 35.9796 155.735L35.0673 158.626L39.3854 169.468H40.6626V169.95H35.1281V169.468H37.0135L33.9726 161.879L33.4252 163.746C33.8509 163.987 34.155 164.408 34.155 164.89C34.155 165.673 33.486 166.216 32.7562 166.216H32.6954L32.4521 166.938C32.2696 167.541 32.2088 168.023 32.2088 168.565C32.2088 169.047 32.5737 169.528 33.4252 169.528H33.7901V170.01H28.7422V169.468C30.2018 169.468 31.2966 168.625 31.9047 166.758C31.9047 166.758 32.148 166.035 32.148 166.095C31.6615 165.854 31.3574 165.432 31.3574 164.89C31.3574 164.168 31.9047 163.565 32.6954 163.565C32.7562 163.565 32.8778 163.565 32.9386 163.565L33.6685 161.156L30.3235 152.482Z" fill="#C5AA79"/>
<path d="M46.6845 169.95V169.468H48.3874V159.228C48.3874 160.795 45.529 162.541 43.522 162.602V163.626C44.191 163.686 44.6775 164.288 44.6775 164.891C44.6775 165.553 44.1302 166.095 43.522 166.156V166.698C43.522 168.505 44.0085 169.348 45.3465 169.348H45.6506V169.83H40.7852V169.468H41.0284C42.4881 169.468 42.9746 168.444 42.9746 166.818V166.276C42.3664 166.156 41.9407 165.674 41.9407 165.011C41.9407 164.348 42.3664 163.867 42.9746 163.746V162.722C41.8799 162.662 41.1501 161.999 41.1501 160.734C41.1501 159.168 42.6097 158.265 44.2518 157.421C45.8939 156.578 47.6576 155.916 47.6576 154.41C47.6576 153.627 47.4752 152.663 46.0764 152.542C46.4413 152.844 46.6237 153.205 46.6237 153.627C46.6237 154.349 46.1372 154.892 45.3465 154.892C44.5559 154.892 44.0085 154.349 44.0085 153.627C44.0085 152.723 44.6775 152.061 45.7723 152.061C47.536 152.061 48.3266 153.386 48.3266 154.831V152H52.1582V152.482H50.4553V169.468H52.1582V169.95H46.6845ZM48.3266 154.771C48.3266 156.277 47.4144 157.421 44.7383 158.867C43.9477 159.289 42.9746 160.012 42.9746 161.096C42.9746 161.578 43.2787 161.939 43.8261 161.939C45.9547 161.939 48.2658 160.192 48.2658 158.084V154.771H48.3266Z" fill="#C5AA79"/>
<path d="M59.6995 169.95V169.468H61.4024V161.397L56.9019 159.71V169.468H58.6048V169.95H53.0703V169.468H54.7732V152.482H53.0703V152H58.6048V152.482H56.9019V159.228L61.4024 160.915V152.482H59.6995V152H65.234V152.482H63.5311V169.468H65.234V169.95H59.6995Z" fill="#C5AA79"/>
<path d="M76.0593 157.361H75.816C75.5119 155.012 75.816 152.482 72.1061 152.482H70.0991V169.468H71.802V169.95H66.2676V169.468H67.9705V152.482H66.2676V152H76.7283L76.0593 157.361Z" fill="#C5AA79"/>
<path d="M87.2504 164.529C86.8855 168.083 85.4259 170.251 82.5674 170.251C79.1616 170.251 77.5195 166.155 77.5195 161.276C77.5195 155.855 79.709 151.699 82.9324 151.699C85.2434 151.699 86.7639 153.506 87.1288 156.096H88.1627V156.578H83.8446V156.096H85.061C85.061 154.53 84.7569 152.181 82.9324 152.181C80.4996 152.181 80.0739 156.096 79.9523 160.011C80.4996 159.168 81.5335 158.746 82.4458 158.746C84.3312 158.746 85.4259 160.252 85.4259 161.638H81.5944V161.156H82.4458C83.4797 161.156 83.723 160.855 83.723 160.252C83.723 159.77 83.4189 159.228 82.4458 159.228C81.716 159.228 79.9523 159.71 79.9523 161.638C79.9523 165.192 80.0739 169.769 82.5066 169.769C84.5136 169.769 85.0002 167.962 85.0002 164.529H83.6622V164.047H88.3452V164.529H87.2504Z" fill="#C5AA79"/>
<path d="M94.5489 153.807C94.9138 154.109 95.0962 154.47 95.0962 154.892C95.0962 155.614 94.6097 156.157 93.8799 156.157C93.0892 156.157 92.5419 155.614 92.5419 154.892C92.5419 153.988 93.2109 153.386 94.3056 153.386C95.5828 153.386 96.6167 154.289 96.6167 155.675C96.6167 156.759 96.0085 157.602 95.3395 158.867C92.6027 164.108 92.6635 164.348 92.4811 165.011C92.4202 165.252 92.1162 166.035 92.1162 166.758C92.1162 168.023 92.7852 169.288 93.8191 169.529V170.011H88.4062V169.468H90.7782C90.4132 168.987 89.6834 168.083 89.6834 166.878C89.6834 165.372 90.9606 163.204 92.3594 161.698C94.3664 159.59 96.191 157.301 96.191 155.494C96.191 154.711 95.7044 153.928 94.5489 153.807ZM94.9138 152.482V152H100.448V152.482H98.7453V169.468H100.448V169.95H94.9138V169.468H96.6167V152.482H94.9138Z" fill="#C5AA79"/>
<path d="M107.138 169.95V169.468H108.841V159.228C108.841 160.795 105.982 162.541 103.975 162.602V163.626C104.644 163.686 105.131 164.288 105.131 164.891C105.131 165.553 104.644 166.095 103.975 166.156V166.698C103.975 168.505 104.462 169.348 105.8 169.348H106.104V169.83H101.238V169.468H101.482C103.002 169.468 103.428 168.444 103.428 166.818V166.276C102.82 166.156 102.394 165.674 102.394 165.011C102.394 164.348 102.82 163.867 103.428 163.746V162.722C102.333 162.662 101.603 161.999 101.603 160.734C101.603 159.168 103.063 158.265 104.705 157.421C106.347 156.578 108.111 155.916 108.111 154.41C108.111 153.627 107.928 152.663 106.529 152.542C106.894 152.844 107.077 153.205 107.077 153.627C107.077 154.349 106.59 154.892 105.8 154.892C105.009 154.892 104.462 154.349 104.462 153.627C104.462 152.723 105.131 152.061 106.225 152.061C107.989 152.061 108.78 153.386 108.78 154.831V152H112.611V152.482H110.908V169.468H112.611V169.95H107.138ZM108.841 154.771C108.841 156.277 107.928 157.421 105.313 158.867C104.522 159.289 103.549 160.012 103.549 161.096C103.549 161.578 103.853 161.939 104.401 161.939C106.529 161.939 108.841 160.192 108.841 158.084V154.771Z" fill="#C5AA79"/>
<path d="M18.6471 180.612C19.012 180.913 19.1945 181.274 19.1945 181.696C19.1945 182.419 18.7079 182.961 17.9173 182.961C17.1266 182.961 16.5793 182.419 16.5793 181.696C16.5793 180.793 17.2483 180.19 18.343 180.19C19.6202 180.19 20.5933 181.094 20.5933 182.479C20.5933 183.563 19.9851 184.407 19.3161 185.672C16.5793 190.912 16.6401 191.153 16.4576 191.816C16.3968 192.057 16.0927 192.84 16.0927 193.562C16.0927 194.827 16.7617 196.092 17.7956 196.333V196.815H12.3828V196.333H14.8155C14.4506 195.851 13.7208 194.948 13.7208 193.743C13.7208 192.237 14.8764 190.189 16.3968 188.563C18.2214 186.575 20.2284 184.166 20.2284 182.359C20.2284 181.515 19.7418 180.732 18.6471 180.612ZM18.9512 179.287V178.805H24.4856V179.287H22.7827V191.153H22.8436L27.2833 182.238V179.226H25.5804V178.745H31.1148V179.226H29.4119V196.213H31.1148V196.695H25.5804V196.213H27.2833V183.262L22.8436 192.297V196.213H24.5465V196.695H19.012V196.213H20.7149V179.226H18.9512V179.287Z" fill="#C5AA79"/>
<path d="M38.5354 196.755V196.273H40.2384V185.491L35.7378 189.346V196.213H37.4407V196.695H31.9062V196.213H33.6092V179.226H31.9062V178.745H37.4407V179.226H35.7378V188.744L40.2384 184.889V179.287H38.5354V178.805H44.0699V179.287H42.367V196.273H44.0699V196.755H38.5354Z" fill="#C5AA79"/>
<path d="M46.0146 179.286H44.555V178.805H50.0894V179.286H48.3865L50.576 184.768L51.6099 181.575C52.2789 179.407 53.4952 178.503 54.9549 178.503C55.259 178.503 55.6239 178.624 55.9888 178.805V183.081H55.6847C55.5022 181.575 54.8332 180.672 53.7993 180.672C52.8871 180.672 52.0964 181.455 51.7315 182.539L50.8192 185.43L55.1373 196.273H56.4145V196.755H50.8801V196.273H52.7654L49.7245 188.683L49.1771 190.55C49.6029 190.791 49.907 191.213 49.907 191.695C49.907 192.418 49.238 193.02 48.5081 193.02H48.4473L48.2041 193.743C48.0216 194.345 47.9608 194.827 47.9608 195.369C47.9608 195.851 48.3257 196.333 49.1771 196.333H49.542V196.815H44.4941V196.333C46.0146 196.333 47.0485 195.49 47.6567 193.622C47.6567 193.622 47.9 192.9 47.9 192.96C47.4742 192.719 47.1701 192.297 47.1701 191.755C47.1701 191.032 47.7175 190.43 48.5081 190.43C48.569 190.43 48.6906 190.43 48.7514 190.43L49.4812 188.021L46.0146 179.286Z" fill="#C5AA79"/>
<path d="M62.3759 196.755V196.273H64.0788V186.033C64.0788 187.599 61.2204 189.346 59.2134 189.406V190.43C59.8824 190.491 60.3689 191.093 60.3689 191.695C60.3689 192.358 59.8824 192.9 59.2134 192.96V193.502C59.2134 195.309 59.6999 196.153 61.0379 196.153H61.342V196.635H56.4766V196.153H56.7807C58.3011 196.153 58.7268 195.129 58.7268 193.502V192.96C58.1187 192.84 57.6929 192.358 57.6929 191.695C57.6929 191.033 58.1187 190.551 58.7268 190.43V189.406C57.6321 189.346 56.9023 188.684 56.9023 187.419C56.9023 185.852 58.3619 184.949 60.004 184.106C61.6461 183.262 63.4098 182.6 63.4098 181.094C63.4098 180.311 63.2274 179.347 61.8286 179.227C62.1935 179.528 62.3759 179.889 62.3759 180.311C62.3759 181.034 61.8894 181.576 61.0988 181.576C60.3081 181.576 59.7607 181.034 59.7607 180.311C59.7607 179.407 60.4298 178.805 61.5245 178.805C63.2882 178.805 64.0788 180.13 64.0788 181.576V178.805H67.9104V179.287H66.2075V196.273H67.9104V196.755H62.3759ZM64.018 181.576C64.018 183.082 63.1058 184.226 60.4906 185.672C59.7608 186.093 58.7268 186.816 58.7268 187.9C58.7268 188.382 59.0309 188.744 59.5783 188.744C61.7069 188.744 64.018 186.997 64.018 184.889V181.576Z" fill="#C5AA79"/>
<path d="M75.2698 196.755V196.273H76.9727V185.491L72.4722 189.346V196.213H74.1751V196.695H68.6406V196.213H70.3435V179.226H68.6406V178.745H74.1751V179.226H72.4722V188.744L76.9727 184.889V179.287H75.2698V178.805H80.8043V179.287H79.1014V196.273H80.8043V196.755H75.2698Z" fill="#C5AA79"/>
<path d="M87.4925 180.612C87.8574 180.913 88.0399 181.275 88.0399 181.696C88.0399 182.419 87.4925 182.961 86.7627 182.961C85.9721 182.961 85.4247 182.419 85.4247 181.696C85.4247 180.793 86.0937 180.19 87.1884 180.19C88.4656 180.19 89.4995 181.094 89.4995 182.479C89.4995 183.564 88.8914 184.407 88.2223 185.672C85.4855 190.912 85.5463 191.153 85.3639 191.816C85.3031 192.057 84.999 192.84 84.999 193.563C84.999 194.828 85.668 196.092 86.7019 196.333V196.815H81.2891V196.333H83.661C83.2961 195.852 82.5662 194.948 82.5662 193.743C82.5662 192.237 83.8434 190.069 85.2423 188.563C87.2493 186.455 89.0738 184.166 89.0738 182.359C89.1346 181.516 88.5873 180.733 87.4925 180.612ZM87.8574 179.287V178.805H93.3919V179.287H91.689V196.273H93.3919V196.755H87.8574V196.273H89.5604V179.287H87.8574Z" fill="#C5AA79"/>
<path d="M100.083 196.755V196.273H101.786V186.033C101.786 187.599 98.9274 189.346 96.9204 189.406V190.43C97.5894 190.491 98.076 191.093 98.076 191.695C98.076 192.358 97.5894 192.9 96.9204 192.96V193.502C96.9204 195.309 97.407 196.153 98.745 196.153H99.0491V196.635H94.1836V196.153H94.4269C95.8865 196.153 96.3731 195.129 96.3731 193.502V192.96C95.7649 192.84 95.3391 192.358 95.3391 191.695C95.3391 191.033 95.7649 190.551 96.3731 190.43V189.406C95.2783 189.346 94.5485 188.684 94.5485 187.419C94.5485 185.852 96.0081 184.949 97.6502 184.106C99.2923 183.262 101.056 182.6 101.056 181.094C101.056 180.311 100.874 179.347 99.4748 179.227C99.8397 179.528 100.022 179.889 100.022 180.311C100.022 181.034 99.5356 181.576 98.745 181.576C97.9543 181.576 97.407 181.034 97.407 180.311C97.407 179.407 98.076 178.805 99.1707 178.805C100.934 178.805 101.725 180.13 101.725 181.576V178.805H105.557V179.287H103.854V196.273H105.557V196.755H100.083ZM101.786 181.576C101.786 183.082 100.874 184.226 98.1976 185.672C97.4678 186.093 96.4339 186.816 96.4339 187.9C96.4339 188.382 96.738 188.744 97.2853 188.744C99.414 188.744 101.725 186.997 101.725 184.889V181.576H101.786Z" fill="#C5AA79"/>
<path d="M58.1082 3.60349C57.8812 3.37812 57.6541 3.35763 57.4478 3.56252C57.3446 3.66496 57.2001 3.80838 56.9112 5.32453C56.519 7.33239 55.1362 14.0526 53.5883 15.6507C53.4439 15.7941 53.2994 15.8556 53.1137 15.8556C52.6803 15.8556 52.2468 15.4458 51.8754 15.0565C51.6896 14.8721 51.5039 14.6468 51.3181 14.4419C51.1736 14.278 51.0292 14.1141 50.9053 13.9707C50.637 13.6633 50.5338 13.1716 50.4307 12.7413C50.3481 12.4135 50.2862 12.1062 50.1624 11.9833C50.0592 11.8808 49.9147 11.8399 49.7496 11.8603C49.5845 11.8808 49.4194 11.9628 49.2955 12.1062C48.9447 12.475 48.8208 12.7209 48.8415 13.2945V13.3355C48.9034 14.4009 48.986 14.9541 48.3668 15.5892C48.1604 15.8146 47.3555 16.0605 46.4268 16.3268C45.5806 16.5727 44.6312 16.8595 44.4042 17.0849C44.1978 17.2898 44.0946 17.6586 44.0946 18.1298C44.0946 18.7445 44.2804 19.3591 44.5487 19.646C45.7663 20.9162 48.3462 20.4245 49.2955 19.4206C49.956 18.7445 50.3894 17.843 50.3894 17.1669C50.3894 17.1259 50.3894 17.0849 50.3894 17.0029C50.3894 16.7366 50.4513 16.5317 50.5545 16.4293C50.637 16.3473 50.7402 16.3063 50.8641 16.3063C51.3181 16.3063 52.0198 16.7366 52.0817 16.7981C52.1437 16.8595 52.1849 16.962 52.1849 17.0849C52.1849 18.4986 47.3761 23.6207 47.3142 23.6617C47.0253 23.9485 46.6332 24.051 46.1172 23.9076C45.4155 23.7436 41.2052 23.5388 38.4396 26.4276C36.6647 28.2716 35.6534 30.7302 35.6534 33.1683C35.6534 34.1108 35.7979 34.9099 36.1075 35.6474C35.3439 35.3196 34.4977 35.1352 33.507 35.1352C31.0717 35.1352 28.5951 36.1392 26.7376 37.9217C23.8482 40.6671 24.0546 44.8468 24.199 45.5639C24.3229 46.0761 24.2403 46.4654 23.9514 46.7522C23.9101 46.7932 18.7505 51.5875 17.347 51.5875C17.2232 51.5875 17.12 51.5465 17.0581 51.485C16.9962 51.4236 16.5628 50.727 16.5628 50.2762C16.5628 50.1328 16.6041 50.0303 16.6866 49.9689C16.8104 49.8459 16.9962 49.805 17.2645 49.805C17.347 49.805 17.3883 49.805 17.4296 49.805C18.1107 49.805 19.0188 49.3747 19.6998 48.7191C20.7111 47.7561 21.2065 45.2156 19.9269 43.9862C19.6379 43.7199 19.0188 43.5355 18.3996 43.5355C17.9249 43.5355 17.5534 43.6379 17.347 43.8428C17.12 44.0477 16.8311 45.0107 16.5834 45.8507C16.2945 46.7727 16.0675 47.5717 15.8404 47.7971C15.2006 48.4118 14.6434 48.3298 13.5702 48.2683H13.5289C12.951 48.2478 12.6827 48.3708 12.3319 48.7191C12.1874 48.842 12.1049 49.0059 12.0842 49.1698C12.0636 49.3337 12.1049 49.4772 12.208 49.5796C12.3319 49.7025 12.6415 49.764 12.9717 49.8459C13.4051 49.9484 13.9004 50.0508 14.21 50.3172C14.3338 50.4401 14.4989 50.5835 14.6847 50.727C14.8911 50.9113 15.1181 51.0957 15.3038 51.2801C15.696 51.6489 16.1087 52.0997 16.1087 52.5094C16.1087 52.6938 16.0468 52.8373 15.9023 52.9807C14.2925 54.5173 7.54373 55.89 5.52115 56.2793C4.01454 56.5662 3.84943 56.7096 3.74623 56.812C3.53985 56.9964 3.56049 57.2423 3.78751 57.4677C3.80815 57.4677 3.8907 57.4881 4.22092 57.4881C6.20222 57.4881 13.0542 56.812 17.6773 54.6607C17.9456 54.5378 18.1519 54.4763 18.3583 54.4763C18.6266 54.4763 18.833 54.5993 18.9981 54.7222C19.06 54.7632 19.1013 54.7837 19.1632 54.8246C22.0114 56.4842 26.4693 57.4677 29.1523 57.4677C29.854 57.4677 30.4938 57.3857 30.8653 57.2628C30.9066 56.2588 30.9685 55.2754 31.0717 54.3124C29.8334 54.1485 28.368 53.6773 27.2536 52.6119C26.8821 52.2636 26.4074 51.608 26.1803 50.8909C25.9327 50.0508 26.0772 49.3337 26.6344 48.801C28.0172 47.4898 30.3081 46.5268 33.0736 46.0351C33.6515 44.5189 34.5183 42.8389 35.282 41.4457C32.3926 41.9989 29.4412 43.2692 27.0059 44.8468C26.3248 45.277 25.7469 45.359 25.458 45.0926C25.3548 45.0107 25.3548 44.2936 25.3548 44.2731C25.3548 43.2896 25.5612 40.79 27.6457 38.8232C29.7302 36.8358 32.2068 36.5489 33.4864 36.5489C35.0549 36.5489 36.5203 36.9792 37.222 37.6553C37.3045 37.7373 37.8411 38.3109 37.8618 38.3929C37.903 38.3314 38.5841 37.7578 38.8937 37.5324C38.7905 37.5119 38.1301 36.8768 38.1301 36.8972C37.4696 36.2006 37.0362 34.746 37.0362 33.1888C37.0362 31.8981 37.3252 29.4394 39.3271 27.3701C41.329 25.3008 43.8263 25.0754 44.817 25.0754C44.817 25.0754 45.5393 25.0754 45.6425 25.1778C45.9108 25.4647 45.8283 26.0384 45.3948 26.7145C43.8263 29.1321 42.7325 31.8366 42.1959 34.7255C43.5993 33.9674 45.0646 33.3118 46.5919 32.7381C47.0872 29.9721 48.0366 27.6979 49.3574 26.3252C49.8941 25.772 50.6164 25.6286 51.4419 25.8744C52.1849 26.0998 52.8247 26.5711 53.1756 26.9398C54.2488 28.0667 54.7235 29.5009 54.8886 30.7507C55.8586 30.6483 56.8492 30.5663 57.8605 30.5253C57.9844 30.1565 58.0669 29.5214 58.0669 28.8248C58.0669 26.1613 57.0763 21.7153 55.4045 18.8879C55.3633 18.8264 55.3426 18.7854 55.3014 18.724C55.1775 18.5396 55.0537 18.3552 55.0537 18.0683C55.0537 17.8839 55.1156 17.6586 55.2394 17.3922C57.4065 12.8028 58.0876 5.98016 58.0876 4.01326C58.1288 3.70594 58.1082 3.60349 58.1082 3.60349ZM26.4693 53.4929C26.9233 53.9232 29.9366 55.3369 29.9572 55.3573C30.1429 55.5213 30.1429 55.6442 29.9778 55.7876C29.7715 55.9925 29.1936 56.0744 28.2855 56.0744C25.8501 56.0744 21.3716 55.3164 20.1745 54.169C20.0713 54.0666 20.0094 53.9436 20.0094 53.8207C20.0094 53.6978 20.0713 53.5748 20.1745 53.4724C20.1952 53.4519 23.7244 50.645 24.5705 50.645C24.6531 50.645 24.715 50.6655 24.7563 50.7065C24.8595 50.8089 24.942 50.9318 25.0246 51.0957L25.0659 51.1777C25.5406 52.2431 25.7882 52.8373 26.4693 53.4929ZM56.7254 27.9848C56.7254 28.8863 56.6222 29.4599 56.4365 29.6648C56.292 29.8082 56.1475 29.8082 56.0031 29.6443C55.9824 29.6238 54.5584 26.612 54.1456 26.1613C53.5058 25.4852 52.9073 25.2393 51.7928 24.7886L51.7102 24.7476C51.5658 24.6656 51.4213 24.5837 51.3181 24.4812C51.2768 24.4403 51.2562 24.3788 51.2562 24.2968C51.2562 23.4568 54.063 19.9533 54.1043 19.9123C54.2075 19.7894 54.3313 19.7484 54.4552 19.7484C54.579 19.7484 54.7028 19.8099 54.806 19.9123C55.9618 21.1006 56.7254 25.5671 56.7254 27.9848Z" fill="#C5AA79"/>
<path d="M63.1648 17.4129C63.2886 17.6792 63.3505 17.8841 63.3505 18.089C63.3505 18.3553 63.2267 18.5602 63.1029 18.7446C63.0616 18.8061 63.041 18.847 62.9997 18.9085C61.328 21.7359 60.3373 26.1819 60.3373 28.8454C60.3373 29.542 60.3992 30.1772 60.5437 30.546C61.5343 30.5869 62.525 30.6484 63.5156 30.7713C63.6807 29.5215 64.1554 28.0873 65.2286 26.9605C65.5795 26.5917 66.2193 26.1205 66.9623 25.8951C67.8085 25.6492 68.5308 25.7926 69.0468 26.3458C70.3676 27.7186 71.3377 29.9928 71.8123 32.7587C73.3396 33.3324 74.8049 33.988 76.2084 34.7461C75.6511 31.8572 74.5779 29.1527 73.0094 26.7351C72.576 26.059 72.4934 25.4853 72.7617 25.1985C72.8443 25.096 73.5666 25.096 73.5873 25.096C74.5779 25.096 77.0752 25.3009 79.0771 27.3907C81.0791 29.4601 81.368 31.9187 81.368 33.2095C81.368 34.7666 80.9346 36.2213 80.2535 36.9179C80.2535 36.9179 79.4692 37.4915 79.3867 37.512C79.655 37.6964 80.2948 38.2701 80.3567 38.3725C80.3567 38.3316 81.0584 37.7169 81.1203 37.6759C81.8221 36.9998 83.2874 36.5696 84.8559 36.5696C86.1355 36.5696 88.6121 36.8564 90.6966 38.8438C92.7811 40.8312 93.0082 43.3308 92.9875 44.2937C92.9875 44.2937 92.9875 45.0108 92.8843 45.1133C92.5954 45.3796 92.0175 45.2976 91.3364 44.8674C88.9217 43.2898 86.1355 42.2654 83.2461 41.7327C84.0097 43.1464 84.7114 44.5601 85.2893 46.0557C88.0755 46.5474 90.3458 47.4899 91.7286 48.8217C92.2858 49.3544 92.4303 50.0715 92.1826 50.9115C91.9556 51.6491 91.4809 52.2842 91.1094 52.6325C89.9743 53.6979 88.5296 54.1692 87.2913 54.3331C87.3945 55.296 87.477 56.2795 87.4977 57.2834C87.8691 57.4063 88.5089 57.4883 89.2107 57.4883C91.8937 57.4883 96.3516 56.5048 99.1997 54.8453C99.2616 54.8043 99.3029 54.7838 99.3648 54.7428C99.5506 54.6199 99.7363 54.497 100.005 54.497C100.19 54.497 100.417 54.5584 100.686 54.6814C105.309 56.8531 112.161 57.5088 114.142 57.5088C114.472 57.5088 114.575 57.4883 114.575 57.4883C114.802 57.2629 114.823 57.0375 114.617 56.8327C114.514 56.7302 114.369 56.5868 112.842 56.2999C110.819 55.9107 104.07 54.5379 102.461 53.0013C102.316 52.8579 102.254 52.7145 102.254 52.5301C102.254 52.0998 102.667 51.6696 103.059 51.3008C103.245 51.1164 103.472 50.932 103.678 50.7476C103.843 50.6042 104.009 50.4607 104.153 50.3378C104.463 50.0715 104.958 49.969 105.391 49.8666C105.722 49.7846 106.031 49.7232 106.155 49.6002C106.258 49.4978 106.299 49.3544 106.279 49.1905C106.258 49.0265 106.176 48.8626 106.031 48.7397C105.66 48.3914 105.412 48.2685 104.834 48.289H104.793C103.72 48.3504 103.162 48.4324 102.523 47.8177C102.296 47.5924 102.048 46.8138 101.78 45.8713C101.532 45.0313 101.243 44.0888 101.016 43.8635C100.81 43.6586 100.438 43.5561 99.9633 43.5561C99.3442 43.5561 98.725 43.7405 98.4361 44.0069C97.1565 45.2362 97.6725 47.7767 98.6631 48.7397C99.3442 49.3953 100.252 49.8256 100.933 49.8256C100.975 49.8256 101.016 49.8256 101.098 49.8256C101.367 49.8256 101.553 49.8871 101.676 49.9895C101.759 50.0715 101.8 50.1739 101.8 50.2968C101.8 50.7476 101.367 51.4442 101.305 51.5056C101.243 51.5671 101.14 51.6081 101.016 51.6081C99.5919 51.6081 94.4528 46.8138 94.4116 46.7728C94.1226 46.486 94.0401 46.0967 94.1639 45.5845C94.329 44.8674 94.5354 40.6877 91.6254 37.9423C89.7679 36.1803 87.3119 35.1559 84.8559 35.1559C83.8859 35.1559 83.0604 35.3198 82.3174 35.6271C82.6063 34.91 82.7508 34.1109 82.7508 33.189C82.7508 30.7508 81.7395 28.3127 79.9646 26.4483C77.199 23.5594 72.9887 23.7643 72.287 23.9282C71.7711 24.0511 71.3789 23.9692 71.09 23.6823C71.0487 23.6413 66.2193 18.5192 66.2193 17.1055C66.2193 16.9826 66.2606 16.8802 66.3225 16.8187C66.3844 16.7572 67.0655 16.327 67.5402 16.327C67.6846 16.327 67.7878 16.3679 67.8497 16.4499C67.9736 16.5728 68.0149 16.7572 68.0149 17.0236C68.0149 17.1055 68.0149 17.1465 68.0149 17.1875C68.0149 17.8636 68.4483 18.7651 69.1087 19.4412C70.0581 20.4451 72.6379 20.9574 73.8556 19.6666C74.1239 19.3797 74.3096 18.7651 74.3096 18.1504C74.3096 17.6792 74.2064 17.3104 74 17.1055C73.7936 16.8802 72.8236 16.5933 71.9775 16.3475C71.0487 16.0606 70.2438 15.8352 70.0374 15.6099C69.4183 14.9747 69.5008 14.4215 69.5627 13.3561V13.3152C69.5834 12.7415 69.4595 12.4751 69.1087 12.1268C68.9849 11.9834 68.8198 11.9015 68.6546 11.881C68.4895 11.8605 68.3451 11.9015 68.2419 12.0039C68.118 12.1268 68.0561 12.4342 67.9736 12.762C67.8704 13.1922 67.7672 13.684 67.4989 13.9913C67.3751 14.1142 67.2306 14.2781 67.0861 14.4625C66.9004 14.6674 66.7146 14.8928 66.5289 15.0772C66.1574 15.4665 65.7033 15.8762 65.2906 15.8762C65.1048 15.8762 64.9603 15.7943 64.8159 15.6713C63.268 14.0732 61.8852 7.35302 61.4931 5.34516C61.2041 3.82901 61.0597 3.68559 60.9565 3.58315C60.7707 3.37826 60.523 3.39875 60.296 3.62412C60.296 3.64461 60.2754 3.72657 60.2754 4.05438C60.3167 6.00079 60.9977 12.8234 63.1648 17.4129ZM93.3384 51.0754C93.4209 50.932 93.5035 50.7886 93.6067 50.6861C93.6479 50.6451 93.7099 50.6246 93.7924 50.6246C94.6386 50.6246 98.1678 53.4111 98.1884 53.4521C98.3123 53.5545 98.3535 53.6774 98.3535 53.8004C98.3535 53.9233 98.2916 54.0462 98.1884 54.1487C96.9708 55.296 92.4922 56.0541 90.0775 56.0541C89.1694 56.0541 88.5915 55.9516 88.3851 55.7673C88.2406 55.6238 88.2406 55.4804 88.4057 55.337C88.4264 55.3165 91.4603 53.9028 91.8937 53.4725C92.5747 52.8169 92.8224 52.2227 93.2765 51.1369L93.3384 51.0754ZM64.011 19.7281C64.1348 19.7281 64.2586 19.7895 64.3618 19.892C64.3825 19.9124 67.2099 23.4365 67.2099 24.2765C67.2099 24.3584 67.1893 24.4199 67.148 24.4609C67.0448 24.5633 66.921 24.6453 66.7559 24.7272L66.6733 24.7682C65.5795 25.1985 64.981 25.4648 64.3205 26.1409C63.8871 26.5917 62.4631 29.583 62.4631 29.624C62.298 29.8084 62.1741 29.8084 62.0297 29.6445C61.8233 29.4396 61.7407 28.8659 61.7407 27.9644C61.7407 25.5468 62.5044 21.0803 63.6601 19.892C63.7427 19.7895 63.8665 19.7281 64.011 19.7281Z" fill="#C5AA79"/>
<path d="M55.2816 99.7558C55.1577 99.4895 55.0958 99.2846 55.0958 99.0797C55.0958 98.8133 55.2196 98.6085 55.3435 98.4241C55.3848 98.3626 55.4054 98.3216 55.4467 98.2602C57.1184 95.4328 58.109 90.9868 58.109 88.3233C58.109 87.6267 58.0471 87.0325 57.9027 86.6637C56.912 86.6227 55.9214 86.5203 54.9307 86.3973C54.7656 87.6471 54.2909 89.0813 53.2177 90.2082C52.8668 90.577 52.2271 91.0482 51.4841 91.2736C50.6379 91.5195 49.9155 91.376 49.3996 90.8228C48.0787 89.4501 47.1087 87.1759 46.634 84.41C45.1068 83.8363 43.6414 83.1807 42.238 82.4226C42.7952 85.3115 43.8684 88.0159 45.437 90.4336C45.8704 91.1097 45.9529 91.6834 45.6846 91.9702C45.6021 92.0726 44.8797 92.0726 44.8591 92.0726C43.8684 92.0726 41.3712 91.8678 39.3692 89.7779C37.3673 87.7086 37.0784 85.25 37.0784 83.9592C37.0784 82.4021 37.5118 80.9474 38.1928 80.2508C38.2754 80.1689 38.8945 79.5747 38.9977 79.5747C38.7294 79.3698 38.4405 79.1649 38.1722 78.96C38.1103 78.8576 38.0277 78.7756 37.9658 78.6732C37.9452 78.7756 37.3467 79.3903 37.2641 79.4722C36.5624 80.1484 35.0971 80.5786 33.5285 80.5786C32.2489 80.5786 29.7723 80.2918 27.6878 78.3044C25.6033 76.317 25.3763 73.8174 25.3969 72.8545C25.3969 72.8545 25.3969 72.1374 25.5001 72.0349C25.7891 71.7686 26.3669 71.8505 27.048 72.2808C29.4627 73.8584 32.414 75.1287 35.3241 75.6819C34.5604 74.2682 33.673 72.6086 33.1158 71.0925C30.3295 70.6007 28.0593 69.6583 26.6765 68.3265C26.1193 67.7938 25.9748 67.0767 26.2225 66.2367C26.4495 65.4991 26.9242 64.864 27.2957 64.5157C28.4308 63.4503 29.8755 62.979 31.1138 62.8151C31.0106 61.8522 30.9281 60.8687 30.9074 59.8648C30.5359 59.7419 29.8961 59.6599 29.1944 59.6599C26.5114 59.6599 22.0535 60.6434 19.2054 62.3029C19.1434 62.3439 19.1022 62.3644 19.0403 62.4054C18.8545 62.5283 18.6688 62.6512 18.4005 62.6512C18.2147 62.6512 17.9877 62.5898 17.7194 62.4668C13.0757 60.336 6.22371 59.6599 4.24241 59.6599C3.91219 59.6599 3.809 59.6804 3.809 59.6804C3.58197 59.9058 3.56133 60.1311 3.76772 60.336C3.87091 60.4385 4.01538 60.5819 5.54263 60.8687C7.56521 61.258 14.314 62.6307 15.9238 64.1674C16.0683 64.3108 16.1302 64.4542 16.1302 64.6386C16.1302 65.0689 15.7174 65.4991 15.3253 65.8679C15.1396 66.0523 14.9125 66.2367 14.7062 66.4211C14.541 66.5645 14.3759 66.7079 14.2315 66.8309C13.9219 67.0972 13.4266 67.1997 12.9932 67.3021C12.6629 67.3841 12.3534 67.4455 12.2295 67.5685C12.1263 67.6709 12.0851 67.8143 12.1057 67.9782C12.1263 68.1421 12.2089 68.306 12.3534 68.429C12.7249 68.7773 12.9725 68.9002 13.5504 68.8797H13.5917C14.6649 68.8183 15.2221 68.7363 15.8619 69.3509C16.0889 69.5763 16.3366 70.3754 16.6049 71.2974C16.8526 72.1374 17.1415 73.0798 17.3685 73.3052C17.5749 73.5101 17.9464 73.6125 18.4211 73.6125C19.0403 73.6125 19.6594 73.4282 19.9483 73.1618C21.2279 71.9325 20.712 69.3919 19.7213 68.429C19.0403 67.7733 18.1322 67.3431 17.4511 67.3431C17.4098 67.3431 17.3685 67.3431 17.286 67.3431C17.0177 67.3431 16.8319 67.2816 16.7081 67.1792C16.6255 67.0972 16.5843 66.9948 16.5843 66.8718C16.5843 66.4211 17.0177 65.7245 17.0796 65.663C17.1415 65.6016 17.2447 65.5606 17.3685 65.5606C18.7926 65.5606 23.9316 70.3549 23.9729 70.3959C24.2618 70.6827 24.3444 71.072 24.2205 71.5842C24.0554 72.3013 23.849 76.4809 26.7591 79.2264C28.6165 80.9884 31.0725 82.0128 33.5285 82.0128C34.5398 82.0128 35.386 81.8284 36.1496 81.5006C35.84 82.2382 35.6749 83.0577 35.6749 84.0207C35.6749 86.4588 36.6862 88.8969 38.4611 90.7614C41.2267 93.6503 45.437 93.4454 46.1387 93.2815C46.6546 93.1585 47.0468 93.2405 47.3357 93.5273C47.377 93.5683 52.2064 98.6904 52.2064 100.104C52.2064 100.227 52.1651 100.329 52.1032 100.391C52.0413 100.452 51.3602 100.883 50.8855 100.883C50.7411 100.883 50.6379 100.842 50.576 100.76C50.4521 100.637 50.4109 100.452 50.4109 100.186C50.4109 100.104 50.4109 100.063 50.4109 100.022C50.4109 99.346 49.9775 98.4446 49.317 97.7684C48.3676 96.7645 45.7878 96.2523 44.5702 97.5431C44.3018 97.8299 44.1161 98.4446 44.1161 99.0592C44.1161 99.5304 44.2193 99.8992 44.4257 100.104C44.6321 100.329 45.6021 100.616 46.4483 100.862C47.377 101.149 48.1819 101.374 48.3883 101.6C49.0074 102.235 48.9249 102.788 48.863 103.854V103.894C48.8423 104.468 48.9662 104.735 49.317 105.083C49.4409 105.226 49.606 105.308 49.7711 105.329C49.9362 105.349 50.0806 105.308 50.1838 105.206C50.3077 105.083 50.3696 104.775 50.4521 104.448C50.5553 104.017 50.6585 103.526 50.9268 103.218C51.0507 103.095 51.1951 102.932 51.3396 102.747C51.5253 102.542 51.7111 102.317 51.8968 102.132C52.2683 101.743 52.7224 101.333 53.1352 101.333C53.3209 101.333 53.4654 101.415 53.6098 101.538C55.1577 103.136 56.5405 109.857 56.9326 111.864C57.2216 113.381 57.3661 113.524 57.4692 113.626C57.655 113.831 57.9027 113.811 58.1297 113.586C58.1297 113.565 58.1503 113.483 58.1503 113.155C58.1297 111.168 57.4486 104.345 55.2816 99.7558ZM25.0461 66.0728C24.9635 66.2162 24.881 66.3596 24.7778 66.4621C24.7365 66.5031 24.6746 66.5235 24.592 66.5235C23.7458 66.5235 20.2166 63.7371 20.196 63.6961C20.0722 63.5937 20.0309 63.4708 20.0309 63.3478C20.0309 63.2249 20.0928 63.102 20.196 62.9995C21.4137 61.8522 25.8923 61.0941 28.307 61.0941C29.2151 61.0941 29.7929 61.1965 29.9993 61.3809C30.1438 61.5244 30.1438 61.6678 29.9787 61.8112C29.958 61.8317 26.9242 63.2454 26.4908 63.6756C25.8097 64.3313 25.562 64.9254 25.108 66.0113L25.0461 66.0728ZM54.4354 97.4406C54.3115 97.4406 54.1877 97.3792 54.0845 97.2767C54.0639 97.2562 51.2364 93.7322 51.2364 92.8922C51.2364 92.8102 51.257 92.7488 51.2983 92.7078C51.4015 92.6053 51.5253 92.5234 51.6905 92.4414L51.773 92.4005C52.8668 91.9702 53.4654 91.7038 54.1258 91.0277C54.5592 90.577 55.9833 87.5857 55.9833 87.5447C56.1484 87.3603 56.2722 87.3603 56.4167 87.5242C56.6231 87.7291 56.7056 88.3028 56.7056 89.2043C56.7056 91.6219 55.942 96.0884 54.7862 97.2767C54.683 97.3792 54.5592 97.4406 54.4354 97.4406Z" fill="#C5AA79"/>
<path d="M114.596 59.6804C114.575 59.6804 114.493 59.6599 114.162 59.6599C112.181 59.6599 105.329 60.336 100.706 62.4873C100.438 62.6102 100.231 62.6717 100.025 62.6717C99.7567 62.6717 99.5503 62.5488 99.3852 62.4259C99.3233 62.3849 99.282 62.3644 99.2201 62.3234C96.372 60.6638 91.914 59.6804 89.231 59.6804C88.5293 59.6804 87.8895 59.7623 87.518 59.8853C87.4768 60.8892 87.4148 61.8727 87.3116 62.8356C88.55 62.9995 90.0153 63.4708 91.1298 64.5362C91.5013 64.8845 91.976 65.5401 92.203 66.2572C92.4506 67.0972 92.3062 67.8143 91.7489 68.347C90.3662 69.6583 88.0753 70.6212 85.3097 71.113C84.7318 72.6291 83.865 74.0838 83.1014 75.4975C85.9908 74.9443 88.9421 73.8789 91.3774 72.3218C92.0585 71.8915 92.6364 71.8096 92.9253 72.0759C93.0285 72.1579 93.0285 72.875 93.0285 72.8954C93.0285 73.8789 92.8221 76.3785 90.7376 78.3454C88.6531 80.3328 86.1765 80.6196 84.8969 80.6196C83.3284 80.6196 81.8631 80.1893 81.1614 79.5132C81.1201 79.4722 80.4803 78.7552 80.4596 78.7142C80.3771 78.8371 79.7167 79.4313 79.4896 79.5952C79.5722 79.6157 80.2945 80.2713 80.2945 80.2918C80.9756 80.9884 81.409 82.4431 81.409 84.0002C81.409 85.291 81.1201 87.7496 79.1181 89.8189C77.0956 91.8882 74.5777 92.0931 73.587 92.0931C73.587 92.0931 72.8647 92.0931 72.7615 91.9907C72.4932 91.7039 72.5757 91.1302 73.0091 90.4541C74.5777 88.0364 75.6715 85.3319 76.2081 82.4431C74.8047 83.2011 73.3393 83.8568 71.8121 84.4305C71.3168 87.1964 70.3674 89.4706 69.0465 90.8433C68.5099 91.3965 67.7876 91.5399 66.962 91.2941C66.219 91.0687 65.5792 90.5975 65.2284 90.2287C64.1552 89.1018 63.6805 87.6676 63.5154 86.4178C62.5454 86.5203 61.5547 86.6432 60.5434 86.6842C60.4196 87.053 60.337 87.6471 60.337 88.3437C60.337 91.0072 61.3277 95.4532 62.9994 98.2806C63.0407 98.3421 63.0613 98.3831 63.1026 98.4446C63.2264 98.6289 63.3503 98.8133 63.3503 99.1002C63.3503 99.2846 63.2884 99.51 63.1645 99.7763C60.9975 104.366 60.3164 111.188 60.3164 113.155C60.3164 113.483 60.337 113.586 60.337 113.586C60.5641 113.811 60.7911 113.831 60.9975 113.626C61.1007 113.524 61.2451 113.381 61.5341 111.864C61.9262 109.857 63.309 103.136 64.8569 101.538C65.0014 101.395 65.1458 101.333 65.3316 101.333C65.765 101.333 66.1984 101.743 66.5699 102.132C66.7556 102.317 66.9414 102.542 67.1271 102.747C67.2716 102.911 67.4161 103.075 67.5399 103.218C67.8082 103.526 67.9114 104.017 68.0146 104.448C68.0971 104.775 68.1591 105.083 68.2829 105.206C68.3861 105.308 68.5306 105.349 68.6957 105.329C68.8608 105.308 69.0259 105.226 69.1497 105.083C69.5006 104.714 69.6244 104.468 69.6038 103.894V103.854C69.5418 102.788 69.4593 102.235 70.0784 101.6C70.2848 101.374 71.0897 101.129 72.0185 100.862C72.8647 100.616 73.814 100.329 74.041 100.104C74.2474 99.8992 74.3506 99.5304 74.3506 99.0592C74.3506 98.4446 74.1649 97.8299 73.8966 97.5431C72.6789 96.2728 70.0991 96.7645 69.1497 97.7684C68.4893 98.4446 68.0559 99.346 68.0559 100.022C68.0559 100.063 68.0559 100.104 68.0559 100.186C68.0559 100.452 67.994 100.657 67.8908 100.76C67.8082 100.842 67.705 100.883 67.5812 100.883C67.1271 100.883 66.4254 100.452 66.3635 100.391C66.3016 100.329 66.2603 100.227 66.2603 100.104C66.2603 98.6904 71.0691 93.5683 71.131 93.5273C71.42 93.2405 71.8121 93.138 72.3281 93.2815C73.0298 93.4454 77.24 93.6503 80.0056 90.7614C81.7805 88.9174 82.7918 86.4588 82.7918 84.0207C82.7918 83.0782 82.6267 82.2587 82.3378 81.5211C83.1014 81.8489 83.9269 82.0128 84.8969 82.0128C87.3323 82.0128 89.8089 81.0089 91.6664 79.2264C94.5558 76.4809 94.3494 72.3013 94.2049 71.5842C94.0811 71.072 94.1636 70.6827 94.4526 70.3959C94.4939 70.3549 99.6535 65.5606 101.057 65.5606C101.181 65.5606 101.284 65.6016 101.346 65.663C101.408 65.7245 101.841 66.4211 101.841 66.8718C101.841 67.0153 101.8 67.1177 101.717 67.1792C101.594 67.3021 101.408 67.3431 101.139 67.3431C101.057 67.3431 101.016 67.3431 100.974 67.3431C100.293 67.3431 99.3852 67.7733 98.7041 68.429C97.6928 69.3919 97.1975 71.9325 98.4771 73.1618C98.766 73.4282 99.3852 73.6125 100.004 73.6125C100.479 73.6125 100.851 73.5101 101.057 73.3052C101.284 73.1003 101.573 72.1374 101.821 71.2974C102.109 70.3754 102.337 69.5763 102.564 69.3509C103.203 68.7363 103.761 68.8183 104.834 68.8797H104.875C105.453 68.9002 105.721 68.7773 106.072 68.429C106.217 68.306 106.299 68.1421 106.32 67.9782C106.34 67.8143 106.299 67.6709 106.196 67.5685C106.072 67.4455 105.763 67.3841 105.432 67.3021C104.999 67.1997 104.504 67.0972 104.194 66.8309C104.07 66.7079 103.905 66.5645 103.719 66.4211C103.513 66.2367 103.286 66.0523 103.1 65.8679C102.708 65.4991 102.295 65.0484 102.295 64.6386C102.295 64.4542 102.357 64.3108 102.502 64.1674C104.111 62.6307 110.86 61.258 112.883 60.8687C114.389 60.5819 114.555 60.4385 114.658 60.336C114.843 60.1311 114.823 59.8853 114.596 59.6804ZM64.3616 97.2767C64.2584 97.3996 64.1345 97.4406 64.0107 97.4406C63.8869 97.4406 63.763 97.3792 63.6599 97.2767C62.5041 96.0679 61.7405 91.6219 61.7405 89.2043C61.7405 88.3028 61.8437 87.7291 62.0294 87.5242C62.1739 87.3808 62.3183 87.3808 62.4628 87.5447C62.4835 87.5652 63.9075 90.577 64.3203 91.0277C64.9601 91.7038 65.5586 91.9497 66.6731 92.4005L66.7556 92.4414C66.9001 92.5234 67.0446 92.6053 67.1478 92.7078C67.189 92.7488 67.2097 92.8102 67.2097 92.8922C67.2097 93.7322 64.3822 97.2357 64.3616 97.2767ZM98.2088 63.6961C98.1882 63.7166 94.659 66.5235 93.8128 66.5235C93.7302 66.5235 93.6683 66.5031 93.627 66.4621C93.5239 66.3596 93.4413 66.2367 93.3587 66.0728L93.3175 65.9908C92.8841 64.905 92.6158 64.3108 91.9347 63.6552C91.4806 63.2249 88.4674 61.8112 88.4468 61.7907C88.261 61.6268 88.261 61.5039 88.4261 61.3605C88.6325 61.1556 89.2104 61.0736 90.1185 61.0736C92.5538 61.0736 97.0324 61.8317 98.2294 62.979C98.3326 63.0815 98.3946 63.2044 98.3946 63.3273C98.3739 63.4503 98.312 63.5732 98.2088 63.6961Z" fill="#C5AA79"/>
<path d="M56.1678 53.4724C56.1884 53.4724 56.1884 53.4519 56.2297 53.4315C56.3329 53.329 56.3948 53.1651 56.4361 53.0627C56.3948 53.0627 56.3329 53.0831 56.2916 53.0831C56.044 53.0831 55.8169 52.9602 55.6931 52.7758C55.5074 52.8578 55.0533 53.0627 55.2597 53.7593V53.7798V53.8003L56.1678 53.4724Z" fill="#C5AA79"/>
<path d="M61.946 43.7199C62.0285 43.7404 62.1111 43.7404 62.2143 43.7404C62.4207 43.7404 62.6064 43.6994 62.7509 43.6379C63.2462 43.4945 63.7003 43.4126 64.0718 43.4331C63.7416 42.5725 62.9366 42.4701 62.5858 42.4701C62.3175 42.4701 62.1111 42.5316 62.0079 42.593C61.9666 42.6135 61.9254 42.6545 61.8841 42.675C61.6364 42.8389 61.2856 43.0643 60.9141 43.1667C61.0998 43.2282 61.1617 43.2487 61.1617 43.2487C61.43 43.3511 61.6983 43.515 61.946 43.7199Z" fill="#C5AA79"/>
<path d="M55.8792 44.7034C55.9411 44.601 55.9824 44.519 56.0443 44.4371C56.0856 44.3756 56.1475 44.3142 56.1888 44.2527C55.9618 44.2937 55.7348 44.2937 55.5077 44.3142C55.2188 44.3142 54.9092 44.3346 54.6203 44.4371C54.1869 44.5805 54.0424 45.0927 53.9805 45.4205C54.2075 45.2361 54.4964 45.1132 54.806 45.0722C55.2394 45.0107 55.5903 44.8878 55.8792 44.7034Z" fill="#C5AA79"/>
<path d="M64.7735 42.7364C64.7735 42.7364 64.6909 42.6955 64.5877 42.634C64.5465 42.6135 64.5052 42.6135 64.4639 42.593H64.4433L64.4226 42.5725C64.0718 41.6915 63.5558 41.1178 62.8954 40.831H62.8747V40.8105C62.8335 40.79 62.7715 40.7695 62.7303 40.749H62.7096C62.689 40.749 62.6683 40.7286 62.6683 40.7286C62.6064 40.7081 62.5652 40.6876 62.5445 40.6876L62.5239 40.6671L62.4826 40.6466L62.2143 40.4622C61.6364 40.0729 61.0792 39.868 60.5632 39.868C60.233 39.868 59.9234 39.95 59.5726 40.1139L59.5313 40.1344L59.3868 40.2163L59.1804 40.1549C59.0153 40.1139 58.8502 40.0934 58.6851 40.0934C58.2517 40.0934 57.6325 40.2368 57.0959 40.913L57.0753 40.9334L56.8483 41.0154C56.6213 41.1588 56.0227 41.5891 55.6719 42.2857C55.7132 42.2857 55.7338 42.2857 55.7751 42.2857C55.7957 42.2652 55.7957 42.2447 55.8163 42.2242C55.8163 42.2037 56.807 40.913 58.7883 40.5851C58.7883 40.5851 59.036 40.5237 59.4281 40.5237C60.1504 40.5237 61.5539 40.7081 62.916 41.8759C62.9779 41.9374 63.0192 41.9784 63.0398 41.9988C64.3194 42.1218 64.7528 43.2896 64.8148 43.4945C64.856 43.515 64.8767 43.515 64.918 43.5355C65.6609 43.8223 65.9705 44.478 66.0944 45.0516C66.0531 44.0272 65.4339 43.1257 64.7735 42.7364Z" fill="#C5AA79"/>
<path d="M56.4156 52.2432C56.333 52.2432 56.2711 52.2227 56.2092 52.2022C56.1473 52.3048 56.0647 52.5098 56.2092 52.6739C56.2505 52.7149 56.3124 52.7559 56.4156 52.7559C56.4981 52.7559 56.7045 52.7149 56.7664 52.4278C56.7871 52.3048 56.7871 52.2022 56.7871 52.1407C56.6839 52.2022 56.5601 52.2432 56.4156 52.2432Z" fill="#C5AA79"/>
<path d="M66.4667 48.7601C66.8588 48.4733 67.0858 48.1864 67.1065 47.8586C67.1477 47.4489 67.0033 47.121 67.0033 47.121L66.962 47.0801L67.0033 47.0391C67.9733 45.7893 67.4367 44.3551 67.1477 43.8634L67.1065 43.8224C67.0652 43.7814 67.0239 43.72 66.962 43.679L66.9413 43.6585V43.638C66.7143 42.7775 65.992 41.917 65.1664 41.5072L64.96 41.3843V41.3638L64.733 40.9745L64.7124 40.954C64.3203 40.2984 63.8662 39.8476 63.309 39.5813H63.2883V39.5608C63.2883 39.5608 63.2883 39.5608 63.2883 39.5403C63.2264 39.4993 63.1026 39.4379 62.9375 39.3969H62.9168C62.8962 39.3969 62.8756 39.3764 62.8549 39.3764C62.793 39.3559 62.7517 39.3559 62.7311 39.3354C62.6898 39.3354 62.6898 39.3149 62.6898 39.3149H62.6692L62.1945 39.0896H62.2358C61.6372 38.7617 61.0387 38.5978 60.4608 38.5978C59.883 38.5978 59.4908 38.7617 59.3051 38.8642L59.2844 38.8847L59.2638 38.9052L59.2432 38.8847L59.2225 38.8642L59.1606 38.9257V38.8642C59.0368 38.8232 58.7685 38.7617 58.397 38.7617C57.9636 38.7617 57.3238 38.8642 56.7459 39.4174L56.7253 39.4379H56.7046C56.5395 39.4788 56.4157 39.5403 56.3331 39.5813L56.2506 39.6223C55.7553 39.9091 55.1774 40.3189 54.8265 40.9335V40.954H54.8059C54.7852 40.9745 54.7646 40.995 54.744 41.036C54.6408 41.1999 54.5995 41.3228 54.5789 41.4252L54.5582 41.4867C54.5582 41.5277 54.5376 41.5482 54.5376 41.5687V41.5892L54.3725 41.7531L54.2486 41.8965C53.4231 42.5726 53.3405 43.8839 53.3405 43.9248V43.9863L53.1548 44.0068C52.8865 44.4575 52.6388 45.6049 52.9484 46.8957C52.9071 46.4859 52.9897 46.1171 53.1754 45.8098C53.1754 45.6254 53.0929 45.1337 53.1961 44.8263C53.3405 44.3961 53.4025 44.0683 53.7533 43.9248C53.8359 43.556 54.1454 42.4906 55.0123 42.2653C55.1361 41.6711 55.5282 40.913 56.684 40.6057C56.9729 40.0935 57.5095 39.4788 58.3557 39.4788C58.6653 39.4788 59.0161 39.5813 59.3876 39.7452C59.6559 39.5403 60.1513 39.233 60.8117 39.233C61.5134 39.233 62.2151 39.5813 62.8549 40.2779C63.3502 40.2984 64.7949 40.5442 65.0839 42.4087C65.4347 42.4702 65.9094 42.716 66.2809 43.1668C66.6318 43.597 66.9826 44.3346 66.673 45.4615L66.6524 45.5229L66.5492 45.5025C66.5905 45.9122 66.446 46.3015 66.4254 46.4039L66.446 46.4244C66.7969 46.8752 66.9826 47.8586 66.4667 48.7601Z" fill="#C5AA79"/>
<path d="M63.7633 45.441C63.8665 45.4614 63.9697 45.4819 64.0729 45.4819C64.527 45.5434 65.0636 45.6253 65.5383 45.9327C65.497 45.4 65.4144 45.1131 65.3525 44.7853C65.2906 44.4985 64.6508 43.9863 63.7014 43.9863C63.4744 43.9863 63.268 44.0068 63.041 44.0682C62.7727 44.1297 62.5044 44.1502 62.2773 44.1297C62.4012 44.2731 62.5456 44.437 62.6488 44.6009C63.1442 45.1131 63.5569 45.4 63.7633 45.441Z" fill="#C5AA79"/>
<path d="M63.2051 45.7483C63.4734 46.4654 64.0925 46.6703 64.0925 46.6703C65.0832 47.0391 65.5992 47.4693 65.6817 48.002C65.723 47.961 65.7436 47.9406 65.7849 47.8996L65.8055 47.8586C65.9294 47.6742 66.0119 47.4079 65.8881 47.0186C65.5992 46.1171 64.5879 45.9532 64.01 45.9532C63.8036 45.9327 63.494 45.8917 63.2051 45.7483Z" fill="#C5AA79"/>
<path d="M45.0649 53.945C45.0649 53.945 45.043 53.9451 45.043 53.9232C45.043 53.9232 45.043 53.945 45.0649 53.945Z" fill="#C5AA79"/>
<path d="M42.2775 47.2029C42.2981 47.2029 42.2981 47.2029 42.2775 47.2029C42.2775 47.2029 42.1536 47.3055 41.9473 47.4901C42.1536 47.3055 42.2775 47.2029 42.2775 47.2029Z" fill="#C5AA79"/>
<path d="M40.9369 48.4323C40.8749 48.4938 40.7924 48.5758 40.7305 48.6578C40.813 48.5758 40.8749 48.4938 40.9369 48.4323Z" fill="#C5AA79"/>
<path d="M43.7012 48.4528C43.6186 48.5963 43.3916 48.8629 43.082 49.1706C43.371 48.8629 43.598 48.5963 43.7012 48.4528Z" fill="#C5AA79"/>
<path d="M56.2917 50.5016C56.3329 50.5631 56.3536 50.5426 56.3123 50.5016C56.3536 50.5631 56.3329 50.5631 56.2917 50.5016C56.0647 50.1123 55.9408 49.6206 55.8376 49.1084C55.8376 49.0879 55.8583 49.0674 55.8583 49.0469C55.8583 49.0674 55.8583 49.0879 55.8376 49.1084C55.7964 49.2518 55.7344 49.4362 55.6519 49.7026C55.4868 50.1328 55.7964 50.5631 56.044 50.809C56.3536 51.0958 56.5806 51.2802 56.7457 51.4031C56.56 51.0958 56.4155 50.809 56.2917 50.5016Z" fill="#C5AA79"/>
<path d="M55.6113 48.6987C55.4668 47.7153 55.5081 46.7933 55.5081 46.7728C55.5081 46.7523 55.5081 46.7523 55.5081 46.7318C55.343 47.1416 54.827 47.4284 54.5587 47.8382C54.3523 48.166 54.6 48.9446 54.6 48.9651C54.8683 49.2314 55.1366 49.4363 55.2398 49.5182C55.343 49.1904 55.5081 48.9446 55.6113 48.6987Z" fill="#C5AA79"/>
<path d="M62.0285 42.1013C62.2349 42.0193 62.3794 42.0193 62.5445 42.0193C62.3381 41.8144 61.5951 41.1588 60.3981 40.9334C60.3981 40.9334 60.0059 40.831 59.4693 40.831C58.8915 40.831 58.3549 40.9334 57.8595 41.1383C57.8389 41.1383 56.9927 41.4661 56.291 42.2447C56.291 42.2447 56.3323 42.2857 56.3736 42.2857C56.3736 42.2857 57.0134 41.5071 57.8802 41.3432C58.004 41.3227 58.1485 41.3022 58.2517 41.3022C58.9534 41.3022 59.1391 41.7325 59.1598 41.8349V41.8554C59.1598 41.8964 59.1598 41.9169 59.1598 41.9579C59.1598 41.9579 59.1598 41.9579 59.1804 41.9579C59.1804 41.9579 59.1804 41.9783 59.1598 41.9783C59.1598 41.9988 59.1598 41.9988 59.1598 41.9783C59.1598 41.9783 59.1598 41.9579 59.1804 41.9579C59.2217 41.8759 59.3042 41.7735 59.4074 41.6915C60.3774 40.9539 62.0285 42.1013 62.0285 42.1013Z" fill="#C5AA79"/>
<path d="M62.7709 51.1367C62.7709 51.1367 62.936 52.2021 63.5552 52.3865C64.0092 52.53 64.2775 52.0177 64.2775 51.526C64.2775 51.0753 63.9267 50.686 63.8854 50.6245C63.3901 50.604 62.9773 50.4196 62.7709 50.3172C62.7709 50.4811 62.7503 50.7884 62.7709 51.1367Z" fill="#C5AA79"/>
<path d="M65.7446 44.0082C65.7446 43.9863 65.7227 43.9863 65.7227 43.9863C65.7227 43.9863 65.7227 43.9863 65.7446 44.0082Z" fill="#C5AA79"/>
<path d="M53.938 47.7152C54.1857 47.2644 54.6191 46.9366 54.97 46.7932C55.1763 46.7112 55.3621 46.4859 55.5066 46.2195C55.5066 46.3015 55.5066 46.3015 55.5066 46.2195C55.5272 45.8712 55.6098 45.5639 55.7129 45.2975C55.2795 45.5229 55.0731 45.4205 54.0206 45.9327C53.2776 46.5268 53.8142 47.5103 53.938 47.7152C53.938 47.7357 53.9587 47.7357 53.9587 47.7357C53.9587 47.7357 53.9587 47.7357 53.938 47.7152Z" fill="#C5AA79"/>
<path d="M62.2559 41.3843C62.2765 41.3843 62.3178 41.4049 62.3591 41.4049H62.3797C62.3384 41.4256 62.2971 41.4049 62.2559 41.3843Z" fill="#C5AA79"/>
<path d="M64.0518 52.7758C64.0105 52.7963 63.9693 52.8168 63.928 52.8373C63.6184 52.9192 63.3707 52.8373 63.185 52.6529C62.8548 52.3456 62.8548 52.3456 63.185 52.6529C63.185 52.6529 62.669 52.2636 62.5452 51.6694C62.5452 51.6285 62.5245 51.5875 62.5245 51.5465C62.5245 51.4851 62.5039 51.4441 62.5039 51.4236C62.5039 51.4646 62.5039 51.5055 62.5245 51.5465C62.5245 51.6899 62.5452 51.9563 62.6277 52.2226C62.6897 52.3661 62.7722 52.5709 62.8754 52.7553L62.896 52.7758L63.1231 53.1036C63.1024 53.0832 63.0818 53.0627 63.0818 53.0422C62.9992 52.9397 62.9373 52.8578 62.8754 52.7348C62.7516 52.5709 62.669 52.3865 62.6277 52.2021C62.6897 52.3865 62.7516 52.5709 62.8754 52.7348C62.9373 52.8373 62.9992 52.9397 63.0818 53.0422C63.1024 53.0627 63.1024 53.0832 63.1231 53.1036C63.3914 53.411 63.8661 53.9437 64.3614 54.0666C64.8774 54.1895 65.1663 53.5544 64.7535 53.1856C64.5678 53.0422 64.1137 52.7348 64.0518 52.7758Z" fill="#C5AA79"/>
<path d="M51.961 59.1683C51.9395 59.1683 51.918 59.1683 51.8965 59.1898C51.8965 59.1683 51.918 59.1683 51.961 59.1683Z" fill="#C5AA79"/>
<path d="M58.6657 42.5521C58.8515 42.3882 58.934 42.2038 58.8928 42.0194C58.8515 41.876 58.5832 41.6711 58.1911 41.6711C58.0879 41.6711 57.964 41.6916 57.8402 41.7121C57.3242 41.8555 56.8083 42.3677 56.7051 42.4702C56.7876 42.4907 56.8702 42.5317 56.9734 42.5521C57.0147 42.5726 57.1178 42.6341 57.221 42.6751C57.2417 42.6956 57.283 42.6956 57.3242 42.716C57.3242 42.7365 58.1085 42.9414 58.6657 42.5521ZM57.2004 42.3268C57.1798 42.3473 57.2004 42.3268 57.2004 42.3268V42.3268Z" fill="#C5AA79"/>
<path d="M61.1213 42.7569C61.1419 42.7364 61.1832 42.7159 61.2039 42.6954C61.3071 42.634 61.4102 42.552 61.4515 42.5315C61.5547 42.4906 61.6373 42.4496 61.7198 42.4086C61.6166 42.3266 61.0181 41.8759 60.5021 41.8144C60.3783 41.794 60.2751 41.794 60.1513 41.8144C59.7592 41.8759 59.5115 42.1013 59.4909 42.2447C59.4702 42.4496 59.5734 42.6135 59.8004 42.7569C60.3783 43.0847 61.1213 42.7569 61.1213 42.7569ZM61.2039 42.3676C61.2039 42.3471 61.2039 42.3676 61.2039 42.3676V42.3676Z" fill="#C5AA79"/>
<path d="M56.7055 42.8799L56.6836 42.9018L56.7055 42.8799Z" fill="#C5AA79"/>
<path d="M62.5666 42.6365C62.5666 42.6365 62.5666 42.6148 62.5449 42.5931C62.5666 42.6148 62.5666 42.6148 62.5666 42.6365Z" fill="#C5AA79"/>
<path d="M56.4564 42.9419C56.4771 42.9419 56.4977 42.9419 56.6009 42.8594C56.4977 42.9419 56.4771 42.9419 56.4564 42.9419C56.4358 42.9419 56.4152 42.9213 56.3945 42.9007C56.4152 42.9419 56.4358 42.9419 56.4564 42.9419Z" fill="#C5AA79"/>
<path d="M56.5795 43.7609C56.6002 43.7404 56.6002 43.7404 56.6208 43.7199C56.9923 43.3921 57.3225 43.2282 57.6527 43.1258C57.6734 43.1258 57.6734 43.1258 57.6527 43.1258C57.467 43.1258 57.3019 43.0848 57.1368 43.0438C57.1368 43.0438 57.1368 43.0438 57.1368 43.0233C56.8272 42.9209 56.7859 42.8389 56.1461 42.757C56.0429 42.7365 55.8778 42.716 55.6921 42.757C55.6714 42.757 55.6508 42.757 55.6302 42.7775C55.6508 42.7775 55.6714 42.7775 55.6921 42.757C55.6508 42.757 55.6095 42.7775 55.5476 42.7775C55.2174 42.8799 54.8665 43.1873 54.6602 43.9658C54.9078 43.9248 55.1348 43.9453 55.3206 43.9658C55.8778 43.9863 56.3319 43.8634 56.6208 43.7404C56.6208 43.7404 56.6002 43.7609 56.5795 43.7609Z" fill="#C5AA79"/>
<path d="M55.1157 59.8648C55.1157 59.8648 55.0951 59.8648 55.1157 59.8648C55.0951 59.8648 55.0951 59.8648 55.1157 59.8648C55.1364 59.7624 55.1364 59.66 55.1364 59.5575C55.1364 59.0043 54.6617 58.5536 54.0838 58.5536C53.5059 58.5536 53.0312 59.0043 53.0312 59.5575C53.0312 60.1107 53.5059 60.5615 54.0838 60.5615C54.5585 60.5615 54.9713 60.2541 55.1157 59.8648C55.1157 59.8648 55.0951 59.8648 55.1157 59.8648ZM55.0745 59.8444C55.0951 59.8444 55.0951 59.8444 55.0745 59.8444C55.0951 59.8648 55.0951 59.8648 55.0745 59.8444C55.0951 59.8444 55.0951 59.8444 55.0745 59.8444Z" fill="#C5AA79"/>
<path d="M67.0448 68.6544C67.5195 68.6544 67.9529 68.7159 68.407 68.7978C63.9078 66.6875 58.645 62.9381 56.2922 61.1761C57.0145 62.0776 58.0258 63.3069 58.5005 63.8601C59.1196 64.5977 61.4312 66.9743 63.041 68.0807C58.9958 66.1343 56.2096 61.9342 55.3221 60.459L55.3015 60.4385C55.219 60.541 55.1364 60.6229 55.0332 60.7049C55.4666 61.5039 59.2847 68.7773 61.9678 71.3793C63.0203 69.7403 64.8984 68.6544 67.0448 68.6544Z" fill="#C5AA79"/>
<path d="M53.0506 75.7024C53.2364 75.4156 53.5666 74.8624 53.6904 74.4731C53.8968 73.8994 53.9175 72.7316 53.8762 72.2808C53.8762 72.2808 53.8762 72.0555 53.8555 71.5228C53.8555 71.3384 53.8143 70.8262 53.8349 70.2115C53.8555 69.4944 53.8762 69.0641 53.8762 69.0641C53.8762 69.0641 53.773 68.9002 53.484 69.0027C53.257 69.0846 52.6172 69.2895 52.8236 71.3589V71.3793L53.1538 71.8711C53.2777 71.994 53.4015 72.3833 53.2364 72.5062C53.1745 72.5677 53.0094 72.5882 52.803 72.2808" fill="#C5AA79"/>
<path d="M71.6672 78.2839C72.6165 77.3005 73.1531 76.0097 73.1531 74.678C73.1531 71.7276 70.6352 69.351 67.5395 69.351C64.4437 69.351 61.9258 71.7481 61.9258 74.678C61.9258 76.6244 63.0196 78.3454 64.8358 79.3084C65.2692 79.3903 65.5994 79.4313 65.8471 79.4313C66.0741 79.4313 66.198 79.3903 66.3011 79.3698C66.3424 79.3493 66.3837 79.3493 66.425 79.3493C66.5901 79.3289 67.2092 78.7552 67.3744 78.5503C67.1886 78.5503 66.7552 78.5298 66.4663 78.4274C65.9709 78.7757 65.455 78.9396 64.9803 78.9396C64.4643 78.9396 64.1547 78.7347 64.1341 78.7142C64.0103 78.5913 63.9484 78.4683 63.9484 78.3659V76.317H65.3518V74.9853H67.0029V72.5062H65.9297L65.4137 72.752V71.5842L65.9297 71.8301H67.0029V70.232L66.7552 69.7402H67.9729L67.7252 70.232V71.8301H68.7778L69.2937 71.5842V72.752L68.7984 72.5062H67.7458V74.9853H69.3969V76.317H70.8004V78.4683C70.9242 78.5708 71.0274 78.6732 71.1306 78.7962C71.1512 78.7347 71.3782 78.5708 71.6672 78.2839Z" fill="#C5AA79"/>
<path d="M52.5762 72.5881C52.5349 72.5471 52.473 72.5062 52.4317 72.4447C52.3698 72.3218 51.8125 71.4612 51.5855 71.2359C51.5855 71.2359 51.2553 70.8671 49.4391 70.7441C49.4391 70.7441 49.4185 70.7441 49.3978 70.7441C49.2946 70.7441 49.0263 70.7851 49.0057 71.0924C48.9644 71.5022 49.047 72.4652 49.047 72.4652L49.5217 74.3091H49.5423L49.5217 74.3501V74.3706C49.4597 74.555 48.7993 76.6653 49.8519 78.161L50.0376 77.7717C50.0583 77.7717 51.2966 77.0751 51.5442 76.8702C51.957 76.5834 51.8951 76.6653 51.957 76.276L51.8332 72.9364C51.7919 72.9159 51.6062 72.2808 51.5855 72.1988C51.4823 72.1783 50.8425 71.9939 50.5949 71.6661C50.4091 71.7276 50.0583 71.7686 49.79 71.7686C49.6042 71.7686 49.2946 71.7481 49.2327 71.6661C49.2121 71.6251 49.2121 71.6047 49.2327 71.5637C49.274 71.5022 49.3566 71.4817 49.4804 71.5022C49.5629 71.5227 49.8519 71.5637 50.1202 71.5637C50.3266 71.5637 50.4917 71.5432 50.5536 71.4817L50.5742 71.4612L50.5949 71.4817C50.6361 71.5227 50.6774 71.5432 50.7187 71.5842C50.9457 71.7686 51.1108 71.8915 51.3585 71.912C51.5442 71.9325 51.7093 71.871 51.7093 71.871L51.7506 71.8505V71.8915C51.7506 71.8915 51.7506 72.4242 52.1634 72.7315C52.1634 72.7315 52.2047 72.7725 52.2666 72.793C52.3285 72.8135 52.3698 72.8135 52.4111 72.8135C52.4936 72.8135 52.5555 72.752 52.6174 72.6701C52.6381 72.6496 52.5968 72.6086 52.5762 72.5881ZM51.5855 74.9443L51.5649 74.7394L51.6474 74.9443C51.7713 75.2926 51.8745 75.7638 51.6268 76.0712C51.3585 76.4195 51.0489 76.6039 50.6981 76.6039C50.3472 76.6039 50.0376 76.4195 50.017 76.399C49.501 75.9277 49.4597 75.436 49.5217 75.1287L49.5423 75.0058L49.5836 75.1082C49.6249 75.2516 49.7693 75.7228 50.0376 76.0097C50.2027 76.1941 50.4091 76.276 50.6774 76.276C50.9457 76.276 51.1727 76.1736 51.2553 76.1326C51.5236 75.9892 51.6474 75.5794 51.5855 74.9443Z" fill="#C5AA79"/>
<path d="M51.6893 68.1422C51.6893 68.1422 51.2972 68.2446 51.1321 68.2036C51.1321 68.2036 50.8637 68.9617 50.6367 69.4329C50.6367 69.4329 51.0495 69.4124 51.7512 69.8222" fill="#C5AA79"/>
<path d="M52.6389 71.994C52.4531 71.6866 51.834 70.7032 51.834 70.7032C51.834 70.7032 50.864 70.15 49.2335 70.0066C48.8001 70.1295 48.9033 70.7647 48.9033 70.7647C48.9033 70.7647 49.1097 70.4778 49.7701 70.5598C50.575 70.6622 50.9672 70.6827 51.5244 70.9286C51.8753 71.0925 52.0817 71.4613 52.4944 72.3218C52.4944 72.3218 52.577 72.4857 52.6595 72.5267L52.6389 71.994Z" fill="#C5AA79"/>
<path d="M51.8953 70.232C51.4619 69.8632 50.8221 69.6174 50.0378 69.4945H50.0172C49.9966 69.4945 49.9759 69.474 49.9553 69.4535C49.8934 69.4125 49.7902 69.3305 49.5631 69.3101C49.5219 69.3305 49.3568 69.4125 49.2948 69.5559C49.2742 69.6379 49.2948 69.7403 49.3568 69.8633C49.4393 69.9247 49.5219 69.9452 49.6044 69.9452C49.7695 69.9452 49.914 69.8633 49.9966 69.7813C50.0172 69.7608 50.0378 69.7608 50.0585 69.7608C50.368 69.7608 51.6889 70.355 51.7096 70.355C51.9572 70.4984 52.3906 71.2155 52.5764 71.7072C52.5764 71.4614 52.4732 70.7033 51.8953 70.232Z" fill="#C5AA79"/>
<path d="M51.7917 67.3635C50.9042 67.5275 50.6772 67.6094 50.4708 67.8758C50.2025 68.1831 49.7897 68.7977 49.831 69.187C49.9961 69.2895 50.3882 69.3509 50.4708 69.3509C50.5121 69.2894 50.6153 69.0231 50.7185 68.7568C50.7804 68.5928 50.8216 68.4494 50.8629 68.3265C50.9455 68.0806 50.9455 68.0602 50.9868 68.0602H51.0074C51.0074 68.0602 51.0074 68.0602 51.028 68.0602C51.1725 68.0602 51.8123 67.9372 51.9155 67.8758L51.9361 67.8553V67.8962C51.9774 68.0806 52.514 68.5314 52.741 68.5928C52.8029 68.6133 52.8442 68.6133 52.9061 68.6133C53.0712 68.6133 53.2776 68.4904 53.2983 68.4699C53.257 68.4289 52.6585 67.9372 52.6791 67.8553L52.5553 67.7118L52.4314 67.5684C52.4314 67.5684 52.2044 67.3226 51.8948 67.3226C51.8536 67.3431 51.8329 67.3635 51.7917 67.3635Z" fill="#C5AA79"/>
<path d="M67.8912 77.1366C68.8199 77.1776 69.5629 77.4849 70.1201 77.8332V76.9317H69.3152H68.6961V76.358V75.5999H65.9924V76.358V76.9317H65.3733H64.5684V77.7513C65.5384 77.5054 66.1575 77.239 66.1575 77.239C67.1275 77.0137 67.8912 77.1366 67.8912 77.1366Z" fill="#C5AA79"/>
<path d="M70.1406 57.018C70.1621 57.018 70.2052 57.018 70.2482 56.9965C70.1837 57.018 70.1406 57.018 70.1406 57.018Z" fill="#C5AA79"/>
<path d="M54.6201 56.4638C57.1586 57.4268 60.4401 57.4063 61.3482 57.3858C57.0348 58.4921 55.2392 58.6151 55.1979 58.5741C55.0328 58.3897 54.5581 58.2668 54.5788 58.2873L54.6201 56.4638Z" fill="#C5AA79"/>
<path d="M55.0961 58.6164L55.0742 58.5945L55.0961 58.6164Z" fill="#C5AA79"/>
<path d="M66.446 81.644C66.4666 81.7054 66.4666 81.7464 66.4254 81.7874C66.4047 81.8284 66.3428 81.8694 66.2396 81.8489C66.219 81.8489 64.96 81.6645 63.99 81.0293C64.2377 81.2752 64.6504 81.644 65.0632 81.9308C65.7649 82.4225 66.5285 82.6684 67.3128 82.6684C68.2003 82.6684 68.8194 82.3611 68.8194 82.3611C70.5531 81.4801 71.7914 80.763 72.0597 80.5991C72.0597 80.3122 71.6882 78.96 71.5643 78.7961C71.4612 78.8985 71.358 78.9805 71.2754 79.042L71.2548 79.0829C71.2548 79.0829 71.1516 79.0624 71.1309 79.0624C71.1309 79.0624 70.2435 78.161 69.4799 77.8536C68.6337 77.5053 68.1384 77.4848 67.6637 77.4644H67.5811C67.5192 77.4644 67.4573 77.4644 67.416 77.4644C67.1683 77.4644 66.8175 77.4848 66.219 77.5668C66.0745 77.6488 65.7236 77.7717 65.2902 77.9151C65.3109 77.9766 64.2996 78.2839 64.3202 78.161C64.2583 78.2634 64.2377 78.3658 64.2789 78.4478C64.3615 78.6117 64.6298 78.7346 64.9807 78.7346C65.0838 78.7346 65.187 78.7346 65.3109 78.7141C66.0951 78.5912 66.4047 78.12 66.4047 78.12L66.4254 78.0995L66.446 78.12C66.5698 78.2019 66.9 78.3658 67.2715 78.3658C67.3954 78.3658 67.5192 78.3454 67.643 78.3044C67.7256 78.2839 67.9113 78.12 67.9526 78.0585L67.9732 78.038L67.9939 78.0585C68.0558 78.1405 67.9732 78.2839 67.7462 78.4478C67.5811 78.5707 67.2922 78.8985 67.2922 78.919C67.2922 78.919 66.7349 79.5951 66.0126 79.6566C65.93 79.6566 65.8268 79.6771 65.7236 79.6771C65.0838 79.6771 64.4647 79.4722 64.4647 79.4722C63.6804 79.2059 62.9994 78.3863 62.793 78.1405C62.8755 78.4273 63.1851 78.8576 63.5772 79.4517C64.1758 80.3942 65.6411 80.5786 65.9919 80.5786C66.0126 80.5786 66.3015 80.722 66.1364 80.6605C66.1571 80.681 66.1571 80.722 66.1571 80.7425C66.1571 80.804 65.9919 81.0088 65.8681 80.9884C64.5885 80.8244 64.1964 80.4966 63.763 80.1688C63.7217 80.1483 63.7011 80.1074 63.6598 80.0869C63.3915 79.882 63.1438 79.4927 62.8962 78.8985C62.9168 79.1444 63.02 79.5132 63.247 79.923C63.6392 80.6196 64.1551 81.1113 65.5585 81.5211C65.5792 81.5211 65.6205 81.5415 65.6411 81.5415C65.7856 81.5825 65.9713 81.644 66.1364 81.644C66.1777 81.644 66.219 81.644 66.2602 81.6235C66.2809 81.6235 66.3015 81.6235 66.3015 81.6235C66.3015 81.603 66.446 81.644 66.446 81.644Z" fill="#C5AA79"/>
<path d="M65.7223 55.8696L69.0864 57.9799C69.2102 58.0413 70.2834 58.6355 71.0264 59.2707C71.7281 59.8853 78.5182 76.7473 78.5182 76.7473C78.188 77.1161 77.8372 77.4849 77.4863 77.8332C77.0942 78.2225 77.0322 78.3045 76.5988 78.6733C76.5782 78.6733 76.1654 78.3659 76.1654 78.3659C75.0922 77.6079 74.246 77.2186 73.6682 77.0137C75.0716 75.6 75.5669 75.6614 75.732 75.6205C75.7527 75.6205 75.7527 75.6205 75.7733 75.6205H75.8146L75.9178 75.6L75.8971 75.4975L75.8765 75.3336L75.8559 75.2312L75.7527 75.2517H75.7114C75.7114 75.2517 75.6907 75.2517 75.6495 75.2722C74.8239 75.4361 73.8952 76.1122 73.2554 76.6654C73.5031 76.0302 73.6269 75.3541 73.6269 74.678C73.6269 72.2399 72.0171 70.0476 69.623 69.2076C66.9813 67.8348 64.6285 66.1343 63.06 65.0074C62.4408 64.5772 61.9661 64.2289 61.6565 64.0445C61.4708 63.942 60.7072 63.4093 59.4069 62.4873C63.2663 64.3313 67.5592 65.6221 69.623 65.8065H69.6643H69.7675L69.7881 65.704L69.8088 65.5606L69.8294 65.4582L69.7262 65.4377L69.6849 65.4172C68.7562 65.2123 63.2251 63.2044 58.9322 61.1146C60.1499 61.3605 61.6978 61.5859 63.1425 61.5859C64.3189 61.5859 65.2683 61.4219 65.9287 61.1146L66.3415 60.9097L66.8987 60.6434L66.3002 60.7048L65.8462 60.7458C65.2476 60.8073 64.5872 60.8483 63.9268 60.8483C60.0054 60.8483 56.3524 59.7419 55.7745 59.5575V59.537C55.7745 59.4551 55.7745 59.3936 55.7539 59.3116C55.7745 59.3321 62.317 58.2872 65.7223 55.8696Z" fill="#C5AA79"/>
<path d="M59.7599 83.4675C59.5329 83.488 59.3059 83.488 59.0582 83.488C56.8499 83.488 55.2814 82.6275 54.8273 82.3407C54.4352 82.4841 54.0224 82.566 53.5684 82.607L53.6303 84.5739C55.4671 84.9632 57.3452 85.1681 59.244 85.1681C62.7319 85.1681 66.096 84.5124 69.2743 83.2012C71.1318 82.4226 73.0305 81.2957 74.661 80.1279C74.3514 79.7591 72.7416 77.9561 72.7416 77.9561L72.2463 78.3249C72.2463 78.3249 72.948 80.5172 72.948 80.5377L72.0399 81.1933C71.5239 81.4801 70.1824 82.2177 69.8315 82.4021L69.7696 82.4431C69.3156 82.7095 68.4488 83.2012 67.3756 83.2012C66.9215 83.2012 66.4675 83.1192 66.0547 82.9348C65.58 82.7299 65.1466 82.4841 64.7545 82.2177C64.3623 82.2587 61.9063 83.3446 59.7599 83.4675Z" fill="#C5AA79"/>
<path d="M52.227 55.8696H52.2051C52.2051 55.8915 52.227 55.8915 52.227 55.8696Z" fill="#C5AA79"/>
<path d="M50.9062 36.6108V36.6313L51.2571 36.9594L51.6286 36.6108L51.2571 36.2621L50.9062 36.6108Z" fill="#C5AA79"/>
<path d="M51.6077 35.2788C51.6077 35.2378 51.587 35.1968 51.5458 35.1763C51.5251 35.1763 51.5251 35.1968 51.5045 35.1968C51.4839 35.1968 51.4632 35.2173 51.4426 35.2173C51.4219 35.2173 51.4013 35.2173 51.3807 35.2378C51.36 35.2378 51.3394 35.2378 51.3394 35.2378H51.3188C51.2568 35.2378 51.1743 35.2378 51.1124 35.2173H51.0917C51.0711 35.2173 51.0711 35.2173 51.0505 35.1968C51.0298 35.1968 51.0298 35.1968 51.0092 35.1763C50.9679 35.1968 50.9473 35.2378 50.9473 35.2788C50.9473 35.3403 50.9885 35.3814 51.0505 35.3814H51.5251C51.5458 35.3814 51.6077 35.3198 51.6077 35.2788Z" fill="#C5AA79"/>
<path d="M50.9062 37.6146V37.6351L51.2571 37.9632L51.608 37.6351L51.6286 37.6146L51.608 37.6351L51.2571 37.3275L50.9062 37.6351V37.6146Z" fill="#C5AA79"/>
<path d="M51.0488 38.3522H51.4823V38.0446L51.2759 38.2496L51.0488 38.0446V38.3522Z" fill="#C5AA79"/>
<path d="M51.5039 38.5363H51.0499L50.8848 39.1106H50.9467H51.6484H51.669L51.5039 38.5363Z" fill="#C5AA79"/>
<path d="M51.0488 35.6475V36.1397L51.2552 35.9346L51.4616 36.1397V35.6475H51.0488Z" fill="#C5AA79"/>
<path d="M51.4617 32.4312H50.5949C50.5949 32.4517 50.5742 32.4517 50.5742 32.4722L50.8632 33.2098C50.8425 33.2303 50.8425 33.2303 50.8632 33.2098L50.9457 33.4351L51.1934 34.1113C51.214 34.1113 51.214 34.1113 51.2346 34.1113C51.2553 34.1113 51.2759 34.1113 51.2966 34.1113L51.9364 32.4312H51.73H51.4617Z" fill="#C5AA79"/>
<path d="M50.6781 32.2466H50.7607H51.6481L51.6275 32.2671L51.6481 32.2466H51.8132C51.8545 32.2466 51.8958 32.2261 51.9164 32.2261C52.0609 32.2056 52.1641 32.1646 52.1847 32.1441C52.1641 32.1235 52.1022 32.103 52.0403 32.0825L52.0609 32.062L52.0403 32.0825C51.9784 32.062 51.8958 32.062 51.8132 32.0415C51.6688 32.021 51.483 32.0005 51.256 32.021C51.1528 32.021 51.0496 32.021 50.9464 32.021C50.6162 32.0415 50.4098 32.0825 50.3273 32.1236L50.3066 32.1441C50.3479 32.1851 50.4717 32.2261 50.6781 32.2466Z" fill="#C5AA79"/>
<path d="M51.4417 34.3568L51.5037 34.3978L51.4417 34.3568C51.4417 34.3568 51.4211 34.3362 51.4005 34.3362C51.4211 34.3568 51.4211 34.3568 51.4417 34.3568L51.3798 34.3157C51.3179 34.2952 51.2354 34.2747 51.1734 34.3157L51.029 34.3773L51.1734 34.3157C51.2354 34.2952 51.3179 34.2952 51.3798 34.3157C51.3386 34.2952 51.3179 34.2952 51.2766 34.2952C51.0909 34.2952 50.9258 34.4388 50.9258 34.6234C50.9258 34.7464 50.9877 34.8285 51.0703 34.89C51.0909 34.89 51.0909 34.9105 51.1115 34.9105C51.1322 34.9105 51.1528 34.931 51.1734 34.931C51.1528 34.931 51.1322 34.9105 51.1115 34.9105C51.1941 34.9515 51.3179 34.9515 51.4005 34.9105C51.3798 34.9105 51.3592 34.931 51.3385 34.931C51.3592 34.931 51.3798 34.9105 51.4005 34.9105C51.4211 34.9105 51.4211 34.89 51.4417 34.89C51.5449 34.8285 51.6068 34.7259 51.6068 34.6029C51.6068 34.5208 51.5243 34.4183 51.4417 34.3568Z" fill="#C5AA79"/>
<path d="M51.133 81.9104C51.133 81.9321 51.133 81.9321 51.1113 81.9538C51.133 81.9538 51.133 81.9321 51.133 81.9104Z" fill="#C5AA79"/>
<path d="M52.2465 82.0947L51.9782 77.4644C51.8543 77.5873 51.8543 77.5873 50.2858 78.4683L50.0175 78.9395L49.2126 79.3698L47.3551 80.2918L47.252 82.525C47.252 82.525 51.4003 84.369 52.3703 84.3895L52.2465 82.0947Z" fill="#C5AA79"/>
<path d="M51.6894 66.708C51.6894 66.708 51.4417 55.3779 51.4211 55.3779C51.4211 55.3779 48.9651 55.5828 45.601 60.8073C45.601 60.8073 45.5391 60.9098 45.4771 60.9917C45.4565 61.0122 45.4359 61.0327 45.4359 61.0737C45.3533 61.2171 45.2501 61.3605 45.2501 61.381C45.1882 61.4425 45.0025 61.9342 44.858 62.3439C44.8167 62.4874 44.7548 62.6308 44.7135 62.7537C44.7135 62.7537 44.7135 62.7537 44.7135 62.7742C44.6516 62.9586 44.5897 63.1225 44.5278 63.2864C44.3833 63.6962 44.2801 64.0035 44.2801 64.024L44.1563 64.3723H44.1769L43.8261 65.4377L42.3814 68.9617L40.9779 71.3793C41.4526 71.2359 42.2163 71.031 42.8148 70.9696C43.1243 70.9286 43.3926 70.9081 43.6197 70.9081C43.7435 70.9081 43.8673 70.9081 43.9499 70.9286L44.115 70.9491L44.3214 71.113C44.3627 71.195 44.342 71.2974 44.2801 71.3793C44.2182 71.4613 44.115 71.5228 44.0118 71.5228C43.9499 71.5228 43.8467 71.5023 43.7435 71.3998H43.7229C42.9386 71.3998 40.8541 72.035 40.4826 72.2194C40.2969 72.3218 39.4713 73.3053 38.2949 74.7804C39.0585 75.8049 39.9254 76.7883 40.8335 77.7103C41.0192 77.28 43.2895 72.957 48.8412 73.5511C48.7793 73.3053 48.284 71.994 48.5317 69.9656C48.738 68.2241 49.8319 66.7285 51.6894 66.708ZM46.282 60.2541C46.2408 60.2746 46.2614 60.2746 46.282 60.2541V60.2541Z" fill="#C5AA79"/>
<path d="M52.6999 66.9538C53.0301 67.6914 53.6286 68.3471 53.9382 68.7158C54.2684 69.1051 54.1859 69.3305 54.1652 69.8427C54.1652 69.9452 54.2684 70.9286 54.1652 70.9286C54.2271 72.2194 54.4542 73.5511 53.9795 74.8009C53.835 75.1697 53.6493 75.518 53.4429 75.8458C53.319 76.0507 53.319 75.9688 53.319 76.1122C53.3397 76.3785 53.3397 76.6244 53.3603 76.8907C53.4222 78.5093 53.5048 80.1484 53.5667 81.767C53.5667 81.808 53.5667 81.8694 53.5667 81.9104C54.8876 81.808 55.9401 81.0909 56.9927 80.3738C56.6212 80.927 56.291 81.5416 55.7337 81.9309C57.0753 82.7709 60.8727 82.9758 63.3081 81.808C62.9779 81.5007 61.8015 79.8821 62.173 77.7718C62.2555 77.3005 61.2855 77.5054 61.3268 74.6575C61.3474 73.1209 61.9459 72.2194 61.9459 72.2194C59.6344 71.2359 54.5986 60.9917 54.5986 60.9917C53.8969 61.299 52.9888 60.8483 52.6999 60.2131C52.3284 59.4141 52.8444 58.3897 53.6699 58.1438C53.9795 58.0618 53.8144 57.1194 53.8144 56.8325C53.8144 56.1769 53.8144 55.5213 53.8144 54.8452C53.5254 54.9271 52.3077 55.0705 52.3284 55.3778L52.6999 66.9538Z" fill="#C5AA79"/>
<path d="M65.3311 48.084C65.2898 48.166 65.2279 48.2479 65.1454 48.3094C65.0834 49.047 64.5056 50.0919 63.4943 50.0919C63.4117 50.0919 63.3292 50.0919 63.2672 50.0714C62.9989 50.0304 62.8132 49.928 62.6894 49.7436C62.5036 49.4567 62.6068 49.1084 62.6068 49.0879L62.6481 48.9445L62.71 49.0675C62.7719 49.2109 62.9577 49.5797 63.0609 49.6616C63.1847 49.7436 63.3292 49.805 63.4943 49.805C64.1341 49.805 64.7739 49.006 64.8771 48.4938C65.1041 47.4694 63.8038 47.1006 63.7832 47.1006C63.6594 47.0596 63.5562 46.9981 63.453 46.9367L63.4736 47.0596C63.4736 47.0596 63.5355 47.3054 63.7006 47.5308C63.8038 47.6742 63.9277 47.7972 64.0515 47.9201C64.2579 48.125 64.4436 48.3094 64.4436 48.5757C64.4436 49.1494 64.0928 49.4977 63.5149 49.4977C63.3704 49.4977 63.226 49.4772 63.0609 49.4362H63.0402L63.0609 49.3338H63.0815C63.1434 49.3543 63.2053 49.3543 63.2672 49.3543C63.6594 49.3543 63.9896 49.0675 64.0928 48.7806C64.1341 48.6577 64.196 48.4323 63.9896 48.2479C63.3911 47.7152 63.3911 47.121 63.3911 47.1006V46.9162C62.7513 46.4449 62.7926 45.6869 62.7926 45.6664L62.7719 45.6254L62.5243 45.3795C62.4417 45.2976 62.3591 45.1951 62.2972 45.0927C62.2147 44.9698 62.1734 44.8673 62.1321 44.8059C61.9051 44.5395 61.6574 44.3141 61.3891 44.1297C61.3066 44.0888 61.2034 44.0478 61.1415 43.9863C60.7906 43.8019 60.4398 43.72 60.1508 43.638C60.027 43.597 59.9031 43.5765 59.8 43.5356C59.6761 43.4946 59.3253 43.2487 59.2014 42.9414C59.0982 43.0848 58.9125 43.2282 58.6648 43.3717C58.4791 43.4536 58.314 43.5151 58.1489 43.5765C57.6742 43.7405 57.2408 43.9044 56.7454 44.5395C56.1469 45.2976 56.2295 46.7523 56.2501 46.9162C56.2501 46.9162 56.2501 46.9367 56.2501 46.9776V46.9981C56.2088 48.3094 56.3946 49.4567 56.8074 50.3173C56.828 50.3787 56.8693 50.4197 56.8899 50.4812C56.9105 50.5221 56.9312 50.5426 56.9312 50.5631C57.344 51.3417 58.2108 52.6324 59.2427 52.571C60.4604 52.489 61.0176 51.7105 61.0383 51.69L61.0589 51.6695C61.0589 51.6695 61.1415 51.5875 61.224 51.5875C61.2653 51.5875 61.3066 51.608 61.3478 51.649C61.3891 51.7105 61.3478 51.7719 61.3272 51.8129C61.2034 52.0383 60.5223 52.8373 59.3665 52.8373C59.3459 52.8373 59.3253 52.8373 59.284 52.8373C58.2108 52.7964 57.4472 51.8744 57.0344 51.2392L57.0137 51.2802H56.9725C56.9518 51.2802 56.6422 51.1983 56.2708 51.0548C56.2708 51.0548 55.9405 51.5261 56.1469 51.8129C56.1676 51.8334 56.2501 51.8949 56.4152 51.8949C56.5184 51.8949 56.6422 51.8539 56.7867 51.7924C56.828 51.7719 56.8693 51.7514 56.8899 51.7514C56.9312 51.7514 56.9518 51.7719 56.9518 51.7719C56.9518 51.7924 56.9725 51.7924 56.9725 51.8129V51.8334C56.9931 51.8744 57.0963 52.1612 57.0137 52.5095C56.9931 52.612 56.9518 52.6939 56.8693 52.7554C56.8899 53.0627 56.7248 53.2471 56.5803 53.3495L56.5597 53.3905C56.2708 53.8003 55.4658 54.1896 54.9912 54.4149C54.8261 54.4969 54.6403 54.5789 54.6197 54.6198C54.599 54.6608 54.5577 54.8862 54.5371 55.5828C54.9705 55.7672 56.8899 56.5253 60.4604 56.5253C60.8319 56.5253 61.224 56.5048 61.6162 56.4843C61.7193 56.5253 61.8845 56.5253 62.0702 56.4638C63.8038 56.0335 64.423 55.0501 64.423 55.0501C62.7513 55.1116 62.194 53.8003 62.194 53.8003C62.1734 53.7388 62.1321 53.6569 62.1115 53.5954C61.6162 52.571 62.1528 51.567 62.1528 51.567C62.1528 51.5261 62.1528 51.4646 62.1528 51.4441C62.1528 51.2187 62.1734 50.9114 62.2147 50.6246C62.2147 50.4197 62.2353 50.2353 62.2972 50.0304C62.3179 49.9689 62.3385 49.887 62.4211 49.846L62.4623 49.805L62.5036 49.8255H62.5243L62.5655 49.846C62.8132 49.9689 63.1228 50.0919 63.4943 50.0919C63.8038 50.0919 64.1341 49.9894 64.4643 49.805C65.7232 49.1699 65.393 48.2069 65.3311 48.084ZM59.0982 45.5434C59.1189 45.523 59.1395 45.523 59.1602 45.523C59.2221 45.523 59.2634 45.5639 59.3253 45.5844C59.3459 45.6049 59.3872 45.6254 59.4078 45.6254C59.4078 45.6254 59.4491 45.6049 59.4697 45.5844C59.511 45.5434 59.5523 45.5025 59.5936 45.5025C59.6142 45.5025 59.6555 45.5025 59.6761 45.5639C59.6968 45.5844 59.6968 45.6459 59.6555 45.7073C59.6142 45.8098 59.4697 45.9122 59.3665 45.9327H59.3459C59.2014 45.9327 59.0982 45.6869 59.0776 45.6254L59.057 45.5844L59.0982 45.5434ZM59.9857 48.8831L60.1095 49.047C60.1302 49.0675 60.254 49.2314 60.1921 49.3748C60.1714 49.4567 60.0889 49.4977 59.9857 49.5182C59.9238 49.5387 59.8412 49.5182 59.8 49.4977C59.7793 49.5387 59.738 49.6002 59.6968 49.6411C59.6142 49.7231 59.511 49.7641 59.4078 49.7641C59.2014 49.7641 59.057 49.6411 58.995 49.5387C58.9538 49.5592 58.8919 49.5797 58.8506 49.5797C58.6442 49.5182 58.6236 49.3748 58.6236 49.3338C58.6236 49.2109 58.7267 49.0879 58.8093 49.0675L58.9538 49.047L58.8712 49.1494C58.8506 49.1904 58.8299 49.2314 58.8299 49.2518C58.8299 49.2518 58.8506 49.2723 58.8919 49.2723C58.9744 49.2723 59.0157 49.1904 59.0157 49.1904L59.0776 49.0879L58.995 48.6987L58.9125 46.3425H59.2014V49.3338C59.2221 49.3953 59.284 49.4362 59.4078 49.4362H59.4285C59.5936 49.4362 59.6348 49.2109 59.6348 49.1904L59.6555 49.0879L59.738 49.1699C59.7793 49.2109 59.8825 49.2723 59.9444 49.2723C59.9651 49.2723 59.9651 49.2723 59.9651 49.2723C59.9651 49.2723 60.0063 49.2314 59.9857 49.1084V48.8831ZM59.7174 48.6987L59.4697 49.2518L59.5523 46.322H59.8412L59.7174 48.6987ZM56.4771 45.6869C56.4978 45.6664 56.8074 45.0722 57.5916 45.0722C57.6742 45.0722 57.7774 45.0722 57.8599 45.0927C58.4997 45.1951 58.9125 45.7073 58.9125 45.7483L59.0982 45.9942L58.8299 45.8303C58.8299 45.8303 58.2108 45.482 57.7567 45.441C57.1376 45.4 56.5597 45.7688 56.5391 45.7688L56.3533 45.8917L56.4771 45.6869ZM58.3759 46.6498C58.3346 46.6088 58.2727 46.5474 58.1695 46.4859C58.1489 46.5679 58.1282 46.6293 58.0663 46.6908C58.0457 46.7113 58.0457 46.7318 58.025 46.7318C57.9425 46.8342 57.8806 46.8957 57.6742 46.8957H57.5297H57.5091C57.3852 46.8342 57.2408 46.7523 57.1995 46.6293C57.1788 46.5884 57.1789 46.5269 57.1789 46.4654C57.1789 46.4654 57.1582 46.4654 57.1582 46.4859C56.9312 46.6088 56.6835 46.7318 56.5184 46.7318H56.4359L56.4565 46.6498C56.4771 46.6088 56.5184 46.4859 56.5597 46.4449C56.6216 46.363 57.0344 45.8917 57.6742 45.8917C57.798 45.8917 57.9012 45.9122 58.025 45.9327C58.6648 46.1376 58.6855 46.7318 58.6855 46.7523V47.0391L58.5823 46.8957C58.5823 46.8752 58.4584 46.7318 58.3759 46.6498ZM60.2953 50.768C60.2334 50.7885 60.1508 50.809 60.0476 50.809C59.9651 50.809 59.8619 50.809 59.7587 50.7885C59.6968 50.7885 59.6348 50.768 59.5936 50.7885L59.5729 50.809C60.0476 50.809 60.1921 50.9934 60.1921 51.0958C60.1921 51.1368 60.1714 51.2187 60.1302 51.2597C60.0889 51.3007 60.0476 51.3212 59.9857 51.3212C59.9857 51.3212 59.9651 51.3212 59.9444 51.3212C59.9238 51.3212 59.9031 51.3212 59.8825 51.3212C59.7587 51.3212 59.5936 51.3007 59.5523 51.2802C59.4285 51.2802 59.3665 51.3007 59.284 51.3007C59.2221 51.3007 59.1808 51.3212 59.1189 51.3212C59.0776 51.3212 59.057 51.3212 59.0157 51.3212C58.9538 51.3007 58.8712 51.2187 58.8506 51.1573C58.8299 50.9729 58.9331 50.9114 59.1189 50.85C59.1602 50.8295 59.2014 50.8295 59.2427 50.8295L59.2221 50.809C59.1395 50.8295 59.0363 50.85 58.9744 50.85C58.7061 50.85 58.5616 50.686 58.4997 50.6041L58.4172 50.4812H58.5616C58.5823 50.4812 58.6029 50.4812 58.6236 50.4812C58.7267 50.4812 58.8093 50.4607 58.8712 50.4402C58.8919 50.4402 58.9951 50.3787 59.0363 50.2763V50.2558L59.057 50.2353C59.0776 50.2148 59.1189 50.1943 59.1602 50.1943C59.2014 50.1943 59.2427 50.2148 59.284 50.2558C59.284 50.2558 59.3046 50.2763 59.4078 50.2763H59.4285C59.5317 50.2763 59.5523 50.2558 59.5729 50.2148L59.5936 50.1943C59.5936 50.1943 59.5936 50.1943 59.6142 50.1738H59.6348C59.6555 50.1533 59.6761 50.1533 59.6968 50.1533H59.7174H59.738C59.8 50.1738 59.8619 50.2148 59.9238 50.2558C60.0063 50.3173 60.0683 50.3787 60.1715 50.3787C60.2127 50.3787 60.3572 50.3787 60.4604 50.3582L60.5429 50.4812C60.5017 50.6041 60.3985 50.727 60.2953 50.768ZM62.2972 46.7523C62.1528 46.7523 61.9464 46.6293 61.7606 46.5269C61.74 46.5064 61.6987 46.4859 61.6781 46.4859C61.6781 46.5474 61.6781 46.5884 61.6574 46.6498C61.6162 46.7727 61.4717 46.8547 61.3478 46.9162H61.3272H61.1827C60.9764 46.9162 60.9144 46.8342 60.8319 46.7523C60.8112 46.7318 60.8112 46.7113 60.7906 46.7113C60.7493 46.6498 60.7081 46.5884 60.6874 46.5064C60.6049 46.5474 60.5429 46.6088 60.481 46.6703C60.4191 46.7318 60.2953 46.8957 60.2953 46.8957L60.1921 47.0391V46.7523C60.1921 46.7523 60.1921 46.1581 60.8525 45.9327C60.9764 45.8917 61.0796 45.8917 61.2034 45.8917C61.8638 45.8917 62.2353 46.3425 62.2766 46.404C62.3179 46.4654 62.3798 46.6293 62.3798 46.6703L62.4004 46.7523H62.2972ZM62.3179 45.523C62.3179 45.523 61.5336 45.2771 61.1002 45.2771C61.0589 45.2771 60.997 45.2771 60.9764 45.2771C60.5223 45.359 60.0063 45.8098 60.0063 45.8098L59.7793 46.0147L59.9238 45.7278C59.9444 45.6869 60.3366 44.9083 61.1208 44.9083C61.9051 44.9083 62.3591 45.3795 62.3798 45.4L62.5449 45.5639L62.3179 45.523Z" fill="#C5AA79"/>
<path d="M62.7315 48.7805C62.7315 48.7805 62.7522 48.7805 62.7934 48.7805C62.876 48.7805 62.9792 48.76 63.0618 48.6576C63.1856 48.4937 63.2888 48.1249 63.0618 47.2234V47.2029V47.1824C63.0824 47.1414 63.103 47.1005 63.1443 47.1005C63.2062 47.1005 63.2681 47.1619 63.3301 47.3258C63.4952 47.7356 63.5777 48.3708 63.4126 48.7191C63.3507 48.842 63.2888 48.924 63.1856 48.9444C63.1237 48.9854 63.0618 49.0059 62.9998 49.0059C62.8141 49.0059 62.6696 48.842 62.6696 48.842L62.5664 48.7191L62.7315 48.7805Z" fill="#C5AA79"/>
<path d="M46.4066 82.0948L46.7162 76.0507L48.0164 74.2067C48.0164 74.2067 44.2602 73.7355 41.4121 78.3659C41.4121 78.3864 43.2489 80.4762 46.4066 82.0948Z" fill="#C5AA79"/>
<path d="M47.3145 79.6772L49.4402 78.5913C49.4402 78.5913 48.2638 77.5054 48.9862 74.3707L48.656 74.3092L47.4589 76.1736L47.3145 79.6772Z" fill="#C5AA79"/>
<path d="M73.3383 77.3005C73.3383 77.3005 74.783 77.7923 75.9594 79.3289L75.3609 79.8001C75.3609 79.8001 74.6592 78.5298 72.9668 77.6284L73.3383 77.3005Z" fill="#C5AA79"/>
<path d="M85.0828 60.0902C85.0828 56.6891 84.4017 53.411 83.0602 50.2967C82.7919 49.6616 82.4823 49.0264 82.1521 48.4118C81.6568 47.4693 80.9138 46.6703 79.9851 46.1581C79.2214 45.7278 78.1895 45.3795 76.8893 45.2975C76.394 45.2975 75.9812 45.3795 75.7335 45.5024C74.2269 46.0351 73.1537 47.4079 72.5552 48.3913C72.1218 49.1084 71.8328 49.9279 71.7709 50.768C71.7296 51.3621 71.7915 51.9768 72.0805 52.7758C72.1011 52.8578 72.1837 53.1036 72.2043 53.2471C72.225 53.411 72.452 54.9271 71.193 56.1564C70.9454 56.4228 70.6358 56.5662 69.6039 56.8121C69.3356 56.8735 69.3768 56.853 69.0879 56.8735L71.1517 58.1233C72.4107 58.7789 73.5045 61.1761 73.5045 61.1761C73.5045 61.1761 74.0411 62.4874 74.6397 62.4874H74.6603C74.7016 62.3849 74.681 61.9547 74.619 61.7293C74.5365 61.4015 74.2888 60.7458 74.2063 60.5C74.165 60.3361 74.1031 60.0492 74.2682 59.9673L74.3301 59.9468C74.4952 59.9468 74.619 60.1107 74.9699 60.8073C75.2382 61.299 75.6097 62.0571 75.9193 62.18C75.9812 62.1595 76.0018 62.1391 76.0225 62.0776C76.1876 61.5039 75.7335 60.6639 75.2588 60.1107L75.1144 59.9468L75.3207 59.8853C75.3414 59.8853 75.3827 59.8648 75.4033 59.8648C75.589 59.8648 75.7954 60.0492 75.8161 60.0492L75.8574 60.0902C76.1463 60.3566 76.2701 60.459 76.6003 60.9302C77.4672 62.139 78.045 63.8396 78.0657 65.2943C78.0863 66.0933 78.1276 66.4006 78.1689 66.7694C78.2101 67.0768 78.2514 67.3226 78.2721 67.7734H78.2514C78.2721 67.9373 78.8912 72.035 81.0376 73.5511L81.3885 73.0594C81.3885 73.0594 81.3678 73.0594 81.3678 73.0389C82.0076 72.0145 82.5649 70.9491 83.0396 69.8632C84.4017 66.7694 85.0828 63.4708 85.0828 60.0902ZM80.0263 69.6378C80.2121 66.9333 80.4185 64.2903 80.1089 61.5859C79.7787 58.7585 79.2214 55.972 78.5404 53.2061C80.0883 55.3779 80.8519 58.1848 81.2234 60.7868C81.6362 63.7781 81.2853 66.8719 80.0263 69.6378ZM82.3172 59.7419C81.987 56.9145 81.4298 54.1281 80.7487 51.3621C82.2966 53.5339 83.0602 56.3408 83.4317 58.9429C83.8445 61.9342 83.5143 65.0279 82.2347 67.7939C82.3998 65.1099 82.6268 62.4669 82.3172 59.7419Z" fill="#C5AA79"/>
<path d="M47.3765 55.8081C47.2733 55.7876 47.1701 55.7876 47.067 55.7057L46.9225 55.6032L47.005 55.4598C47.0257 55.4188 47.0257 55.3779 47.005 55.3164C46.9431 55.0705 46.6542 54.7017 46.4891 54.6198C46.2001 54.4559 45.9112 53.5134 45.8286 53.2266L45.808 53.1651V53.1446L45.6635 53.2266L45.808 52.8987C47.1701 49.7435 45.9525 46.7727 44.095 45.5844C43.8473 45.4409 43.579 45.2975 43.2695 45.1541C43.2282 45.1336 42.4439 44.8263 41.3914 44.8263C41.3088 44.8263 41.2262 44.8263 41.1437 44.8263C39.2243 44.9492 37.5113 46.0761 36.5619 47.7357C36.0872 48.5552 35.6745 49.3952 35.303 50.2557C33.9615 53.37 33.2598 56.6686 33.2598 60.0697C33.2598 63.4708 33.9408 66.7899 35.303 69.8837V69.9042C35.53 70.4369 35.8602 70.9286 36.2317 71.3793C36.8096 72.0555 37.3875 72.6291 37.7383 72.8955C37.7383 72.916 37.7177 72.916 37.7177 72.9365L38.2749 73.1618C39.3069 70.5598 39.5132 68.6749 39.5339 67.6709C39.6784 67.4865 39.699 67.1587 39.699 67.0153V66.9948C39.9054 62.8561 40.4007 61.8932 41.3294 60.3975C41.5977 59.9673 41.8248 59.7214 41.9692 59.5575C41.9692 59.5575 41.9692 59.537 41.9899 59.537L42.1963 59.3321L42.0931 59.5985C41.9486 59.9263 41.5152 61.0327 41.6597 61.4834C41.7009 61.5859 41.7422 61.6268 41.8248 61.6678C42.0724 61.6063 42.6503 60.8278 43.352 59.619L43.4552 59.6599C43.352 59.9263 43.1663 60.459 42.9599 60.9917C42.9599 60.9917 42.6297 61.8112 42.9805 61.9546C43.0218 61.9751 43.0631 61.9751 43.1044 61.9751C43.5378 61.9751 44.0537 61.1351 44.2601 60.7868L44.4459 60.459C44.4459 60.459 47.7274 55.8696 47.5829 55.8491L47.3765 55.8081ZM35.8189 67.3431C34.56 64.5772 34.2091 61.4834 34.6219 58.4921C34.9934 55.8901 35.757 53.0831 37.3049 50.9114C36.6032 53.6773 36.046 56.4637 35.7364 59.2911C35.4268 61.9956 35.6538 64.6386 35.8189 67.3431ZM37.9447 61.1146C37.6351 63.8191 37.8622 66.4621 38.0273 69.1666C36.7683 66.4006 36.4175 63.3069 36.8302 60.3156C37.2017 57.7135 37.9654 54.9066 39.5132 52.7348C38.8115 55.5008 38.2543 58.2872 37.9447 61.1146Z" fill="#C5AA79"/>
<path d="M60.1503 55.8287C65.7583 55.8287 70.3044 51.3156 70.3044 45.7484C70.3044 40.1811 65.7583 35.668 60.1503 35.668C54.5423 35.668 49.9961 40.1811 49.9961 45.7484C49.9961 51.3156 54.5423 55.8287 60.1503 55.8287Z" stroke="#C5AA79" stroke-miterlimit="10"/>
<path d="M52.164 54.2304L51.3384 54.4353L51.2559 52.5914L52.1227 53.5543L52.164 54.2304Z" fill="#C5AA79"/>
<path d="M59.2015 30.4844C74.8042 30.4844 87.5176 43.0848 87.5176 58.5945C87.5176 74.1043 74.8249 86.7047 59.2015 86.7047C43.5781 86.7047 30.8854 74.1043 30.8854 58.5945C30.8854 43.0848 43.5781 30.4844 59.2015 30.4844ZM59.2015 29.296C42.9177 29.296 29.709 42.4086 29.709 58.574C29.709 74.7394 42.9177 87.852 59.2015 87.852C75.4853 87.852 88.694 74.7394 88.694 58.574C88.694 42.4086 75.4853 29.296 59.2015 29.296Z" fill="#C5AA79"/>
</svg>
