<svg width="200" height="362" viewBox="0 0 200 362" fill="none" xmlns="http://www.w3.org/2000/svg">
<path d="M75.6036 257.426C72.9005 257.426 71.1332 255.984 70.0935 253.876V261.421H73.0045V262.308H63.5439V261.421H66.4548V253.876C65.4152 255.984 63.6478 257.426 60.9448 257.426C56.9942 257.426 54.707 254.874 54.707 251.435C54.707 246.774 59.8012 243.335 61.4646 241.449C63.0241 239.784 66.4548 235.79 66.4548 231.352V230.02H63.5439V229.133H73.0045V230.02H70.0935V231.352C70.0935 235.79 73.5243 239.784 75.0838 241.449C76.8511 243.335 81.8413 246.774 81.8413 251.435C81.8413 254.763 79.5542 257.426 75.6036 257.426ZM66.3509 234.902C65.8311 236.788 64.6875 239.451 62.2963 242.891C60.5289 245.443 58.4497 247.107 58.4497 250.547C58.4497 253.321 59.8012 254.874 62.2963 254.874C64.8954 254.874 66.3509 253.099 66.3509 250.547V234.902ZM74.0441 242.891C71.653 239.451 70.6133 236.788 69.9896 234.902V250.547C69.9896 253.21 71.4451 254.874 74.0441 254.874C76.5392 254.874 77.8907 253.321 77.8907 250.547C77.8907 246.996 75.8115 245.443 74.0441 242.891Z" fill="#C5AA79"/>
<path d="M92.8603 261.531C91.1969 262.419 89.6374 262.752 89.2216 262.752C89.1176 262.752 88.7018 262.752 88.7018 262.53C88.7018 262.308 89.2216 261.31 89.2216 260.644C89.2216 259.09 89.0137 258.758 85.9987 252.433C84.4393 249.215 84.0234 246.552 84.0234 243.668C84.0234 232.572 90.4691 228.578 93.1722 228.578C93.588 228.578 93.588 228.8 93.588 229.021C93.588 229.132 93.4841 230.464 93.4841 230.686C93.4841 232.572 94.9395 235.013 95.2514 235.568C98.5782 241.116 98.8901 241.781 99.4099 243.779C99.8258 245.332 100.034 246.996 100.034 248.328C99.9298 253.21 97.7465 259.09 92.8603 261.531ZM93.588 237.343C93.2761 235.901 92.7563 234.014 92.7563 232.461C92.7563 231.241 92.8603 230.464 93.0682 229.243C90.1573 229.243 87.3503 232.794 87.3503 239.451C87.3503 240.339 87.3502 243.335 88.182 246.885L89.9493 253.876C90.0533 254.319 90.3652 256.095 90.3652 257.537C90.3652 259.312 90.1573 260.311 89.5335 261.864C92.6524 261.864 96.0831 257.648 96.0831 250.88C96.0831 247.329 95.5633 245.221 93.588 237.343Z" fill="#C5AA79"/>
<path d="M113.031 262.197V261.31H115.942V246.442L108.249 243.335V261.31H111.16V262.197H101.699V261.31H104.61V230.02H101.699V229.133H111.16V230.02H108.249V242.558L115.942 245.665V230.131H113.031V229.243H122.492V230.131H119.581V261.421H122.492V262.308H113.031V262.197Z" fill="#C5AA79"/>
<path d="M143.595 271.296H143.179C142.659 266.968 143.179 262.308 136.837 262.308H131.327C124.985 262.308 125.505 266.968 124.985 271.296H124.569L123.426 261.421H127.48C126.857 260.533 125.609 258.869 125.609 256.649C125.609 253.543 127.272 250.547 130.183 246.996C135.485 240.561 136.733 239.34 136.733 236.788C136.733 235.346 135.901 233.793 134.03 233.682C134.654 234.236 134.966 234.902 134.966 235.679C134.966 237.01 134.134 238.009 132.782 238.009C131.431 238.009 130.495 237.01 130.495 235.679C130.495 234.014 131.639 232.905 133.51 232.905C135.693 232.905 137.461 234.569 137.461 237.121C137.461 240.339 134.758 243.779 133.094 246.774C130.911 250.769 129.871 253.432 129.871 256.427C129.871 258.979 131.119 260.533 132.886 261.531H137.565V230.242H134.654V229.354H144.114V230.242H141.203V261.531H144.842L143.595 271.296Z" fill="#C5AA79"/>
<path d="M18.0063 312.349V311.462H20.9172V292.599C20.9172 295.484 16.031 298.702 12.6002 298.813V300.699C13.7438 300.81 14.5755 301.92 14.5755 303.029C14.5755 304.25 13.6398 305.248 12.6002 305.359V306.358C12.6002 309.686 13.4319 311.24 15.7191 311.24H16.2389V312.128H7.92188V311.462H8.33772C10.9368 311.462 11.6645 309.576 11.6645 306.58V305.581C10.6249 305.359 9.89717 304.472 9.89717 303.251C9.89717 302.031 10.6249 301.143 11.6645 300.921V299.035C9.7932 298.924 8.54565 297.703 8.54565 295.373C8.54565 292.488 11.0408 290.824 13.8478 289.271C16.6547 287.717 19.6697 286.497 19.6697 283.723C19.6697 282.28 19.3578 280.505 16.9666 280.283C17.5904 280.838 17.9023 281.504 17.9023 282.28C17.9023 283.612 17.0706 284.61 15.7191 284.61C14.3676 284.61 13.4319 283.612 13.4319 282.28C13.4319 280.616 14.5755 279.396 16.4468 279.396C19.4617 279.396 20.8133 281.837 20.8133 284.499V279.285H27.3629V280.172H24.452V311.462H27.3629V312.349H18.0063ZM20.9172 284.389C20.9172 287.162 19.3578 289.271 14.7834 291.934C13.4319 292.71 11.7685 294.042 11.7685 296.039C11.7685 296.927 12.2883 297.592 13.224 297.592C16.8627 297.592 20.8133 294.375 20.8133 290.491V284.389H20.9172Z" fill="#C5AA79"/>
<path d="M34.6395 311.462H38.2782V312.349H28.0898V311.462H31.0008V289.715C31.0008 282.28 35.0553 278.73 40.4614 278.73C44.9318 278.73 48.2586 280.949 48.2586 285.165C48.2586 288.716 45.9714 291.823 41.1892 291.823C39.7337 291.823 38.798 291.268 38.1742 290.713L34.7435 296.816V311.462H34.6395ZM37.8623 289.715C38.1742 290.047 38.902 290.269 39.6297 290.269C42.1248 290.269 44.7239 288.272 44.7239 285.165C44.7239 282.059 42.4367 279.618 39.9416 279.618C36.8227 279.618 34.7435 281.948 34.7435 285.498V295.373L37.8623 289.715Z" fill="#C5AA79"/>
<path d="M50.6523 280.172H48.1571V279.285H57.6178V280.172H54.7068L58.4495 290.269L60.2168 284.389C61.3604 280.394 63.4397 278.73 65.9348 278.73C66.4546 278.73 67.0784 278.952 67.5982 279.285V287.163H67.0784C66.7665 284.389 65.6229 282.724 63.8555 282.724C62.2961 282.724 60.9446 284.167 60.3208 286.164L58.7614 291.49L66.1427 311.462H68.326V312.349H58.8653V311.462H62.0882L56.89 297.481L55.9544 300.921C56.6821 301.365 57.2019 302.142 57.2019 303.029C57.2019 304.472 56.0583 305.47 54.8108 305.47H54.7068L54.291 306.802C53.9791 307.911 53.8751 308.799 53.8751 309.797C53.8751 310.685 54.4989 311.573 55.9544 311.573H56.5781V312.46H47.9492V311.462C50.4443 311.462 52.3157 309.908 53.3553 306.469C53.3553 306.469 53.7711 305.137 53.7711 305.248C52.9394 304.804 52.4196 304.028 52.4196 303.029C52.4196 301.698 53.3553 300.588 54.7068 300.588C54.8108 300.588 55.0187 300.588 55.1227 300.588L56.3702 296.15L50.6523 280.172Z" fill="#C5AA79"/>
<path d="M78.6157 312.349V311.462H81.5266V292.599C81.5266 295.484 76.6404 298.702 73.2096 298.813V300.699C74.3532 300.81 75.1849 301.92 75.1849 303.029C75.1849 304.25 74.2492 305.248 73.2096 305.359V306.358C73.2096 309.686 74.0413 311.24 76.3285 311.24H76.8483V312.128H68.5312V311.462H68.9471C71.4422 311.462 72.2739 309.576 72.2739 306.58V305.581C71.2343 305.359 70.5065 304.472 70.5065 303.251C70.5065 302.031 71.2343 301.143 72.2739 300.921V299.035C70.4026 298.924 69.155 297.703 69.155 295.373C69.155 292.488 71.6501 290.824 74.4571 289.271C77.2641 287.717 80.2791 286.497 80.2791 283.723C80.2791 282.28 79.9672 280.505 77.576 280.283C78.1998 280.838 78.5117 281.504 78.5117 282.28C78.5117 283.612 77.68 284.61 76.3285 284.61C74.977 284.61 74.0413 283.612 74.0413 282.28C74.0413 280.616 75.1849 279.396 77.0562 279.396C80.0711 279.396 81.4227 281.837 81.4227 284.499V279.285H87.9723V280.172H85.0614V311.462H87.9723V312.349H78.6157ZM81.4227 284.389C81.4227 287.162 79.8632 289.271 75.2888 291.934C73.9373 292.71 72.2739 294.042 72.2739 296.039C72.2739 296.927 72.7937 297.592 73.7294 297.592C77.3681 297.592 81.3187 294.375 81.3187 290.491V284.389H81.4227Z" fill="#C5AA79"/>
<path d="M100.863 312.349V311.462H103.774V296.594L96.0809 293.487V311.462H98.9919V312.349H89.5312V311.462H92.4422V280.172H89.5312V279.285H98.9919V280.172H96.0809V292.599L103.774 295.706V280.172H100.863V279.285H110.324V280.172H107.413V311.462H110.324V312.349H100.863Z" fill="#C5AA79"/>
<path d="M128.832 289.16H128.416C127.896 284.832 128.416 280.172 122.074 280.172H118.643V311.462H121.554V312.349H112.094V311.462H115.005V280.172H112.094V279.285H129.975L128.832 289.16Z" fill="#C5AA79"/>
<path d="M147.958 302.363C147.334 308.91 144.839 312.904 139.953 312.904C134.131 312.904 131.324 305.359 131.324 296.372C131.324 286.386 135.067 278.73 140.577 278.73C144.527 278.73 147.127 282.059 147.75 286.83H149.518V287.717H142.136V286.83H144.216C144.216 283.945 143.696 279.618 140.577 279.618C136.418 279.618 135.691 286.83 135.483 294.042C136.418 292.488 138.186 291.712 139.745 291.712C142.968 291.712 144.839 294.486 144.839 297.038H138.29V296.15H139.745C141.513 296.15 141.928 295.595 141.928 294.486C141.928 293.598 141.409 292.599 139.745 292.599C138.498 292.599 135.483 293.487 135.483 297.038C135.483 303.584 135.691 312.017 139.849 312.017C143.28 312.017 144.112 308.688 144.112 302.363H141.824V301.476H149.83V302.363H147.958Z" fill="#C5AA79"/>
<path d="M160.434 282.613C161.058 283.168 161.369 283.834 161.369 284.61C161.369 285.942 160.538 286.94 159.29 286.94C157.939 286.94 157.003 285.942 157.003 284.61C157.003 282.946 158.147 281.837 160.018 281.837C162.201 281.837 163.969 283.501 163.969 286.053C163.969 288.05 162.929 289.603 161.785 291.934C157.107 301.587 157.211 302.03 156.899 303.251C156.795 303.695 156.275 305.137 156.275 306.469C156.275 308.799 157.419 311.129 159.186 311.573V312.46H149.934V311.462H153.988C153.364 310.574 152.117 308.91 152.117 306.691C152.117 303.917 154.3 299.922 156.691 297.148C160.122 293.265 163.241 289.049 163.241 285.72C163.241 284.278 162.409 282.835 160.434 282.613ZM161.058 280.172V279.285H170.518V280.172H167.607V311.462H170.518V312.349H161.058V311.462H163.969V280.172H161.058Z" fill="#C5AA79"/>
<path d="M181.956 312.349V311.462H184.866V292.599C184.866 295.484 179.98 298.702 176.549 298.813V300.699C177.693 300.81 178.525 301.92 178.525 303.029C178.525 304.25 177.693 305.248 176.549 305.359V306.358C176.549 309.686 177.381 311.24 179.668 311.24H180.188V312.128H171.871V311.462H172.287C174.886 311.462 175.614 309.576 175.614 306.58V305.581C174.574 305.359 173.846 304.472 173.846 303.251C173.846 302.031 174.574 301.143 175.614 300.921V299.035C173.742 298.924 172.495 297.703 172.495 295.373C172.495 292.488 174.99 290.824 177.797 289.271C180.604 287.717 183.619 286.497 183.619 283.723C183.619 282.28 183.307 280.505 180.916 280.283C181.54 280.838 181.852 281.504 181.852 282.28C181.852 283.612 181.02 284.61 179.668 284.61C178.317 284.61 177.381 283.612 177.381 282.28C177.381 280.616 178.525 279.396 180.396 279.396C183.411 279.396 184.763 281.837 184.763 284.499V279.285H191.312V280.172H188.401V311.462H191.312V312.349H181.956ZM184.866 284.389C184.866 287.162 183.307 289.271 178.837 291.934C177.485 292.71 175.822 294.042 175.822 296.039C175.822 296.927 176.342 297.592 177.277 297.592C180.916 297.592 184.866 294.375 184.866 290.491V284.389Z" fill="#C5AA79"/>
<path d="M30.6926 331.989C31.3163 332.544 31.6282 333.209 31.6282 333.986C31.6282 335.317 30.7965 336.316 29.445 336.316C28.0935 336.316 27.1578 335.317 27.1578 333.986C27.1578 332.322 28.3014 331.212 30.1727 331.212C32.356 331.212 34.0194 332.876 34.0194 335.428C34.0194 337.426 32.9797 338.979 31.8361 341.309C27.1578 350.962 27.2618 351.406 26.9499 352.627C26.8459 353.07 26.3261 354.513 26.3261 355.844C26.3261 358.174 27.4697 360.505 29.2371 360.948V361.836H19.9844V360.948H24.1429C23.5191 360.061 22.2716 358.396 22.2716 356.177C22.2716 353.403 24.2469 349.631 26.8459 346.635C29.9648 342.973 33.3956 338.535 33.3956 335.207C33.3956 333.653 32.5639 332.211 30.6926 331.989ZM31.2124 329.548V328.66H40.673V329.548H37.762V351.406H37.866L45.4553 334.985V329.437H42.5443V328.549H52.0049V329.437H49.094V360.726H52.0049V361.614H42.5443V360.726H45.4553V336.871L37.866 353.514V360.726H40.777V361.614H31.3163V360.726H34.2273V329.437H31.2124V329.548Z" fill="#C5AA79"/>
<path d="M64.6874 361.725V360.837H67.5984V340.976L59.9051 348.077V360.726H62.8161V361.614H53.3555V360.726H56.2664V329.437H53.3555V328.549H62.8161V329.437H59.9051V346.968L67.5984 339.867V329.548H64.6874V328.66H74.148V329.548H71.2371V360.837H74.148V361.725H64.6874Z" fill="#C5AA79"/>
<path d="M77.4741 329.548H74.979V328.66H84.4396V329.548H81.5286L85.2713 339.645L87.0386 333.764C88.1822 329.77 90.2615 328.105 92.7566 328.105C93.2764 328.105 93.9002 328.327 94.524 328.66V336.538H94.0041C93.6923 333.764 92.5487 332.1 90.7813 332.1C89.2219 332.1 87.8703 333.542 87.2466 335.539L85.6871 340.865L93.0685 360.837H95.2517V361.725H85.7911V360.837H89.0139L83.8158 346.857L82.8801 350.296C83.6079 350.74 84.1277 351.517 84.1277 352.405C84.1277 353.736 82.9841 354.846 81.7365 354.846H81.6326L81.2167 356.177C80.9048 357.287 80.8009 358.174 80.8009 359.173C80.8009 360.061 81.4247 360.948 82.8801 360.948H83.5039V361.836H74.875V360.948C77.4741 360.948 79.2414 359.395 80.2811 355.955C80.2811 355.955 80.6969 354.624 80.6969 354.735C79.9692 354.291 79.4494 353.514 79.4494 352.516C79.4494 351.184 80.385 350.075 81.7365 350.075C81.8405 350.075 82.0484 350.075 82.1524 350.075L83.3999 345.636L77.4741 329.548Z" fill="#C5AA79"/>
<path d="M105.444 361.725V360.838H108.355V341.975C108.355 344.86 103.468 348.078 100.038 348.189V350.075C101.181 350.186 102.013 351.295 102.013 352.405C102.013 353.625 101.181 354.624 100.038 354.735V355.734C100.038 359.062 100.869 360.616 103.157 360.616H103.676V361.503H95.3594V360.616H95.8792C98.4783 360.616 99.206 358.729 99.206 355.734V354.735C98.1664 354.513 97.4386 353.625 97.4386 352.405C97.4386 351.184 98.1664 350.297 99.206 350.075V348.189C97.3347 348.078 96.0871 346.857 96.0871 344.527C96.0871 341.642 98.5822 339.978 101.389 338.424C104.196 336.871 107.211 335.651 107.211 332.877C107.211 331.434 106.899 329.659 104.508 329.437C105.132 329.992 105.444 330.658 105.444 331.434C105.444 332.766 104.612 333.764 103.261 333.764C101.909 333.764 100.973 332.766 100.973 331.434C100.973 329.77 102.117 328.66 103.988 328.66C107.003 328.66 108.355 331.101 108.355 333.764V328.66H114.904V329.548H111.993V360.838H114.904V361.725H105.444ZM108.251 333.764C108.251 336.538 106.691 338.646 102.221 341.309C100.973 342.086 99.206 343.418 99.206 345.415C99.206 346.302 99.7258 346.968 100.661 346.968C104.3 346.968 108.251 343.75 108.251 339.867V333.764Z" fill="#C5AA79"/>
<path d="M127.48 361.725V360.837H130.391V340.976L122.698 348.077V360.726H125.609V361.614H116.148V360.726H119.059V329.437H116.148V328.549H125.609V329.437H122.698V346.968L130.391 339.867V329.548H127.48V328.66H136.941V329.548H134.03V360.837H136.941V361.725H127.48Z" fill="#C5AA79"/>
<path d="M148.378 331.989C149.001 332.544 149.313 333.21 149.313 333.986C149.313 335.318 148.378 336.316 147.13 336.316C145.779 336.316 144.843 335.318 144.843 333.986C144.843 332.322 145.986 331.212 147.858 331.212C150.041 331.212 151.808 332.877 151.808 335.429C151.808 337.426 150.769 338.979 149.625 341.309C144.947 350.962 145.051 351.406 144.739 352.627C144.635 353.071 144.115 354.513 144.115 355.845C144.115 358.175 145.259 360.505 147.026 360.949V361.836H137.773V360.949H141.828C141.204 360.061 139.957 358.397 139.957 356.177C139.957 353.404 142.14 349.409 144.531 346.635C147.962 342.752 151.081 338.535 151.081 335.207C151.185 333.653 150.249 332.211 148.378 331.989ZM149.001 329.548V328.66H158.462V329.548H155.551V360.838H158.462V361.725H149.001V360.838H151.912V329.548H149.001Z" fill="#C5AA79"/>
<path d="M169.901 361.725V360.838H172.812V341.975C172.812 344.86 167.926 348.078 164.495 348.189V350.075C165.638 350.186 166.47 351.295 166.47 352.405C166.47 353.625 165.638 354.624 164.495 354.735V355.734C164.495 359.062 165.326 360.616 167.614 360.616H168.133V361.503H159.816V360.616H160.232C162.727 360.616 163.559 358.729 163.559 355.734V354.735C162.519 354.513 161.792 353.625 161.792 352.405C161.792 351.184 162.519 350.297 163.559 350.075V348.189C161.688 348.078 160.44 346.857 160.44 344.527C160.44 341.642 162.935 339.978 165.742 338.424C168.549 336.871 171.564 335.651 171.564 332.877C171.564 331.434 171.252 329.659 168.861 329.437C169.485 329.992 169.797 330.658 169.797 331.434C169.797 332.766 168.965 333.764 167.614 333.764C166.262 333.764 165.326 332.766 165.326 331.434C165.326 329.77 166.47 328.66 168.341 328.66C171.356 328.66 172.708 331.101 172.708 333.764V328.66H179.257V329.548H176.346V360.838H179.257V361.725H169.901ZM172.812 333.764C172.812 336.538 171.252 338.646 166.678 341.309C165.43 342.086 163.663 343.418 163.663 345.415C163.663 346.302 164.183 346.968 165.119 346.968C168.757 346.968 172.708 343.75 172.708 339.867V333.764H172.812Z" fill="#C5AA79"/>
<path d="M98.1469 5.93046C97.7589 5.51531 97.3708 5.47757 97.018 5.85498C96.8416 6.04368 96.5946 6.30787 96.1007 9.10068C95.4304 12.7993 93.0667 25.1783 90.4207 28.122C90.1738 28.3862 89.9268 28.4994 89.6093 28.4994C88.8684 28.4994 88.1275 27.7446 87.4925 27.0276C87.175 26.6879 86.8575 26.2727 86.54 25.8953C86.293 25.5934 86.0461 25.2915 85.8344 25.0273C85.3757 24.4612 85.1993 23.5554 85.0229 22.7628C84.8818 22.159 84.776 21.5929 84.5643 21.3664C84.3879 21.1777 84.141 21.1023 83.8587 21.14C83.5765 21.1777 83.2942 21.3287 83.0826 21.5929C82.4828 22.2722 82.2711 22.7251 82.3064 23.7818V23.8573C82.4123 25.8198 82.5534 26.8388 81.495 28.0088C81.1422 28.424 79.7663 28.8768 78.1787 29.3675C76.7322 29.8204 75.1094 30.3487 74.7213 30.7639C74.3685 31.1413 74.1921 31.8206 74.1921 32.6887C74.1921 33.8209 74.5096 34.9531 74.9683 35.4815C77.0498 37.8214 81.4597 36.9156 83.0826 35.0663C84.2115 33.8209 84.9524 32.1603 84.9524 30.9149C84.9524 30.8394 84.9524 30.7639 84.9524 30.6129C84.9524 30.1223 85.0582 29.7449 85.2346 29.5562C85.3757 29.4052 85.5521 29.3297 85.7638 29.3297C86.54 29.3297 87.7395 30.1223 87.8453 30.2355C87.9511 30.3487 88.0217 30.5374 88.0217 30.7639C88.0217 33.368 79.8016 42.8032 79.6957 42.8787C79.2018 43.407 78.5315 43.5957 77.6495 43.3316C76.45 43.0296 69.253 42.6522 64.5255 47.9737C61.4915 51.3703 59.7628 55.8992 59.7628 60.3904C59.7628 62.1265 60.0097 63.5984 60.5389 64.957C59.2336 64.3532 57.7871 64.0135 56.0937 64.0135C51.9307 64.0135 47.6971 65.8628 44.522 69.1463C39.5828 74.2035 39.9356 81.9026 40.1826 83.2236C40.3943 84.1671 40.2532 84.8842 39.7592 85.4125C39.6887 85.488 30.8688 94.3194 28.4698 94.3194C28.2581 94.3194 28.0817 94.2439 27.9759 94.1307C27.87 94.0174 27.1291 92.7342 27.1291 91.9039C27.1291 91.6398 27.1997 91.4511 27.3408 91.3378C27.5525 91.1114 27.87 91.0359 28.3287 91.0359C28.4698 91.0359 28.5403 91.0359 28.6109 91.0359C29.7751 91.0359 31.3274 90.2434 32.4916 89.0357C34.2203 87.2618 35.0671 82.582 32.8797 80.3175C32.3858 79.8269 31.3274 79.4872 30.269 79.4872C29.4576 79.4872 28.8226 79.6759 28.4698 80.0533C28.0817 80.4308 27.5878 82.2046 27.1644 83.7519C26.6705 85.4503 26.2824 86.9222 25.8944 87.3373C24.8007 88.4695 23.8481 88.3186 22.0136 88.2054H21.943C20.9552 88.1676 20.4966 88.3941 19.8968 89.0357C19.6499 89.2621 19.5088 89.564 19.4735 89.8659C19.4382 90.1679 19.5088 90.4321 19.6852 90.6208C19.8968 90.8472 20.426 90.9604 20.9905 91.1114C21.7314 91.3001 22.5781 91.4888 23.1073 91.9794C23.319 92.2059 23.6012 92.4701 23.9187 92.7342C24.2715 93.0739 24.6596 93.4136 24.9771 93.7533C25.6474 94.4326 26.353 95.2629 26.353 96.0177C26.353 96.3574 26.2472 96.6215 26.0002 96.8857C23.2484 99.7163 11.712 102.245 8.25457 102.962C5.67916 103.49 5.39692 103.755 5.22053 103.943C4.86773 104.283 4.90301 104.736 5.29108 105.151C5.32636 105.151 5.46748 105.189 6.03196 105.189C9.4188 105.189 21.1316 103.943 29.0342 99.9805C29.4929 99.754 29.8457 99.6408 30.1985 99.6408C30.6571 99.6408 31.0099 99.8673 31.2921 100.094C31.398 100.169 31.4685 100.207 31.5744 100.282C36.443 103.339 44.0633 105.151 48.6497 105.151C49.8492 105.151 50.9429 105 51.5779 104.774C51.6485 102.924 51.7543 101.113 51.9307 99.3389C49.8139 99.037 47.3091 98.1689 45.404 96.2064C44.7689 95.5648 43.9575 94.3571 43.5694 93.0362C43.1461 91.4888 43.393 90.1679 44.3456 89.1866C46.7093 86.7712 50.6253 84.9974 55.3528 84.0916C56.3406 81.2988 57.8224 78.204 59.1277 75.6377C54.1886 76.6567 49.1436 78.9966 44.9806 81.9026C43.8164 82.6952 42.8286 82.8462 42.3346 82.3555C42.1582 82.2046 42.1582 80.8836 42.1582 80.8459C42.1582 79.0343 42.511 74.43 46.0743 70.8069C49.6375 67.146 53.8711 66.6176 56.0584 66.6176C58.7397 66.6176 61.2445 67.4102 62.444 68.6556C62.5851 68.8066 63.5024 69.8633 63.5377 70.0143C63.6082 69.9011 64.7725 68.8443 65.3017 68.4292C65.1253 68.3914 63.9963 67.2215 63.9963 67.2592C62.8674 65.976 62.1265 63.2964 62.1265 60.4281C62.1265 58.0505 62.6204 53.5216 66.0425 49.7098C69.4646 45.8979 73.7335 45.4828 75.4269 45.4828C75.4269 45.4828 76.6617 45.4828 76.8381 45.6715C77.2967 46.1999 77.1556 47.2566 76.4147 48.5021C73.7335 52.9555 71.8637 57.9372 70.9464 63.2587C73.3454 61.8623 75.8503 60.6546 78.4609 59.5978C79.3076 54.5028 80.9305 50.3136 83.1884 47.785C84.1057 46.766 85.3405 46.5018 86.7516 46.9547C88.0217 47.3698 89.1154 48.2379 89.7151 48.9172C91.5497 50.9929 92.3611 53.6348 92.6433 55.937C94.3015 55.7483 95.9949 55.5973 97.7236 55.5218C97.9353 54.8425 98.0764 53.6725 98.0764 52.3894C98.0764 47.4831 96.383 39.2933 93.5253 34.0851C93.4548 33.9719 93.4195 33.8964 93.3489 33.7832C93.1373 33.4435 92.9256 33.1038 92.9256 32.5754C92.9256 32.2358 93.0314 31.8206 93.2431 31.33C96.9474 22.8761 98.1117 10.3084 98.1117 6.68527C98.1822 6.11916 98.1469 5.93046 98.1469 5.93046ZM44.0633 97.8293C44.8395 98.6218 49.9903 101.226 50.0256 101.264C50.3431 101.566 50.3431 101.792 50.0609 102.056C49.7081 102.434 48.7202 102.585 47.1679 102.585C43.005 102.585 35.3493 101.188 33.3031 99.0747C33.1267 98.886 33.0208 98.6596 33.0208 98.4331C33.0208 98.2067 33.1267 97.9802 33.3031 97.7915C33.3384 97.7538 39.3712 92.5833 40.8176 92.5833C40.9587 92.5833 41.0646 92.621 41.1351 92.6965C41.3115 92.8852 41.4527 93.1116 41.5938 93.4136L41.6643 93.5645C42.4758 95.5271 42.8991 96.6215 44.0633 97.8293ZM95.7832 50.842C95.7832 52.5026 95.6068 53.5593 95.2893 53.9367C95.0424 54.2009 94.7954 54.2009 94.5484 53.899C94.5132 53.8612 92.0789 48.3133 91.3733 47.4831C90.2796 46.2376 89.2565 45.7847 87.3514 44.9544L87.2103 44.8789C86.9633 44.728 86.7164 44.577 86.54 44.3883C86.4694 44.3128 86.4341 44.1996 86.4341 44.0486C86.4341 42.5013 91.2321 36.0476 91.3027 35.9721C91.4791 35.7457 91.6908 35.6702 91.9025 35.6702C92.1141 35.6702 92.3258 35.7834 92.5022 35.9721C94.4779 38.1611 95.7832 46.3886 95.7832 50.842Z" fill="#C5AA79"/>
<path d="M106.791 31.368C107.002 31.8587 107.108 32.2361 107.108 32.6135C107.108 33.1041 106.897 33.4815 106.685 33.8212C106.614 33.9344 106.579 34.0099 106.508 34.1231C103.651 39.3313 101.957 47.5211 101.957 52.4274C101.957 53.7106 102.063 54.8805 102.31 55.5599C104.004 55.6353 105.697 55.7486 107.39 55.975C107.673 53.6728 108.484 51.031 110.319 48.9552C110.918 48.2759 112.012 47.4079 113.282 46.9927C114.729 46.5398 115.963 46.804 116.845 47.823C119.103 50.3516 120.761 54.5409 121.573 59.6359C124.184 60.6926 126.688 61.9003 129.087 63.2967C128.135 57.9753 126.3 52.9935 123.619 48.5401C122.878 47.2946 122.737 46.2379 123.196 45.7095C123.337 45.5208 124.572 45.5208 124.607 45.5208C126.3 45.5208 130.569 45.8982 133.991 49.7478C137.413 53.5596 137.907 58.0885 137.907 60.4662C137.907 63.3345 137.166 66.0141 136.002 67.2972C136.002 67.2972 134.662 68.354 134.52 68.3917C134.979 68.7314 136.073 69.7881 136.179 69.9768C136.179 69.9014 137.378 68.7691 137.484 68.6936C138.683 67.4482 141.188 66.6556 143.87 66.6556C146.057 66.6556 150.29 67.184 153.854 70.8449C157.417 74.5057 157.805 79.1101 157.77 80.8839C157.77 80.8839 157.77 82.2048 157.593 82.3935C157.099 82.8842 156.112 82.7332 154.947 81.9407C150.82 79.0346 146.057 77.1476 141.118 76.1663C142.423 78.7704 143.623 81.3745 144.61 84.1296C149.373 85.0354 153.254 86.7715 155.618 89.2246C156.57 90.2059 156.817 91.5268 156.394 93.0742C156.006 94.4329 155.194 95.6028 154.559 96.2444C152.619 98.2069 150.149 99.075 148.033 99.3769C148.209 101.151 148.35 102.962 148.385 104.812C149.02 105.038 150.114 105.189 151.314 105.189C155.9 105.189 163.52 103.377 168.389 100.32C168.495 100.245 168.565 100.207 168.671 100.132C168.989 99.9053 169.306 99.6788 169.765 99.6788C170.082 99.6788 170.47 99.792 170.929 100.018C178.832 104.019 190.544 105.227 193.931 105.227C194.496 105.227 194.672 105.189 194.672 105.189C195.06 104.774 195.096 104.359 194.743 103.981C194.566 103.793 194.319 103.528 191.709 103C188.251 102.283 176.715 99.7543 173.963 96.9238C173.716 96.6596 173.61 96.3954 173.61 96.0557C173.61 95.2632 174.316 94.4706 174.986 93.7913C175.304 93.4516 175.692 93.1119 176.045 92.7723C176.327 92.5081 176.609 92.2439 176.856 92.0174C177.385 91.5268 178.232 91.3381 178.973 91.1494C179.537 90.9984 180.066 90.8852 180.278 90.6588C180.454 90.4701 180.525 90.2059 180.49 89.904C180.454 89.602 180.313 89.3001 180.066 89.0737C179.431 88.4321 179.008 88.2056 178.02 88.2434H177.95C176.115 88.3566 175.163 88.5076 174.069 87.3753C173.681 86.9602 173.257 85.526 172.799 83.79C172.375 82.2426 171.882 80.5065 171.493 80.0914C171.141 79.714 170.506 79.5253 169.694 79.5253C168.636 79.5253 167.577 79.8649 167.084 80.3555C164.896 82.62 165.778 87.2998 167.472 89.0737C168.636 90.2814 170.188 91.0739 171.352 91.0739C171.423 91.0739 171.493 91.0739 171.635 91.0739C172.093 91.0739 172.411 91.1871 172.622 91.3759C172.764 91.5268 172.834 91.7155 172.834 91.942C172.834 92.7723 172.093 94.0554 171.987 94.1687C171.882 94.2819 171.705 94.3574 171.493 94.3574C169.059 94.3574 160.275 85.526 160.204 85.4506C159.71 84.9222 159.569 84.2051 159.781 83.2616C160.063 81.9407 160.416 74.2415 155.441 69.1843C152.266 65.9386 148.068 64.0515 143.87 64.0515C142.211 64.0515 140.8 64.3535 139.53 64.9196C140.024 63.5986 140.271 62.1268 140.271 60.4284C140.271 55.9373 138.542 51.4461 135.508 48.0117C130.781 42.6903 123.584 43.0677 122.384 43.3696C121.502 43.596 120.832 43.4451 120.338 42.9167C120.268 42.8412 112.012 33.406 112.012 30.8019C112.012 30.5755 112.083 30.3868 112.188 30.2735C112.294 30.1603 113.459 29.3678 114.27 29.3678C114.517 29.3678 114.693 29.4432 114.799 29.5942C115.011 29.8207 115.081 30.1603 115.081 30.6509C115.081 30.8019 115.081 30.8774 115.081 30.9529C115.081 32.1983 115.822 33.8589 116.951 35.1044C118.574 36.9537 122.984 37.8972 125.066 35.5195C125.524 34.9911 125.842 33.8589 125.842 32.7267C125.842 31.8587 125.665 31.1793 125.312 30.8019C124.96 30.3868 123.302 29.8584 121.855 29.4055C120.268 28.8771 118.892 28.462 118.539 28.0468C117.48 26.8769 117.622 25.8579 117.727 23.8953V23.8199C117.763 22.7631 117.551 22.2725 116.951 21.6309C116.74 21.3667 116.457 21.2158 116.175 21.178C115.893 21.1403 115.646 21.2158 115.469 21.4045C115.258 21.6309 115.152 22.197 115.011 22.8009C114.834 23.5934 114.658 24.4992 114.199 25.0653C113.988 25.2918 113.741 25.5937 113.494 25.9334C113.176 26.3108 112.859 26.7259 112.541 27.0656C111.906 27.7826 111.13 28.5375 110.424 28.5375C110.107 28.5375 109.86 28.3865 109.613 28.1601C106.967 25.2163 104.603 12.8373 103.933 9.13871C103.439 6.34589 103.192 6.08171 103.016 5.893C102.698 5.51559 102.275 5.55333 101.887 5.96848C101.887 6.00622 101.852 6.15719 101.852 6.76104C101.922 10.3464 103.086 22.9141 106.791 31.368ZM158.369 93.3761C158.511 93.1119 158.652 92.8477 158.828 92.659C158.899 92.5836 159.005 92.5458 159.146 92.5458C160.592 92.5458 166.625 97.6786 166.66 97.754C166.872 97.9427 166.942 98.1692 166.942 98.3956C166.942 98.6221 166.837 98.8485 166.66 99.0372C164.579 101.151 156.923 102.547 152.795 102.547C151.243 102.547 150.255 102.358 149.902 102.019C149.655 101.755 149.655 101.49 149.938 101.226C149.973 101.188 155.159 98.5843 155.9 97.7918C157.064 96.5841 157.487 95.4896 158.264 93.4893L158.369 93.3761ZM108.237 35.6327C108.449 35.6327 108.661 35.746 108.837 35.9347C108.872 35.9724 113.705 42.4638 113.705 44.0112C113.705 44.1621 113.67 44.2754 113.6 44.3508C113.423 44.5396 113.212 44.6905 112.929 44.8415L112.788 44.917C110.918 45.7095 109.895 46.2001 108.766 47.4456C108.025 48.2759 105.591 53.786 105.591 53.8615C105.309 54.2012 105.097 54.2012 104.85 53.8993C104.498 53.5219 104.356 52.4651 104.356 50.8045C104.356 46.3511 105.662 38.1236 107.637 35.9347C107.779 35.746 107.99 35.6327 108.237 35.6327Z" fill="#C5AA79"/>
<path d="M93.3135 183.048C93.1019 182.557 92.996 182.18 92.996 181.802C92.996 181.312 93.2077 180.934 93.4194 180.595C93.4899 180.481 93.5252 180.406 93.5958 180.293C96.4534 175.085 98.1468 166.895 98.1468 161.989C98.1468 160.705 98.041 159.611 97.794 158.932C96.1006 158.856 94.4072 158.667 92.7138 158.441C92.4315 160.743 91.6201 163.385 89.7856 165.461C89.1858 166.14 88.0922 167.008 86.8221 167.423C85.3756 167.876 84.1408 167.612 83.2589 166.593C81.001 164.064 79.3428 159.875 78.5314 154.78C75.9207 153.723 73.4158 152.516 71.0168 151.119C71.9694 156.441 73.8039 161.422 76.4852 165.876C77.226 167.121 77.3672 168.178 76.9085 168.706C76.7674 168.895 75.5326 168.895 75.4973 168.895C73.8039 168.895 69.5351 168.518 66.113 164.668C62.6908 160.856 62.1969 156.327 62.1969 153.95C62.1969 151.081 62.9378 148.402 64.102 147.119C64.2432 146.968 65.3015 145.873 65.4779 145.873C65.0193 145.496 64.5254 145.118 64.0668 144.741C63.9609 144.552 63.8198 144.401 63.714 144.213C63.6787 144.401 62.6556 145.534 62.5145 145.684C61.3149 146.93 58.8101 147.722 56.1288 147.722C53.9415 147.722 49.708 147.194 46.1447 143.533C42.5815 139.872 42.1934 135.268 42.2287 133.494C42.2287 133.494 42.2287 132.173 42.4051 131.985C42.899 131.494 43.8868 131.645 45.0511 132.437C49.1788 135.344 54.2238 137.683 59.1982 138.702C57.8928 136.098 56.3758 133.041 55.4233 130.249C50.6605 129.343 46.7798 127.607 44.416 125.154C43.4635 124.172 43.2165 122.851 43.6399 121.304C44.0279 119.945 44.8394 118.775 45.4744 118.134C47.4148 116.171 49.8844 115.303 52.0011 115.001C51.8247 113.227 51.6836 111.416 51.6483 109.567C51.0133 109.34 49.9196 109.189 48.7201 109.189C44.1338 109.189 36.5134 111.001 31.6448 114.058C31.539 114.133 31.4684 114.171 31.3626 114.246C31.0451 114.473 30.7275 114.699 30.2689 114.699C29.9514 114.699 29.5633 114.586 29.1047 114.36C21.1668 110.435 9.45395 109.189 6.06711 109.189C5.50264 109.189 5.32624 109.227 5.32624 109.227C4.93817 109.642 4.90289 110.057 5.25568 110.435C5.43208 110.623 5.67904 110.888 8.28973 111.416C11.7471 112.133 23.2836 114.662 26.0354 117.492C26.2823 117.756 26.3882 118.021 26.3882 118.36C26.3882 119.153 25.6826 119.945 25.0123 120.625C24.6947 120.964 24.3067 121.304 23.9539 121.644C23.6716 121.908 23.3894 122.172 23.1424 122.398C22.6132 122.889 21.7665 123.078 21.0257 123.266C20.4612 123.417 19.932 123.531 19.7203 123.757C19.5439 123.946 19.4734 124.21 19.5086 124.512C19.5439 124.814 19.685 125.116 19.932 125.342C20.567 125.984 20.9904 126.21 21.9782 126.173H22.0488C23.8833 126.059 24.8359 125.908 25.9295 127.041C26.3176 127.456 26.7409 128.928 27.1996 130.626C27.6229 132.173 28.1169 133.909 28.5049 134.325C28.8577 134.702 29.4928 134.891 30.3042 134.891C31.3626 134.891 32.421 134.551 32.9149 134.06C35.1022 131.796 34.2202 127.116 32.5268 125.342C31.3626 124.135 29.8103 123.342 28.646 123.342C28.5755 123.342 28.5049 123.342 28.3638 123.342C27.9052 123.342 27.5877 123.229 27.376 123.04C27.2349 122.889 27.1643 122.7 27.1643 122.474C27.1643 121.644 27.9052 120.36 28.011 120.247C28.1169 120.134 28.2933 120.059 28.5049 120.059C30.9392 120.059 39.7238 128.89 39.7944 128.965C40.2883 129.494 40.4294 130.211 40.2178 131.154C39.9355 132.475 39.5827 140.174 44.5571 145.232C47.7323 148.477 51.9306 150.364 56.1288 150.364C57.8576 150.364 59.304 150.025 60.6094 149.421C60.0802 150.779 59.7979 152.289 59.7979 154.063C59.7979 158.554 61.5266 163.045 64.5607 166.48C69.2881 171.801 76.4852 171.424 77.6847 171.122C78.5667 170.895 79.237 171.046 79.7309 171.575C79.8015 171.65 88.0569 181.085 88.0569 183.689C88.0569 183.916 87.9863 184.105 87.8805 184.218C87.7746 184.331 86.6104 185.124 85.799 185.124C85.552 185.124 85.3756 185.048 85.2698 184.897C85.0581 184.671 84.9875 184.331 84.9875 183.84C84.9875 183.689 84.9875 183.614 84.9875 183.538C84.9875 182.293 84.2467 180.632 83.1177 179.387C81.4949 177.538 77.0849 176.594 75.0034 178.972C74.5448 179.5 74.2273 180.632 74.2273 181.765C74.2273 182.633 74.4037 183.312 74.7565 183.689C75.1093 184.105 76.7674 184.633 78.2139 185.086C79.8015 185.614 81.1774 186.029 81.5302 186.445C82.5885 187.614 82.4474 188.633 82.3416 190.596V190.672C82.3063 191.728 82.518 192.219 83.1177 192.86C83.3294 193.125 83.6116 193.276 83.8939 193.313C84.1761 193.351 84.4231 193.276 84.5995 193.087C84.8112 192.86 84.917 192.294 85.0581 191.69C85.2345 190.898 85.4109 189.992 85.8695 189.426C86.0812 189.2 86.3282 188.898 86.5751 188.558C86.8926 188.181 87.2102 187.765 87.5277 187.426C88.1627 186.709 88.9389 185.954 89.6445 185.954C89.962 185.954 90.2089 186.105 90.4559 186.331C93.1019 189.275 95.4656 201.654 96.1359 205.353C96.6298 208.145 96.8768 208.41 97.0532 208.598C97.3707 208.976 97.794 208.938 98.1821 208.523C98.1821 208.485 98.2174 208.334 98.2174 207.73C98.1821 204.069 97.0179 191.502 93.3135 183.048ZM41.6289 121.002C41.4878 121.266 41.3467 121.53 41.1703 121.719C41.0997 121.795 40.9939 121.832 40.8528 121.832C39.4063 121.832 33.3735 116.7 33.3382 116.624C33.1266 116.435 33.056 116.209 33.056 115.983C33.056 115.756 33.1618 115.53 33.3382 115.341C35.4197 113.227 43.0754 111.831 47.2031 111.831C48.7554 111.831 49.7432 112.02 50.096 112.359C50.343 112.624 50.343 112.888 50.0608 113.152C50.0255 113.19 44.8394 115.794 44.0985 116.586C42.9343 117.794 42.5109 118.889 41.7348 120.889L41.6289 121.002ZM91.8671 178.783C91.6554 178.783 91.4437 178.67 91.2673 178.481C91.232 178.443 86.3987 171.952 86.3987 170.405C86.3987 170.254 86.434 170.141 86.5046 170.065C86.681 169.876 86.8926 169.725 87.1749 169.574L87.316 169.499C89.1858 168.706 90.2089 168.216 91.3379 166.97C92.0787 166.14 94.513 160.63 94.513 160.554C94.7953 160.215 95.007 160.215 95.2539 160.517C95.6067 160.894 95.7478 161.951 95.7478 163.611C95.7478 168.065 94.4425 176.292 92.4668 178.481C92.2904 178.67 92.0787 178.783 91.8671 178.783Z" fill="#C5AA79"/>
<path d="M194.707 109.227C194.672 109.227 194.531 109.189 193.966 109.189C190.579 109.189 178.867 110.435 170.964 114.397C170.505 114.624 170.153 114.737 169.8 114.737C169.341 114.737 168.988 114.511 168.706 114.284C168.6 114.209 168.53 114.171 168.424 114.095C163.555 111.038 155.935 109.227 151.349 109.227C150.149 109.227 149.055 109.378 148.42 109.604C148.35 111.454 148.244 113.265 148.068 115.039C150.184 115.341 152.689 116.209 154.594 118.171C155.229 118.813 156.041 120.021 156.429 121.342C156.852 122.889 156.605 124.21 155.653 125.191C153.289 127.607 149.373 129.38 144.645 130.286C143.658 133.079 142.176 135.759 140.871 138.363C145.81 137.344 150.855 135.381 155.018 132.513C156.182 131.72 157.17 131.569 157.664 132.06C157.84 132.211 157.84 133.532 157.84 133.57C157.84 135.381 157.487 139.986 153.924 143.609C150.361 147.27 146.127 147.798 143.94 147.798C141.259 147.798 138.754 147.005 137.554 145.76C137.484 145.685 136.39 144.364 136.355 144.288C136.214 144.515 135.085 145.609 134.697 145.911C134.838 145.949 136.073 147.156 136.073 147.194C137.237 148.477 137.978 151.157 137.978 154.025C137.978 156.403 137.484 160.932 134.062 164.744C130.604 168.555 126.3 168.933 124.607 168.933C124.607 168.933 123.372 168.933 123.195 168.744C122.737 168.216 122.878 167.159 123.619 165.914C126.3 161.46 128.17 156.478 129.087 151.157C126.688 152.553 124.183 153.761 121.573 154.818C120.726 159.913 119.103 164.102 116.845 166.631C115.928 167.65 114.693 167.914 113.282 167.461C112.012 167.046 110.918 166.178 110.318 165.498C108.484 163.423 107.672 160.781 107.39 158.479C105.732 158.667 104.039 158.894 102.31 158.969C102.098 159.649 101.957 160.743 101.957 162.026C101.957 166.933 103.651 175.122 106.508 180.331C106.579 180.444 106.614 180.519 106.685 180.632C106.896 180.972 107.108 181.312 107.108 181.84C107.108 182.18 107.002 182.595 106.79 183.086C103.086 191.54 101.922 204.107 101.922 207.73C101.922 208.334 101.957 208.523 101.957 208.523C102.345 208.938 102.733 208.976 103.086 208.598C103.263 208.41 103.509 208.145 104.003 205.353C104.674 201.654 107.037 189.275 109.683 186.331C109.93 186.067 110.177 185.954 110.495 185.954C111.236 185.954 111.977 186.709 112.612 187.426C112.929 187.765 113.247 188.181 113.564 188.558C113.811 188.86 114.058 189.162 114.27 189.426C114.728 189.992 114.905 190.898 115.081 191.69C115.222 192.294 115.328 192.86 115.54 193.087C115.716 193.276 115.963 193.351 116.245 193.313C116.528 193.276 116.81 193.125 117.022 192.86C117.621 192.181 117.833 191.728 117.798 190.672V190.596C117.692 188.633 117.551 187.614 118.609 186.445C118.962 186.029 120.338 185.576 121.925 185.086C123.372 184.633 124.995 184.105 125.383 183.689C125.736 183.312 125.912 182.633 125.912 181.765C125.912 180.632 125.594 179.5 125.136 178.972C123.054 176.632 118.644 177.538 117.022 179.387C115.893 180.632 115.152 182.293 115.152 183.538C115.152 183.614 115.152 183.689 115.152 183.84C115.152 184.331 115.046 184.708 114.869 184.897C114.728 185.048 114.552 185.124 114.34 185.124C113.564 185.124 112.365 184.331 112.259 184.218C112.153 184.105 112.082 183.916 112.082 183.689C112.082 181.085 120.303 171.65 120.408 171.575C120.902 171.046 121.573 170.858 122.455 171.122C123.654 171.424 130.851 171.801 135.579 166.48C138.613 163.083 140.341 158.554 140.341 154.063C140.341 152.327 140.059 150.817 139.565 149.459C140.871 150.062 142.282 150.364 143.94 150.364C148.103 150.364 152.336 148.515 155.512 145.232C160.451 140.174 160.098 132.475 159.851 131.154C159.639 130.211 159.78 129.494 160.274 128.965C160.345 128.89 169.165 120.059 171.564 120.059C171.775 120.059 171.952 120.134 172.058 120.247C172.164 120.36 172.904 121.644 172.904 122.474C172.904 122.738 172.834 122.927 172.693 123.04C172.481 123.266 172.164 123.342 171.705 123.342C171.564 123.342 171.493 123.342 171.423 123.342C170.258 123.342 168.706 124.135 167.542 125.342C165.813 127.116 164.967 131.796 167.154 134.06C167.648 134.551 168.706 134.891 169.765 134.891C170.576 134.891 171.211 134.702 171.564 134.325C171.952 133.947 172.446 132.173 172.869 130.626C173.363 128.928 173.751 127.456 174.139 127.041C175.233 125.908 176.185 126.059 178.02 126.173H178.091C179.078 126.21 179.537 125.984 180.137 125.342C180.384 125.116 180.525 124.814 180.56 124.512C180.595 124.21 180.525 123.946 180.348 123.757C180.137 123.531 179.608 123.417 179.043 123.266C178.302 123.078 177.455 122.889 176.926 122.398C176.715 122.172 176.432 121.908 176.115 121.644C175.762 121.304 175.374 120.964 175.056 120.625C174.386 119.945 173.681 119.115 173.681 118.36C173.681 118.021 173.786 117.756 174.033 117.492C176.785 114.662 188.322 112.133 191.779 111.416C194.354 110.888 194.637 110.623 194.813 110.435C195.131 110.057 195.095 109.604 194.707 109.227ZM108.837 178.481C108.66 178.708 108.449 178.783 108.237 178.783C108.025 178.783 107.814 178.67 107.637 178.481C105.662 176.255 104.356 168.065 104.356 163.611C104.356 161.951 104.533 160.894 104.85 160.517C105.097 160.252 105.344 160.252 105.591 160.554C105.626 160.592 108.061 166.14 108.766 166.97C109.86 168.216 110.883 168.669 112.788 169.499L112.929 169.574C113.176 169.725 113.423 169.876 113.599 170.065C113.67 170.141 113.705 170.254 113.705 170.405C113.705 171.952 108.872 178.406 108.837 178.481ZM166.695 116.624C166.66 116.662 160.627 121.832 159.181 121.832C159.04 121.832 158.934 121.795 158.863 121.719C158.687 121.53 158.546 121.304 158.405 121.002L158.334 120.851C157.593 118.851 157.134 117.756 155.97 116.549C155.194 115.756 150.043 113.152 150.008 113.114C149.69 112.812 149.69 112.586 149.973 112.322C150.325 111.944 151.313 111.793 152.866 111.793C157.029 111.793 164.684 113.19 166.73 115.303C166.907 115.492 167.013 115.718 167.013 115.945C166.977 116.171 166.872 116.398 166.695 116.624Z" fill="#C5AA79"/>
<path d="M94.8338 97.7916C94.869 97.7916 94.869 97.7539 94.9396 97.7161C95.116 97.5274 95.2218 97.2255 95.2924 97.0368C95.2218 97.0368 95.116 97.0745 95.0454 97.0745C94.6221 97.0745 94.234 96.8481 94.0223 96.5084C93.7048 96.6594 92.9286 97.0368 93.2814 98.32V98.3577V98.3955L94.8338 97.7916Z" fill="#C5AA79"/>
<path d="M104.709 79.8269C104.85 79.8647 104.992 79.8647 105.168 79.8647C105.521 79.8647 105.838 79.7892 106.085 79.676C106.932 79.4118 107.708 79.2608 108.343 79.2985C107.779 77.7134 106.403 77.5247 105.803 77.5247C105.344 77.5247 104.992 77.6379 104.815 77.7512C104.745 77.7889 104.674 77.8644 104.603 77.9021C104.18 78.2041 103.58 78.6192 102.945 78.8079C103.263 78.9211 103.369 78.9589 103.369 78.9589C103.827 79.1476 104.286 79.4495 104.709 79.8269Z" fill="#C5AA79"/>
<path d="M94.3395 81.6387C94.4453 81.45 94.5159 81.299 94.6217 81.148C94.6923 81.0348 94.7981 80.9216 94.8687 80.8084C94.4806 80.8839 94.0925 80.8839 93.7045 80.9216C93.2105 80.9216 92.6813 80.9593 92.1874 81.148C91.4465 81.4122 91.1996 82.3557 91.0938 82.9596C91.4818 82.6199 91.9757 82.3935 92.5049 82.318C93.2458 82.2048 93.8456 81.9783 94.3395 81.6387Z" fill="#C5AA79"/>
<path d="M109.543 78.0154C109.543 78.0154 109.402 77.9399 109.225 77.8267C109.155 77.7889 109.084 77.7889 109.013 77.7512H108.978L108.943 77.7134C108.343 76.0906 107.461 75.0338 106.332 74.5055H106.297V74.4677C106.226 74.43 106.121 74.3922 106.05 74.3545H106.015C105.979 74.3545 105.944 74.3168 105.944 74.3168C105.838 74.279 105.768 74.2413 105.732 74.2413L105.697 74.2035L105.627 74.1658L105.168 73.8261C104.18 73.1091 103.228 72.7317 102.346 72.7317C101.781 72.7317 101.252 72.8826 100.652 73.1845L100.582 73.2223L100.335 73.3733L99.9819 73.26C99.6997 73.1845 99.4174 73.1468 99.1352 73.1468C98.3943 73.1468 97.3359 73.411 96.4187 74.6564L96.3834 74.6942L95.9953 74.8451C95.6072 75.1093 94.5841 75.9019 93.9844 77.1851C94.0549 77.1851 94.0902 77.1851 94.1608 77.1851C94.1961 77.1473 94.1961 77.1096 94.2313 77.0719C94.2313 77.0341 95.9248 74.6564 99.3116 74.0526C99.3116 74.0526 99.735 73.9394 100.405 73.9394C101.64 73.9394 104.039 74.279 106.368 76.4303C106.473 76.5435 106.544 76.619 106.579 76.6567C108.767 76.8831 109.507 79.0344 109.613 79.4118C109.684 79.4495 109.719 79.4495 109.79 79.4873C111.06 80.0156 111.589 81.2233 111.801 82.2801C111.73 80.393 110.672 78.7324 109.543 78.0154Z" fill="#C5AA79"/>
<path d="M95.2557 95.5272C95.1145 95.5272 95.0087 95.4894 94.9029 95.4517C94.797 95.6404 94.6559 96.0178 94.9029 96.3197C94.9734 96.3952 95.0793 96.4707 95.2557 96.4707C95.3968 96.4707 95.7496 96.3952 95.8554 95.8668C95.8907 95.6404 95.8907 95.4517 95.8907 95.3385C95.7143 95.4517 95.5026 95.5272 95.2557 95.5272Z" fill="#C5AA79"/>
<path d="M112.436 89.1113C113.106 88.5829 113.494 88.0545 113.529 87.4507C113.6 86.6958 113.353 86.092 113.353 86.092L113.283 86.0165L113.353 85.941C115.011 83.6388 114.094 80.997 113.6 80.0912L113.529 80.0157C113.459 79.9402 113.388 79.827 113.283 79.7515L113.247 79.7138V79.6761C112.859 78.0909 111.624 76.5058 110.213 75.751L109.86 75.5246V75.4868L109.472 74.7697L109.437 74.732C108.767 73.5243 107.991 72.694 107.038 72.2034H107.003V72.1656C107.003 72.1656 107.003 72.1656 107.003 72.1279C106.897 72.0524 106.685 71.9392 106.403 71.8637H106.368C106.332 71.8637 106.297 71.826 106.262 71.826C106.156 71.7882 106.086 71.7882 106.05 71.7505C105.98 71.7505 105.98 71.7127 105.98 71.7127H105.944L105.133 71.2976H105.204C104.18 70.6937 103.157 70.3918 102.169 70.3918C101.182 70.3918 100.511 70.6937 100.194 70.8824L100.159 70.9202L100.123 70.9579L100.088 70.9202L100.053 70.8824L99.9469 70.9957V70.8824C99.7352 70.807 99.2765 70.6937 98.6415 70.6937C97.9006 70.6937 96.807 70.8824 95.8191 71.9014L95.7839 71.9392H95.7486C95.4663 72.0147 95.2547 72.1279 95.1136 72.2034L94.9724 72.2789C94.1257 72.8072 93.1379 73.562 92.5381 74.6943V74.732H92.5029C92.4676 74.7697 92.4323 74.8075 92.397 74.883C92.2206 75.1849 92.1501 75.4113 92.1148 75.6L92.0795 75.7133C92.0795 75.7888 92.0442 75.8265 92.0442 75.8642V75.902L91.762 76.2039L91.5503 76.4681C90.1391 77.7135 89.998 80.1289 89.998 80.2044V80.3176L89.6805 80.3554C89.2219 81.1857 88.7985 83.2992 89.3277 85.6768C89.2571 84.922 89.3983 84.2427 89.7158 83.6766C89.7158 83.3369 89.5747 82.4311 89.7511 81.865C89.998 81.0725 90.1039 80.4686 90.7036 80.2044C90.8447 79.5251 91.3739 77.5626 92.8557 77.1474C93.0673 76.0529 93.7376 74.6565 95.7133 74.0904C96.2072 73.1469 97.1245 72.0147 98.5709 72.0147C99.1001 72.0147 99.6999 72.2034 100.335 72.5053C100.794 72.1279 101.64 71.5618 102.769 71.5618C103.969 71.5618 105.168 72.2034 106.262 73.4866C107.109 73.5243 109.578 73.9772 110.072 77.4116C110.672 77.5248 111.483 77.9777 112.118 78.808C112.718 79.6006 113.318 80.9592 112.789 83.035L112.753 83.1482L112.577 83.1105C112.648 83.8653 112.401 84.5824 112.365 84.7711L112.401 84.8088C113 85.6391 113.318 87.4507 112.436 89.1113Z" fill="#C5AA79"/>
<path d="M107.814 82.9972C107.99 83.0349 108.166 83.0727 108.343 83.0727C109.119 83.1859 110.036 83.3369 110.848 83.903C110.777 82.9217 110.636 82.3933 110.53 81.7895C110.424 81.2611 109.331 80.3176 107.708 80.3176C107.32 80.3176 106.967 80.3553 106.579 80.4686C106.12 80.5818 105.662 80.6195 105.273 80.5818C105.485 80.846 105.732 81.1479 105.908 81.4498C106.755 82.3933 107.461 82.9217 107.814 82.9972Z" fill="#C5AA79"/>
<path d="M106.863 83.5633C107.322 84.8843 108.38 85.2617 108.38 85.2617C110.074 85.941 110.956 86.7336 111.097 87.7148C111.167 87.6393 111.203 87.6016 111.273 87.5261L111.309 87.4506C111.52 87.111 111.661 86.6203 111.45 85.9033C110.956 84.2427 109.227 83.9407 108.239 83.9407C107.886 83.903 107.357 83.8275 106.863 83.5633Z" fill="#C5AA79"/>
<path d="M75.8539 98.6622C75.8539 98.6622 75.8164 98.6622 75.8164 98.6219C75.8164 98.6219 75.8164 98.6622 75.8539 98.6622Z" fill="#C5AA79"/>
<path d="M71.0879 86.2429C71.1232 86.2429 71.1232 86.2429 71.0879 86.2429C71.0879 86.2429 70.8762 86.4316 70.5234 86.7713C70.8762 86.4316 71.0879 86.2429 71.0879 86.2429Z" fill="#C5AA79"/>
<path d="M68.7942 88.5074C68.6884 88.6206 68.5472 88.7715 68.4414 88.9225C68.5825 88.7715 68.6884 88.6206 68.7942 88.5074Z" fill="#C5AA79"/>
<path d="M73.5232 88.545C73.3821 88.8092 72.994 89.2999 72.4648 89.866C72.9588 89.2999 73.3468 88.8092 73.5232 88.545Z" fill="#C5AA79"/>
<path d="M95.0441 92.3192C95.1147 92.4324 95.1499 92.3947 95.0794 92.3192C95.1499 92.4324 95.1147 92.4324 95.0441 92.3192C94.656 91.6021 94.4444 90.6963 94.268 89.7528C94.268 89.715 94.3032 89.6773 94.3032 89.6396C94.3032 89.6773 94.3032 89.715 94.268 89.7528C94.1974 90.017 94.0916 90.3566 93.9504 90.8473C93.6682 91.6398 94.1974 92.4324 94.6207 92.8853C95.1499 93.4137 95.538 93.7533 95.8202 93.9798C95.5027 93.4137 95.2558 92.8853 95.0441 92.3192Z" fill="#C5AA79"/>
<path d="M93.8811 88.9981C93.6341 87.1865 93.7047 85.4882 93.7047 85.4504C93.7047 85.4127 93.7047 85.4127 93.7047 85.375C93.4224 86.1298 92.5404 86.6582 92.0818 87.413C91.729 88.0168 92.1524 89.451 92.1524 89.4887C92.611 89.9793 93.0696 90.3568 93.246 90.5077C93.4224 89.9039 93.7047 89.451 93.8811 88.9981Z" fill="#C5AA79"/>
<path d="M104.851 76.8454C105.203 76.6944 105.45 76.6944 105.733 76.6944C105.38 76.317 104.11 75.1093 102.064 74.6941C102.064 74.6941 101.393 74.5054 100.476 74.5054C99.4882 74.5054 98.5709 74.6941 97.7242 75.0715C97.6889 75.0715 96.2425 75.6754 95.043 77.1095C95.043 77.1095 95.1135 77.185 95.1841 77.185C95.1841 77.185 96.2778 75.7509 97.7595 75.449C97.9712 75.4112 98.2181 75.3735 98.3945 75.3735C99.594 75.3735 99.9115 76.166 99.9468 76.3547V76.3925C99.9468 76.4679 99.9468 76.5057 99.9468 76.5812C99.9468 76.5812 99.9468 76.5812 99.9821 76.5812C99.9821 76.5812 99.9821 76.6189 99.9468 76.6189C99.9468 76.6567 99.9468 76.6567 99.9468 76.6189C99.9468 76.6189 99.9468 76.5812 99.9821 76.5812C100.053 76.4302 100.194 76.2415 100.37 76.0905C102.028 74.7319 104.851 76.8454 104.851 76.8454Z" fill="#C5AA79"/>
<path d="M106.121 93.4891C106.121 93.4891 106.403 95.4516 107.462 95.7913C108.238 96.0555 108.697 95.1119 108.697 94.2062C108.697 93.3759 108.097 92.6588 108.026 92.5456C107.18 92.5078 106.474 92.1682 106.121 91.9795C106.121 92.2814 106.086 92.8475 106.121 93.4891Z" fill="#C5AA79"/>
<path d="M111.202 80.358C111.202 80.3176 111.164 80.3176 111.164 80.3176C111.164 80.3176 111.164 80.3176 111.202 80.358Z" fill="#C5AA79"/>
<path d="M91.0223 87.1864C91.4457 86.3561 92.1865 85.7523 92.7863 85.4881C93.1391 85.3371 93.4566 84.922 93.7036 84.4314C93.7036 84.5823 93.7036 84.5823 93.7036 84.4314C93.7388 83.7898 93.88 83.2237 94.0564 82.733C93.3155 83.1482 92.9627 82.9595 91.1634 83.903C89.8933 84.9975 90.8106 86.809 91.0223 87.1864C91.0223 87.2242 91.0576 87.2242 91.0576 87.2242C91.0576 87.2242 91.0576 87.2242 91.0223 87.1864Z" fill="#C5AA79"/>
<path d="M105.238 75.5246C105.274 75.5246 105.344 75.5623 105.415 75.5623H105.45C105.379 75.6001 105.309 75.5623 105.238 75.5246Z" fill="#C5AA79"/>
<path d="M108.306 96.5084C108.236 96.5462 108.165 96.5839 108.094 96.6217C107.565 96.7726 107.142 96.6217 106.824 96.282C106.26 95.7159 106.26 95.7159 106.824 96.282C106.824 96.282 105.942 95.5649 105.731 94.4704C105.731 94.395 105.695 94.3195 105.695 94.244C105.695 94.1308 105.66 94.0553 105.66 94.0175C105.66 94.093 105.66 94.1685 105.695 94.244C105.695 94.5082 105.731 94.9988 105.872 95.4894C105.978 95.7536 106.119 96.131 106.295 96.4707L106.33 96.5084L106.719 97.1123C106.683 97.0746 106.648 97.0368 106.648 96.9991C106.507 96.8104 106.401 96.6594 106.295 96.433C106.084 96.131 105.942 95.7914 105.872 95.4517C105.978 95.7914 106.084 96.131 106.295 96.433C106.401 96.6217 106.507 96.8104 106.648 96.9991C106.683 97.0368 106.683 97.0746 106.719 97.1123C107.177 97.6784 107.989 98.6597 108.835 98.8861C109.717 99.1125 110.211 97.9426 109.506 97.2633C109.188 96.9991 108.412 96.433 108.306 96.5084Z" fill="#C5AA79"/>
<path d="M87.6377 108.284C87.6009 108.284 87.5641 108.284 87.5273 108.323C87.5273 108.284 87.5641 108.284 87.6377 108.284Z" fill="#C5AA79"/>
<path d="M99.1016 77.6759C99.4191 77.3739 99.5602 77.0343 99.4896 76.6946C99.4191 76.4304 98.9604 76.053 98.2901 76.053C98.1137 76.053 97.9021 76.0908 97.6904 76.1285C96.8084 76.3927 95.9264 77.3362 95.75 77.5249C95.8911 77.5626 96.0322 77.6381 96.2086 77.6759C96.2792 77.7136 96.4556 77.8268 96.632 77.9023C96.6673 77.94 96.7378 77.94 96.8084 77.9778C96.8084 78.0155 98.149 78.3929 99.1016 77.6759ZM96.5967 77.2607C96.5614 77.2985 96.5967 77.2607 96.5967 77.2607V77.2607Z" fill="#C5AA79"/>
<path d="M103.299 78.0531C103.335 78.0153 103.405 77.9776 103.44 77.9398C103.617 77.8266 103.793 77.6757 103.864 77.6379C104.04 77.5624 104.181 77.487 104.322 77.4115C104.146 77.2605 103.123 76.4302 102.241 76.317C102.029 76.2793 101.853 76.2793 101.641 76.317C100.971 76.4302 100.548 76.8454 100.512 77.1096C100.477 77.487 100.653 77.7889 101.041 78.0531C102.029 78.6569 103.299 78.0531 103.299 78.0531ZM103.44 77.336C103.44 77.2983 103.44 77.336 103.44 77.336V77.336Z" fill="#C5AA79"/>
<path d="M95.7523 78.2796L95.7148 78.3199L95.7523 78.2796Z" fill="#C5AA79"/>
<path d="M105.771 77.8317C105.771 77.8317 105.772 77.7915 105.734 77.7513C105.772 77.7915 105.771 77.7915 105.771 77.8317Z" fill="#C5AA79"/>
<path d="M95.3246 78.3928C95.3599 78.3928 95.3951 78.3928 95.5715 78.2418C95.3951 78.3928 95.3599 78.3928 95.3246 78.3928C95.2893 78.3928 95.254 78.355 95.2188 78.3173C95.254 78.3928 95.2893 78.3928 95.3246 78.3928Z" fill="#C5AA79"/>
<path d="M95.5349 79.9025C95.5702 79.8648 95.5702 79.8648 95.6054 79.827C96.2405 79.2232 96.8049 78.9213 97.3694 78.7325C97.4047 78.7325 97.4047 78.7325 97.3694 78.7325C97.0519 78.7325 96.7697 78.6571 96.4874 78.5816C96.4874 78.5816 96.4874 78.5816 96.4874 78.5438C95.9582 78.3551 95.8877 78.2042 94.794 78.0532C94.6176 78.0155 94.3354 77.9777 94.0179 78.0532C93.9826 78.0532 93.9473 78.0532 93.912 78.091C93.9473 78.091 93.9826 78.091 94.0179 78.0532C93.9473 78.0532 93.8768 78.091 93.7709 78.091C93.2064 78.2797 92.6067 78.8458 92.2539 80.2799C92.6773 80.2044 93.0653 80.2422 93.3828 80.2799C94.3354 80.3176 95.1115 80.0912 95.6054 79.8648C95.6054 79.8648 95.5702 79.9025 95.5349 79.9025Z" fill="#C5AA79"/>
<path d="M93.032 109.567C93.032 109.567 92.9967 109.567 93.032 109.567C92.9967 109.567 92.9967 109.567 93.032 109.567C93.0673 109.378 93.0673 109.189 93.0673 109.001C93.0673 107.982 92.2558 107.151 91.268 107.151C90.2802 107.151 89.4688 107.982 89.4688 109.001C89.4688 110.02 90.2802 110.85 91.268 110.85C92.0794 110.85 92.785 110.284 93.032 109.567C92.9967 109.567 93.032 109.567 93.032 109.567ZM92.9614 109.529C92.9967 109.529 92.9967 109.529 92.9614 109.529C92.9967 109.567 92.9967 109.567 92.9614 109.529C92.9967 109.529 92.9967 109.529 92.9614 109.529Z" fill="#C5AA79"/>
<path d="M113.423 125.758C114.235 125.758 114.976 125.871 115.752 126.022C108.061 122.134 99.0646 115.228 95.0427 111.982C96.2775 113.643 98.0062 115.907 98.8176 116.926C99.876 118.285 103.827 122.663 106.579 124.701C99.6643 121.115 94.9016 113.379 93.3845 110.661L93.3493 110.623C93.2081 110.812 93.067 110.963 92.8906 111.114C93.6315 112.586 100.158 125.984 104.745 130.777C106.544 127.758 109.754 125.758 113.423 125.758Z" fill="#C5AA79"/>
<path d="M89.504 138.74C89.8215 138.212 90.386 137.193 90.5977 136.476C90.9505 135.419 90.9858 133.268 90.9152 132.438C90.9152 132.438 90.9152 132.023 90.8799 131.041C90.8799 130.702 90.8094 129.758 90.8446 128.626C90.8799 127.305 90.9152 126.512 90.9152 126.512C90.9152 126.512 90.7388 126.21 90.2449 126.399C89.8568 126.55 88.7632 126.928 89.116 130.739V130.777L89.6804 131.683C89.8921 131.909 90.1038 132.626 89.8216 132.853C89.7157 132.966 89.4335 133.004 89.0807 132.438" fill="#C5AA79"/>
<path d="M121.328 143.496C122.951 141.684 123.868 139.306 123.868 136.853C123.868 131.419 119.564 127.041 114.272 127.041C108.98 127.041 104.676 131.456 104.676 136.853C104.676 140.439 106.546 143.609 109.65 145.383C110.391 145.534 110.956 145.609 111.379 145.609C111.767 145.609 111.979 145.534 112.155 145.496C112.226 145.458 112.296 145.458 112.367 145.458C112.649 145.42 113.707 144.364 113.99 143.986C113.672 143.986 112.931 143.949 112.437 143.76C111.591 144.401 110.709 144.703 109.897 144.703C109.015 144.703 108.486 144.326 108.451 144.288C108.239 144.062 108.133 143.835 108.133 143.647V139.873H110.532V137.419H113.355V132.853H111.52L110.638 133.306V131.154L111.52 131.607H113.355V128.664L112.931 127.758H115.013L114.589 128.664V131.607H116.389L117.271 131.154V133.306L116.424 132.853H114.625V137.419H117.447V139.873H119.846V143.835C120.058 144.024 120.234 144.213 120.41 144.439C120.446 144.326 120.834 144.024 121.328 143.496Z" fill="#C5AA79"/>
<path d="M88.6934 133.004C88.6229 132.928 88.517 132.853 88.4465 132.739C88.3406 132.513 87.3881 130.928 87 130.513C87 130.513 86.4355 129.833 83.3309 129.607C83.3309 129.607 83.2957 129.607 83.2604 129.607C83.084 129.607 82.6253 129.682 82.5901 130.249C82.5195 131.003 82.6606 132.777 82.6606 132.777L83.4721 136.174H83.5073L83.4721 136.249V136.287C83.3662 136.627 82.2373 140.514 84.0365 143.269L84.354 142.552C84.3893 142.552 86.5061 141.269 86.9295 140.891C87.635 140.363 87.5292 140.514 87.635 139.797L87.4234 133.645C87.3528 133.607 87.0353 132.438 87 132.287C86.8236 132.249 85.73 131.909 85.3066 131.305C84.9891 131.418 84.3893 131.494 83.9307 131.494C83.6132 131.494 83.084 131.456 82.9781 131.305C82.9429 131.23 82.9429 131.192 82.9781 131.117C83.0487 131.003 83.1898 130.966 83.4015 131.003C83.5426 131.041 84.0365 131.117 84.4952 131.117C84.848 131.117 85.1302 131.079 85.236 130.966L85.2713 130.928L85.3066 130.966C85.3772 131.041 85.4477 131.079 85.5183 131.154C85.9063 131.494 86.1886 131.72 86.6119 131.758C86.9295 131.796 87.2117 131.683 87.2117 131.683L87.2823 131.645V131.72C87.2823 131.72 87.2823 132.702 87.9878 133.268C87.9878 133.268 88.0584 133.343 88.1642 133.381C88.2701 133.419 88.3406 133.419 88.4112 133.419C88.5523 133.419 88.6582 133.306 88.764 133.155C88.7993 133.117 88.7287 133.041 88.6934 133.004ZM87 137.344L86.9647 136.966L87.1059 137.344C87.3175 137.985 87.4939 138.853 87.0706 139.42C86.6119 140.061 86.0827 140.401 85.483 140.401C84.8832 140.401 84.354 140.061 84.3188 140.023C83.4368 139.155 83.3662 138.25 83.4721 137.683L83.5073 137.457L83.5779 137.646C83.6485 137.91 83.8954 138.778 84.354 139.306C84.6363 139.646 84.9891 139.797 85.4477 139.797C85.9063 139.797 86.2944 139.608 86.4355 139.533C86.8942 139.269 87.1059 138.514 87 137.344Z" fill="#C5AA79"/>
<path d="M87.1743 124.814C87.1743 124.814 86.504 125.003 86.2217 124.927C86.2217 124.927 85.7631 126.324 85.375 127.192C85.375 127.192 86.0806 127.154 87.2801 127.909" fill="#C5AA79"/>
<path d="M88.7985 131.909C88.481 131.343 87.4226 129.532 87.4226 129.532C87.4226 129.532 85.7644 128.513 82.9774 128.248C82.2365 128.475 82.4129 129.645 82.4129 129.645C82.4129 129.645 82.7657 129.116 83.8946 129.267C85.2705 129.456 85.9408 129.494 86.8934 129.947C87.4931 130.249 87.8459 130.928 88.5515 132.513C88.5515 132.513 88.6927 132.815 88.8338 132.89L88.7985 131.909Z" fill="#C5AA79"/>
<path d="M87.5288 128.664C86.7879 127.984 85.6942 127.531 84.3536 127.305H84.3183C84.283 127.305 84.2478 127.267 84.2125 127.229C84.1066 127.154 83.9303 127.003 83.5422 126.965C83.4716 127.003 83.1894 127.154 83.0835 127.418C83.0483 127.569 83.0835 127.758 83.1894 127.984C83.3305 128.098 83.4716 128.135 83.6127 128.135C83.895 128.135 84.1419 127.984 84.283 127.833C84.3183 127.796 84.3536 127.796 84.3889 127.796C84.9181 127.796 87.176 128.89 87.2112 128.89C87.6346 129.154 88.3755 130.475 88.693 131.381C88.693 130.928 88.5166 129.532 87.5288 128.664Z" fill="#C5AA79"/>
<path d="M87.3526 123.38C85.8355 123.682 85.4475 123.833 85.0947 124.323C84.636 124.889 83.9304 126.022 84.001 126.739C84.2832 126.927 84.9535 127.041 85.0947 127.041C85.1652 126.927 85.3416 126.437 85.518 125.946C85.6239 125.644 85.6944 125.38 85.765 125.154C85.9061 124.701 85.9061 124.663 85.9767 124.663H86.0119C86.0119 124.663 86.0119 124.663 86.0472 124.663C86.2942 124.663 87.3878 124.437 87.5642 124.323L87.5995 124.286V124.361C87.6701 124.701 88.5873 125.531 88.9754 125.644C89.0813 125.682 89.1518 125.682 89.2577 125.682C89.5399 125.682 89.8927 125.456 89.928 125.418C89.8574 125.342 88.8343 124.437 88.8696 124.286L88.6579 124.021L88.4462 123.757C88.4462 123.757 88.0582 123.304 87.529 123.304C87.4584 123.342 87.4231 123.38 87.3526 123.38Z" fill="#C5AA79"/>
<path d="M114.871 141.382C116.459 141.458 117.729 142.024 118.682 142.665V141.005H117.306H116.247V139.948V138.552H111.626V139.948V141.005H110.567H109.191V142.514C110.85 142.061 111.908 141.571 111.908 141.571C113.566 141.156 114.871 141.382 114.871 141.382Z" fill="#C5AA79"/>
<path d="M118.715 104.323C118.752 104.323 118.825 104.323 118.899 104.283C118.788 104.323 118.715 104.323 118.715 104.323Z" fill="#C5AA79"/>
<path d="M92.1849 103.302C96.5243 105.076 102.134 105.038 103.686 105C96.3126 107.038 93.2433 107.265 93.1728 107.189C92.8905 106.849 92.0791 106.623 92.1144 106.661L92.1849 103.302Z" fill="#C5AA79"/>
<path d="M92.9984 107.267L92.9609 107.227L92.9984 107.267Z" fill="#C5AA79"/>
<path d="M112.401 149.685C112.436 149.798 112.436 149.874 112.365 149.949C112.33 150.025 112.224 150.1 112.048 150.062C112.013 150.062 109.861 149.723 108.202 148.553C108.626 149.006 109.331 149.685 110.037 150.213C111.237 151.119 112.542 151.572 113.882 151.572C115.399 151.572 116.458 151.006 116.458 151.006C119.421 149.383 121.538 148.062 121.997 147.76C121.997 147.232 121.362 144.741 121.15 144.439C120.974 144.628 120.797 144.779 120.656 144.892L120.621 144.967C120.621 144.967 120.444 144.93 120.409 144.93C120.409 144.93 118.892 143.269 117.587 142.703C116.14 142.061 115.294 142.024 114.482 141.986H114.341C114.235 141.986 114.129 141.986 114.059 141.986C113.636 141.986 113.036 142.024 112.013 142.175C111.766 142.326 111.166 142.552 110.425 142.816C110.46 142.929 108.732 143.496 108.767 143.269C108.661 143.458 108.626 143.647 108.696 143.798C108.837 144.099 109.296 144.326 109.896 144.326C110.072 144.326 110.249 144.326 110.46 144.288C111.801 144.062 112.33 143.194 112.33 143.194L112.365 143.156L112.401 143.194C112.612 143.345 113.177 143.647 113.812 143.647C114.024 143.647 114.235 143.609 114.447 143.533C114.588 143.496 114.906 143.194 114.976 143.08L115.011 143.043L115.047 143.08C115.153 143.231 115.011 143.496 114.623 143.798C114.341 144.024 113.847 144.628 113.847 144.666C113.847 144.666 112.895 145.911 111.66 146.024C111.519 146.024 111.342 146.062 111.166 146.062C110.072 146.062 109.014 145.685 109.014 145.685C107.673 145.194 106.509 143.684 106.156 143.231C106.297 143.76 106.827 144.552 107.497 145.647C108.52 147.383 111.025 147.723 111.625 147.723C111.66 147.723 112.154 147.987 111.872 147.874C111.907 147.911 111.907 147.987 111.907 148.024C111.907 148.138 111.625 148.515 111.413 148.477C109.226 148.175 108.555 147.572 107.814 146.968C107.744 146.93 107.709 146.855 107.638 146.817C107.179 146.439 106.756 145.722 106.333 144.628C106.368 145.081 106.544 145.76 106.932 146.515C107.603 147.798 108.485 148.704 110.884 149.459C110.919 149.459 110.99 149.496 111.025 149.496C111.272 149.572 111.589 149.685 111.872 149.685C111.942 149.685 112.013 149.685 112.083 149.647C112.119 149.647 112.154 149.647 112.154 149.647C112.154 149.61 112.401 149.685 112.401 149.685Z" fill="#C5AA79"/>
<path d="M111.165 102.207L116.916 106.095C117.127 106.208 118.962 107.302 120.232 108.472C121.431 109.604 133.038 140.665 133.038 140.665C132.474 141.344 131.874 142.024 131.274 142.665C130.604 143.382 130.498 143.533 129.757 144.213C129.722 144.213 129.017 143.647 129.017 143.647C127.182 142.25 125.736 141.533 124.748 141.156C127.147 138.552 127.993 138.665 128.276 138.589C128.311 138.589 128.311 138.589 128.346 138.589H128.417L128.593 138.552L128.558 138.363L128.523 138.061L128.487 137.872L128.311 137.91H128.24C128.24 137.91 128.205 137.91 128.135 137.948C126.723 138.25 125.136 139.495 124.042 140.514C124.465 139.344 124.677 138.099 124.677 136.853C124.677 132.362 121.925 128.324 117.833 126.777C113.317 124.248 109.295 121.115 106.614 119.04C105.556 118.247 104.744 117.606 104.215 117.266C103.897 117.077 102.592 116.096 100.369 114.398C106.967 117.794 114.305 120.172 117.833 120.512H117.903H118.08L118.115 120.323L118.15 120.059L118.186 119.87L118.009 119.832L117.939 119.794C116.351 119.417 106.896 115.718 99.5581 111.869C101.64 112.322 104.286 112.737 106.755 112.737C108.766 112.737 110.389 112.435 111.518 111.869L112.223 111.492L113.176 111.001L112.153 111.114L111.377 111.19C110.354 111.303 109.225 111.378 108.096 111.378C101.393 111.378 95.1481 109.34 94.1603 109.001V108.963C94.1603 108.812 94.1603 108.699 94.125 108.548C94.1603 108.585 105.344 106.661 111.165 102.207Z" fill="#C5AA79"/>
<path d="M100.971 153.044C100.583 153.082 100.194 153.082 99.7711 153.082C95.9962 153.082 93.3149 151.497 92.5388 150.968C91.8685 151.233 91.1629 151.383 90.3867 151.459L90.4926 155.082C93.6324 155.799 96.8429 156.177 100.089 156.177C106.051 156.177 111.801 154.969 117.234 152.553C120.41 151.119 123.655 149.044 126.442 146.892C125.913 146.213 123.161 142.892 123.161 142.892L122.315 143.571C122.315 143.571 123.514 147.609 123.514 147.647L121.962 148.855C121.08 149.383 118.787 150.742 118.187 151.082L118.081 151.157C117.305 151.648 115.823 152.553 113.989 152.553C113.213 152.553 112.436 152.402 111.731 152.063C110.919 151.685 110.179 151.233 109.508 150.742C108.838 150.817 104.64 152.818 100.971 153.044Z" fill="#C5AA79"/>
<path d="M88.096 102.207H88.0586C88.0586 102.248 88.096 102.248 88.096 102.207Z" fill="#C5AA79"/>
<path d="M85.8359 66.7309V66.7686L86.4357 67.3725L87.0707 66.7309L86.4357 66.0893L85.8359 66.7309Z" fill="#C5AA79"/>
<path d="M87.0352 64.2778C87.0352 64.2023 86.9999 64.1269 86.9293 64.0891C86.8941 64.0891 86.8941 64.1269 86.8588 64.1269C86.8235 64.1269 86.7882 64.1646 86.7529 64.1646C86.7177 64.1646 86.6824 64.1646 86.6471 64.2023C86.6118 64.2023 86.5765 64.2023 86.5765 64.2023H86.5413C86.4354 64.2023 86.2943 64.2023 86.1885 64.1646H86.1532C86.1179 64.1646 86.1179 64.1646 86.0826 64.1269C86.0474 64.1269 86.0474 64.1269 86.0121 64.0891C85.9415 64.1269 85.9062 64.2023 85.9062 64.2778C85.9062 64.3911 85.9768 64.4665 86.0826 64.4665H86.8941C86.9293 64.4665 87.0352 64.3533 87.0352 64.2778Z" fill="#C5AA79"/>
<path d="M85.8359 68.5801V68.6178L86.4357 69.2217L87.0354 68.6178L87.0707 68.5801L87.0354 68.6178L86.4357 68.0517L85.8359 68.6178V68.5801Z" fill="#C5AA79"/>
<path d="M86.082 69.9387H86.8229V69.3726L86.4701 69.75L86.082 69.3726V69.9387Z" fill="#C5AA79"/>
<path d="M86.8592 70.2785H86.083L85.8008 71.3352H85.9066H87.1061H87.1414L86.8592 70.2785Z" fill="#C5AA79"/>
<path d="M86.082 64.957V65.8628L86.4348 65.4854L86.7876 65.8628V64.957H86.082Z" fill="#C5AA79"/>
<path d="M86.7865 59.0317H85.3048C85.3048 59.0695 85.2695 59.0695 85.2695 59.1072L85.7634 60.4659C85.7282 60.5036 85.7282 60.5036 85.7634 60.4659L85.9046 60.881L86.3279 62.1265C86.3632 62.1265 86.3632 62.1265 86.3985 62.1265C86.4338 62.1265 86.469 62.1265 86.5043 62.1265L87.598 59.0317H87.2452H86.7865Z" fill="#C5AA79"/>
<path d="M85.4475 58.6921H85.5887H87.1057L87.0704 58.7298L87.1057 58.6921H87.3879C87.4585 58.6921 87.529 58.6543 87.5643 58.6543C87.8113 58.6166 87.9877 58.5411 88.0229 58.5034C87.9877 58.4656 87.8818 58.4279 87.776 58.3901L87.8113 58.3524L87.776 58.3901C87.6701 58.3524 87.529 58.3524 87.3879 58.3147C87.1409 58.2769 86.8234 58.2392 86.4354 58.2769C86.259 58.2769 86.0826 58.2769 85.9062 58.2769C85.3417 58.3147 84.9889 58.3901 84.8478 58.4656L84.8125 58.5034C84.8831 58.5788 85.0947 58.6543 85.4475 58.6921Z" fill="#C5AA79"/>
<path d="M86.7531 62.5794L86.8589 62.6549L86.7531 62.5794C86.7531 62.5794 86.7178 62.5417 86.6825 62.5417C86.7178 62.5794 86.7178 62.5794 86.7531 62.5794L86.6472 62.5039C86.5414 62.4662 86.4003 62.4285 86.2945 62.5039L86.0475 62.6172L86.2945 62.5039C86.4003 62.4662 86.5414 62.4662 86.6472 62.5039C86.5767 62.4662 86.5414 62.4662 86.4708 62.4662C86.1533 62.4662 85.8711 62.7304 85.8711 63.07C85.8711 63.2965 85.9769 63.4474 86.1181 63.5607C86.1533 63.5607 86.1533 63.5984 86.1886 63.5984C86.2239 63.5984 86.2592 63.6362 86.2945 63.6362C86.2592 63.6362 86.2239 63.5984 86.1886 63.5984C86.3297 63.6739 86.5414 63.6739 86.6825 63.5984C86.6472 63.5984 86.612 63.6362 86.5767 63.6362C86.612 63.6362 86.6472 63.5984 86.6825 63.5984C86.7178 63.5984 86.7178 63.5607 86.7531 63.5607C86.9295 63.4474 87.0353 63.2587 87.0353 63.0323C87.0353 62.8813 86.8942 62.6926 86.7531 62.5794Z" fill="#C5AA79"/>
<path d="M86.2246 150.176C86.2246 150.216 86.2246 150.216 86.1875 150.256C86.2246 150.256 86.2246 150.216 86.2246 150.176Z" fill="#C5AA79"/>
<path d="M88.1275 150.515L87.6688 141.986C87.4572 142.212 87.4572 142.212 84.7759 143.835L84.3173 144.703L82.9414 145.496L79.7662 147.194L79.5898 151.308C79.5898 151.308 86.681 154.705 88.3391 154.742L88.1275 150.515Z" fill="#C5AA79"/>
<path d="M87.1777 122.172C87.1777 122.172 86.7544 101.301 86.7191 101.301C86.7191 101.301 82.5208 101.679 76.7702 111.303C76.7702 111.303 76.6644 111.491 76.5586 111.642C76.5233 111.68 76.488 111.718 76.488 111.793C76.3469 112.058 76.1705 112.322 76.1705 112.36C76.0646 112.473 75.7471 113.379 75.5002 114.133C75.4296 114.398 75.3238 114.662 75.2532 114.888C75.2532 114.888 75.2532 114.888 75.2532 114.926C75.1474 115.266 75.0415 115.567 74.9357 115.869C74.6887 116.624 74.5123 117.19 74.5123 117.228L74.3007 117.87H74.3359L73.7362 119.832L71.2666 126.324L68.8676 130.777C69.679 130.513 70.9844 130.135 72.0075 130.022C72.5367 129.947 72.9953 129.909 73.3834 129.909C73.5951 129.909 73.8067 129.909 73.9479 129.947L74.2301 129.984L74.5829 130.286C74.6535 130.437 74.6182 130.626 74.5123 130.777C74.4065 130.928 74.2301 131.041 74.0537 131.041C73.9479 131.041 73.7715 131.003 73.5951 130.815H73.5598C72.2192 130.815 68.6559 131.985 68.0209 132.324C67.7034 132.513 66.2922 134.325 64.2812 137.042C65.5866 138.929 67.0683 140.741 68.6206 142.439C68.9382 141.646 72.8189 133.683 82.3091 134.778C82.2033 134.325 81.3566 131.909 81.7799 128.173C82.1327 124.965 84.0025 122.21 87.1777 122.172ZM77.9345 110.284C77.8639 110.322 77.8992 110.322 77.9345 110.284V110.284Z" fill="#C5AA79"/>
<path d="M88.905 122.625C89.4695 123.984 90.4926 125.191 91.0218 125.871C91.5863 126.588 91.4451 127.003 91.4099 127.947C91.4099 128.135 91.5863 129.947 91.4099 129.947C91.5157 132.324 91.9038 134.778 91.0923 137.08C90.8454 137.759 90.5279 138.401 90.1751 139.005C89.9634 139.382 89.9634 139.231 89.9634 139.495C89.9987 139.986 89.9987 140.439 90.034 140.929C90.1398 143.911 90.2809 146.93 90.3868 149.912C90.3868 149.987 90.3868 150.1 90.3868 150.176C92.6446 149.987 94.4439 148.666 96.2432 147.345C95.6081 148.364 95.0437 149.497 94.0911 150.214C96.3843 151.761 102.876 152.138 107.039 149.987C106.474 149.421 104.463 146.44 105.098 142.552C105.239 141.684 103.581 142.062 103.652 136.816C103.687 133.985 104.71 132.324 104.71 132.324C100.759 130.513 92.1507 111.643 92.1507 111.643C90.9512 112.209 89.3989 111.378 88.905 110.208C88.27 108.736 89.152 106.849 90.5632 106.397C91.0923 106.246 90.8101 104.51 90.8101 103.981C90.8101 102.773 90.8101 101.566 90.8101 100.32C90.3162 100.471 88.2347 100.735 88.27 101.302L88.905 122.625Z" fill="#C5AA79"/>
<path d="M110.494 87.8658C110.424 88.0167 110.318 88.1677 110.177 88.2809C110.071 89.6396 109.083 91.5644 107.354 91.5644C107.213 91.5644 107.072 91.5644 106.966 91.5266C106.508 91.4511 106.19 91.2624 105.978 90.9228C105.661 90.3944 105.837 89.7528 105.837 89.7151L105.908 89.4509L106.014 89.6773C106.12 89.9415 106.437 90.6208 106.613 90.7718C106.825 90.9228 107.072 91.036 107.354 91.036C108.448 91.036 109.542 89.5641 109.718 88.6206C110.106 86.7335 107.884 86.0542 107.848 86.0542C107.637 85.9787 107.46 85.8655 107.284 85.7523L107.319 85.9787C107.319 85.9787 107.425 86.4316 107.707 86.8468C107.884 87.1109 108.095 87.3374 108.307 87.5638C108.66 87.9412 108.977 88.2809 108.977 88.7715C108.977 89.8283 108.377 90.4699 107.39 90.4699C107.143 90.4699 106.896 90.4321 106.613 90.3567H106.578L106.613 90.1679H106.649C106.755 90.2057 106.86 90.2057 106.966 90.2057C107.637 90.2057 108.201 89.6773 108.377 89.1489C108.448 88.9225 108.554 88.5074 108.201 88.1677C107.178 87.1864 107.178 86.0919 107.178 86.0542V85.7145C106.084 84.8465 106.155 83.4501 106.155 83.4123L106.12 83.3369L105.696 82.884C105.555 82.733 105.414 82.5443 105.308 82.3556C105.167 82.1292 105.096 81.9405 105.026 81.8272C104.638 81.3366 104.214 80.9215 103.756 80.5818C103.615 80.5063 103.438 80.4308 103.332 80.3176C102.733 79.9779 102.133 79.827 101.639 79.676C101.427 79.6005 101.216 79.5628 101.039 79.4873C100.828 79.4118 100.228 78.9589 100.016 78.3928C99.8398 78.657 99.5223 78.9212 99.0989 79.1854C98.7814 79.3363 98.4991 79.4496 98.2169 79.5628C97.4055 79.8647 96.6646 80.1666 95.8179 81.3366C94.7948 82.733 94.9359 85.4126 94.9712 85.7145C94.9712 85.7145 94.9712 85.7523 94.9712 85.8278V85.8655C94.9006 88.2809 95.2181 90.3944 95.9237 91.9795C95.959 92.0927 96.0296 92.1682 96.0648 92.2814C96.1001 92.3569 96.1354 92.3947 96.1354 92.4324C96.841 93.8665 98.3228 96.2442 100.087 96.131C102.168 95.98 103.121 94.5459 103.156 94.5081L103.191 94.4704C103.191 94.4704 103.332 94.3194 103.474 94.3194C103.544 94.3194 103.615 94.3572 103.685 94.4327C103.756 94.5459 103.685 94.6591 103.65 94.7346C103.438 95.1497 102.274 96.6216 100.298 96.6216C100.263 96.6216 100.228 96.6216 100.157 96.6216C98.3227 96.5461 97.0174 94.8478 96.3118 93.6778L96.2765 93.7533H96.206C96.1707 93.7533 95.6415 93.6024 95.0065 93.3382C95.0065 93.3382 94.442 94.2062 94.7948 94.7346C94.8301 94.7723 94.9712 94.8855 95.2534 94.8855C95.4298 94.8855 95.6415 94.8101 95.8885 94.6968C95.959 94.6591 96.0296 94.6214 96.0648 94.6214C96.1354 94.6214 96.1707 94.6591 96.1707 94.6591C96.1707 94.6968 96.206 94.6968 96.206 94.7346V94.7723C96.2413 94.8478 96.4176 95.3762 96.2765 96.0178C96.2412 96.2065 96.1707 96.3574 96.0296 96.4707C96.0649 97.0368 95.7826 97.3764 95.5357 97.5651L95.5004 97.6406C95.0065 98.3954 93.6306 99.1125 92.8191 99.5277C92.5369 99.6786 92.2194 99.8296 92.1841 99.9051C92.1488 99.9806 92.0782 100.396 92.043 101.679C92.7838 102.019 96.0649 103.415 102.168 103.415C102.803 103.415 103.474 103.377 104.144 103.339C104.32 103.415 104.603 103.415 104.92 103.302C107.884 102.509 108.942 100.698 108.942 100.698C106.084 100.811 105.132 98.3954 105.132 98.3954C105.096 98.2822 105.026 98.1313 104.991 98.018C104.144 96.131 105.061 94.2817 105.061 94.2817C105.061 94.2062 105.061 94.093 105.061 94.0553C105.061 93.6401 105.096 93.074 105.167 92.5456C105.167 92.1682 105.202 91.8285 105.308 91.4511C105.343 91.3379 105.379 91.1869 105.52 91.1115L105.59 91.036L105.661 91.0737H105.696L105.767 91.1115C106.19 91.3379 106.719 91.5644 107.354 91.5644C107.884 91.5644 108.448 91.3757 109.012 91.036C111.165 89.866 110.6 88.0922 110.494 87.8658ZM99.8398 83.1859C99.8751 83.1482 99.9103 83.1482 99.9456 83.1482C100.051 83.1482 100.122 83.2236 100.228 83.2614C100.263 83.2991 100.334 83.3369 100.369 83.3369C100.369 83.3369 100.44 83.2991 100.475 83.2614C100.545 83.1859 100.616 83.1104 100.686 83.1104C100.722 83.1104 100.792 83.1104 100.828 83.2236C100.863 83.2614 100.863 83.3746 100.792 83.4878C100.722 83.6765 100.475 83.8652 100.298 83.903H100.263C100.016 83.903 99.8398 83.4501 99.8045 83.3369L99.7692 83.2614L99.8398 83.1859ZM101.357 89.3377L101.568 89.6396C101.604 89.6773 101.815 89.9792 101.71 90.2434C101.674 90.3944 101.533 90.4699 101.357 90.5076C101.251 90.5454 101.11 90.5076 101.039 90.4699C101.004 90.5454 100.933 90.6586 100.863 90.7341C100.722 90.885 100.545 90.9605 100.369 90.9605C100.016 90.9605 99.7692 90.7341 99.6634 90.5454C99.5928 90.5831 99.487 90.6208 99.4164 90.6208C99.0636 90.5076 99.0283 90.2434 99.0283 90.1679C99.0283 89.9415 99.2047 89.7151 99.3459 89.6773L99.5928 89.6396L99.4517 89.8283C99.4164 89.9038 99.3811 89.9792 99.3811 90.017C99.3811 90.017 99.4164 90.0547 99.487 90.0547C99.6281 90.0547 99.6987 89.9038 99.6987 89.9038L99.8045 89.7151L99.6634 88.998L99.5223 84.6578H100.016V90.1679C100.051 90.2812 100.157 90.3567 100.369 90.3567H100.404C100.686 90.3567 100.757 89.9415 100.757 89.9038L100.792 89.7151L100.933 89.866C101.004 89.9415 101.18 90.0547 101.286 90.0547C101.322 90.0547 101.322 90.0547 101.322 90.0547C101.322 90.0547 101.392 89.9792 101.357 89.7528V89.3377ZM100.898 88.998L100.475 90.017L100.616 84.6201H101.11L100.898 88.998ZM95.3593 83.4501C95.3945 83.4123 95.9237 82.3179 97.2644 82.3179C97.4055 82.3179 97.5819 82.3179 97.723 82.3556C98.8167 82.5443 99.5223 83.4878 99.5223 83.5633L99.8398 84.0162L99.3811 83.7143C99.3811 83.7143 98.3228 83.0727 97.5466 82.9972C96.4882 82.9217 95.5004 83.601 95.4651 83.601L95.1476 83.8275L95.3593 83.4501ZM98.605 85.2239C98.5344 85.1484 98.4286 85.0352 98.2522 84.922C98.2169 85.0729 98.1816 85.1862 98.0758 85.2994C98.0405 85.3371 98.0405 85.3749 98.0052 85.3749C97.8641 85.5636 97.7583 85.6768 97.4055 85.6768H97.1585H97.1232C96.9116 85.5636 96.6646 85.4126 96.594 85.1862C96.5588 85.1107 96.5588 84.9975 96.5588 84.8842C96.5588 84.8842 96.5235 84.8842 96.5235 84.922C96.1354 85.1484 95.7121 85.3749 95.4298 85.3749H95.2887L95.324 85.2239C95.3593 85.1484 95.4298 84.922 95.5004 84.8465C95.6062 84.6955 96.3118 83.8275 97.4055 83.8275C97.6172 83.8275 97.7936 83.8652 98.0052 83.903C99.0989 84.2804 99.1342 85.3749 99.1342 85.4126V85.941L98.9578 85.6768C98.9578 85.639 98.7461 85.3749 98.605 85.2239ZM101.886 92.8098C101.78 92.8475 101.639 92.8853 101.463 92.8853C101.322 92.8853 101.145 92.8853 100.969 92.8475C100.863 92.8475 100.757 92.8098 100.686 92.8475L100.651 92.8853C101.463 92.8853 101.71 93.2249 101.71 93.4137C101.71 93.4891 101.674 93.6401 101.604 93.7156C101.533 93.7911 101.463 93.8288 101.357 93.8288C101.357 93.8288 101.322 93.8288 101.286 93.8288C101.251 93.8288 101.216 93.8288 101.18 93.8288C100.969 93.8288 100.686 93.7911 100.616 93.7533C100.404 93.7533 100.298 93.7911 100.157 93.7911C100.051 93.7911 99.9809 93.8288 99.8751 93.8288C99.8045 93.8288 99.7692 93.8288 99.6987 93.8288C99.5928 93.7911 99.4517 93.6401 99.4164 93.5269C99.3811 93.1872 99.5575 93.074 99.8751 92.9608C99.9456 92.923 100.016 92.923 100.087 92.923L100.051 92.8853C99.9103 92.923 99.7339 92.9608 99.6281 92.9608C99.1695 92.9608 98.9225 92.6588 98.8167 92.5079L98.6756 92.2814H98.9225C98.9578 92.2814 98.9931 92.2814 99.0283 92.2814C99.2047 92.2814 99.3459 92.2437 99.4517 92.2059C99.487 92.2059 99.6634 92.0927 99.7339 91.904V91.8663L99.7692 91.8285C99.8045 91.7908 99.8751 91.7531 99.9456 91.7531C100.016 91.7531 100.087 91.7908 100.157 91.8663C100.157 91.8663 100.193 91.904 100.369 91.904H100.404C100.581 91.904 100.616 91.8663 100.651 91.7908L100.686 91.7531C100.686 91.7531 100.686 91.7531 100.722 91.7153H100.757C100.792 91.6776 100.828 91.6776 100.863 91.6776H100.898H100.933C101.039 91.7153 101.145 91.7908 101.251 91.8663C101.392 91.9795 101.498 92.0927 101.674 92.0927C101.745 92.0927 101.992 92.0927 102.168 92.055L102.309 92.2814C102.239 92.5079 102.062 92.7343 101.886 92.8098ZM105.308 85.4126C105.061 85.4126 104.708 85.1862 104.391 84.9975C104.356 84.9597 104.285 84.922 104.25 84.922C104.25 85.0352 104.25 85.1107 104.214 85.2239C104.144 85.4503 103.897 85.6013 103.685 85.7145H103.65H103.403C103.05 85.7145 102.944 85.5636 102.803 85.4126C102.768 85.3749 102.768 85.3371 102.733 85.3371C102.662 85.2239 102.592 85.1107 102.556 84.9597C102.415 85.0352 102.309 85.1484 102.204 85.2616C102.098 85.3749 101.886 85.6768 101.886 85.6768L101.71 85.941V85.4126C101.71 85.4126 101.71 84.3181 102.839 83.903C103.05 83.8275 103.227 83.8275 103.438 83.8275C104.567 83.8275 105.202 84.6578 105.273 84.771C105.343 84.8842 105.449 85.1862 105.449 85.2616L105.485 85.4126H105.308ZM105.343 83.1482C105.343 83.1482 104.003 82.6953 103.262 82.6953C103.191 82.6953 103.086 82.6953 103.05 82.6953C102.274 82.8462 101.392 83.6765 101.392 83.6765L101.004 84.0539L101.251 83.5256C101.286 83.4501 101.957 82.0159 103.297 82.0159C104.638 82.0159 105.414 82.884 105.449 82.9217L105.731 83.2236L105.343 83.1482Z" fill="#C5AA79"/>
<path d="M106.052 89.1489C106.052 89.1489 106.087 89.1489 106.158 89.1489C106.299 89.1489 106.475 89.1112 106.616 88.9225C106.828 88.6206 107.004 87.9412 106.616 86.2806V86.2429V86.2051C106.652 86.1297 106.687 86.0542 106.757 86.0542C106.863 86.0542 106.969 86.1674 107.075 86.4693C107.357 87.2241 107.498 88.3941 107.216 89.0357C107.11 89.2622 107.004 89.4131 106.828 89.4509C106.722 89.5263 106.616 89.5641 106.51 89.5641C106.193 89.5641 105.946 89.2622 105.946 89.2622L105.77 89.0357L106.052 89.1489Z" fill="#C5AA79"/>
<path d="M78.1431 150.515L78.6723 139.382L80.8949 135.985C80.8949 135.985 74.474 135.117 69.6055 143.647C69.6055 143.684 72.7453 147.534 78.1431 150.515Z" fill="#C5AA79"/>
<path d="M79.6953 146.062L83.3291 144.062C83.3291 144.062 81.3182 142.062 82.553 136.287L81.9885 136.174L79.9423 139.608L79.6953 146.062Z" fill="#C5AA79"/>
<path d="M124.186 141.684C124.186 141.684 126.655 142.59 128.666 145.42L127.643 146.288C127.643 146.288 126.444 143.949 123.551 142.288L124.186 141.684Z" fill="#C5AA79"/>
<path d="M144.26 109.982C144.26 103.717 143.095 97.6784 140.802 91.9418C140.344 90.7718 139.814 89.6019 139.25 88.4696C138.403 86.7336 137.133 85.2617 135.546 84.3181C134.24 83.5256 132.476 82.884 130.254 82.733C129.407 82.733 128.701 82.884 128.278 83.1104C125.703 84.0917 123.868 86.6203 122.845 88.4319C122.104 89.7528 121.61 91.2624 121.504 92.8098C121.434 93.9043 121.54 95.0365 122.034 96.5084C122.069 96.6594 122.21 97.1123 122.245 97.3764C122.28 97.6784 122.669 100.471 120.516 102.736C120.093 103.226 119.564 103.49 117.8 103.943C117.341 104.057 117.412 104.019 116.918 104.057L120.446 106.359C122.598 107.566 124.468 111.982 124.468 111.982C124.468 111.982 125.385 114.398 126.408 114.398H126.443C126.514 114.209 126.479 113.416 126.373 113.001C126.232 112.397 125.808 111.19 125.667 110.737C125.597 110.435 125.491 109.906 125.773 109.755L125.879 109.718C126.161 109.718 126.373 110.02 126.973 111.303C127.431 112.209 128.066 113.605 128.596 113.831C128.701 113.794 128.737 113.756 128.772 113.643C129.054 112.586 128.278 111.039 127.467 110.02L127.22 109.718L127.572 109.604C127.608 109.604 127.678 109.567 127.714 109.567C128.031 109.567 128.384 109.906 128.419 109.906L128.49 109.982C128.984 110.472 129.195 110.661 129.76 111.529C131.242 113.756 132.229 116.888 132.265 119.568C132.3 121.04 132.37 121.606 132.441 122.285C132.512 122.851 132.582 123.304 132.617 124.135H132.582C132.617 124.437 133.676 131.985 137.345 134.778L137.945 133.872C137.945 133.872 137.909 133.872 137.909 133.834C139.003 131.947 139.956 129.984 140.767 127.984C143.095 122.285 144.26 116.209 144.26 109.982ZM135.616 127.569C135.934 122.587 136.286 117.719 135.757 112.737C135.193 107.529 134.24 102.396 133.076 97.301C135.722 101.301 137.027 106.472 137.662 111.265C138.368 116.775 137.768 122.474 135.616 127.569ZM139.532 109.34C138.968 104.132 138.015 98.9993 136.851 93.9043C139.497 97.9048 140.802 103.075 141.437 107.868C142.143 113.379 141.578 119.077 139.391 124.172C139.673 119.228 140.061 114.36 139.532 109.34Z" fill="#C5AA79"/>
<path d="M79.8031 102.094C79.6267 102.056 79.4503 102.056 79.2739 101.905L79.0269 101.717L79.1681 101.452C79.2033 101.377 79.2033 101.301 79.1681 101.188C79.0622 100.735 78.5683 100.056 78.2861 99.905C77.7922 99.6031 77.2982 97.867 77.1571 97.3386L77.1219 97.2254V97.1877L76.8749 97.3386L77.1219 96.7348C79.4503 90.9227 77.3688 85.4503 74.1936 83.2613C73.7703 82.9972 73.3117 82.733 72.7825 82.4688C72.7119 82.431 71.3713 81.8649 69.572 81.8649C69.4309 81.8649 69.2898 81.8649 69.1487 81.8649C65.8677 82.0914 62.9395 84.1671 61.3166 87.2241C60.5052 88.7338 59.7996 90.2811 59.1645 91.8662C56.8714 97.6028 55.6719 103.679 55.6719 109.944C55.6719 116.209 56.8361 122.323 59.1645 128.022V128.06C59.5526 129.041 60.1171 129.947 60.7521 130.777C61.74 132.022 62.7278 133.079 63.3275 133.57C63.3275 133.608 63.2923 133.608 63.2923 133.645L64.2448 134.06C66.0088 129.267 66.3616 125.795 66.3969 123.946C66.6438 123.606 66.6791 123.002 66.6791 122.738V122.7C67.0319 115.077 67.8786 113.303 69.4662 110.548C69.9248 109.755 70.3129 109.302 70.5598 109.001C70.5598 109.001 70.5599 108.963 70.5951 108.963L70.9479 108.585L70.7715 109.076C70.5246 109.68 69.7837 111.718 70.0307 112.548C70.1012 112.737 70.1718 112.812 70.3129 112.888C70.7362 112.775 71.7241 111.34 72.9236 109.114L73.1 109.189C72.9236 109.68 72.6061 110.661 72.2533 111.642C72.2533 111.642 71.6888 113.152 72.2885 113.416C72.3591 113.454 72.4297 113.454 72.5002 113.454C73.2411 113.454 74.1231 111.907 74.4759 111.265L74.7934 110.661C74.7934 110.661 80.4028 102.207 80.1559 102.169L79.8031 102.094ZM60.0465 123.342C57.8945 118.247 57.2947 112.548 58.0003 107.038C58.6354 102.245 59.9407 97.0745 62.5867 93.0739C61.3872 98.1689 60.4346 103.302 59.9054 108.51C59.3762 113.492 59.7643 118.36 60.0465 123.342ZM63.6803 111.869C63.1511 116.851 63.5392 121.719 63.8215 126.701C61.6694 121.606 61.0696 115.907 61.7752 110.397C62.4103 105.604 63.7156 100.433 66.3616 96.4329C65.1621 101.528 64.2095 106.661 63.6803 111.869Z" fill="#C5AA79"/>
<path d="M101.639 102.132C111.225 102.132 118.996 93.8185 118.996 83.5634C118.996 73.3083 111.225 64.9949 101.639 64.9949C92.0525 64.9949 84.2812 73.3083 84.2812 83.5634C84.2812 93.8185 92.0525 102.132 101.639 102.132Z" stroke="#C5AA79" stroke-miterlimit="10"/>
<path d="M87.9859 99.1879L86.5747 99.5654L86.4336 96.1687L87.9153 97.9425L87.9859 99.1879Z" fill="#C5AA79"/>
<path d="M100.016 55.4464C126.687 55.4464 148.42 78.657 148.42 107.227C148.42 135.797 126.723 159.007 100.016 159.007C73.3095 159.007 51.6125 135.797 51.6125 107.227C51.6125 78.657 73.3095 55.4464 100.016 55.4464ZM100.016 53.2575C72.1805 53.2575 49.6016 77.4116 49.6016 107.189C49.6016 136.967 72.1805 161.121 100.016 161.121C127.852 161.121 150.431 136.967 150.431 107.189C150.431 77.4116 127.852 53.2575 100.016 53.2575Z" fill="#C5AA79"/>
</svg>
