<svg width="15" height="21" viewBox="0 0 15 21" fill="none" xmlns="http://www.w3.org/2000/svg">
<path d="M7.30087 19.5606L7.30085 19.5606C7.16643 19.4147 5.45125 17.5387 3.7728 15.0899C2.93355 13.8655 2.1105 12.508 1.49882 11.1596C0.884211 9.80486 0.5 8.49597 0.5 7.35893C0.5 3.65315 3.59751 0.615723 7.43095 0.615723C11.2644 0.615723 14.3618 3.65314 14.3619 7.35893C14.3619 8.49597 13.9777 9.80486 13.3631 11.1596C12.7514 12.508 11.9284 13.8655 11.0891 15.0899C9.41066 17.5387 7.69548 19.4147 7.56106 19.5606L7.56103 19.5606C7.49339 19.6341 7.36854 19.6341 7.30087 19.5606ZM6.9331 19.8994C7.19904 20.1881 7.66335 20.1876 7.9288 19.8994H6.9331ZM3.19229 7.35893C3.19229 9.65651 5.10541 11.5032 7.43095 11.5032C9.75645 11.5032 11.6696 9.65655 11.6696 7.35897C11.6696 5.0614 9.75646 3.21471 7.43095 3.21471C5.10546 3.21471 3.19229 5.06135 3.19229 7.35893Z" stroke="#505769"/>
</svg>
