<svg width="68" height="68" viewBox="0 0 68 68" fill="none" xmlns="http://www.w3.org/2000/svg">
<path d="M0.347656 0.894897C2.97914 0.894897 5.59006 0.894897 8.46824 0.894897C8.46824 20.5367 8.46824 39.932 8.46824 59.7793C11.7987 59.7793 14.903 59.7793 18.0279 59.7793C24.4833 59.7793 24.4833 59.7793 26.4775 53.8004C30.9181 40.4867 35.3998 27.1936 39.7788 13.8593C40.3133 12.2567 40.9506 11.5787 42.7597 11.6404C47.4265 11.8047 52.0933 11.702 56.904 11.702C56.904 26.9265 56.904 41.8839 56.904 56.9851C50.2636 56.9851 43.726 56.9851 36.9417 56.9851C37.7846 54.3552 38.6275 51.8075 39.5115 49.0338C42.5747 49.0338 45.6174 49.0338 48.8245 49.0338C48.8245 39.2129 48.8245 29.618 48.8245 20.0231C46.8714 19.0985 46.3164 20.1874 45.7818 21.7695C40.93 36.3776 36.0166 50.9857 31.1237 65.5732C30.877 66.2923 30.6097 66.9909 30.3013 67.8949C20.3305 67.8949 10.3596 67.8949 0.388773 67.8949C0.347656 45.5616 0.347656 23.2282 0.347656 0.894897Z" fill="white" fill-opacity="0.25"/>
<path d="M11.3682 1.08048C13.9997 1.08048 16.5078 1.08048 19.2627 1.08048C19.2627 13.8395 19.2627 26.4751 19.2627 39.1108C19.4682 39.1519 19.6738 39.193 19.8794 39.2341C24.135 26.5573 28.4112 13.86 32.7079 1.05994C44.2001 1.05994 55.6717 1.05994 67.3489 1.05994C67.3489 23.2289 67.3489 45.3568 67.3489 67.649C56.0829 67.649 44.7757 67.649 33.2424 67.649C34.1059 65.0602 34.9693 62.492 35.8945 59.7389C43.7272 59.7389 51.5394 59.7389 59.5161 59.7389C59.5161 42.768 59.5161 26.0231 59.5161 9.01118C52.8346 9.01118 46.297 8.94954 39.7594 9.11391C39.1016 9.13445 38.197 10.4494 37.9092 11.3123C33.0163 25.7355 28.1439 40.1587 23.436 54.6435C22.7782 56.6981 21.853 57.2528 19.8383 57.1295C17.0629 56.9652 14.267 57.0885 11.3477 57.0885C11.3682 38.289 11.3682 19.7567 11.3682 1.08048Z" fill="white" fill-opacity="0.25"/>
</svg>
