<svg width="40" height="41" viewBox="0 0 40 41" fill="none" xmlns="http://www.w3.org/2000/svg">
<path d="M40 20.5205C40 9.49287 31.0276 0.520508 20 0.520508C8.97236 0.520508 0 9.49287 0 20.5205C0 26.3452 2.50473 31.5954 6.49164 35.2536L6.47273 35.2703L7.12145 35.8172C7.16364 35.8529 7.20945 35.882 7.25164 35.9169C7.59636 36.2027 7.95345 36.474 8.31709 36.7365C8.43491 36.8216 8.55273 36.9067 8.67273 36.9896C9.06109 37.2572 9.45964 37.5111 9.86691 37.7518C9.95564 37.8041 10.0451 37.8551 10.1345 37.906C10.5804 38.1598 11.0356 38.3991 11.5018 38.6187C11.536 38.6347 11.5709 38.6492 11.6051 38.6652C13.1244 39.3714 14.7462 39.89 16.4422 40.1961C16.4865 40.2041 16.5309 40.2121 16.576 40.2201C17.1025 40.3111 17.6349 40.3838 18.1738 40.4325C18.2393 40.4383 18.3047 40.442 18.3709 40.4478C18.9076 40.4921 19.4502 40.5205 20 40.5205C20.5447 40.5205 21.0822 40.4921 21.616 40.4492C21.6836 40.4434 21.7513 40.4398 21.8189 40.434C22.3535 40.3852 22.8815 40.3147 23.4029 40.2252C23.448 40.2172 23.4938 40.2092 23.5389 40.2005C25.2095 39.9009 26.808 39.394 28.3076 38.706C28.3629 38.6805 28.4189 38.6565 28.4742 38.6303C28.9229 38.4194 29.3615 38.1918 29.7913 37.9496C29.8982 37.8892 30.0044 37.8281 30.1105 37.7656C30.5018 37.5351 30.8865 37.2943 31.2604 37.0383C31.3949 36.9467 31.5265 36.85 31.6596 36.754C31.9789 36.5241 32.2924 36.2871 32.5971 36.0391C32.6647 35.9845 32.7375 35.9372 32.8036 35.8812L33.4691 35.3256L33.4495 35.3089C37.4713 31.6492 40 26.3751 40 20.5205ZM1.45455 20.5205C1.45455 10.2943 9.77382 1.97505 20 1.97505C30.2262 1.97505 38.5455 10.2943 38.5455 20.5205C38.5455 26.0311 36.1273 30.9852 32.2989 34.3845C32.0851 34.2369 31.8698 34.1045 31.6495 33.994L25.4916 30.9154C24.9389 30.6391 24.5956 30.0834 24.5956 29.466V27.3154C24.7382 27.1394 24.8887 26.9401 25.0444 26.7212C25.8415 25.5954 26.4807 24.3431 26.9469 22.9954C27.8684 22.5576 28.4633 21.6398 28.4633 20.6034V18.0252C28.4633 17.3947 28.232 16.7831 27.8182 16.3023V12.9081C27.856 12.53 27.9898 10.4005 26.4487 8.64342C25.1084 7.11323 22.9389 6.33869 20 6.33869C17.0611 6.33869 14.8916 7.11323 13.5513 8.64269C12.0102 10.3998 12.144 12.5307 12.1818 12.9074V16.3016C11.7687 16.7823 11.5367 17.394 11.5367 18.0245V20.6027C11.5367 21.4034 11.896 22.1503 12.5113 22.6543C13.1004 24.962 14.3127 26.7089 14.7607 27.3009V29.4056C14.7607 29.9991 14.4371 30.5445 13.9156 30.8296L8.16509 33.9663C7.98182 34.066 7.8 34.1823 7.61818 34.3125C3.83709 30.9147 1.45455 25.9911 1.45455 20.5205Z" fill="#505769" fill-opacity="0.25"/>
</svg>
