<svg width="67" height="65" viewBox="0 0 67 65" fill="none" xmlns="http://www.w3.org/2000/svg">
<path d="M62.3695 16.3907C67.857 26.6264 67.669 41.7236 58.2914 52.9468C48.7822 64.3409 33.0525 68.0439 19.7096 62.062C5.57733 55.7193 -0.849843 41.5717 0.0898019 29.456C0.409281 29.6269 0.709967 29.7788 0.991861 29.9307C7.04317 33.4439 13.0945 36.9381 19.127 40.4892C19.7848 40.869 20.2546 40.869 20.9123 40.4892C34.4244 32.6083 47.9741 24.7464 61.505 16.8845C61.7681 16.7326 62.05 16.5806 62.3695 16.3907Z" fill="white" fill-opacity="0.25"/>
<path d="M58.4964 10.2179C59.1918 11.1864 59.8307 12.0599 60.5261 13.0284C60.1502 13.2753 59.8683 13.4652 59.5864 13.6361C46.6381 21.1752 33.671 28.6953 20.7227 36.2344C20.2341 36.5192 19.8582 36.5382 19.3508 36.2534C13.3183 32.7212 7.267 29.208 1.21569 25.7139C0.708286 25.429 0.501564 25.1441 0.708286 24.5175C0.990179 23.6629 1.14052 22.7704 1.38483 21.7639C3.24533 22.8463 4.97427 23.8338 6.70322 24.8403C10.8189 27.2331 14.9533 29.6068 19.0501 32.0376C19.7643 32.4553 20.2905 32.4553 21.0046 32.0376C33.22 24.9163 45.4354 17.814 57.6695 10.6926C57.8951 10.5597 58.1394 10.4268 58.4964 10.2179Z" fill="white" fill-opacity="0.25"/>
<path d="M4.24277 15.0046C6.46033 16.2959 8.56513 17.5113 10.6699 18.7457C13.5077 20.3978 16.3642 22.031 19.2019 23.7211C19.7845 24.0629 20.2167 24.0629 20.8181 23.7211C31.2669 17.6063 41.7534 11.5484 52.2022 5.45256C52.86 5.07276 53.2922 5.03478 53.8372 5.5665C54.4574 6.17419 55.1339 6.7249 55.8856 7.37057C53.7432 8.62392 51.7136 9.8013 49.7028 10.9787C40.1372 16.5428 30.5528 22.0879 21.006 27.671C20.2919 28.0888 19.7845 28.0888 19.0704 27.671C13.9023 24.6326 8.73427 21.6322 3.54743 18.6507C2.87089 18.2709 2.75813 17.9101 3.15278 17.2454C3.50985 16.5808 3.82933 15.8592 4.24277 15.0046Z" fill="white" fill-opacity="0.25"/>
<path d="M6.32812 11.776C7.07984 10.8455 7.75638 9.99091 8.5081 9.06039C8.97792 9.32625 9.41016 9.57312 9.8236 9.81999C12.9432 11.6241 16.0816 13.4281 19.1825 15.2702C19.8026 15.65 20.2725 15.631 20.8738 15.2702C28.9172 10.5796 36.9793 5.90802 45.0227 1.19847C45.6429 0.837657 46.1315 0.780686 46.7328 1.12251C47.5973 1.61625 48.4994 2.03404 49.533 2.56576C49.2135 2.79364 49.0068 2.96455 48.8001 3.09748C39.4788 8.52866 30.1387 13.9409 20.8174 19.353C20.3664 19.6189 20.0094 19.8088 19.4644 19.467C15.2735 17.0362 11.0827 14.6055 6.9107 12.1938C6.76036 12.0988 6.61002 11.9849 6.32812 11.776Z" fill="white" fill-opacity="0.25"/>
</svg>
