<?xml version="1.0" encoding="utf-8"?><svg xmlns="http://www.w3.org/2000/svg" xmlns:xlink="http://www.w3.org/1999/xlink"><symbol viewBox="0 0 15 11" id="arrow-left" xmlns="http://www.w3.org/2000/svg"><path d="M15 5.5L0 0l4.385 5.5L0 11l15-5.5z"/></symbol><symbol viewBox="0 0 43 13" id="arrow-long-left" xmlns="http://www.w3.org/2000/svg"><path d="M7.696 1.093L1.063 6.746m0 0L7.82 12.25M1.063 6.746H42"/></symbol><symbol viewBox="0 0 15 11" id="arrow-right" xmlns="http://www.w3.org/2000/svg"><path d="M0 5.5L15 11l-4.385-5.5L15 0 0 5.5z"/></symbol><symbol viewBox="0 0 344.96 344.96" id="check" xmlns="http://www.w3.org/2000/svg"><g data-name="Слой 2"><path d="M321.85 86.24l-40-23.11-23.1-40H212.5L172.48 0l-40 23.11H86.24l-23.11 40-40 23.1v46.21L0 172.48l23.11 40v46.21l40 23.11 23.11 40h46.21l40 23.1 40-23.11h46.21l23.11-40 40-23.11V212.5l23.11-40-23.11-40V86.24zM156.91 243.07a16.79 16.79 0 01-23.34 0l-50.45-50.44a16.19 16.19 0 010-22.89l13.35-13.35a16.19 16.19 0 0122.89 0l25.87 25.87 80.34-80.35a16.19 16.19 0 0122.89 0l13.35 13.35a16.19 16.19 0 010 22.89z" data-name="Capa 1"/></g></symbol><symbol viewBox="0 0 21 21" id="donate" xmlns="http://www.w3.org/2000/svg"><g clip-path="url(#eclip0)"><path d="M8.686 16.646l-.83.498a2.772 2.772 0 01-4.042-1.457 2.905 2.905 0 00-.764 1.967 2.92 2.92 0 002.917 2.917 2.92 2.92 0 002.917-2.917c0-.348-.076-.686-.198-1.008zm9.945-13.542l-5.833-2.5a.418.418 0 00-.49.123L10.643 2.81a.419.419 0 00.14.633l6.293 3.147a1.24 1.24 0 001.429-.22 1.24 1.24 0 00.38-.898V3.487c0-.167-.1-.317-.253-.383z"/><path d="M5.55 17.38v1.107a.417.417 0 00.834 0v-.951a2.753 2.753 0 01-.834-.156zM16.702 7.336L9.694 3.832l-4.161 1.56a2.09 2.09 0 00-1.056.88l-1.73 2.883a2.072 2.072 0 00-.077 2.003l1.228 2.455a2.525 2.525 0 011.056-1.2 40.99 40.99 0 001.454-.87c-.019-.011-.032-.03-.051-.04-.075-.455-.297-.857-.507-1.15.638-.275 1.49-.769 1.923-1.273.332.195.856.446 1.51.574-.487.603-.983 1.348-1.163 1.845-.152.07-.38.188-.73.39-.44.31-1.077.703-2.022 1.247-.427.245-.725.68-.841 1.226a1.948 1.948 0 00-.038.353c-.001.037.002.074.003.111a1.835 1.835 0 00.116.6c.012.034.023.068.037.102.047.108.101.215.169.315a1.968 1.968 0 00.562.54c.374.235.824.34 1.265.298.054-.006.11-.011.163-.022a1.928 1.928 0 00.623-.227l2.864-1.718c.448-.11 2.676-.776 4.363-3.506a31.715 31.715 0 002.051-3.869c0-.002-.001-.003-.003-.003z"/></g><defs><clipPath id="eclip0"><path d="M.667.571h20v20h-20z"/></clipPath></defs></symbol><symbol viewBox="0 0 21 20" id="eye" xmlns="http://www.w3.org/2000/svg"><g clip-path="url(#fclip0)"><path d="M10.25 4.04c-3.821 0-7.286 2.09-9.844 5.485a.792.792 0 000 .945c2.558 3.4 6.023 5.49 9.844 5.49 3.821 0 7.287-2.09 9.843-5.485a.792.792 0 000-.945c-2.556-3.4-6.022-5.49-9.843-5.49zm.274 10.158a4.21 4.21 0 01-4.472-4.472 4.216 4.216 0 013.924-3.924 4.209 4.209 0 014.472 4.472 4.23 4.23 0 01-3.924 3.924zm-.127-1.94a2.261 2.261 0 01-2.405-2.405 2.275 2.275 0 012.115-2.115 2.261 2.261 0 012.405 2.405 2.275 2.275 0 01-2.115 2.115z" fill-opacity=".7"/></g><defs><clipPath id="fclip0"><path d="M.25 0h20v20h-20z"/></clipPath></defs></symbol><symbol viewBox="0 0 21 20" id="eye_1" xmlns="http://www.w3.org/2000/svg"><g clip-path="url(#gclip0)"><path d="M10.25 4.04c-3.821 0-7.286 2.09-9.844 5.485a.792.792 0 000 .945c2.558 3.4 6.023 5.49 9.844 5.49 3.821 0 7.287-2.09 9.843-5.485a.792.792 0 000-.945c-2.556-3.4-6.022-5.49-9.843-5.49zm.274 10.158a4.21 4.21 0 01-4.472-4.472 4.216 4.216 0 013.924-3.924 4.209 4.209 0 014.472 4.472 4.23 4.23 0 01-3.924 3.924zm-.127-1.94a2.261 2.261 0 01-2.405-2.405 2.275 2.275 0 012.115-2.115 2.261 2.261 0 012.405 2.405 2.275 2.275 0 01-2.115 2.115z" fill-opacity=".7"/></g><defs><clipPath id="gclip0"><path d="M.25 0h20v20h-20z"/></clipPath></defs></symbol><symbol viewBox="0 0 11 16" id="mark" xmlns="http://www.w3.org/2000/svg"><path d="M5.5.434C2.504.434.067 2.818.067 5.747c0 3.636 4.862 8.973 5.069 9.199a.497.497 0 00.728 0c.207-.226 5.068-5.563 5.068-9.199 0-2.93-2.437-5.313-5.432-5.313zm0 7.986c-1.507 0-2.733-1.199-2.733-2.673S3.993 3.074 5.5 3.074c1.507 0 2.733 1.2 2.733 2.673 0 1.474-1.226 2.673-2.733 2.673z" fill-opacity=".7"/></symbol><symbol viewBox="0 0 74 65" id="s-why-1" xmlns="http://www.w3.org/2000/svg"><path d="M65.612 20.248v6.337l.306.747-.306.124V38.63l4.214-1.719.924 2.262c.407 1-.051 2.137-1.023 2.535L18.863 62.469c-.963.393-2.106-.12-2.505-1.094l-.923-2.263 38.926-15.89H26.99l-15.464 6.313L8.95 43.22H6.363l7.78 19.057A4.336 4.336 0 0018.163 65c.552 0 1.094-.106 1.607-.315l50.863-20.762c2.194-.897 3.241-3.434 2.334-5.657l-7.355-18.018z"/><path d="M51.588 26.253v-1.54l-.894 1.54h.894zm-30.878-1.54l-.892 1.54h.891v-1.54zm5.848 2.204a.73.73 0 00.134-.457c0-.208-.05-.368-.153-.48a.488.488 0 00-.375-.166.497.497 0 00-.317.109c-.138.107-.207.28-.207.517 0 .192.051.35.155.47a.496.496 0 00.394.183c.157 0 .28-.06.37-.176zM10.29 35.563a.639.639 0 00.373-.118c.114-.076.173-.217.176-.425v-.229a.722.722 0 01-.12.06 1.09 1.09 0 01-.165.041l-.14.027a.905.905 0 00-.285.084.283.283 0 00-.146.262c0 .105.03.18.088.226a.346.346 0 00.22.072zm24.285-8.473c.16 0 .288-.05.378-.146.091-.096.137-.234.137-.409 0-.182-.047-.32-.139-.415a.502.502 0 00-.376-.142.505.505 0 00-.376.142c-.093.094-.139.232-.139.415 0 .176.046.313.137.41.09.096.218.144.378.144zm-17.664 6.935a.493.493 0 00-.368.133.639.639 0 00-.163.366h1.06a.513.513 0 00-.163-.374.546.546 0 00-.366-.125zm20.466-9.47a.488.488 0 00-.308.1c-.135.104-.203.284-.203.535 0 .212.044.37.13.478.087.105.219.158.397.158a.482.482 0 00.274-.084c.16-.1.239-.279.239-.529 0-.202-.046-.362-.14-.48a.469.469 0 00-.389-.178zm-2.803.884a.434.434 0 00.332-.125.448.448 0 00.117-.318.461.461 0 00-.117-.332c-.078-.081-.19-.12-.332-.12a.446.446 0 00-.333.12c-.08.08-.12.19-.12.332 0 .129.04.236.12.318.08.084.191.125.333.125zM24.442 34.92a.878.878 0 00-.283.084.283.283 0 00-.146.262c0 .105.03.18.088.226a.337.337 0 00.216.072.636.636 0 00.373-.118c.114-.077.172-.217.176-.425v-.229a.652.652 0 01-.12.06 1.123 1.123 0 01-.165.041l-.14.027zm10.336 0a.856.856 0 00-.284.084.283.283 0 00-.146.262c0 .105.03.18.089.226a.338.338 0 00.217.072.638.638 0 00.372-.118c.114-.077.173-.217.176-.425v-.229a.692.692 0 01-.285.101l-.139.027zm6.13-.762a.638.638 0 00-.164.366h1.06a.518.518 0 00-.165-.374.543.543 0 00-.364-.125c-.159 0-.28.044-.367.133zm16.158-7.065a.44.44 0 00.368-.176.724.724 0 00.135-.457c0-.208-.052-.368-.154-.48a.485.485 0 00-.375-.166.492.492 0 00-.316.109c-.138.107-.207.28-.207.517 0 .192.05.35.155.47a.498.498 0 00.394.183zM6.104 26.76c.067.218.206.328.414.328.209 0 .345-.109.41-.327.057-.187.084-.46.093-.79.001-.053.007-.095.007-.152 0-.43-.032-.75-.097-.957-.064-.207-.201-.31-.41-.31-.21 0-.346.102-.414.31-.07.207-.101.527-.101.957 0 .211.009.396.027.556.013.151.037.28.071.386z"/><path d="M2.502 40.599a4.26 4.26 0 001.827.423h55.453a4.282 4.282 0 003.006-1.24 4.4 4.4 0 001.323-3.144V4.385a4.397 4.397 0 00-1.323-3.144A4.287 4.287 0 0059.782 0H4.33C1.942 0 0 1.968 0 4.385v32.253c0 1.752 1.03 3.26 2.502 3.96zm2.783-14.78c0-.59.092-1.046.274-1.366.183-.32.502-.48.958-.48.455 0 .775.16.958.48.167.292.248.71.262 1.225.001.05.013.087.013.14 0 .59-.092 1.044-.275 1.362-.183.319-.503.479-.958.479-.455 0-.775-.159-.958-.479a1.925 1.925 0 01-.19-.535 3.787 3.787 0 01-.084-.826zm33.507-14.317a5.92 5.92 0 015.913-5.912c1.284 0 2.467.425 3.438 1.124 1.008-.806 2.27-1.309 3.657-1.309a5.834 5.834 0 015.074 2.954c.504.868.814 1.863.814 2.937a5.896 5.896 0 01-5.888 5.89 5.835 5.835 0 01-3.407-1.105c-1.015.819-2.285 1.332-3.688 1.332-1.909 0-3.589-.924-4.67-2.33a5.813 5.813 0 01-1.048-2.16 5.753 5.753 0 01-.195-1.421zM37.68 34.229c-.053-.115-.154-.17-.306-.17-.176 0-.294.056-.355.17a.66.66 0 00-.048.29v1.417h-.626v-2.352h.6v.343a.985.985 0 01.216-.26.74.74 0 01.464-.14c.178 0 .326.038.437.119a.687.687 0 01.203.284c.081-.14.18-.24.3-.306a.912.912 0 01.732-.037.686.686 0 01.407.516c.015.079.022.195.022.349l-.005 1.485h-.63v-1.501a.491.491 0 00-.045-.22c-.054-.108-.154-.164-.3-.164-.172 0-.29.071-.355.212a.677.677 0 00-.05.27v1.403h-.62v-1.404a.76.76 0 00-.04-.304zm.047-7.95a.933.933 0 01-.485.118c-.284 0-.535-.097-.756-.294-.221-.197-.331-.48-.331-.849 0-.382.11-.694.332-.93.22-.239.507-.357.861-.357.545 0 .918.24 1.12.722.116.272.171.632.171 1.077 0 .433-.054.792-.165 1.081-.212.55-.597.826-1.158.826-.27 0-.51-.08-.722-.238-.214-.16-.337-.391-.368-.694h.699c.017.105.062.19.133.257a.406.406 0 00.29.097c.23 0 .393-.127.486-.385.052-.141.083-.346.096-.618a.657.657 0 01-.203.187zm-4.2-.984a1.075 1.075 0 01-.077-.376.88.88 0 01.293-.666c.196-.183.473-.274.83-.274s.634.091.83.274a.874.874 0 01.294.666c0 .116-.026.241-.078.376-.05.133-.165.25-.337.348.176.098.31.229.399.391.088.163.134.344.134.545 0 .301-.111.558-.334.768-.222.21-.534.316-.934.316s-.702-.105-.908-.316a1.059 1.059 0 01-.31-.768c0-.2.046-.382.137-.545a.86.86 0 01.397-.367c-.171-.114-.284-.238-.336-.372zm1.578 8.779a.647.647 0 00-.3-.057c-.148 0-.253.038-.313.11a.436.436 0 00-.087.216h-.596a.907.907 0 01.174-.507c.163-.207.443-.312.841-.312.259 0 .489.052.691.153.201.103.301.297.301.58v1.081c0 .074.002.166.005.273.005.08.017.134.037.164a.24.24 0 00.092.073v.09h-.67a.612.612 0 01-.038-.135 1.372 1.372 0 01-.018-.143 1.253 1.253 0 01-.295.236.885.885 0 01-.453.116.788.788 0 01-.531-.181c-.14-.122-.21-.295-.21-.518 0-.29.112-.499.337-.629.123-.071.306-.12.545-.15l.21-.026c.116-.016.197-.032.248-.054.088-.037.132-.095.132-.175-.001-.102-.036-.17-.102-.205zm-2.465.143c-.06-.12-.175-.181-.342-.181-.208 0-.35.088-.428.265a.912.912 0 00-.06.359v1.275h-.617v-2.352h.597v.343a.998.998 0 01.223-.26.775.775 0 01.48-.143c.243 0 .441.063.595.192.155.126.232.339.232.633v1.588h-.631v-1.432a.64.64 0 00-.05-.287zm-3.423 1.249c.025.024.098.035.225.035h.06c.022-.003.042-.003.063-.005v.461l-.292.01c-.29.01-.49-.041-.597-.15-.069-.072-.104-.18-.104-.328v-1.451h-.33V33.6h.33v-.659h.61v.659h.383v.437h-.383v1.246c-.002.098.01.158.035.182zm.12-9.496a5 5 0 00-.272.813 3.4 3.4 0 00-.12.79h-.73c.022-.642.232-1.307.631-2 .26-.429.475-.728.649-.897h-1.781l.009-.631h2.524v.55a4.271 4.271 0 00-.44.554 4.668 4.668 0 00-.47.82zm-10.041.832v-.613l1.314-2.168h.79v2.233h.404v.55h-.405v.769h-.688v-.77h-1.415zm1.607 5.947h.666v2.613h1.593v.574h-2.259V32.75zm1.565-5.358c-.217-.183-.34-.442-.364-.776h.699c.027.153.082.27.16.353.078.082.192.124.342.124a.467.467 0 00.398-.184.742.742 0 00.137-.461.816.816 0 00-.127-.462c-.086-.126-.219-.189-.4-.189a.66.66 0 00-.221.032.444.444 0 00-.25.219l-.63-.03.25-1.974h1.967v.596h-1.46l-.128.781a1.33 1.33 0 01.254-.14c.101-.038.225-.056.371-.056.296 0 .553.098.773.297.22.2.329.487.329.867 0 .33-.107.625-.317.886-.212.26-.528.388-.951.388-.335.003-.614-.088-.832-.271zm2.301 6.683a.645.645 0 00-.299-.057c-.147 0-.253.038-.314.11a.427.427 0 00-.087.216h-.595a.907.907 0 01.174-.507c.163-.207.445-.312.842-.312.258 0 .488.052.69.153.202.103.303.297.303.58v1.081c0 .074.001.166.005.273.004.08.017.134.037.164.02.028.05.053.091.073v.09h-.67a.79.79 0 01-.055-.278 1.253 1.253 0 01-.296.236.888.888 0 01-.453.116.793.793 0 01-.532-.181c-.14-.122-.21-.295-.21-.518 0-.29.113-.499.339-.629.123-.071.306-.12.545-.15l.211-.026c.116-.016.197-.032.247-.054.086-.042.13-.101.13-.178-.002-.099-.035-.167-.103-.202zm.415-6.974c-.166-.294-.25-.673-.25-1.14 0-.272.012-.494.035-.665a2.04 2.04 0 01.24-.76c.1-.173.235-.312.4-.416.164-.106.362-.16.592-.16.332 0 .596.086.794.256.198.17.308.397.334.68h-.698a.347.347 0 00-.068-.19c-.075-.112-.19-.168-.343-.168-.229 0-.392.128-.487.384-.053.142-.089.35-.11.627a.786.786 0 01.304-.227 1.01 1.01 0 01.394-.071c.318 0 .578.108.78.323.202.216.305.491.305.826 0 .334-.1.627-.298.883-.2.255-.508.383-.928.383-.45 0-.782-.188-.996-.565zm2.137 8.066c-.058-.036-.273-.098-.647-.185-.266-.068-.455-.15-.564-.25-.11-.099-.165-.24-.165-.423 0-.218.085-.406.257-.562.171-.157.413-.236.722-.236.294 0 .535.059.72.177.186.119.292.319.32.607h-.617a.366.366 0 00-.067-.187c-.069-.083-.184-.124-.346-.124-.134 0-.23.022-.287.062-.058.042-.087.092-.087.148a.16.16 0 00.091.153c.061.033.275.09.643.17.246.059.43.145.552.264.12.118.183.264.183.442a.718.718 0 01-.262.572c-.174.147-.444.22-.807.22-.372 0-.647-.077-.823-.234a.762.762 0 01-.265-.598h.625c.014.11.042.186.085.232.076.084.219.124.427.124a.654.654 0 00.29-.054c.071-.034.108-.09.108-.162a.175.175 0 00-.086-.156zm-10.71.263a.633.633 0 00.34.089c.14 0 .255-.036.343-.108a.491.491 0 00.127-.165h.629c-.018.14-.093.282-.23.427-.21.229-.506.344-.887.344-.314 0-.59-.097-.83-.29-.24-.193-.36-.507-.36-.943 0-.408.108-.72.325-.94.217-.216.497-.325.843-.325.205 0 .39.037.555.11.164.072.3.19.407.349.096.14.158.304.188.486.017.11.024.266.02.47h-1.716c.008.233.092.4.246.496zm-.569-10.473a.785.785 0 01-.187.533.638.638 0 01-.246.185c.064 0 .155.054.274.166.18.166.268.392.268.68 0 .302-.104.569-.314.798-.209.23-.52.343-.929.343-.504 0-.856-.166-1.054-.495-.104-.176-.161-.407-.172-.69h.69c0 .142.022.26.067.354.085.172.24.259.466.259a.516.516 0 00.36-.142c.102-.095.153-.23.153-.408 0-.236-.096-.392-.285-.47-.108-.045-.28-.068-.512-.068v-.504c.228-.003.387-.025.477-.068.106-.047.162-.139.197-.252.016-.052.038-.1.038-.167a.476.476 0 00-.119-.333.44.44 0 00-.336-.128c-.165 0-.287.052-.365.158a.658.658 0 00-.112.422h-.655a1.75 1.75 0 01.092-.505c.057-.14.147-.267.27-.387a.954.954 0 01.327-.192c.126-.045.281-.067.465-.067.342 0 .618.089.827.265.19.16.282.377.3.637.004.028.015.048.015.076zm-1.358 9.259c-.055-.108-.155-.164-.303-.164-.17 0-.288.07-.352.212a.658.658 0 00-.05.27v1.403h-.62v-1.404a.782.782 0 00-.044-.304c-.052-.115-.153-.17-.305-.17-.176 0-.293.056-.355.17a.66.66 0 00-.049.29v1.417h-.625v-2.352h.599v.343a.982.982 0 01.216-.26.742.742 0 01.465-.14c.179 0 .326.038.437.119.09.072.157.168.202.284a.809.809 0 01.3-.306.908.908 0 01.731-.037.696.696 0 01.409.516c.014.079.021.195.021.349l-.004 1.485h-.631v-1.501a.453.453 0 00-.042-.22zm28.691-9.49a.443.443 0 00-.358-.151c-.214 0-.36.08-.436.239-.044.093-.071.24-.08.438h-.682c.011-.303.067-.55.166-.737.188-.358.52-.535.998-.535.379 0 .68.104.904.314.223.21.335.487.335.833 0 .264-.08.5-.237.706a2.418 2.418 0 01-.512.456l-.28.2a6.14 6.14 0 00-.363.27.815.815 0 00-.164.196h1.56v.62h-2.447c.005-.257.061-.491.164-.703.1-.239.337-.49.712-.758.321-.23.533-.397.628-.499a.738.738 0 00.219-.511.574.574 0 00-.127-.379zm-1.546 8.904a.921.921 0 01.407.348c.098.14.16.304.19.486.016.11.024.266.018.47h-1.717c.01.234.092.402.248.497a.63.63 0 00.34.089c.14 0 .254-.036.343-.108a.506.506 0 00.127-.165h.628c-.017.14-.092.282-.228.427-.211.229-.507.344-.886.344-.313 0-.591-.097-.83-.29-.24-.193-.36-.507-.36-.943 0-.408.109-.72.325-.94.216-.215.498-.325.844-.325.204 0 .389.036.55.11zm-1.105-6.058h-.721v-2.465h-.84v-.478a2.98 2.98 0 00.465-.045.648.648 0 00.344-.186.6.6 0 00.138-.257.566.566 0 00.026-.142h.588v3.573zm8.096-1.504c-.108-.044-.28-.067-.512-.067v-.504c.227-.003.388-.025.477-.068.157-.07.235-.208.235-.42a.472.472 0 00-.12-.332.438.438 0 00-.334-.129c-.167 0-.288.053-.366.159a.666.666 0 00-.111.422h-.655a1.7 1.7 0 01.091-.505c.056-.14.148-.268.27-.387a.955.955 0 01.327-.192c.126-.045.282-.067.464-.067.342 0 .618.089.83.264.208.176.312.413.312.712 0 .21-.064.389-.187.533a.625.625 0 01-.248.185c.066 0 .157.055.278.165.179.167.267.394.267.681 0 .301-.104.567-.313.797-.21.229-.52.344-.93.344-.505 0-.858-.166-1.054-.497-.104-.175-.16-.406-.171-.69h.689a.79.79 0 00.07.355c.084.173.24.259.463.259a.515.515 0 00.36-.141c.102-.096.154-.23.154-.409-.001-.232-.098-.388-.286-.468zm3.86.186v.55h-.405v.768h-.688v-.769h-1.413v-.614l1.313-2.168h.791v2.233h.403zm1.91-.268c-.083-.126-.217-.189-.398-.189a.66.66 0 00-.221.032.446.446 0 00-.25.219l-.63-.03.251-1.974h1.967v.596h-1.461l-.128.781c.11-.071.192-.118.253-.14a1.08 1.08 0 01.372-.056c.296 0 .553.098.772.297.22.2.33.487.33.867 0 .33-.107.625-.317.886-.21.26-.528.388-.95.388-.341 0-.62-.09-.838-.272-.217-.183-.342-.44-.366-.776h.7a.67.67 0 00.16.353c.08.082.195.124.344.124a.47.47 0 00.4-.184.762.762 0 00.135-.462.778.778 0 00-.124-.46zm3.618-1.088h-.7a.357.357 0 00-.067-.19c-.075-.111-.19-.168-.343-.168-.228 0-.393.128-.488.384a2.41 2.41 0 00-.108.627.774.774 0 01.302-.227c.115-.048.248-.072.396-.072.315 0 .576.108.78.324.202.216.304.491.304.825 0 .334-.1.628-.3.883-.198.255-.506.383-.927.383-.45 0-.782-.189-.994-.565-.168-.294-.25-.672-.25-1.14 0-.272.013-.494.034-.665.04-.305.121-.557.24-.76a1.22 1.22 0 01.4-.416c.165-.106.363-.159.594-.159.331 0 .597.085.794.255a.986.986 0 01.333.68zm-46.103-.918c.38 0 .68.104.904.314.224.21.336.487.336.833 0 .264-.079.5-.237.706-.103.134-.27.284-.503.448l-.009.007-.282.2a6.618 6.618 0 00-.362.27.816.816 0 00-.164.196h1.56v.62H10.9a1.71 1.71 0 01.148-.658l.016-.046c.1-.24.336-.491.711-.758.323-.231.534-.398.628-.499a.734.734 0 00.22-.512.574.574 0 00-.126-.377.441.441 0 00-.359-.15c-.213 0-.358.08-.435.239-.045.093-.072.239-.079.438h-.684c.012-.304.067-.55.166-.737a.929.929 0 01.34-.35c.065-.04.142-.062.216-.088.135-.045.268-.096.443-.096zM6.99 35.936h-.62V32.75h.698l1.265 2.223V32.75h.62v3.187h-.665l-1.296-2.261v2.261H6.99zm2.136-8.365v-2.465h-.842v-.478c.222-.01.376-.025.465-.045a.648.648 0 00.344-.186.612.612 0 00.137-.257.58.58 0 00.027-.142h.588v3.575h-.406l-.313-.002zm-2.31-11.168V14.13H9.1v2.326H6.822c0-.018-.006-.034-.006-.052zm2.284 3.04a3.195 3.195 0 01-2.026-1.791H9.1v1.791zm1.197-1.791h1.974v1.937h-1.974v-1.937zm3.17 0h2.028a3.197 3.197 0 01-2.027 1.791v-1.791zm2.284-1.249c0 .019-.004.034-.004.052H13.47v-2.326h2.282v2.274zm-2.881-3.472l-.6.001v3.522h-1.973v-5.801h2.268c1.439 0 2.644.965 3.038 2.277H12.87zm-3.77 0H6.964A3.18 3.18 0 019.1 10.8v2.13zm.606 21.75c.123-.07.305-.121.545-.151l.211-.026a.947.947 0 00.246-.054c.089-.038.134-.097.134-.174 0-.098-.034-.163-.102-.201a.645.645 0 00-.299-.057c-.147 0-.253.038-.313.11a.436.436 0 00-.088.216h-.594a.899.899 0 01.173-.507c.164-.207.445-.312.842-.312.259 0 .489.052.691.153.201.104.302.297.302.58v1.081c0 .074.002.166.005.273.005.08.016.136.037.164a.24.24 0 00.09.073v.09h-.67a.616.616 0 01-.038-.135 1.8 1.8 0 01-.017-.143 1.251 1.251 0 01-.295.236.889.889 0 01-.453.116.792.792 0 01-.533-.181c-.14-.122-.209-.295-.209-.518-.002-.294.11-.505.335-.633z"/><path d="M41.191 14.611a4.678 4.678 0 003.514 1.604c1.004 0 1.93-.32 2.696-.86h1.98c.015-.011.024-.027.04-.039a5.15 5.15 0 00.864-.87h-3.448a6.332 6.332 0 01-.379-.702h4.279c.154-.288.28-.592.378-.91H46.14c-.02-.072-.05-.142-.066-.215-.045-.187-.063-.379-.086-.57h5.308c.032-.234.07-.469.07-.712 0-.067-.016-.13-.021-.197h-5.421a5.94 5.94 0 01.079-.764h5.263a5.212 5.212 0 00-.267-.909h-4.771c.091-.273.195-.532.321-.785h4.053c-.084-.137-.195-.252-.287-.38-.131-.18-.249-.371-.404-.531h-2.799c.055-.071.115-.138.17-.207a4.69 4.69 0 00-2.575-.775 4.719 4.719 0 00-4.714 4.713 4.644 4.644 0 001.198 3.11z"/></symbol><symbol viewBox="0 0 38 65" id="s-why-2" xmlns="http://www.w3.org/2000/svg"><path d="M33.408 0H4.43A4.402 4.402 0 00.04 4.39v56.218A4.404 4.404 0 004.43 65h28.978a4.401 4.401 0 004.39-4.39V4.39A4.402 4.402 0 0033.409 0zM14.284 3.165h9.27a.531.531 0 010 1.064h-9.27a.531.531 0 110-1.064zm4.635 59.64a2.195 2.195 0 01-2.195-2.197c0-1.215.982-2.195 2.195-2.195 1.213 0 2.195.98 2.195 2.195a2.195 2.195 0 01-2.195 2.197zm15.825-5.93H3.094V6.962h31.65v49.913z"/></symbol><symbol viewBox="0 0 60 65" id="s-why-3" xmlns="http://www.w3.org/2000/svg"><path d="M59.106 11.188V0C55.91 1.382 49.913 3.38 47.13 3.53c-2.782.15-15.904-1.886-19.457-1.008-2.857.71-18.554 12.458-23.253 15.69-7.482 5.173-.865 5.995 2.274 4.8 3.158-1.196 13.347-6.855 13.347-6.855-.037 1.139.15 2.764 1.166 4.52 0 0 1.165 1.625 2.556 3.212-3.008 1.364-5.113 4.39-5.113 7.883 0 2.97 1.523 5.603 3.816 7.153H7.428c-.827 0-1.504.673-1.504 1.495v23.086c0 .822.677 1.494 1.504 1.494h39.928c.828 0 1.504-.672 1.504-1.494V40.438c0-.822-.676-1.494-1.504-1.494H32.28c2.312-1.569 3.816-4.184 3.816-7.154a8.573 8.573 0 00-2.143-5.678c-.019-.019-.038-.019-.038-.037 2.181-1.084 4.475-3.008 10.02-5.267 9.324-3.81 12.482-8.126 15.17-9.62zm-25.717 8.798c-1.748 1.232-2.951 2.428-3.647 3.474a8.566 8.566 0 00-1.203-.243c-.357-1.158-.977-2.69-1.917-4.707 0 0-.433-1.009-.282-2.223.357-1.344 1.579-2.801 5.056-3.25 5.847-.747 6.693 2.186 4.042 5.249-.564.56-1.26 1.14-2.049 1.7zm.827 22.525c.828 0 1.504.673 1.504 1.495 0 .822-.676 1.494-1.504 1.494H20.55a1.503 1.503 0 01-1.504-1.494c0-.822.677-1.495 1.504-1.495h13.666zm-6.824-4.352c-3.534 0-6.429-2.857-6.429-6.387 0-3.512 2.877-6.388 6.43-6.388.526 0 1.033.056 1.522.186 0 1.009.79 1.588 2.106 1.457.206-.018.394-.056.582-.074 1.354 1.176 2.219 2.895 2.219 4.819a6.431 6.431 0 01-6.43 6.388z"/><path d="M26.416 32.65c.338.037.79.037 1.034.037 1.88 0 2.895-1.214 2.895-2.54 0-1.29-.733-2.522-3.064-2.522-.546 0-1.805.019-2.238.019v3.698H23.71v1.326h1.334v.336H23.71v1.327h1.334v1.157h1.392v-1.157h2.218v-1.327h-2.218v-.355h-.02zm0-3.717c.376-.02.714-.02.996-.02.94 0 1.448.412 1.448 1.215 0 .878-.64 1.27-1.467 1.27a8.59 8.59 0 01-.977-.056v-2.41z"/></symbol><symbol viewBox="0 0 63 65" id="s-why-4" xmlns="http://www.w3.org/2000/svg"><path d="M5.417 47.667c-.598 0-1.084.486-1.084 1.084v2.166a1.084 1.084 0 002.167 0v-2.166c0-.598-.486-1.084-1.083-1.084zm0 6.5c-.598 0-1.084.485-1.084 1.083v2.167a1.084 1.084 0 002.167 0V55.25c0-.598-.486-1.083-1.083-1.083zm0-13c-.598 0-1.084.485-1.084 1.083v2.167a1.084 1.084 0 002.167 0V42.25c0-.598-.486-1.083-1.083-1.083zm4.333 6.5c-.598 0-1.083.486-1.083 1.084v2.166a1.084 1.084 0 002.167 0v-2.166c0-.598-.486-1.084-1.084-1.084zm0-6.5c-.598 0-1.083.485-1.083 1.083v2.167a1.084 1.084 0 002.167 0V42.25c0-.598-.486-1.083-1.084-1.083zm0 13c-.598 0-1.083.485-1.083 1.083v2.167a1.084 1.084 0 002.167 0V55.25c0-.598-.486-1.083-1.084-1.083z"/><path d="M61.75 11.917h-2.167v-3.25c0-.598-.485-1.084-1.083-1.084H52c-.598 0-1.083.486-1.083 1.084v3.25H48.75c-.598 0-1.083.485-1.083 1.083v17.333h-1.084v-3.25c0-.598-.485-1.083-1.083-1.083h-1.083v-1.083a1.084 1.084 0 00-2.167 0V26h-1.083c-.598 0-1.084.485-1.084 1.083v3.25h-3.25V8.667c0-.598-.485-1.084-1.083-1.084H32.5v-6.5C32.5.485 32.015 0 31.417 0h-13c-.598 0-1.084.485-1.084 1.083v6.5h-3.25c-.598 0-1.083.486-1.083 1.084v28.166h-2.167v-3.25c0-.598-.485-1.083-1.083-1.083h-6.5c-.598 0-1.083.485-1.083 1.083v3.25H1.084C.486 36.833 0 37.32 0 37.917v26C0 64.515.486 65 1.084 65H61.75c.598 0 1.084-.485 1.084-1.083V13c0-.598-.486-1.083-1.084-1.083zM30.334 13a1.084 1.084 0 012.166 0v17.333h-2.167V13zM26 5.417a1.084 1.084 0 012.167 0v3.25a1.084 1.084 0 01-2.167 0v-3.25zM26 13a1.084 1.084 0 012.167 0v17.333H26V13zm-4.333-7.583a1.084 1.084 0 012.166 0v3.25a1.084 1.084 0 01-2.166 0v-3.25zM17.333 13a1.084 1.084 0 012.167 0v23.833h-2.167V13zm4.334 47.667h-3.25a1.084 1.084 0 010-2.167h3.25v2.167zm0-4.334h-3.25a1.084 1.084 0 010-2.166h3.25v2.166zm0-4.333h-3.25a1.084 1.084 0 010-2.166h3.25V52zm0-4.333h-3.25a1.084 1.084 0 010-2.167h3.25v2.167zm0-6.5h-7.584c-.598 0-1.083.485-1.083 1.083v20.583H2.167V39h19.5v2.167zm0-9.75V13a1.084 1.084 0 012.166 0v17.333H22.75c-.598 0-1.083.486-1.083 1.084zm26 31.416H45.5V35.75a1.084 1.084 0 00-2.166 0v27.083h-2.167V35.75a1.084 1.084 0 00-2.167 0v27.083h-2.166V35.75a1.084 1.084 0 00-2.167 0v27.083H32.5V35.75a1.084 1.084 0 00-2.166 0v27.083h-2.167V35.75a1.084 1.084 0 00-2.167 0v27.083h-2.166V32.5h23.833v30.333zm6.5-4.122a1.084 1.084 0 01-2.167 0v-2.166a1.084 1.084 0 012.167 0v2.166zm0-6.5a1.084 1.084 0 01-2.167 0v-2.166a1.084 1.084 0 012.167 0v2.166zm0-6.5a1.084 1.084 0 01-2.167 0v-2.166a1.084 1.084 0 012.167 0v2.166zm0-6.5a1.084 1.084 0 01-2.167 0v-2.166a1.084 1.084 0 012.167 0v2.166zm0-6.5a1.084 1.084 0 01-2.167 0v-2.166a1.084 1.084 0 012.167 0v2.166zm0-6.5a1.084 1.084 0 01-2.167 0v-2.166a1.084 1.084 0 012.167 0v2.166zm0-6.5a1.084 1.084 0 01-2.167 0v-2.166a1.084 1.084 0 012.167 0v2.166zm4.333 39a1.084 1.084 0 01-2.166 0v-2.166a1.084 1.084 0 012.166 0v2.166zm0-6.5a1.084 1.084 0 01-2.166 0v-2.166a1.084 1.084 0 012.166 0v2.166zm0-6.5a1.084 1.084 0 01-2.166 0v-2.166a1.084 1.084 0 012.166 0v2.166zm0-6.5a1.084 1.084 0 01-2.166 0v-2.166a1.084 1.084 0 012.166 0v2.166zm0-6.5a1.084 1.084 0 01-2.166 0v-2.166a1.084 1.084 0 012.166 0v2.166zm0-6.5a1.084 1.084 0 01-2.166 0v-2.166a1.084 1.084 0 012.166 0v2.166zm0-6.5a1.084 1.084 0 01-2.166 0v-2.166a1.084 1.084 0 012.166 0v2.166z"/></symbol><symbol viewBox="0 0 19 18" id="share" xmlns="http://www.w3.org/2000/svg"><g clip-path="url(#mclip0)"><path d="M3.778 11.668c.723 0 1.356-.271 1.809-.723l6.422 3.708c-.09.181-.09.452-.09.633 0 1.538 1.175 2.714 2.713 2.714s2.714-1.176 2.714-2.714c0-1.537-1.176-2.713-2.714-2.713-.724 0-1.357.271-1.81.723l-6.42-3.708c.09-.181.09-.452.09-.633s0-.452-.09-.633l6.422-3.8c.452.453 1.085.724 1.809.724a2.625 2.625 0 002.623-2.623A2.625 2.625 0 0014.632 0a2.625 2.625 0 00-2.623 2.623c0 .181 0 .362.09.633l-6.422 3.8c-.452-.453-1.085-.724-1.809-.724-1.538 0-2.713 1.176-2.713 2.713 0 1.538 1.085 2.623 2.623 2.623z" fill-opacity=".7"/></g><defs><clipPath id="mclip0"><path transform="rotate(-180 18.25 18)" d="M18.25 18h18v18h-18z"/></clipPath></defs></symbol><symbol viewBox="0 0 35 36" id="user" xmlns="http://www.w3.org/2000/svg"><path d="M35 17.936C35 8.499 27.15.82 17.5.82S0 8.5 0 17.936c0 4.984 2.192 9.477 5.68 12.608l-.016.014.567.468c.037.03.077.055.114.085.302.245.614.477.932.702a17.889 17.889 0 001.356.869l.235.132c.39.217.788.422 1.196.61l.09.04a17.619 17.619 0 004.35 1.33c.46.078.927.14 1.398.182l.173.013c.47.038.944.062 1.425.062.477 0 .947-.024 1.414-.061l.177-.013c.468-.042.93-.102 1.386-.179l.12-.02a17.646 17.646 0 004.172-1.28l.146-.064a17.731 17.731 0 002.438-1.363c.117-.078.233-.161.35-.243.279-.197.553-.4.82-.612.059-.047.122-.087.18-.135l.582-.476-.017-.014C32.788 27.46 35 22.946 35 17.936zm-33.727 0c0-8.752 7.28-15.87 16.227-15.87 8.948 0 16.227 7.118 16.227 15.87 0 4.715-2.116 8.955-5.465 11.864a4.79 4.79 0 00-.569-.334l-5.388-2.635a1.377 1.377 0 01-.784-1.24v-1.84c.125-.151.257-.322.393-.509a12.58 12.58 0 001.664-3.188 2.256 2.256 0 001.327-2.047V15.8c0-.54-.202-1.063-.564-1.474V11.42c.033-.323.15-2.146-1.198-3.65C21.97 6.463 20.07 5.8 17.5 5.8c-2.572 0-4.47.663-5.643 1.972-1.348 1.504-1.231 3.327-1.198 3.65v2.904a2.239 2.239 0 00-.564 1.475v2.206c0 .685.314 1.324.852 1.756.516 1.974 1.577 3.47 1.969 3.976v1.801c0 .508-.284.975-.74 1.219l-5.032 2.684c-.16.085-.319.185-.478.296-3.309-2.907-5.393-7.12-5.393-11.802z" fill-opacity=".7"/></symbol></svg>