<?xml version="1.0" encoding="utf-8"?><svg xmlns="http://www.w3.org/2000/svg" xmlns:xlink="http://www.w3.org/1999/xlink"><symbol viewBox="0 0 15 11" id="arrow-b-right" xmlns="http://www.w3.org/2000/svg"><path d="M15 5.505L0 .489l4.385 5.016L0 10.52l15-5.016z"/></symbol><symbol viewBox="0 0 15 11" id="arrow-left" xmlns="http://www.w3.org/2000/svg"><path d="M15 5.5L0 0l4.385 5.5L0 11l15-5.5z"/></symbol><symbol viewBox="0 0 43 13" id="arrow-long-left" xmlns="http://www.w3.org/2000/svg"><path d="M7.696 1.093L1.063 6.746m0 0L7.82 12.25M1.063 6.746H42"/></symbol><symbol viewBox="0 0 15 11" id="arrow-right" xmlns="http://www.w3.org/2000/svg"><path d="M0 5.5L15 11l-4.385-5.5L15 0 0 5.5z"/></symbol><symbol viewBox="0 0 344.96 344.96" id="check" xmlns="http://www.w3.org/2000/svg"><g data-name="Слой 2"><path d="M321.85 86.24l-40-23.11-23.1-40H212.5L172.48 0l-40 23.11H86.24l-23.11 40-40 23.1v46.21L0 172.48l23.11 40v46.21l40 23.11 23.11 40h46.21l40 23.1 40-23.11h46.21l23.11-40 40-23.11V212.5l23.11-40-23.11-40V86.24zM156.91 243.07a16.79 16.79 0 01-23.34 0l-50.45-50.44a16.19 16.19 0 010-22.89l13.35-13.35a16.19 16.19 0 0122.89 0l25.87 25.87 80.34-80.35a16.19 16.19 0 0122.89 0l13.35 13.35a16.19 16.19 0 010 22.89z" data-name="Capa 1"/></g></symbol><symbol viewBox="0 0 22 22" id="close" xmlns="http://www.w3.org/2000/svg"><path d="M1 1l20 20M1 21L21 1"/></symbol><symbol viewBox="0 0 51 50" id="doc" xmlns="http://www.w3.org/2000/svg"><g clip-path="url(#agclip0)"><path d="M6.07 5.83v43.312c0 .46.373.833.833.833h31.651c.46 0 .833-.373.833-.833V14.16c0-.019-.01-.035-.01-.053a.785.785 0 00-.043-.214c-.01-.027-.016-.053-.028-.079a.825.825 0 00-.167-.244L30.81 5.241a.808.808 0 00-.321-.194.825.825 0 00-.216-.043c-.014.002-.03-.006-.048-.006H6.903a.833.833 0 00-.833.832zm30.473 7.497h-5.485V7.84l5.485 5.486zM7.736 6.663h21.656v7.497c0 .46.373.832.833.832h7.496V48.31H7.736V6.663z"/><path d="M41.051 43.311v1.666h2.5c.46 0 .832-.372.832-.833V.833A.833.833 0 0043.55 0H11.9a.833.833 0 00-.834.833v2.499h1.666V1.666h29.985V43.31h-1.666z"/><path d="M12.734 16.658h19.99v1.666h-19.99v-1.666zm0-4.998h6.664v1.667h-6.664V11.66zm0 9.996h13.327v1.666H12.734v-1.666zm14.989 0h4.997v1.666h-4.997v-1.666zm-14.989 4.997h19.99v1.666h-19.99v-1.666zm0 9.995h19.99v1.666h-19.99v-1.666zm7.496-4.998h12.494v1.666H20.231v-1.665zm-7.496 0h5.83v1.666h-5.83v-1.665zm0 9.996h3.332v1.665h-3.332v-1.665zm4.996 0h14.993v1.665H17.73v-1.665z"/></g><defs><clipPath id="agclip0"><path d="M.25 0h50v50h-50z"/></clipPath></defs></symbol><symbol viewBox="0 0 21 21" id="donate" xmlns="http://www.w3.org/2000/svg"><g clip-path="url(#ahclip0)" fill-opacity=".7"><path d="M8.269 16.458l-.83.498a2.773 2.773 0 01-4.043-1.457 2.905 2.905 0 00-.763 1.966 2.92 2.92 0 002.916 2.917 2.92 2.92 0 002.917-2.917c0-.347-.076-.685-.197-1.007zm9.944-13.542L12.38.416a.418.418 0 00-.49.122l-1.666 2.083a.42.42 0 00.14.634L16.656 6.4a1.24 1.24 0 001.429-.219 1.24 1.24 0 00.38-.898V3.299c0-.168-.1-.318-.253-.383z"/><path d="M5.133 17.191V18.3a.417.417 0 00.833 0v-.952a2.753 2.753 0 01-.833-.156zM16.285 7.147L9.277 3.643l-4.162 1.56a2.09 2.09 0 00-1.055.88L2.33 8.966a2.072 2.072 0 00-.077 2.004l1.227 2.455a2.526 2.526 0 011.056-1.201 38.68 38.68 0 001.454-.87c-.018-.011-.031-.03-.05-.04-.075-.454-.297-.856-.507-1.15.637-.274 1.49-.768 1.922-1.273a4.9 4.9 0 001.51.575c-.486.602-.982 1.348-1.162 1.845a8.83 8.83 0 00-.731.39c-.44.309-1.077.703-2.022 1.246-.426.245-.725.681-.84 1.227a1.948 1.948 0 00-.039.352c0 .038.003.075.004.112a1.835 1.835 0 00.115.6c.013.033.024.068.038.102.047.108.1.215.168.315a1.969 1.969 0 00.563.54c.374.235.824.339 1.265.297.054-.006.109-.01.163-.021a1.923 1.923 0 00.623-.228l2.864-1.718c.448-.109 2.675-.775 4.363-3.505a31.7 31.7 0 002.05-3.87c0-.002 0-.003-.002-.003z"/></g><defs><clipPath id="ahclip0"><path transform="translate(.25 .382)" d="M0 0h20v20H0z"/></clipPath></defs></symbol><symbol viewBox="0 0 21 13" id="eye" xmlns="http://www.w3.org/2000/svg"><path d="M10.25.421c-3.821 0-7.286 2.09-9.844 5.486a.792.792 0 000 .946c2.558 3.4 6.023 5.49 9.844 5.49 3.821 0 7.287-2.09 9.843-5.486a.792.792 0 000-.945c-2.556-3.4-6.022-5.49-9.843-5.49zm.274 10.159a4.21 4.21 0 01-4.472-4.472 4.216 4.216 0 013.924-3.924 4.209 4.209 0 014.472 4.472 4.23 4.23 0 01-3.924 3.924zm-.127-1.94a2.261 2.261 0 01-2.405-2.405 2.275 2.275 0 012.115-2.115 2.261 2.261 0 012.405 2.405 2.275 2.275 0 01-2.115 2.115z" fill-opacity=".7"/></symbol><symbol viewBox="0 0 21 20" id="eye_1" xmlns="http://www.w3.org/2000/svg"><g clip-path="url(#ajclip0)"><path d="M10.25 4.04c-3.821 0-7.286 2.09-9.844 5.485a.792.792 0 000 .945c2.558 3.4 6.023 5.49 9.844 5.49 3.821 0 7.287-2.09 9.843-5.485a.792.792 0 000-.945c-2.556-3.4-6.022-5.49-9.843-5.49zm.274 10.158a4.21 4.21 0 01-4.472-4.472 4.216 4.216 0 013.924-3.924 4.209 4.209 0 014.472 4.472 4.23 4.23 0 01-3.924 3.924zm-.127-1.94a2.261 2.261 0 01-2.405-2.405 2.275 2.275 0 012.115-2.115 2.261 2.261 0 012.405 2.405 2.275 2.275 0 01-2.115 2.115z" fill-opacity=".7"/></g><defs><clipPath id="ajclip0"><path d="M.25 0h20v20h-20z"/></clipPath></defs></symbol><symbol viewBox="0 0 11 20" id="facebook" xmlns="http://www.w3.org/2000/svg"><path d="M8.245 3.32h1.83V.14A23.676 23.676 0 007.409 0C4.77 0 2.964 1.656 2.964 4.7v2.8H.053v3.555h2.91V20h3.57v-8.944h2.793L9.77 7.5H6.532V5.05c0-1.027.278-1.73 1.713-1.73z"/></symbol><symbol viewBox="0 0 12 20" id="fast" xmlns="http://www.w3.org/2000/svg"><path d="M.714 19.874l6.402-6.431a.417.417 0 00-.296-.71h-.51a.417.417 0 01-.328-.676l3.395-4.28a.416.416 0 00-.327-.675H7.343a.417.417 0 01-.333-.667L11.346.667A.417.417 0 0011.013 0H4.155a.414.414 0 00-.373.231L.429 7.014a.417.417 0 00.373.602h1.546c.309 0 .51.326.373.603L.43 12.857a.417.417 0 00.373.603H2.26c.308 0 .508.32.375.598l-2.589 5.34c-.206.424.338.81.67.476z"/></symbol><symbol viewBox="0 0 21 20" id="insta" xmlns="http://www.w3.org/2000/svg"><path d="M10.066 4.864a5.136 5.136 0 00-5.142 5.132 5.136 5.136 0 005.142 5.131 5.136 5.136 0 005.143-5.131 5.136 5.136 0 00-5.143-5.132zm0 8.463a3.333 3.333 0 01-3.338-3.331c0-1.84 1.494-3.33 3.338-3.33a3.334 3.334 0 013.338 3.33c0 1.84-1.493 3.33-3.338 3.33z"/><path d="M14.194.063c-1.844-.086-6.411-.082-8.256 0C4.316.139 2.885.529 1.732 1.68-.195 3.604.052 6.195.052 9.996c0 3.89-.218 6.421 1.68 8.316 1.935 1.93 4.57 1.677 8.333 1.677 3.862 0 5.194.003 6.56-.525 1.856-.719 3.257-2.375 3.394-5.349.087-1.84.082-6.397 0-8.239-.165-3.51-2.053-5.64-5.825-5.813zm2.918 16.976c-1.263 1.261-3.016 1.148-7.071 1.148-4.175 0-5.85.062-7.071-1.16-1.407-1.398-1.153-3.642-1.153-7.044 0-4.604-.473-7.92 4.157-8.157 1.064-.037 1.377-.05 4.055-.05l.038.025c4.45 0 7.941-.465 8.15 4.155.049 1.054.06 1.37.06 4.04-.002 4.117.077 5.798-1.165 7.043z"/><path d="M15.41 5.861a1.2 1.2 0 001.202-1.199 1.2 1.2 0 00-1.201-1.2 1.2 1.2 0 100 2.4z"/></symbol><symbol viewBox="0 0 60 60" id="logo-top" xmlns="http://www.w3.org/2000/svg"><path d="M27.255 25.327c.01-.01.032-.021.053-.042a.883.883 0 00.19-.328c-.042.01-.095.01-.137.01a.622.622 0 01-.54-.285c-.159.074-.582.264-.392.889v.042l.826-.286zm5.239-8.922a.824.824 0 00.233.032c.18 0 .349-.043.487-.085.455-.137.857-.201 1.196-.19-.307-.794-1.038-.879-1.345-.879-.243 0-.434.053-.518.106-.032.021-.074.042-.106.074-.233.159-.54.36-.89.445.16.053.223.074.234.074.254.084.487.233.709.423zm-5.493.9c.053-.085.095-.17.159-.244a1.12 1.12 0 01.137-.17c-.201.043-.413.043-.614.054-.275.01-.55.01-.815.106-.391.137-.529.603-.571.9.211-.17.465-.276.751-.308.37-.063.688-.169.953-.338zm8.065-1.81c-.01 0-.064-.043-.16-.085-.03-.01-.073-.021-.105-.032l-.032-.01-.01-.021c-.318-.794-.784-1.334-1.376-1.599l-.021-.01-.01-.01a1.18 1.18 0 01-.138-.054l-.022-.01c-.01 0-.031-.01-.042-.01-.053-.011-.095-.033-.106-.033l-.021-.01-.042-.032-.244-.17h.01c-.518-.36-1.026-.55-1.502-.55a2.02 2.02 0 00-.9.223l-.031.02-.138.064-.19-.053a2.309 2.309 0 00-.456-.053c-.391 0-.963.127-1.45.752l-.01.01-.201.064c-.201.127-.752.53-1.08 1.164h.085c.01-.02.02-.032.032-.053.01-.01.889-1.206 2.688-1.503 0 0 .211-.042.582-.042.656 0 1.937.159 3.165 1.249a.864.864 0 01.105.116c1.165.117 1.556 1.175 1.62 1.376.031.01.063.021.084.032.678.265.964.857 1.07 1.397.02-.931-.551-1.757-1.154-2.127zm-7.578 8.71a.601.601 0 01-.19-.031c-.054.095-.138.285 0 .434a.29.29 0 00.19.063c.074 0 .254-.032.317-.296a.857.857 0 00.021-.265.704.704 0 01-.338.095zM36.6 21.02c.36-.255.55-.53.582-.815.043-.37-.084-.678-.095-.678l-.032-.042.032-.042c.879-1.154.392-2.445.127-2.9l-.032-.043-.127-.127-.02-.01-.011-.021c-.212-.794-.868-1.577-1.62-1.937l-.19-.106-.01-.01-.202-.36h-.01l-.011-.022c-.35-.592-.773-1.016-1.27-1.249l-.01-.01-.011-.01-.01-.011a1.163 1.163 0 00-.318-.138l-.022-.01c-.02-.011-.042-.011-.063-.022a.56.56 0 01-.116-.032c-.032-.01-.043-.01-.043-.01h-.01l-.424-.201h.032c-.55-.307-1.09-.455-1.609-.455-.518 0-.878.158-1.047.254l-.022.01-.01.021-.01-.01-.011-.01-.032-.011-.043.053v-.064a2.466 2.466 0 00-.688-.095c-.391 0-.973.106-1.502.592l-.011.011h-.01a1.94 1.94 0 00-.34.127l-.084.043c-.455.264-.984.635-1.291 1.206l-.01.01-.011.011c-.021.01-.043.043-.064.074-.084.149-.127.265-.159.35l-.01.053c-.01.031-.01.063-.01.074v.02l-.149.149-.116.127c-.752.624-.815 1.81-.826 1.863v.053l-.17.01c-.232.402-.465 1.46-.19 2.636-.032-.381.043-.71.212-.995 0-.16-.074-.625.01-.89.127-.402.191-.698.509-.835.074-.35.36-1.313 1.143-1.514.105-.55.465-1.238 1.513-1.514.265-.476.741-1.037 1.514-1.037.285 0 .603.085.942.254.232-.18.698-.465 1.29-.465.636 0 1.27.317 1.864.952.444.021 1.757.254 2.032 1.958.307.053.751.286 1.09.699.317.391.635 1.069.36 2.106l-.01.053-.096-.021c.042.38-.095.73-.106.825 0 .01.01.01.01.021.34.37.498 1.27.032 2.107zm-2.455-3.038c.084.021.18.032.286.042.412.064.91.138 1.323.413a5.986 5.986 0 00-.18-1.058c-.064-.254-.635-.73-1.503-.73-.201 0-.402.02-.603.073a2.003 2.003 0 01-.699.064c.116.138.233.275.339.434.476.455.846.73 1.037.762zm-.498.286c.244.656.805.836.815.846.91.34 1.376.72 1.45 1.218a.418.418 0 00.085-.106l.021-.032c.106-.17.19-.423.074-.773-.275-.825-1.175-.973-1.693-.984a1.99 1.99 0 01-.752-.17zM17.18 25.75c-.01 0-.021-.011-.021-.011s0 .01.02.01zm-2.53-6.17s-.116.094-.307.253c.18-.148.297-.243.307-.254zm-1.407 1.322zm2.688-.17c-.085.138-.286.371-.56.657.274-.286.475-.53.56-.656zm11.441 1.885c.032.053.043.042.021-.01.032.052.01.063-.02.01-.202-.35-.329-.815-.403-1.27.01-.021.01-.043.01-.064 0 .021-.01.043-.01.064a3.52 3.52 0 01-.18.54c-.148.38.138.793.35 1.005.285.264.497.434.634.54a8.262 8.262 0 01-.402-.815zm-.624-1.672c-.127-.91-.085-1.747-.085-1.758v-.042c-.148.381-.624.635-.857 1.016-.18.297.042 1.016.042 1.027.243.254.487.434.582.497.074-.285.233-.508.318-.74zm5.842-6.023c.201-.084.318-.084.466-.084a3.8 3.8 0 00-1.948-.995c-.01 0-.349-.096-.836-.096-.518 0-1.016.096-1.471.286-.01 0-.783.296-1.429 1.016 0 0 .043.032.064.032 0 0 .571-.71 1.376-.857.116-.021.232-.032.349-.032.645 0 .815.402.815.487v.107h.01c0 .01-.01.02-.01.02 0 .011 0 .011 0 0 0-.01.01-.02.01-.02a.638.638 0 01.212-.244c.89-.656 2.392.381 2.392.381zm.667 8.256c0 .01.148.963.709 1.153.413.138.656-.328.656-.794 0-.402-.317-.772-.36-.825v.01a2.493 2.493 0 01-1.005-.285c0 .148-.032.434 0 .74zm2.625 3.948s.01 0 .01-.011c0 0-.01 0-.01.01zm-1.556-12.32h.042-.042zm1.577 1.64v.002zm.032.19c0 .011.01.011.02.022l-.02-.021zm-10.69 3.42a1.96 1.96 0 01.931-.847c.201-.074.36-.286.487-.53-.01.085-.01.085 0 0 .032-.317.085-.603.19-.846-.402.212-.592.116-1.545.582-.677.55-.18 1.46-.063 1.64.01.011.01.022.01.022s-.01-.011-.01-.022zm7.652-5.748c-.01 0-.01 0-.021-.01a.728.728 0 01-.085-.032c.021.021.064.032.106.042zm1.514 10.383c-.032.021-.075.032-.117.053-.286.085-.497-.01-.667-.159-.296-.275-.296-.275 0 0 0 0-.476-.349-.571-.9-.01-.042-.01-.073-.021-.116-.011-.042-.011-.084-.022-.116 0 .032.011.074.022.116 0 .138.02.381.084.625.064.137.138.317.233.476 0 .01.01.01.021.021l.212.307c-.01-.021-.032-.032-.042-.053-.075-.085-.127-.18-.19-.275a1.533 1.533 0 01-.234-.476c.043.17.117.338.233.476.053.095.117.19.19.275.011.01.032.032.043.053.243.286.677.773 1.122.89.476.116.73-.477.36-.795-.19-.169-.593-.434-.657-.402zm-10.987 5.832c-.02 0-.042.01-.063.01.021 0 .042-.01.063-.01zm4.89-15.03c-.032-.01-.053-.02-.084-.031-.096-.042-.202-.106-.233-.116-.096-.032-.18-.064-.254-.085.084-.085.56-.561 1.026-.699a1.07 1.07 0 01.307-.042c.37 0 .604.18.646.318.042.18-.032.349-.212.497-.497.36-1.196.159-1.196.159zm-.127-.348l.01-.022c-.01.01-.01.021-.01.021zm2.35.391c-.19-.127-.297-.286-.275-.466.01-.137.232-.349.592-.402.106-.01.212-.01.318 0 .487.064 1.016.476 1.111.55-.074.032-.148.075-.233.117-.032.01-.127.085-.211.138-.022.01-.053.031-.085.042-.01.01-.667.307-1.217.021zm1.28-.392l.011.022s0-.01-.01-.021zm-4.074.487l-.011.021.01-.02zm5.313-.254c.01.01.01.021.01.032 0-.01 0-.021-.01-.032zm-5.514.201c-.011 0-.011 0 0 0-.011 0-.011 0 0 0zm5.292-.211h.063-.063zm-5.367.296a.06.06 0 00.053.032c.022 0 .043-.01.127-.074-.084.063-.105.074-.127.074-.031 0-.042-.01-.053-.032zm.17.783l.032-.031a2.65 2.65 0 01.93-.55c.022-.011.022-.011 0 0a2.499 2.499 0 01-.475-.085v-.011c-.286-.095-.329-.17-.89-.254-.095-.01-.253-.032-.423 0-.02 0-.031.01-.053.01.021 0 .032-.01.053-.01v.01c-.042.011-.084.011-.127.032-.296.095-.614.381-.804 1.08.211-.043.434-.021.592-.01a2.57 2.57 0 001.186-.212c0 .01-.01.02-.021.031zM26.302 31.18c-.01 0-.01-.01-.021-.01a.956.956 0 01-.91.634c-.53 0-.953-.412-.953-.91 0-.508.424-.91.953-.91.529 0 .952.413.952.91a.79.79 0 01-.042.276c.01 0 .01 0 .021.01zm-.021-.021l-.01-.01c0 .01.01.01.01.01zm10.86 8.044c.422 0 .835.042 1.227.137-4.086-1.926-8.859-5.366-10.997-6.964.667.826 1.567 1.937 2 2.456.562.677 2.657 2.847 4.128 3.852-3.683-1.767-6.202-5.62-7.006-6.975-.01-.01-.021-.01-.021-.02a1.75 1.75 0 01-.244.242c.402.73 3.863 7.388 6.308 9.77.931-1.503 2.646-2.498 4.604-2.498zm-12.723 6.445c.17-.264.466-.772.582-1.122.18-.529.201-1.598.17-2 0 0 0-.201-.021-.688-.011-.17-.043-.635-.022-1.206.022-.657.032-1.059.032-1.059s-.095-.148-.35-.053c-.2.074-.782.275-.602 2.149v.02l.296.445c.106.117.212.466.074.572-.064.053-.201.085-.392-.212l.233 3.154zm16.903 2.36a4.742 4.742 0 001.344-3.302c0-2.688-2.286-4.879-5.091-4.879s-5.09 2.191-5.09 4.88c0 1.777.983 3.354 2.645 4.233.392.074.688.116.921.116.212 0 .318-.031.402-.053a1 1 0 00.106-.031c.159-.032.71-.54.857-.72-.17-.01-.571-.032-.815-.117-.455.307-.91.466-1.344.466-.476 0-.751-.19-.762-.2l-.01-.012c-.106-.116-.17-.222-.17-.317v-1.884h1.28V44.96h1.504v-2.265h-.974l-.466.223v-1.07l.466.223h.974v-1.46l-.233-.445h1.111l-.233.444v1.46h.963l.466-.221v1.069l-.455-.223h-.963v2.265h1.503v1.228h1.28v1.969c.106.095.212.2.297.296.021-.021.233-.18.487-.445zM20.46 44.474s-.01 0 0 0c-.01 0 0 0 0 0zm3.588-1.608c-.053.084-.117.127-.18.127-.032 0-.074-.01-.127-.021a.279.279 0 01-.095-.064c-.392-.286-.381-.773-.381-.773v-.031l-.032.01s-.159.064-.318.043c-.222-.011-.38-.138-.592-.297-.032-.032-.074-.053-.117-.084l-.01-.011-.01.01c-.064.043-.202.075-.392.075-.255 0-.52-.043-.593-.053-.106-.021-.201 0-.233.053-.021.031-.021.063 0 .084.053.085.328.096.497.096.244 0 .561-.032.73-.096.233.297.805.466.91.487.022.074.202.667.234.677l.116 3.06c-.074.349-.01.275-.38.54-.234.168-1.366.803-1.377.814h-.01l-.17.36c-.952-1.365-.349-3.292-.285-3.461h.01v-.01l.01-.032h-.02l-.434-1.683c0-.01-.075-.89-.043-1.26.021-.275.254-.307.36-.307h.042c1.651.117 1.948.445 1.948.445.212.201.709.995.772 1.1a.482.482 0 00.128.128c.01.042.042.063.042.074zm-1.28 3.185a1.156 1.156 0 01-.53.138.762.762 0 01-.582-.254c-.243-.265-.381-.698-.413-.825l-.032-.106-.02.105c-.054.297-.022.73.454 1.165.032.02.297.19.625.19s.614-.159.857-.487c.212-.296.127-.73.01-1.037l-.063-.18.021.19c.053.593-.053.964-.328 1.101zm1.343-4.519v.01-.01zm-.92-2.794s-.35.085-.508.063c0 0-.244.688-.445 1.133 0 0 .37-.021 1.016.35l-.064-1.546zm.857 3.535c-.17-.275-.72-1.175-.72-1.175s-.878-.497-2.35-.645c-.391.105-.296.698-.296.698s.19-.254.783-.19c.73.084 1.09.105 1.588.338.328.148.508.477.889 1.27 0 0 .085.138.148.19l-.042-.486zm-.667-1.62c-.402-.338-.974-.57-1.693-.687h-.021c-.022 0-.032-.022-.064-.032a.56.56 0 00-.36-.127c-.032.01-.19.085-.233.222-.032.085-.01.17.053.275a.342.342 0 00.233.075.537.537 0 00.36-.149c.01-.01.032-.02.063-.02.276 0 1.493.55 1.493.55.222.127.614.783.794 1.248-.022-.222-.117-.92-.625-1.354zm-.106-2.624c-.815.159-1.005.233-1.206.466-.233.275-.614.846-.582 1.206.148.106.508.138.592.148a5.47 5.47 0 00.223-.54c.052-.137.095-.285.137-.402.074-.233.074-.243.106-.243h.01v.01h.011c.138 0 .71-.116.805-.169l.031-.021.01.032c.043.17.52.571.72.635.053.01.096.02.138.02.159 0 .328-.116.36-.126-.042-.032-.582-.497-.55-.561l-.117-.127-.116-.127s-.212-.222-.487-.222c-.021.01-.053.01-.085.02zm14.617 8.933a4.084 4.084 0 012.032.624v-.815h-1.281v-1.228h-2.455v1.229h-1.281v.74c.878-.222 1.44-.466 1.44-.466.857-.18 1.545-.084 1.545-.084zm2.053-18.395c.021 0 .053 0 .084-.01-.052.01-.084.01-.084.01zm-8.076-.085c-.01 0-.01 0 0 0-.01 0-.01 0 0 0zm.53 23.179zm-6.594-21.93c0-.032.413.095.571.254.021.021 1.662-.074 5.578-1.09-.815.021-3.8.042-6.096-.836l-.053 1.672zm.465.296v-.02.02zm10.182 21.03c-.01 0-.032 0-.042.011-.032.01-.074.01-.117.01a1.58 1.58 0 01-.455-.094c-.032-.011-.053-.022-.074-.022-1.26-.36-1.736-.825-2.095-1.46a2.704 2.704 0 01-.318-.942c.222.54.455.91.699 1.09.031.021.063.053.095.074.391.307.762.593 1.916.752.105.01.264-.17.264-.223a.152.152 0 00-.021-.074c.148.074-.116-.063-.138-.063-.328 0-1.65-.18-2.201-1.038-.339-.55-.635-.93-.71-1.195.18.232.805.973 1.525 1.217.01 0 .56.18 1.143.18.095 0 .18 0 .254-.011.656-.074 1.154-.677 1.164-.677 0 0 .265-.307.413-.424.201-.159.275-.285.212-.36l-.022-.02-.02.02c-.043.043-.202.201-.286.223a1.118 1.118 0 01-.329.053c-.338 0-.624-.138-.74-.223l-.022-.01-.01.02s-.286.424-.995.551c-.095.021-.201.021-.286.021-.317 0-.56-.095-.635-.254-.042-.084-.032-.169.032-.264l.01-.01c0 .105.9-.18.89-.234.391-.127.72-.254.846-.317.54-.064.858-.085 1.08-.085h.233c.434.021.889.043 1.65.36.7.286 1.482 1.1 1.493 1.111h.01c.011 0 .096.021.106.01l.022-.03a2.44 2.44 0 00.264-.234c.127.149.445 1.387.455 1.651-.243.149-1.376.815-2.942 1.61-.01 0-.572.285-1.376.285-.73 0-1.418-.222-2.053-.667-.37-.254-.741-.603-.974-.825.879.582 2.032.751 2.043.751.106.01.148-.032.17-.063a.152.152 0 00.01-.138c0-.01-.138-.042-.138-.042zm-9.546-20.373c.01.074.01.137.01.211v.032c.519.17 3.842 1.175 7.398 1.175.603 0 1.186-.032 1.736-.085l.423-.042.55-.053-.497.233-.38.18c-.604.285-1.461.423-2.53.423-1.313 0-2.71-.212-3.821-.423 3.884 1.915 8.922 3.757 9.758 3.937l.043.01.084.022-.01.084-.022.138-.01.085-.085-.011h-.042c-1.873-.17-5.768-1.355-9.272-3.027a136.32 136.32 0 002.033 1.429c.275.17.709.487 1.27.878 1.418 1.027 3.566 2.572 5.958 3.832 2.17.762 3.63 2.773 3.63 4.995 0 .614-.116 1.239-.338 1.82.582-.497 1.44-1.121 2.18-1.27.032-.01.053-.01.053-.01h.042l.096-.01.01.095.021.137.011.096-.095.01-.043.01c-.01 0-.02 0-.031.011-.148.032-.614-.01-1.874 1.281.53.18 1.313.54 2.276 1.228 0 0 .38.285.392.285.38-.328.444-.412.804-.762.317-.317.635-.645.942-.984 0 0-6.16-15.431-6.806-15.982-.677-.582-1.65-1.121-1.757-1.185h-.01l-3.07-1.958c-3.09 2.201-9.027 3.165-9.027 3.165zm3.598 22.067c-.212.01-.423.021-.624.021-2.011 0-3.43-.783-3.842-1.048a4.27 4.27 0 01-1.143.233l.053 1.8c1.661.36 3.376.55 5.1.55a23.49 23.49 0 009.114-1.81c1.693-.699 3.408-1.736 4.879-2.805-.275-.328-1.736-1.99-1.736-1.99l-.444.34s.635 2 .635 2.02l-.826.593c-.455.254-1.683.932-2 1.112l-.064.042c-.423.243-1.196.688-2.17.688-.412 0-.815-.085-1.196-.254a6.703 6.703 0 01-1.185-.656c-.35.063-2.582 1.058-4.551 1.164zm-2.762-11.568v.01-.01zm-4.065-13.664c-.01 0-.02.01-.031.01.01 0 .02 0 .031-.01zM22.471 9.906l.01.011.318.296.328-.317-.328-.318-.328.328zm.635-1.227a.092.092 0 00-.064-.085c-.01.01-.02.01-.042.021h-.01c-.022.01-.043.01-.064.021-.021 0-.042.011-.053.011h-.052a.394.394 0 01-.191-.021c-.011 0-.011 0-.022-.01-.01 0-.02-.011-.031-.011-.01 0-.022-.01-.032-.01-.042.01-.064.052-.064.084 0 .053.043.095.106.095h.424a.095.095 0 00.095-.095zm-.635 2.148l.01.01.318.308.317-.307.011-.01-.01.01-.318-.286-.318.286-.01-.01zm.148.667H23v-.286l-.19.18-.191-.18v.286zm.402.18h-.423l-.148.519h.719l-.148-.519zm-.413-2.657v.456l.19-.18.191.18v-.456h-.38zm.381-2.931h-.783c-.01.01-.01.02-.02.031l.264.688c-.01.011-.01.011 0 0l.074.212.233.614h.095l.571-1.535h-.19l-.244-.01zm-.72-.18h.869c0 .01-.011.01-.011.02 0-.01.01-.01.01-.02h.16c.031 0 .073-.01.105-.021 0 0 0 .01-.01.01 0 0 0-.01.01-.01a.728.728 0 00.254-.074.736.736 0 00-.137-.053c.01-.011.01-.022.02-.022-.01.011-.01.022-.02.022-.053-.011-.127-.032-.212-.043a3.476 3.476 0 00-.519-.031c-.105 0-.19 0-.275.01-.296.021-.487.064-.56.095 0 .01-.011.01-.011.022.031.042.148.074.328.095zm.52 1.714h.042-.043c-.042 0-.042 0 0 0zm.317.477a.307.307 0 01-.148.254c-.01.01-.021.01-.032.02-.021.011-.042.011-.053.022a.08.08 0 00.053-.021.38.38 0 01-.265 0c.021.01.043.01.053.021a.08.08 0 01-.053-.021c-.01-.01-.02-.01-.042-.021a.298.298 0 01-.138-.254.31.31 0 01.318-.307c.032 0 .074.01.106.01-.064-.031-.127-.031-.18 0l-.127.053.127-.053a.262.262 0 01.18 0l.063.032c-.01-.01-.02-.01-.032-.01.011 0 .022.01.032.01l.064.032-.064-.032a.364.364 0 01.138.265zm-.487.264s0-.01 0 0zm-9.96 33.964h-.01.01zm10.013 9.05c.01-.011.021-.022.021-.033-.01.011-.01.022-.021.032zm1.016.126l-.254-4.233c-.117.105-.116.105-1.545.92 0 0-.244.424-.254.434l-.741.392-1.694.847-.095 2.042s3.768 1.694 4.657 1.704l-.074-2.106zm-3.376-11.05c-.233 1.853.233 3.049.285 3.282-5.027-.54-7.101 3.418-7.26 3.81a24.169 24.169 0 01-2.318-2.678c1.069-1.355 1.831-2.254 2-2.35.329-.18 2.234-.762 2.943-.762h.01c.085.096.17.117.233.117.095 0 .19-.053.244-.138a.272.272 0 00.031-.254l-.18-.159-.148-.02a2.282 2.282 0 00-.296-.022c-.201 0-.445.021-.73.053-.55.064-1.239.244-1.673.381l1.27-2.223v-.02l1.302-3.229.318-.973c-.01 0-.021 0-.021-.011l.116-.318s.095-.296.222-.666c.053-.149.106-.307.159-.466v-.01c.042-.128.095-.255.138-.382.137-.38.307-.825.36-.878.01-.01.095-.148.169-.275.01-.021.032-.043.042-.064.053-.095.106-.17.106-.18h.01c3.07-4.773 5.293-4.964 5.293-4.964.01-.01.232 10.362.232 10.362-1.672.042-2.656 1.397-2.857 3.038zm-2.043-8.922c0-.01 0-.01 0 0-.01.01-.021.01 0 0zm5.832 6.128c.296.678.836 1.281 1.111 1.61.307.348.222.56.201 1.026 0 .084.085.995-.01.995.042 1.175.254 2.402-.16 3.535a5.047 5.047 0 01-.486.952c-.117.18-.117.117-.117.244l.032.709c.064 1.492.127 2.974.18 4.466 0 .042 0 .085.01.127 1.207-.084 2.15-.751 3.113-1.407-.34.508-.636 1.058-1.154 1.418 1.217.772 4.657.963 6.89-.117-.296-.285-1.365-1.757-1.037-3.704.074-.434-.815-.243-.773-2.837.021-1.396.572-2.222.572-2.222-2.096-.89-6.668-10.277-6.668-10.277-.635.275-1.45-.127-1.725-.71-.34-.74.127-1.671.889-1.883.285-.085.127-.931.127-1.207v-1.81c-.265.075-1.366.202-1.355.487l.36 10.605zm10.732-15.621c-.297.169-.593.264-.89.264-.338 0-.624-.116-.835-.233l-.043-.02s-.01 0-.01-.011l-.032-.022-.042.043c-.064.02-.085.106-.106.159-.053.18-.074.36-.064.55a4.78 4.78 0 00-.063.74c0 .032 0 .075-.01.117 0 .01-.488.921-.032 1.852.031.064.052.127.073.19 0 0 .498 1.186 2.022 1.133 0 0-.56.9-2.138 1.292-.18.042-.317.042-.413.01-.349.01-.709.032-1.047.032-3.25 0-4.996-.688-5.377-.868.021-.635.053-.857.074-.889a2.52 2.52 0 01.339-.18c.434-.212 1.164-.571 1.418-.942l.021-.032a.619.619 0 00.254-.54.504.504 0 00.127-.232c.085-.307-.021-.572-.032-.614v-.021h-.01c0-.01-.01-.021-.021-.032-.011-.01-.032-.021-.064-.021s-.053.01-.095.032a.712.712 0 01-.328.095.36.36 0 01-.244-.085c-.18-.275.117-.688.117-.698.328.148.614.211.624.211l.043.01.02-.041c.36.56 1.07 1.428 2.043 1.45h.064c1.037 0 1.662-.741 1.767-.932.032-.053.053-.106.022-.159-.032-.031-.064-.053-.106-.053-.074 0-.148.064-.159.064l-.01.01c-.022.032-.54.741-1.63.816-.953.063-1.726-1.122-2.107-1.832 0-.02-.02-.042-.042-.084-.032-.053-.053-.106-.074-.148-.36-.794-.54-1.842-.498-3.038v-.085c-.01-.148-.105-1.47.445-2.17.455-.57.857-.719 1.28-.878.149-.053.308-.116.466-.2.244-.117.402-.244.498-.382.106.286.434.508.54.55.095.032.211.064.328.085.264.064.571.138.9.307.073.053.147.095.232.138.244.158.466.36.667.614.042.063.084.148.159.264.053.095.127.18.2.254l.223.222.021.032c0 .01-.042.699.55 1.133v.18c0 .02.011.56.54 1.047.18.17.138.381.096.498-.096.254-.392.518-.741.518-.053 0-.106-.01-.16-.02h-.01l-.02.095h.01c.148.031.275.052.402.052.53 0 .836-.317.836-.836 0-.243-.159-.402-.35-.592a2.573 2.573 0 01-.306-.35 1.225 1.225 0 01-.201-.434l-.021-.116c.084.053.19.106.296.148.01 0 1.185.339.984 1.28-.106.488-.677 1.207-1.26 1.207a.69.69 0 01-.39-.127c-.107-.074-.265-.412-.329-.54l-.053-.116-.042.127c0 .01-.095.339.063.593.106.159.276.265.519.296.074.01.148.021.212.021.931 0 1.45-.963 1.502-1.64.064-.074.117-.138.16-.212.052.17.349 1.048-.752 1.694zm-4.953-3.948l.02.042c.022.064.117.286.255.286h.02a.45.45 0 00.265-.201c.032-.064.022-.106.011-.127-.021-.053-.063-.053-.074-.053-.042 0-.074.032-.116.063-.022.011-.043.043-.053.043a.38.38 0 01-.074-.032c-.053-.032-.096-.064-.149-.064-.02 0-.042 0-.052.011l-.053.032zm.867 3.217c.011.117-.01.148-.02.148 0 0-.011.011-.022.011-.053 0-.137-.063-.18-.095l-.074-.064-.021.106s-.042.212-.19.212h-.011c-.127 0-.17-.043-.19-.085v-2.73h-.265l.074 2.148.074.35-.053.084s-.042.074-.116.074c-.043 0-.053-.01-.053-.01-.011-.011.01-.064.031-.096l.074-.106-.127.011c-.074.01-.169.138-.18.243 0 .053.011.18.202.233.031.01.084-.01.127-.032.053.085.18.212.37.212.095 0 .19-.042.265-.116a.443.443 0 00.084-.127c.043.02.117.032.17.02.095-.02.158-.063.19-.126.043-.127-.063-.275-.074-.296l-.116-.149.031.18zm-.158-2.519l-.265-.01-.074 2.688.222-.508.117-2.17zm-3.144-.402l.17-.106s.529-.328 1.1-.296c.424.021.974.35.974.35l.244.147-.17-.222c-.01-.021-.38-.497-.963-.593-.085-.01-.159-.02-.243-.02-.73 0-1.006.54-1.016.56l-.096.18zm1.82.71c.064.063.17.2.17.2l.095.127v-.254c0-.01-.01-.55-.592-.74a1.094 1.094 0 00-.318-.043c-.572 0-.942.424-1.005.508a.596.596 0 00-.096.18l-.031.074h.084c.138 0 .37-.127.572-.222.01 0 .01-.01.021-.01 0 .052 0 .105.021.147.032.117.17.202.275.244h.01l.139.01c.19 0 .253-.063.317-.148.01-.01.021-.031.042-.042a.402.402 0 00.085-.18c.106.053.18.116.212.148zm1.98 3.534l-.085-.105c-.084 0-.212.01-.264.01-.096 0-.16-.053-.233-.116-.053-.043-.106-.096-.17-.106h-.02l-.022.01s-.032.011-.053.021l-.01.011-.011.01-.01.011c-.032.032-.043.053-.138.053h-.01c-.085 0-.107-.021-.107-.021-.042-.053-.084-.063-.116-.063a.165.165 0 00-.095.031l-.01.01-.011.011a.369.369 0 01-.16.149c-.063.01-.137.031-.232.031h-.201l.074.106a.52.52 0 00.434.233c.074 0 .148-.01.233-.042l.01.01.021.021c-.052.011-.084.011-.116.032-.17.064-.265.106-.243.286.01.053.084.138.148.148.032.01.053.01.085.01.052 0 .095-.01.137-.02a3.08 3.08 0 01.244-.032c.031.01.2.032.306.032h.085a.178.178 0 00.138-.053c.042-.043.053-.127.053-.16 0-.094-.117-.253-.561-.264l.02-.02c.033 0 .085 0 .149.01.085.01.17.01.254.01.106 0 .18-.01.233-.031.106-.032.201-.16.254-.223zm1.662-3.46l-.022-.075a.943.943 0 00-.105-.243 1.226 1.226 0 00-1.281-.424c-.582.191-.593.741-.593.741v.254l.095-.127s.106-.137.17-.2l.01-.011a.778.778 0 01.19-.148.44.44 0 00.086.19l.042.042c.074.085.127.149.328.149l.138-.011h.01c.106-.053.233-.127.275-.244a.628.628 0 00.022-.148c.02.011.052.032.084.043.18.095.36.2.487.2l.063.011zm.148-1.048l-.148-.16c-.022-.02-.434-.444-1.154-.444s-1.08.72-1.1.752l-.128.254.212-.19s.466-.413.878-.488c.032-.01.074-.01.117-.01.391 0 1.09.222 1.1.222l.223.064zm.032 2.889l.084.106c0 .01.127.159.307.159a.338.338 0 00.17-.043.361.361 0 00.2-.211c.149-.328.075-.91-.084-1.281-.064-.148-.117-.212-.18-.212-.042 0-.074.032-.085.074v.021c.212.815.117 1.154.01 1.302a.308.308 0 01-.243.117h-.052l-.127-.032zM18.395 51.501l.275-5.525 1.186-1.672s-3.419-.423-5.99 3.8c0 0 1.66 1.905 4.529 3.397zm.826-2.212l1.936-.995s-1.08-.995-.402-3.852l-.296-.053-1.1 1.704-.138 3.196zm23.274-1.842c1.534.816 2.18 1.98 2.18 1.98l.55-.434c-1.069-1.419-2.381-1.863-2.381-1.863l-.35.317zm9.165-7.133a22.978 22.978 0 01-1.513 2.91c.01 0 .01.011.01.011l-.317.445c-1.958-1.387-2.509-5.112-2.53-5.271h.01c-.03-.402-.063-.646-.094-.92-.043-.329-.085-.625-.096-1.345-.02-1.323-.54-2.89-1.323-3.99-.307-.424-.402-.519-.666-.762l-.032-.032c-.01-.01-.19-.17-.37-.17-.032 0-.054 0-.085.011l-.19.064.137.159c.444.508.847 1.29.698 1.81-.01.052-.042.073-.084.095-.265-.127-.614-.805-.858-1.26-.328-.624-.423-.783-.582-.783l-.063.021c-.16.074-.096.339-.053.498.084.232.296.815.38 1.121.054.201.075.593.032.688h-.042c-.54 0-1.026-1.206-1.026-1.206s-.995-2.191-2.138-2.794l-1.874-1.143c.265-.011.212 0 .466-.053.942-.223 1.206-.37 1.44-.604 1.132-1.132.93-2.508.91-2.667a3.477 3.477 0 00-.117-.434c-.254-.73-.317-1.28-.286-1.83a4.87 4.87 0 01.71-2.181c.54-.9 1.502-2.149 2.878-2.646.223-.127.604-.19 1.048-.19 1.196.084 2.117.412 2.816.793.846.466 1.513 1.207 1.958 2.064.296.561.582 1.143.825 1.725a22.56 22.56 0 011.842 8.954 21.913 21.913 0 01-1.82 8.912zM50 32.016c-.328-2.381-1.026-4.942-2.434-6.943.625 2.53 1.133 5.08 1.43 7.673.285 2.477.084 4.89-.086 7.367 1.154-2.53 1.471-5.356 1.09-8.097zm.921 6.414c1.154-2.53 1.46-5.355 1.08-8.097-.328-2.381-1.027-4.942-2.434-6.943.624 2.53 1.132 5.08 1.428 7.674.286 2.476.085 4.9-.074 7.366zM19.518 27.529c.148.01-2.837 4.212-2.837 4.212l-.169.307c-.18.328-.656 1.09-1.058 1.09-.043 0-.074-.01-.117-.021-.328-.138-.02-.878-.01-.89.18-.496.36-.983.444-1.227l-.084-.042c-.646 1.1-1.175 1.82-1.397 1.873a.285.285 0 01-.149-.18c-.137-.402.265-1.418.392-1.714l.106-.244-.18.19-.01.011a4.987 4.987 0 00-.583.773c-.847 1.365-1.291 2.244-1.492 6.033v.02c-.01.128-.021.424-.159.594-.01.92-.201 2.646-1.143 5.027l-.508-.201c.01-.01.01-.021.01-.043-.306-.222-.836-.761-1.365-1.375a5.154 5.154 0 01-.857-1.355c0-.01 0-.01-.01-.021a22.576 22.576 0 01-1.853-8.986c0-3.112.625-6.139 1.852-8.986a21.49 21.49 0 011.154-2.307c.857-1.514 2.413-2.54 4.149-2.657.074-.01.159-.01.222-.01.953 0 1.672.296 1.704.307.286.127.53.254.741.391 1.683 1.09 2.794 3.8 1.545 6.69l-.127.296.127-.074-.01.01.02.064c.075.264.35 1.132.604 1.28.148.085.413.424.466.646.01.063.01.106 0 .138l-.074.127.127.095c.095.063.19.085.275.095l.254.064zM8.7 30.64c.297-2.593.805-5.133 1.429-7.662-1.408 1.99-2.106 4.55-2.434 6.943-.381 2.74-.064 5.567 1.08 8.096-.16-2.476-.36-4.9-.075-7.377zm3.43-5.99c-1.408 1.99-2.107 4.55-2.435 6.943-.38 2.741-.063 5.567 1.09 8.097-.159-2.477-.36-4.89-.084-7.367.296-2.593.804-5.133 1.428-7.673zm28.237-6.382c0-5.229-4.255-9.483-9.483-9.483-5.228 0-9.483 4.254-9.483 9.483 0 5.228 4.255 9.483 9.483 9.483 5.229 0 9.483-4.255 9.483-9.483zm-.529 0c0 4.942-4.022 8.964-8.965 8.964-4.942 0-8.964-4.022-8.964-8.964 0-4.943 4.022-8.965 8.964-8.965 4.943 0 8.965 4.022 8.965 8.965zM23.582 25.39l-.794-.879.085 1.694.752-.201-.043-.614zm6.425-21.094c-14.172 0-25.709 11.537-25.709 25.708 0 14.172 11.537 25.709 25.709 25.709 14.171 0 25.708-11.537 25.708-25.709 0-14.171-11.537-25.708-25.708-25.708zm0-1.08c14.796 0 26.787 11.992 26.787 26.788S44.792 56.782 30.007 56.782c-14.786 0-26.788-11.991-26.788-26.777 0-14.785 11.991-26.788 26.788-26.788z"/></symbol><symbol viewBox="0 0 11 16" id="mark" xmlns="http://www.w3.org/2000/svg"><path d="M5.5.434C2.504.434.067 2.818.067 5.747c0 3.636 4.862 8.973 5.069 9.199a.497.497 0 00.728 0c.207-.226 5.068-5.563 5.068-9.199 0-2.93-2.437-5.313-5.432-5.313zm0 7.986c-1.507 0-2.733-1.199-2.733-2.673S3.993 3.074 5.5 3.074c1.507 0 2.733 1.2 2.733 2.673 0 1.474-1.226 2.673-2.733 2.673z" fill-opacity=".7"/></symbol><symbol viewBox="0 0 74 65" id="s-why-1" xmlns="http://www.w3.org/2000/svg"><path d="M65.612 20.248v6.337l.306.747-.306.124V38.63l4.214-1.719.924 2.262c.407 1-.051 2.137-1.023 2.535L18.863 62.469c-.963.393-2.106-.12-2.505-1.094l-.923-2.263 38.926-15.89H26.99l-15.464 6.313L8.95 43.22H6.363l7.78 19.057A4.336 4.336 0 0018.163 65c.552 0 1.094-.106 1.607-.315l50.863-20.762c2.194-.897 3.241-3.434 2.334-5.657l-7.355-18.018z"/><path d="M51.588 26.253v-1.54l-.894 1.54h.894zm-30.878-1.54l-.892 1.54h.891v-1.54zm5.848 2.204a.73.73 0 00.134-.457c0-.208-.05-.368-.153-.48a.488.488 0 00-.375-.166.497.497 0 00-.317.109c-.138.107-.207.28-.207.517 0 .192.051.35.155.47a.496.496 0 00.394.183c.157 0 .28-.06.37-.176zM10.29 35.563a.639.639 0 00.373-.118c.114-.076.173-.217.176-.425v-.229a.722.722 0 01-.12.06 1.09 1.09 0 01-.165.041l-.14.027a.905.905 0 00-.285.084.283.283 0 00-.146.262c0 .105.03.18.088.226a.346.346 0 00.22.072zm24.285-8.473c.16 0 .288-.05.378-.146.091-.096.137-.234.137-.409 0-.182-.047-.32-.139-.415a.502.502 0 00-.376-.142.505.505 0 00-.376.142c-.093.094-.139.232-.139.415 0 .176.046.313.137.41.09.096.218.144.378.144zm-17.664 6.935a.493.493 0 00-.368.133.639.639 0 00-.163.366h1.06a.513.513 0 00-.163-.374.546.546 0 00-.366-.125zm20.466-9.47a.488.488 0 00-.308.1c-.135.104-.203.284-.203.535 0 .212.044.37.13.478.087.105.219.158.397.158a.482.482 0 00.274-.084c.16-.1.239-.279.239-.529 0-.202-.046-.362-.14-.48a.469.469 0 00-.389-.178zm-2.803.884a.434.434 0 00.332-.125.448.448 0 00.117-.318.461.461 0 00-.117-.332c-.078-.081-.19-.12-.332-.12a.446.446 0 00-.333.12c-.08.08-.12.19-.12.332 0 .129.04.236.12.318.08.084.191.125.333.125zM24.442 34.92a.878.878 0 00-.283.084.283.283 0 00-.146.262c0 .105.03.18.088.226a.337.337 0 00.216.072.636.636 0 00.373-.118c.114-.077.172-.217.176-.425v-.229a.652.652 0 01-.12.06 1.123 1.123 0 01-.165.041l-.14.027zm10.336 0a.856.856 0 00-.284.084.283.283 0 00-.146.262c0 .105.03.18.089.226a.338.338 0 00.217.072.638.638 0 00.372-.118c.114-.077.173-.217.176-.425v-.229a.692.692 0 01-.285.101l-.139.027zm6.13-.762a.638.638 0 00-.164.366h1.06a.518.518 0 00-.165-.374.543.543 0 00-.364-.125c-.159 0-.28.044-.367.133zm16.158-7.065a.44.44 0 00.368-.176.724.724 0 00.135-.457c0-.208-.052-.368-.154-.48a.485.485 0 00-.375-.166.492.492 0 00-.316.109c-.138.107-.207.28-.207.517 0 .192.05.35.155.47a.498.498 0 00.394.183zM6.104 26.76c.067.218.206.328.414.328.209 0 .345-.109.41-.327.057-.187.084-.46.093-.79.001-.053.007-.095.007-.152 0-.43-.032-.75-.097-.957-.064-.207-.201-.31-.41-.31-.21 0-.346.102-.414.31-.07.207-.101.527-.101.957 0 .211.009.396.027.556.013.151.037.28.071.386z"/><path d="M2.502 40.599a4.26 4.26 0 001.827.423h55.453a4.282 4.282 0 003.006-1.24 4.4 4.4 0 001.323-3.144V4.385a4.397 4.397 0 00-1.323-3.144A4.287 4.287 0 0059.782 0H4.33C1.942 0 0 1.968 0 4.385v32.253c0 1.752 1.03 3.26 2.502 3.96zm2.783-14.78c0-.59.092-1.046.274-1.366.183-.32.502-.48.958-.48.455 0 .775.16.958.48.167.292.248.71.262 1.225.001.05.013.087.013.14 0 .59-.092 1.044-.275 1.362-.183.319-.503.479-.958.479-.455 0-.775-.159-.958-.479a1.925 1.925 0 01-.19-.535 3.787 3.787 0 01-.084-.826zm33.507-14.317a5.92 5.92 0 015.913-5.912c1.284 0 2.467.425 3.438 1.124 1.008-.806 2.27-1.309 3.657-1.309a5.834 5.834 0 015.074 2.954c.504.868.814 1.863.814 2.937a5.896 5.896 0 01-5.888 5.89 5.835 5.835 0 01-3.407-1.105c-1.015.819-2.285 1.332-3.688 1.332-1.909 0-3.589-.924-4.67-2.33a5.813 5.813 0 01-1.048-2.16 5.753 5.753 0 01-.195-1.421zM37.68 34.229c-.053-.115-.154-.17-.306-.17-.176 0-.294.056-.355.17a.66.66 0 00-.048.29v1.417h-.626v-2.352h.6v.343a.985.985 0 01.216-.26.74.74 0 01.464-.14c.178 0 .326.038.437.119a.687.687 0 01.203.284c.081-.14.18-.24.3-.306a.912.912 0 01.732-.037.686.686 0 01.407.516c.015.079.022.195.022.349l-.005 1.485h-.63v-1.501a.491.491 0 00-.045-.22c-.054-.108-.154-.164-.3-.164-.172 0-.29.071-.355.212a.677.677 0 00-.05.27v1.403h-.62v-1.404a.76.76 0 00-.04-.304zm.047-7.95a.933.933 0 01-.485.118c-.284 0-.535-.097-.756-.294-.221-.197-.331-.48-.331-.849 0-.382.11-.694.332-.93.22-.239.507-.357.861-.357.545 0 .918.24 1.12.722.116.272.171.632.171 1.077 0 .433-.054.792-.165 1.081-.212.55-.597.826-1.158.826-.27 0-.51-.08-.722-.238-.214-.16-.337-.391-.368-.694h.699c.017.105.062.19.133.257a.406.406 0 00.29.097c.23 0 .393-.127.486-.385.052-.141.083-.346.096-.618a.657.657 0 01-.203.187zm-4.2-.984a1.075 1.075 0 01-.077-.376.88.88 0 01.293-.666c.196-.183.473-.274.83-.274s.634.091.83.274a.874.874 0 01.294.666c0 .116-.026.241-.078.376-.05.133-.165.25-.337.348.176.098.31.229.399.391.088.163.134.344.134.545 0 .301-.111.558-.334.768-.222.21-.534.316-.934.316s-.702-.105-.908-.316a1.059 1.059 0 01-.31-.768c0-.2.046-.382.137-.545a.86.86 0 01.397-.367c-.171-.114-.284-.238-.336-.372zm1.578 8.779a.647.647 0 00-.3-.057c-.148 0-.253.038-.313.11a.436.436 0 00-.087.216h-.596a.907.907 0 01.174-.507c.163-.207.443-.312.841-.312.259 0 .489.052.691.153.201.103.301.297.301.58v1.081c0 .074.002.166.005.273.005.08.017.134.037.164a.24.24 0 00.092.073v.09h-.67a.612.612 0 01-.038-.135 1.372 1.372 0 01-.018-.143 1.253 1.253 0 01-.295.236.885.885 0 01-.453.116.788.788 0 01-.531-.181c-.14-.122-.21-.295-.21-.518 0-.29.112-.499.337-.629.123-.071.306-.12.545-.15l.21-.026c.116-.016.197-.032.248-.054.088-.037.132-.095.132-.175-.001-.102-.036-.17-.102-.205zm-2.465.143c-.06-.12-.175-.181-.342-.181-.208 0-.35.088-.428.265a.912.912 0 00-.06.359v1.275h-.617v-2.352h.597v.343a.998.998 0 01.223-.26.775.775 0 01.48-.143c.243 0 .441.063.595.192.155.126.232.339.232.633v1.588h-.631v-1.432a.64.64 0 00-.05-.287zm-3.423 1.249c.025.024.098.035.225.035h.06c.022-.003.042-.003.063-.005v.461l-.292.01c-.29.01-.49-.041-.597-.15-.069-.072-.104-.18-.104-.328v-1.451h-.33V33.6h.33v-.659h.61v.659h.383v.437h-.383v1.246c-.002.098.01.158.035.182zm.12-9.496a5 5 0 00-.272.813 3.4 3.4 0 00-.12.79h-.73c.022-.642.232-1.307.631-2 .26-.429.475-.728.649-.897h-1.781l.009-.631h2.524v.55a4.271 4.271 0 00-.44.554 4.668 4.668 0 00-.47.82zm-10.041.832v-.613l1.314-2.168h.79v2.233h.404v.55h-.405v.769h-.688v-.77h-1.415zm1.607 5.947h.666v2.613h1.593v.574h-2.259V32.75zm1.565-5.358c-.217-.183-.34-.442-.364-.776h.699c.027.153.082.27.16.353.078.082.192.124.342.124a.467.467 0 00.398-.184.742.742 0 00.137-.461.816.816 0 00-.127-.462c-.086-.126-.219-.189-.4-.189a.66.66 0 00-.221.032.444.444 0 00-.25.219l-.63-.03.25-1.974h1.967v.596h-1.46l-.128.781a1.33 1.33 0 01.254-.14c.101-.038.225-.056.371-.056.296 0 .553.098.773.297.22.2.329.487.329.867 0 .33-.107.625-.317.886-.212.26-.528.388-.951.388-.335.003-.614-.088-.832-.271zm2.301 6.683a.645.645 0 00-.299-.057c-.147 0-.253.038-.314.11a.427.427 0 00-.087.216h-.595a.907.907 0 01.174-.507c.163-.207.445-.312.842-.312.258 0 .488.052.69.153.202.103.303.297.303.58v1.081c0 .074.001.166.005.273.004.08.017.134.037.164.02.028.05.053.091.073v.09h-.67a.79.79 0 01-.055-.278 1.253 1.253 0 01-.296.236.888.888 0 01-.453.116.793.793 0 01-.532-.181c-.14-.122-.21-.295-.21-.518 0-.29.113-.499.339-.629.123-.071.306-.12.545-.15l.211-.026c.116-.016.197-.032.247-.054.086-.042.13-.101.13-.178-.002-.099-.035-.167-.103-.202zm.415-6.974c-.166-.294-.25-.673-.25-1.14 0-.272.012-.494.035-.665a2.04 2.04 0 01.24-.76c.1-.173.235-.312.4-.416.164-.106.362-.16.592-.16.332 0 .596.086.794.256.198.17.308.397.334.68h-.698a.347.347 0 00-.068-.19c-.075-.112-.19-.168-.343-.168-.229 0-.392.128-.487.384-.053.142-.089.35-.11.627a.786.786 0 01.304-.227 1.01 1.01 0 01.394-.071c.318 0 .578.108.78.323.202.216.305.491.305.826 0 .334-.1.627-.298.883-.2.255-.508.383-.928.383-.45 0-.782-.188-.996-.565zm2.137 8.066c-.058-.036-.273-.098-.647-.185-.266-.068-.455-.15-.564-.25-.11-.099-.165-.24-.165-.423 0-.218.085-.406.257-.562.171-.157.413-.236.722-.236.294 0 .535.059.72.177.186.119.292.319.32.607h-.617a.366.366 0 00-.067-.187c-.069-.083-.184-.124-.346-.124-.134 0-.23.022-.287.062-.058.042-.087.092-.087.148a.16.16 0 00.091.153c.061.033.275.09.643.17.246.059.43.145.552.264.12.118.183.264.183.442a.718.718 0 01-.262.572c-.174.147-.444.22-.807.22-.372 0-.647-.077-.823-.234a.762.762 0 01-.265-.598h.625c.014.11.042.186.085.232.076.084.219.124.427.124a.654.654 0 00.29-.054c.071-.034.108-.09.108-.162a.175.175 0 00-.086-.156zm-10.71.263a.633.633 0 00.34.089c.14 0 .255-.036.343-.108a.491.491 0 00.127-.165h.629c-.018.14-.093.282-.23.427-.21.229-.506.344-.887.344-.314 0-.59-.097-.83-.29-.24-.193-.36-.507-.36-.943 0-.408.108-.72.325-.94.217-.216.497-.325.843-.325.205 0 .39.037.555.11.164.072.3.19.407.349.096.14.158.304.188.486.017.11.024.266.02.47h-1.716c.008.233.092.4.246.496zm-.569-10.473a.785.785 0 01-.187.533.638.638 0 01-.246.185c.064 0 .155.054.274.166.18.166.268.392.268.68 0 .302-.104.569-.314.798-.209.23-.52.343-.929.343-.504 0-.856-.166-1.054-.495-.104-.176-.161-.407-.172-.69h.69c0 .142.022.26.067.354.085.172.24.259.466.259a.516.516 0 00.36-.142c.102-.095.153-.23.153-.408 0-.236-.096-.392-.285-.47-.108-.045-.28-.068-.512-.068v-.504c.228-.003.387-.025.477-.068.106-.047.162-.139.197-.252.016-.052.038-.1.038-.167a.476.476 0 00-.119-.333.44.44 0 00-.336-.128c-.165 0-.287.052-.365.158a.658.658 0 00-.112.422h-.655a1.75 1.75 0 01.092-.505c.057-.14.147-.267.27-.387a.954.954 0 01.327-.192c.126-.045.281-.067.465-.067.342 0 .618.089.827.265.19.16.282.377.3.637.004.028.015.048.015.076zm-1.358 9.259c-.055-.108-.155-.164-.303-.164-.17 0-.288.07-.352.212a.658.658 0 00-.05.27v1.403h-.62v-1.404a.782.782 0 00-.044-.304c-.052-.115-.153-.17-.305-.17-.176 0-.293.056-.355.17a.66.66 0 00-.049.29v1.417h-.625v-2.352h.599v.343a.982.982 0 01.216-.26.742.742 0 01.465-.14c.179 0 .326.038.437.119.09.072.157.168.202.284a.809.809 0 01.3-.306.908.908 0 01.731-.037.696.696 0 01.409.516c.014.079.021.195.021.349l-.004 1.485h-.631v-1.501a.453.453 0 00-.042-.22zm28.691-9.49a.443.443 0 00-.358-.151c-.214 0-.36.08-.436.239-.044.093-.071.24-.08.438h-.682c.011-.303.067-.55.166-.737.188-.358.52-.535.998-.535.379 0 .68.104.904.314.223.21.335.487.335.833 0 .264-.08.5-.237.706a2.418 2.418 0 01-.512.456l-.28.2a6.14 6.14 0 00-.363.27.815.815 0 00-.164.196h1.56v.62h-2.447c.005-.257.061-.491.164-.703.1-.239.337-.49.712-.758.321-.23.533-.397.628-.499a.738.738 0 00.219-.511.574.574 0 00-.127-.379zm-1.546 8.904a.921.921 0 01.407.348c.098.14.16.304.19.486.016.11.024.266.018.47h-1.717c.01.234.092.402.248.497a.63.63 0 00.34.089c.14 0 .254-.036.343-.108a.506.506 0 00.127-.165h.628c-.017.14-.092.282-.228.427-.211.229-.507.344-.886.344-.313 0-.591-.097-.83-.29-.24-.193-.36-.507-.36-.943 0-.408.109-.72.325-.94.216-.215.498-.325.844-.325.204 0 .389.036.55.11zm-1.105-6.058h-.721v-2.465h-.84v-.478a2.98 2.98 0 00.465-.045.648.648 0 00.344-.186.6.6 0 00.138-.257.566.566 0 00.026-.142h.588v3.573zm8.096-1.504c-.108-.044-.28-.067-.512-.067v-.504c.227-.003.388-.025.477-.068.157-.07.235-.208.235-.42a.472.472 0 00-.12-.332.438.438 0 00-.334-.129c-.167 0-.288.053-.366.159a.666.666 0 00-.111.422h-.655a1.7 1.7 0 01.091-.505c.056-.14.148-.268.27-.387a.955.955 0 01.327-.192c.126-.045.282-.067.464-.067.342 0 .618.089.83.264.208.176.312.413.312.712 0 .21-.064.389-.187.533a.625.625 0 01-.248.185c.066 0 .157.055.278.165.179.167.267.394.267.681 0 .301-.104.567-.313.797-.21.229-.52.344-.93.344-.505 0-.858-.166-1.054-.497-.104-.175-.16-.406-.171-.69h.689a.79.79 0 00.07.355c.084.173.24.259.463.259a.515.515 0 00.36-.141c.102-.096.154-.23.154-.409-.001-.232-.098-.388-.286-.468zm3.86.186v.55h-.405v.768h-.688v-.769h-1.413v-.614l1.313-2.168h.791v2.233h.403zm1.91-.268c-.083-.126-.217-.189-.398-.189a.66.66 0 00-.221.032.446.446 0 00-.25.219l-.63-.03.251-1.974h1.967v.596h-1.461l-.128.781c.11-.071.192-.118.253-.14a1.08 1.08 0 01.372-.056c.296 0 .553.098.772.297.22.2.33.487.33.867 0 .33-.107.625-.317.886-.21.26-.528.388-.95.388-.341 0-.62-.09-.838-.272-.217-.183-.342-.44-.366-.776h.7a.67.67 0 00.16.353c.08.082.195.124.344.124a.47.47 0 00.4-.184.762.762 0 00.135-.462.778.778 0 00-.124-.46zm3.618-1.088h-.7a.357.357 0 00-.067-.19c-.075-.111-.19-.168-.343-.168-.228 0-.393.128-.488.384a2.41 2.41 0 00-.108.627.774.774 0 01.302-.227c.115-.048.248-.072.396-.072.315 0 .576.108.78.324.202.216.304.491.304.825 0 .334-.1.628-.3.883-.198.255-.506.383-.927.383-.45 0-.782-.189-.994-.565-.168-.294-.25-.672-.25-1.14 0-.272.013-.494.034-.665.04-.305.121-.557.24-.76a1.22 1.22 0 01.4-.416c.165-.106.363-.159.594-.159.331 0 .597.085.794.255a.986.986 0 01.333.68zm-46.103-.918c.38 0 .68.104.904.314.224.21.336.487.336.833 0 .264-.079.5-.237.706-.103.134-.27.284-.503.448l-.009.007-.282.2a6.618 6.618 0 00-.362.27.816.816 0 00-.164.196h1.56v.62H10.9a1.71 1.71 0 01.148-.658l.016-.046c.1-.24.336-.491.711-.758.323-.231.534-.398.628-.499a.734.734 0 00.22-.512.574.574 0 00-.126-.377.441.441 0 00-.359-.15c-.213 0-.358.08-.435.239-.045.093-.072.239-.079.438h-.684c.012-.304.067-.55.166-.737a.929.929 0 01.34-.35c.065-.04.142-.062.216-.088.135-.045.268-.096.443-.096zM6.99 35.936h-.62V32.75h.698l1.265 2.223V32.75h.62v3.187h-.665l-1.296-2.261v2.261H6.99zm2.136-8.365v-2.465h-.842v-.478c.222-.01.376-.025.465-.045a.648.648 0 00.344-.186.612.612 0 00.137-.257.58.58 0 00.027-.142h.588v3.575h-.406l-.313-.002zm-2.31-11.168V14.13H9.1v2.326H6.822c0-.018-.006-.034-.006-.052zm2.284 3.04a3.195 3.195 0 01-2.026-1.791H9.1v1.791zm1.197-1.791h1.974v1.937h-1.974v-1.937zm3.17 0h2.028a3.197 3.197 0 01-2.027 1.791v-1.791zm2.284-1.249c0 .019-.004.034-.004.052H13.47v-2.326h2.282v2.274zm-2.881-3.472l-.6.001v3.522h-1.973v-5.801h2.268c1.439 0 2.644.965 3.038 2.277H12.87zm-3.77 0H6.964A3.18 3.18 0 019.1 10.8v2.13zm.606 21.75c.123-.07.305-.121.545-.151l.211-.026a.947.947 0 00.246-.054c.089-.038.134-.097.134-.174 0-.098-.034-.163-.102-.201a.645.645 0 00-.299-.057c-.147 0-.253.038-.313.11a.436.436 0 00-.088.216h-.594a.899.899 0 01.173-.507c.164-.207.445-.312.842-.312.259 0 .489.052.691.153.201.104.302.297.302.58v1.081c0 .074.002.166.005.273.005.08.016.136.037.164a.24.24 0 00.09.073v.09h-.67a.616.616 0 01-.038-.135 1.8 1.8 0 01-.017-.143 1.251 1.251 0 01-.295.236.889.889 0 01-.453.116.792.792 0 01-.533-.181c-.14-.122-.209-.295-.209-.518-.002-.294.11-.505.335-.633z"/><path d="M41.191 14.611a4.678 4.678 0 003.514 1.604c1.004 0 1.93-.32 2.696-.86h1.98c.015-.011.024-.027.04-.039a5.15 5.15 0 00.864-.87h-3.448a6.332 6.332 0 01-.379-.702h4.279c.154-.288.28-.592.378-.91H46.14c-.02-.072-.05-.142-.066-.215-.045-.187-.063-.379-.086-.57h5.308c.032-.234.07-.469.07-.712 0-.067-.016-.13-.021-.197h-5.421a5.94 5.94 0 01.079-.764h5.263a5.212 5.212 0 00-.267-.909h-4.771c.091-.273.195-.532.321-.785h4.053c-.084-.137-.195-.252-.287-.38-.131-.18-.249-.371-.404-.531h-2.799c.055-.071.115-.138.17-.207a4.69 4.69 0 00-2.575-.775 4.719 4.719 0 00-4.714 4.713 4.644 4.644 0 001.198 3.11z"/></symbol><symbol viewBox="0 0 38 65" id="s-why-2" xmlns="http://www.w3.org/2000/svg"><path d="M33.408 0H4.43A4.402 4.402 0 00.04 4.39v56.218A4.404 4.404 0 004.43 65h28.978a4.401 4.401 0 004.39-4.39V4.39A4.402 4.402 0 0033.409 0zM14.284 3.165h9.27a.531.531 0 010 1.064h-9.27a.531.531 0 110-1.064zm4.635 59.64a2.195 2.195 0 01-2.195-2.197c0-1.215.982-2.195 2.195-2.195 1.213 0 2.195.98 2.195 2.195a2.195 2.195 0 01-2.195 2.197zm15.825-5.93H3.094V6.962h31.65v49.913z"/></symbol><symbol viewBox="0 0 60 65" id="s-why-3" xmlns="http://www.w3.org/2000/svg"><path d="M59.106 11.188V0C55.91 1.382 49.913 3.38 47.13 3.53c-2.782.15-15.904-1.886-19.457-1.008-2.857.71-18.554 12.458-23.253 15.69-7.482 5.173-.865 5.995 2.274 4.8 3.158-1.196 13.347-6.855 13.347-6.855-.037 1.139.15 2.764 1.166 4.52 0 0 1.165 1.625 2.556 3.212-3.008 1.364-5.113 4.39-5.113 7.883 0 2.97 1.523 5.603 3.816 7.153H7.428c-.827 0-1.504.673-1.504 1.495v23.086c0 .822.677 1.494 1.504 1.494h39.928c.828 0 1.504-.672 1.504-1.494V40.438c0-.822-.676-1.494-1.504-1.494H32.28c2.312-1.569 3.816-4.184 3.816-7.154a8.573 8.573 0 00-2.143-5.678c-.019-.019-.038-.019-.038-.037 2.181-1.084 4.475-3.008 10.02-5.267 9.324-3.81 12.482-8.126 15.17-9.62zm-25.717 8.798c-1.748 1.232-2.951 2.428-3.647 3.474a8.566 8.566 0 00-1.203-.243c-.357-1.158-.977-2.69-1.917-4.707 0 0-.433-1.009-.282-2.223.357-1.344 1.579-2.801 5.056-3.25 5.847-.747 6.693 2.186 4.042 5.249-.564.56-1.26 1.14-2.049 1.7zm.827 22.525c.828 0 1.504.673 1.504 1.495 0 .822-.676 1.494-1.504 1.494H20.55a1.503 1.503 0 01-1.504-1.494c0-.822.677-1.495 1.504-1.495h13.666zm-6.824-4.352c-3.534 0-6.429-2.857-6.429-6.387 0-3.512 2.877-6.388 6.43-6.388.526 0 1.033.056 1.522.186 0 1.009.79 1.588 2.106 1.457.206-.018.394-.056.582-.074 1.354 1.176 2.219 2.895 2.219 4.819a6.431 6.431 0 01-6.43 6.388z"/><path d="M26.416 32.65c.338.037.79.037 1.034.037 1.88 0 2.895-1.214 2.895-2.54 0-1.29-.733-2.522-3.064-2.522-.546 0-1.805.019-2.238.019v3.698H23.71v1.326h1.334v.336H23.71v1.327h1.334v1.157h1.392v-1.157h2.218v-1.327h-2.218v-.355h-.02zm0-3.717c.376-.02.714-.02.996-.02.94 0 1.448.412 1.448 1.215 0 .878-.64 1.27-1.467 1.27a8.59 8.59 0 01-.977-.056v-2.41z"/></symbol><symbol viewBox="0 0 63 65" id="s-why-4" xmlns="http://www.w3.org/2000/svg"><path d="M5.417 47.667c-.598 0-1.084.486-1.084 1.084v2.166a1.084 1.084 0 002.167 0v-2.166c0-.598-.486-1.084-1.083-1.084zm0 6.5c-.598 0-1.084.485-1.084 1.083v2.167a1.084 1.084 0 002.167 0V55.25c0-.598-.486-1.083-1.083-1.083zm0-13c-.598 0-1.084.485-1.084 1.083v2.167a1.084 1.084 0 002.167 0V42.25c0-.598-.486-1.083-1.083-1.083zm4.333 6.5c-.598 0-1.083.486-1.083 1.084v2.166a1.084 1.084 0 002.167 0v-2.166c0-.598-.486-1.084-1.084-1.084zm0-6.5c-.598 0-1.083.485-1.083 1.083v2.167a1.084 1.084 0 002.167 0V42.25c0-.598-.486-1.083-1.084-1.083zm0 13c-.598 0-1.083.485-1.083 1.083v2.167a1.084 1.084 0 002.167 0V55.25c0-.598-.486-1.083-1.084-1.083z"/><path d="M61.75 11.917h-2.167v-3.25c0-.598-.485-1.084-1.083-1.084H52c-.598 0-1.083.486-1.083 1.084v3.25H48.75c-.598 0-1.083.485-1.083 1.083v17.333h-1.084v-3.25c0-.598-.485-1.083-1.083-1.083h-1.083v-1.083a1.084 1.084 0 00-2.167 0V26h-1.083c-.598 0-1.084.485-1.084 1.083v3.25h-3.25V8.667c0-.598-.485-1.084-1.083-1.084H32.5v-6.5C32.5.485 32.015 0 31.417 0h-13c-.598 0-1.084.485-1.084 1.083v6.5h-3.25c-.598 0-1.083.486-1.083 1.084v28.166h-2.167v-3.25c0-.598-.485-1.083-1.083-1.083h-6.5c-.598 0-1.083.485-1.083 1.083v3.25H1.084C.486 36.833 0 37.32 0 37.917v26C0 64.515.486 65 1.084 65H61.75c.598 0 1.084-.485 1.084-1.083V13c0-.598-.486-1.083-1.084-1.083zM30.334 13a1.084 1.084 0 012.166 0v17.333h-2.167V13zM26 5.417a1.084 1.084 0 012.167 0v3.25a1.084 1.084 0 01-2.167 0v-3.25zM26 13a1.084 1.084 0 012.167 0v17.333H26V13zm-4.333-7.583a1.084 1.084 0 012.166 0v3.25a1.084 1.084 0 01-2.166 0v-3.25zM17.333 13a1.084 1.084 0 012.167 0v23.833h-2.167V13zm4.334 47.667h-3.25a1.084 1.084 0 010-2.167h3.25v2.167zm0-4.334h-3.25a1.084 1.084 0 010-2.166h3.25v2.166zm0-4.333h-3.25a1.084 1.084 0 010-2.166h3.25V52zm0-4.333h-3.25a1.084 1.084 0 010-2.167h3.25v2.167zm0-6.5h-7.584c-.598 0-1.083.485-1.083 1.083v20.583H2.167V39h19.5v2.167zm0-9.75V13a1.084 1.084 0 012.166 0v17.333H22.75c-.598 0-1.083.486-1.083 1.084zm26 31.416H45.5V35.75a1.084 1.084 0 00-2.166 0v27.083h-2.167V35.75a1.084 1.084 0 00-2.167 0v27.083h-2.166V35.75a1.084 1.084 0 00-2.167 0v27.083H32.5V35.75a1.084 1.084 0 00-2.166 0v27.083h-2.167V35.75a1.084 1.084 0 00-2.167 0v27.083h-2.166V32.5h23.833v30.333zm6.5-4.122a1.084 1.084 0 01-2.167 0v-2.166a1.084 1.084 0 012.167 0v2.166zm0-6.5a1.084 1.084 0 01-2.167 0v-2.166a1.084 1.084 0 012.167 0v2.166zm0-6.5a1.084 1.084 0 01-2.167 0v-2.166a1.084 1.084 0 012.167 0v2.166zm0-6.5a1.084 1.084 0 01-2.167 0v-2.166a1.084 1.084 0 012.167 0v2.166zm0-6.5a1.084 1.084 0 01-2.167 0v-2.166a1.084 1.084 0 012.167 0v2.166zm0-6.5a1.084 1.084 0 01-2.167 0v-2.166a1.084 1.084 0 012.167 0v2.166zm0-6.5a1.084 1.084 0 01-2.167 0v-2.166a1.084 1.084 0 012.167 0v2.166zm4.333 39a1.084 1.084 0 01-2.166 0v-2.166a1.084 1.084 0 012.166 0v2.166zm0-6.5a1.084 1.084 0 01-2.166 0v-2.166a1.084 1.084 0 012.166 0v2.166zm0-6.5a1.084 1.084 0 01-2.166 0v-2.166a1.084 1.084 0 012.166 0v2.166zm0-6.5a1.084 1.084 0 01-2.166 0v-2.166a1.084 1.084 0 012.166 0v2.166zm0-6.5a1.084 1.084 0 01-2.166 0v-2.166a1.084 1.084 0 012.166 0v2.166zm0-6.5a1.084 1.084 0 01-2.166 0v-2.166a1.084 1.084 0 012.166 0v2.166zm0-6.5a1.084 1.084 0 01-2.166 0v-2.166a1.084 1.084 0 012.166 0v2.166z"/></symbol><symbol viewBox="0 0 19 18" id="share" xmlns="http://www.w3.org/2000/svg"><g clip-path="url(#atclip0)"><path d="M3.778 11.668c.723 0 1.356-.271 1.809-.723l6.422 3.708c-.09.181-.09.452-.09.633 0 1.538 1.175 2.714 2.713 2.714s2.714-1.176 2.714-2.714c0-1.537-1.176-2.713-2.714-2.713-.724 0-1.357.271-1.81.723l-6.42-3.708c.09-.181.09-.452.09-.633s0-.452-.09-.633l6.422-3.8c.452.453 1.085.724 1.809.724a2.625 2.625 0 002.623-2.623A2.625 2.625 0 0014.632 0a2.625 2.625 0 00-2.623 2.623c0 .181 0 .362.09.633l-6.422 3.8c-.452-.453-1.085-.724-1.809-.724-1.538 0-2.713 1.176-2.713 2.713 0 1.538 1.085 2.623 2.623 2.623z" fill-opacity=".7"/></g><defs><clipPath id="atclip0"><path transform="rotate(-180 18.25 18)" d="M18.25 18h18v18h-18z"/></clipPath></defs></symbol><symbol viewBox="0 0 21 17" id="twitter" xmlns="http://www.w3.org/2000/svg"><path d="M20.083 1.924a8.58 8.58 0 01-2.368.647A4.078 4.078 0 0019.523.305a8.22 8.22 0 01-2.606.993 4.121 4.121 0 00-3-1.298A4.103 4.103 0 009.81 4.101c0 .325.028.638.095.935A11.638 11.638 0 011.436.748 4.121 4.121 0 00.874 2.82c0 1.42.733 2.679 1.825 3.408a4.064 4.064 0 01-1.856-.505v.045a4.121 4.121 0 003.292 4.028 4.109 4.109 0 01-1.078.135 3.64 3.64 0 01-.778-.07 4.147 4.147 0 003.84 2.856 8.266 8.266 0 01-5.095 1.75 7.75 7.75 0 01-.983-.057 11.584 11.584 0 006.303 1.84c7.56 0 11.694-6.25 11.694-11.668 0-.18-.006-.356-.015-.53a8.189 8.189 0 002.06-2.128z"/></symbol><symbol viewBox="0 0 35 36" id="user" xmlns="http://www.w3.org/2000/svg"><path d="M35 17.936C35 8.499 27.15.82 17.5.82S0 8.5 0 17.936c0 4.984 2.192 9.477 5.68 12.608l-.016.014.567.468c.037.03.077.055.114.085.302.245.614.477.932.702a17.889 17.889 0 001.356.869l.235.132c.39.217.788.422 1.196.61l.09.04a17.619 17.619 0 004.35 1.33c.46.078.927.14 1.398.182l.173.013c.47.038.944.062 1.425.062.477 0 .947-.024 1.414-.061l.177-.013c.468-.042.93-.102 1.386-.179l.12-.02a17.646 17.646 0 004.172-1.28l.146-.064a17.731 17.731 0 002.438-1.363c.117-.078.233-.161.35-.243.279-.197.553-.4.82-.612.059-.047.122-.087.18-.135l.582-.476-.017-.014C32.788 27.46 35 22.946 35 17.936zm-33.727 0c0-8.752 7.28-15.87 16.227-15.87 8.948 0 16.227 7.118 16.227 15.87 0 4.715-2.116 8.955-5.465 11.864a4.79 4.79 0 00-.569-.334l-5.388-2.635a1.377 1.377 0 01-.784-1.24v-1.84c.125-.151.257-.322.393-.509a12.58 12.58 0 001.664-3.188 2.256 2.256 0 001.327-2.047V15.8c0-.54-.202-1.063-.564-1.474V11.42c.033-.323.15-2.146-1.198-3.65C21.97 6.463 20.07 5.8 17.5 5.8c-2.572 0-4.47.663-5.643 1.972-1.348 1.504-1.231 3.327-1.198 3.65v2.904a2.239 2.239 0 00-.564 1.475v2.206c0 .685.314 1.324.852 1.756.516 1.974 1.577 3.47 1.969 3.976v1.801c0 .508-.284.975-.74 1.219l-5.032 2.684c-.16.085-.319.185-.478.296-3.309-2.907-5.393-7.12-5.393-11.802z" fill-opacity=".7"/></symbol><symbol viewBox="0 0 20 20" id="user-circle" xmlns="http://www.w3.org/2000/svg"><path d="M20 10c0-5.514-4.486-10-10-10S0 4.486 0 10a9.974 9.974 0 003.246 7.366l-.01.009.325.273c.02.018.044.033.065.05.172.143.35.279.533.41a10.113 10.113 0 001.592.941l.052.023a9.91 9.91 0 002.418.766l.067.012c.263.045.53.082.799.106l.098.008c.269.022.54.036.815.036.272 0 .541-.014.808-.036l.101-.007c.268-.025.532-.06.792-.105l.069-.012a9.91 9.91 0 002.384-.747l.083-.038a10.007 10.007 0 001.393-.796c.067-.046.133-.094.2-.142a9.88 9.88 0 00.469-.358c.033-.027.07-.05.103-.079l.332-.277-.01-.009A9.974 9.974 0 0020 10zM.727 10C.727 4.887 4.887.727 10 .727c5.113 0 9.273 4.16 9.273 9.273a9.25 9.25 0 01-3.123 6.932 2.738 2.738 0 00-.325-.195l-3.08-1.54a.806.806 0 01-.447-.724v-1.075a7.412 7.412 0 001.176-2.16 1.32 1.32 0 00.758-1.197V8.752c0-.315-.116-.62-.323-.861V6.194c.019-.19.086-1.254-.685-2.133C12.554 3.296 11.47 2.91 10 2.91c-1.47 0-2.554.387-3.224 1.152-.77.879-.704 1.944-.685 2.132v1.698c-.207.24-.323.546-.323.861v1.29c0 .4.18.773.488 1.025A6.833 6.833 0 007.38 13.39v1.053a.811.811 0 01-.422.712l-2.875 1.568a2.65 2.65 0 00-.274.173A9.25 9.25 0 01.727 10z"/></symbol><symbol viewBox="0 0 20 20" id="users" xmlns="http://www.w3.org/2000/svg"><path d="M6.35 13.736l.294-.331a3.545 3.545 0 01.014-2.147 4.085 4.085 0 01-5.102-.955A4.117 4.117 0 000 13.53v5.883c0 .325.263.588.586.588h4.827a1.756 1.756 0 01-.1-.588V16.47a4.12 4.12 0 011.037-2.735zm-1.662-3.148a2.935 2.935 0 002.93-2.941 2.935 2.935 0 00-2.93-2.941 2.935 2.935 0 00-2.93 2.941 2.935 2.935 0 002.93 2.941zm13.753-.285a4.084 4.084 0 01-5.101.955c.229.701.229 1.457.014 2.147l.294.331a4.118 4.118 0 011.037 2.735v2.94c0 .207-.035.405-.1.589h4.827a.587.587 0 00.586-.588v-5.883a4.116 4.116 0 00-1.557-3.226zm-3.128.285a2.935 2.935 0 002.93-2.941 2.935 2.935 0 00-2.93-2.941 2.935 2.935 0 00-2.93 2.941 2.935 2.935 0 002.93 2.941zM10 15.882a3.506 3.506 0 01-2.775-1.364 2.934 2.934 0 00-.74 1.953v2.94c0 .325.262.589.585.589h5.86a.587.587 0 00.586-.588V16.47c0-.75-.28-1.433-.741-1.953A3.506 3.506 0 0110 15.882z"/><path d="M10 14.706a2.348 2.348 0 002.344-2.353c0-1.3-1.05-2.353-2.344-2.353a2.348 2.348 0 00-2.344 2.353c0 1.3 1.05 2.353 2.344 2.353zM8.333 4.745a9.814 9.814 0 001.36 1.05.584.584 0 00.614 0 9.84 9.84 0 001.36-1.05c.967-.898 1.458-1.77 1.458-2.594 0-1.87-1.852-2.747-3.125-1.708C8.724-.598 6.875.287 6.875 2.15c0 .824.49 1.696 1.458 2.594z"/></symbol><symbol viewBox="0 0 21 21" id="var-1" xmlns="http://www.w3.org/2000/svg"><path d="M0 0h21v21H0z"/><path d="M0 0h5v5H0zm0 8h5v5H0zm0 8h5v5H0zM8 0h5v5H8zm0 8h5v5H8zm0 8h5v5H8zm8-16h5v5h-5zm0 8h5v5h-5zm0 8h5v5h-5z"/></symbol><symbol viewBox="0 0 28 21" id="var-2" xmlns="http://www.w3.org/2000/svg"><path d="M0 0h5v5H0zm0 8h5v5H0zm0 8h5v5H0zM8 0h20v5H8zm0 8h20v5H8zm0 8h20v5H8z"/></symbol><symbol viewBox="0 0 15 22" id="var-3" xmlns="http://www.w3.org/2000/svg"><path d="M7.032.5C3.154.5 0 3.912 0 8.105 0 13.31 6.293 20.95 6.56 21.273a.602.602 0 00.943 0c.268-.323 6.56-7.963 6.56-13.168C14.064 3.912 10.91.5 7.033.5zm0 11.432c-1.951 0-3.538-1.717-3.538-3.827S5.08 4.28 7.032 4.28c1.95 0 3.538 1.716 3.538 3.826 0 2.11-1.587 3.827-3.538 3.827z"/></symbol><symbol viewBox="0 0 26 15" id="vk" xmlns="http://www.w3.org/2000/svg"><path d="M21.417 8.601c-.416-.525-.297-.758 0-1.227.005-.006 3.444-4.748 3.799-6.356l.002-.001C25.394.43 25.218 0 24.366 0H21.55c-.717 0-1.048.37-1.225.783 0 0-1.434 3.427-3.464 5.648-.654.641-.957.847-1.315.847-.176 0-.45-.205-.45-.792v-5.47c0-.702-.2-1.016-.794-1.016H9.87c-.45 0-.717.328-.717.633 0 .667 1.014.82 1.12 2.695v4.068c0 .891-.162 1.055-.522 1.055-.958 0-3.282-3.44-4.66-7.377C4.814.31 4.542 0 3.82 0H1C.196 0 .034.37.034.783c0 .731.958 4.364 4.454 9.164C6.819 13.225 10.099 15 13.085 15c1.794 0 2.013-.394 2.013-1.072 0-3.131-.163-3.427.736-3.427.417 0 1.134.206 2.809 1.786 1.914 1.874 2.229 2.713 3.3 2.713h2.817c.804 0 1.21-.394.976-1.172-.535-1.636-4.156-5.002-4.319-5.227z"/></symbol></svg>