<svg width="532" height="46" viewBox="0 0 532 46" fill="none" xmlns="http://www.w3.org/2000/svg">
<path d="M24.2002 30.6343C21.1335 30.6343 19.1284 29.1315 17.9489 26.9351V34.7959H21.2515V35.7208H10.518V34.7959H13.8206V26.9351C12.6411 29.1315 10.6359 30.6343 7.56922 30.6343C3.0871 30.6343 0.492188 27.9755 0.492188 24.3918C0.492188 19.5366 6.27176 15.953 8.15897 13.9877C9.92823 12.2537 13.8206 8.09208 13.8206 3.46803V2.08082H10.518V1.15601H21.2515V2.08082H17.9489V3.46803C17.9489 8.09208 21.8412 12.2537 23.6105 13.9877C25.6157 15.953 31.2773 19.5366 31.2773 24.3918C31.2773 27.8599 28.6824 30.6343 24.2002 30.6343ZM13.7026 7.16727C13.1129 9.13249 11.8154 11.9069 9.10257 15.4906C7.09741 18.1494 4.73841 19.8834 4.73841 23.467C4.73841 26.3571 6.27176 27.9755 9.10257 27.9755C12.0513 27.9755 13.7026 26.1259 13.7026 23.467V7.16727ZM22.431 15.4906C19.7181 11.9069 18.5386 9.13249 17.8309 7.16727V23.467C17.8309 26.2415 19.4822 27.9755 22.431 27.9755C25.2618 27.9755 26.7952 26.3571 26.7952 23.467C26.7952 19.7678 24.4361 18.1494 22.431 15.4906Z" fill="#C5AA79"/>
<path d="M43.7797 34.9117C41.8925 35.8365 40.1232 36.1833 39.6514 36.1833C39.5335 36.1833 39.0617 36.1833 39.0617 35.9521C39.0617 35.7209 39.6514 34.6805 39.6514 33.9869C39.6514 32.3684 39.4155 32.0216 35.995 25.4324C34.2257 22.0799 33.7539 19.3055 33.7539 16.2999C33.7539 4.73976 41.0668 0.578125 44.1335 0.578125C44.6053 0.578125 44.6054 0.80932 44.6054 1.04052C44.6054 1.15612 44.4874 2.54334 44.4874 2.77454C44.4874 4.73976 46.1387 7.283 46.4925 7.861C50.267 13.6411 50.6208 14.3347 51.2106 16.4155C51.6824 18.0339 51.9183 19.7679 51.9183 21.1551C51.8003 26.2416 49.3234 32.3684 43.7797 34.9117ZM44.6054 9.71061C44.2515 8.2078 43.6617 6.24258 43.6617 4.62417C43.6617 3.35255 43.7797 2.54333 44.0156 1.27172C40.713 1.27172 37.5283 4.97097 37.5283 11.907C37.5283 12.8319 37.5283 15.9531 38.4719 19.6523L40.4771 26.9352C40.595 27.3976 40.9489 29.2472 40.9489 30.75C40.9489 32.5996 40.713 33.6401 40.0053 35.2585C43.5438 35.2585 47.4362 30.8656 47.4362 23.8139C47.4362 20.1147 46.8464 17.9183 44.6054 9.71061Z" fill="#C5AA79"/>
<path d="M66.6613 35.6052V34.6804H69.9639V19.1898L61.2356 15.953V34.6804H64.5382V35.6052H53.8047V34.6804H57.1073V2.08082H53.8047V1.15601H64.5382V2.08082H61.2356V15.1437L69.9639 18.3806V2.19641H66.6613V1.2716H77.3948V2.19641H74.0922V34.7959H77.3948V35.7208H66.6613V35.6052Z" fill="#C5AA79"/>
<path d="M101.339 45.0845H100.868C100.278 40.5761 100.868 35.7209 93.6727 35.7209H87.4213C80.2263 35.7209 80.816 40.5761 80.2263 45.0845H79.7545L78.457 34.796H83.0571C82.3494 33.8712 80.934 32.1372 80.934 29.8252C80.934 26.5884 82.8212 23.4671 86.1238 19.7679C92.1393 13.063 93.5547 11.7914 93.5547 9.1326C93.5547 7.62979 92.6111 6.01137 90.488 5.89577C91.1957 6.47377 91.5496 7.16738 91.5496 7.97659C91.5496 9.3638 90.606 10.4042 89.0726 10.4042C87.5392 10.4042 86.4777 9.3638 86.4777 7.97659C86.4777 6.24257 87.7751 5.08656 89.8982 5.08656C92.3752 5.08656 94.3804 6.82058 94.3804 9.47941C94.3804 12.8318 91.3137 16.4155 89.4264 19.5367C86.9495 23.6983 85.77 26.4728 85.77 29.594C85.77 32.2528 87.1854 33.8712 89.1906 34.9117H94.4983V2.31214H91.1957V1.38733H101.929V2.31214H98.6266V34.9117H102.755L101.339 45.0845Z" fill="#C5AA79"/>
<path d="M362.969 4.13044C363.677 4.7205 364.031 5.42856 364.031 6.25465C364.031 7.67079 363.087 8.73291 361.554 8.73291C360.02 8.73291 358.959 7.67079 358.959 6.25465C358.959 4.48446 360.256 3.30434 362.379 3.30434C364.856 3.30434 366.744 5.07454 366.744 7.78883C366.744 9.91305 365.564 11.5652 364.267 14.0435C358.959 24.3105 359.077 24.7826 358.723 26.0807C358.605 26.5528 358.015 28.087 358.015 29.5031C358.015 31.9814 359.313 34.4596 361.318 34.9317V35.8758H350.82V34.9317H355.538C354.831 33.9876 353.415 32.2174 353.415 29.8571C353.415 26.9068 355.656 22.8944 358.605 19.7081C362.144 15.8137 366.036 11.0932 366.036 7.55279C366.036 5.90062 365.092 4.36646 362.969 4.13044ZM363.559 1.53415V0.590065H374.292V1.53415H370.99V24.7826H371.108L379.718 7.31679V1.41617H376.416V0.472046H387.149V1.41617H383.846V34.6956H387.149V35.6398H376.416V34.6956H379.718V9.32298L371.108 27.0248V34.6956H374.41V35.6398H363.677V34.6956H366.98V1.41617H363.559V1.53415Z" fill="#C5AA79"/>
<path d="M401.539 35.7578V34.8137H404.842V13.6895L396.114 21.2422V34.6956H399.416V35.6398H388.683V34.6956H391.985V1.41617H388.683V0.472046H399.416V1.41617H396.114V20.0621L404.842 12.5093V1.53415H401.539V0.590066H412.273V1.53415H408.97V34.8137H412.273V35.7578H401.539Z" fill="#C5AA79"/>
<path d="M416.047 1.53415H413.217V0.590062H423.95V1.53415H420.647L424.894 12.2733L426.899 6.01864C428.196 1.77019 430.555 0 433.386 0C433.976 0 434.684 0.236025 435.391 0.590062V8.96895H434.802C434.448 6.01864 433.15 4.24845 431.145 4.24845C429.376 4.24845 427.842 5.78262 427.135 7.90685L425.365 13.5714L433.74 34.8137H436.217V35.7577H425.483V34.8137H429.14L423.242 19.9441L422.181 23.6025C423.006 24.0745 423.596 24.9006 423.596 25.8447C423.596 27.2609 422.299 28.441 420.883 28.441H420.765L420.294 29.8571C419.94 31.0372 419.822 31.9814 419.822 33.0435C419.822 33.9876 420.53 34.9317 422.181 34.9317H422.889V35.8758H413.099V34.9317C416.047 34.9317 418.053 33.2795 419.232 29.6211C419.232 29.6211 419.704 28.205 419.704 28.323C418.878 27.8509 418.288 27.0248 418.288 25.9627C418.288 24.5466 419.35 23.3664 420.883 23.3664C421.001 23.3664 421.237 23.3664 421.355 23.3664L422.771 18.6459L416.047 1.53415Z" fill="#C5AA79"/>
<path d="M447.775 35.7578V34.8137H451.078V14.7516C451.078 17.8199 445.534 21.2423 441.642 21.3603V23.3665C442.939 23.4845 443.883 24.6646 443.883 25.8447C443.883 27.1429 442.939 28.205 441.642 28.323V29.3851C441.642 32.9255 442.585 34.5777 445.18 34.5777H445.77V35.5218H436.334V34.5777H436.924C439.873 34.5777 440.698 32.5715 440.698 29.3851V28.323C439.519 28.087 438.693 27.1429 438.693 25.8447C438.693 24.5466 439.519 23.6025 440.698 23.3665V21.3603C438.575 21.2423 437.16 19.9441 437.16 17.4659C437.16 14.3975 439.99 12.6273 443.175 10.9752C446.36 9.32299 449.78 8.02486 449.78 5.07455C449.78 3.54038 449.427 1.65221 446.714 1.41619C447.421 2.00625 447.775 2.71431 447.775 3.5404C447.775 4.95655 446.832 6.01867 445.298 6.01867C443.765 6.01867 442.703 4.95655 442.703 3.5404C442.703 1.77021 444.001 0.590088 446.124 0.590088C449.544 0.590088 451.078 3.18637 451.078 6.01867V0.590088H458.509V1.53417H455.206V34.8137H458.509V35.7578H447.775ZM450.96 6.01867C450.96 8.96898 449.191 11.2112 444.119 14.0435C442.703 14.8696 440.698 16.2857 440.698 18.41C440.698 19.3541 441.288 20.0621 442.349 20.0621C446.478 20.0621 450.96 16.6398 450.96 12.5094V6.01867Z" fill="#C5AA79"/>
<path d="M472.781 35.7578V34.8137H476.084V13.6895L467.356 21.2422V34.6956H470.658V35.6398H459.925V34.6956H463.227V1.41617H459.925V0.472046H470.658V1.41617H467.356V20.0621L476.084 12.5093V1.53415H472.781V0.590066H483.515V1.53415H480.212V34.8137H483.515V35.7578H472.781Z" fill="#C5AA79"/>
<path d="M496.489 4.13046C497.197 4.72052 497.551 5.42858 497.551 6.25467C497.551 7.67082 496.489 8.73294 495.074 8.73294C493.54 8.73294 492.479 7.67082 492.479 6.25467C492.479 4.48448 493.776 3.30436 495.899 3.30436C498.376 3.30436 500.381 5.07457 500.381 7.78885C500.381 9.91308 499.202 11.5652 497.904 14.0435C492.597 24.3106 492.715 24.7826 492.361 26.0808C492.243 26.5528 491.653 28.087 491.653 29.5031C491.653 31.9814 492.95 34.4597 494.956 34.9317V35.8758H484.458V34.9317H489.058C488.35 33.9876 486.935 32.2174 486.935 29.8572C486.935 26.9068 489.412 22.6584 492.125 19.7081C496.017 15.5777 499.556 11.0932 499.556 7.55281C499.674 5.90064 498.612 4.36649 496.489 4.13046ZM497.197 1.53417V0.590088H507.93V1.53417H504.628V34.8137H507.93V35.7578H497.197V34.8137H500.499V1.53417H497.197Z" fill="#C5AA79"/>
<path d="M520.905 35.7578V34.8137H524.208V14.7516C524.208 17.8199 518.664 21.2423 514.772 21.3603V23.3665C516.069 23.4845 517.013 24.6646 517.013 25.8447C517.013 27.1429 516.069 28.205 514.772 28.323V29.3851C514.772 32.9255 515.715 34.5777 518.31 34.5777H518.9V35.5218H509.464V34.5777H509.936C512.766 34.5777 513.71 32.5715 513.71 29.3851V28.323C512.531 28.087 511.705 27.1429 511.705 25.8447C511.705 24.5466 512.531 23.6025 513.71 23.3665V21.3603C511.587 21.2423 510.172 19.9441 510.172 17.4659C510.172 14.3975 513.002 12.6273 516.187 10.9752C519.372 9.32299 522.792 8.02486 522.792 5.07455C522.792 3.54038 522.438 1.65221 519.726 1.41619C520.433 2.00625 520.787 2.71431 520.787 3.5404C520.787 4.95655 519.844 6.01867 518.31 6.01867C516.777 6.01867 515.715 4.95655 515.715 3.5404C515.715 1.77021 517.013 0.590088 519.136 0.590088C522.556 0.590088 524.09 3.18637 524.09 6.01867V0.590088H531.521V1.53417H528.218V34.8137H531.521V35.7578H520.905ZM524.208 6.01867C524.208 8.96898 522.438 11.2112 517.249 14.0435C515.833 14.8696 513.828 16.2857 513.828 18.41C513.828 19.3541 514.418 20.0621 515.479 20.0621C519.608 20.0621 524.09 16.6398 524.09 12.5094V6.01867H524.208Z" fill="#C5AA79"/>
<path d="M134.199 35.0272V34.1024H137.502V14.4502C137.502 17.4559 131.958 20.8083 128.066 20.9239V22.8891C129.363 23.0047 130.307 24.1607 130.307 25.3167C130.307 26.5884 129.245 27.6288 128.066 27.7444V28.7848C128.066 32.2528 129.009 33.8712 131.604 33.8712H132.194V34.796H122.758V34.1024H123.23C126.178 34.1024 127.004 32.1372 127.004 29.016V27.9756C125.825 27.7444 124.999 26.8196 124.999 25.548C124.999 24.2763 125.825 23.3515 127.004 23.1203V21.1551C124.881 21.0395 123.466 19.7679 123.466 17.3403C123.466 14.3346 126.296 12.6006 129.481 10.9822C132.666 9.3638 136.086 8.09219 136.086 5.20217C136.086 3.69935 135.732 1.84973 133.02 1.61853C133.727 2.19653 134.081 2.89016 134.081 3.69937C134.081 5.08658 133.137 6.12696 131.604 6.12696C130.071 6.12696 129.009 5.08658 129.009 3.69937C129.009 1.96535 130.307 0.693733 132.43 0.693733C135.85 0.693733 137.384 3.23696 137.384 6.01139V0.578125H144.815V1.50292H141.512V34.1024H144.815V35.0272H134.199ZM137.502 5.89578C137.502 8.78581 135.732 10.9822 130.543 13.7566C129.009 14.5658 127.122 15.9531 127.122 18.0339C127.122 18.9587 127.712 19.6523 128.773 19.6523C132.902 19.6523 137.384 16.2999 137.384 12.2538V5.89578H137.502Z" fill="#C5AA79"/>
<path d="M153.071 34.1024H157.2V35.0272H145.641V34.1024H148.943V11.4445C148.943 3.69923 153.543 0 159.677 0C164.749 0 168.523 2.31201 168.523 6.70486C168.523 10.4041 165.928 13.6409 160.502 13.6409C158.851 13.6409 157.79 13.0629 157.082 12.4849L153.189 18.843V34.1024H153.071ZM156.728 11.4445C157.082 11.7913 157.907 12.0225 158.733 12.0225C161.564 12.0225 164.513 9.94169 164.513 6.70486C164.513 3.46802 161.918 0.924796 159.087 0.924796C155.548 0.924796 153.189 3.35244 153.189 7.05168V17.3402L156.728 11.4445Z" fill="#C5AA79"/>
<path d="M171.235 1.5028H168.404V0.578006H179.137V1.5028H175.835L180.081 12.0225L182.086 5.89567C183.384 1.73403 185.743 0 188.573 0C189.163 0 189.871 0.231202 190.461 0.578006V8.7857H189.871C189.517 5.89567 188.22 4.16165 186.214 4.16165C184.445 4.16165 182.912 5.66447 182.204 7.7453L180.435 13.2941L188.809 34.1024H191.286V35.0272H180.553V34.1024H184.209L178.312 19.5366L177.25 23.1202C178.076 23.5826 178.666 24.3918 178.666 25.3167C178.666 26.8195 177.368 27.8599 175.953 27.8599H175.835L175.363 29.2471C175.009 30.4031 174.891 31.3279 174.891 32.3683C174.891 33.2931 175.599 34.218 177.25 34.218H177.958V35.1428H168.168V34.1024C170.999 34.1024 173.122 32.4839 174.301 28.9003C174.301 28.9003 174.773 27.5131 174.773 27.6287C173.83 27.1663 173.24 26.3571 173.24 25.3167C173.24 23.9294 174.301 22.7735 175.835 22.7735C175.953 22.7735 176.189 22.7735 176.307 22.7735L177.722 18.1494L171.235 1.5028Z" fill="#C5AA79"/>
<path d="M203.199 35.1427V34.2179H206.502V14.5657C206.502 17.5714 200.958 20.9238 197.066 21.0394V23.0046C198.363 23.1202 199.307 24.2762 199.307 25.4322C199.307 26.7038 198.245 27.7442 197.066 27.8598V28.9002C197.066 32.3683 198.009 33.9867 200.604 33.9867H201.194V34.9115H191.758V34.2179H192.23C195.06 34.2179 196.004 32.2527 196.004 29.1315V28.0911C194.825 27.8599 193.999 26.935 193.999 25.6634C193.999 24.3918 194.825 23.467 196.004 23.2358V21.2706C193.881 21.155 192.466 19.8834 192.466 17.4558C192.466 14.4501 195.296 12.7161 198.481 11.0977C201.666 9.47928 205.086 8.20767 205.086 5.31765C205.086 3.81483 204.732 1.96521 202.02 1.73401C202.727 2.31201 203.081 3.00564 203.081 3.81485C203.081 5.20206 202.137 6.24244 200.604 6.24244C199.071 6.24244 198.009 5.20206 198.009 3.81485C198.009 2.08083 199.307 0.809212 201.43 0.809212C204.85 0.809212 206.384 3.35244 206.384 6.12687V0.693604H213.815V1.6184H210.512V34.2179H213.815V35.1427H203.199ZM206.384 6.01126C206.384 8.90128 204.614 11.0977 199.425 13.8721C197.891 14.6813 196.004 16.0685 196.004 18.1494C196.004 19.0742 196.594 19.7678 197.655 19.7678C201.784 19.7678 206.266 16.4154 206.266 12.3693V6.01126H206.384Z" fill="#C5AA79"/>
<path d="M228.204 35.0272V34.1024H231.507V18.6119L222.779 15.375V34.1024H226.081V35.0272H215.348V34.1024H218.65V1.50292H215.348V0.578125H226.081V1.50292H222.779V14.4502L231.507 17.6871V1.50292H228.204V0.578125H238.938V1.50292H235.635V34.1024H238.938V35.0272H228.204Z" fill="#C5AA79"/>
<path d="M259.935 10.8666H259.464C258.874 6.35817 259.464 1.50292 252.269 1.50292H248.376V34.1024H251.679V35.0272H240.945V34.1024H244.248V1.50292H240.945V0.578125H261.233L259.935 10.8666Z" fill="#C5AA79"/>
<path d="M281.638 24.6231C280.93 31.4436 278.099 35.6052 272.556 35.6052C265.95 35.6052 262.766 27.7443 262.766 18.3806C262.766 7.97649 267.012 0 273.263 0C277.745 0 280.694 3.46803 281.402 8.43889H283.407V9.36372H275.032V8.43889H277.391C277.391 5.43325 276.802 0.924797 273.263 0.924797C268.545 0.924797 267.72 8.43889 267.484 15.953C268.545 14.3346 270.55 13.5254 272.32 13.5254C275.976 13.5254 278.099 16.4154 278.099 19.0742H270.668V18.1494H272.32C274.325 18.1494 274.797 17.5714 274.797 16.4154C274.797 15.4906 274.207 14.4502 272.32 14.4502C270.904 14.4502 267.484 15.375 267.484 19.0742C267.484 25.8947 267.72 34.6804 272.438 34.6804C276.33 34.6804 277.274 31.2124 277.274 24.6231H274.679V23.6983H283.761V24.6231H281.638Z" fill="#C5AA79"/>
<path d="M295.792 4.04616C296.5 4.62416 296.853 5.31775 296.853 6.12696C296.853 7.51417 295.91 8.55459 294.494 8.55459C292.961 8.55459 291.9 7.51417 291.9 6.12696C291.9 4.39294 293.197 3.23693 295.32 3.23693C297.797 3.23693 299.802 4.97097 299.802 7.62979C299.802 9.71061 298.623 11.329 297.325 13.7566C292.017 23.8139 292.135 24.2763 291.782 25.548C291.664 26.0104 291.074 27.5132 291.074 28.9004C291.074 31.328 292.371 33.7556 294.377 34.218V35.1428H283.879V34.1024H288.479C287.771 33.1776 286.356 31.4436 286.356 29.1316C286.356 26.2416 288.833 22.0799 291.546 19.1899C295.438 15.1439 298.977 10.751 298.977 7.28297C298.977 5.78016 298.033 4.27736 295.792 4.04616ZM296.5 1.50292V0.578125H307.233V1.50292H303.931V34.1024H307.233V35.0272H296.5V34.1024H299.802V1.50292H296.5Z" fill="#C5AA79"/>
<path d="M320.207 35.0272V34.1024H323.509V14.4502C323.509 17.4559 317.966 20.8083 314.073 20.9239V22.8891C315.371 23.0047 316.314 24.1607 316.314 25.3167C316.314 26.5884 315.371 27.6288 314.073 27.7444V28.7848C314.073 32.2528 315.017 33.8712 317.612 33.8712H318.202V34.796H308.766V34.1024H309.237C312.186 34.1024 313.012 32.1372 313.012 29.016V27.9756C311.832 27.7444 311.007 26.8196 311.007 25.548C311.007 24.2763 311.832 23.3515 313.012 23.1203V21.1551C310.889 21.0395 309.473 19.7679 309.473 17.3403C309.473 14.3346 312.304 12.6006 315.489 10.9822C318.673 9.3638 322.094 8.09219 322.094 5.20217C322.094 3.69935 321.74 1.84973 319.027 1.61853C319.735 2.19653 320.089 2.89016 320.089 3.69937C320.089 5.08658 319.145 6.12696 317.612 6.12696C316.079 6.12696 315.017 5.08658 315.017 3.69937C315.017 1.96535 316.314 0.693733 318.438 0.693733C321.858 0.693733 323.391 3.23696 323.391 6.01139V0.578125H330.822V1.50292H327.52V34.1024H330.822V35.0272H320.207ZM323.509 5.89578C323.509 8.78581 321.74 10.9822 316.668 13.7566C315.135 14.5658 313.248 15.9531 313.248 18.0339C313.248 18.9587 313.837 19.6523 314.899 19.6523C319.027 19.6523 323.509 16.2999 323.509 12.2538V5.89578Z" fill="#C5AA79"/>
</svg>
