<svg width="15" height="22" viewBox="0 0 15 22" fill="none" xmlns="http://www.w3.org/2000/svg">
<path d="M7.03179 0.5C3.15444 0.5 0 3.91177 0 8.10537C0 13.3098 6.29276 20.9501 6.56068 21.2728C6.81233 21.576 7.2517 21.5755 7.50289 21.2728C7.77081 20.9501 14.0636 13.3098 14.0636 8.10537C14.0635 3.91177 10.9091 0.5 7.03179 0.5ZM7.03179 11.9318C5.081 11.9318 3.49395 10.2153 3.49395 8.10537C3.49395 5.99544 5.08103 4.27894 7.03179 4.27894C8.98254 4.27894 10.5696 5.99548 10.5696 8.10541C10.5696 10.2153 8.98254 11.9318 7.03179 11.9318Z" fill="#505769"/>
</svg>
