<svg width="21" height="26" viewBox="0 0 21 26" fill="none" xmlns="http://www.w3.org/2000/svg">
<path d="M7.84287 20.2097L6.80048 20.8352C6.25676 21.162 5.63551 21.3338 5.00591 21.3338C3.83677 21.3338 2.75249 20.7524 2.10295 19.7792C1.93952 19.534 1.81381 19.2732 1.71741 19.0039C1.11187 19.6649 0.757812 20.5386 0.757812 21.4763C0.757812 23.4982 2.40255 25.143 4.42448 25.143C6.44641 25.143 8.09116 23.4982 8.09116 21.4763C8.09116 21.0394 7.99584 20.6141 7.84287 20.2097Z" fill="white"/>
<path d="M20.3457 3.18491L13.0124 0.0420582C12.7965 -0.0501156 12.5451 0.0127414 12.3974 0.196058L10.3021 2.81508C10.2037 2.93869 10.166 3.10005 10.1995 3.25508C10.233 3.41011 10.3346 3.54005 10.4771 3.61125L18.3897 7.56707C18.6118 7.6781 18.8486 7.73467 19.0916 7.73467C19.4949 7.73467 19.893 7.57336 20.1853 7.29153C20.4933 6.99399 20.6641 6.59279 20.6641 6.16222V3.66679C20.6631 3.45622 20.5384 3.26765 20.3457 3.18491Z" fill="white"/>
<path d="M3.89844 21.1315V22.5238C3.89844 22.8129 4.13312 23.0476 4.42226 23.0476C4.71141 23.0476 4.94609 22.8129 4.94609 22.5238V21.3274C4.58255 21.3211 4.23472 21.2446 3.89844 21.1315Z" fill="white"/>
<path d="M17.9184 8.50456L9.10897 4.09937L3.87716 6.06153C3.32505 6.26793 2.85362 6.66079 2.54984 7.16679L0.374994 10.7915C-0.0880361 11.5636 -0.124719 12.5054 0.278597 13.31L1.82173 16.3963C2.10356 15.7499 2.55819 15.225 3.14905 14.8867C3.92847 14.4393 4.52144 14.0821 4.97715 13.7929C4.95412 13.7793 4.93733 13.7552 4.91326 13.7437C4.81898 13.1717 4.5403 12.6667 4.2763 12.2969C5.07772 11.9523 6.14944 11.3311 6.69315 10.6972C7.11115 10.9424 7.76903 11.2577 8.59143 11.4191C7.9796 12.1765 7.35629 13.1141 7.13 13.7385C6.93829 13.8255 6.65229 13.9742 6.21126 14.2298C5.65812 14.6174 4.85772 15.1129 3.66973 15.796C3.13333 16.104 2.7583 16.6519 2.6127 17.3381C2.58127 17.4858 2.5687 17.6335 2.56453 17.7812C2.5635 17.8284 2.56767 17.8745 2.5687 17.9216C2.57184 18.0243 2.58024 18.1259 2.59699 18.2275C2.60538 18.2778 2.61481 18.327 2.62527 18.3773C2.6483 18.4779 2.6787 18.5774 2.7143 18.6749C2.73002 18.7178 2.74362 18.7608 2.76145 18.8037C2.82013 18.9399 2.88819 19.074 2.97305 19.1997C3.07259 19.3496 3.19305 19.4773 3.31665 19.5978C3.39208 19.668 3.47276 19.7319 3.55551 19.7917C3.59636 19.8221 3.63825 19.8503 3.68019 19.8786C4.15058 20.1741 4.7163 20.305 5.27047 20.2526C5.33858 20.2453 5.40772 20.239 5.47579 20.2254C5.5659 20.2086 5.65493 20.1877 5.74293 20.1604C5.91893 20.1038 6.09389 20.0389 6.25939 19.9394L9.85898 17.7802C10.4226 17.643 13.2229 16.8049 15.3443 13.3729C16.5836 11.3688 17.4175 9.65705 17.9224 8.50883C17.9215 8.50564 17.9205 8.50456 17.9184 8.50456Z" fill="white"/>
</svg>
