<svg width="21" height="21" viewBox="0 0 21 21" fill="none" xmlns="http://www.w3.org/2000/svg">
<g clip-path="url(#clip0)">
<path d="M8.68611 16.6464L7.85694 17.1439C7.42444 17.4039 6.93027 17.5406 6.42945 17.5406C5.49946 17.5406 4.63696 17.0781 4.12029 16.3039C3.99029 16.1089 3.89029 15.9014 3.81361 15.6873C3.33193 16.2131 3.05029 16.9081 3.05029 17.6539C3.05029 19.2622 4.3586 20.5706 5.96695 20.5706C7.5753 20.5706 8.88361 19.2623 8.88361 17.6539C8.88361 17.3064 8.80779 16.9681 8.68611 16.6464Z" fill="white"/>
<path d="M18.6311 3.10412L12.7978 0.604134C12.6261 0.530814 12.4261 0.580814 12.3086 0.726633L10.642 2.80994C10.5636 2.90826 10.5336 3.03662 10.5603 3.15994C10.587 3.28326 10.6678 3.38662 10.7811 3.44326L17.0753 6.58992C17.2519 6.67824 17.4402 6.72324 17.6336 6.72324C17.9544 6.72324 18.2711 6.59492 18.5036 6.37074C18.7486 6.13406 18.8844 5.81492 18.8844 5.47243V3.48744C18.8836 3.31994 18.7844 3.16994 18.6311 3.10412Z" fill="white"/>
<path d="M5.55029 17.3798V18.4873C5.55029 18.7173 5.73697 18.9039 5.96697 18.9039C6.19697 18.9039 6.38365 18.7173 6.38365 18.4873V17.5356C6.09447 17.5306 5.81779 17.4698 5.55029 17.3798Z" fill="white"/>
<path d="M16.7019 7.33566L9.69447 3.83154L5.53282 5.39235C5.09364 5.55653 4.71865 5.86903 4.47701 6.27153L2.74702 9.15483C2.3787 9.76901 2.34952 10.5181 2.67034 11.1581L3.89783 13.6131C4.12201 13.0989 4.48365 12.6815 4.95365 12.4123C5.57364 12.0565 6.04532 11.7723 6.40782 11.5423C6.3895 11.5315 6.37614 11.5123 6.357 11.5031C6.282 11.0481 6.06032 10.6465 5.85032 10.3523C6.48782 10.0781 7.34031 9.58401 7.77281 9.07983C8.1053 9.27483 8.62862 9.52565 9.2828 9.65401C8.79612 10.2565 8.3003 11.0023 8.1203 11.499C7.96781 11.5682 7.74031 11.6865 7.38949 11.8898C6.94949 12.1981 6.31282 12.5923 5.36782 13.1356C4.94115 13.3806 4.64283 13.8164 4.52701 14.3623C4.50201 14.4798 4.49201 14.5973 4.48869 14.7148C4.48787 14.7523 4.49119 14.789 4.49201 14.8265C4.49451 14.9082 4.50119 14.989 4.51451 15.0698C4.52119 15.1098 4.52869 15.149 4.53701 15.189C4.55533 15.269 4.57951 15.3482 4.60783 15.4257C4.62033 15.4598 4.63115 15.494 4.64533 15.5282C4.69201 15.6365 4.74615 15.7432 4.81365 15.8432C4.89283 15.9623 4.98865 16.064 5.08697 16.1598C5.14696 16.2157 5.21114 16.2665 5.27696 16.314C5.30946 16.3382 5.34278 16.3607 5.37614 16.3832C5.75032 16.6182 6.20032 16.7224 6.64113 16.6807C6.69531 16.6749 6.75031 16.6699 6.80445 16.659C6.87613 16.6457 6.94695 16.629 7.01695 16.6073C7.15695 16.5623 7.29613 16.5106 7.42777 16.4315L10.2911 14.714C10.7394 14.6048 12.9669 13.9382 14.6544 11.2082C15.6402 9.61405 16.3035 8.25242 16.7052 7.33906C16.7044 7.33652 16.7036 7.33566 16.7019 7.33566Z" fill="white"/>
</g>
<defs>
<clipPath id="clip0">
<rect x="0.666504" y="0.570557" width="20" height="20" fill="white"/>
</clipPath>
</defs>
</svg>
