<svg width="21" height="20" viewBox="0 0 21 20" fill="none" xmlns="http://www.w3.org/2000/svg">
<g clip-path="url(#clip0)">
<path d="M10.25 4.03906C6.42879 4.03906 2.96351 6.12968 0.40649 9.52541C0.197837 9.80361 0.197837 10.1923 0.40649 10.4705C2.96351 13.8703 6.42879 15.9609 10.25 15.9609C14.0712 15.9609 17.5365 13.8703 20.0935 10.4746C20.3022 10.1964 20.3022 9.8077 20.0935 9.5295C17.5365 6.12968 14.0712 4.03906 10.25 4.03906ZM10.5241 14.1976C7.98755 14.3572 5.89284 12.2665 6.05239 9.72588C6.18331 7.63117 7.88118 5.9333 9.97589 5.80238C12.5125 5.64283 14.6072 7.73345 14.4476 10.2741C14.3126 12.3647 12.6147 14.0626 10.5241 14.1976ZM10.3973 12.2584C9.03081 12.3443 7.90163 11.2192 7.99164 9.85271C8.06119 8.72353 8.97763 7.81118 10.1068 7.73754C11.4733 7.65162 12.6025 8.77671 12.5125 10.1432C12.4388 11.2765 11.5224 12.1888 10.3973 12.2584Z" fill="white" fill-opacity="0.7"/>
</g>
<defs>
<clipPath id="clip0">
<rect x="0.25" width="20" height="20" fill="white"/>
</clipPath>
</defs>
</svg>
