<svg width="12" height="20" viewBox="0 0 12 20" fill="none" xmlns="http://www.w3.org/2000/svg">
<path d="M0.714375 19.8737L7.11598 13.4429C7.37857 13.1804 7.19102 12.7323 6.82007 12.7323H6.30953C5.96155 12.7323 5.76564 12.3301 5.98238 12.0572L9.37697 7.77693C9.59369 7.50394 9.39991 7.10176 9.0498 7.10176H7.34314C6.99931 7.10176 6.80342 6.71 7.00973 6.43493L11.3462 0.666834C11.5525 0.391765 11.3566 0 11.0128 0H4.15482C3.99643 0 3.85056 0.0896058 3.78181 0.231308L0.428887 7.01426C0.291353 7.29141 0.493487 7.61649 0.801898 7.61649H2.34812C2.65653 7.61649 2.85866 7.94157 2.72113 8.21873L0.428887 12.8574C0.291353 13.1346 0.493487 13.4596 0.801898 13.4596H2.25851C2.56692 13.4596 2.76695 13.7805 2.63361 14.0577L0.0454578 19.3986C-0.160844 19.8216 0.383042 20.2071 0.714375 19.8737Z" fill="#C5AA79"/>
</svg>
