<svg width="21" height="20" viewBox="0 0 21 20" fill="none" xmlns="http://www.w3.org/2000/svg">
<path d="M10.0662 4.86426C7.22443 4.86426 4.92383 7.16255 4.92383 9.99583C4.92383 12.8316 7.22694 15.1274 10.0662 15.1274C12.9079 15.1274 15.2085 12.8291 15.2085 9.99583C15.2085 7.16005 12.9054 4.86426 10.0662 4.86426ZM10.0662 13.3266C8.2215 13.3266 6.7284 11.8358 6.7284 9.99583C6.7284 8.15587 8.22234 6.66506 10.0662 6.66506C11.91 6.66506 13.4039 8.15587 13.4039 9.99583C13.4048 11.8358 11.9108 13.3266 10.0662 13.3266Z" fill="white"/>
<path d="M14.1938 0.0628211C12.35 -0.0230107 7.78303 -0.0188441 5.93755 0.0628211C4.31587 0.138653 2.88541 0.529479 1.7322 1.68029C-0.195116 3.60359 0.0512261 6.19521 0.0512261 9.99598C0.0512261 13.8859 -0.165889 16.4175 1.7322 18.3117C3.66703 20.2416 6.30163 19.9891 10.0652 19.9891C13.9265 19.9891 15.2593 19.9916 16.6246 19.4641C18.481 18.745 19.8822 17.0892 20.0191 14.1151C20.106 12.2743 20.101 7.71769 20.0191 5.87605C19.8538 2.36528 17.9657 0.236151 14.1938 0.0628211ZM17.1123 17.0392C15.8489 18.3 14.0961 18.1875 10.041 18.1875C5.86573 18.1875 4.19144 18.2492 2.96975 17.0267C1.56268 15.6292 1.81737 13.3851 1.81737 9.98265C1.81737 5.37856 1.3439 2.06279 5.97429 1.82612C7.03816 1.78862 7.3513 1.77612 10.0293 1.77612L10.0669 1.80112C14.5169 1.80112 18.0083 1.33613 18.2179 5.95605C18.2655 7.0102 18.2764 7.32686 18.2764 9.99515C18.2755 14.1134 18.354 15.7942 17.1123 17.0392Z" fill="white"/>
<path d="M15.4106 5.86118C16.0743 5.86118 16.6123 5.3243 16.6123 4.66203C16.6123 3.99976 16.0743 3.46289 15.4106 3.46289C14.747 3.46289 14.209 3.99976 14.209 4.66203C14.209 5.3243 14.747 5.86118 15.4106 5.86118Z" fill="white"/>
</svg>
