<svg width="11" height="16" viewBox="0 0 11 16" fill="none" xmlns="http://www.w3.org/2000/svg">
<path d="M5.49982 0.434326C2.50436 0.434326 0.0673828 2.81771 0.0673828 5.74728C0.0673828 9.38297 4.92888 14.7204 5.13586 14.9458C5.33028 15.1576 5.66971 15.1572 5.86377 14.9458C6.07076 14.7204 10.9323 9.38297 10.9323 5.74728C10.9322 2.81771 8.49525 0.434326 5.49982 0.434326ZM5.49982 8.42038C3.99273 8.42038 2.76665 7.22123 2.76665 5.74728C2.76665 4.27333 3.99276 3.07421 5.49982 3.07421C7.00688 3.07421 8.23295 4.27336 8.23295 5.74731C8.23295 7.22126 7.00688 8.42038 5.49982 8.42038Z" fill="white" fill-opacity="0.7"/>
</svg>
