<svg width="30" height="30" viewBox="0 0 30 30" fill="none" xmlns="http://www.w3.org/2000/svg">
<path d="M7.49856 29.8105L17.101 20.1644C17.4948 19.7705 17.2135 19.0985 16.6571 19.0985H15.8913C15.3693 19.0985 15.0755 18.4952 15.4006 18.0857L20.4924 11.6654C20.8175 11.2559 20.5269 10.6526 20.0017 10.6526H17.4417C16.926 10.6526 16.6321 10.065 16.9416 9.65238L23.4463 1.00025C23.7558 0.587647 23.4619 0 22.9462 0H12.6592C12.4216 0 12.2028 0.134409 12.0997 0.346962L7.07033 10.5214C6.86403 10.9371 7.16723 11.4247 7.62985 11.4247H9.94918C10.4118 11.4247 10.715 11.9124 10.5087 12.3281L7.07033 19.2861C6.86403 19.7018 7.16723 20.1894 7.62985 20.1894H9.81477C10.2774 20.1894 10.5774 20.6708 10.3774 21.0865L6.49519 29.0979C6.18574 29.7324 7.00156 30.3107 7.49856 29.8105Z" fill="#C5AA79"/>
</svg>
