<svg width="30" height="30" viewBox="0 0 30 30" fill="none" xmlns="http://www.w3.org/2000/svg">
<path d="M9.525 20.5821L9.96562 20.087C9.64371 19.0582 9.64283 17.9255 9.98672 16.8796C7.4543 18.2709 4.24822 17.7165 2.33437 15.4528C0.912891 16.5802 0 18.3222 0 20.2733V29.0624C0 29.5475 0.39375 29.9413 0.878906 29.9413H8.11992C8.02207 29.6665 7.96875 29.3706 7.96875 29.0624V24.6679C7.96875 23.1608 8.52129 21.7095 9.525 20.5821Z" fill="#C5AA79"/>
<path d="M7.03125 15.8788C9.45828 15.8788 11.4258 13.9113 11.4258 11.4843C11.4258 9.05722 9.45828 7.08972 7.03125 7.08972C4.60422 7.08972 2.63672 9.05722 2.63672 11.4843C2.63672 13.9113 4.60422 15.8788 7.03125 15.8788Z" fill="#C5AA79"/>
<path d="M27.6655 15.4528C25.7482 17.7206 22.5399 18.2689 20.0132 16.879C20.3565 17.927 20.3566 19.0567 20.0343 20.087L20.4749 20.5821C21.4786 21.7095 22.0312 23.1608 22.0312 24.6679V29.0624C22.0312 29.3706 21.9778 29.6665 21.88 29.9413H29.121C29.6062 29.9413 29.9999 29.5475 29.9999 29.0624V20.2733C29.9999 18.3222 29.087 16.5802 27.6655 15.4528Z" fill="#C5AA79"/>
<path d="M22.9688 15.8788C25.3958 15.8788 27.3633 13.9113 27.3633 11.4843C27.3633 9.05722 25.3958 7.08972 22.9688 7.08972C20.5417 7.08972 18.5742 9.05722 18.5742 11.4843C18.5742 13.9113 20.5417 15.8788 22.9688 15.8788Z" fill="#C5AA79"/>
<path d="M15 23.789C13.3102 23.789 11.8037 22.9903 10.8381 21.7505C10.1467 22.5274 9.72656 23.5493 9.72656 24.6679V29.0624C9.72656 29.5476 10.1203 29.9413 10.6055 29.9413H19.3945C19.8797 29.9413 20.2734 29.5476 20.2734 29.0624V24.6679C20.2734 23.5493 19.8533 22.5274 19.1619 21.7505C18.1963 22.9903 16.6898 23.789 15 23.789Z" fill="#C5AA79"/>
<path d="M15 22.0311C16.9416 22.0311 18.5156 20.4571 18.5156 18.5155C18.5156 16.5739 16.9416 14.9999 15 14.9999C13.0584 14.9999 11.4844 16.5739 11.4844 18.5155C11.4844 20.4571 13.0584 22.0311 15 22.0311Z" fill="#C5AA79"/>
<path d="M12.4992 7.14796C13.5026 8.07538 14.4974 8.69132 14.5392 8.7171C14.8218 8.89101 15.1781 8.89101 15.4607 8.7171C15.5026 8.69132 16.4973 8.07538 17.5008 7.14796C18.9518 5.80698 19.6875 4.50333 19.6875 3.27327C19.6875 0.479758 16.9096 -0.831511 15 0.720344C13.0862 -0.834969 10.3125 0.487141 10.3125 3.27327C10.3125 4.50333 11.0482 5.80698 12.4992 7.14796Z" fill="#C5AA79"/>
</svg>
