<svg width="60" height="65" viewBox="0 0 60 65" fill="none" xmlns="http://www.w3.org/2000/svg">
<path d="M59.1056 11.1882V0C55.9099 1.38218 49.9131 3.38075 47.1309 3.53017C44.3488 3.6796 31.2274 1.64368 27.6744 2.52155C24.817 3.23132 9.12024 14.9799 4.4206 18.2112C-3.06123 23.3851 3.55586 24.2069 6.69522 23.0115C9.85338 21.8161 20.0422 16.1566 20.0422 16.1566C20.0046 17.296 20.1926 18.921 21.2077 20.6767C21.2077 20.6767 22.3732 22.3017 23.7643 23.8894C20.7565 25.2529 18.6511 28.2787 18.6511 31.7716C18.6511 34.7414 20.1738 37.375 22.4672 38.9253H7.42837C6.60123 38.9253 5.92448 39.5977 5.92448 40.4195V63.5057C5.92448 64.3276 6.60123 65 7.42837 65H47.3565C48.1837 65 48.8604 64.3276 48.8604 63.5057V40.4382C48.8604 39.6164 48.1837 38.944 47.3565 38.944H32.2801C34.5923 37.375 36.0962 34.7601 36.0962 31.7902C36.0962 29.6236 35.2878 27.625 33.9531 26.1121C33.9343 26.0934 33.9155 26.0934 33.9155 26.0747C36.0962 24.9914 38.3896 23.0675 43.9352 20.8075C53.2593 16.9971 56.4174 12.6825 59.1056 11.1882ZM33.3892 19.9856C31.6409 21.2184 30.4378 22.4138 29.7423 23.4598C29.3475 23.3477 28.9527 23.273 28.5392 23.217C28.182 22.0589 27.5616 20.5273 26.6217 18.5101C26.6217 18.5101 26.1893 17.5014 26.3397 16.2874C26.6969 14.9425 27.9188 13.4856 31.3965 13.0374C37.2429 12.2902 38.0888 15.2227 35.4382 18.2859C34.8743 18.8463 34.1787 19.4253 33.3892 19.9856ZM34.2163 42.5115C35.0435 42.5115 35.7202 43.1839 35.7202 44.0057C35.7202 44.8276 35.0435 45.5 34.2163 45.5H20.5498C19.7226 45.5 19.0459 44.8276 19.0459 44.0057C19.0459 43.1839 19.7226 42.5115 20.5498 42.5115H34.2163ZM27.3924 38.1595C23.8583 38.1595 20.9633 35.3017 20.9633 31.7716C20.9633 28.2601 23.8395 25.3836 27.3924 25.3836C27.9188 25.3836 28.4264 25.4397 28.9151 25.5704C28.9151 26.579 29.7047 27.158 31.0206 27.0273C31.2274 27.0086 31.4153 26.9713 31.6033 26.9526C32.9568 28.1293 33.8216 29.8477 33.8216 31.7716C33.8028 35.3017 30.9266 38.1595 27.3924 38.1595Z" fill="#3C414F"/>
<path d="M26.4157 32.6494C26.7541 32.6868 27.2053 32.6868 27.4497 32.6868C29.3295 32.6868 30.3446 31.4727 30.3446 30.1466C30.3446 28.8578 29.6115 27.625 27.2805 27.625C26.7353 27.625 25.4758 27.6437 25.0434 27.6437V31.342H23.7087V32.6681H25.0434V33.0043H23.7087V34.3305H25.0434V35.4885H26.4345V34.3305H28.6528V33.0043H26.4345V32.6494H26.4157ZM26.4157 28.9325C26.7917 28.9138 27.1301 28.9138 27.4121 28.9138C28.352 28.9138 28.8595 29.3247 28.8595 30.1279C28.8595 31.0058 28.2204 31.398 27.3933 31.398C27.0737 31.398 26.7353 31.3793 26.4157 31.342V28.9325Z" fill="#3C414F"/>
</svg>
