<svg width="38" height="65" viewBox="0 0 38 65" fill="none" xmlns="http://www.w3.org/2000/svg">
<path d="M33.4085 0H4.42959C2.01531 0 0.0393066 1.97414 0.0393066 4.39029V60.6079C0.0393066 63.024 2.01531 65 4.42959 65H33.4085C35.8227 65 37.7987 63.0277 37.7987 60.6097V4.39029C37.7987 1.97414 35.8227 0 33.4085 0ZM14.2836 3.16457H23.5545C23.8479 3.16457 24.0856 3.40229 24.0856 3.69757C24.0856 3.991 23.8479 4.22871 23.5545 4.22871H14.2836C13.9902 4.22871 13.7524 3.991 13.7524 3.69757C13.7524 3.40229 13.9902 3.16457 14.2836 3.16457ZM18.919 62.8049C17.7063 62.8049 16.7239 61.8224 16.7239 60.6079C16.7239 59.3933 17.7063 58.4127 18.919 58.4127C20.1317 58.4127 21.1142 59.3933 21.1142 60.6079C21.1142 61.8224 20.1317 62.8049 18.919 62.8049ZM34.7437 56.875H3.09431V6.96243H34.7437V56.875Z" fill="#3C414F"/>
</svg>
