<svg width="74" height="65" viewBox="0 0 74 65" fill="none" xmlns="http://www.w3.org/2000/svg">
<path d="M65.6118 20.248V26.5847L65.9176 27.332L65.6118 27.4562V38.629L69.8259 36.91L70.7503 39.1717C71.1573 40.172 70.6986 41.3092 69.727 41.707L18.8627 62.4692C17.9003 62.8624 16.7574 62.3496 16.3584 61.3746L15.4351 59.1117L54.3609 43.2225H26.9918L11.5268 49.5349L8.95012 43.2213H6.36304L14.1427 62.2783C14.8176 63.9318 16.3952 64.9999 18.1636 64.9999C18.7155 64.9999 19.257 64.8941 19.7699 64.6849L70.633 43.9227C72.8269 43.0258 73.8743 40.4894 72.9671 38.2656L65.6118 20.248Z" fill="#3C414F"/>
<path d="M51.5877 26.2525V24.7129L50.6943 26.2525H51.5877Z" fill="#3C414F"/>
<path d="M20.7092 24.7129L19.8181 26.2525H20.7092V24.7129Z" fill="#3C414F"/>
<path d="M26.5583 26.9173C26.648 26.8 26.6917 26.6482 26.6917 26.4597C26.6917 26.2516 26.6411 26.0917 26.5388 25.9802C26.4365 25.8687 26.3123 25.8135 26.164 25.8135C26.0444 25.8135 25.9375 25.8503 25.8466 25.9227C25.7086 26.0296 25.6396 26.2021 25.6396 26.4401C25.6396 26.6321 25.6914 26.7897 25.7949 26.9104C25.8984 27.0323 26.0306 27.0932 26.1893 27.0932C26.3456 27.0932 26.4687 27.0334 26.5583 26.9173Z" fill="#3C414F"/>
<path d="M10.2908 35.5625C10.4242 35.5625 10.5495 35.5246 10.6634 35.4452C10.7772 35.3694 10.8358 35.2279 10.8393 35.0198V34.791C10.799 34.8152 10.7599 34.8359 10.7197 34.8508C10.6806 34.8658 10.6243 34.8784 10.5541 34.8922L10.4138 34.9186C10.2816 34.9405 10.1873 34.9692 10.1287 35.0026C10.0321 35.0589 9.98267 35.1463 9.98267 35.2647C9.98267 35.3705 10.0126 35.4441 10.0712 35.4912C10.1321 35.5395 10.2057 35.5625 10.2908 35.5625Z" fill="#3C414F"/>
<path d="M34.5752 27.0892C34.735 27.0892 34.8626 27.0409 34.9535 26.9444C35.0443 26.8478 35.0903 26.7098 35.0903 26.535C35.0903 26.3534 35.0431 26.2142 34.9512 26.1199C34.8569 26.0245 34.7327 25.9785 34.5752 25.9785C34.4176 25.9785 34.2923 26.0257 34.1992 26.1199C34.1061 26.2142 34.0601 26.3522 34.0601 26.535C34.0601 26.7109 34.1061 26.8478 34.1969 26.9444C34.2877 27.0409 34.4153 27.0892 34.5752 27.0892Z" fill="#3C414F"/>
<path d="M16.9113 34.0249C16.7527 34.0249 16.6308 34.0686 16.5434 34.1583C16.456 34.248 16.402 34.371 16.3801 34.5239H17.4403C17.4299 34.3583 17.3747 34.2353 17.277 34.1502C17.1781 34.0663 17.0562 34.0249 16.9113 34.0249Z" fill="#3C414F"/>
<path d="M37.377 24.5547C37.2574 24.5547 37.1551 24.588 37.0688 24.6547C36.9343 24.7594 36.8665 24.9387 36.8665 25.1905C36.8665 25.4021 36.9101 25.5608 36.9964 25.6677C37.0826 25.7735 37.2149 25.8264 37.3931 25.8264C37.492 25.8264 37.5816 25.7988 37.6667 25.7424C37.8266 25.6413 37.9059 25.463 37.9059 25.2135C37.9059 25.0112 37.8599 24.8513 37.7656 24.7329C37.6702 24.6133 37.5414 24.5547 37.377 24.5547Z" fill="#3C414F"/>
<path d="M34.5737 25.4385C34.7174 25.4385 34.8278 25.3971 34.906 25.3143C34.983 25.2315 35.0233 25.1269 35.0233 24.9958C35.0233 24.8544 34.983 24.744 34.906 24.6635C34.8278 24.583 34.7163 24.5439 34.5737 24.5439C34.4323 24.5439 34.3207 24.583 34.2414 24.6635C34.1609 24.744 34.1218 24.8544 34.1218 24.9958C34.1218 25.1246 34.1609 25.2315 34.2414 25.3143C34.3207 25.3983 34.4323 25.4385 34.5737 25.4385Z" fill="#3C414F"/>
<path d="M24.4416 34.9196C24.3105 34.9415 24.2151 34.9702 24.1587 35.0036C24.0621 35.0599 24.0127 35.1473 24.0127 35.2657C24.0127 35.3715 24.0426 35.4451 24.1012 35.4922C24.1599 35.5394 24.2335 35.5635 24.3174 35.5635C24.4519 35.5635 24.5761 35.5256 24.6899 35.4462C24.8038 35.3692 24.8624 35.2289 24.8659 35.0208V34.792C24.8268 34.8161 24.7877 34.8368 24.7463 34.8518C24.7072 34.8667 24.6508 34.8794 24.5807 34.8932L24.4416 34.9196Z" fill="#3C414F"/>
<path d="M34.7782 34.9196C34.6459 34.9403 34.5517 34.9702 34.4942 35.0036C34.3976 35.0599 34.3481 35.1473 34.3481 35.2657C34.3481 35.3715 34.378 35.4451 34.4367 35.4922C34.4953 35.5394 34.5689 35.5635 34.654 35.5635C34.7874 35.5635 34.9127 35.5256 35.0265 35.4462C35.1404 35.3692 35.199 35.2289 35.2025 35.0208V34.792C35.1634 34.8161 35.1231 34.8368 35.0829 34.8518C35.0438 34.8667 34.9874 34.8794 34.9173 34.8932L34.7782 34.9196Z" fill="#3C414F"/>
<path d="M40.9081 34.1583C40.8195 34.248 40.7666 34.371 40.7437 34.5239H41.8049C41.7934 34.3583 41.7371 34.2353 41.6394 34.1502C41.5405 34.0663 41.4197 34.0249 41.2749 34.0249C41.1162 34.0249 40.9943 34.0686 40.9081 34.1583Z" fill="#3C414F"/>
<path d="M57.0662 27.0932C57.2226 27.0932 57.3445 27.0334 57.4342 26.9173C57.525 26.8 57.5687 26.6482 57.5687 26.4597C57.5687 26.2516 57.5169 26.0917 57.4146 25.9802C57.3134 25.8687 57.1892 25.8135 57.0398 25.8135C56.9202 25.8135 56.8133 25.8503 56.7236 25.9227C56.5856 26.0296 56.5166 26.2021 56.5166 26.4401C56.5166 26.6321 56.5672 26.7897 56.6718 26.9104C56.7753 27.0323 56.9087 27.0932 57.0662 27.0932Z" fill="#3C414F"/>
<path d="M6.1045 26.7606C6.17119 26.9779 6.31032 27.0883 6.51843 27.0883C6.72655 27.0883 6.86338 26.979 6.92892 26.7606C6.98526 26.5743 7.0117 26.3006 7.0209 25.9718C7.02205 25.9177 7.0278 25.8763 7.0278 25.8189C7.0278 25.3888 6.9956 25.0692 6.93122 24.8622C6.86683 24.6552 6.73 24.5518 6.52073 24.5518C6.31147 24.5518 6.17464 24.6541 6.1068 24.8622C6.03781 25.0692 6.00562 25.3888 6.00562 25.8189C6.00562 26.0304 6.01481 26.2155 6.03321 26.3754C6.04586 26.526 6.07 26.6559 6.1045 26.7606Z" fill="#3C414F"/>
<path d="M2.50199 40.5988C3.0585 40.8621 3.6748 41.0219 4.32905 41.0219H5.46391H8.05099H32.3811H59.7501H59.7823C60.9505 41.0219 62.0071 40.547 62.7879 39.7824C63.5996 38.9844 64.1113 37.8726 64.1113 36.6377V28.0704V22.9146V16.5757V4.38539C64.1113 3.15049 63.5996 2.03747 62.7879 1.24065C62.006 0.476022 60.9493 0 59.7823 0H4.3302C1.94204 0 0 1.96848 0 4.38539V36.6377C0 38.39 1.02908 39.8974 2.50199 40.5988ZM5.28454 25.8191C5.28454 25.2292 5.37653 24.7727 5.55935 24.4531C5.74217 24.1323 6.06067 23.9725 6.51714 23.9725C6.97247 23.9725 7.29212 24.1334 7.47494 24.4531C7.64166 24.7451 7.7233 25.1625 7.7371 25.6776C7.73825 25.7271 7.74974 25.765 7.74974 25.8179C7.74974 26.4078 7.65776 26.8619 7.47494 27.1804C7.29212 27.4989 6.97247 27.6588 6.51714 27.6588C6.06182 27.6588 5.74217 27.5001 5.55935 27.1804C5.47426 27.0333 5.41447 26.8493 5.36848 26.6446C5.31559 26.4066 5.28454 26.1353 5.28454 25.8191ZM38.7924 11.5016C38.7924 8.24301 41.4462 5.59039 44.7048 5.59039C45.9891 5.59039 47.1722 6.01467 48.1427 6.71376C49.1511 5.90774 50.4124 5.40527 51.8002 5.40527C52.9903 5.40527 54.0953 5.76516 55.0232 6.37686C55.7901 6.88048 56.4133 7.56462 56.8744 8.35914C57.378 9.22725 57.6884 10.2218 57.6884 11.2958C57.6884 14.5428 55.0462 17.1851 51.8002 17.1851C50.5274 17.1851 49.3569 16.77 48.3934 16.0813C47.3781 16.9 46.1075 17.4128 44.7048 17.4128C42.7961 17.4128 41.1162 16.4895 40.0354 15.0833C39.5455 14.4497 39.1856 13.723 38.9867 12.9239C38.8706 12.4663 38.7924 11.9949 38.7924 11.5016ZM37.6794 34.2288C37.6265 34.1138 37.5253 34.0586 37.3735 34.0586C37.1965 34.0586 37.0792 34.115 37.0182 34.2288C36.9849 34.2932 36.97 34.3909 36.97 34.5185V35.9363H36.3445V33.5837H36.9435V33.9275C37.0194 33.8057 37.0918 33.7183 37.1597 33.6665C37.2793 33.5746 37.4333 33.5274 37.6242 33.5274C37.8024 33.5274 37.9496 33.5654 38.0611 33.6458C38.1485 33.7183 38.2187 33.8137 38.2635 33.9298C38.3451 33.7907 38.444 33.6907 38.5647 33.624C38.6924 33.5585 38.8327 33.5274 38.989 33.5274C39.0925 33.5274 39.196 33.5481 39.296 33.5872C39.3972 33.6286 39.488 33.6987 39.5697 33.7999C39.6352 33.8827 39.6824 33.9827 39.7031 34.1035C39.718 34.1817 39.7249 34.2978 39.7249 34.4519L39.7203 35.9374H39.0902V34.4358C39.0902 34.3472 39.0741 34.2736 39.0454 34.2161C38.9913 34.1081 38.8913 34.0517 38.7441 34.0517C38.5728 34.0517 38.4555 34.123 38.39 34.2644C38.3578 34.338 38.3405 34.43 38.3405 34.5335V35.9374H37.7196V34.5335C37.7219 34.3944 37.7081 34.292 37.6794 34.2288ZM37.7265 26.279C37.5955 26.3572 37.4333 26.3974 37.2413 26.3974C36.9573 26.3974 36.7055 26.2997 36.4847 26.1031C36.264 25.9064 36.1536 25.6236 36.1536 25.2545C36.1536 24.8716 36.264 24.56 36.4859 24.3232C36.7066 24.0851 36.993 23.9667 37.3471 23.9667C37.8921 23.9667 38.2646 24.207 38.467 24.6888C38.5831 24.9613 38.6383 25.3212 38.6383 25.7662C38.6383 26.1985 38.5843 26.5584 38.4728 26.847C38.2612 27.3978 37.876 27.6726 37.3149 27.6726C37.0458 27.6726 36.8055 27.5932 36.5928 27.4345C36.379 27.2747 36.2559 27.0436 36.2249 26.7412H36.924C36.9412 26.8458 36.9861 26.9309 37.0573 26.9976C37.1286 27.0643 37.2252 27.0954 37.3471 27.0954C37.5771 27.0954 37.7403 26.9677 37.8335 26.7102C37.8852 26.5687 37.9163 26.3641 37.9289 26.0916C37.868 26.1755 37.8001 26.2364 37.7265 26.279ZM33.5263 25.2947C33.4757 25.1602 33.4492 25.0349 33.4492 24.9188C33.4492 24.6577 33.547 24.437 33.7424 24.253C33.9379 24.0702 34.215 23.9794 34.5726 23.9794C34.929 23.9794 35.2061 24.0702 35.4028 24.253C35.5994 24.4358 35.696 24.6577 35.696 24.9188C35.696 25.0349 35.6695 25.1602 35.6178 25.2947C35.5672 25.4281 35.4534 25.5443 35.2809 25.6431C35.4568 25.7409 35.5902 25.872 35.6799 26.0341C35.7684 26.1973 35.8144 26.3779 35.8144 26.5791C35.8144 26.8803 35.7029 27.1367 35.4798 27.3472C35.2579 27.5576 34.9463 27.6634 34.5461 27.6634C34.146 27.6634 33.8436 27.5576 33.6378 27.3472C33.432 27.1367 33.3285 26.8803 33.3285 26.5791C33.3285 26.379 33.3745 26.1973 33.4653 26.0341C33.5562 25.872 33.6872 25.7489 33.862 25.6673C33.6907 25.5535 33.578 25.4293 33.5263 25.2947ZM35.1038 34.0736C35.0348 34.0368 34.9359 34.0172 34.8037 34.0172C34.6565 34.0172 34.5507 34.0552 34.491 34.1265C34.4461 34.1794 34.4185 34.2518 34.4036 34.3426H33.808C33.8218 34.1368 33.8793 33.9678 33.9816 33.8356C34.1449 33.6286 34.4254 33.524 34.8233 33.524C35.082 33.524 35.3119 33.5757 35.5143 33.6769C35.7155 33.7804 35.8155 33.9735 35.8155 34.2575V35.3384C35.8155 35.412 35.8167 35.5039 35.8201 35.6109C35.8247 35.6902 35.8374 35.7454 35.8569 35.7753C35.8776 35.8029 35.9075 35.8282 35.9489 35.8477V35.9374H35.2786C35.259 35.8891 35.2475 35.8454 35.2406 35.8029C35.2337 35.7615 35.2268 35.7144 35.2234 35.6603C35.1372 35.7534 35.0394 35.8316 34.9279 35.896C34.7957 35.9731 34.6439 36.0122 34.4749 36.0122C34.2598 36.0122 34.0828 35.9501 33.9436 35.8305C33.8034 35.7086 33.7332 35.5361 33.7332 35.3131C33.7332 35.0233 33.8459 34.814 34.0713 34.6841C34.1943 34.6128 34.3771 34.5645 34.6163 34.5335L34.8267 34.5082C34.9417 34.4921 35.0233 34.476 35.0739 34.4542C35.1624 34.4174 35.2061 34.3587 35.2061 34.2794C35.205 34.1771 35.1705 34.1092 35.1038 34.0736ZM32.6386 34.2173C32.5788 34.0966 32.4638 34.0356 32.2971 34.0356C32.089 34.0356 31.9476 34.1242 31.8694 34.3012C31.8291 34.3944 31.8096 34.5139 31.8096 34.66V35.9351H31.1921V33.5826H31.7889V33.9264C31.8671 33.8068 31.9418 33.7171 32.012 33.6654C32.1373 33.57 32.2994 33.5228 32.4926 33.5228C32.7352 33.5228 32.933 33.5861 33.087 33.7148C33.2423 33.8413 33.3193 34.054 33.3193 34.3484V35.9363H32.688V34.5036C32.688 34.3794 32.6731 34.284 32.6386 34.2173ZM29.2156 35.466C29.2409 35.4901 29.3145 35.5005 29.441 35.5005C29.4605 35.5005 29.4801 35.5005 29.5019 35.5005C29.5226 35.4982 29.5433 35.4982 29.564 35.4959V35.957L29.272 35.9673C28.9811 35.9765 28.7821 35.9259 28.6752 35.8167C28.6062 35.7454 28.5706 35.6362 28.5706 35.489V34.0379H28.2417V33.601H28.5706V32.9422H29.1811V33.601H29.564V34.0379H29.1811V35.2843C29.1788 35.3821 29.1903 35.4418 29.2156 35.466ZM29.3363 25.9697C29.2363 26.1905 29.1455 26.463 29.0638 26.7826C28.9834 27.1023 28.9431 27.3667 28.9431 27.5725H28.2141C28.236 26.9309 28.4464 26.2663 28.8454 25.573C29.1041 25.1441 29.3202 24.8452 29.4939 24.6761H27.7128L27.722 24.0449H30.2458V24.5957C30.1401 24.698 29.994 24.8831 29.8066 25.1487C29.6192 25.412 29.4617 25.6857 29.3363 25.9697ZM19.295 26.8022V26.1893L20.6093 24.0208H21.3992V26.2537H21.8028V26.8033H21.398V27.5725H20.7104V26.8033L19.295 26.8022ZM20.9025 32.749H21.5682V35.3625H23.1607V35.9363H20.9025V32.749ZM22.4674 27.3909C22.25 27.208 22.127 26.9493 22.1029 26.6147H22.802C22.8295 26.7677 22.8836 26.8849 22.9618 26.9677C23.04 27.0505 23.1538 27.0919 23.3044 27.0919C23.478 27.0919 23.6114 27.0298 23.7023 26.9079C23.7942 26.7872 23.8391 26.632 23.8391 26.4469C23.8391 26.2652 23.7954 26.11 23.7115 25.9846C23.6264 25.8593 23.493 25.7961 23.3125 25.7961C23.2274 25.7961 23.1526 25.8064 23.0906 25.8283C22.9802 25.8674 22.8974 25.9409 22.841 26.0467L22.2109 26.0168L22.4616 24.0426H24.4278V24.6394H22.9675L22.8399 25.4201C22.9491 25.3488 23.0319 25.3016 23.094 25.2798C23.1952 25.2419 23.3194 25.2235 23.4654 25.2235C23.7609 25.2235 24.0185 25.3223 24.2381 25.5213C24.4577 25.7202 24.5669 26.0076 24.5669 26.3882C24.5669 26.7182 24.46 27.0126 24.2496 27.2736C24.038 27.5334 23.7218 27.6622 23.2987 27.6622C22.9641 27.6645 22.6847 27.5737 22.4674 27.3909ZM24.7681 34.0736C24.6991 34.0368 24.6003 34.0172 24.4692 34.0172C24.322 34.0172 24.2162 34.0552 24.1553 34.1265C24.1104 34.1794 24.0817 34.2518 24.0679 34.3426H23.4734C23.4872 34.1368 23.5447 33.9678 23.6471 33.8356C23.8103 33.6286 24.092 33.524 24.4887 33.524C24.7474 33.524 24.9774 33.5757 25.1798 33.6769C25.381 33.7804 25.4822 33.9735 25.4822 34.2575V35.3384C25.4822 35.412 25.4833 35.5039 25.4868 35.6109C25.4914 35.6902 25.504 35.7454 25.5236 35.7753C25.5443 35.8029 25.5742 35.8282 25.6155 35.8477V35.9374H24.9452C24.9268 35.8891 24.9142 35.8454 24.9061 35.8029C24.8992 35.7615 24.8935 35.7144 24.89 35.6603C24.8049 35.7534 24.7049 35.8316 24.5945 35.896C24.4611 35.9731 24.3105 36.0122 24.1415 36.0122C23.9265 36.0122 23.7494 35.9501 23.6091 35.8305C23.4688 35.7086 23.3999 35.5361 23.3999 35.3131C23.3999 35.0233 23.5125 34.814 23.7379 34.6841C23.8609 34.6128 24.0438 34.5645 24.2829 34.5335L24.4945 34.5082C24.6095 34.4921 24.6911 34.476 24.7405 34.4542C24.8268 34.4116 24.8716 34.353 24.8716 34.2759C24.8693 34.1771 24.836 34.1092 24.7681 34.0736ZM25.1832 27.1C25.0165 26.8056 24.9337 26.4273 24.9337 25.9605C24.9337 25.688 24.9452 25.4661 24.9682 25.2947C25.0096 24.99 25.0889 24.7371 25.2074 24.5347C25.3085 24.3622 25.4431 24.2231 25.6075 24.1185C25.7719 24.0127 25.9697 23.9598 26.1996 23.9598C26.5319 23.9598 26.7964 24.0449 26.9942 24.2151C27.1919 24.3852 27.3023 24.6118 27.3276 24.8946H26.6297C26.6297 24.8371 26.6078 24.7739 26.5618 24.7049C26.4871 24.5934 26.3721 24.537 26.2192 24.537C25.9904 24.537 25.8271 24.6646 25.7317 24.9211C25.6788 25.0625 25.6431 25.2706 25.6224 25.5477C25.7098 25.4442 25.811 25.3683 25.926 25.3212C26.041 25.2729 26.1721 25.2499 26.3204 25.2499C26.6377 25.2499 26.8976 25.358 27.1 25.573C27.3023 25.7892 27.4047 26.064 27.4047 26.3986C27.4047 26.7332 27.3058 27.0264 27.1069 27.2816C26.9079 27.5369 26.5986 27.6645 26.179 27.6645C25.7294 27.6645 25.3971 27.4771 25.1832 27.1ZM27.3196 35.1659C27.2621 35.1303 27.0471 35.0682 26.6734 34.9808C26.4066 34.9129 26.218 34.8301 26.1088 34.7313C25.9996 34.6324 25.9444 34.491 25.9444 34.3081C25.9444 34.0897 26.0295 33.9022 26.2008 33.7459C26.3721 33.5895 26.6136 33.5102 26.9229 33.5102C27.2172 33.5102 27.4575 33.5688 27.6427 33.6872C27.8289 33.8057 27.9347 34.0057 27.9623 34.2943H27.346C27.338 34.2173 27.315 34.1529 27.2793 34.1069C27.2103 34.0241 27.0954 33.9827 26.9332 33.9827C26.7987 33.9827 26.7033 34.0046 26.6458 34.0448C26.5883 34.0874 26.5595 34.1368 26.5595 34.1932C26.5595 34.2644 26.5906 34.315 26.6504 34.3461C26.7113 34.3794 26.9252 34.4358 27.2931 34.5162C27.5392 34.5749 27.7232 34.6611 27.845 34.7796C27.9658 34.898 28.0279 35.044 28.0279 35.2222C28.0279 35.4556 27.9393 35.6454 27.7657 35.7937C27.5921 35.9409 27.3219 36.0145 26.9585 36.0145C26.5871 36.0145 26.3123 35.9374 26.1364 35.7799C25.9593 35.6235 25.8708 35.4246 25.8708 35.182H26.4963C26.5101 35.2912 26.5377 35.3683 26.5814 35.4143C26.6573 35.4982 26.7999 35.5384 27.008 35.5384C27.1299 35.5384 27.2264 35.52 27.2977 35.4844C27.369 35.4499 27.4058 35.3947 27.4058 35.3223C27.4058 35.2567 27.3782 35.2027 27.3196 35.1659ZM16.6102 35.4292C16.7056 35.4878 16.8172 35.5177 16.9506 35.5177C17.0908 35.5177 17.2047 35.4821 17.2932 35.4097C17.3415 35.3717 17.3829 35.3165 17.4197 35.2452H18.0486C18.0314 35.3855 17.9555 35.5269 17.8187 35.6718C17.6082 35.9006 17.3127 36.0156 16.9322 36.0156C16.6183 36.0156 16.3412 35.919 16.102 35.7259C15.8628 35.5327 15.7421 35.2188 15.7421 34.783C15.7421 34.3748 15.8502 34.0621 16.0675 33.8436C16.2837 33.6274 16.5642 33.5182 16.9103 33.5182C17.115 33.5182 17.3001 33.555 17.4645 33.6286C17.6289 33.6999 17.7646 33.8172 17.8716 33.977C17.9681 34.1173 18.0302 34.2805 18.0601 34.4634C18.0774 34.5737 18.0843 34.729 18.0808 34.9325H16.3641C16.3722 35.1659 16.4561 35.3326 16.6102 35.4292ZM16.041 24.9556C16.041 25.1671 15.979 25.3442 15.8536 25.4891C15.7754 25.5799 15.6927 25.6408 15.6076 25.6742C15.672 25.6742 15.7628 25.7282 15.8824 25.8398C16.0617 26.0065 16.1503 26.2318 16.1503 26.5204C16.1503 26.8217 16.0456 27.0885 15.8364 27.3184C15.6271 27.5472 15.3167 27.6611 14.9073 27.6611C14.4026 27.6611 14.0507 27.4955 13.853 27.1655C13.7495 26.9896 13.692 26.7585 13.6805 26.4756H14.3704C14.3704 26.6182 14.3934 26.7366 14.4382 26.8297C14.5233 27.0022 14.6785 27.0885 14.9039 27.0885C15.0407 27.0885 15.1614 27.0413 15.2638 26.947C15.3661 26.8516 15.4167 26.7171 15.4167 26.5388C15.4167 26.3031 15.3213 26.1468 15.1315 26.0686C15.0235 26.0237 14.8521 26.0007 14.6199 26.0007V25.4971C14.8475 25.4937 15.0074 25.4718 15.0971 25.4293C15.2028 25.3821 15.2592 25.2901 15.2937 25.1775C15.3098 25.1246 15.3316 25.0774 15.3316 25.0096C15.3316 24.8739 15.2914 24.7635 15.2132 24.6773C15.1327 24.5922 15.0212 24.5485 14.8774 24.5485C14.7119 24.5485 14.59 24.6014 14.5118 24.7072C14.4336 24.8118 14.3957 24.9521 14.4003 25.1292H13.7449C13.7506 24.9521 13.7828 24.7831 13.8369 24.6244C13.8943 24.4841 13.984 24.3565 14.1071 24.2369C14.199 24.153 14.3083 24.0897 14.4336 24.0449C14.5601 24.0001 14.7153 23.9782 14.8993 23.9782C15.2408 23.9782 15.5167 24.0667 15.726 24.2427C15.9169 24.4036 16.0077 24.6198 16.0261 24.8797C16.0296 24.9084 16.041 24.928 16.041 24.9556ZM14.6831 34.215C14.6279 34.1069 14.5279 34.0506 14.3796 34.0506C14.2094 34.0506 14.0921 34.1219 14.0277 34.2633C13.9944 34.3369 13.9771 34.4289 13.9771 34.5323V35.9363H13.3574V34.5323C13.3574 34.3921 13.3424 34.2897 13.3137 34.2276C13.2619 34.1127 13.1608 34.0575 13.009 34.0575C12.8331 34.0575 12.7158 34.1138 12.6537 34.2276C12.6204 34.292 12.6054 34.3898 12.6054 34.5174V35.9351H11.9799V33.5826H12.579V33.9264C12.6548 33.8045 12.7273 33.7171 12.7951 33.6654C12.9147 33.5734 13.0699 33.5263 13.2596 33.5263C13.439 33.5263 13.5862 33.5642 13.6966 33.6447C13.7863 33.7171 13.8541 33.8126 13.8989 33.9287C13.9806 33.7896 14.0806 33.6895 14.199 33.6228C14.3255 33.5573 14.467 33.5263 14.6233 33.5263C14.728 33.5263 14.8303 33.547 14.9303 33.5861C15.0315 33.6274 15.1223 33.6976 15.2051 33.7988C15.2707 33.8815 15.3167 33.9816 15.3385 34.1023C15.3535 34.1805 15.3604 34.2966 15.3604 34.4507L15.3558 35.9363H14.7245V34.4346C14.728 34.3472 14.7119 34.2736 14.6831 34.215ZM43.3744 24.7244C43.2916 24.6244 43.1697 24.5738 43.0157 24.5738C42.8018 24.5738 42.6569 24.6543 42.5799 24.813C42.5362 24.9061 42.5086 25.0521 42.5006 25.2511H41.8176C41.8291 24.9475 41.8854 24.7014 41.9843 24.514C42.1717 24.1564 42.504 23.9794 42.9823 23.9794C43.3606 23.9794 43.6619 24.0828 43.8861 24.2933C44.1091 24.5025 44.2207 24.7796 44.2207 25.1257C44.2207 25.3902 44.1413 25.6259 43.9838 25.8317C43.878 25.9685 43.709 26.1203 43.4721 26.2882L43.1916 26.4883C43.0157 26.6124 42.8938 26.7044 42.8294 26.7585C42.765 26.8148 42.7098 26.8792 42.665 26.9539H44.2253V27.5737H41.7785C41.7831 27.3173 41.8394 27.0827 41.9417 26.8711C42.0429 26.632 42.2786 26.3802 42.6535 26.1134C42.9754 25.8823 43.187 25.7156 43.2824 25.6144C43.4273 25.4592 43.5009 25.2878 43.5009 25.1027C43.5009 24.9498 43.4572 24.8245 43.3744 24.7244ZM41.8279 33.6286C41.9923 33.6999 42.1303 33.8172 42.2349 33.977C42.3327 34.1173 42.3948 34.2805 42.4247 34.4634C42.4408 34.5737 42.4488 34.729 42.4431 34.9325H40.7264C40.7356 35.167 40.8184 35.3349 40.9736 35.4304C41.0679 35.489 41.1806 35.5189 41.3139 35.5189C41.4542 35.5189 41.5681 35.4832 41.6566 35.4108C41.7049 35.3729 41.7463 35.3177 41.7842 35.2464H42.412C42.3948 35.3867 42.32 35.5281 42.1844 35.673C41.9728 35.9018 41.6773 36.0168 41.2979 36.0168C40.9851 36.0168 40.7068 35.9202 40.4677 35.727C40.2285 35.5338 40.1089 35.2199 40.1089 34.7842C40.1089 34.376 40.217 34.0632 40.4332 33.8448C40.6494 33.6286 40.9311 33.5194 41.2772 33.5194C41.4807 33.5182 41.6658 33.555 41.8279 33.6286ZM40.7229 27.5714H40.002V25.1062H39.1627V24.6279C39.3846 24.6187 39.5398 24.6026 39.6272 24.583C39.7686 24.552 39.8836 24.4899 39.971 24.3967C40.0331 24.3324 40.0779 24.2473 40.1089 24.1403C40.1273 24.0759 40.1354 24.0288 40.1354 23.9978H40.7229V27.5714ZM48.8188 26.0674C48.7107 26.0226 48.5394 25.9996 48.3071 25.9996V25.496C48.5336 25.4925 48.6946 25.4707 48.7843 25.4281C48.9407 25.358 49.0189 25.22 49.0189 25.0084C49.0189 24.8728 48.9786 24.7624 48.8993 24.6761C48.8199 24.5911 48.7072 24.5474 48.5647 24.5474C48.3979 24.5474 48.2772 24.6003 48.199 24.706C48.122 24.8107 48.0829 24.951 48.0875 25.128H47.4333C47.4379 24.951 47.4701 24.7819 47.5241 24.6233C47.5804 24.483 47.6724 24.3553 47.7943 24.2358C47.8863 24.1518 47.9955 24.0886 48.1208 24.0437C48.2473 23.9989 48.4026 23.9771 48.5854 23.9771C48.9269 23.9771 49.2028 24.0656 49.4144 24.2415C49.6225 24.4174 49.7271 24.6543 49.7271 24.9533C49.7271 25.1637 49.6627 25.3419 49.5397 25.4856C49.4604 25.5776 49.3776 25.6385 49.2925 25.6707C49.358 25.6707 49.4489 25.7259 49.5696 25.8363C49.749 26.003 49.8375 26.2295 49.8375 26.517C49.8375 26.8182 49.7329 27.0839 49.5236 27.3138C49.3144 27.5426 49.0039 27.6576 48.5934 27.6576C48.0887 27.6576 47.7357 27.492 47.5402 27.1609C47.4356 26.9861 47.3792 26.755 47.3689 26.471H48.0576C48.0576 26.6147 48.0806 26.732 48.1277 26.8263C48.2117 26.9988 48.3681 27.085 48.5911 27.085C48.7279 27.085 48.8487 27.0379 48.951 26.9436C49.0533 26.8481 49.1051 26.7136 49.1051 26.5354C49.1039 26.3031 49.0074 26.1468 48.8188 26.0674ZM52.6799 26.2525V26.8022H52.274V27.5714H51.5864V26.8022H50.1733V26.1881L51.4864 24.0196H52.2774V26.2525H52.6799ZM54.5897 25.9846C54.5058 25.8593 54.3724 25.7961 54.1907 25.7961C54.1056 25.7961 54.0309 25.8064 53.9699 25.8283C53.8596 25.8674 53.7756 25.9409 53.7193 26.0467L53.0903 26.0168L53.341 24.0426H55.3083V24.6394H53.8469L53.7193 25.4201C53.8285 25.3488 53.9113 25.3016 53.9722 25.2798C54.0757 25.2419 54.1976 25.2235 54.3436 25.2235C54.6403 25.2235 54.8967 25.3223 55.1163 25.5213C55.3359 25.7202 55.4452 26.0076 55.4452 26.3882C55.4452 26.7182 55.3394 27.0126 55.129 27.2736C54.9185 27.5346 54.6012 27.6622 54.1781 27.6622C53.8377 27.6622 53.5583 27.5714 53.341 27.3897C53.1237 27.2069 52.9995 26.9493 52.9754 26.6136H53.6744C53.702 26.7665 53.7561 26.8838 53.8354 26.9666C53.9148 27.0494 54.0297 27.0908 54.1792 27.0908C54.354 27.0908 54.4862 27.0287 54.5782 26.9068C54.6679 26.7849 54.7139 26.6297 54.7139 26.4446C54.7185 26.2652 54.6736 26.11 54.5897 25.9846ZM58.207 24.8969H57.5079C57.5079 24.8394 57.4849 24.7762 57.4401 24.7072C57.3653 24.5957 57.2504 24.5393 57.0974 24.5393C56.8686 24.5393 56.7042 24.6669 56.6088 24.9234C56.557 25.0648 56.5202 25.2729 56.5007 25.55C56.5869 25.4465 56.6881 25.3706 56.8031 25.3235C56.9181 25.2752 57.0514 25.2511 57.1986 25.2511C57.5137 25.2511 57.7747 25.3591 57.9782 25.5753C58.1806 25.7915 58.2829 26.0663 58.2829 26.3997C58.2829 26.7343 58.1829 27.0275 57.9839 27.2828C57.785 27.538 57.4769 27.6657 57.056 27.6657C56.6065 27.6657 56.2742 27.4771 56.0615 27.1011C55.8936 26.8067 55.812 26.4285 55.812 25.9616C55.812 25.6891 55.8246 25.4672 55.8464 25.2959C55.8867 24.9912 55.9672 24.7394 56.0856 24.5359C56.1879 24.3634 56.3213 24.2243 56.4869 24.1196C56.6513 24.0139 56.8491 23.961 57.0802 23.961C57.4113 23.961 57.6769 24.046 57.8736 24.2162C58.0702 24.3875 58.1806 24.6141 58.207 24.8969ZM12.1041 23.9794C12.4835 23.9794 12.7836 24.0828 13.0078 24.2933C13.2321 24.5025 13.3436 24.7796 13.3436 25.1257C13.3436 25.3902 13.2654 25.6259 13.1067 25.8317C13.0044 25.9662 12.8365 26.1157 12.6043 26.2801C12.6008 26.2824 12.5985 26.2847 12.5951 26.287L12.3134 26.4871C12.1374 26.6113 12.0167 26.7033 11.9512 26.7573C11.8868 26.8136 11.8316 26.878 11.7867 26.9528H13.347V27.5725H10.8991C10.9048 27.3334 10.9577 27.116 11.0474 26.9148C11.0532 26.8999 11.0566 26.8838 11.0635 26.8688C11.1635 26.6297 11.3993 26.3779 11.7741 26.1111C12.0972 25.88 12.3076 25.7133 12.4019 25.6121C12.5479 25.4569 12.6215 25.2855 12.6215 25.1004C12.6215 24.9498 12.579 24.8233 12.4962 24.7233C12.4134 24.6233 12.2927 24.5727 12.1374 24.5727C11.9236 24.5727 11.7787 24.6532 11.7017 24.8118C11.6568 24.905 11.6304 25.051 11.6235 25.2499H10.9393C10.9508 24.9464 11.006 24.7003 11.1049 24.5129C11.1865 24.3576 11.3084 24.2507 11.4452 24.1633C11.5096 24.1231 11.5867 24.1012 11.6614 24.0748C11.7959 24.03 11.9293 23.9794 12.1041 23.9794ZM6.98972 35.9363H6.36997V32.749H7.0679L8.3327 34.9716V32.749H8.9536V35.9363H8.28786L6.99202 33.6746V35.9363H6.98972ZM9.12607 27.5714V25.1119V25.1062H8.28441V24.6279C8.50632 24.6187 8.6604 24.6026 8.74893 24.583C8.89036 24.552 9.00534 24.4899 9.09273 24.3967C9.15367 24.3324 9.19851 24.2473 9.22955 24.1403C9.24795 24.0759 9.25715 24.0288 9.25715 23.9978H9.8447V24.8199V27.407V27.5725H9.43882L9.12607 27.5714ZM6.81609 16.4032V14.1289H9.09962V16.455H6.82184C6.82184 16.4366 6.81609 16.4205 6.81609 16.4032ZM9.09962 19.4433C8.18897 19.1708 7.44389 18.5154 7.07365 17.6519H9.09962V19.4433ZM10.2966 17.6519H12.2708V19.5894H10.2966V17.6519ZM13.4678 17.6519H15.4949C15.1246 18.5154 14.3784 19.1708 13.4678 19.4433V17.6519ZM15.7513 16.4032C15.7513 16.4216 15.7467 16.4366 15.7467 16.455H13.4701V14.1289H15.7524L15.7513 16.4032ZM12.8699 12.9308L12.2708 12.932V16.4538H10.2966V10.653H12.5652C14.0036 10.653 15.2086 11.6177 15.603 12.9297H12.8699V12.9308ZM9.09962 12.9308H6.96442C7.27257 11.9063 8.07399 11.1072 9.09962 10.8002V12.9308ZM9.70558 34.6807C9.82861 34.6105 10.0114 34.5599 10.2506 34.53L10.4622 34.5036C10.5771 34.4887 10.6576 34.4726 10.7082 34.4496C10.7967 34.4116 10.8416 34.353 10.8416 34.2759C10.8416 34.1782 10.8082 34.1127 10.7404 34.0747C10.6714 34.0379 10.5725 34.0184 10.4415 34.0184C10.2943 34.0184 10.1885 34.0563 10.1276 34.1276C10.0827 34.1805 10.0551 34.2529 10.0402 34.3438H9.44572C9.45837 34.138 9.51701 33.9689 9.61934 33.8367C9.78261 33.6297 10.0643 33.5251 10.461 33.5251C10.7197 33.5251 10.9497 33.5769 11.152 33.678C11.3533 33.7815 11.4544 33.9747 11.4544 34.2587V35.3395C11.4544 35.4131 11.4556 35.5051 11.459 35.612C11.4636 35.6914 11.4751 35.7477 11.4958 35.7764C11.5165 35.804 11.5453 35.8293 11.5867 35.8489V35.9386H10.9163C10.8968 35.8903 10.8853 35.8466 10.8784 35.804C10.8715 35.7626 10.8657 35.7155 10.8611 35.6615C10.7761 35.7546 10.676 35.8328 10.5656 35.8972C10.4323 35.9742 10.2816 36.0133 10.1126 36.0133C9.8976 36.0133 9.72052 35.9512 9.58025 35.8316C9.43997 35.7098 9.37098 35.5373 9.37098 35.3142C9.36868 35.0199 9.48136 34.8095 9.70558 34.6807Z" fill="#3C414F"/>
<path d="M41.191 14.6112C42.0534 15.5874 43.3021 16.2152 44.7049 16.2152C45.7086 16.2152 46.6354 15.8944 47.4012 15.3552H47.5529H48.3406H48.4463H49.1477H49.3811C49.3961 15.3437 49.4053 15.3276 49.4214 15.3161C49.741 15.0597 50.0342 14.7722 50.2849 14.4468H49.7962H49.1201H48.3509H48.3452H47.569H46.8366C46.6975 14.2226 46.5698 13.988 46.4583 13.7443H47.1356H47.8174H48.8235H49.5042H50.1676H50.7368C50.8908 13.4557 51.0173 13.1521 51.1151 12.8348H50.4505H49.8261H49.2018H47.3897H46.763H46.1398C46.1203 12.7623 46.0904 12.6922 46.0743 12.6186C46.0294 12.4323 46.011 12.2403 45.988 12.0495H46.5871H47.1861H47.4667H49.3639H49.9629H50.562H51.2956C51.3278 11.8149 51.3669 11.5803 51.3669 11.3366C51.3669 11.2699 51.3496 11.2078 51.345 11.14H50.5804H49.9813H49.695H49.3823H47.1229H46.5239H45.9248C45.9329 10.8801 45.9627 10.626 46.003 10.3765H46.602H47.2011H49.265H49.8917H50.4999H51.2657C51.2047 10.0614 51.1128 9.75788 50.9989 9.46698H50.232H49.6088H48.9362H47.4782H47.4541H46.8516H46.2284C46.3192 9.19447 46.4227 8.93461 46.5492 8.68166H47.2252H47.9059H48.4567H49.1903H49.38H49.8652H50.6022C50.5183 8.54483 50.4068 8.42985 50.3148 8.30107C50.1837 8.1217 50.0664 7.93083 49.9112 7.771H49.2512H48.7349H48.482H47.8818H47.5529H47.1126C47.1666 7.69971 47.2275 7.63303 47.2827 7.56404C46.5411 7.07882 45.658 6.78906 44.7072 6.78906C42.1074 6.78906 39.9929 8.90357 39.9929 11.5021C39.9929 11.8356 40.0297 12.1587 40.0964 12.4714C40.2643 13.2855 40.6587 14.011 41.191 14.6112Z" fill="#3C414F"/>
</svg>
