<svg width="63" height="65" viewBox="0 0 63 65" fill="none" xmlns="http://www.w3.org/2000/svg">
<path d="M5.41655 47.6675C4.81859 47.6675 4.33325 48.1528 4.33325 48.7508V50.9175C4.33325 51.5154 4.81859 52.0008 5.41655 52.0008C6.0145 52.0008 6.49984 51.5154 6.49984 50.9175V48.7508C6.49984 48.1528 6.0145 47.6675 5.41655 47.6675Z" fill="#3C414F"/>
<path d="M5.41655 54.167C4.81859 54.167 4.33325 54.6523 4.33325 55.2503V57.417C4.33325 58.015 4.81859 58.5003 5.41655 58.5003C6.0145 58.5003 6.49984 58.015 6.49984 57.417V55.2503C6.49984 54.6523 6.0145 54.167 5.41655 54.167Z" fill="#3C414F"/>
<path d="M5.41655 41.167C4.81859 41.167 4.33325 41.6523 4.33325 42.2503V44.417C4.33325 45.015 4.81859 45.5003 5.41655 45.5003C6.0145 45.5003 6.49984 45.015 6.49984 44.417V42.2503C6.49984 41.6523 6.0145 41.167 5.41655 41.167Z" fill="#3C414F"/>
<path d="M9.75028 47.6675C9.15233 47.6675 8.66699 48.1528 8.66699 48.7508V50.9175C8.66699 51.5154 9.15233 52.0008 9.75028 52.0008C10.3482 52.0008 10.8336 51.5154 10.8336 50.9175V48.7508C10.8337 48.1528 10.3484 47.6675 9.75028 47.6675Z" fill="#3C414F"/>
<path d="M9.75028 41.167C9.15233 41.167 8.66699 41.6523 8.66699 42.2503V44.417C8.66699 45.015 9.15233 45.5003 9.75028 45.5003C10.3482 45.5003 10.8336 45.015 10.8336 44.417V42.2503C10.8337 41.6523 10.3484 41.167 9.75028 41.167Z" fill="#3C414F"/>
<path d="M9.75028 54.167C9.15233 54.167 8.66699 54.6523 8.66699 55.2503V57.417C8.66699 58.015 9.15233 58.5003 9.75028 58.5003C10.3482 58.5003 10.8336 58.015 10.8336 57.417V55.2503C10.8337 54.6523 10.3484 54.167 9.75028 54.167Z" fill="#3C414F"/>
<path d="M61.7501 11.9167H59.5834V8.66673C59.5834 8.06878 59.0981 7.58343 58.5001 7.58343H52.0001C51.4021 7.58343 50.9168 8.06878 50.9168 8.66673V11.9167H48.7501C48.1521 11.9167 47.6668 12.4021 47.6668 13V30.3334H46.5835V27.0833C46.5835 26.4854 46.0982 26.0001 45.5002 26.0001H44.4168V24.9168C44.4168 24.3188 43.9314 23.8335 43.3335 23.8335C42.7355 23.8335 42.2502 24.3188 42.2502 24.9168V26.0001H41.1668C40.5688 26.0001 40.0835 26.4854 40.0835 27.0833V30.3334H36.8335V8.66673C36.8335 8.06878 36.3481 7.58343 35.7502 7.58343H32.5002V1.08342C32.5001 0.485343 32.0147 0 31.4168 0H18.4167C17.8188 0 17.3334 0.485343 17.3334 1.08329V7.58331H14.0834C13.4855 7.58331 13.0001 8.06865 13.0001 8.6666V36.8334H10.8334V33.5834C10.8334 32.9854 10.3481 32.5001 9.75014 32.5001H3.25012C2.65217 32.5001 2.16683 32.9854 2.16683 33.5834V36.8334H1.08354C0.485587 36.8334 0.000244141 37.3187 0.000244141 37.9167V63.9167C0.000244141 64.5147 0.485587 65 1.08354 65H14.0836H22.7503H48.7503H61.7504C62.3483 65 62.8337 64.5147 62.8337 63.9167V13C62.8335 12.4021 62.3482 11.9167 61.7501 11.9167ZM30.3335 13C30.3335 12.4021 30.8188 11.9167 31.4168 11.9167C32.0147 11.9167 32.5001 12.4021 32.5001 13V30.3334H30.3333V13H30.3335ZM26 5.41672C26 4.81877 26.4854 4.33343 27.0833 4.33343C27.6813 4.33343 28.1666 4.81877 28.1666 5.41672V8.66673C28.1666 9.26468 27.6813 9.75002 27.0833 9.75002C26.4854 9.75002 26 9.26468 26 8.66673V5.41672ZM26 13C26 12.4021 26.4854 11.9167 27.0833 11.9167C27.6813 11.9167 28.1666 12.4021 28.1666 13V30.3334H25.9999V13H26ZM21.6667 5.41672C21.6667 4.81877 22.1521 4.33343 22.75 4.33343C23.348 4.33343 23.8333 4.81877 23.8333 5.41672V8.66673C23.8333 9.26468 23.348 9.75002 22.75 9.75002C22.1521 9.75002 21.6667 9.26468 21.6667 8.66673V5.41672ZM17.3334 13C17.3334 12.4021 17.8188 11.9167 18.4167 11.9167C19.0147 11.9167 19.5 12.4021 19.5 13V36.8334H17.3333V13H17.3334ZM21.6667 60.6668H18.4167C17.8188 60.6668 17.3334 60.1815 17.3334 59.5835C17.3334 58.9856 17.8188 58.5002 18.4167 58.5002H21.6667V60.6668ZM21.6667 56.3334H18.4167C17.8188 56.3334 17.3334 55.8481 17.3334 55.2501C17.3334 54.6522 17.8188 54.1668 18.4167 54.1668H21.6667V56.3334ZM21.6667 52.0001H18.4167C17.8188 52.0001 17.3334 51.5148 17.3334 50.9168C17.3334 50.3189 17.8188 49.8335 18.4167 49.8335H21.6667V52.0001ZM21.6667 47.6668H18.4167C17.8188 47.6668 17.3334 47.1815 17.3334 46.5835C17.3334 45.9856 17.8188 45.5002 18.4167 45.5002H21.6667V47.6668ZM21.6667 41.1668H14.0834C13.4855 41.1668 13.0001 41.6521 13.0001 42.2501V62.8334H2.1667V39.0001H3.25H9.75001H14.0833H18.4167H21.6667V41.1668ZM21.6667 31.4168V13C21.6667 12.4021 22.1521 11.9167 22.75 11.9167C23.348 11.9167 23.8333 12.4021 23.8333 13V30.3334H22.75C22.1521 30.3334 21.6667 30.8187 21.6667 31.4168ZM47.6668 62.8334H45.5001V35.7501C45.5001 35.1521 45.0147 34.6668 44.4168 34.6668C43.8188 34.6668 43.3335 35.1521 43.3335 35.7501V62.8334H41.1668V35.7501C41.1668 35.1521 40.6814 34.6668 40.0835 34.6668C39.4855 34.6668 39.0002 35.1521 39.0002 35.7501V62.8334H36.8335V35.7501C36.8335 35.1521 36.3481 34.6668 35.7502 34.6668C35.1522 34.6668 34.6669 35.1521 34.6669 35.7501V62.8334H32.5002V35.7501C32.5002 35.1521 32.0148 34.6668 31.4169 34.6668C30.8189 34.6668 30.3336 35.1521 30.3336 35.7501V62.8334H28.1668V35.7501C28.1668 35.1521 27.6814 34.6668 27.0835 34.6668C26.4855 34.6668 26.0002 35.1521 26.0002 35.7501V62.8334H23.8335V59.5834V55.2501V50.9168V46.5835V42.2501V37.9168V32.5001H27.0835H31.4168H35.7501H41.1668H45.5001H47.6668V62.8334ZM54.1668 58.7114C54.1668 59.3093 53.6815 59.7947 53.0835 59.7947C52.4856 59.7947 52.0002 59.3093 52.0002 58.7114V56.5447C52.0002 55.9467 52.4856 55.4614 53.0835 55.4614C53.6815 55.4614 54.1668 55.9467 54.1668 56.5447V58.7114ZM54.1668 52.2114C54.1668 52.8093 53.6815 53.2946 53.0835 53.2946C52.4856 53.2946 52.0002 52.8093 52.0002 52.2114V50.0446C52.0002 49.4467 52.4856 48.9613 53.0835 48.9613C53.6815 48.9613 54.1668 49.4467 54.1668 50.0446V52.2114ZM54.1668 45.7113C54.1668 46.3093 53.6815 46.7946 53.0835 46.7946C52.4856 46.7946 52.0002 46.3093 52.0002 45.7113V43.5446C52.0002 42.9467 52.4856 42.4613 53.0835 42.4613C53.6815 42.4613 54.1668 42.9467 54.1668 43.5446V45.7113ZM54.1668 39.2113C54.1668 39.8093 53.6815 40.2946 53.0835 40.2946C52.4856 40.2946 52.0002 39.8093 52.0002 39.2113V37.0446C52.0002 36.4467 52.4856 35.9613 53.0835 35.9613C53.6815 35.9613 54.1668 36.4467 54.1668 37.0446V39.2113ZM54.1668 32.7113C54.1668 33.3093 53.6815 33.7946 53.0835 33.7946C52.4856 33.7946 52.0002 33.3093 52.0002 32.7113V30.5446C52.0002 29.9467 52.4856 29.4613 53.0835 29.4613C53.6815 29.4613 54.1668 29.9467 54.1668 30.5446V32.7113ZM54.1668 26.2113C54.1668 26.8093 53.6815 27.2946 53.0835 27.2946C52.4856 27.2946 52.0002 26.8093 52.0002 26.2113V24.0446C52.0002 23.4466 52.4856 22.9613 53.0835 22.9613C53.6815 22.9613 54.1668 23.4466 54.1668 24.0446V26.2113ZM54.1668 19.7113C54.1668 20.3092 53.6815 20.7946 53.0835 20.7946C52.4856 20.7946 52.0002 20.3092 52.0002 19.7113V17.5446C52.0002 16.9466 52.4856 16.4613 53.0835 16.4613C53.6815 16.4613 54.1668 16.9466 54.1668 17.5446V19.7113ZM58.5001 58.7114C58.5001 59.3093 58.0148 59.7947 57.4168 59.7947C56.8189 59.7947 56.3335 59.3093 56.3335 58.7114V56.5447C56.3335 55.9467 56.8189 55.4614 57.4168 55.4614C58.0148 55.4614 58.5001 55.9467 58.5001 56.5447V58.7114ZM58.5001 52.2114C58.5001 52.8093 58.0148 53.2946 57.4168 53.2946C56.8189 53.2946 56.3335 52.8093 56.3335 52.2114V50.0446C56.3335 49.4467 56.8189 48.9613 57.4168 48.9613C58.0148 48.9613 58.5001 49.4467 58.5001 50.0446V52.2114ZM58.5001 45.7113C58.5001 46.3093 58.0148 46.7946 57.4168 46.7946C56.8189 46.7946 56.3335 46.3093 56.3335 45.7113V43.5446C56.3335 42.9467 56.8189 42.4613 57.4168 42.4613C58.0148 42.4613 58.5001 42.9467 58.5001 43.5446V45.7113ZM58.5001 39.2113C58.5001 39.8093 58.0148 40.2946 57.4168 40.2946C56.8189 40.2946 56.3335 39.8093 56.3335 39.2113V37.0446C56.3335 36.4467 56.8189 35.9613 57.4168 35.9613C58.0148 35.9613 58.5001 36.4467 58.5001 37.0446V39.2113ZM58.5001 32.7113C58.5001 33.3093 58.0148 33.7946 57.4168 33.7946C56.8189 33.7946 56.3335 33.3093 56.3335 32.7113V30.5446C56.3335 29.9467 56.8189 29.4613 57.4168 29.4613C58.0148 29.4613 58.5001 29.9467 58.5001 30.5446V32.7113ZM58.5001 26.2113C58.5001 26.8093 58.0148 27.2946 57.4168 27.2946C56.8189 27.2946 56.3335 26.8093 56.3335 26.2113V24.0446C56.3335 23.4466 56.8189 22.9613 57.4168 22.9613C58.0148 22.9613 58.5001 23.4466 58.5001 24.0446V26.2113ZM58.5001 19.7113C58.5001 20.3092 58.0148 20.7946 57.4168 20.7946C56.8189 20.7946 56.3335 20.3092 56.3335 19.7113V17.5446C56.3335 16.9466 56.8189 16.4613 57.4168 16.4613C58.0148 16.4613 58.5001 16.9466 58.5001 17.5446V19.7113Z" fill="#3C414F"/>
</svg>
