<svg width="19" height="18" viewBox="0 0 19 18" fill="none" xmlns="http://www.w3.org/2000/svg">
<g clip-path="url(#clip0)">
<path d="M3.77762 11.6683C4.50124 11.6683 5.1344 11.397 5.58666 10.9447L12.0088 14.6533C11.9183 14.8342 11.9183 15.1055 11.9183 15.2864C11.9183 16.8241 13.0942 18 14.6319 18C16.1696 18 17.3455 16.8241 17.3455 15.2864C17.3455 13.7487 16.1696 12.5729 14.6319 12.5729C13.9083 12.5729 13.2751 12.8442 12.8228 13.2965L6.40074 9.58794C6.49119 9.40703 6.49119 9.13568 6.49119 8.95477C6.49119 8.77387 6.49119 8.50251 6.40074 8.32161L12.8228 4.52261C13.2751 4.97487 13.9083 5.24623 14.6319 5.24623C16.0791 5.24623 17.255 4.07035 17.255 2.62312C17.255 1.17588 16.0791 -1.10706e-07 14.6319 -2.37228e-07C13.1847 -3.63749e-07 12.0088 1.17588 12.0088 2.62312C12.0088 2.80402 12.0088 2.98492 12.0992 3.25628L5.67712 7.05528C5.22486 6.60301 4.59169 6.33166 3.86807 6.33166C2.33038 6.33166 1.1545 7.50754 1.1545 9.04523C1.1545 10.5829 2.23993 11.6683 3.77762 11.6683Z" fill="white" fill-opacity="0.7"/>
</g>
<defs>
<clipPath id="clip0">
<rect x="18.25" y="18" width="18" height="18" transform="rotate(-180 18.25 18)" fill="white"/>
</clipPath>
</defs>
</svg>
