<svg width="21" height="17" viewBox="0 0 21 17" fill="none" xmlns="http://www.w3.org/2000/svg">
<path d="M20.0828 1.92375C19.3375 2.25 18.5433 2.46625 17.7153 2.57125C18.5671 2.06375 19.2172 1.26625 19.5228 0.305C18.7287 0.7775 17.8519 1.11125 16.9174 1.2975C16.1633 0.49625 15.0886 0 13.9162 0C11.6414 0 9.81011 1.8425 9.81011 4.10125C9.81011 4.42625 9.83767 4.73875 9.90531 5.03625C6.48945 4.87 3.4669 3.23625 1.43642 0.7475C1.08193 1.36125 0.874001 2.06375 0.874001 2.82C0.874001 4.24 1.60678 5.49875 2.69905 6.2275C2.03893 6.215 1.39133 6.02375 0.842685 5.7225C0.842685 5.735 0.842685 5.75125 0.842685 5.7675C0.842685 7.76 2.2669 9.415 4.13454 9.79625C3.8001 9.8875 3.43559 9.93125 3.0573 9.93125C2.79425 9.93125 2.5287 9.91625 2.27943 9.86125C2.81179 11.485 4.32243 12.6788 6.11868 12.7175C4.72076 13.8088 2.94582 14.4662 1.02431 14.4662C0.687362 14.4662 0.364189 14.4513 0.0410156 14.41C1.86106 15.5813 4.01805 16.25 6.34414 16.25C13.9049 16.25 18.0385 10 18.0385 4.5825C18.0385 4.40125 18.0322 4.22625 18.0235 4.0525C18.8389 3.475 19.5241 2.75375 20.0828 1.92375Z" fill="white"/>
</svg>
