<svg width="20" height="20" viewBox="0 0 20 20" fill="none" xmlns="http://www.w3.org/2000/svg">
<path d="M6.35 13.7361L6.64375 13.4047C6.42914 12.7161 6.42856 11.958 6.65781 11.258C4.96953 12.1892 2.83215 11.8181 1.55625 10.3031C0.608594 11.0576 0 12.2235 0 13.5294V19.4118C0 19.7365 0.2625 20 0.585938 20H5.41328C5.34805 19.8161 5.3125 19.6181 5.3125 19.4118V16.4706C5.3125 15.462 5.68086 14.4906 6.35 13.7361Z" fill="#C5AA79"/>
<path d="M4.6875 10.5882C6.30552 10.5882 7.61719 9.27139 7.61719 7.64701C7.61719 6.02263 6.30552 4.70581 4.6875 4.70581C3.06948 4.70581 1.75781 6.02263 1.75781 7.64701C1.75781 9.27139 3.06948 10.5882 4.6875 10.5882Z" fill="#C5AA79"/>
<path d="M18.4414 10.3031C17.1632 11.8209 15.0243 12.1879 13.3398 11.2576C13.5688 11.959 13.5688 12.7152 13.3539 13.4047L13.6477 13.7361C14.3168 14.4906 14.6852 15.462 14.6852 16.4706V19.4118C14.6852 19.6181 14.6496 19.8161 14.5844 20H19.4117C19.7352 20 19.9977 19.7365 19.9977 19.4118V13.5294C19.9977 12.2235 19.3891 11.0576 18.4414 10.3031Z" fill="#C5AA79"/>
<path d="M15.3125 10.5882C16.9305 10.5882 18.2422 9.27139 18.2422 7.64701C18.2422 6.02263 16.9305 4.70581 15.3125 4.70581C13.6945 4.70581 12.3828 6.02263 12.3828 7.64701C12.3828 9.27139 13.6945 10.5882 15.3125 10.5882Z" fill="#C5AA79"/>
<path d="M10 15.8823C8.87344 15.8823 7.86914 15.3478 7.22539 14.5179C6.76445 15.0379 6.48438 15.7219 6.48438 16.4705V19.4117C6.48438 19.7364 6.74688 20 7.07031 20H12.9297C13.2531 20 13.5156 19.7364 13.5156 19.4117V16.4705C13.5156 15.7219 13.2355 15.0379 12.7746 14.5179C12.1309 15.3478 11.1266 15.8823 10 15.8823Z" fill="#C5AA79"/>
<path d="M10 14.7058C11.2944 14.7058 12.3438 13.6523 12.3438 12.3528C12.3438 11.0533 11.2944 9.99988 10 9.99988C8.70558 9.99988 7.65625 11.0533 7.65625 12.3528C7.65625 13.6523 8.70558 14.7058 10 14.7058Z" fill="#C5AA79"/>
<path d="M8.33277 4.74474C9.00176 5.36545 9.66492 5.77769 9.69281 5.79494C9.88121 5.91134 10.1188 5.91134 10.3071 5.79494C10.3351 5.77769 10.9982 5.36545 11.6672 4.74474C12.6345 3.84724 13.125 2.97472 13.125 2.15146C13.125 0.281798 11.273 -0.595817 10 0.442819C8.7241 -0.598131 6.875 0.286739 6.875 2.15146C6.875 2.97472 7.36547 3.84724 8.33277 4.74474Z" fill="#C5AA79"/>
</svg>
