<svg width="35" height="36" viewBox="0 0 35 36" fill="none" xmlns="http://www.w3.org/2000/svg">
<path d="M35 17.9357C35 8.49857 27.1492 0.820312 17.5 0.820312C7.85082 0.820312 0 8.49857 0 17.9357C0 22.9203 2.19164 27.4132 5.68018 30.5438L5.66364 30.5581L6.23127 31.0261C6.26818 31.0566 6.30827 31.0815 6.34518 31.1114C6.64682 31.356 6.95927 31.5881 7.27745 31.8128C7.38055 31.8856 7.48364 31.9584 7.58864 32.0294C7.92845 32.2584 8.27718 32.4756 8.63355 32.6816C8.71118 32.7265 8.78945 32.77 8.86773 32.8136C9.25782 33.0308 9.65618 33.2356 10.0641 33.4235C10.094 33.4372 10.1245 33.4497 10.1545 33.4633C11.4838 34.0677 12.9029 34.5114 14.3869 34.7734C14.4257 34.7803 14.4645 34.7871 14.504 34.794C14.9647 34.8718 15.4305 34.934 15.9021 34.9757C15.9594 34.9807 16.0166 34.9838 16.0745 34.9888C16.5442 35.0268 17.0189 35.051 17.5 35.051C17.9766 35.051 18.4469 35.0268 18.914 34.99C18.9732 34.9851 19.0324 34.9819 19.0915 34.977C19.5593 34.9353 20.0213 34.8749 20.4775 34.7983C20.517 34.7915 20.5571 34.7846 20.5965 34.7772C22.0583 34.5208 23.457 34.087 24.7692 33.4982C24.8175 33.4764 24.8665 33.4559 24.9149 33.4335C25.3075 33.253 25.6913 33.0582 26.0674 32.8509C26.1609 32.7993 26.2538 32.747 26.3467 32.6935C26.6891 32.4962 27.0257 32.2902 27.3528 32.0711C27.4705 31.9927 27.5857 31.9099 27.7022 31.8277C27.9815 31.6311 28.2558 31.4282 28.5225 31.2159C28.5816 31.1693 28.6453 31.1288 28.7032 31.0809L29.2855 30.6054L29.2683 30.5911C32.7874 27.4593 35 22.9458 35 17.9357ZM1.27273 17.9357C1.27273 9.18443 8.55209 2.06507 17.5 2.06507C26.4479 2.06507 33.7273 9.18443 33.7273 17.9357C33.7273 22.6514 31.6114 26.891 28.2615 29.8C28.0745 29.6737 27.8861 29.5604 27.6933 29.4658L22.3052 26.8313C21.8215 26.5948 21.5212 26.1193 21.5212 25.5909V23.7505C21.6459 23.5999 21.7776 23.4294 21.9138 23.2421C22.6113 22.2786 23.1706 21.2069 23.5785 20.0536C24.3848 19.6789 24.9054 18.8935 24.9054 18.0066V15.8003C24.9054 15.2607 24.703 14.7373 24.3409 14.3259V11.4213C24.374 11.0976 24.4911 9.2753 23.1426 7.77164C21.9698 6.46216 20.0715 5.79933 17.5 5.79933C14.9285 5.79933 13.0302 6.46216 11.8574 7.77101C10.5089 9.27468 10.626 11.0982 10.6591 11.4206V14.3253C10.2976 14.7367 10.0946 15.2601 10.0946 15.7997V18.006C10.0946 18.6912 10.409 19.3304 10.9474 19.7617C11.4628 21.7365 12.5236 23.2315 12.9156 23.7381V25.5392C12.9156 26.0471 12.6325 26.5139 12.1762 26.7579L7.14445 29.4422C6.98409 29.5274 6.825 29.627 6.66591 29.7384C3.35745 26.8307 1.27273 22.6172 1.27273 17.9357Z" fill="white" fill-opacity="0.7"/>
</svg>
