<svg width="26" height="15" viewBox="0 0 26 15" fill="none" xmlns="http://www.w3.org/2000/svg">
<path d="M21.4172 8.60143C21.0006 8.07643 21.1198 7.84286 21.4172 7.37357C21.4225 7.36821 24.8615 2.62607 25.2158 1.01786L25.2179 1.01679C25.394 0.430714 25.2179 0 24.3665 0H21.5492C20.832 0 20.5013 0.369643 20.3242 0.783214C20.3242 0.783214 18.8898 4.20964 16.8605 6.43071C16.2056 7.0725 15.9028 7.27821 15.5453 7.27821C15.3692 7.27821 15.0954 7.0725 15.0954 6.48643V1.01679C15.0954 0.313928 14.8947 0 14.3009 0H9.87099C9.42112 0 9.15378 0.327857 9.15378 0.633214C9.15378 1.29964 10.1684 1.45286 10.2736 3.32786V7.39607C10.2736 8.2875 10.1115 8.45143 9.75181 8.45143C8.7941 8.45143 6.46962 5.01107 5.09211 1.07357C4.81403 0.309643 4.5424 0.00107135 3.81982 0.00107135H1.00145C0.197279 0.00107135 0.0351562 0.370714 0.0351562 0.784286C0.0351562 1.515 0.992864 5.14821 4.48871 9.94821C6.81856 13.2246 10.0997 15 13.0845 15C14.8786 15 15.0976 14.6057 15.0976 13.9275C15.0976 10.7968 14.9355 10.5011 15.8341 10.5011C16.2507 10.5011 16.9679 10.7068 18.6428 12.2871C20.5572 14.1611 20.8717 15 21.9433 15H24.7605C25.5636 15 25.9706 14.6057 25.7365 13.8279C25.2008 12.1918 21.5804 8.82643 21.4172 8.60143Z" fill="white"/>
</svg>
