<svg width="60" height="61" viewBox="0 0 60 61" fill="none" xmlns="http://www.w3.org/2000/svg">
<path d="M60 30.5293C60 13.9878 46.5415 0.529297 30 0.529297C13.4585 0.529297 0 13.9878 0 30.5293C0 39.2664 3.75709 47.1417 9.73745 52.6289L9.70909 52.654L10.6822 53.4744C10.7455 53.5278 10.8142 53.5715 10.8775 53.6238C11.3945 54.0526 11.9302 54.4595 12.4756 54.8533C12.6524 54.9809 12.8291 55.1086 13.0091 55.2329C13.5916 55.6344 14.1895 56.0151 14.8004 56.3762C14.9335 56.4548 15.0676 56.5311 15.2018 56.6075C15.8705 56.9882 16.5535 57.3471 17.2527 57.6766C17.304 57.7006 17.3564 57.7224 17.4076 57.7464C19.6865 58.8057 22.1193 59.5835 24.6633 60.0428C24.7298 60.0548 24.7964 60.0668 24.864 60.0788C25.6538 60.2151 26.4524 60.3242 27.2607 60.3973C27.3589 60.406 27.4571 60.4115 27.5564 60.4202C28.3615 60.4868 29.1753 60.5293 30 60.5293C30.8171 60.5293 31.6233 60.4868 32.424 60.4224C32.5255 60.4137 32.6269 60.4082 32.7284 60.3995C33.5302 60.3264 34.3222 60.2206 35.1044 60.0864C35.172 60.0744 35.2407 60.0624 35.3084 60.0493C37.8142 59.5998 40.212 58.8395 42.4615 57.8075C42.5444 57.7693 42.6284 57.7333 42.7113 57.694C43.3844 57.3777 44.0422 57.0362 44.6869 56.6729C44.8473 56.5824 45.0065 56.4908 45.1658 56.3969C45.7527 56.0511 46.3298 55.69 46.8905 55.306C47.0924 55.1686 47.2898 55.0235 47.4895 54.8795C47.9684 54.5348 48.4385 54.1791 48.8956 53.8071C48.9971 53.7253 49.1062 53.6544 49.2055 53.5704L50.2036 52.7369L50.1742 52.7118C56.2069 47.2224 60 39.3111 60 30.5293ZM2.18182 30.5293C2.18182 15.19 14.6607 2.71112 30 2.71112C45.3393 2.71112 57.8182 15.19 57.8182 30.5293C57.8182 38.7951 54.1909 46.2264 48.4484 51.3253C48.1276 51.1038 47.8047 50.9053 47.4742 50.7395L38.2375 46.1217C37.4084 45.7071 36.8935 44.8737 36.8935 43.9475V40.7217C37.1073 40.4577 37.3331 40.1588 37.5665 39.8304C38.7622 38.1417 39.7211 36.2631 40.4204 34.2417C41.8025 33.5849 42.6949 32.2082 42.6949 30.6537V26.7864C42.6949 25.8406 42.348 24.9231 41.7273 24.202V19.1108C41.784 18.5435 41.9847 15.3493 39.6731 12.7137C37.6625 10.4184 34.4084 9.25657 30 9.25657C25.5916 9.25657 22.3375 10.4184 20.3269 12.7126C18.0153 15.3482 18.216 18.5446 18.2727 19.1097V24.2009C17.6531 24.922 17.3051 25.8395 17.3051 26.7853V30.6526C17.3051 31.8537 17.844 32.974 18.7669 33.73C19.6505 37.1915 21.4691 39.8118 22.1411 40.6998V43.8569C22.1411 44.7471 21.6556 45.5653 20.8735 45.9929L12.2476 50.698C11.9727 50.8475 11.7 51.022 11.4273 51.2173C5.75564 46.1206 2.18182 38.7351 2.18182 30.5293Z" fill="#505769" fill-opacity="0.25"/>
</svg>
